<svg width="28" height="28" viewBox="0 0 28 28" fill="none" xmlns="http://www.w3.org/2000/svg">
<path d="M5.83333 3.5H22.1667C23.4617 3.5 24.5 4.53833 24.5 5.83333V10.5H22.1667V5.83333H5.83333V22.1667H22.1667V17.5H24.5V22.1667C24.5 22.7855 24.2542 23.379 23.8166 23.8166C23.379 24.2542 22.7855 24.5 22.1667 24.5H5.83333C5.21449 24.5 4.621 24.2542 4.18342 23.8166C3.74583 23.379 3.5 22.7855 3.5 22.1667V5.83333C3.5 5.21449 3.74583 4.621 4.18342 4.18342C4.621 3.74583 5.21449 3.5 5.83333 3.5ZM16.24 18.1767L14.5833 19.8333L8.75 14L14.5833 8.16667L16.24 9.81167L13.2183 12.8333H24.5V15.1667H13.2183L16.24 18.1767Z"/>
</svg>
