<svg width="28" height="28" viewBox="0 0 28 28" fill="none" xmlns="http://www.w3.org/2000/svg">
<path d="M19.6437 5.25C20.2807 5.24946 20.9115 5.37611 21.499 5.62253C22.0865 5.86894 22.6189 6.23016 23.0649 6.685C23.984 7.61808 24.4992 8.87526 24.4992 10.185C24.4992 11.4947 23.984 12.7519 23.0649 13.685L13.9999 22.8638L4.93493 13.685C4.01581 12.7519 3.50062 11.4947 3.50062 10.185C3.50062 8.87526 4.01581 7.61808 4.93493 6.685C5.38126 6.23048 5.91368 5.86946 6.5011 5.62301C7.08852 5.37656 7.71915 5.24963 8.35618 5.24963C8.9932 5.24963 9.62384 5.37656 10.2113 5.62301C10.7987 5.86946 11.3311 6.23048 11.7774 6.685L13.9999 8.96L16.2137 6.7025C16.6584 6.24224 17.1914 5.87638 17.7807 5.62681C18.37 5.37724 19.0037 5.24908 19.6437 5.25ZM19.6437 3.5C18.7736 3.49926 17.9121 3.67225 17.1098 4.00882C16.3074 4.34538 15.5803 4.83875 14.9712 5.46L13.9999 6.44L13.0287 5.46C12.4188 4.83987 11.6915 4.34736 10.8893 4.01117C10.0871 3.67498 9.22598 3.50184 8.35618 3.50184C7.48637 3.50184 6.62527 3.67498 5.82306 4.01117C5.02085 4.34736 4.29359 4.83987 3.68368 5.46C2.44282 6.72317 1.74756 8.42307 1.74756 10.1938C1.74756 11.9644 2.44282 13.6643 3.68368 14.9275L13.9999 25.375L24.3162 14.9275C25.557 13.6643 26.2523 11.9644 26.2523 10.1938C26.2523 8.42307 25.557 6.72317 24.3162 5.46C23.7064 4.83954 22.9792 4.34669 22.177 4.01018C21.3748 3.67367 20.5136 3.50024 19.6437 3.5Z"/>
</svg>
