<svg width="30" height="30" viewBox="0 0 30 30" fill="none" xmlns="http://www.w3.org/2000/svg">
<path d="M14.2382 10.8649V12.7239H12.8774V14.9959H14.2382V21.75H17.0354V14.9959H18.9119C18.9119 14.9959 19.0888 13.9065 19.1738 12.7145H17.0462V11.162C17.0462 10.9284 17.3513 10.6165 17.6537 10.6165H19.1765V8.25H17.1043C14.1694 8.25 14.2382 10.5247 14.2382 10.8649Z"/>
<path d="M7.9 4.2C7.18392 4.2 6.49716 4.48446 5.99081 4.99081C5.48446 5.49716 5.2 6.18392 5.2 6.9V23.1C5.2 23.8161 5.48446 24.5028 5.99081 25.0092C6.49716 25.5155 7.18392 25.8 7.9 25.8H24.1C24.8161 25.8 25.5028 25.5155 26.0092 25.0092C26.5155 24.5028 26.8 23.8161 26.8 23.1V6.9C26.8 6.18392 26.5155 5.49716 26.0092 4.99081C25.5028 4.48446 24.8161 4.2 24.1 4.2H7.9ZM7.9 1.5H24.1C25.5322 1.5 26.9057 2.06893 27.9184 3.08162C28.9311 4.09432 29.5 5.46783 29.5 6.9V23.1C29.5 24.5322 28.9311 25.9057 27.9184 26.9184C26.9057 27.9311 25.5322 28.5 24.1 28.5H7.9C6.46783 28.5 5.09432 27.9311 4.08162 26.9184C3.06893 25.9057 2.5 24.5322 2.5 23.1V6.9C2.5 5.46783 3.06893 4.09432 4.08162 3.08162C5.09432 2.06893 6.46783 1.5 7.9 1.5V1.5Z"/>
</svg>
