<svg width="25" height="23" viewBox="0 0 25 23" fill="none" xmlns="http://www.w3.org/2000/svg">
<path d="M18.0084 14.4594C17.4412 14.462 16.8819 14.5801 16.3716 14.8049C15.8614 15.0298 15.4134 15.3558 15.0606 15.7587L9.5211 12.6169C9.72299 12.0257 9.72299 11.393 9.5211 10.8019L15.0606 7.65999C15.6228 8.29161 16.4134 8.7223 17.2921 8.87577C18.1709 9.02925 19.0811 8.89559 19.8616 8.49849C20.6422 8.10138 21.2426 7.46646 21.5565 6.70619C21.8705 5.94592 21.8777 5.10938 21.5769 4.34475C21.2761 3.58013 20.6866 2.93677 19.913 2.52865C19.1395 2.12053 18.2316 1.97399 17.3503 2.11499C16.469 2.25598 15.6712 2.67542 15.0982 3.29899C14.5251 3.92256 14.2138 4.71002 14.2194 5.52187C14.223 5.8293 14.274 6.13477 14.371 6.42937L8.83151 9.57124C8.34246 9.01271 7.674 8.60603 6.91879 8.40758C6.16358 8.20913 5.35903 8.22874 4.61665 8.46369C3.87428 8.69864 3.23085 9.1373 2.77556 9.71885C2.32028 10.3004 2.07568 10.9961 2.07568 11.7094C2.07568 12.4227 2.32028 13.1183 2.77556 13.6999C3.23085 14.2814 3.87428 14.7201 4.61665 14.955C5.35903 15.19 6.16358 15.2096 6.91879 15.0112C7.674 14.8127 8.34246 14.406 8.83151 13.8475L14.371 16.9894C14.274 17.284 14.223 17.5894 14.2194 17.8969C14.2194 18.5767 14.4417 19.2413 14.858 19.8066C15.2743 20.3719 15.8661 20.8125 16.5584 21.0727C17.2508 21.3329 18.0126 21.401 18.7476 21.2683C19.4826 21.1357 20.1577 20.8083 20.6876 20.3275C21.2175 19.8468 21.5784 19.2343 21.7246 18.5675C21.8708 17.9007 21.7958 17.2095 21.509 16.5814C21.2222 15.9533 20.7366 15.4164 20.1135 15.0387C19.4904 14.661 18.7578 14.4594 18.0084 14.4594V14.4594ZM18.0084 3.45937C18.4581 3.45937 18.8976 3.58033 19.2715 3.80696C19.6453 4.03359 19.9367 4.35571 20.1088 4.73258C20.2808 5.10946 20.3259 5.52416 20.2381 5.92424C20.1504 6.32433 19.9339 6.69183 19.616 6.98028C19.298 7.26872 18.8929 7.46516 18.4519 7.54474C18.011 7.62432 17.5538 7.58348 17.1384 7.42737C16.723 7.27126 16.368 7.00691 16.1182 6.66773C15.8684 6.32856 15.735 5.92979 15.735 5.52187C15.735 4.97486 15.9746 4.45025 16.4009 4.06346C16.8272 3.67667 17.4055 3.45937 18.0084 3.45937V3.45937ZM5.88368 13.7719C5.43404 13.7719 4.99451 13.6509 4.62065 13.4243C4.24679 13.1976 3.95541 12.8755 3.78334 12.4987C3.61127 12.1218 3.56625 11.7071 3.65397 11.307C3.74169 10.9069 3.95821 10.5394 4.27615 10.251C4.59409 9.96252 4.99917 9.76608 5.44016 9.6865C5.88116 9.60692 6.33826 9.64776 6.75367 9.80387C7.16908 9.95997 7.52413 10.2243 7.77393 10.5635C8.02374 10.9027 8.15707 11.3014 8.15707 11.7094C8.15707 12.2564 7.91755 12.781 7.49121 13.1678C7.06487 13.5546 6.48662 13.7719 5.88368 13.7719ZM18.0084 19.9594C17.5588 19.9594 17.1193 19.8384 16.7454 19.6118C16.3715 19.3851 16.0802 19.063 15.9081 18.6862C15.736 18.3093 15.691 17.8946 15.7787 17.4945C15.8664 17.0944 16.083 16.7269 16.4009 16.4385C16.7188 16.15 17.1239 15.9536 17.5649 15.874C18.0059 15.7944 18.463 15.8353 18.8784 15.9914C19.2938 16.1475 19.6489 16.4118 19.8987 16.751C20.1485 17.0902 20.2818 17.4889 20.2818 17.8969C20.2818 18.4439 20.0423 18.9685 19.616 19.3553C19.1896 19.7421 18.6114 19.9594 18.0084 19.9594V19.9594Z" fill="#C1C1C1"/>
</svg>
