<svg width="120" height="100" fill="none" xmlns="http://www.w3.org/2000/svg"><g clip-path="url(#clip0_16_3099)"><path d="M58.053 44.019a2.98 2.98 0 005.797-1.396 8.917 8.917 0 00-8.697-6.847h-5.962a8.956 8.956 0 00-8.943 8.943V67.08h-8.944a2.986 2.986 0 01-2.981-2.98V34.66l22.395-12.54a2.996 2.996 0 012.91.002L76.02 34.66v11.55a2.98 2.98 0 105.962 0v-9.23c.255.02.51.048.766.048a9.702 9.702 0 009.669-9.683 8.952 8.952 0 00-4.574-7.805L56.542 2.012a8.989 8.989 0 00-8.741 0L34.284 9.58v-.638a8.943 8.943 0 10-17.887 0v10.665a8.944 8.944 0 00-4.472 7.736 9.663 9.663 0 0010.434 9.637v27.117a8.953 8.953 0 008.944 8.944h11.925a2.982 2.982 0 002.981-2.98V44.72a2.986 2.986 0 012.981-2.98h5.963a2.975 2.975 0 012.899 2.279zM25.34 5.963a2.985 2.985 0 012.98 2.98v3.978l-5.962 3.34V8.944a2.985 2.985 0 012.982-2.981zm-5.62 24.582a3.642 3.642 0 01-1.833-3.198 2.98 2.98 0 011.525-2.602L50.718 7.214a2.996 2.996 0 012.91 0l31.304 17.53a2.99 2.99 0 011.524 2.602 3.707 3.707 0 01-5.519 3.235L56.544 16.92a8.989 8.989 0 00-8.742-.001L23.407 30.58a3.647 3.647 0 01-3.685-.036h-.001zm87.458 55.123a5.901 5.901 0 00-2.668-3.739l-7.634-4.74a6.044 6.044 0 00-7.278.73l-4.246-2.636a17.4 17.4 0 00.965-10.68 17.658 17.658 0 00-7.991-11.181 18.22 18.22 0 00-24.844 5.526 17.455 17.455 0 00-2.37 13.37 17.663 17.663 0 007.99 11.183A18.2 18.2 0 0082.13 80.3l4.267 2.648a5.848 5.848 0 00-.155 3.073 5.906 5.906 0 002.669 3.738l7.634 4.742a6.036 6.036 0 008.231-1.843l1.608-2.5.002-.002a5.862 5.862 0 00.794-4.488zm-44.93-7.234a11.743 11.743 0 01-5.319-7.427 11.533 11.533 0 011.57-8.835 12.237 12.237 0 0116.683-3.684 11.74 11.74 0 015.319 7.427 11.532 11.532 0 01-1.57 8.835 12.226 12.226 0 01-16.683 3.684zm37.44 11l-7.636-4.678 1.68-2.502 7.606 4.724-1.65 2.456z" fill="#EA9D3A"/></g><defs><clipPath id="clip0_16_3099"><path fill="#fff" d="M0 0h119.25v100H0z"/></clipPath></defs></svg>