<svg width="116" height="100" fill="none" xmlns="http://www.w3.org/2000/svg"><path d="M101.381 64.952a8.29 8.29 0 00-3.04-5.8 8.561 8.561 0 00-11.85 1.02L76.455 71.85a8.619 8.619 0 00-8.649-8.343h-8.264c-3.473-2.677-8.876-4.249-14.748-4.249-4.495-.11-8.943.93-12.924 3.021v-1.434a2.898 2.898 0 00-2.897-2.898h-11.59a2.898 2.898 0 00-2.897 2.898v28.973a2.898 2.898 0 002.897 2.898h11.59a2.898 2.898 0 002.897-2.898v-3.524h4.571a24.024 24.024 0 019.384 1.896 29.79 29.79 0 0011.637 2.353H75.53A14.485 14.485 0 0086.355 85.7l12.941-14.562a8.266 8.266 0 002.085-6.186zM26.076 86.92h-5.795V63.74h5.795v23.18zm68.89-19.631L82.023 81.85a8.683 8.683 0 01-6.494 2.897H57.462a24.03 24.03 0 01-9.384-1.897 29.77 29.77 0 00-11.636-2.35H31.87v-9.847c0-2.284 5.035-5.6 12.923-5.6 4.846 0 9.446 1.365 11.722 3.476a2.9 2.9 0 001.97.773h9.32a2.815 2.815 0 012.857 2.767v1.35h-15.8a2.897 2.897 0 100 5.795h21.574c.845 0 1.647-.368 2.197-1.008L90.885 63.95a2.729 2.729 0 013.781-.318 2.54 2.54 0 01.937 1.776 2.51 2.51 0 01-.638 1.882zM67.237 37.066a2.9 2.9 0 010 4.098l-8.692 8.692a2.897 2.897 0 01-4.097 0l-4.346-4.346a2.898 2.898 0 014.097-4.098l2.298 2.297 6.643-6.643a2.898 2.898 0 014.097 0zm-43.76-2.383a9.322 9.322 0 005.495 1.257v14.764a2.897 2.897 0 105.795 0V33.686L56.53 21.5c.88-.49 1.95-.49 2.83 0l21.765 12.187v18.467a2.897 2.897 0 105.794 0V35.94c.248.02.497.048.746.048a9.432 9.432 0 009.395-9.41 8.697 8.697 0 00-4.346-7.52V8.693a8.691 8.691 0 10-17.384 0v.62L62.193 1.954a8.747 8.747 0 00-8.493 0L23.277 18.99a8.7 8.7 0 00-4.445 7.585 9.31 9.31 0 004.646 8.108zm57.648-25.99a2.897 2.897 0 115.794 0v7.11l-5.794-3.245V8.693zM26.109 24.05L56.531 7.013a2.913 2.913 0 012.83 0l30.422 17.036a2.9 2.9 0 011.483 2.528 3.603 3.603 0 01-5.363 3.143l-23.71-13.277a8.747 8.747 0 00-8.494 0L29.99 29.72a3.603 3.603 0 01-5.363-3.143 2.896 2.896 0 011.482-2.528z" fill="#EA9D3A"/></svg>