<svg width="843" height="449" fill="none" xmlns="http://www.w3.org/2000/svg"><mask id="a" style="mask-type:alpha" maskUnits="userSpaceOnUse" x="0" y="0" width="843" height="449"><path d="M843 0H0v448.94h843V0z" fill="#EBEBEB"/></mask><g mask="url(#a)"><path d="M805.513 23.448l-3.419 1.368-1.335.521-4.139-.229-3.877 1.875-6.877 4.693-.294.212-2.574.667-2.379-1.027-1.35.62-.456 2.788-1.286 2.004-1.579 1.108-5.488.554-4.627 2.395-6.013-1.612-2.803 1.09-5.946 5.36-3.032 1.435-1.057-.065-4.027-.212-1.709.57-2.542 2.445-4.806.375-1.499 1.044-2.346 4.724-2.541 2.623-1.452.31-1.563-.587-1.191.212-.539 3.03-1.158 1.26-3.209 1.107-2.574 2.152-2.25 1.156-3.03-.082h-.684l-3.015 1.662-5.654.506-2.363 2.249-.522.473-1.09.668-1.793 1.08-.44.26-2.183-.391-2.525 1.01-1.027-1.58-1.759 1.058-2.314.098-2.901-1.287-2.214-.99-1.614.244-.555 2.803-.064.31-1.695 2.25-3.161 1.923-.44.553-3.599 4.66-6.843 7.198-5.801 2.933-5.994 1.825-4.205 3.454-11.031 5.458-17.385 8.669-3.553 1.14-5.115.815-9.093 3.356-8.032 2.413-.456.145-1.597.473-11.324 3.438-5.262-.571-3.13 1.141-8.131-.9-5.652.114-3.57.734-6.729 3.226-11.336 5.459-3.747 3.419-5.848 3.048-6.826 2.165.015-2.867-.049-.129-2.379.749-1.709.555-5.539.847h-3.08l-1.923-.554-.293.098-11.336 3.731-12.645 1.222-6.321 2.02-4.726-.067-2.949.881-5.8.701-2.069-.555-.472-.129-17.044.749-7.789-.88-3.714.847-6.24-2.102-9.076-1.059-2.134-.634-4.792-1.418-2.15 1.259-1.63.162-3.86-1.401-1.385-.034-3.194 1.157-1.84-.472-1.71-1.35-3.992-.601-2.443-2.055-13.639 1.808-3.698-1.073-12.399-3.619-1.973.098-2.46 1.842-3.699 1.349-3.21.832-4.366.145-5.067-1.336-5.231-2.542-1.939-.455-4.319.44-1.32.114-7.917-4.252-10.216-6.371-6.927-3.342-2.609-.423-.343 1.238 1.286 4.058.441 4.025-.13 3.715-.081 2.297.651 2.069 2.508 2.77 1.044 2.789.75 7.674v7.773l-1.223 12.4-.431 1.863-1.451 6.436-1.32 5.899-5.147 15.708-1.419 1.938-3.455 2.38-7.869 5.343-5.784 3.322-1.825.766-4.692.36-2.933-.147-3.65-1.972-3.569-.927-4.692-3.374-5.218-1.08-5.719-3.307-1.483-1.776-3.112-.293-4.318-1.305-1.581-.472-1.091-.326-5.523-.147-5.133-2.362-2.689-.651-3.699-.197-3.86 1.809-1.972.913-2.477-.99-1.775.114-2.036 3.059-.246.473-1.4.749-1.745-.033-1.367-.031-1.466.635-1.988.863-1.744.766-.863.376-.017-.017-.522.098-.927.163-1.158.228-2.053-1.191-1.091-.651-1.824-.374-.977.719-.197 3.34-.9 1.989-2.835 2.525-2.901 2.541-2.004 2.969-5.322 12.167-3.34 4.905-1.044 1.14-3.508 3.862-3.095 2.396-7.138 5.539-6.76 2.524-5.818 1.192h-2.818l-5.377-.702-4.807-1.484-5.295-3.307-5.8-4.678-8.408-8.295-1.19-.72-.244-.163-2.64-1.695-1.972.05-.766 1.27-.423 1.841-.36 1.613-.96 9.24.08.539.507 3.797 6.37 8.912 1.972 4.742.327.54 1.319 2.216.995 1.679.098.18 2.183 6.502-1.529 3.681.765 2.462-1.923 1.499-.36 2.134 5.717 7.186 1.261 3.16-1.401 4.4-2.216 2.411-.635.669.326 1.858 2.622 2.362 4.482 3.991 2.396 5.932 1.809 1.598 2.117-.458 1.169.9 1.776-.033 1.76 1.76 1.125.54 1.792.899 1.418 1.841.325 5.687 2.641 7.04.031 3.829.017.54 1.646 2.817.521 2.233-.879 5.898 2.102 1.889 2.264-.457 1.483.229 2.346 1.972 2.851 4.35 2.804-.407 1.775.847 8.555 7.737 1.939.978.098.065 1.402.684 1.744 1.76 2.687-1.792.293-.032 2.933-.245 1.286.864 2.462 1.662 3.238-.032 7.023 2.15 3.08.782 6.175 3.846 2.625 1.63 1.547 1.254 2.069 1.678 4.124 1.776 3.535.847 1.923.456 1.449.554.034-.081h.033l-.05.081 7.675 2.933 4.138.977 3.846 1.418 2.789 1.011 2.053.032 2.901-2.443 2.82-.163 2.33.586 2.28-.373 3.598-2.232.701-1.044 2.557-1.205 8.621-1.08 2.508.815 6.469-2.802 4.333 1.205 3.83-1.367 8.391 1.857 2.216 1.579 2.493 2.835.309.017 2.77.05-1.157 1.939 3.649 3.829 3.309 5.003.227.666 2.396 7.04 1.792 2.51 1.255 3.486.066 2.264-1.956 1.484-.31.846-.113.31.39.963.733-.409 1.402-.765 1.695-.261 2.997.31 1.971.212 3.13-1.548 2.069-1.043 3.324 1.433 3.649-.032 1.547.684 4.35 1.972 2.217.194.816-.539.521-1.241-.26-1.449-1.679-1.908-3.665-4.268-1.501-2.183-1.157-3.177-.343-4.042-.261-2.736.457-3.599.995-1.272.72-2.852h.016l.18-.75 2.053-2.705 5.398-3.47 5.8-5.198 4.579-3.03 4.725-2.037.13-.586.539.211 12.01-4.089.212-.017 5.344-.927 36.139 2.541 1.335-.407v-.017l1.207-3.372.651-.62.441-.406 3.958-1.761 1.858-.26 5.165 1.27 2.101.522 3.391-1.89 2.395.033 4.954-2.704 3.063.081 1.156-.472 5.965-4.285 5.752-1.647 1.483-.782.54-.293 5.875-3.114 3.747-2.868 3.225-1.729 3.537-.912 9.24-.65 1.872-3.097 3.977-.521 2.394-2.721 2.754-1.108 1.973-2.851 1.66-2.379 2.299-1.336 7.396-.457 8.767 1.092 1.157-.72 1.987-7.056 2.069-1.336 5.588-8.131.017-2.969v-2.476l.913-3.536-.619-6.371.733-6.436 3.471-8.196 3.059-3.308 4.938-3.341 2.508-1.09 3.536-.589.54-.098.9-.144 12.235-.163c.164-.13 4.432-.067 4.432-.067l4.091-.049 10.314 1.825.733.131 3.486 1.124 4.009 3.127 4.269 4.156.798.783 2.754 1.157.831.373 2.28-.373 3.244-1.679 2.444-2.069 3.341-1.826.082-.112 1.873-2.835.065-.05h.033v-.017h-.033l.75-1.124 6.452-2.509 7.577-.44.846-.456.472-.243 2.006-2.363 1.889-.017 4.546 1.646 3.178-.636 2.542 1.011 1.971-.228 3.715-.439 4.008 2.818 2.314.294 8.212 4.791.425.065.227.049.456.082.977-.294 1.451-.423.196-.05.18.245.927 1.319 1.289.18 1.515-2.02-.602-.912-.228-.327-2.933-.602-2.64-4.498 2.51-2.705-3.928-4.807-.652-.815-.228-.324-1.35-2.07-6.877-10.494-8.978-7.151-3.128-2.51-.032-.016-1.093-.863-4.79-4.872-3.419-4.546-.439-.979-.702-1.529-2.051-4.465-3.568-2.754-2.919-3.176-.147-.195-5.994-8.163-.99-1.35-1.418-.829-2.981-.017-.293-.294-.18-.18.114-.098 1.434-1.433 1.596-.407.702-1.564-3.059-8.847-.017-.31-.228-2.834 2.493-12.84.31-1.564 4.252-8.637 2.624-2.15 2.867-5.654 2.477-3.598 2.345-2.298.424-.244 4.254-2.574 3.568-.506 3.404-.472 5.948 1.825 5.655-.099 1.107-.132 2.559-.275 4.219-1.336 2.003-1.239 1.027-1.581 2.152-7.234.7-2.297 1.319-2.493 7.708-8.863 5.816-5.377 13.068-9.597 6.403-3.813 3.276-1.956 29.183-12.97 7.576-7.69 3.959-4.008 6.989-4.678 8.18-3.357 7.039-5.572 1.53-1.94 1.939-6.223 1.614-.39 1.45-3.161.423-.9 5.734-4.04.653-.327 22.305-11.178 3.239.44 1.744-2.609 6.502-1.08 1.188-.21 1.597-.8 1.35-2.314v-.455l.194-6.208 1.385-1.662.751-4.09.72-.946.75-.977 1.824-1.287-.31-.783.037.056z" fill="#F7F6F6"/></g></svg>