<svg width="19" height="19" fill="none" xmlns="http://www.w3.org/2000/svg"><path d="M9.58 11.367a2.273 2.273 0 100-4.547 2.273 2.273 0 000 4.547z" fill="#fff"/><path d="M15.642 3.031H13.24l-.94-1.023a1.508 1.508 0 00-1.114-.492H7.973c-.424 0-.834.181-1.122.492L5.92 3.031H3.517a1.52 1.52 0 00-1.516 1.516v9.093a1.52 1.52 0 001.516 1.516h12.125a1.52 1.52 0 001.515-1.516V4.547a1.52 1.52 0 00-1.515-1.516zm-6.063 9.852a3.79 3.79 0 01-3.789-3.79 3.79 3.79 0 013.79-3.788 3.79 3.79 0 013.788 3.789 3.79 3.79 0 01-3.789 3.789z" fill="#fff"/></svg>