<svg width="111" height="90" fill="none" xmlns="http://www.w3.org/2000/svg"><g clip-path="url(#clip0_88_565)"><path d="M60.206 52.602a2.765 2.765 0 002.917-1.067c.52-.722.663-1.65.382-2.496l-3.244-9.788a26.074 26.074 0 003.385-12.908 26.42 26.42 0 00-5.31-15.929A26.333 26.333 0 0044.509.924a26.28 26.28 0 00-16.741.794 26.34 26.34 0 00-12.871 10.756 26.422 26.422 0 003.048 31.694 26.314 26.314 0 0014.683 8.096 26.282 26.282 0 0016.585-2.424l10.993 2.762zM47.473 44.48a20.442 20.442 0 01-10.116 2.66 20.734 20.734 0 01-14.675-6.091 20.82 20.82 0 01-6.08-14.706 20.82 20.82 0 016.08-14.706 20.734 20.734 0 0114.675-6.09 20.734 20.734 0 0114.676 6.09 20.819 20.819 0 016.079 14.706 20.502 20.502 0 01-3.208 11.074 2.776 2.776 0 00-.297 2.37l2.058 6.208-7.148-1.796a2.748 2.748 0 00-2.043.28v.001zm4.522-17.821a2.777 2.777 0 00-.486-3.891l-3.083-2.402v-5.114c0-.991-.527-1.907-1.383-2.402a2.763 2.763 0 00-2.767 0 2.774 2.774 0 00-1.384 2.402v.8l-3.836-2.99a2.765 2.765 0 00-3.397 0l-12.453 9.706a2.768 2.768 0 00.427 4.647c.839.432 1.84.406 2.655-.071v4.545a5.555 5.555 0 001.623 3.92 5.532 5.532 0 003.912 1.626h11.069a5.532 5.532 0 003.912-1.626 5.556 5.556 0 001.622-3.92v-4.573a2.672 2.672 0 003.569-.657zm-11.87 5.23v-1.386c0-.991-.528-1.907-1.384-2.402a2.763 2.763 0 00-2.767 0 2.774 2.774 0 00-1.384 2.402v1.386h-2.767v-8.81l5.534-4.313 5.535 4.313v8.81h-2.767zm48.426 4.16H80.25a8.3 8.3 0 00-5.868 2.439 8.336 8.336 0 00-2.434 5.88v5.545a8.343 8.343 0 001.977 5.382 8.31 8.31 0 004.98 2.827 23.71 23.71 0 01-9.834 9.854 8.336 8.336 0 00-2.82-4.99 8.305 8.305 0 00-5.372-1.981h-5.535a8.3 8.3 0 00-5.867 2.439 8.335 8.335 0 00-2.434 5.88v8.318a11.073 11.073 0 003.184 7.803 11.027 11.027 0 007.746 3.289h.139a41.445 41.445 0 0020.793-5.596 41.55 41.55 0 0015.2-15.282 41.66 41.66 0 005.515-20.855 11.07 11.07 0 00-3.282-7.762 11.028 11.028 0 00-7.787-3.19zM83.55 72.63a35.724 35.724 0 01-11.663 7.833 35.663 35.663 0 01-13.774 2.725h-.12a5.492 5.492 0 01-3.848-1.654 5.515 5.515 0 01-1.567-3.892v-8.318a2.78 2.78 0 01.812-1.96 2.768 2.768 0 011.955-.813h5.535a2.768 2.768 0 011.956.813c.518.52.81 1.224.811 1.96v2.797c0 .89.428 1.728 1.149 2.249a2.764 2.764 0 002.492.382 29.157 29.157 0 0011.35-7.044 29.233 29.233 0 007.029-11.373 2.777 2.777 0 00-.38-2.498 2.765 2.765 0 00-2.245-1.15H80.25a2.768 2.768 0 01-1.956-.814 2.78 2.78 0 01-.812-1.96v-5.545a2.78 2.78 0 01.812-1.96 2.769 2.769 0 011.956-.813h8.301a5.492 5.492 0 013.884 1.57 5.513 5.513 0 011.65 3.857A35.865 35.865 0 0183.55 72.63z" fill="#EA9D3A"/></g><defs><clipPath id="clip0_88_565"><path fill="#fff" d="M0 0h110.69v90H0z"/></clipPath></defs></svg>