<svg width="48" height="53" fill="none" xmlns="http://www.w3.org/2000/svg"><path d="M0 53V33.722l16.192-9.901V53H0zM29.56 0v11.124l-.057 20.618L29.445 53h-1.901V30.519l-2.305-1.34L25.18 53h-1.96V28.014l-2.65-1.572L20.514 53h-1.902V25.277l-2.42-1.456V8.212L29.56 0zM48 11.124L47.827 53h-1.901V9.843L48 11.124z" fill="#EA9D3A"/><path d="M43.275 8.212L43.218 53h-1.96V6.93l2.017 1.282z" fill="#A67154"/><path d="M38.665 5.3L38.55 53h-1.902V4.019L38.665 5.3zm-4.091-2.563L34.459 53h-1.902V1.456l2.017 1.281z" fill="#EA9D3A"/></svg>