<svg width="80" height="80" fill="none" xmlns="http://www.w3.org/2000/svg"><path d="M44.423 47.454a2.498 2.498 0 002.978-3.21l-2.928-8.816v-.001A23.45 23.45 0 0047.528 23.8 23.767 23.767 0 0030.255.904 23.766 23.766 0 00.11 26.044 23.763 23.763 0 0034.5 44.965l9.923 2.489zM32.93 40.138h.001a18.48 18.48 0 01-9.131 2.395A18.734 18.734 0 1142.533 23.8a18.44 18.44 0 01-2.895 9.976 2.496 2.496 0 00-.269 2.134l1.858 5.592-6.452-1.618a2.485 2.485 0 00-1.844.253zm4.082-16.053a2.498 2.498 0 00-.44-3.505l-2.781-2.164v-4.607a2.498 2.498 0 10-4.996 0v.721l-3.462-2.692a2.5 2.5 0 00-3.066 0l-11.24 8.742a2.492 2.492 0 002.782 4.122v4.094a4.999 4.999 0 004.995 4.996h9.991a4.999 4.999 0 004.996-4.996v-4.12a2.412 2.412 0 003.22-.591zm-10.714 4.711v-1.249a2.498 2.498 0 10-4.996 0v1.249h-2.498V20.86l4.996-3.885 4.995 3.885v7.936h-2.497zm43.71 3.747h-7.493a7.5 7.5 0 00-7.493 7.493v4.995a7.505 7.505 0 006.28 7.395 21.379 21.379 0 01-8.877 8.876 7.505 7.505 0 00-7.394-6.28h-4.996a7.5 7.5 0 00-7.493 7.494v7.493A9.964 9.964 0 0042.408 80h.125a37.467 37.467 0 0037.466-37.591 9.962 9.962 0 00-9.991-9.867zm-4.515 32.951a32.249 32.249 0 01-22.96 9.51h-.108a4.962 4.962 0 01-4.888-4.995v-7.493a2.501 2.501 0 012.498-2.498h4.996a2.501 2.501 0 012.497 2.498v2.52a2.498 2.498 0 003.287 2.37 26.325 26.325 0 0016.589-16.59 2.497 2.497 0 00-2.37-3.287h-2.52a2.501 2.501 0 01-2.497-2.497v-4.996a2.5 2.5 0 012.498-2.497h7.493a4.962 4.962 0 014.996 4.888 32.25 32.25 0 01-9.51 23.067z" fill="#EA9D3A"/></svg>