<svg width="80" height="80" fill="none" xmlns="http://www.w3.org/2000/svg"><path d="M21.25 37.501a21.25 21.25 0 1021.249 21.25 21.27 21.27 0 00-21.25-21.25zm0 37.5a16.25 16.25 0 1116.25-16.25 16.27 16.27 0 01-16.25 16.25zm8.017-21.769a2.5 2.5 0 010 3.536l-7.5 7.5a2.5 2.5 0 01-3.535 0l-3.75-3.75a2.502 2.502 0 011.132-4.157 2.502 2.502 0 012.403.622L20 58.965l5.733-5.732a2.501 2.501 0 013.535 0zm46.983-36.79V7.5a7.5 7.5 0 10-15 0v.534L49.915 1.686a7.549 7.549 0 00-7.33 0l-26.25 14.7a7.515 7.515 0 00-3.835 6.545 8.1 8.1 0 008.75 8.08v1.49a2.5 2.5 0 105 0v-3.436L45.03 18.55a2.511 2.511 0 012.442 0L66.25 29.066V53.75a2.501 2.501 0 01-2.5 2.5h-7.5V40a7.507 7.507 0 00-7.5-7.5h-5a7.524 7.524 0 00-6.812 4.359 2.5 2.5 0 104.539 2.096A2.515 2.515 0 0143.75 37.5h5a2.501 2.501 0 012.5 2.5v16.25h-2.5a2.5 2.5 0 100 5h15a7.507 7.507 0 007.5-7.5V31.01c.215.017.429.04.644.04A8.135 8.135 0 0080 22.93a7.505 7.505 0 00-3.75-6.487h.001zm-10-8.942a2.5 2.5 0 115 0v6.134l-5-2.8V7.5zm7.213 18.113a3.057 3.057 0 01-3.091.03L49.915 14.185a7.549 7.549 0 00-7.33 0L22.128 25.644A3.109 3.109 0 0117.5 22.93a2.503 2.503 0 011.278-2.18l26.251-14.7a2.514 2.514 0 012.442 0l26.25 14.7a2.5 2.5 0 011.28 2.18 3.05 3.05 0 01-1.538 2.682z" fill="#EA9D3A"/></svg>