<svg width="80" height="80" fill="none" xmlns="http://www.w3.org/2000/svg"><path d="M75.187 40.283l-3.937-1.39V33.75a2.5 2.5 0 10-5 0v3.379l-7.599-2.683a7.241 7.241 0 00-4.802 0l-16.536 5.836A7.215 7.215 0 0039.72 54.3c.093 0 .187-.02.28-.024v9.473a7.506 7.506 0 007.5 7.5H65a7.507 7.507 0 007.5-7.5v-9.468a7.206 7.206 0 002.687-14zM65 66.25H47.5a2.504 2.504 0 01-2.5-2.5V52.872l10.513-3.71a2.223 2.223 0 011.475 0l10.512 3.71V63.75a2.504 2.504 0 01-2.5 2.5zm9.064-17.356a2.188 2.188 0 01-2.016.28l-13.397-4.728a7.241 7.241 0 00-4.802 0l-13.397 4.73a2.215 2.215 0 01-1.474-4.179l16.534-5.836a2.223 2.223 0 011.476 0l16.534 5.837A2.218 2.218 0 0175 47.086a2.188 2.188 0 01-.936 1.808zM11.25 18.75a2.5 2.5 0 012.5-2.5H27.5a2.5 2.5 0 110 5H13.75a2.5 2.5 0 01-2.5-2.5zm2.5 13.75H27.5a2.5 2.5 0 100-5H13.75a2.5 2.5 0 100 5zM47.5 30a2.5 2.5 0 00-2.5-2.5H35a2.5 2.5 0 100 5h10a2.5 2.5 0 002.5-2.5zm-20 8.75H25a2.5 2.5 0 100 5h2.5a2.5 2.5 0 100-5zm-13.75 5h3.75a2.5 2.5 0 100-5h-3.75a2.5 2.5 0 100 5zM30 52.5a2.5 2.5 0 00-2.5-2.5H13.75a2.5 2.5 0 100 5H27.5a2.5 2.5 0 002.5-2.5zm-3.75 13.75h7.5a2.5 2.5 0 100-5h-7.5a2.5 2.5 0 100 5zm-12.5-5a2.5 2.5 0 100 5h5a2.5 2.5 0 100-5h-5zM60 22.5v6.25a2.5 2.5 0 11-5 0V25H42.5a7.506 7.506 0 01-7.5-7.5V5H7.5A2.504 2.504 0 005 7.5v65A2.505 2.505 0 007.5 75h45a2.5 2.5 0 001.665-.635 2.497 2.497 0 013.553.177 2.5 2.5 0 01-.221 3.551A7.488 7.488 0 0152.5 80h-45A7.506 7.506 0 010 72.5v-65A7.507 7.507 0 017.5 0h30a2.5 2.5 0 011.768.732l20 20A2.5 2.5 0 0160 22.5zM51.464 20L40 8.536V17.5a2.505 2.505 0 002.5 2.5h8.964z" fill="#EA9D3A"/></svg>