<svg width="40" height="40" fill="none" xmlns="http://www.w3.org/2000/svg"><path fill-rule="evenodd" clip-rule="evenodd" d="M12.442 1.777c1.955-.09 2.578-.11 7.558-.11s5.604.021 7.557.11c1.953.088 3.287.4 4.453.851a9.02 9.02 0 013.247 2.117A8.955 8.955 0 0137.37 7.99c.454 1.167.764 2.5.854 4.45.09 1.958.11 2.582.11 7.56 0 4.98-.022 5.603-.11 7.558-.089 1.95-.4 3.284-.854 4.45a8.993 8.993 0 01-2.113 3.249 8.989 8.989 0 01-3.247 2.113c-1.166.453-2.5.763-4.45.853-1.956.09-2.58.11-7.56.11-4.98 0-5.603-.021-7.558-.11-1.95-.088-3.283-.4-4.45-.853a8.996 8.996 0 01-3.248-2.113 8.986 8.986 0 01-2.115-3.247c-.452-1.167-.762-2.5-.852-4.45-.09-1.958-.11-2.582-.11-7.56 0-4.98.022-5.603.11-7.557.088-1.953.4-3.286.852-4.453a8.993 8.993 0 012.116-3.247A8.987 8.987 0 017.99 2.628c1.167-.451 2.5-.761 4.45-.851h.002zm14.967 3.3C25.475 4.988 24.895 4.97 20 4.97s-5.475.018-7.408.107c-1.788.081-2.758.38-3.405.631-.855.334-1.467.729-2.108 1.37a5.687 5.687 0 00-1.37 2.109c-.252.646-.55 1.616-.632 3.405-.088 1.933-.107 2.513-.107 7.408 0 4.895.019 5.475.107 7.408.082 1.789.38 2.759.632 3.405a5.69 5.69 0 001.37 2.109 5.69 5.69 0 002.108 1.37c.647.251 1.617.55 3.405.631 1.933.089 2.512.107 7.408.107 4.897 0 5.475-.018 7.409-.107 1.788-.081 2.758-.38 3.405-.631.855-.334 1.466-.729 2.108-1.37a5.69 5.69 0 001.37-2.109c.252-.646.55-1.616.632-3.405.088-1.933.106-2.513.106-7.408 0-4.895-.018-5.475-.106-7.408-.082-1.789-.38-2.759-.632-3.405-.333-.855-.728-1.467-1.37-2.109a5.689 5.689 0 00-2.108-1.37c-.647-.251-1.617-.55-3.405-.631zm-9.75 20.575a6.115 6.115 0 006.666-9.977 6.117 6.117 0 10-6.666 9.977zm-4.322-12.315a9.424 9.424 0 1113.327 13.328 9.424 9.424 0 01-13.327-13.328zm18.177-1.357a2.23 2.23 0 00.046-3.197 2.229 2.229 0 10-.046 3.197z" fill="#EA9D3A"/></svg>