<svg width="103" height="80" fill="none" xmlns="http://www.w3.org/2000/svg"><path d="M80.77 66.853c-5.398 0-5.77 5.128-9.738 5.128s-4.282-5.128-9.737-5.128-5.77 5.128-9.738 5.128-4.282-5.128-9.73-5.128c-5.45 0-5.77 5.128-9.732 5.128-3.961 0-4.282-5.128-9.737-5.128h.001a1.282 1.282 0 100 2.564c4.02 0 4.282 5.128 9.737 5.128s5.77-5.128 9.732-5.128c3.961 0 4.282 5.128 9.73 5.128 5.45 0 5.77-5.128 9.738-5.128s4.282 5.128 9.737 5.128 5.77-5.128 9.737-5.128a1.282 1.282 0 000-2.564zm-53.803-3.846c5.397 0 5.77-5.129 9.731-5.129a1.282 1.282 0 000-2.564c-5.397 0-5.77 5.129-9.731 5.129-3.962 0-4.282-5.129-9.737-5.129a1.282 1.282 0 100 2.564c4.02 0 4.282 5.129 9.737 5.129zm58.45-7.693c-5.398 0-5.77 5.129-9.731 5.129-3.962 0-4.283-5.129-9.738-5.129h.001a1.282 1.282 0 100 2.564c3.955 0 4.34 5.129 9.737 5.129s5.77-5.129 9.731-5.129a1.282 1.282 0 000-2.564zM51.282 65.385a8.334 8.334 0 005.128-14.898V40.385h4.487a1.282 1.282 0 000-2.564H56.41v-8.334h4.487a1.282 1.282 0 000-2.564H56.41V18.59h4.487a1.282 1.282 0 000-2.564H56.41v-5.77a5.129 5.129 0 00-10.256 0v40.23a8.334 8.334 0 005.128 14.898zm-3.148-13.167c.363-.236.582-.638.584-1.07V10.257a2.564 2.564 0 115.128 0v40.89c.002.433.22.835.583 1.07a5.77 5.77 0 11-6.294 0z" fill="#EA9D3A"/></svg>