<svg width="91" height="80" fill="none" xmlns="http://www.w3.org/2000/svg"><g clip-path="url(#clip0_120_1252)" fill="#EA9D3A"><path d="M81.805 71.418l-1.508-9.814a3.347 3.347 0 00-2.837-2.837l-7.034-1.242c-.02-.003-.036-.013-.055-.017a10.8 10.8 0 01-1.992.95l-.004.007c-.12.042-.237.088-.359.126.058.07.128.128.192.193l-1.553 3.365-1.883 2.07-1.302-1.433.613 4.022a1.13 1.13 0 001.53-.135l2.841-3.125a1.12 1.12 0 00.191-.288l1.597-3.46 6.85 1.21c.486.053.877.424.954.907l1.512 9.846a1.137 1.137 0 002.247-.345zM64.773 39.773a8.524 8.524 0 00-6.027 14.549 8.522 8.522 0 0014.55-6.027 8.535 8.535 0 00-8.523-8.522zm0 14.772a6.25 6.25 0 116.25-6.25 6.257 6.257 0 01-6.25 6.25zM49.716 38.38c.724.316 1.41.71 2.05 1.175.055-.255.12-.494.184-.728a5.896 5.896 0 00-.193-4.331 5.183 5.183 0 00-2.843-2.882 5.394 5.394 0 00-4.402.223 9.073 9.073 0 00-2.914 2.255c-.85.903-1.262 1.29-2.21 1.263a7.588 7.588 0 01-1.474-.28c-1.619-.41-3.837-.975-6.107 1.387-.664.692-1.28 1.27-1.842 1.752.762.287 1.488.66 2.167 1.11.42-.388.856-.81 1.315-1.286 1.353-1.41 2.424-1.136 3.907-.76a9.326 9.326 0 001.946.348c2.005.076 3.043-1.012 3.952-1.975a6.965 6.965 0 012.21-1.75 3.191 3.191 0 012.596-.181c.718.3 1.286.872 1.578 1.592.435.914.479 1.965.122 2.91l-.042.158z"/><path d="M24.549 37.63a23.707 23.707 0 01-2.955-11.375c.037.029.07.054.113.09.848.685 1.813 1.284 4.28 1.128 1.477-.1 1.927.382 2.68 1.172h.001a5.666 5.666 0 003.038 1.907c.38.086.766.129 1.155.13a4.009 4.009 0 003.76-2.167c.528-1.179.413-2.366.301-3.512a9.558 9.558 0 01-.012-2.57c.138-.818.757-1.384 1.474-2.04.973-.89 2.183-1.998 1.922-3.905-.458-3.347-3.557-3.387-5.82-3.416a16.487 16.487 0 01-2.535-.16 12.7 12.7 0 01-4.742-2.134 23.808 23.808 0 0130.357-5.19 9.41 9.41 0 01-5.08 3.055c-1.544.37-2.601 1.082-3.142 2.115-.815 1.556-.16 3.243.156 4.053l.043.113c.548 1.41.647 1.664-.224 3.544-.574 1.237-1.108 3.576 1.758 5.348.29.218.514.51.65.846a1.903 1.903 0 002.424.989c.94-.364 2.29-.55 3.035-.1.162.1.653.398.78 1.558a3.815 3.815 0 002.458 3.35c.403.146.829.221 1.259.221a3.231 3.231 0 002.233-.838 2.63 2.63 0 00.646-2.79l-.07-.217c-.275-.83-.534-1.614.667-2.746a2.88 2.88 0 001.03-2.219 3.188 3.188 0 00-1.09-2.156l2.986-1.132A23.787 23.787 0 0166.36 37.63c.771.114 1.528.312 2.258.59a26.137 26.137 0 10-46.328 0 10.72 10.72 0 012.258-.59zM59.47 6.84a24 24 0 017.79 9.624l-3.431 1.3a1.952 1.952 0 00-.57 3.352c.617.506.657.783.658.835a.85.85 0 01-.319.485c-2.253 2.126-1.586 4.144-1.265 5.113l.06.185c.102.32 0 .419-.05.465a1.191 1.191 0 01-1.143.124 1.566 1.566 0 01-.975-1.46 4.077 4.077 0 00-1.86-3.254c-1.678-1.018-3.837-.48-4.721-.19a3.956 3.956 0 00-1.372-1.536c-.975-.603-1.464-1.225-.892-2.46 1.225-2.645.972-3.543.281-5.322l-.044-.114c-.208-.536-.596-1.534-.261-2.175.278-.53 1.056-.814 1.659-.958A11.662 11.662 0 0059.47 6.84zm-33.644 5.744a14.936 14.936 0 005.733 2.566c.959.142 1.927.207 2.896.194 2.679.035 3.429.22 3.597 1.454.091.663-.258 1.053-1.204 1.918-.852.78-1.912 1.75-2.18 3.338a11.527 11.527 0 00-.009 3.168c.095.97.169 1.734-.113 2.362-.21.468-1.1 1.029-2.343.75a3.511 3.511 0 01-1.891-1.257 4.996 4.996 0 00-4.473-1.873c-1.785.118-2.21-.228-2.703-.627a3.63 3.63 0 00-1.43-.783 23.715 23.715 0 014.12-11.21zm.31 44.234a8.523 8.523 0 10-8.523-8.523 8.534 8.534 0 008.523 8.523zm0-14.773a6.25 6.25 0 11-6.25 6.25 6.258 6.258 0 016.25-6.25zM24.254 62.15l-1.553-3.366c.064-.065.134-.123.192-.193-.121-.038-.24-.084-.359-.126l-.004-.007a10.778 10.778 0 01-1.991-.95c-.02.005-.036.014-.055.017l-7.008 1.238a3.347 3.347 0 00-2.86 2.81l-1.512 9.845a1.138 1.138 0 002.247.345l1.516-9.878c.093-.478.492-.837.977-.88l6.824-1.204 1.596 3.459c.048.105.113.203.19.288l2.842 3.125a1.13 1.13 0 001.53.135l.613-4.022-1.303 1.433-1.882-2.07zm36.736-.546a3.34 3.34 0 00-2.823-2.836l-6.984-1.242c-.036-.01-.07-.02-.105-.033a10.74 10.74 0 01-2.316 1.074c.111.134.233.258.362.373a1.136 1.136 0 00-.156.242l-1.632 3.535-1.882 2.07-1.882-2.07-1.632-3.535a1.136 1.136 0 00-.156-.242c.13-.115.251-.24.362-.373a10.726 10.726 0 01-2.315-1.074 1.073 1.073 0 01-.104.033l-6.958 1.237a3.343 3.343 0 00-2.845 2.81l-1.502 9.846a1.136 1.136 0 102.246.343l1.506-9.877c.09-.476.483-.836.966-.88l6.65-1.182c.014.107.043.213.087.312l1.705 3.693c.048.105.113.203.19.289l2.558 2.813v-.001a1.14 1.14 0 00-.012.116v4.546a1.136 1.136 0 002.273 0v-4.546a1.08 1.08 0 00-.012-.115l2.557-2.813c.078-.086.142-.184.191-.29l1.705-3.692c.044-.1.073-.205.087-.312l6.678 1.187c.482.056.867.426.942.906l1.501 9.846a1.137 1.137 0 102.246-.343l-1.497-9.815zm-15.536-4.786a8.52 8.52 0 008.523-8.523 8.52 8.52 0 00-8.523-8.522 8.52 8.52 0 00-6.023 14.546 8.534 8.534 0 006.023 2.5zm0-14.773a6.252 6.252 0 016.25 6.25 6.25 6.25 0 01-12.5 0 6.259 6.259 0 016.25-6.25z"/></g><defs><clipPath id="clip0_120_1252"><path fill="#fff" d="M0 0h90.909v80H0z"/></clipPath></defs></svg>