<svg width="75" height="75" fill="none" xmlns="http://www.w3.org/2000/svg"><path d="M1.756 33.493c.502.07.994-.186 1.222-.639 2.09-4.18 4.433-6.688 6.957-7.461a6.08 6.08 0 013.864.134c-5.71 7.43-1.34 18.575-1.143 19.072.18.448.614.74 1.096.741h.04a1.184 1.184 0 001.088-.789c2.366-7.169 4.866-12.114 7.596-15.112 1.79 4.4 4.424 12.809 5.52 26.122H17.744a11.045 11.045 0 00-10.419 7.525 14.98 14.98 0 00-5.458-.907 1.183 1.183 0 100 2.366 12.164 12.164 0 015.742 1.239l.875.418c.894.477 1.825.88 2.785 1.206a15.3 15.3 0 004.803.679c2.665.066 5.3-.585 7.627-1.886a32 32 0 011.27-.6l.087-.04.56-.228.229-.079c.15-.055.308-.11.473-.158l.316-.087.457-.118.386-.079.465-.078.457-.055.521-.055h2.5l.465.047.553.055c.213 0 .402.071.591.11l.308.048.433.118c.126 0 .253.055.371.095l.166.047.529.182c.102 0 .196.079.291.118l.395.158h.063c.418.181.789.379 1.222.576l.955.465.181.08h.048l.426.188.236.095c.552.22 1.115.407 1.689.56l.22.055.608.126h.276l.678.102h.182c.284 0 .584.071.899.087.315.016.789 0 1.222 0a14.88 14.88 0 007.635-1.885 12.793 12.793 0 016.57-1.633c.582 0 1.164.028 1.743.087 1.148.102 2.271.387 3.329.844.52.221.993.458 1.506.71a14.906 14.906 0 007.62 1.877 1.183 1.183 0 000-2.365 12.78 12.78 0 01-6.57-1.633c-.521-.26-1.058-.52-1.634-.79a12.91 12.91 0 00-3.28-.922 11.043 11.043 0 00-10.191-6.649h-8.732a71.036 71.036 0 00-1.182-5.773v-.048c-3.013-12.154-8.282-19.915-11.65-23.898 3.526-.055 7.493 1.806 12.155 4.606a1.19 1.19 0 001.19 0c.372-.207.601-.6.6-1.026 0-6.31-1.577-10.624-9.354-13.313 6.46-3.755 14.773-2.367 14.859-2.367a1.182 1.182 0 001.104-1.94c-3.51-4.078-9-5.647-15.878-4.52a35.967 35.967 0 00-6.775 1.838c1.853-3.738 6.034-4.732 6.239-4.78a1.184 1.184 0 00.142-2.263C28.067.026 23.398.184 19.982 2.574c-4.29 3.021-5.197 8.677-5.387 10.971-4.85.79-8.518 2.792-10.924 6.026C-.477 25.148.705 32.24.761 32.538c.092.498.492.882.994.954v.001zm49.398 24.45a8.675 8.675 0 017.478 4.267H57.29l-.71.079c-.158 0-.331 0-.48.047-.285 0-.545.087-.79.142a2.3 2.3 0 00-.252.048 16.1 16.1 0 00-4.023 1.523 12.753 12.753 0 01-6.586 1.64h-1.064l-.79-.07h-.188a4.29 4.29 0 01-.474-.072l-.37-.063-.395-.079-.386-.102-.315-.087-.6-.205-.276-.103-.347-.142-.292-.134-.3-.134-.3-.142-.158-.079-.354-.173-1.112-.536-.324-.142-.118-.055a14.006 14.006 0 00-4.733-1.105H28.66l-.607.063-.528.071c-.197 0-.379.063-.56.095l-.45.094-.529.135-.378.102-.529.181-.291.095-.584.244-.166.064a43.64 43.64 0 00-1.372.654h-.047a12.57 12.57 0 01-5.418 1.578h-1.152a13.107 13.107 0 01-4.086-.569 16.655 16.655 0 01-2.445-1.048 8.675 8.675 0 018.258-6.081h33.38zM32.47 34.18h-3.48a1.183 1.183 0 000 2.366h4.78a61.196 61.196 0 012.296 4.953h-3.155a1.183 1.183 0 000 2.367h4.038a74.731 74.731 0 011.577 4.953h-2.09a1.183 1.183 0 000 2.366h2.705c.347 1.399.645 2.863.892 4.393H30.42c-1.222-14.646-4.164-23.504-6.08-27.874a9.214 9.214 0 012.366-1.325h.102a47.176 47.176 0 015.663 7.8zM5.582 20.967c2.17-2.902 5.624-4.653 10.254-5.205a1.183 1.183 0 001.072-1.199c0-.07.055-6.988 4.44-10.072 2.138-1.506 5.01-1.87 8.566-1.096h.001a10.75 10.75 0 00-5.522 7.627 1.192 1.192 0 001.697 1.261c.134-.063 11.91-5.773 19.576-1.167-3.944-.071-10.127.56-14.938 4.504a1.19 1.19 0 00-.403 1.167c.085.455.427.819.875.931 7.462 1.98 9.512 4.795 9.899 9.639-5.726-3.234-10.585-4.89-15.192-3.155-4.606 1.735-8.55 6.854-12.043 16.106-.852-3.889-1.389-10.254 2.705-14.347a1.18 1.18 0 00-.26-1.861 9.516 9.516 0 00-4.694-1.317c-.802 0-1.599.119-2.366.355-2.272.694-4.353 2.366-6.23 5.032a14.08 14.08 0 012.563-7.202zm54.423 15.578a7.1 7.1 0 10-5.011-2.071 7.1 7.1 0 005.035 2.07h-.024zm0-11.831a4.734 4.734 0 013.347 8.079 4.734 4.734 0 01-8.08-3.346 4.733 4.733 0 014.757-4.733h-.024zm-9.86 5.915h-1.971a1.183 1.183 0 010-2.366h1.972a1.183 1.183 0 010 2.366zm.663-8.676a1.173 1.173 0 010-1.672 1.19 1.19 0 011.673 0l1.38 1.38a1.184 1.184 0 01-.789 1.996 1.207 1.207 0 01-.836-.347l-1.428-1.357zm8.014-2.327v-1.972a1.183 1.183 0 012.366 0v1.972a1.183 1.183 0 11-2.366 0zm7.32 3.723a1.176 1.176 0 010-1.672l1.395-1.395a1.19 1.19 0 011.672 0 1.175 1.175 0 010 1.671l-1.395 1.396a1.175 1.175 0 01-.837.348 1.19 1.19 0 01-.812-.387l-.024.04zm3.722 4.954h1.972a1.183 1.183 0 110 2.366h-1.972a1.183 1.183 0 010-2.366zm-2.05 7.32l1.396 1.395a1.175 1.175 0 010 1.672 1.182 1.182 0 01-1.672 0l-1.373-1.435a1.183 1.183 0 011.672-1.672l-.023.04zm-7.809 2.539c.654 0 1.183.53 1.183 1.183v1.971a1.183 1.183 0 11-2.366 0v-1.971a1.181 1.181 0 011.207-1.223l-.024.04zm-9.197.529v-.001a1.173 1.173 0 010-1.672l1.389-1.396a1.182 1.182 0 011.664 1.633l-1.388 1.395v.001c-.223.22-.523.344-.836.347a1.173 1.173 0 01-.804-.347l-.025.04zM74.03 73.03c0 .654-.53 1.184-1.183 1.184a14.928 14.928 0 01-7.619-1.877 25.5 25.5 0 00-1.506-.71 12.02 12.02 0 00-5.072-.931 12.722 12.722 0 00-6.57 1.632 14.882 14.882 0 01-7.635 1.886c-2.665.066-5.3-.585-7.627-1.886a12.781 12.781 0 00-6.57-1.632 12.778 12.778 0 00-6.57 1.632 14.876 14.876 0 01-7.627 1.886 14.996 14.996 0 01-4.811-.686 20.035 20.035 0 01-2.808-1.2 12.7 12.7 0 00-6.57-1.632 1.183 1.183 0 010-2.366 14.929 14.929 0 017.619 1.877c.8.42 1.63.779 2.484 1.073 1.324.404 2.702.596 4.086.568a12.781 12.781 0 006.57-1.633 14.878 14.878 0 017.627-1.885 14.88 14.88 0 017.627 1.885 12.78 12.78 0 006.57 1.633c2.304.057 4.58-.51 6.586-1.641a14.904 14.904 0 017.62-1.877 14.486 14.486 0 015.994 1.12c.584.244 1.12.505 1.633.789a12.699 12.699 0 006.57 1.632c.644 0 1.17.516 1.183 1.16z" fill="#EA9D3A"/></svg>