<svg width="67" height="71" fill="none" xmlns="http://www.w3.org/2000/svg"><path d="M26.679 58.381a93.565 93.565 0 00-1.418-3.81 1.01 1.01 0 10-1.878.74c.492 1.233.96 2.49 1.394 3.731.14.405.522.676.951.677a1 1 0 00.95-1.338zm1.275 3.859a1.01 1.01 0 00-1.934.588 85.115 85.115 0 011.08 3.836c.118.442.516.751.974.757.086.008.172.008.258 0a1.006 1.006 0 00.717-1.232c-.33-1.33-.7-2.652-1.095-3.949zM18.05 39.986a1.011 1.011 0 00-1.732 1.039 85.949 85.949 0 011.974 3.464c.18.322.518.522.886.525.169-.001.335-.043.484-.121.487-.27.666-.88.403-1.37a62.24 62.24 0 00-2.015-3.537zm5.64 10.828a102.806 102.806 0 00-1.724-3.682 1.01 1.01 0 00-1.353-.461 1.007 1.007 0 00-.451 1.356c.58 1.184 1.152 2.417 1.692 3.61a1 1 0 001.33.507c.506-.227.733-.822.507-1.33zm6.375-26.742a1 1 0 001.297-.588 63.684 63.684 0 011.539-3.642 1.007 1.007 0 10-1.821-.854 57.493 57.493 0 00-1.612 3.779c-.195.525.072 1.11.597 1.305zm3.295-7.317c.152.086.325.13.5.13a.99.99 0 00.87-.508 50.874 50.874 0 012.095-3.352 1.007 1.007 0 00-1.668-1.128 49.576 49.576 0 00-2.176 3.48c-.273.486-.104 1.1.379 1.378z" fill="#EA9D3A"/><path d="M60.377 52.32h3.222a1.007 1.007 0 00.911-1.441l-4.423-9.145h1.474c.333-.022.635-.206.806-.492a.983.983 0 00.056-.967L56.34 27.544a1.008 1.008 0 00-1.822 0l-1.716 3.594a84.247 84.247 0 00-17.13-1.16 48.117 48.117 0 0111.53-22.134 60.415 60.415 0 0115.914 6.937.93.93 0 00.515.145 1.008 1.008 0 00.524-1.861 61.51 61.51 0 00-16.791-7.252 1.136 1.136 0 00-.427-.104c-18.96-4.634-31.143 4.278-34.14 6.816l-.677-1.41h.572a1.007 1.007 0 00.91-1.442L9.267.64a1.007 1.007 0 00-1.82 0L3.111 9.673a1 1 0 00.056.975c.186.29.509.467.854.467h.572L1.67 17.231a1.006 1.006 0 00.903 1.442h1.732L.324 24.66a1.017 1.017 0 00.805 1.57h4.778v3.522a1.007 1.007 0 001.008 1.007H9.8c.553-.004.998-.454.998-1.007v-3.521h4.778a1.015 1.015 0 00.806-1.571l-4.029-5.987h1.733a1 1 0 00.846-.475.983.983 0 00.056-.967l-1.345-2.82c1.232-1.136 8.565-7.381 20.781-7.97a49.323 49.323 0 00-13.698 24.874c-1.563.234-3.038.476-4.4.725a.698.698 0 00-.136 0c-6.092 1.105-10.064 2.225-10.161 2.257a1.007 1.007 0 00.282 1.974c.094.01.188.01.282 0 0 0 .879-.25 2.32-.605 5.77 9.814 8.768 23.367 10.742 34.068h-.001a1 1 0 00.983.806h.186a1.009 1.009 0 00.805-1.177c-1.965-10.709-4.955-24.157-10.676-34.188l1.386-.307c.645.91 1.274 1.838 1.894 2.772a1.01 1.01 0 001.41.315 1.009 1.009 0 00.274-1.419c-.467-.709-.943-1.41-1.426-2.11l1.7-.323c7.05 7.63 15.873 21.868 18.942 35.646.099.466.508.801.984.806h.225c.54-.124.878-.66.758-1.2-3.046-13.698-11.28-27.396-18.533-35.622 8.936-1.49 21.586-2.7 33.383-.668l-3.465 7.251a.983.983 0 00.057.967c.186.29.508.467.854.467h1.442l-4.415 9.13a.983.983 0 00.056.966c.184.296.506.475.854.475h3.223l-6.092 9.033a1.016 1.016 0 00.806 1.611h7.107v5.35a1.006 1.006 0 001.007 1.008h4.029a1.007 1.007 0 001.007-1.007v-5.391h7.171a1.014 1.014 0 00.806-1.611l-6.02-8.993zM8.808 28.745h-.886V26.23h.87l.016 2.514zm1.733-12.086a1.007 1.007 0 00-.806 1.563l4.029 5.994H3.014l4.03-5.994a1.009 1.009 0 00-.806-1.563H4.223l2.925-6.116a1.008 1.008 0 00-.91-1.442h-.573L8.381 3.38l2.74 5.72h-.573a1.007 1.007 0 00-.91 1.443l2.925 6.116H10.54zM37.525 6.416c.613 0 1.232.049 1.87.097-.476.5-1.08 1.176-1.781 2.039h-.001a1.008 1.008 0 00.137 1.418c.18.145.405.224.637.226a.998.998 0 00.805-.371 30.424 30.424 0 012.619-2.869.878.878 0 00.13-.169c.982.137 1.99.307 3.02.524a49.955 49.955 0 00-11.344 22.74c-1.459.072-2.885.16-4.287.273.234-1.04.491-2.08.806-3.094a1.011 1.011 0 00-1.942-.564 51.712 51.712 0 00-.95 3.851 116.38 116.38 0 00-4.376.5 47.468 47.468 0 0114.656-24.6zm18.944 60.85h-2.047v-4.343h2.046v4.344zm1.007-6.357h-10.29l6.051-9.04a1 1 0 00-.806-1.564h-3.504l4.383-9.17a.983.983 0 00-.056-.966 1.023 1.023 0 00-.854-.475h-1.443l4.488-9.38 4.505 9.38h-1.46a1.023 1.023 0 00-.854.475.983.983 0 00-.056.967l4.383 9.17H58.49a1.001 1.001 0 00-.806 1.562l6.02 9.04-6.23.001z" fill="#EA9D3A"/></svg>