<svg width="97" height="80" fill="none" xmlns="http://www.w3.org/2000/svg"><g clip-path="url(#clip0_120_1373)" fill="#EA9D3A"><path d="M41.973 64.916a11.971 11.971 0 00-5.803-8.052 18.852 18.852 0 00-4.549-1.85 8.45 8.45 0 10-10.145 0 18.844 18.844 0 00-4.545 1.85 11.974 11.974 0 00-5.803 8.05L9.68 72.173c-.116.576.2 1.152.75 1.363a44.852 44.852 0 0032.245 0c.55-.21.865-.787.75-1.363l-1.452-7.256zm-21.456-16.64a6.037 6.037 0 016.035-6.035 6.037 6.037 0 016.034 6.035 6.037 6.037 0 01-6.034 6.034 6.045 6.045 0 01-4.265-1.769 6.045 6.045 0 01-1.77-4.265zm-8.27 23.364l1.251-6.252a9.556 9.556 0 014.634-6.427 17.255 17.255 0 0116.84 0 9.556 9.556 0 014.633 6.428l1.252 6.25a42.422 42.422 0 01-28.611 0v.001zm74.625.532l-1.448-7.26a11.973 11.973 0 00-5.803-8.053c-1.43-.81-2.96-1.43-4.552-1.844a8.449 8.449 0 10-10.145 0 18.842 18.842 0 00-4.546 1.85 11.974 11.974 0 00-5.802 8.05l-1.449 7.257c-.116.577.2 1.153.75 1.364a44.853 44.853 0 0032.245 0c.55-.211.866-.787.75-1.364zM63.966 48.276A6.037 6.037 0 0170 42.24a6.037 6.037 0 016.035 6.035A6.037 6.037 0 0170 54.31a6.045 6.045 0 01-6.034-6.034zM55.695 71.64l1.251-6.252a9.556 9.556 0 014.634-6.427 17.255 17.255 0 0116.84 0 9.556 9.556 0 014.634 6.428l1.251 6.25a42.422 42.422 0 01-28.61 0v.001zm.955-42.742l5.092 7.966a1.208 1.208 0 002.199-.402l1.736-8.245c9.119-1.974 15.185-7.426 15.185-13.734C80.862 6.497 70.845 0 58.534 0S36.206 6.497 36.206 14.482c0 7.541 8.93 13.795 20.442 14.416h.002zm1.885-26.484c10.983 0 19.915 5.414 19.915 12.069 0 5.21-5.763 9.948-14.014 11.519-.478.09-.855.46-.956.936l-1.294 6.131-3.839-6.003a1.207 1.207 0 00-.975-.555c-10.514-.37-18.75-5.656-18.75-12.028 0-6.655 8.93-12.07 19.914-12.07h-.001z"/><path d="M55.481 31.348a1.207 1.207 0 00-1.465-.877 31.44 31.44 0 01-11.964.603 1.184 1.184 0 00-.815.178l-5.633 3.58.888-4a1.207 1.207 0 00-.737-1.385c-5.762-2.26-9.203-6.05-9.203-10.136 0-4.013 3.329-7.764 8.903-10.033a1.207 1.207 0 10-.91-2.236c-6.516 2.653-10.407 7.24-10.407 12.27 0 4.869 3.634 9.292 9.776 11.985l-1.302 5.855a1.207 1.207 0 001.827 1.281l7.724-4.914c4.156.538 8.375.298 12.442-.707a1.207 1.207 0 00.876-1.464zm-4.791-22.9h6.034v2.414H50.69V8.448zm8.448 0h2.414v2.414h-2.414V8.448zm4.828 0H70v2.414h-6.034V8.448zM47.07 13.276h14.482v2.414H47.07v-2.414zm16.896 0H70v2.414h-6.034v-2.414zM47.07 18.104h4.827v2.413h-4.828v-2.413zm7.24 0h13.276v2.413H54.31v-2.413z"/></g><defs><clipPath id="clip0_120_1373"><path fill="#fff" d="M0 0h96.552v80H0z"/></clipPath></defs></svg>