<svg width="48" height="74" fill="none" xmlns="http://www.w3.org/2000/svg"><path fill-rule="evenodd" clip-rule="evenodd" d="M41.603 43.87C45.573 39.212 48 32.974 48 26.119 48 11.693 37.255 0 24 0S0 11.693 0 26.118c0 6.837 2.414 13.06 6.366 17.716h-.009l17.644 29.578L41.603 43.87z" fill="#000"/><g clip-path="url(#clip0_128_267)"><path d="M7.178 29.969l-1.894-2.887H4.5v5.431h.796v-2.262c0-.47-.012-.895-.034-1.26a8.986 8.986 0 00-.045-.566l1.704 2.521h.493l1.726-2.52a10.4 10.4 0 00-.045.589c-.023.376-.034.789-.034 1.236v2.262h.796v-5.43h-.762l-1.917 2.886zm8.182-2.887l-1.57 2.392-1.67-2.392h-1.008l2.264 3.181v2.25h.807v-2.285l2.118-3.146h-.941zm5.39 2.781a2.782 2.782 0 00-.616-.295 5.942 5.942 0 00-.785-.2 4.863 4.863 0 01-.549-.13 1.642 1.642 0 01-.403-.177.806.806 0 01-.235-.247.607.607 0 01-.079-.318c0-.153.045-.283.146-.4.1-.107.235-.2.403-.26a1.788 1.788 0 011.143 0c.18.06.337.154.482.271.146.118.28.271.392.448l.55-.6a1.734 1.734 0 00-.482-.52 2.055 2.055 0 00-.661-.317 2.947 2.947 0 00-.819-.106c-.28 0-.537.035-.784.117a1.782 1.782 0 00-.628.319c-.179.14-.325.306-.425.494-.101.189-.157.4-.157.625 0 .235.045.436.123.612.078.177.19.33.347.472.157.129.348.247.572.33.224.082.482.152.773.211.146.024.28.047.415.083.134.035.258.07.38.118.124.047.225.094.315.165.09.058.157.13.213.212a.487.487 0 01.078.282.593.593 0 01-.168.424 1.019 1.019 0 01-.448.271 1.93 1.93 0 01-.594.095c-.348 0-.662-.071-.92-.224-.268-.153-.537-.4-.806-.754l-.527.671c.18.236.37.424.594.59.224.152.46.27.729.353.268.082.56.117.885.117.426 0 .796-.07 1.11-.212.313-.14.56-.341.728-.6.168-.26.257-.566.257-.907 0-.224-.044-.413-.145-.578a1.131 1.131 0 00-.404-.435zm5.984-1.968a1.686 1.686 0 00-.571-.6 1.43 1.43 0 00-.796-.224H22.9v5.43h.796v-2.038h1.614c.302 0 .571-.082.818-.235.246-.154.448-.366.594-.625.146-.259.224-.542.224-.86 0-.306-.067-.589-.213-.848zm-.728 1.308a1.03 1.03 0 01-.325.341.816.816 0 01-.437.118h-1.558v-1.767h1.569c.157 0 .291.035.426.118a.893.893 0 01.313.306.82.82 0 01.124.436.914.914 0 01-.112.448zm4.517-2.121h-.863l-2.208 5.431h.818l.448-1.095.09-.224.325-.801.527-1.308c.034-.094.078-.2.112-.318.045-.118.09-.235.135-.365.044-.13.09-.26.134-.377 0-.012.011-.035.011-.047v.012c.045.13.09.259.146.4.045.142.09.271.134.389l.101.27.538 1.332h-1.199l-.336.801h.493c.83 0 1.569.518 1.894 1.32h.863l-2.163-5.42zm4.392 1.32a1.92 1.92 0 01.594-.4c.224-.095.46-.142.706-.142.202 0 .392.035.583.094.18.059.358.141.526.247.169.107.326.236.482.39l.505-.637a2.13 2.13 0 00-.527-.46 3.262 3.262 0 00-.728-.341 2.783 2.783 0 00-.83-.13c-.37 0-.717.071-1.042.212-.325.142-.616.33-.863.59a2.663 2.663 0 00-.583.871 2.68 2.68 0 00-.213 1.096c0 .412.068.789.202 1.13.135.342.325.637.56.884.236.247.527.436.852.577.325.13.673.2 1.054.2a3.114 3.114 0 001.535-.424c.213-.129.381-.247.504-.376l-.392-.695a3.23 3.23 0 01-.426.33 2.327 2.327 0 01-.515.235 2.105 2.105 0 01-1.378-.047 2.044 2.044 0 01-.628-.389 1.79 1.79 0 01-.426-.612 2.15 2.15 0 010-1.614c.134-.224.28-.424.448-.59zm8.585-.518v-.802h-3.665v5.431H43.5V31.7h-2.87v-1.578h2.466v-.801h-2.465v-1.437H43.5z" fill="#fff"/><path d="M10.272 34.22a.36.36 0 00-.247.095.541.541 0 00-.157.248l-.01-.271c0-.012 0-.024-.012-.036-.011-.011-.011-.011-.034-.011h-.067v1.295h.135v-.836c.033-.118.09-.2.145-.26a.313.313 0 01.236-.094h.067c.022 0 .034.012.045.012.01 0 .022.012.033.012h.023c.01 0 .022-.012.022-.024l.011-.082c-.033-.012-.056-.023-.09-.035-.033-.012-.066-.012-.1-.012zm1.278.142a.379.379 0 00-.158-.106.5.5 0 00-.19-.035.497.497 0 00-.235.047.64.64 0 00-.18.13c-.045.058-.078.13-.112.2a.963.963 0 00-.033.26.81.81 0 00.044.294.628.628 0 00.113.212.399.399 0 00.179.13.498.498 0 00.235.046c.045 0 .09 0 .135-.011.044-.012.09-.024.123-.036a.495.495 0 00.19-.13l-.033-.047c-.011-.011-.011-.011-.023-.011-.01 0-.022.011-.044.023-.023.012-.045.036-.079.047a.325.325 0 01-.112.047.63.63 0 01-.157.024.5.5 0 01-.19-.035.345.345 0 01-.146-.118.414.414 0 01-.09-.188.904.904 0 01-.033-.26v-.023h.885c.011 0 .022 0 .022-.012.012-.012.012-.024.012-.035a.821.821 0 00-.034-.248.34.34 0 00-.09-.165zm-.774.39a.92.92 0 01.045-.19.424.424 0 01.392-.27c.056 0 .112.011.157.035a.44.44 0 01.123.082.413.413 0 01.079.142c.022.059.022.118.022.188h-.818v.012zm1.961-.413a.318.318 0 00-.123-.094.408.408 0 00-.18-.036c-.09 0-.168.024-.246.047a.763.763 0 00-.202.154l.023.035c.01.012.022.023.033.023.011 0 .023-.011.045-.023.023-.024.045-.035.067-.06.034-.023.068-.034.101-.058a.557.557 0 01.157-.023c.1 0 .168.035.213.094a.452.452 0 01.078.27v.13c-.134 0-.257.012-.358.036-.101.023-.18.047-.247.082s-.112.07-.134.118a.246.246 0 00-.045.153.34.34 0 00.112.26.444.444 0 00.1.058c.046.012.08.024.124.024.056 0 .101 0 .135-.012a.325.325 0 00.112-.047l.1-.071a.671.671 0 00.101-.094l.023.165c.011.023.022.035.045.035h.044v-.848c0-.07-.01-.141-.022-.2a.272.272 0 00-.056-.118zm-.011.907c-.034.035-.056.059-.09.082l-.1.071a.324.324 0 01-.113.047c-.045.012-.078.012-.134.012-.034 0-.067 0-.09-.012a.177.177 0 01-.078-.047.2.2 0 01-.056-.082c-.012-.036-.023-.071-.023-.118s.011-.083.034-.118a.273.273 0 01.123-.094.8.8 0 01.213-.06c.09-.011.19-.023.303-.023v.342h.01zm.638-1.602h-.123v1.896h.123v-1.896zm1.827 1.19c.011 0 .023 0 .023-.012s.01-.024.01-.036a.818.818 0 00-.033-.247.448.448 0 00-.1-.177.379.379 0 00-.157-.106.5.5 0 00-.191-.035.498.498 0 00-.235.047.64.64 0 00-.18.13c-.044.058-.078.13-.112.2a.963.963 0 00-.033.26.81.81 0 00.044.294.63.63 0 00.112.212.399.399 0 00.18.13.499.499 0 00.235.046c.045 0 .09 0 .135-.011.045-.012.09-.024.123-.036a.495.495 0 00.19-.13l-.033-.047c-.011-.011-.011-.011-.023-.011-.01 0-.022.011-.044.023-.023.012-.045.036-.079.047a.326.326 0 01-.112.047.631.631 0 01-.157.024.5.5 0 01-.19-.035.343.343 0 01-.146-.118.413.413 0 01-.09-.188.904.904 0 01-.033-.26v-.023h.896v.011zm-.84-.26a.425.425 0 01.392-.27c.056 0 .112.011.157.035a.44.44 0 01.123.082.41.41 0 01.079.142c.022.058.022.117.022.188h-.807a.45.45 0 01.034-.177zm1.815.354a.332.332 0 00-.112-.059c-.044-.012-.078-.035-.123-.047-.045-.012-.09-.024-.123-.047-.045-.012-.079-.035-.112-.047a.495.495 0 01-.079-.071c-.022-.024-.022-.059-.022-.094 0-.036.011-.06.022-.095a.211.211 0 01.056-.082c.023-.024.056-.035.09-.059a.384.384 0 01.123-.023.4.4 0 01.124.011c.033.012.067.024.09.036a.243.243 0 01.055.035c.011.012.023.012.034.012.011 0 .022-.012.022-.024l.023-.047a.467.467 0 00-.359-.141.647.647 0 00-.168.023.289.289 0 00-.123.083.268.268 0 00-.079.118c-.022.07-.022.106-.022.153a.22.22 0 00.034.13c.022.035.044.07.078.094.034.023.067.047.112.059.045.011.079.035.123.047.045.011.09.023.124.047.044.012.078.035.112.047a.498.498 0 01.078.07c.023.024.034.06.034.106 0 .036-.012.071-.023.107a.26.26 0 01-.056.094.214.214 0 01-.1.059.537.537 0 01-.135.023.4.4 0 01-.135-.023c-.033-.012-.067-.024-.09-.047-.022-.012-.044-.036-.055-.047a.083.083 0 00-.045-.024h-.022l-.012.012-.033.047c.045.047.1.082.168.118a.634.634 0 00.224.047.41.41 0 00.18-.036.383.383 0 00.134-.082.521.521 0 00.09-.13.378.378 0 00.033-.153.247.247 0 00-.034-.13c-.044-.011-.067-.046-.1-.07zm.999.436c-.012 0-.012 0-.023.012l-.034.035c-.01.012-.033.023-.056.035-.022.012-.044.012-.078.012-.022 0-.045 0-.067-.012-.023-.012-.034-.023-.056-.035a.26.26 0 01-.034-.06c-.011-.023-.011-.058-.011-.093v-.884h.392v-.094h-.392v-.495h-.056c-.011 0-.011 0-.023.012 0 .012-.01.012-.01.024l-.034.459-.213.012v.047c0 .012 0 .012.01.023.012 0 .012.012.023.012h.18v.884c0 .106.022.176.067.223a.253.253 0 00.19.071.306.306 0 00.146-.035.46.46 0 00.123-.083l-.033-.058-.011-.012zm1.064-1.025a.319.319 0 00-.123-.094.408.408 0 00-.18-.036.703.703 0 00-.235.047.765.765 0 00-.202.154l.023.035c.01.012.022.023.033.023.011 0 .023-.011.045-.023.022-.024.045-.035.067-.06.034-.023.067-.034.101-.058a.557.557 0 01.157-.023c.1 0 .168.035.213.094a.452.452 0 01.078.27v.13c-.134 0-.257.012-.358.036-.101.023-.18.047-.247.082s-.112.07-.134.118a.246.246 0 00-.045.153.34.34 0 00.112.26c.034.023.067.046.1.058.046.012.08.024.124.024.056 0 .1 0 .135-.012a.326.326 0 00.112-.047l.1-.071a.671.671 0 00.101-.094l.023.165c.011.023.022.035.045.035h.044v-.848c0-.07-.01-.141-.022-.2a.768.768 0 00-.067-.118zm-.023.907a.518.518 0 01-.09.082l-.1.071a.324.324 0 01-.112.047c-.045.012-.079.012-.135.012-.033 0-.067 0-.09-.012a.177.177 0 01-.078-.047.211.211 0 01-.056-.082.362.362 0 01-.022-.118c0-.047.01-.083.033-.118a.273.273 0 01.124-.094.8.8 0 01.213-.06c.09-.011.19-.023.302-.023v.342h.011zm1.042.118c-.01 0-.01 0-.022.012l-.034.035c-.01.012-.033.023-.055.035-.023.012-.045.012-.079.012-.022 0-.045 0-.067-.012-.023-.012-.034-.023-.056-.035a.26.26 0 01-.034-.06c-.011-.023-.011-.058-.011-.093v-.884h.392v-.094h-.392v-.495h-.056c-.011 0-.011 0-.023.012 0 .012-.01.012-.01.024l-.034.459-.213.012v.047c0 .012 0 .012.01.023.012 0 .012.012.023.012h.18v.884c0 .106.022.176.067.223a.253.253 0 00.19.071.306.306 0 00.146-.035.462.462 0 00.123-.083l-.033-.058s0-.012-.012-.012zm1.245-.53c.011 0 .022 0 .022-.012.012-.012.012-.024.012-.036a.821.821 0 00-.034-.247.447.447 0 00-.1-.177.378.378 0 00-.158-.106.5.5 0 00-.19-.035.497.497 0 00-.236.047.638.638 0 00-.179.13c-.045.058-.078.13-.112.2a.963.963 0 00-.034.26.81.81 0 00.045.294.626.626 0 00.112.212.398.398 0 00.18.13.498.498 0 00.235.046c.045 0 .09 0 .134-.011.045-.012.09-.024.124-.036a.495.495 0 00.19-.13l-.033-.047c-.012-.011-.012-.011-.023-.011s-.022.011-.045.023c-.022.012-.044.036-.078.047a.325.325 0 01-.112.047.63.63 0 01-.157.024.5.5 0 01-.19-.035.344.344 0 01-.146-.118.414.414 0 01-.09-.188.904.904 0 01-.034-.26v-.023h.897v.011zm-.84-.26a.425.425 0 01.392-.27c.056 0 .112.011.157.035.044.023.09.047.123.082a.412.412 0 01.078.142.51.51 0 01.023.188h-.807a.45.45 0 01.034-.177z" fill="#E6E6E6"/><path d="M8.467 33.656l-.023.011h-.033l-.023.012-.033.024h-.011l-.012-.012h-.01v.012l-.012.035h-.034l-.022.012-.034-.012-.022.012-.034.035-.022.012h-.045l-.011.012h-.023l-.01.012-.012.023-.011.012h-.033v.012l-.012.012-.022.011.01.012-.01.012H7.95l-.01.012h-.035l-.01.011h-.012l-.022.012H7.76v.012l-.011.012-.023.012-.022.023-.034.047-.033.012-.034.012-.023.023-.056.036-.1.047-.023.012H7.37l-.056.023-.045.012h-.012l-.067.024h-.033l-.023.011h-.101L7 34.292l-.034.012-.022.023-.034.024-.034.012v-.012h-.089l-.067.023-.068.012h-.257l-.034-.012-.067.012H6.28l-.022-.012-.011.012h-.011l-.023-.012h-.011l-.022.012h-.012l-.01-.012h-.023l-.011-.011-.079.011-.022-.011-.068-.024h-.01l-.012.012-.022.012h-.045l-.034-.012-.033-.012h-.045l-.023-.024-.056-.035-.033-.023H5.63v.011l.012.024v.071l.01.011.012.012v.094l-.011.071v.012l-.011.035-.012.035-.033.095-.011.011-.023.012-.022.024-.034.023h-.045l-.022-.011h-.022l-.023-.024-.033-.012-.034-.023-.011-.012h-.023l-.022-.012h-.056l-.034-.012H5.15l-.023.012h-.033l-.012.024h-.078l-.011-.012H4.97v.035l-.012.012-.011.012v.047l-.034.07-.022.024-.011.012-.023.024-.022.011L4.79 35l-.011.011-.034.012H4.7l-.033-.011-.034-.024-.022-.024-.045-.047h-.011l-.012-.023h-.01v.116l.033.048.011.023.011.012v.012l.011.035-.01.024v.011l-.012.012v.012l.034.047v.047l-.012.012v.012l.012.011.022.024.011.035.011.012h.034l.011.012h.022l.012.012v.035l.011.035v.024l.011.012v.047l.012.012h.022l.011.011.011.024h.022l.046.047h.022l.011.012.011-.012h.022l.012.047h.022l.034.012h.023l.033.024.011.011.012.012.01.012.023.012h.045l.045.012h.022l.011.023h.022l.012-.012h.034l.022-.011V35.8l.011-.012.045-.012h.011l.034-.012.022.012h.045l.045.012.011.012.011.012h.012l-.012.011.023.024.022.023.011.036.012.011.01.024v.012l-.01.012h.045l.022-.012.011-.012.023.012h.033l.023.012h.01v-.024l-.01-.012-.023-.023-.011-.012-.011-.024v-.082l.011-.012.034-.023.033-.036.023-.011.022-.012.067-.024h.034l.202.012h.01l.012-.024.022-.011h.012l.033.011h.011l.023-.011h.011l.023-.012h.033l.034-.024.033-.011h.012l.033-.024.023-.012.022-.012h.078l.012-.023h.022l.011-.012.012-.012.01-.012.012-.011.011-.012h.045l.045.012h.011l.011-.036.011-.011.034-.048v-.117l.022-.048.023-.023.022-.024.011-.011h.136l.056.011.022.012.023.024.022.023.011.012h.012l.022-.012.011-.012.023-.011.01-.012v-.012l.035-.012h.044l.012-.011h.01l.023.011h.023l.01.012h.034l.023.012h.011l.045.023h.011v.012h.011l.011-.012h-.01l-.012-.023.011-.012-.022-.023-.011-.012-.034-.06-.045-.046-.022-.012h-.011l-.023-.023.011-.107v-.011l-.01-.024-.023-.012-.011-.023-.045-.06v-.01H7.3l.012-.013h.01v-.011l-.022-.048v-.011l.012-.071v-.012l.022-.047.011-.012.011-.035.012-.024.01-.011.023-.012h.045l.034.012h.057l.022-.012.011-.012.011-.012.012-.047v-.012l.01-.011.046-.048.033-.035.068-.059.033-.023.023-.012.157-.07.044-.048.023-.023.033-.024.045-.024.034-.035.011-.012.011-.035h.011l.012-.024.033-.023.124-.07h.022l.011-.013.034-.011h.022l.011-.012v-.036l.012-.011v-.024l.01-.035z" fill="#D57800"/><path d="M36.305 30.228c.223 0 .403-.19.403-.424a.414.414 0 00-.403-.424.414.414 0 00-.404.424c0 .234.181.424.404.424z" fill="#A67154"/></g><g clip-path="url(#clip1_128_267)"><path d="M16.5 25.5v-6.547l5.566-3.363v9.91H16.5zm10.162-18v3.778l-.02 7.002-.02 7.22h-.653v-7.635l-.793-.455-.02 8.09h-.673v-8.486l-.911-.534-.02 9.02h-.654v-9.415l-.832-.495v-5.3l4.596-2.79zM33 11.278L32.94 25.5h-.653V10.843l.713.435z" fill="#fff"/><path d="M31.376 10.289l-.02 15.21h-.673V9.855l.693.435z" fill="#D47800"/><path d="M29.79 9.3l-.039 16.2h-.653V8.865l.693.435zm-1.405-.87l-.04 17.07h-.654V7.994l.694.436z" fill="#fff"/></g><defs><clipPath id="clip0_128_267"><path fill="#fff" transform="translate(4.5 27)" d="M0 0h39v9H0z"/></clipPath><clipPath id="clip1_128_267"><path fill="#fff" transform="translate(16.5 7.5)" d="M0 0h16.5v18H0z"/></clipPath></defs></svg>