<svg width="206" height="72" fill="none" xmlns="http://www.w3.org/2000/svg"><path d="M17.937 41.886l-9.761-14.19H4.147v26.608h4.1V43.243c0-2.306-.057-4.364-.171-6.177a59.752 59.752 0 00-.241-2.777l8.775 12.375h2.508l8.9-12.37a63.116 63.116 0 00-.247 2.886 98.47 98.47 0 00-.171 6.063v11.062h4.105v-26.61h-3.877l-9.891 14.19zm42.125-14.19L52 39.445l-8.587-11.75h-5.246l11.708 15.587v11.022h4.105V43.11l10.948-15.414h-4.866zM87.83 41.36a13.802 13.802 0 00-3.193-1.443 30.566 30.566 0 00-4.01-.97 25.377 25.377 0 01-2.851-.626 7.799 7.799 0 01-2.053-.874 3.792 3.792 0 01-1.216-1.2 2.92 2.92 0 01-.418-1.558c-.013-.727.26-1.43.76-1.958a5.02 5.02 0 012.072-1.274A9.185 9.185 0 0179.942 31a9.28 9.28 0 012.87.437 8.27 8.27 0 012.489 1.31 9.204 9.204 0 012.014 2.168l2.814-2.927a9.36 9.36 0 00-2.471-2.566 10.933 10.933 0 00-3.382-1.577 15.654 15.654 0 00-4.22-.532 14.163 14.163 0 00-4.03.55 10.62 10.62 0 00-3.249 1.559 7.4 7.4 0 00-2.167 2.413 6.254 6.254 0 00-.779 3.079 7.11 7.11 0 00.608 3.022 6.527 6.527 0 001.806 2.3 10.04 10.04 0 002.946 1.635c1.296.465 2.632.808 3.991 1.026.733.101 1.443.235 2.129.4.663.158 1.317.355 1.958.589.57.204 1.118.465 1.635.779.439.264.814.62 1.1 1.045.27.418.41.908.4 1.406a2.852 2.852 0 01-.874 2.09 5.6 5.6 0 01-2.319 1.33c-.997.31-2.035.464-3.079.457a10.033 10.033 0 01-4.752-1.083 13.8 13.8 0 01-4.144-3.706l-2.737 3.307a14.2 14.2 0 003.06 2.87 12.453 12.453 0 003.763 1.73c1.482.393 3.01.585 4.543.57a14.554 14.554 0 005.721-1.026 8.487 8.487 0 003.744-2.927 7.563 7.563 0 001.33-4.447 5.376 5.376 0 00-.742-2.851 6.405 6.405 0 00-2.088-2.07zm30.79-9.636a8.367 8.367 0 00-2.965-2.944 7.915 7.915 0 00-4.085-1.083h-12.7v26.607h4.105V44.269h8.287a8.108 8.108 0 004.238-1.14 8.822 8.822 0 003.081-3.04 8.256 8.256 0 00.038-8.364l.001-.001zm-3.745 6.37a4.696 4.696 0 01-1.668 1.646 4.41 4.41 0 01-2.229.577h-8v-8.668h8.1a4.36 4.36 0 012.19.572 4.565 4.565 0 011.613 1.517 3.86 3.86 0 01.609 2.127 4.226 4.226 0 01-.615 2.228zm23.264-10.397h-4.449l-11.363 26.607h4.218l2.3-5.38.464-1.082 1.688-3.952 2.733-6.386c.174-.456.377-.97.605-1.543.228-.573.465-1.17.705-1.8a83.903 83.903 0 00.763-2.082.291.291 0 00.016.05l.721 1.957c.252.684.485 1.323.7 1.92.215.597.39 1.045.514 1.348l2.787 6.539h-6.175l-1.708 3.952h2.544a10.624 10.624 0 019.777 6.46h4.445l-11.285-26.608zm22.616 6.461a9.473 9.473 0 013.079-1.94 9.93 9.93 0 013.649-.683 10.144 10.144 0 012.984.437c.952.292 1.865.7 2.717 1.216.901.55 1.742 1.193 2.509 1.919l2.622-3.117a11.064 11.064 0 00-2.7-2.243 16.06 16.06 0 00-3.725-1.653 14.486 14.486 0 00-4.257-.627 14.156 14.156 0 00-5.379 1.026 13.914 13.914 0 00-4.447 2.87 13.675 13.675 0 00-3.022 4.3 12.87 12.87 0 00-1.1 5.34c-.024 1.9.325 3.785 1.027 5.55a12.612 12.612 0 002.908 4.333 13.169 13.169 0 004.391 2.813 14.698 14.698 0 005.435.988c1.426.002 2.845-.19 4.219-.57a16.745 16.745 0 003.683-1.485c.942-.5 1.812-1.128 2.585-1.863l-2.014-3.383a14.824 14.824 0 01-2.186 1.6c-.831.496-1.717.891-2.641 1.178-1.01.31-2.061.464-3.117.456a11.44 11.44 0 01-3.953-.665 9.838 9.838 0 01-3.212-1.9 8.569 8.569 0 01-2.162-3.023 9.966 9.966 0 01-.78-4.03 9.275 9.275 0 012.889-6.841l-.002-.003zm44.207-2.509v-3.953H186.07v26.608h18.892V50.35h-14.787v-7.716h12.7v-3.953h-12.7V31.65l14.787-.001z" fill="#000"/><path d="M152.737 62.664a1.865 1.865 0 00-1.256.437c-.367.33-.647.745-.816 1.209l-.051-1.34a.22.22 0 00-.054-.152.224.224 0 00-.156-.045h-.317v6.344h.606V64.99c.144-.483.401-.924.749-1.288a1.635 1.635 0 011.183-.446 2.067 2.067 0 01.783.14.35.35 0 00.108.026.116.116 0 00.128-.1l.083-.421a2.05 2.05 0 00-.99-.238zm6.584.73a2.228 2.228 0 00-.792-.54 2.67 2.67 0 00-.991-.181 2.944 2.944 0 00-1.207.236 2.506 2.506 0 00-.9.65 2.84 2.84 0 00-.56 1 3.831 3.831 0 00-.195 1.262c-.007.486.063.97.207 1.435.125.39.326.751.593 1.062.254.287.568.514.921.664.376.153.78.23 1.186.224.238.001.476-.022.709-.07.226-.043.448-.105.663-.187.197-.075.386-.17.564-.282a1.74 1.74 0 00.4-.361l-.166-.2a.146.146 0 00-.125-.062.42.42 0 00-.207.1 3.006 3.006 0 01-.966.472c-.27.073-.549.107-.829.1a2.52 2.52 0 01-.97-.182 1.936 1.936 0 01-.738-.552 2.485 2.485 0 01-.473-.908 4.308 4.308 0 01-.166-1.257v-.124h4.578a.154.154 0 00.128-.05.298.298 0 00.041-.191 3.49 3.49 0 00-.187-1.186 2.463 2.463 0 00-.518-.872zm-4.014 1.912c.032-.31.11-.613.232-.9a2.18 2.18 0 01.461-.688c.189-.194.418-.345.672-.44.279-.107.576-.16.875-.154.271-.004.54.047.792.149.232.097.441.244.61.43.177.199.312.432.394.685.099.295.146.605.141.916l-4.177.002zm10.142-2.013a1.671 1.671 0 00-.635-.468 2.299 2.299 0 00-.9-.162 2.948 2.948 0 00-1.244.257c-.39.187-.743.441-1.045.75l.108.188a.212.212 0 00.195.112.39.39 0 00.232-.124 3.003 3.003 0 01.913-.564 2.16 2.16 0 01.78-.13 1.359 1.359 0 011.124.478c.277.395.412.874.381 1.356v.664c-.619.006-1.236.065-1.845.178-.436.074-.86.211-1.257.406a1.859 1.859 0 00-.717.6c-.152.22-.233.48-.232.747-.006.255.044.508.145.742.089.193.217.366.377.506.16.132.345.232.543.294.204.064.416.098.63.1.241.002.482-.023.717-.075a2.83 2.83 0 00.605-.211c.19-.099.37-.214.539-.344.17-.137.344-.29.518-.461l.087.809a.222.222 0 00.237.179h.244v-4.131a3.363 3.363 0 00-.128-.962 2.056 2.056 0 00-.372-.734zm-.087 4.412a6.02 6.02 0 01-.452.427 2.714 2.714 0 01-1.072.568c-.223.053-.451.08-.68.079a1.64 1.64 0 01-.477-.071 1.14 1.14 0 01-.4-.22 1.083 1.083 0 01-.278-.386 1.305 1.305 0 01-.1-.552.978.978 0 01.2-.6c.169-.2.384-.356.626-.456a4.486 4.486 0 011.078-.3 11.252 11.252 0 011.559-.137l-.004 1.648zm3.29-7.866h-.606v9.278h.606v-9.278zm9.417 5.851a.164.164 0 00.133-.05.335.335 0 00.041-.19 3.372 3.372 0 00-.191-1.186 2.464 2.464 0 00-.522-.871 2.209 2.209 0 00-.788-.54 2.688 2.688 0 00-.991-.181 2.966 2.966 0 00-1.211.236c-.344.148-.652.37-.9.65a2.84 2.84 0 00-.56 1 3.942 3.942 0 00-.195 1.262c-.008.487.064.971.212 1.435.121.391.323.753.593 1.062.251.288.564.515.916.664.376.153.78.229 1.186.224a3.977 3.977 0 001.376-.257c.195-.076.383-.17.56-.282.153-.099.29-.22.406-.361l-.166-.2a.15.15 0 00-.129-.062.412.412 0 00-.2.1 3.165 3.165 0 01-.97.472c-.27.073-.549.107-.829.1a2.516 2.516 0 01-.97-.182 1.973 1.973 0 01-.738-.552 2.611 2.611 0 01-.473-.908 4.45 4.45 0 01-.166-1.257v-.124l4.576-.001zm-4.321-1.285c.11-.256.266-.49.461-.688a1.94 1.94 0 01.672-.44c.28-.108.579-.16.879-.154.27-.004.538.047.788.149.234.096.444.243.614.43.176.2.31.433.394.685.097.295.144.605.141.916h-4.18a3.28 3.28 0 01.23-.898h.001zm9.353 1.758a2.413 2.413 0 00-.564-.31 9.516 9.516 0 00-.648-.226l-.647-.2a3.097 3.097 0 01-.564-.241 1.307 1.307 0 01-.4-.337.78.78 0 01-.153-.5 1 1 0 01.112-.461c.076-.149.183-.28.313-.385.145-.117.309-.206.485-.264a1.89 1.89 0 01.628-.1 2.258 2.258 0 011.094.258c.101.054.199.114.293.179a.343.343 0 00.181.08.145.145 0 00.084-.023.15.15 0 00.057-.066l.134-.211a2.514 2.514 0 00-.826-.514 2.925 2.925 0 00-1.03-.168 2.548 2.548 0 00-.873.14c-.242.083-.465.21-.66.376a1.653 1.653 0 00-.418.548 1.507 1.507 0 00-.147.65c-.008.23.045.457.153.66.101.175.237.328.4.449.173.127.363.23.564.306.211.08.427.155.65.223l.651.2c.197.061.386.145.564.248a1.3 1.3 0 01.4.357c.107.155.16.34.153.529.001.186-.035.372-.105.545-.069.17-.175.323-.309.449a1.464 1.464 0 01-.51.3 2.052 2.052 0 01-.708.112 2.186 2.186 0 01-1.202-.32 2.56 2.56 0 01-.315-.22.35.35 0 00-.2-.1.194.194 0 00-.109.026.239.239 0 00-.07.076l-.147.217c.257.231.55.42.867.558a2.84 2.84 0 001.155.214c.321.005.64-.047.943-.154a2.07 2.07 0 00.7-.414 1.75 1.75 0 00.434-.618c.101-.245.152-.507.15-.771a1.29 1.29 0 00-.153-.65 1.465 1.465 0 00-.407-.447zm5.106 2.131a.215.215 0 00-.121.067 1.816 1.816 0 01-.487.294c-.128.048-.264.07-.4.067a1.02 1.02 0 01-.344-.057.724.724 0 01-.277-.179.836.836 0 01-.185-.31 1.342 1.342 0 01-.067-.448v-4.3h2v-.453h-2v-2.423h-.284a.142.142 0 00-.111.044.18.18 0 00-.047.1l-.151 2.27-1.084.076v.236c-.001.02.002.04.01.059a.127.127 0 00.034.049.17.17 0 00.115.038h.912v4.336a1.51 1.51 0 00.357 1.1 1.36 1.36 0 001 .357c.267 0 .531-.055.775-.163.233-.098.443-.244.615-.43l-.166-.268a.134.134 0 00-.094-.062zm5.482-5.001a1.67 1.67 0 00-.635-.468 2.299 2.299 0 00-.9-.162 2.908 2.908 0 00-1.24.257c-.392.186-.747.44-1.049.75l.112.188a.2.2 0 00.191.112.409.409 0 00.236-.124c.112-.104.233-.199.361-.282a2.75 2.75 0 01.547-.282 2.16 2.16 0 01.78-.13 1.359 1.359 0 011.124.478c.278.395.412.874.381 1.356v.664c-.619.006-1.236.065-1.845.178-.436.074-.86.211-1.257.406a1.859 1.859 0 00-.717.6c-.152.22-.232.48-.232.747-.006.255.044.508.145.742.089.194.219.367.381.506.159.132.342.232.539.294.204.064.416.098.63.1.241.002.482-.023.717-.075.209-.047.412-.118.605-.211.19-.098.37-.213.539-.344.17-.137.344-.29.519-.461l.091.809a.217.217 0 00.236.179h.241v-4.131a3.328 3.328 0 00-.129-.962 1.994 1.994 0 00-.371-.734zm-.087 4.412a6.02 6.02 0 01-.452.427 2.852 2.852 0 01-.493.344 2.636 2.636 0 01-.576.224 2.89 2.89 0 01-.68.079 1.64 1.64 0 01-.477-.071 1.14 1.14 0 01-.4-.22 1.125 1.125 0 01-.278-.386 1.305 1.305 0 01-.1-.552.977.977 0 01.2-.6c.169-.2.384-.356.626-.456a4.477 4.477 0 011.078-.3 11.252 11.252 0 011.559-.137l-.007 1.648zm5.357.589a.215.215 0 00-.121.067 1.829 1.829 0 01-.487.294c-.128.048-.264.07-.4.067a1.02 1.02 0 01-.344-.057.733.733 0 01-.278-.179.834.834 0 01-.185-.31 1.342 1.342 0 01-.067-.448v-4.3h2v-.453h-2v-2.423h-.284a.142.142 0 00-.111.044.18.18 0 00-.047.1l-.151 2.27-1.084.076v.236a.133.133 0 00.045.108.17.17 0 00.115.038h.912v4.336a1.51 1.51 0 00.357 1.1 1.358 1.358 0 001 .357c.267 0 .531-.055.775-.163.233-.098.443-.244.615-.43l-.166-.268a.138.138 0 00-.041-.04.138.138 0 00-.053-.022zm6.408-2.604a.153.153 0 00.07-.01.151.151 0 00.059-.04.298.298 0 00.041-.19 3.466 3.466 0 00-.187-1.186 2.48 2.48 0 00-.522-.871 2.232 2.232 0 00-.792-.54 2.674 2.674 0 00-.991-.181 2.947 2.947 0 00-1.207.236c-.345.147-.653.37-.9.65a2.84 2.84 0 00-.56 1 3.831 3.831 0 00-.195 1.262c-.007.486.063.97.207 1.435.125.39.326.751.593 1.062.254.287.568.514.921.664.376.153.78.23 1.186.224.238.001.476-.022.709-.07.226-.043.448-.105.663-.187.197-.075.386-.17.564-.282a1.74 1.74 0 00.4-.361l-.166-.2a.145.145 0 00-.125-.062.429.429 0 00-.207.1 3.069 3.069 0 01-.966.472c-.27.073-.549.107-.829.1a2.516 2.516 0 01-.97-.182 1.937 1.937 0 01-.738-.552 2.485 2.485 0 01-.473-.908 4.307 4.307 0 01-.166-1.257v-.124l4.581-.001zm-4.321-1.285a2.18 2.18 0 01.46-.688 1.86 1.86 0 01.672-.44c.279-.107.576-.16.875-.154.271-.004.541.047.792.149.232.097.44.244.609.43.178.199.312.432.394.685.099.295.146.605.141.916h-4.176c.032-.31.111-.612.233-.898z" fill="gray"/><path d="M146.917 59.92l-.1.039-.038.015-.118-.007-.111.054-.2.134-.008.006-.073.019-.068-.03-.039.019-.013.08-.037.057-.045.032-.157.016-.132.068-.172-.046-.08.03-.17.154-.087.04h-.03l-.115-.005-.049.016-.073.07-.137.01-.043.03-.067.136-.073.075-.041.009-.045-.017-.034.006-.015.087-.033.036-.092.032-.073.06-.064.034h-.107l-.086.047-.161.014-.067.064-.015.013-.031.019-.051.03-.013.008-.062-.011-.072.029-.029-.045-.05.03h-.066l-.083-.037-.063-.028-.046.007-.016.08v.009l-.048.064-.09.055-.013.016-.1.133-.2.206-.166.084-.171.052-.12.1-.315.156-.5.247-.1.033-.146.023-.26.1-.229.069h-.013l-.046.013-.323.1-.15-.016-.089.033-.232-.026h-.161l-.1.02-.192.093-.324.156-.107.1-.167.087-.195.062v-.086l-.068.02-.049.017-.158.024h-.088l-.055-.016h-.008l-.324.107-.361.035-.18.058h-.135l-.084.025-.166.02-.059-.016h-.013l-.487.02-.222-.024-.106.024-.178-.06-.259-.03-.061-.018-.137-.04-.061.036h-.047l-.11-.04h-.04l-.091.033-.053-.013-.049-.04-.114-.016-.07-.06-.389.053-.106-.031-.354-.1h-.056l-.07.053-.106.039-.092.024h-.125l-.145-.038-.149-.073-.055-.013-.123.013h-.038l-.226-.121-.292-.182-.2-.1-.074-.012-.01.035.037.116.013.115v.172l.019.059.072.079.03.08.021.219v.222l-.035.354-.012.053-.041.184-.038.168-.147.448-.04.055-.1.068-.222.16-.165.095-.052.022-.134.01h-.084l-.1-.056-.1-.026-.134-.1-.149-.031-.163-.094-.042-.051-.089-.008-.123-.037-.045-.013-.031-.01h-.158l-.147-.066-.077-.02-.106-.005-.11.052-.056.026-.071-.028h-.051l-.058.087-.007.013-.04.02h-.089l-.042.019-.057.025-.05.022-.025.01h-.041l-.033.008-.059-.034-.031-.02-.052-.01-.028.02-.006.1-.026.057-.081.072-.083.073-.057.085-.152.348-.1.14-.03.033-.1.11-.088.068-.2.158-.193.072-.166.034h-.08l-.154-.02-.137-.042-.151-.094-.166-.133-.24-.237-.034-.02h-.007l-.075-.048h-.056l-.022.036-.012.053-.01.046-.027.264v.015l.014.108.182.254.056.135.009.015.038.063.028.048v.005l.062.186-.044.105.022.07-.055.043-.01.06.163.206.036.09-.04.126-.063.069-.018.019.009.053.075.067.128.114.068.169.052.046.06-.013.033.026h.051l.05.05.032.015.051.026.04.053.009.162.075.2v.125l.047.08.015.064-.025.168.06.054.065-.013.042.007.067.056.081.124.08-.012.051.024.244.22.055.029.04.02.05.05.077-.051h.008l.084-.007.037.025.07.047h.093l.2.06.088.023.176.11.075.047.044.036.059.048.118.05.1.025.055.013.041.016.219.084.118.028.11.04.08.029h.059l.083-.07h.081l.067.017.065-.011.1-.064.02-.03.073-.034.246-.031.072.023.185-.08.124.034.109-.04.24.054.063.045.071.08h.088l-.033.056.1.109.094.143.007.019.068.2.051.072.036.1v.065l-.056.042-.009.024v.009l.011.027.021-.012.04-.022.048-.007.086.009.056.006.089-.044.059-.03.095.04h.1l.044.02.124.057.063.006.023-.015.015-.035-.007-.041-.048-.054-.1-.122-.043-.062-.033-.091-.01-.115-.007-.078.013-.1.028-.036.02-.081.005-.021.059-.077.154-.1.166-.148.131-.087.135-.058v-.017l.015.006.343-.117h.006l.153-.026 1.032.073.038-.012.034-.1.019-.018.013-.012.113-.05.053-.007.147.036.06.015.1-.054h.068l.141-.077h.087l.033-.013.17-.122.164-.047.042-.022.015-.008.168-.09.107-.081.092-.05.1-.025.264-.02.053-.087.114-.015.068-.078.079-.032.056-.081.047-.068.066-.038.211-.013.25.03.033-.02.057-.2.059-.037.16-.232v-.155l.026-.1-.018-.182.021-.184.1-.234.087-.094.141-.1.072-.031.1-.017h.634l.294.052h.021l.1.032.114.089.122.119.023.022.079.033.024.01.065-.01.093-.048.07-.06.1-.051.053-.081.021-.032.184-.072.216-.013.024-.013.013-.007.057-.067h.054l.13.047.091-.018.073.029.056-.007.106-.013.114.08.066.008.234.137h.032l.028-.008.041-.012h.006l.005.007.026.038.037.005.043-.058-.017-.026-.007-.01-.084-.016-.075-.128.072-.077-.112-.137-.019-.023-.007-.01-.039-.058-.2-.3-.256-.2-.089-.072-.031-.025-.137-.14-.1-.13-.013-.027-.02-.044-.059-.128-.1-.08-.083-.09v-.006l-.171-.233-.028-.04-.04-.023h-.085l-.008-.008-.005-.005.041-.041.046-.012.02-.045-.087-.253v-.01l-.007-.08.071-.367.009-.045.121-.247.075-.061.082-.161.071-.1.067-.066.012-.007.121-.073.1-.014.1-.013.17.052h.193l.073-.008.12-.038.057-.035.029-.045.061-.207.02-.066.038-.071.22-.253.166-.154.373-.274.183-.11.094-.055.833-.37.216-.22.113-.114.2-.134.234-.1.2-.16.044-.054.055-.178.046-.011.041-.09.012-.026.164-.115.019-.01.637-.318.093.013.05-.074.186-.031.034-.006.046-.023.039-.066v-.013l.006-.177.04-.047.021-.117.02-.027.021-.028.052-.037-.009-.022.02-.03zm21.009-16.793a2.073 2.073 0 100-4.146 2.073 2.073 0 000 4.146z" fill="#D57800"/><path d="M0 22.044L66.277 0l132.437 22.044L66.277 4.561 0 22.044z" fill="#CCC"/></svg>