<svg width="332" height="115" fill="none" xmlns="http://www.w3.org/2000/svg"><g clip-path="url(#clip0_333_165)"><path d="M29.007 67.47L13.226 44.607H6.688v42.88h6.613V69.72c0-3.749-.075-7.047-.3-9.971-.076-1.5-.226-2.999-.376-4.498l14.202 19.941h4.058L45.24 55.251c-.15 1.574-.301 3.074-.376 4.648-.15 2.999-.3 6.222-.3 9.746v17.842h6.612V44.606h-6.237L29.007 67.47zm68.008-22.864l-13 18.966-13.903-18.966h-8.491L80.558 69.72v17.767h6.613V69.495l17.734-24.89h-7.89zm44.863 22.04a20.752 20.752 0 00-5.185-2.324c-1.954-.6-4.133-1.125-6.463-1.574-1.728-.3-3.231-.6-4.584-.975-1.353-.375-2.48-.825-3.306-1.424-.827-.6-1.503-1.2-1.954-1.95a4.709 4.709 0 01-.676-2.473c0-1.2.375-2.25 1.202-3.149.826-.9 1.954-1.574 3.381-2.024 1.428-.525 3.006-.75 4.885-.75 1.653 0 3.156.225 4.659.675 1.428.45 2.781 1.2 4.058 2.099 1.202.975 2.33 2.1 3.231 3.523l4.509-4.722c-1.052-1.65-2.404-3-3.983-4.124-1.578-1.124-3.381-1.949-5.485-2.548-2.029-.6-4.284-.825-6.839-.825-2.329 0-4.508.3-6.537.9-2.029.6-3.758 1.424-5.261 2.548-1.503 1.05-2.63 2.4-3.532 3.899a10.113 10.113 0 00-1.277 4.948c0 1.874.3 3.448.977 4.872.676 1.425 1.653 2.624 2.93 3.674 1.278 1.05 2.856 1.949 4.735 2.624a35.239 35.239 0 006.462 1.649c1.203.15 2.33.375 3.457.675 1.127.3 2.179.6 3.156.974.977.375 1.879.75 2.63 1.275a6.398 6.398 0 011.804 1.649c.451.675.676 1.424.676 2.249 0 1.274-.451 2.399-1.427 3.374-.977.974-2.18 1.649-3.758 2.173-1.578.525-3.231.75-4.96.75-2.93 0-5.485-.6-7.665-1.724-2.179-1.2-4.433-3.149-6.688-5.998l-4.433 5.323a24.066 24.066 0 004.959 4.648c1.804 1.275 3.833 2.174 6.087 2.774 2.255.6 4.659.9 7.365.9 3.532 0 6.613-.525 9.243-1.65 2.63-1.124 4.584-2.699 6.012-4.723 1.427-2.024 2.179-4.423 2.179-7.197 0-1.724-.376-3.298-1.202-4.573-.827-1.424-1.954-2.548-3.382-3.448zm49.747-15.518c-1.202-2.024-2.78-3.599-4.809-4.723-1.954-1.2-4.209-1.724-6.613-1.724h-20.515v42.88h6.612V71.37h13.377c2.479 0 4.809-.6 6.838-1.874a13.441 13.441 0 004.96-4.873c1.277-2.024 1.878-4.273 1.878-6.822.076-2.474-.526-4.648-1.728-6.672zm-6.087 10.27c-.676 1.125-1.578 2.024-2.705 2.624-1.052.6-2.33.9-3.607.9H166.3V50.978h13.076c1.278 0 2.48.3 3.532.9a7.536 7.536 0 012.63 2.473c.676 1.05.977 2.174.977 3.449 0 1.274-.301 2.474-.977 3.598zm37.574-16.792h-7.215l-18.26 42.88h6.838l3.682-8.695.752-1.724 2.705-6.373 4.434-10.27c.3-.75.601-1.575.977-2.474.375-.9.751-1.874 1.127-2.924.376-1.05.751-2.024 1.127-2.999.075-.15.075-.224.15-.374v.075c.376.974.752 2.024 1.203 3.148.375 1.125.751 2.1 1.127 3.074.376.974.601 1.65.827 2.174l4.508 10.57H217.1l-2.781 6.373h4.133c6.914 0 13.076 4.123 15.781 10.42h7.214l-18.335-42.881zm36.596 10.42a15.52 15.52 0 014.96-3.149 15.677 15.677 0 015.862-1.124c1.653 0 3.306.225 4.809.675a18.89 18.89 0 014.358 1.949c1.428.824 2.706 1.874 4.058 3.073l4.209-5.022a17.708 17.708 0 00-4.359-3.599c-1.803-1.124-3.832-2.024-6.012-2.699-2.179-.674-4.508-.974-6.913-.974-3.081 0-5.937.525-8.717 1.649-2.706 1.125-5.11 2.624-7.214 4.648-2.104 1.95-3.683 4.273-4.885 6.897-1.202 2.624-1.803 5.473-1.803 8.621 0 3.299.526 6.223 1.653 8.921 1.127 2.7 2.705 5.023 4.734 6.972a21.046 21.046 0 007.064 4.498c2.705 1.05 5.636 1.575 8.792 1.575 2.33 0 4.584-.3 6.838-.9 2.18-.6 4.209-1.424 5.937-2.399 1.728-.974 3.156-1.949 4.208-2.999l-3.231-5.472c-1.052.974-2.254 1.8-3.532 2.549-1.277.75-2.705 1.424-4.283 1.874-1.578.525-3.232.75-5.035.75-2.33 0-4.434-.375-6.388-1.05-1.953-.75-3.682-1.724-5.185-3.074-1.503-1.349-2.63-2.923-3.532-4.872-.826-1.95-1.277-4.049-1.277-6.523 0-2.249.451-4.273 1.277-6.222.977-1.574 2.18-3.224 3.607-4.573zm71.39-4.048v-6.372h-30.51v42.88h30.51v-6.371h-23.897V68.67h20.515v-6.372h-20.515v-11.32h23.897z" fill="#fff"/><path d="M246.708 100.981c-.827 0-1.503.225-2.029.675-.526.45-.977 1.124-1.353 1.949l-.075-2.174c0-.15 0-.225-.075-.225-.075-.075-.151-.075-.226-.075h-.526v10.196h.977v-6.673c.301-.899.677-1.574 1.203-2.099.526-.449 1.127-.749 1.878-.749.226 0 .376 0 .601.075.151 0 .301.075.451.075.151 0 .226.075.301.075.075 0 .15.075.15.075.15 0 .15-.075.226-.15l.15-.675c-.226-.15-.451-.225-.752-.3h-.901zm10.671 1.2c-.376-.375-.752-.675-1.278-.9a3.93 3.93 0 00-1.578-.3c-.752 0-1.353.15-1.954.375s-1.052.6-1.428 1.049c-.375.45-.676.975-.901 1.575-.226.6-.301 1.274-.301 2.024 0 .9.15 1.649.301 2.324.225.675.526 1.274.976 1.724.451.45.902.825 1.503 1.05.602.225 1.203.375 1.879.375.376 0 .752 0 1.127-.15.376-.075.752-.15 1.052-.3l.902-.45c.301-.15.526-.375.676-.6l-.3-.3c-.075-.075-.15-.075-.226-.075-.075 0-.15.075-.3.15-.15.15-.376.225-.601.375-.226.15-.602.3-.977.375-.376.15-.827.15-1.353.15-.601 0-1.127-.075-1.578-.3-.451-.225-.827-.525-1.202-.9a3.998 3.998 0 01-.752-1.499c-.15-.6-.3-1.274-.3-2.024v-.225h7.364c.075 0 .15 0 .225-.075.076-.075.076-.15.076-.3 0-.749-.076-1.349-.301-1.874-.15-.45-.376-.9-.751-1.274zm-6.538 3.073c.075-.525.15-1.049.375-1.424.151-.45.451-.825.752-1.125.301-.3.676-.524 1.052-.674.451-.15.902-.225 1.428-.225.451 0 .902.075 1.277.225.376.15.677.374.977.674.301.3.526.675.601 1.125.151.45.226.899.226 1.499h-6.688v-.075zm16.457-3.223c-.301-.3-.601-.6-1.052-.75a4.385 4.385 0 00-1.428-.225c-.751 0-1.428.15-2.029.45-.601.3-1.127.675-1.653 1.199l.15.3c.075.15.15.15.301.15.075 0 .225-.075.376-.225.15-.15.375-.3.601-.45.225-.15.526-.299.901-.449.376-.15.752-.225 1.278-.225.827 0 1.428.225 1.804.749.375.525.601 1.2.601 2.174v1.05c-1.128 0-2.18.15-3.006.3-.827.15-1.503.375-2.029.675-.526.299-.902.599-1.127.974-.226.375-.376.75-.376 1.2 0 .449.075.824.225 1.199.151.3.376.6.601.825.226.225.527.375.902.45.301.075.677.149 1.052.149a4.57 4.57 0 001.128-.149c.375-.075.676-.225.976-.375.301-.15.602-.375.902-.525.301-.225.526-.45.827-.75l.15 1.275c.075.225.15.3.376.3h.376v-6.673c0-.599-.076-1.049-.226-1.574a4.754 4.754 0 00-.601-1.049zm-.15 7.047c-.226.224-.451.449-.752.674-.225.225-.526.375-.826.525-.301.15-.602.3-.902.375-.301.075-.676.15-1.127.15-.301 0-.526-.075-.752-.15-.225-.075-.451-.225-.676-.375-.15-.15-.301-.375-.451-.6-.15-.225-.15-.524-.15-.899s.075-.675.3-.975c.226-.3.526-.525.977-.75.451-.224 1.052-.374 1.729-.524.676-.15 1.578-.225 2.555-.225v2.774h.075zm5.26-12.67h-.977v14.919h.977V96.408zm15.255 9.446c.075 0 .15 0 .225-.075.075-.075.075-.15.075-.3 0-.75-.075-1.349-.3-1.874-.226-.525-.451-1.05-.827-1.424-.376-.375-.751-.675-1.277-.9a3.935 3.935 0 00-1.579-.3c-.751 0-1.352.15-1.953.375-.602.225-1.052.6-1.428 1.049a5.4 5.4 0 00-.902 1.575c-.225.6-.301 1.274-.301 2.024 0 .9.151 1.649.376 2.324.226.675.526 1.274.977 1.724.376.45.902.825 1.503 1.05.601.225 1.202.375 1.879.375.376 0 .751 0 1.127-.15.376-.075.751-.15 1.052-.3l.902-.45c.3-.15.526-.375.676-.6l-.3-.3c-.076-.075-.151-.075-.226-.075-.075 0-.15.075-.3.15-.151.15-.376.225-.602.375-.225.15-.601.3-.977.375-.375.15-.826.15-1.352.15-.601 0-1.127-.075-1.578-.3-.451-.225-.827-.525-1.203-.9a4.011 4.011 0 01-.751-1.499c-.15-.6-.301-1.274-.301-2.024v-.225h7.365v.15zm-6.989-2.099c.225-.45.451-.825.751-1.125.301-.3.677-.524 1.053-.674.45-.15.901-.225 1.427-.225.451 0 .902.075 1.278.225.376.15.751.374.977.674.3.3.451.675.601 1.125.15.45.225.899.225 1.499h-6.763c.15-.525.226-1.049.451-1.499zm15.105 2.849c-.301-.225-.601-.375-.902-.525-.376-.15-.676-.225-1.052-.375-.376-.075-.676-.225-1.052-.3a2.514 2.514 0 01-.902-.375c-.3-.15-.451-.3-.676-.524-.15-.225-.225-.45-.225-.825 0-.225.075-.525.15-.75.15-.225.3-.45.526-.6.225-.149.451-.299.751-.449.301-.075.677-.15 1.052-.15.376 0 .752.075 1.052.15.301.075.526.15.752.3.225.075.376.224.451.299.15.075.225.15.3.15.076 0 .151-.075.226-.15l.225-.374c-.375-.375-.826-.675-1.352-.825-.451-.15-1.052-.3-1.654-.3-.526 0-.977.075-1.427.225-.451.15-.752.375-1.052.6a2.048 2.048 0 00-.677.899c-.15.3-.225.675-.225 1.05 0 .45.075.75.225 1.049.151.3.376.525.677.75.3.225.601.375.901.525.376.15.677.225 1.052.375.376.075.677.225 1.052.3.376.075.677.224.902.374.301.15.451.375.677.6.15.225.225.525.225.825 0 .3-.075.6-.15.899-.151.3-.301.525-.526.75-.226.225-.526.375-.827.525-.301.15-.676.15-1.127.15a4.55 4.55 0 01-1.127-.15c-.301-.075-.602-.225-.752-.375-.225-.15-.376-.225-.526-.375-.15-.075-.225-.15-.3-.15-.076 0-.151 0-.151.075-.075 0-.075.075-.15.15l-.226.375c.376.375.902.675 1.428.9a4.669 4.669 0 001.879.374c.601 0 1.052-.075 1.503-.224.451-.15.827-.375 1.127-.675.301-.3.526-.6.676-.975.151-.375.226-.824.226-1.274 0-.375-.075-.75-.226-1.05-.3-.45-.45-.674-.751-.899zm8.266 3.448c-.075 0-.151 0-.226.075-.075.075-.225.15-.3.225l-.451.225c-.15.075-.376.075-.601.075-.226 0-.376 0-.526-.075a1.56 1.56 0 01-.451-.3c-.151-.15-.226-.3-.301-.525-.075-.225-.075-.449-.075-.749v-6.972h3.231v-.75h-3.231v-3.898h-.451c-.075 0-.15 0-.15.075-.075.075-.075.075-.075.15l-.226 3.673-1.728.15v.375c0 .075 0 .15.075.15.075.075.075.075.15.075h1.503v6.972c0 .824.226 1.424.601 1.799.376.375.902.6 1.654.6.451 0 .826-.075 1.277-.225.376-.15.752-.375.977-.675l-.3-.45c-.301.075-.376 0-.376 0zm8.867-8.021c-.3-.3-.601-.6-1.052-.75a4.385 4.385 0 00-1.428-.225c-.751 0-1.427.15-2.029.45-.601.3-1.127.675-1.728 1.199l.15.3c.075.15.151.15.301.15.075 0 .225-.075.376-.225.15-.15.375-.3.601-.45.225-.15.526-.299.902-.449.375-.15.751-.225 1.277-.225.827 0 1.428.225 1.804.749.375.525.601 1.2.601 2.174v1.05c-1.127 0-2.18.15-3.006.3-.827.15-1.503.375-2.029.675-.526.299-.902.599-1.127.974-.226.375-.376.75-.376 1.2 0 .449.075.824.225 1.199.151.3.376.6.602.825.225.225.526.375.901.45.301.075.677.149 1.052.149a4.57 4.57 0 001.128-.149c.375-.075.676-.225.976-.375.301-.15.602-.375.902-.525.301-.225.526-.45.827-.75l.15 1.275c.075.225.15.3.376.3h.376v-6.673c0-.599-.075-1.049-.226-1.574-.075-.375-.3-.75-.526-1.049zm-.15 7.047c-.226.224-.451.449-.752.674-.225.225-.526.375-.826.525-.301.15-.601.3-.902.375-.301.075-.676.15-1.127.15-.301 0-.526-.075-.752-.15-.225-.075-.451-.225-.676-.375-.15-.15-.301-.375-.451-.6-.15-.225-.15-.524-.15-.899s.075-.675.3-.975c.226-.3.526-.525.977-.75.451-.224 1.052-.374 1.729-.524.676-.15 1.578-.225 2.555-.225v2.774h.075zm8.642.974c-.075 0-.15 0-.225.075-.076.075-.226.15-.301.225l-.451.225c-.15.075-.376.075-.676.075-.226 0-.376 0-.526-.075a1.56 1.56 0 01-.451-.3c-.15-.15-.226-.3-.301-.525-.075-.225-.075-.449-.075-.749v-6.972h3.231v-.75h-3.231v-3.898h-.526c-.075 0-.15 0-.15.075-.075.075-.075.075-.075.15l-.226 3.673-1.728.15v.375c0 .075 0 .15.075.15.075.075.075.075.15.075h1.503v6.972c0 .824.226 1.424.601 1.799.376.375.902.6 1.654.6.451 0 .826-.075 1.277-.225.376-.15.752-.375.977-.675l-.301-.45c-.15.075-.15 0-.225 0zm10.37-4.198c.076 0 .151 0 .226-.075.075-.075.075-.15.075-.3 0-.75-.075-1.349-.301-1.874-.225-.525-.45-1.05-.826-1.424-.376-.375-.752-.675-1.278-.9a3.93 3.93 0 00-1.578-.3c-.751 0-1.352.15-1.954.375-.601.225-1.052.6-1.427 1.049-.376.45-.677.975-.902 1.575-.226.6-.301 1.274-.301 2.024 0 .9.151 1.649.301 2.324.225.675.526 1.274.977 1.724.451.45.902.825 1.503 1.05.601.225 1.202.375 1.878.375.376 0 .752 0 1.128-.15.375-.075.751-.15 1.052-.3l.901-.45c.301-.15.526-.375.677-.6l-.301-.3c-.075-.075-.15-.075-.225-.075-.075 0-.151.075-.301.15-.15.15-.376.225-.601.375-.225.15-.601.3-.977.375-.376.15-.827.15-1.353.15-.601 0-1.127-.075-1.578-.3-.451-.225-.826-.525-1.202-.9a3.997 3.997 0 01-.751-1.499c-.151-.6-.301-1.274-.301-2.024v-.225h7.439v.15zm-6.988-2.099c.15-.45.451-.825.751-1.125.301-.3.677-.524 1.052-.674.451-.15.902-.225 1.428-.225.451 0 .902.075 1.278.225.375.15.676.374.977.674.3.3.526.675.601 1.125.15.45.225.899.225 1.499h-6.763c.15-.525.225-1.049.451-1.499z" fill="#666"/><path d="M237.314 96.558l-.15.075h-.301l-.15.075-.3.225h-.151l-.075-.075h-.075v.15l-.075.075-.075.075h-.226l-.225.075-.301-.075-.15.075-.301.225-.15.075h-.301l-.15.15h-.225l-.075.074-.076.225-.075.225h-.225v.15l-.075.075-.151.075-.15.075-.075.075h-.15l-.151.075h-.225l-.075.075h-.075l-.076.075h-.075l-.15.075-.075-.075-.075.075h-.075l-.151-.075-.075-.075h-.075v.15l-.075.075-.15.075-.151.225-.451.375-.3.15-.301.075-.225.149-.526.225-.827.375-.15.075-.226.075-.45.15-.376.075h-.075l-.526.15h-.226l-.15.075-.376-.075h-.376l-.3.15-.526.225-.151.15-.3.15-.301.075v-.15h-.15l-.225.075h-.226l-.526.15-.601.075-.301.075h-.225l-.15.074h-1.128l-.375-.074-.151.074-.3-.074-.451-.075h-.075l-.226-.075-.075.075h-.075l-.15-.075h-.075l-.151.075h-.075l-.075-.075h-.15l-.075-.075-.602.075-.15-.075-.601-.15h-.075l-.151.075-.15.075-.15.075h-.226l-.225-.075-.225-.15h-.376l-.376-.225-.451-.3-.3-.15h-.151v.075l.075.15v.45l.151.15.075.15v.749l-.075.6v.075l-.075.3-.076.3-.225.749-.075.075-.15.075-.376.225-.301.15h-.451l-.15-.075-.15-.075-.226-.15-.225-.075-.301-.15-.075-.075h-.15l-.226-.075h-.375l-.226-.075h-.3l-.151.075-.075.075-.15-.075h-.075l-.075.15h-.301l-.075.075h-.301l-.075-.075h-.225v.15l-.075.075-.151.15-.15.15-.075.15-.226.525-.15.225-.075.075-.15.15-.151.075-.3.225-.301.149-.3.075h-.376l-.226-.075-.225-.149-.301-.225-.375-.375h-.076l-.15-.075h-.075v.225l-.075.45v.149l.3.375.076.225.075.075.075.075.075.3-.075.15v.15l-.075.075v.075l.3.3.076.15-.076.225-.075.074v.075l.151.075.225.15.075.3.075.075h.075l.076.075h.075l.075.075h.075l.075.075.075.075v.225l.151.3v.15l.075.15v.075l-.075.3.075.074h.15l.075.075.15.225h.151l.075.075.376.375.075.075h.075l.075.075.15-.075h.151l.075.075.15.075h.15l.301.075h.15l.301.15.15.075.075.075.075.075.226.075.15.075h.151l.375.15.226.075.15.075.15.075h.075l.151-.075h.3l.151-.075v-.075l.15-.075.376-.075.15.075.301-.15.225.075.15-.075.376.075.075.075.15.15h.151l-.075.075.15.15.15.225.075.299.075.15.076.15v.075l-.076.075v.15h.376l.15-.075.076-.075.15.075h.225l.226.075h.15v-.15l-.075-.075-.15-.225-.076-.075-.075-.15v-.449l.075-.075v-.15l.076-.15.225-.15.301-.225.225-.15.226-.075.526-.225.225-.075 1.653.15h.075l.076-.15.15-.075h.075l.225.075h.076l.15-.075h.075l.225-.15h.226l.3-.225.301-.075h.075l.301-.15.15-.149.15-.075.151-.075h.451l.075-.15h.15l.075-.15.15-.075.076-.15.075-.075.075-.075h.376l.375.075h.076l.075-.3.075-.075.225-.375v-.3l.075-.15v-.599l.151-.375.15-.15.225-.15.151-.075h1.277l.451.075.15.075.151.15.225.225.15.075h.151l.15-.075.15-.075.151-.075.075-.15v-.075l.3-.15h.451l.075-.075h.076l.225.075h.15l.151.075h.225l.15.15h.075l.376.225h.15l.076.075h.075l.075-.075v-.075h-.15l-.151-.225.151-.15.15-.15-.075-.075-.301-.45-.451-.3-.15-.15-.075-.075-.226-.224-.15-.225v-.15l-.075-.225-.15-.15-.151-.15-.3-.375-.075-.075-.075-.075h-.151l.075-.075h.076v-.075l-.151-.375v-.15l.151-.599v-.075l.225-.375.15-.075.151-.225.15-.15.075-.075.225-.15h.301l.301.075h.45l.226-.075.075-.075.075-.075.075-.3v-.075l.076-.149.375-.375.301-.225.601-.45.301-.15.15-.075 1.353-.6.375-.374.151-.15.3-.225.376-.15.3-.225.076-.075.075-.3h.075l.075-.15v-.075l.301-.15 1.052-.525h.15l.075-.15.301-.075h.15l.075-.075v-.3l.075-.074v-.675zm33.967-27.063a3.378 3.378 0 003.382-3.374 3.378 3.378 0 00-3.382-3.373 3.378 3.378 0 00-3.382 3.373 3.378 3.378 0 003.382 3.374z" fill="#D57800"/><path d="M0 35.535L107.085 0l213.944 35.535L107.085 7.347 0 35.535z" fill="#666"/></g><defs><clipPath id="clip0_333_165"><path fill="#fff" d="M0 0h332v115H0z"/></clipPath></defs></svg>