<svg width="375" height="274" fill="none" xmlns="http://www.w3.org/2000/svg"><mask id="a" style="mask-type:alpha" maskUnits="userSpaceOnUse" x="-14" y="0" width="403" height="274"><path d="M389 0H-14v273.784h403V0z" fill="#EBEBEB"/></mask><g mask="url(#a)"><path d="M366.3 16.757l-2.07.829-.808.315-2.506-.138-2.348 1.135-4.165 2.842-.178.128-1.558.404-1.441-.622-.817.375-.276 1.689-.78 1.213-.956.67-3.323.336-2.802 1.45-3.64-.976-1.698.661-3.601 3.246-1.836.869-.64-.04-2.438-.128-1.035.345-1.539 1.48-2.91.227-.908.632-1.42 2.861-1.539 1.589-.879.188-.947-.356-.721.128-.327 1.835-.701.762-1.943.671-1.559 1.303-1.362.7-1.834-.05h-.415l-1.826 1.007-3.423.306-1.431 1.362-.316.287-.66.404-1.086.654-.266.157-1.322-.236-1.529.61-.622-.955-1.065.64-1.401.06-1.757-.78-1.341-.599-.977.148-.336 1.697-.039.188-1.027 1.362-1.913 1.164-.267.335-2.179 2.822-4.144 4.359-3.512 1.776-3.63 1.105-2.547 2.091-6.679 3.306-10.527 5.249-2.152.69-3.097.494-5.506 2.032-4.864 1.46-.276.089-.967.286-6.857 2.082-3.187-.346-1.895.691-4.923-.545-3.423.07-2.162.444-4.074 1.953-6.865 3.306-2.269 2.07-3.541 1.846-4.133 1.311.009-1.736-.03-.079-1.44.454-1.035.336-3.354.513h-1.866l-1.164-.336-.177.06-6.865 2.259-7.657.74-3.827 1.223-2.862-.04-1.785.534-3.513.424-1.253-.336-.286-.078-10.32.453-4.716-.533-2.25.513-3.778-1.273-5.496-.64-1.293-.385-2.901-.859-1.302.763-.987.098-2.337-.849-.839-.02-1.934.7-1.114-.285-1.036-.817-2.417-.365-1.479-1.244-8.259 1.095-2.24-.65-7.508-2.191-1.194.06-1.49 1.114-2.24.818-1.943.503-2.644.088-3.069-.81-3.167-1.538-1.174-.276-2.616.266-.799.07-4.794-2.575-6.186-3.858-4.195-2.024-1.58-.256-.207.75.779 2.457.267 2.437-.08 2.25-.048 1.39.394 1.254 1.52 1.677.631 1.689.454 4.647v4.706l-.74 7.509-.262 1.128-.878 3.898-.8 3.571-3.116 9.512-.86 1.174-2.091 1.441-4.765 3.235-3.503 2.012-1.105.464-2.841.218-1.776-.089-2.21-1.194-2.161-.562-2.842-2.043-3.16-.654-3.462-2.002-.898-1.076-1.885-.177-2.615-.79-.957-.286-.66-.197-3.345-.089-3.108-1.431-1.628-.394-2.24-.119-2.338 1.095-1.194.553-1.5-.599-1.075.068-1.232 1.853-.15.286-.847.454-1.057-.02-.827-.019-.888.384-1.204.523-1.056.464-.523.228-.01-.011-.316.06-.562.098-.7.139-1.244-.721-.66-.395-1.105-.227-.592.436-.119 2.023-.545 1.204-1.716 1.529-1.757 1.539-1.213 1.798-3.224 7.367-2.022 2.97-.632.691-2.124 2.338-1.875 1.451-4.322 3.354-4.093 1.529-3.523.721h-1.707l-3.255-.425-2.911-.898-3.207-2.003-3.512-2.833-5.091-5.023-.72-.436-.148-.098-1.599-1.027-1.194.03-.464.77-.256 1.114-.218.977-.582 5.595.05.327.306 2.299 3.858 5.397 1.194 2.871.197.327.799 1.342.602 1.016.06.109 1.322 3.938-.926 2.229.464 1.49-1.165.908-.218 1.292 3.462 4.351.763 1.914-.848 2.664-1.342 1.46-.384.406.197 1.125 1.588 1.43 2.713 2.417 1.452 3.592 1.095.967 1.282-.277.708.545 1.075-.02 1.066 1.066.68.327 1.086.544.859 1.115.197 3.444 1.599 4.263.019 2.318.01.327.997 1.706.315 1.352-.532 3.572 1.273 1.144 1.37-.277.898.138 1.421 1.194 1.727 2.635 1.697-.247 1.075.513 5.18 4.685 1.175.592.059.04.85.414 1.055 1.066 1.627-1.086.178-.019 1.776-.148.779.523 1.49 1.006 1.961-.019 4.253 1.302 1.865.473 3.74 2.329 1.588.987.937.759 1.253 1.017 2.497 1.075 2.141.513 1.164.276.878.336.02-.05h.02l-.03.05 4.647 1.776 2.506.591 2.33.859 1.688.612 1.243.019 1.757-1.479 1.707-.099 1.411.355 1.38-.226 2.18-1.351.424-.632 1.549-.73 5.22-.654 1.519.494 3.917-1.698 2.624.731 2.319-.829 5.08 1.125 1.343.957 1.51 1.716.186.01 1.678.03-.7 1.174 2.209 2.319 2.003 3.03.138.403 1.45 4.263 1.086 1.52.76 2.111.04 1.37-1.185.899-.188.512-.068.188.236.583.444-.247.849-.464 1.026-.158 1.816.188 1.193.128 1.895-.937 1.253-.632 2.013.868 2.21-.019.936.414 2.634 1.194 1.343.118.494-.327.315-.751-.157-.878-1.017-1.155-2.22-2.584-.908-1.322-.7-1.924-.208-2.447-.158-1.657.276-2.18.603-.77.436-1.727h.01l.109-.454 1.243-1.638 3.269-2.101 3.511-3.148 2.773-1.835 2.862-1.233.078-.355.327.128 7.272-2.476.128-.01 3.236-.562 21.884 1.539.808-.247v-.009l.731-2.043.394-.375.267-.246 2.397-1.066 1.125-.157 3.128.768 1.272.316 2.053-1.144 1.451.02 2.999-1.637 1.855.049.7-.286 3.612-2.595 3.483-.997.898-.474.327-.177 3.558-1.886 2.269-1.736 1.953-1.048 2.141-.551 5.595-.394 1.134-1.875 2.408-.316 1.45-1.648 1.668-.67 1.194-1.727 1.006-1.441 1.392-.809 4.478-.276 5.309.661.7-.436 1.204-4.273 1.253-.809 3.383-4.923.011-1.798v-1.5l.552-2.141-.375-3.857.444-3.898 2.102-4.963 1.853-2.003 2.99-2.023 1.519-.66 2.141-.356.327-.06.544-.088 7.41-.098c.099-.079 2.683-.04 2.683-.04l2.477-.03 6.246 1.105.444.079 2.111.681 2.427 1.894 2.585 2.516.484.474 1.667.701.503.226 1.381-.226 1.964-1.017 1.48-1.253 2.023-1.105.05-.068 1.134-1.717.04-.031h.019v-.009h-.019l.453-.681 3.908-1.52 4.587-.266.513-.276.286-.148 1.214-1.43 1.144-.01 2.753.996 1.924-.385 1.539.612 1.194-.138 2.25-.266 2.427 1.707 1.401.178 4.973 2.901.257.04.138.029.276.05.591-.179.879-.256.118-.03.109.149.562.798.78.109.918-1.223-.365-.552-.138-.198-1.776-.364-1.599-2.724 1.52-1.639-2.378-2.91-.395-.493-.138-.197-.817-1.253-4.165-6.355-5.436-4.33-1.894-1.52-.02-.01-.661-.522-2.901-2.95-2.071-2.753-.265-.593-.425-.926-1.242-2.704-2.161-1.667-1.767-1.923-.089-.118-3.63-4.944-.599-.817-.859-.502-1.805-.01-.178-.178-.109-.109.069-.059.869-.868.966-.246.425-.948-1.852-5.357-.011-.188-.137-1.716 1.509-7.775.188-.947 2.575-5.23 1.588-1.302 1.737-3.423 1.499-2.179 1.421-1.392.256-.147 2.576-1.56 2.161-.305 2.061-.286 3.602 1.105 3.424-.06.67-.08 1.55-.167 2.555-.809 1.213-.75.622-.957 1.302-4.38.424-1.391.799-1.51 4.668-5.367 3.522-3.256 7.913-5.811 3.877-2.309 1.983-1.185 17.672-7.854 4.587-4.656 2.397-2.427 4.233-2.833 4.953-2.032 4.263-3.374.926-1.175 1.174-3.769.977-.236.878-1.914.256-.545 3.473-2.446.395-.198 13.507-6.769 1.961.267 1.056-1.58 3.937-.654.72-.128.967-.484.817-1.4v-.276l.117-3.76.839-1.006.455-2.476.436-.573.454-.592 1.104-.78-.187-.474.022.034z" fill="#F7F6F6" fill-opacity=".8"/></g><path d="M243 90V79.452l8.771-5.418V90H243z" fill="#EA9D3A"/><path d="M259.012 61v6.087l-.031 11.281L258.95 90h-1.03V77.699l-1.249-.733L256.64 90h-1.061V76.329l-1.436-.86L254.112 90h-1.03V74.83l-1.311-.796v-8.54L259.012 61zM269 67.087L268.906 90h-1.03V66.386l1.124.7z" fill="#EA9D3A"/><path d="M266.441 65.493L266.409 90h-1.061V64.792l1.093.701z" fill="#A67154"/><path d="M263.944 63.9l-.063 26.1h-1.03V63.199l1.093.701zm-2.217-1.402L261.665 90h-1.03V61.797l1.092.7z" fill="#EA9D3A"/></svg>