<svg width="109" height="90" fill="none" xmlns="http://www.w3.org/2000/svg"><g clip-path="url(#clip0_89_583)"><path d="M67.964 26.278l-3.015-2.345v-4.99a2.706 2.706 0 10-5.412 0v.78l-3.751-2.917a2.71 2.71 0 00-3.324 0l-12.177 9.472a2.7 2.7 0 003.015 4.466v4.436a5.416 5.416 0 005.412 5.412h10.825a5.416 5.416 0 005.412-5.412v-4.463a2.69 2.69 0 004.054-2.06 2.687 2.687 0 00-1.04-2.38zM56.83 35.18v-1.353a2.706 2.706 0 10-5.413 0v1.353h-2.706v-8.6l5.412-4.21 5.413 4.21v8.599H56.83zM54.123 0a27.095 27.095 0 00-27.062 27.062c0 28.492 24.903 39.889 25.963 40.359a2.706 2.706 0 002.198 0c1.06-.47 25.963-11.866 25.963-40.36A27.093 27.093 0 0054.124 0zm0 61.93c-4.603-2.415-21.65-12.85-21.65-34.869a21.648 21.648 0 1143.3 0c0 22.024-17.054 32.459-21.65 34.87zm35.18-15.925H82.54a2.706 2.706 0 100 5.412h6.766a2.708 2.708 0 012.706 2.706v4.06H74.42a2.706 2.706 0 100 5.412h17.59v5.412H64.949a2.71 2.71 0 00-2.704 2.587 2.705 2.705 0 00.667 1.902l6.728 7.689H58.046l-10.018-11.27a2.707 2.707 0 00-2.022-.908H16.238v-5.412h17.59a2.706 2.706 0 100-5.413h-17.59v-4.059a2.708 2.708 0 012.706-2.706h6.765a2.706 2.706 0 100-5.412h-6.765a8.126 8.126 0 00-8.119 8.118V78.48a8.126 8.126 0 008.119 8.118h70.36a8.126 8.126 0 008.12-8.118V54.123a8.125 8.125 0 00-8.12-8.118zM16.239 78.478v-4.06H44.79l6.014 6.766h-31.86a2.708 2.708 0 01-2.707-2.706zm73.067 2.706H76.763a2.708 2.708 0 00-.305-.43l-5.545-6.336H92.01v4.06a2.707 2.707 0 01-2.706 2.706z" fill="#EA9D3A"/></g><defs><clipPath id="clip0_89_583"><path fill="#fff" d="M0 0h108.247v90H0z"/></clipPath></defs></svg>