<svg width="979" height="522" fill="none" xmlns="http://www.w3.org/2000/svg"><mask id="a" style="mask-type:alpha" maskUnits="userSpaceOnUse" x="0" y="0" width="979" height="522"><path d="M979 0H0v521.367h979V0z" fill="#EBEBEB"/></mask><g mask="url(#a)"><path d="M935.465 27.23l-3.97 1.59-1.551.604-4.806-.265-4.503 2.177-7.987 5.45-.34.246-2.99.775-2.763-1.193-1.567.72-.53 3.239-1.494 2.326-1.834 1.287-6.373.643-5.374 2.782-6.982-1.873-3.255 1.268-6.906 6.224-3.521 1.666-1.228-.076-4.676-.246-1.985.663-2.951 2.838-5.582.436-1.742 1.212-2.723 5.487-2.952 3.046-1.685.36-1.816-.681-1.383.245-.626 3.519-1.345 1.463-3.727 1.286-2.989 2.5-2.612 1.342-3.519-.095h-.795l-3.502 1.93-6.565.587-2.745 2.612-.606.55-1.265.775-2.083 1.253-.511.302-2.535-.453-2.932 1.172-1.193-1.834-2.043 1.23-2.687.113-3.37-1.495-2.571-1.15-1.875.284-.643 3.255-.075.36-1.969 2.612-3.67 2.234-.511.642-4.18 5.412-7.946 8.359-6.737 3.406-6.962 2.12-4.884 4.011-12.81 6.339-20.189 10.067-4.126 1.324-5.941.946-10.559 3.899-9.328 2.801-.53.169-1.855.549-13.151 3.993-6.111-.664-3.635 1.325-9.442-1.045-6.565.133-4.146.853-7.814 3.745-13.165 6.34-4.351 3.971-6.792 3.54-7.927 2.515.018-3.33-.057-.151-2.763.871-1.985.644-6.432.983h-3.577l-2.233-.643-.341.114-13.165 4.333-14.685 1.419-7.341 2.346-5.488-.077-3.424 1.023-6.736.814-2.403-.645-.549-.149-19.793.869-9.045-1.022-4.314.984-7.247-2.442-10.539-1.229-2.479-.737-5.565-1.647-2.497 1.463-1.892.188-4.484-1.628-1.608-.038-3.709 1.343-2.137-.548-1.986-1.567-4.635-.699-2.838-2.387-15.84 2.1-4.294-1.246-14.4-4.202-2.29.114-2.858 2.138-4.295 1.567-3.728.966-5.07.168-5.885-1.551-6.074-2.952-2.253-.529-5.015.511-1.533.133-9.194-4.938-11.864-7.399-8.046-3.881-3.029-.491-.399 1.438 1.495 4.712.512 4.674-.152 4.315-.094 2.667.756 2.403 2.913 3.217 1.212 3.239.871 8.912v9.027l-1.42 14.4-.501 2.164-1.685 7.475-1.533 6.85-5.977 18.242-1.648 2.251-4.012 2.764-9.139 6.205-6.717 3.857-2.119.89-5.45.418-3.405-.17-4.239-2.29-4.145-1.077-5.449-3.919-6.06-1.253-6.641-3.841-1.722-2.063-3.614-.34-5.015-1.515-1.836-.549-1.268-.378-6.414-.17-5.96-2.744-3.123-.756-4.297-.228-4.482 2.1-2.29 1.06-2.877-1.149-2.061.132-2.365 3.552-.285.55-1.627.87-2.025-.039-1.588-.035-1.703.737-2.309 1.002-2.025.89-1.002.436-.019-.019-.606.113-1.078.19-1.344.265-2.385-1.383-1.266-.757-2.119-.435-1.135.836-.228 3.879-1.045 2.31-3.292 2.932-3.37 2.951-2.327 3.448-6.181 14.13-3.878 5.696-1.212 1.325-4.075 4.484-3.594 2.782-8.29 6.433-7.851 2.932-6.756 1.383h-3.273l-6.244-.815-5.582-1.722-6.15-3.841-6.735-5.433-9.765-9.634-1.381-.835-.285-.19-3.065-1.968-2.29.057-.889 1.476-.492 2.137-.417 1.874-1.116 10.73.094.627.588 4.409 7.398 10.35 2.29 5.507.379.627 1.532 2.574 1.155 1.949.114.209 2.536 7.551-1.776 4.276.889 2.858-2.234 1.741-.418 2.478 6.64 8.345 1.464 3.671-1.627 5.109-2.574 2.8-.737.778.378 2.157 3.046 2.743 5.204 4.636 2.783 6.888 2.1 1.856 2.459-.532 1.358 1.045 2.063-.038 2.043 2.044 1.306.627 2.082 1.045 1.646 2.137.379 6.605 3.066 8.175.037 4.447.02.627 1.91 3.271.605 2.594-1.02 6.849 2.44 2.195 2.63-.531 1.722.265 2.725 2.29 3.311 5.052 3.256-.472 2.061.983 9.935 8.986 2.253 1.135.113.076 1.629.794 2.025 2.044 3.12-2.081.341-.038 3.406-.284 1.493 1.003 2.859 1.93 3.761-.036 8.156 2.497 3.577.908 7.171 4.466 3.048 1.892 1.797 1.457 2.403 1.95 4.789 2.061 4.106.984 2.233.53 1.683.644.039-.096h.038l-.057.096 8.912 3.406 4.806 1.134 4.467 1.647 3.239 1.173 2.383.038 3.37-2.838 3.274-.189 2.706.681 2.648-.433 4.179-2.593.814-1.212 2.969-1.4 10.012-1.253 2.913.946 7.512-3.254 5.033 1.4 4.448-1.588 9.744 2.156 2.573 1.835 2.895 3.292.36.02 3.217.057-1.344 2.252 4.238 4.447 3.842 5.81.264.774 2.783 8.176 2.081 2.914 1.457 4.049.077 2.628-2.272 1.724-.36.982-.131.361.453 1.118.851-.474 1.628-.89 1.968-.303 3.482.361 2.288.245 3.635-1.797 2.403-1.212 3.861 1.665 4.237-.037 1.796.794 5.052 2.29 2.575.226.947-.627.605-1.441-.302-1.683-1.949-2.215-4.257-4.956-1.743-2.536-1.343-3.69-.399-4.693-.303-3.178.531-4.179 1.156-1.478.836-3.312h.018l.209-.87 2.385-3.142 6.269-4.03 6.735-6.037 5.318-3.519 5.487-2.365.151-.681.627.246 13.947-4.749.245-.02 6.207-1.077 41.969 2.952 1.551-.474v-.018l1.401-3.917.756-.72.512-.471 4.597-2.045 2.158-.302 5.998 1.474 2.44.606 3.938-2.194 2.781.038 5.753-3.14 3.558.094 1.342-.549 6.928-4.976 6.679-1.912 1.723-.908.627-.341 6.823-3.616 4.351-3.331 3.746-2.008 4.107-1.058 10.73-.756 2.175-3.596 4.618-.605 2.78-3.161 3.199-1.286 2.291-3.311 1.928-2.763 2.67-1.552 8.589-.53 10.181 1.268 1.344-.836 2.308-8.195 2.403-1.551 6.489-9.442.02-3.448v-2.877l1.06-4.106-.719-7.398.851-7.475 4.031-9.518 3.553-3.842 5.735-3.879 2.913-1.267 4.106-.683.627-.114 1.045-.168 14.209-.189c.19-.151 5.147-.078 5.147-.078l4.751-.057 11.978 2.12.851.151 4.049 1.306 4.656 3.632 4.957 4.826.927.909 3.198 1.344.965.433 2.648-.433 3.767-1.95 2.839-2.403 3.879-2.12.095-.13 2.175-3.293.077-.058h.037v-.019h-.037l.87-1.306 7.494-2.914 8.798-.51.983-.53.549-.283 2.329-2.743 2.194-.02 5.279 1.912 3.691-.739 2.951 1.173 2.289-.264 4.316-.51 4.654 3.273 2.686.341 9.538 5.564.493.076.264.057.53.095 1.135-.342 1.684-.491.228-.058.209.285 1.077 1.531 1.496.209 1.759-2.345-.699-1.06-.264-.379-3.406-.699-3.067-5.224 2.915-3.142-4.561-5.581-.757-.947-.265-.377-1.567-2.403-7.987-12.187-10.426-8.305-3.633-2.915-.038-.019-1.268-1.002-5.564-5.658-3.97-5.279-.51-1.137-.815-1.776-2.382-5.186-4.144-3.198-3.389-3.688-.171-.226-6.961-9.481-1.15-1.567-1.646-.963-3.463-.02-.34-.341-.209-.209.132-.114 1.666-1.664 1.853-.472.815-1.817-3.552-10.274-.02-.36-.264-3.292 2.895-14.911.359-1.816 4.939-10.031 3.047-2.497 3.33-6.565 2.876-4.18 2.724-2.668.492-.283 4.94-2.99 4.144-.587 3.953-.548 6.908 2.119 6.566-.115 1.287-.153 2.971-.32 4.9-1.551 2.326-1.439 1.193-1.836 2.498-8.401.813-2.667 1.533-2.896 8.951-10.293 6.755-6.244 15.176-11.145 7.436-4.428 3.804-2.273 33.891-15.062 8.799-8.93 4.597-4.655 8.117-5.433 9.5-3.898 8.174-6.47 1.776-2.254 2.252-7.227 1.874-.454 1.685-3.67.491-1.045 6.659-4.692.758-.38 25.904-12.98 3.762.51 2.025-3.03 7.55-1.254 1.381-.245 1.854-.928 1.568-2.687v-.529l.225-7.21 1.609-1.929.872-4.75.836-1.099.871-1.134 2.118-1.496-.36-.909.043.065z" fill="#F7F6F6" fill-opacity=".8"/></g><circle cx="539" cy="239.155" r="7" fill="#EA9D3A"/><path d="M420.149 262.162c.12 0 .24.025.36.075.12.04.235.115.345.225l2.01 2.115a8.395 8.395 0 01-3.315 2.61c-1.32.58-2.885.87-4.695.87-1.66 0-3.15-.28-4.47-.84-1.31-.57-2.425-1.35-3.345-2.34-.91-1-1.61-2.18-2.1-3.54-.49-1.37-.735-2.855-.735-4.455 0-1.63.265-3.125.795-4.485.53-1.37 1.275-2.55 2.235-3.54.96-.99 2.11-1.76 3.45-2.31 1.34-.55 2.815-.825 4.425-.825.82 0 1.59.075 2.31.225.73.14 1.41.34 2.04.6a9.13 9.13 0 013.15 2.085l-1.71 2.295c-.11.14-.24.27-.39.39-.15.11-.36.165-.63.165-.18 0-.35-.04-.51-.12-.16-.08-.33-.175-.51-.285-.18-.12-.38-.245-.6-.375a3.635 3.635 0 00-.765-.375c-.29-.12-.635-.22-1.035-.3-.39-.08-.85-.12-1.38-.12-.84 0-1.61.155-2.31.465-.69.31-1.29.765-1.8 1.365-.5.59-.89 1.32-1.17 2.19-.27.86-.405 1.845-.405 2.955 0 1.12.15 2.115.45 2.985.31.87.725 1.605 1.245 2.205.53.59 1.145 1.04 1.845 1.35.7.31 1.45.465 2.25.465.46 0 .88-.02 1.26-.06.38-.05.735-.125 1.065-.225.33-.11.64-.25.93-.42.29-.18.585-.405.885-.675.12-.1.25-.18.39-.24a.961.961 0 01.435-.105zm15.398-2.655v8.31h-5.07v-8.31l-7.92-13.545h4.47c.44 0 .785.105 1.035.315.26.2.475.46.645.78l3.09 6.36c.26.5.495.97.705 1.41.21.43.395.855.555 1.275.15-.43.32-.86.51-1.29.2-.44.43-.905.69-1.395l3.06-6.36c.07-.13.155-.26.255-.39s.215-.245.345-.345c.14-.11.295-.195.465-.255a1.6 1.6 0 01.585-.105h4.5l-7.92 13.545zm17.338-2.82c1.32 0 2.27-.315 2.85-.945.58-.63.87-1.51.87-2.64 0-.5-.075-.955-.225-1.365-.15-.41-.38-.76-.69-1.05-.3-.3-.685-.53-1.155-.69-.46-.16-1.01-.24-1.65-.24h-2.64v6.93h2.64zm0-10.725c1.54 0 2.86.185 3.96.555 1.11.36 2.02.86 2.73 1.5.72.64 1.25 1.395 1.59 2.265.34.87.51 1.81.51 2.82 0 1.09-.175 2.09-.525 3a6.02 6.02 0 01-1.605 2.34c-.72.65-1.635 1.16-2.745 1.53-1.1.36-2.405.54-3.915.54h-2.64v7.305h-5.07v-21.855h7.71zm18.472 10.275c.69 0 1.275-.085 1.755-.255.49-.18.89-.425 1.2-.735.31-.31.535-.67.675-1.08.14-.42.21-.87.21-1.35 0-.96-.315-1.71-.945-2.25-.62-.54-1.585-.81-2.895-.81h-2.04v6.48h2.04zm10.77 11.58h-4.59c-.85 0-1.46-.32-1.83-.96l-3.63-6.345c-.17-.27-.36-.465-.57-.585-.21-.13-.51-.195-.9-.195h-1.29v8.085h-5.07v-21.855h7.11c1.58 0 2.925.165 4.035.495 1.12.32 2.03.77 2.73 1.35.71.58 1.225 1.265 1.545 2.055.32.79.48 1.65.48 2.58 0 .71-.095 1.38-.285 2.01-.19.63-.47 1.215-.84 1.755a6.41 6.41 0 01-1.38 1.425c-.54.42-1.165.765-1.875 1.035.33.17.64.385.93.645.29.25.55.55.78.9l4.65 7.605zm10.722-4.005c.68 0 1.285-.11 1.815-.33.54-.23.995-.555 1.365-.975.37-.42.65-.93.84-1.53.2-.61.3-1.3.3-2.07v-12.945h5.07v12.945c0 1.34-.22 2.57-.66 3.69a8.19 8.19 0 01-1.86 2.895c-.81.81-1.795 1.44-2.955 1.89-1.16.45-2.465.675-3.915.675-1.46 0-2.77-.225-3.93-.675-1.16-.45-2.145-1.08-2.955-1.89a8.19 8.19 0 01-1.86-2.895c-.43-1.12-.645-2.35-.645-3.69v-12.945h5.07v12.93c0 .77.095 1.46.285 2.07.2.6.485 1.115.855 1.545.37.42.82.745 1.35.975.54.22 1.15.33 1.83.33zm25.426-13.41c-.15.24-.31.42-.48.54-.16.12-.37.18-.63.18-.23 0-.48-.07-.75-.21-.26-.15-.56-.315-.9-.495a6.74 6.74 0 00-1.14-.48 4.45 4.45 0 00-1.47-.225c-.95 0-1.66.205-2.13.615-.46.4-.69.945-.69 1.635 0 .44.14.805.42 1.095.28.29.645.54 1.095.75.46.21.98.405 1.56.585.59.17 1.19.365 1.8.585.61.21 1.205.46 1.785.75.59.29 1.11.66 1.56 1.11.46.45.83 1 1.11 1.65.28.64.42 1.415.42 2.325a7.6 7.6 0 01-.525 2.835c-.35.88-.86 1.65-1.53 2.31-.66.65-1.48 1.165-2.46 1.545-.97.37-2.075.555-3.315.555-.68 0-1.375-.07-2.085-.21-.7-.14-1.38-.335-2.04-.585a12.36 12.36 0 01-1.86-.915 7.903 7.903 0 01-1.515-1.17l1.5-2.37c.12-.17.275-.31.465-.42.2-.12.415-.18.645-.18.3 0 .6.095.9.285.31.19.655.4 1.035.63.39.23.835.44 1.335.63s1.09.285 1.77.285c.92 0 1.635-.2 2.145-.6.51-.41.765-1.055.765-1.935 0-.51-.14-.925-.42-1.245-.28-.32-.65-.585-1.11-.795a9.866 9.866 0 00-1.545-.555c-.58-.16-1.175-.335-1.785-.525-.61-.2-1.205-.44-1.785-.72-.58-.29-1.1-.665-1.56-1.125-.45-.47-.815-1.05-1.095-1.74-.28-.7-.42-1.56-.42-2.58a6.195 6.195 0 011.95-4.485c.64-.61 1.425-1.095 2.355-1.455.93-.37 1.995-.555 3.195-.555.67 0 1.32.055 1.95.165.64.1 1.245.255 1.815.465.57.2 1.1.445 1.59.735.5.28.945.6 1.335.96l-1.26 2.355z" fill="#C1C1C1" fill-opacity=".68"/></svg>