<svg width="24" height="24" fill="none" xmlns="http://www.w3.org/2000/svg"><path d="M13.604 7.596a.7.7 0 10.991-.992L12.99 5h2.51A3.5 3.5 0 0119 8.5v6.3a4.2 4.2 0 101.4.238V8.5a4.9 4.9 0 00-4.9-4.9h-2.51l1.606-1.604a.7.7 0 10-.99-.992l-2.8 2.8a.7.7 0 000 .992l2.8 2.8zM21.8 19a2.8 2.8 0 11-5.6 0 2.8 2.8 0 015.6 0zM9.2 5A4.2 4.2 0 015 9.2v6.3A3.5 3.5 0 008.5 19h2.51l-1.606-1.604a.7.7 0 11.991-.992l2.8 2.8a.7.7 0 010 .992l-2.8 2.8a.701.701 0 01-.99-.992L11.01 20.4H8.5a4.9 4.9 0 01-4.9-4.9V8.962A4.201 4.201 0 119.2 5zM7.8 5a2.8 2.8 0 10-5.6 0 2.8 2.8 0 005.6 0z" fill="#D57800"/></svg>