<svg width="20" height="20" fill="none" xmlns="http://www.w3.org/2000/svg"><path d="M16.25 18.125h-.106C3.862 17.419 2.119 7.056 1.875 3.894A1.875 1.875 0 013.6 1.875h3.444a1.25 1.25 0 011.162.788L9.156 5a1.25 1.25 0 01-.275 1.35L7.55 7.694a5.856 5.856 0 004.737 4.75l1.357-1.344A1.25 1.25 0 0115 10.844l2.356.944a1.25 1.25 0 01.769 1.162v3.3a1.875 1.875 0 01-1.875 1.875zm-12.5-15a.625.625 0 00-.625.625v.05c.287 3.7 2.131 12.45 13.087 13.075a.625.625 0 00.663-.587V12.95l-2.356-.944-1.794 1.781-.3-.037C6.987 13.069 6.25 7.631 6.25 7.575l-.038-.3 1.775-1.794-.937-2.356h-3.3z" fill="#fff"/></svg>