<svg width="375" height="174" fill="none" xmlns="http://www.w3.org/2000/svg"><path d="M376 0H-1v174h377V0z" fill="#EBEBEB"/><mask id="a" style="mask-type:alpha" maskUnits="userSpaceOnUse" x="-1" y="0" width="379" height="174"><path d="M378 0H-1v174h379V0z" fill="#EBEBEB"/></mask><g mask="url(#a)"><path d="M252.873-13.974l-1.592.641-.621.244-1.927-.107-1.805.878-3.202 2.198-.137.099-1.198.312-1.108-.48-.628.29-.213 1.306-.599.938-.735.518-2.555.26-2.154 1.122-2.799-.755-1.305.51-2.769 2.51-1.411.673-.493-.031-1.874-.1-.796.268-1.183 1.145-2.238.175-.698.49-1.092 2.211-1.183 1.23-.676.144-.728-.275-.554.1-.251 1.418-.539.59-1.495.519-1.198 1.008-1.047.541-1.411-.038h-.319l-1.403.778-2.632.237-1.101 1.053-.243.222-.507.312-.835.506-.205.122-1.016-.183-1.176.473-.478-.74-.819.496-1.077.046-1.351-.603-1.031-.464-.751.114-.258 1.313-.03.145-.79 1.054-1.471.9-.205.26-1.675 2.182-3.186 3.37-2.701 1.374-2.791.855-1.958 1.617-5.136 2.557-8.093 4.06-1.654.533-2.382.382-4.233 1.572-3.74 1.13-.212.068-.744.22-5.272 1.611-2.45-.267-1.457.534-3.785-.422-2.632.054-1.662.344-3.133 1.51-5.278 2.557-1.744 1.6-2.723 1.428-3.178 1.014.007-1.342-.023-.061-1.107.351-.796.26-2.579.396h-1.434l-.895-.26-.136.047-5.278 1.747-5.887.573-2.943.945-2.2-.03-1.373.412-2.7.328-.964-.26-.22-.06-7.935.35-3.626-.412-1.73.397-2.905-.984-4.225-.496-.994-.297-2.23-.664-1.002.59-.759.075-1.797-.656-.645-.016-1.486.542-.858-.221-.795-.632-1.859-.282-1.138-.962-6.35.847-1.721-.503-5.773-1.695-.918.046-1.146.863L39 42.07l-1.494.39-2.033.067-2.359-.626-2.435-1.19-.903-.213-2.01.206-.615.053-3.686-1.99-4.757-2.985-3.225-1.564-1.215-.199-.16.58.6 1.9.205 1.885-.06 1.74-.038 1.076.303.969 1.168 1.297.485 1.306.35 3.594v3.64l-.57 5.807-.2.873-.676 3.014-.615 2.762-2.396 7.357-.66.907-1.609 1.115-3.664 2.502-2.693 1.555-.85.36-2.184.168-1.365-.069-1.7-.923-1.661-.435-2.185-1.58-2.43-.505-2.662-1.55-.69-.83-1.449-.138-2.01-.611-.736-.221-.508-.153-2.572-.069-2.39-1.106-1.251-.305-1.723-.092-1.797.847-.918.428-1.153-.464-.826.053-.948 1.433-.115.222-.652.35-.812-.015-.636-.014-.683.297-.926.404-.812.359-.401.176-.008-.008-.243.046-.432.076-.539.107-.956-.558-.508-.305-.849-.175-.455.337-.092 1.564-.419.931-1.32 1.183-1.35 1.19-.933 1.39-2.478 5.698-1.555 2.297-.486.534-1.633 1.809-1.441 1.122-3.324 2.594-3.147 1.182-2.708.558h-1.313l-2.503-.329-2.238-.695-2.465-1.548-2.7-2.191-3.915-3.885-.554-.337-.114-.076-1.229-.794-.918.023-.356.595-.197.862-.168.756-.447 4.327.038.252.236 1.778 2.966 4.174.917 2.221.152.253.614 1.037.464.787.045.084 1.017 3.045-.712 1.724.356 1.153-.895.702-.168.999 2.662 3.365.587 1.48-.652 2.061-1.032 1.129-.296.313.152.87 1.221 1.106 2.086 1.87 1.116 2.778.842.748.986-.215.544.422.827-.015.82.824.523.252.834.422.66.862.152 2.663 1.23 3.297.014 1.793.008.253.766 1.319.243 1.046-.41 2.762.979.885 1.054-.214.69.107 1.093.923 1.327 2.038 1.306-.191.826.397 3.983 3.623.903.458.045.03.653.321.812.824 1.251-.839.137-.015 1.365-.115.599.405 1.146.778 1.508-.015 3.27 1.007 1.433.366 2.875 1.801 1.222.763.72.588.964.786 1.92.831 1.646.397.895.214.675.259.016-.038h.015l-.023.038 3.573 1.374 1.927.457 1.79.664 1.299.473.955.016 1.35-1.145 1.314-.076 1.085.275 1.06-.175 1.676-1.045.327-.489 1.19-.565 4.014-.505 1.167.381 3.012-1.312 2.018.565 1.783-.641 3.906.87 1.032.74 1.16 1.327.145.008 1.29.023-.54.908 1.7 1.794 1.54 2.343.106.312 1.115 3.297.835 1.175.584 1.632.03 1.06-.91.696-.145.396-.052.145.181.451.342-.191.652-.359.79-.122 1.395.145.918.099 1.457-.724.963-.489 1.548.671 1.699-.015.72.32 2.025.924 1.032.091.38-.253.243-.581-.121-.679-.782-.893-1.706-1.999-.7-1.022-.538-1.488-.16-1.892-.12-1.282.212-1.685.463-.596.335-1.336h.008l.084-.351.955-1.267 2.514-1.625 2.7-2.434 2.132-1.419 2.2-.954.06-.274.251.099 5.592-1.915.098-.008 2.488-.435 16.826 1.19.621-.19v-.008l.562-1.58.303-.29.205-.19 1.843-.824.865-.122 2.405.594.978.245 1.579-.885 1.115.015 2.306-1.266 1.426.038.539-.221 2.777-2.007 2.678-.771.69-.366.252-.138 2.735-1.458 1.744-1.343 1.502-.81 1.647-.427 4.301-.304.872-1.451 1.851-.243 1.115-1.275 1.283-.519.918-1.335.773-1.114 1.07-.626 3.444-.214 4.081.512.539-.338.925-3.304.963-.626 2.602-3.807.008-1.391v-1.16l.425-1.655-.288-2.984.341-3.014 1.616-3.838 1.424-1.55 2.299-1.564 1.168-.511 1.646-.275.252-.046.418-.068 5.697-.076c.076-.061 2.063-.031 2.063-.031l1.905-.024 4.802.855.341.061 1.623.527 1.867 1.465 1.987 1.946.372.366 1.282.542.387.175 1.061-.175 1.51-.786 1.139-.969 1.555-.855.038-.053.872-1.327.031-.024h.015v-.007h-.015l.348-.527 3.005-1.175 3.527-.206.394-.213.22-.115.934-1.106.879-.008 2.117.771 1.479-.298 1.183.473.918-.106 1.73-.206 1.866 1.32 1.077.137 3.823 2.244.198.031.106.023.213.038.454-.138.676-.198.091-.023.084.115.432.617.599.084.706-.945-.28-.428-.106-.153-1.366-.281-1.229-2.107 1.168-1.267-1.828-2.251-.304-.382-.106-.152-.628-.969-3.202-4.914-4.18-3.35-1.456-1.175-.016-.007-.508-.404-2.231-2.282-1.591-2.129-.205-.458-.326-.717-.955-2.09-1.662-1.29-1.358-1.488-.069-.09-2.791-3.824-.46-.632-.66-.388-1.389-.008-.136-.138-.084-.084.053-.046.668-.671.743-.19.327-.733-1.424-4.143-.008-.145-.106-1.328 1.16-6.013.144-.732 1.98-4.045 1.222-1.007 1.335-2.648 1.153-1.685 1.092-1.076.197-.114 1.981-1.206 1.661-.236 1.585-.221 2.769.854 2.632-.046.516-.062 1.191-.129 1.965-.626.932-.58.479-.74 1.001-3.388.326-1.075.614-1.168 3.589-4.15 2.708-2.519 6.084-4.494 2.981-1.786 1.525-.916 13.587-6.074 3.527-3.601 1.843-1.877 3.254-2.191 3.809-1.572 3.277-2.61.712-.908.903-2.914.751-.183.675-1.48.197-.422 2.67-1.892.304-.153 10.385-5.235 1.508.206.811-1.221 3.028-.506.553-.099.743-.374.629-1.084v-.213l.09-2.907.645-.778.35-1.916.335-.443.349-.457.849-.603-.144-.367.017.026z" fill="#CCC"/></g></svg>