<svg width="1920" height="206" fill="none" xmlns="http://www.w3.org/2000/svg"><path d="M1920 0H0v206h1920V0z" fill="#EBEBEB"/><mask id="a" style="mask-type:alpha" maskUnits="userSpaceOnUse" x="0" y="0" width="1920" height="206"><path d="M1920 0H0v206h1920V0z" fill="#EBEBEB"/></mask><g mask="url(#a)"><path d="M895.333-150.583l-3.8 1.521-1.484.579-4.6-.254-4.31 2.084-7.644 5.216-.326.235-2.861.742-2.645-1.142-1.5.689-.507 3.1-1.43 2.227-1.755 1.231-6.1.616-5.143 2.662-6.683-1.792-3.115 1.213-6.61 5.957-3.37 1.595-1.175-.073-4.475-.235-1.9.634-2.825 2.717-5.342.417-1.667 1.16-2.607 5.251-2.825 2.916-1.613.345-1.738-.653-1.323.235-.6 3.368-1.287 1.4-3.567 1.231-2.861 2.392-2.5 1.285-3.368-.091h-.761l-3.351 1.847-6.284.562-2.627 2.5-.58.526-1.211.742-1.993 1.2-.489.289-2.427-.434-2.806 1.122-1.142-1.755-1.955 1.176-2.572.109-3.225-1.431-2.461-1.1-1.794.271-.616 3.116-.072.344-1.884 2.5-3.513 2.138-.489.615-4 5.18-7.606 8-6.448 3.26-6.663 2.029-4.674 3.839-12.261 6.067-19.323 9.635-3.949 1.267-5.686.906-10.106 3.731-8.928 2.681-.507.162-1.775.525-12.587 3.822-5.849-.635-3.479 1.268-9.037-1-6.283.127-3.968.816-7.479 3.585-12.6 6.068-4.165 3.8-6.5 3.388-7.587 2.407.017-3.187-.055-.144-2.644.833-1.9.617-6.156.941h-3.424l-2.137-.616-.326.109-12.6 4.147-14.055 1.359-7.026 2.245-5.253-.074-3.277.979-6.447.779-2.3-.617-.525-.143-18.944.832-8.657-.978-4.129.942-6.936-2.337-10.087-1.177-2.373-.705-5.326-1.576-2.39 1.4-1.811.18-4.291-1.558-1.539-.037-3.55 1.286-2.046-.525-1.9-1.5-4.437-.669-2.716-2.284-15.16 2.01-4.11-1.193-13.782-4.022-2.192.109-2.735 2.047-4.111 1.5-3.568.924-4.853.161-5.632-1.485-5.814-2.825-2.156-.506-4.8.489-1.467.127-8.8-4.726-11.355-7.082-7.7-3.714-2.9-.47-.381 1.376 1.43 4.51.49 4.474-.145 4.129-.09 2.553.724 2.3 2.788 3.079 1.16 3.1.833 8.53v8.639l-1.359 13.783-.479 2.071-1.613 7.154-1.467 6.556-5.721 17.46-1.577 2.154-3.84 2.645-8.747 5.939-6.429 3.692-2.028.852-5.216.4-3.259-.163-4.057-2.192-3.967-1.031-5.216-3.75-5.8-1.2-6.356-3.676-1.648-1.974-3.459-.326-4.8-1.45-1.757-.525-1.213-.362-6.139-.163-5.705-2.626-2.989-.724-4.112-.218-4.29 2.01-2.192 1.015-2.753-1.1-1.973.126-2.263 3.4-.273.526-1.557.833-1.939-.037-1.519-.034-1.63.705-2.21.96-1.938.851-.959.418-.019-.019-.58.109-1.031.181-1.287.254-2.282-1.324-1.212-.724-2.028-.416-1.086.8-.219 3.712-1 2.211-3.151 2.806-3.225 2.825-2.227 3.3-5.916 13.524-3.712 5.451-1.16 1.268-3.9 4.292-3.44 2.663-7.934 6.157-7.514 2.806-6.466 1.324h-3.133l-5.976-.78-5.343-1.649-5.886-3.676-6.446-5.2-9.346-9.22-1.322-.8-.272-.181-2.934-1.884-2.192.055-.851 1.412-.47 2.046-.4 1.793-1.068 10.27.09.6.563 4.22 7.081 9.906 2.191 5.271.363.6 1.466 2.463 1.106 1.866.109.2 2.427 7.227-1.7 4.092.851 2.736-2.138 1.666-.4 2.372 6.355 7.987 1.401 3.513-1.557 4.89-2.463 2.68-.706.744.362 2.065 2.915 2.625 4.981 4.437 2.664 6.593 2.01 1.776 2.353-.509 1.3 1 1.974-.036 1.956 1.956 1.25.6 1.992 1 1.576 2.046.362 6.321 2.935 7.825.035 4.256.019.6 1.829 3.131.579 2.482-.977 6.556 2.336 2.1 2.517-.508 1.648.254 2.608 2.192 3.169 4.835 3.116-.452 1.973.941 9.509 8.6 2.156 1.087.108.072 1.559.76 1.938 1.957 2.987-1.992.326-.036 3.26-.272 1.429.96 2.736 1.847 3.6-.035 7.806 2.39 3.423.869 6.864 4.275 2.917 1.811 1.72 1.394 2.3 1.866 4.583 1.973 3.93.942 2.137.507 1.611.616.038-.091h.036l-.055.091 8.53 3.26 4.6 1.086 4.275 1.576 3.1 1.123 2.281.036 3.225-2.716 3.134-.181 2.59.652 2.534-.415 4-2.481.779-1.16 2.842-1.34 9.582-1.2 2.788.906 7.19-3.115 4.817 1.34 4.257-1.52 9.326 2.064 2.463 1.756 2.771 3.151.344.019 3.079.055-1.286 2.155 4.056 4.256 3.677 5.561.253.741 2.663 7.825 1.992 2.789 1.395 3.875.073 2.516-2.174 1.65-.345.94-.125.345.433 1.07.815-.454 1.558-.851 1.884-.29 3.332.345 2.19.235 3.479-1.72 2.3-1.16 3.695 1.593 4.056-.035 1.719.76 4.835 2.192 2.464.216.907-.6.579-1.379-.289-1.611-1.866-2.12-4.074-4.744-1.668-2.427-1.286-3.531-.381-4.492-.29-3.042.508-4 1.106-1.414.8-3.17h.018l.2-.833 2.282-3.007 6-3.857 6.446-5.778 5.09-3.368 5.252-2.264.144-.651.6.235 13.349-4.545.235-.019 5.94-1.031 40.169 2.825 1.484-.453v-.018l1.341-3.749.724-.689.49-.451 4.4-1.957 2.065-.289 5.741 1.411 2.335.58 3.769-2.1 2.662.036 5.506-3.005 3.405.09 1.285-.525 6.63-4.763 6.393-1.83 1.649-.869.6-.326 6.53-3.461 4.165-3.188 3.585-1.922 3.931-1.013 10.27-.723 2.081-3.442 4.42-.579 2.661-3.025 3.062-1.231 2.192-3.169 1.846-2.645 2.555-1.485 8.221-.507 9.744 1.213 1.286-.8 2.209-7.843 2.3-1.485 6.211-9.037.019-3.3v-2.753l1.014-3.93-.688-7.081.815-7.154 3.858-9.11 3.4-3.677 5.489-3.713 2.788-1.212 3.93-.654.6-.109 1-.161 13.6-.181c.182-.144 4.926-.074 4.926-.074l4.547-.055 11.464 2.029.815.145 3.875 1.25 4.456 3.476 4.745 4.619.887.87 3.061 1.286.923.415 2.535-.415 3.605-1.866 2.717-2.3 3.713-2.029.091-.125 2.082-3.151.073-.056h.036v-.018h-.036l.833-1.25 7.172-2.789 8.421-.488.941-.507.525-.271 2.229-2.626 2.1-.019 5.053 1.83 3.532-.707 2.825 1.123 2.191-.253 4.13-.488 4.455 3.132 2.571.327 9.128 5.325.472.073.253.054.507.091 1.086-.327 1.612-.47.218-.055.2.272 1.031 1.466 1.432.2 1.684-2.245-.669-1.014-.253-.363-3.26-.669-2.935-5 2.79-3.007-4.366-5.342-.724-.906-.254-.361-1.5-2.3-7.644-11.664-9.979-7.949-3.477-2.79-.036-.018-1.214-.959-5.325-5.415-3.8-5.053-.488-1.088-.78-1.7-2.28-4.963-3.966-3.061-3.244-3.53-.163-.216-6.663-9.074-1.1-1.5-1.576-.922-3.314-.019-.326-.326-.2-.2.127-.109 1.594-1.593 1.774-.452.78-1.739-3.4-9.833-.019-.345-.253-3.15 2.771-14.272.344-1.738 4.727-9.6 2.916-2.39 3.187-6.284 2.753-4 2.607-2.554.471-.271 4.728-2.861 3.966-.562 3.784-.525 6.611 2.028 6.285-.11 1.231-.146 2.844-.306 4.69-1.485 2.226-1.377 1.142-1.757 2.391-8.041.778-2.553 1.467-2.771 8.567-9.852 6.465-5.976L751.7-44.847l7.117-4.238 3.641-2.175 32.437-14.416 8.421-8.547 4.4-4.455 7.769-5.2 9.092-3.731 7.824-6.193 1.7-2.157 2.155-6.917 1.794-.434 1.612-3.513.47-1 6.374-4.491.725-.363 24.793-12.424 3.6.489 1.938-2.9 7.227-1.2 1.321-.235 1.775-.888 1.5-2.572v-.506l.216-6.9 1.54-1.847.834-4.546.8-1.052.834-1.086 2.027-1.431-.344-.87.041.062z" fill="#CCC"/></g></svg>