<svg width="1920" height="1262" fill="none" xmlns="http://www.w3.org/2000/svg"><mask id="a" style="mask-type:alpha" maskUnits="userSpaceOnUse" x="-297" y="0" width="2369" height="1262"><path d="M2072 0H-297v1261.61h2369V0z" fill="#EBEBEB"/></mask><g mask="url(#a)"><path d="M1966.65 65.892l-9.6 3.846-3.76 1.464-11.63-.642-10.89 5.269-19.33 13.187-.82.594-7.24 1.876-6.68-2.887-3.8 1.742-1.28 7.838-3.61 5.63-4.44 3.112-15.42 1.558-13.01 6.73-16.89-4.531-7.88 3.067-16.71 15.061-8.52 4.033-2.97-.185-11.31-.594-4.81 1.603-7.14 6.869-13.51 1.055-4.21 2.932-6.59 13.276-7.15 7.373-4.07.872-4.4-1.651-3.34.594-1.52 8.516-3.25 3.539-9.02 3.113-7.24 6.047-6.32 3.249-8.51-.23h-1.93l-8.47 4.67-15.89 1.421-6.64 6.32-1.46 1.33-3.07 1.876-5.03 3.034-1.24.731-6.14-1.098-7.09 2.837-2.89-4.437-4.94 2.973-6.5.276-8.16-3.618-6.22-2.781-4.54.685-1.55 7.878-.18.87-4.77 6.321-8.88 5.405-1.24 1.555-10.11 13.096-19.23 20.227-16.3 8.242-16.85 5.13-11.81 9.706-31 15.339-48.86 24.36-9.98 3.203-14.38 2.291-25.55 9.433-22.57 6.778-1.28.41-4.49 1.327-31.82 9.663-14.79-1.605-8.8 3.206-22.85-2.529-15.88.321-10.03 2.063-18.91 9.064-31.86 15.342-10.53 9.607-16.43 8.566-19.19 6.086.05-8.058-.14-.364-6.69 2.106-4.8 1.56-15.56 2.379h-8.66l-5.4-1.557-.83.275-31.85 10.485-35.54 3.436-17.76 5.676-13.28-.187-8.29 2.475-16.299 1.97-5.815-1.56-1.328-.362-47.895 2.104-21.888-2.473-10.439 2.382-17.536-5.909-25.503-2.976-5.999-1.782-13.466-3.985-6.043 3.54-4.578.455-10.849-3.939-3.891-.093-8.976 3.251-5.172-1.327-4.804-3.793-11.218-1.691-6.867-5.775-38.329 5.082-10.391-3.016-34.845-10.169-5.542.275-6.915 5.176-10.393 3.792-9.021 2.336-12.27.408-14.239-3.755-14.7-7.142-5.451-1.28-12.135 1.237-3.709.321-22.249-11.949-28.709-17.905-19.468-9.39-7.332-1.189-.963 3.479 3.615 11.403 1.239 11.311-.366 10.44-.228 6.454 1.831 5.815 7.048 7.785 2.933 7.838 2.106 21.566v21.842l-3.436 34.847-1.211 5.236-4.078 18.087-3.709 16.576-14.464 44.144-3.987 5.446-9.709 6.687-22.115 15.015-16.254 9.335-5.127 2.154-13.188 1.011-8.24-.412-10.257-5.542-10.029-2.606-13.188-9.482-14.664-3.034-16.07-9.293-4.166-4.991-8.746-.825-12.135-3.665-4.443-1.328-3.067-.915-15.521-.412-14.423-6.639-7.557-1.831-10.397-.551-10.846 5.082-5.542 2.566-6.96-2.781-4.989.318-5.721 8.596-.69 1.33-3.937 2.106-4.902-.093-3.841-.086-4.121 1.782-5.587 2.427-4.9 2.152-2.425 1.057-.048-.048-1.466.275-2.607.458-3.254.642-5.769-3.347-3.065-1.831-5.127-1.051-2.746 2.022-.553 9.385-2.529 5.59-7.966 7.095-8.154 7.142-5.631 8.343-14.957 34.193-9.385 13.782-2.933 3.205-9.86 10.852-8.697 6.732-20.06 15.567-18.997 7.095-16.348 3.347h-7.921l-15.109-1.972-13.509-4.169-14.881-9.294-16.298-13.147-23.629-23.311-3.342-2.023-.688-.457-7.418-4.763-5.542.139-2.151 3.569-1.189 5.173-1.011 4.533-2.7 25.966.227 1.517 1.424 10.669 17.903 25.046 5.539 13.326.918 1.517 3.706 6.227 2.796 4.718.276.506 6.136 18.271-4.298 10.346 2.152 6.918-5.406 4.212-1.011 5.997 16.067 20.193 3.542 8.882-3.936 12.363-6.227 6.776-1.785 1.881.915 5.221 7.37 6.637L22.37 885.42l6.735 16.669 5.082 4.49 5.95-1.287 3.286 2.528 4.991-.091 4.945 4.946 3.16 1.517 5.037 2.528 3.985 5.173.915 15.981 7.42 19.784.089 10.76.048 1.517 4.624 7.916 1.464 6.275-2.47 16.574 5.906 5.31 6.364-1.28 4.166.64 6.594 5.54 8.012 12.23 7.878-1.15 4.989 2.38 24.041 21.74 5.451 2.75.273.19 3.942 1.92 4.899 4.94 7.552-5.03.825-.09 8.242-.69 3.613 2.43 6.917 4.67 9.102-.09 19.736 6.04 8.654 2.2 17.354 10.81 7.375 4.57 4.349 3.53 5.815 4.72 11.587 4.99 9.936 2.38 5.403 1.28 4.073 1.56.096-.23h.091l-.139.23 21.566 8.24 11.63 2.74 10.809 3.99 7.837 2.84 5.768.09 8.153-6.87 7.924-.46 6.548 1.65 6.407-1.05 10.113-6.27 1.969-2.93 7.186-3.39 24.226-3.03 7.049 2.29 18.178-7.88 12.179 3.39 10.763-3.84 23.578 5.21 6.227 4.44 7.006 7.97.87.05 7.785.14-3.252 5.45 10.255 10.76 9.296 14.06.64 1.87 6.733 19.78 5.036 7.06 3.527 9.79.185 6.36-5.497 4.18-.872 2.37-.316.87 1.095 2.71 2.06-1.15 3.939-2.15 4.764-.73 8.424.87 5.537.59 8.796-4.35 5.815-2.93 9.342 4.03 10.254-.09 4.347 1.92 12.224 5.54 6.23.55 2.293-1.52 1.464-3.48-.731-4.08-4.718-5.36-10.3-11.99-4.217-6.14-3.252-8.92-.963-11.36-.733-7.69 1.284-10.12 2.797-3.57 2.022-8.01h.046l.505-2.11 5.77-7.6 15.17-9.76 16.297-14.6 12.869-8.52 13.278-5.72.364-1.65 1.517.6 33.75-11.5.595-.04 15.018-2.61 101.558 7.14 3.752-1.14v-.05l3.391-9.48 1.83-1.74 1.239-1.14 11.124-4.95 5.221-.73 14.515 3.57 5.904 1.47 9.529-5.31 6.73.09 13.921-7.6 8.608.23 3.249-1.33 16.763-12.04 16.163-4.63 4.169-2.2 1.517-.82 16.51-8.75 10.53-8.061 9.064-4.859 9.939-2.561 25.969-1.828 5.26-8.702 11.17-1.464 6.73-7.648 7.74-3.113 5.54-8.012 4.67-6.687 6.46-3.755 20.79-1.281 24.63 3.066 3.25-2.022 5.59-19.83 5.81-3.754 15.71-22.848.04-8.344v-6.96l2.57-9.936-1.74-17.903 2.06-18.087 9.75-23.033 8.6-9.296 13.88-9.388 7.05-3.064 9.93-1.654 1.52-.275 2.53-.407 34.38-.458c.46-.364 12.46-.187 12.46-.187l11.49-.139 28.99 5.13 2.06.367 9.79 3.16 11.27 8.788 12 11.678 2.24 2.2 7.74 3.251 2.33 1.05 6.41-1.05 9.12-4.717 6.87-5.815 9.38-5.13.23-.316 5.27-7.967.18-.141h.09v-.046h-.09l2.11-3.16 18.13-7.052 21.29-1.234 2.38-1.281 1.33-.686 5.63-6.639 5.31-.048 12.78 4.627 8.93-1.788 7.14 2.84 5.54-.64 10.44-1.234 11.26 7.919 6.5.826 23.08 13.464 1.2.184.64.137 1.28.23 2.74-.827 4.08-1.188.55-.139.51.687 2.6 3.707 3.62.506 4.26-5.677-1.69-2.563-.64-.918-8.24-1.691-7.42-12.642 7.05-7.602-11.04-13.506-1.83-2.291-.64-.913-3.79-5.815-19.33-29.49-25.23-20.097-8.79-7.054-.09-.045-3.07-2.425-13.46-13.691-9.61-12.775-1.23-2.751-1.98-4.298-5.76-12.548-10.03-7.739-8.2-8.925-.41-.546-16.85-22.941-2.78-3.793-3.98-2.331-8.38-.048-.83-.824-.5-.506.32-.275 4.03-4.028 4.48-1.143 1.98-4.396-8.6-24.861-.05-.872-.64-7.964 7.01-36.084.87-4.394 11.95-24.272 7.37-6.042 8.06-15.888 6.96-10.113 6.59-6.457 1.19-.686 11.96-7.233 10.02-1.421 9.57-1.327 16.71 5.127 15.89-.278 3.12-.369 7.19-.774 11.85-3.754 5.63-3.482 2.89-4.442 6.05-20.33 1.96-6.454 3.71-7.006 21.66-24.909 16.35-15.109 36.72-26.969 17.99-10.715 9.21-5.499 82.01-36.448 21.29-21.609 11.12-11.264 19.65-13.147 22.98-9.433 19.78-15.657 4.3-5.454 5.45-17.488 4.54-1.097 4.07-8.882 1.19-2.528 16.12-11.355 1.83-.918 62.68-31.411 9.1 1.236 4.9-7.332 18.28-3.034 3.34-.594 4.48-2.245 3.8-6.503v-1.279l.54-17.445 3.9-4.67 2.1-11.493 2.03-2.66 2.11-2.746 5.12-3.618-.87-2.2.1.157z" fill="#F7F6F6" fill-opacity=".8"/></g></svg>