<svg width="765" height="481" fill="none" xmlns="http://www.w3.org/2000/svg"><mask id="a" style="mask-type:alpha" maskUnits="userSpaceOnUse" x="-137" y="0" width="902" height="481"><path d="M764.565 0H-137v480.129h901.565V0z" fill="#EBEBEB"/></mask><g mask="url(#a)"><path d="M724.474 25.076l-3.656 1.464-1.428.557-4.426-.244-4.147 2.005-7.355 5.018-.314.227-2.753.714-2.545-1.1-1.443.664-.488 2.983-1.376 2.142-1.688 1.185-5.87.592-4.948 2.562-6.43-1.724-2.998 1.167-6.36 5.731-3.242 1.535-1.131-.07-4.306-.226-1.828.61-2.718 2.614-5.14.401L646.28 55l-2.508 5.053-2.718 2.806-1.552.331-1.673-.628-1.273.226-.577 3.24-1.238 1.348-3.432 1.184-2.753 2.302-2.406 1.236-3.24-.087h-.733l-3.224 1.777-6.046.54-2.528 2.406-.558.506-1.165.714-1.918 1.155-.47.278-2.335-.418-2.7 1.08-1.099-1.689-1.881 1.132-2.475.105-3.103-1.377-2.368-1.059-1.726.261-.593 2.998-.069.331-1.813 2.406-3.38 2.057-.47.592-3.849 4.984-7.318 7.697-6.205 3.137-6.411 1.952-4.497 3.694-11.797 5.837-18.593 9.271-3.799 1.219-5.471.872-9.724 3.59-8.59 2.579-.488.156-1.708.505-12.111 3.678-5.628-.611-3.347 1.22-8.696-.962-6.045.122-3.818.785-7.196 3.45-12.123 5.838-4.008 3.656-6.254 3.26-7.3 2.316.016-3.066-.053-.139-2.544.802-1.828.593-5.923.906h-3.295l-2.056-.593-.314.105-12.123 3.99-13.524 1.308-6.76 2.16-5.054-.071-3.153.942-6.203.749-2.213-.593-.506-.138-18.227.8-8.33-.941-3.973.907-6.673-2.249-9.706-1.132-2.283-.679-5.125-1.516-2.299 1.347-1.743.173-4.129-1.499-1.48-.035-3.416 1.237-1.969-.505-1.828-1.444-4.269-.643-2.613-2.198-14.587 1.934-3.955-1.148-13.26-3.87-2.11.105-2.631 1.97-3.956 1.443-3.433.889-4.669.155-5.419-1.429-5.594-2.718-2.075-.487-4.618.471-1.412.122-8.467-4.547-10.926-6.815-7.408-3.573-2.791-.452-.366 1.324 1.376 4.339.471 4.305-.139 3.973-.087 2.456.697 2.213 2.682 2.963 1.116 2.983.802 8.207v8.312l-1.308 13.262-.461 1.993-1.552 6.883-1.411 6.308-5.505 16.8-1.517 2.072-3.695 2.545-8.416 5.715-6.186 3.552-1.951.82-5.019.385-3.136-.157-3.904-2.109-3.816-.992-5.019-3.608-5.581-1.155-6.116-3.537-1.585-1.899-3.328-.314-4.619-1.395-1.69-.505-1.168-.348-5.906-.157-5.49-2.527-2.876-.697-3.956-.209-4.128 1.934-2.109.976-2.649-1.058-1.898.121-2.178 3.271-.262.507-1.498.801-1.866-.036-1.462-.032-1.568.678-2.126.924-1.865.819-.923.402-.018-.019-.558.105-.992.175-1.239.244-2.195-1.274-1.166-.697-1.952-.4-1.045.77-.21 3.572-.963 2.127-3.031 2.7-3.104 2.718-2.142 3.175-5.693 13.013-3.571 5.245-1.116 1.22-3.753 4.129-3.31 2.563-7.634 5.924-7.23 2.7-6.221 1.274H3.025l-5.75-.751-5.141-1.587-5.664-3.537-6.202-5.003-8.993-8.871-1.272-.77-.261-.174-2.823-1.813-2.11.053-.818 1.359-.453 1.968-.384 1.725-1.028 9.882.087.577.541 4.061 6.814 9.531 2.108 5.072.349.577 1.41 2.37 1.065 1.795.105.193 2.335 6.954-1.636 3.937.819 2.632-2.057 1.603-.385 2.283 6.114 7.685 1.348 3.38-1.498 4.705-2.37 2.578-.679.716.349 1.987 2.804 2.526 4.793 4.269 2.563 6.344 1.934 1.709 2.264-.49 1.251.962 1.9-.035 1.881 1.883 1.203.577 1.917.962 1.516 1.969.349 6.082 2.824 7.529.033 4.095.019.577 1.76 3.013.556 2.388-.94 6.308 2.248 2.02 2.422-.488 1.585.244 2.51 2.109 3.05 4.652 2.997-.435 1.899.906 9.149 8.275 2.075 1.045.103.07 1.5.731 1.865 1.883 2.874-1.917.314-.034 3.137-.262 1.375.924 2.632 1.777 3.464-.034 7.51 2.3 3.294.836 6.605 4.113 2.806 1.743 1.655 1.341 2.213 1.795 4.41 1.899 3.781.906 2.057.488 1.55.593.036-.088h.035l-.053.088 8.207 3.136 4.426 1.045 4.114 1.517 2.983 1.08 2.194.035 3.103-2.613 3.016-.175 2.492.628 2.438-.4 3.849-2.387.749-1.116 2.735-1.289 9.219-1.155 2.683.872 6.918-2.997 4.635 1.289 4.096-1.462 8.973 1.986 2.37 1.689 2.666 3.032.331.018 2.963.053-1.238 2.074 3.903 4.095 3.538 5.35.243.713 2.563 7.529 1.916 2.684 1.343 3.728.07 2.421-2.092 1.588-.332.904-.12.332.417 1.03.784-.437 1.499-.819 1.813-.279 3.206.332 2.107.226 3.347-1.655 2.213-1.116 3.555 1.533 3.903-.034 1.654.732 4.652 2.109 2.371.207.873-.577.557-1.327-.278-1.55-1.796-2.04-3.92-4.564-1.605-2.335-1.237-3.398-.367-4.322-.279-2.927.489-3.849 1.064-1.36.77-3.05h.018l.192-.802 2.196-2.893 5.773-3.711 6.202-5.56 4.897-3.24 5.054-2.179.138-.626.578.226 12.844-4.373.226-.018 5.715-.992 38.65 2.718 1.428-.436v-.018l1.29-3.607.697-.663.472-.434 4.233-1.883 1.987-.278 5.524 1.358 2.247.558 3.626-2.021 2.561.035 5.298-2.891 3.276.086 1.237-.505 6.379-4.583 6.151-1.76 1.587-.837.577-.313 6.283-3.33 4.008-3.068 3.449-1.849 3.783-.975 9.881-.696 2.003-3.311 4.252-.557 2.561-2.911 2.946-1.184 2.109-3.05 1.776-2.545 2.459-1.428 7.91-.488 9.375 1.167 1.238-.77 2.125-7.546 2.213-1.429 5.976-8.695.018-3.176v-2.649l.976-3.781-.662-6.813.784-6.884 3.712-8.765 3.272-3.538 5.281-3.573 2.683-1.166 3.781-.629.577-.105.963-.155 13.085-.174c.175-.139 4.74-.071 4.74-.071l4.375-.053 11.031 1.952.784.14 3.728 1.202 4.288 3.345 4.565 4.444.854.837 2.945 1.238.888.399 2.439-.399 3.469-1.796 2.614-2.213 3.573-1.952.087-.12 2.003-3.032.071-.054h.034v-.017h-.034l.801-1.203 6.901-2.683 8.103-.47.905-.488.505-.261 2.145-2.526 2.02-.019 4.862 1.761 3.399-.68 2.718 1.08 2.108-.243 3.974-.469 4.286 3.013 2.474.315 8.783 5.123.454.071.244.052.487.087 1.045-.315 1.551-.452.21-.053.193.262.992 1.411 1.377.192 1.621-2.16-.644-.976-.243-.349-3.137-.644-2.824-4.811 2.684-2.893-4.201-5.14-.696-.872-.245-.347-1.443-2.213-7.355-11.223-9.601-7.648-3.346-2.685-.035-.017-1.168-.923-5.123-5.21-3.656-4.862-.47-1.047-.751-1.636-2.193-4.775-3.816-2.945-3.122-3.397-.157-.207-6.411-8.731-1.058-1.444-1.516-.887-3.189-.018-.314-.314-.192-.192.122-.105 1.534-1.533 1.707-.435.75-1.673-3.271-9.461-.018-.332-.244-3.031 2.666-13.732.331-1.672 4.548-9.237 2.806-2.3 3.067-6.046 2.649-3.849 2.508-2.457.453-.261 4.549-2.753 3.816-.541 3.641-.505 6.361 1.951 6.048-.105 1.184-.141 2.736-.294 4.513-1.429 2.142-1.325 1.099-1.691 2.3-7.737.749-2.456 1.411-2.666 8.243-9.48 6.221-5.75 13.976-10.263 6.848-4.078 3.503-2.093 31.21-13.871 8.103-8.223 4.233-4.287 7.475-5.003 8.749-3.59 7.528-5.959 1.635-2.075 2.074-6.656 1.726-.417 1.551-3.38.452-.963 6.133-4.32.698-.35 23.855-11.954 3.464.47 1.865-2.79 6.954-1.155 1.271-.226 1.707-.854 1.444-2.475v-.487l.208-6.639 1.481-1.777.803-4.374.77-1.012.802-1.045 1.95-1.377-.331-.837.04.06z" fill="#F7F6F6" fill-opacity=".8"/></g><path d="M191 239v-19.278l16.192-9.901V239H191zm29.561-53v11.124l-.058 20.618-.058 21.258h-1.901v-22.481l-2.305-1.34-.058 23.821h-1.959v-24.986l-2.651-1.572-.057 26.558h-1.902v-27.723l-2.42-1.456v-15.609L220.561 186zM239 197.124L238.827 239h-1.901v-43.157l2.074 1.281z" fill="#EA9D3A"/><path d="M234.275 194.212L234.217 239h-1.959v-46.069l2.017 1.281z" fill="#A67154"/><path d="M229.665 191.3l-.115 47.7h-1.902v-48.981l2.017 1.281zm-4.091-2.563L225.459 239h-1.902v-51.544l2.017 1.281z" fill="#EA9D3A"/></svg>