<svg width="23" height="23" fill="none" xmlns="http://www.w3.org/2000/svg"><path d="M3.717 13.543v.916a4.57 4.57 0 002.429 4.043l-.596 2.374h1.834l.458-1.833h8.25l.458 1.833h1.834l-.596-2.374a4.572 4.572 0 002.429-4.043v-.916h.917v-1.834h-16.5V5.293a.917.917 0 01.916-.917c.459 0 .807.312.917.724a2.654 2.654 0 00-.917 2.026h5.5a2.75 2.75 0 00-2.75-2.75h-.156a2.753 2.753 0 00-4.538-1.028A2.75 2.75 0 002.8 5.293v8.25h.917zm1.833 0h12.834v.916a2.75 2.75 0 01-2.75 2.75H8.3a2.75 2.75 0 01-2.75-2.75v-.916z" fill="#C1C1C1"/></svg>