<svg width="28" height="28" fill="none" xmlns="http://www.w3.org/2000/svg"><mask id="a" style="mask-type:alpha" maskUnits="userSpaceOnUse" x="0" y="2" width="28" height="24"><path d="M2.917 20.861c1.125.623 9.27 5.317 15.062 1.699 5.791-3.618 5.471-9.852 5.471-12.71.525-1.099 1.634-1.658 1.634-4.633-1.089 1.006-2.17 1.348-3.247 1.027-1.053-1.606-2.503-2.317-4.349-2.132-2.768.278-3.781 2.994-3.483 6.509-4.269 2.158-7.616-1.565-9.342-4.377-.576 2.214-1.131 4.873 0 7.814.755 1.961 2.57 3.618 5.444 4.973-2.913 1.578-5.31 2.189-7.19 1.83z" fill="#fff" stroke="#fff" stroke-width="4" stroke-linejoin="round"/></mask><g mask="url(#a)"><path d="M0 0h28v28H0V0z" fill="gray" fill-opacity=".7"/></g></svg>