<svg width="106" height="90" fill="none" xmlns="http://www.w3.org/2000/svg"><path d="M47.647 18.53a18.53 18.53 0 10-18.53 18.529 18.551 18.551 0 0018.53-18.53zm-31.764 0a13.234 13.234 0 1113.235 13.235 13.253 13.253 0 01-13.235-13.236zm13.783 5.842a2.647 2.647 0 01-3.744 0l-3.97-3.97a2.65 2.65 0 011.2-4.403 2.65 2.65 0 012.543.659l2.1 2.099 6.069-6.07a2.651 2.651 0 013.767-.024 2.646 2.646 0 01-.024 3.768l-7.94 7.94zm13.245 30.194a2.644 2.644 0 01.464-3.714l11.911-9.265a2.65 2.65 0 013.251 0l3.669 2.853v-.763a2.647 2.647 0 115.294 0v4.881l2.949 2.294a2.626 2.626 0 01-2.949 4.342v4.365a5.298 5.298 0 01-5.294 5.294H51.618a5.297 5.297 0 01-5.294-5.294v-4.34a2.642 2.642 0 01-3.413-.653zm8.707 4.993h2.647v-1.323a2.647 2.647 0 115.294 0v1.323h2.647v-8.41l-5.294-4.118-5.294 4.117v8.411zm43.676-35.735v52.941a7.948 7.948 0 01-7.941 7.941H26.47a7.948 7.948 0 01-7.942-7.94V42.352a2.647 2.647 0 115.294 0v34.412a2.649 2.649 0 002.648 2.647h60.882A2.649 2.649 0 0090 76.765V37.06H48.97a2.647 2.647 0 110-5.294H90v-7.941a2.648 2.648 0 00-2.647-2.647H54.265a2.647 2.647 0 110-5.294h33.088a7.948 7.948 0 017.941 7.941zm-9.265 2.647a2.648 2.648 0 10-5.295 0 2.648 2.648 0 005.295 0zm-9.264 0a2.648 2.648 0 10-5.296 0 2.648 2.648 0 005.296 0zM38.382 68.824a2.647 2.647 0 100 5.294h7.942a2.647 2.647 0 100-5.294h-7.942zm26.47 2.647a2.648 2.648 0 002.648 2.647h7.941a2.647 2.647 0 100-5.294H67.5a2.648 2.648 0 00-2.647 2.647zm-10.587-2.647a2.647 2.647 0 100 5.294h5.294a2.647 2.647 0 100-5.294h-5.294zM30.177 56.383l5.294 3.97a2.647 2.647 0 103.176-4.235l-2.47-1.853 2.47-1.853a2.648 2.648 0 00-.548-4.552 2.647 2.647 0 00-2.628.317l-5.294 3.97a2.646 2.646 0 000 4.235zm44.47 3.441a2.649 2.649 0 003.706.529l5.294-3.97a2.648 2.648 0 000-4.236l-5.294-3.97a2.651 2.651 0 00-3.725.515 2.647 2.647 0 00.549 3.72l2.47 1.853-2.47 1.853a2.646 2.646 0 00-.53 3.706z" fill="#EA9D3A"/></svg>