<svg width="120" height="100" viewBox="0 0 120 100" fill="none" xmlns="http://www.w3.org/2000/svg">
<g clip-path="url(#clip0_16_3099)">
<path d="M58.0528 44.0188C58.311 45.0443 59.0936 45.8562 60.109 46.1522C61.1245 46.4484 62.2206 46.1842 62.9898 45.4582C63.7589 44.7321 64.0865 43.6534 63.8496 42.6226C63.3831 40.6687 62.2704 38.9292 60.692 37.6868C59.1135 36.4437 57.1617 35.7709 55.1533 35.7755H49.1915C46.8204 35.7782 44.5472 36.7218 42.8703 38.3982C41.1934 40.0752 40.2504 42.3484 40.2477 44.7193V67.0805H31.3039C30.5133 67.0791 29.756 66.765 29.1971 66.2061C28.6381 65.6471 28.324 64.8891 28.3227 64.0993V34.6614L50.7179 22.1195C51.6229 21.6178 52.723 21.6178 53.6273 22.1209L76.0208 34.6614V46.2098C76.0208 47.2752 76.5891 48.2594 77.5114 48.7917C78.4338 49.3241 79.5704 49.3241 80.4927 48.7917C81.415 48.2594 81.9833 47.2752 81.9833 46.2098V36.9791C82.2382 36.9997 82.4931 37.0284 82.7486 37.0284C85.3133 37.0197 87.7696 35.9962 89.5815 34.1815C91.3929 32.3669 92.4123 29.9086 92.4176 27.3445C92.4169 25.7548 91.993 24.1936 91.1892 22.8221C90.3853 21.4505 89.2307 20.318 87.8438 19.5399L56.5423 2.01183C53.8246 0.499242 50.5186 0.499242 47.8009 2.01117L34.284 9.58084V8.94267C34.284 5.74709 32.5791 2.79445 29.8122 1.19735C27.0452 -0.400419 23.6353 -0.400419 20.8684 1.19735C18.1014 2.79445 16.3965 5.74709 16.3965 8.94267V19.6079C13.6321 21.2037 11.928 24.1524 11.9246 27.3445C11.9233 30.0423 13.0492 32.6183 15.0309 34.4483C17.0133 36.279 19.6697 37.1973 22.359 36.981V64.0985C22.3617 66.4703 23.3046 68.7435 24.9817 70.4203C26.6579 72.0966 28.9319 73.0403 31.3028 73.0423H43.2278C44.0184 73.0423 44.777 72.7282 45.336 72.1693C45.895 71.6103 46.2091 70.8523 46.2091 70.0611V44.7204C46.2104 43.9298 46.5245 43.1725 47.0835 42.6135C47.6425 42.0546 48.3998 41.7405 49.1903 41.7391H55.1528C55.8223 41.7371 56.4724 41.9614 56.9988 42.3746C57.5245 42.7886 57.8959 43.3675 58.0516 44.019L58.0528 44.0188ZM25.3407 5.96262C26.1313 5.96395 26.8886 6.27805 27.4475 6.83703C28.0065 7.39601 28.3206 8.15332 28.3219 8.94385V12.9214L22.3594 16.2607V8.94402C22.3607 8.15345 22.6748 7.39616 23.2338 6.8372C23.7928 6.27824 24.5501 5.96412 25.3406 5.96279L25.3407 5.96262ZM19.7209 30.5452C19.1586 30.2232 18.6921 29.7573 18.3701 29.195C18.048 28.6327 17.8809 27.9952 17.8876 27.347C17.8876 26.8166 18.0287 26.2962 18.2969 25.839C18.565 25.3819 18.9503 25.0039 19.4128 24.745L50.7178 7.21351C51.6228 6.71175 52.7229 6.71175 53.6272 7.21484L84.9321 24.7446C85.3939 25.0042 85.7786 25.3815 86.0467 25.8387C86.3143 26.2958 86.456 26.8162 86.456 27.3459C86.456 28.6616 85.7586 29.8787 84.6233 30.5441C83.488 31.2095 82.0853 31.2235 80.9373 30.5807L56.5437 16.92C53.8267 15.4074 50.52 15.4068 47.8023 16.9187L23.4071 30.5812C22.8448 30.9026 22.2073 31.069 21.5597 31.0623C20.9116 31.0557 20.2774 30.8773 19.7217 30.5446L19.7209 30.5452ZM107.179 85.6679C106.831 84.1127 105.869 82.7645 104.511 81.9294L96.8767 77.1887C95.75 76.4979 94.4291 76.1952 93.1141 76.3269C91.7999 76.4587 90.5647 77.0183 89.5985 77.9194L85.3535 75.2834C86.7915 71.9136 87.129 68.1763 86.3184 64.6035C85.2743 59.95 82.3915 55.9173 78.3269 53.4218C74.2837 50.919 69.4223 50.0959 64.7801 51.1286C60.1385 52.1607 56.0845 54.9669 53.4833 58.9477C50.9206 62.9025 50.0661 67.7245 51.113 72.3187C52.1577 76.9715 55.0392 81.0049 59.1031 83.5005C62.7119 85.7364 66.9888 86.6402 71.1939 86.0558C75.399 85.4709 79.2673 83.4352 82.1293 80.2996L86.3956 82.9482C86.0708 83.9404 86.0176 85.0011 86.2412 86.0206C86.5899 87.5757 87.5521 88.924 88.9097 89.7591L96.5444 94.5005C97.8853 95.329 99.4964 95.5998 101.035 95.2558C102.573 94.9117 103.915 93.9794 104.775 92.6585L106.383 90.1576L106.385 90.1563C107.244 88.8287 107.531 87.2096 107.179 85.6677L107.179 85.6679ZM62.2491 78.4343C59.5467 76.7787 57.6281 74.0996 56.93 71.0071C56.2392 67.9713 56.8049 64.7844 58.4991 62.1725C60.2506 59.504 62.9749 57.6255 66.092 56.9374C69.2083 56.2487 72.4703 56.8057 75.1828 58.4879C77.8858 60.1443 79.8044 62.8227 80.5019 65.9152C81.1933 68.9517 80.627 72.1379 78.9327 74.7505C77.1831 77.421 74.4588 79.3016 71.3412 79.9896C68.2235 80.6784 64.9608 80.1201 62.2491 78.4345V78.4343ZM99.6886 89.4343L92.0525 84.7555L93.7328 82.2539L101.339 86.978L99.6886 89.4343Z" fill="#EA9D3A"/>
</g>
<defs>
<clipPath id="clip0_16_3099">
<rect width="119.25" height="100" fill="white"/>
</clipPath>
</defs>
</svg>
