<svg width="116" height="100" viewBox="0 0 116 100" fill="none" xmlns="http://www.w3.org/2000/svg">
<path d="M101.381 64.9519C101.207 62.6832 100.108 60.5859 98.3419 59.1514C96.6197 57.7519 94.4207 57.0761 92.2096 57.2662C89.999 57.4569 87.9483 58.4988 86.4906 60.1726L76.4546 71.8486C76.3828 69.6057 75.4393 67.4792 73.8243 65.9213C72.2094 64.3633 70.05 63.4966 67.8064 63.5057H59.5419C56.0689 60.8289 50.6662 59.2574 44.7939 59.2574C40.2992 59.1474 35.8508 60.1874 31.8702 62.2783V60.8438C31.8702 60.0755 31.5649 59.3382 31.0217 58.795C30.4784 58.2517 29.7411 57.9464 28.9728 57.9464H17.3834C16.6151 57.9464 15.8778 58.2517 15.3346 58.795C14.7913 59.3382 14.4861 60.0755 14.4861 60.8438V89.8173C14.4861 90.5856 14.7913 91.3229 15.3346 91.8661C15.8778 92.4094 16.6151 92.7147 17.3834 92.7147H28.9728C29.7411 92.7147 30.4784 92.4094 31.0217 91.8661C31.5649 91.3229 31.8702 90.5856 31.8702 89.8173V86.2933H36.4412C39.6646 86.2888 42.8561 86.9342 45.8247 88.1895C49.5071 89.7468 53.4646 90.5461 57.4619 90.5416H75.5298C79.6637 90.5462 83.6023 88.7852 86.3548 85.7003L99.2965 71.1385C100.811 69.4499 101.564 67.2128 101.381 64.9519L101.381 64.9519ZM26.0761 86.9205H20.2814V63.7417H26.0761V86.9205ZM94.9652 67.2897L82.0242 81.8514C80.3718 83.6998 78.0086 84.7533 75.5303 84.7475H57.4624C54.2384 84.7513 51.0468 84.1065 48.0776 82.8513C44.3959 81.2939 40.4384 80.494 36.4417 80.4991H31.8707V70.6519C31.8707 68.3683 36.9055 65.0526 44.7944 65.0526C49.6397 65.0526 54.2399 66.4172 56.5164 68.5281V68.5274C57.0525 69.0248 57.7562 69.3009 58.4869 69.3009H67.8069C68.552 69.2899 69.2711 69.5751 69.8066 70.0938C70.3421 70.6125 70.65 71.3226 70.6629 72.0677V73.4187H54.8626C53.8271 73.4187 52.8707 73.971 52.3533 74.8674C51.8359 75.7637 51.8359 76.8684 52.3533 77.7647C52.8707 78.6611 53.8272 79.2134 54.8626 79.2134H76.4371C77.2817 79.2134 78.0836 78.8454 78.6341 78.2045L90.8851 63.9505H90.8857C91.3514 63.4176 92.0059 63.0865 92.7114 63.027C93.417 62.9675 94.118 63.1841 94.6665 63.6317C95.2098 64.0702 95.548 64.7124 95.603 65.4082C95.6579 66.0963 95.4277 66.7766 94.9653 67.2895L94.9652 67.2897ZM67.2384 37.0662C67.7816 37.6101 68.0869 38.3467 68.0869 39.115C68.0869 39.8833 67.7816 40.6199 67.2384 41.1638L58.5463 49.8559C58.0031 50.3991 57.2665 50.7044 56.4975 50.7044C55.7292 50.7044 54.9926 50.3991 54.4493 49.8559L50.1033 45.5099C49.3887 44.7745 49.1151 43.7158 49.3854 42.7269C49.6551 41.7374 50.428 40.9645 51.4174 40.6943C52.4069 40.4246 53.4649 40.6975 54.2003 41.4122L56.4982 43.7094L63.1414 37.0661C63.6846 36.5229 64.4219 36.2176 65.1902 36.2176C65.9586 36.2176 66.6952 36.5229 67.2384 37.0661L67.2384 37.0662ZM23.4785 34.6835C25.1361 35.6588 27.0555 36.098 28.9732 35.9395V50.7044C28.9732 51.7398 29.5255 52.6963 30.4218 53.2137C31.3182 53.731 32.4228 53.731 33.3192 53.2137C34.2156 52.6963 34.7679 51.7398 34.7679 50.7044V33.6862L56.5311 21.4986C57.4107 21.009 58.4809 21.009 59.3606 21.4986L81.1255 33.6862V52.1531C81.1255 53.1885 81.6778 54.145 82.5742 54.6623C83.4705 55.1797 84.5752 55.1797 85.4715 54.6623C86.3679 54.145 86.9202 53.1884 86.9202 52.1531V35.9388C87.1685 35.9589 87.4169 35.9867 87.6659 35.9867C90.1571 35.9776 92.5442 34.9823 94.3046 33.2193C96.0644 31.4557 97.0558 29.068 97.0609 26.5761C97.057 23.4738 95.4008 20.6087 92.7149 19.0566V8.69265C92.7149 5.58702 91.0579 2.71748 88.3689 1.16533C85.6798 -0.387467 82.3659 -0.387467 79.6768 1.16533C76.9877 2.71748 75.3308 5.58702 75.3308 8.69265V9.31222L62.193 1.95493C59.5518 0.488145 56.3407 0.488145 53.6995 1.95493L23.2773 18.9914C21.9295 19.7474 20.8074 20.8481 20.0261 22.1818C19.2455 23.5147 18.8329 25.0313 18.8323 26.5763C18.8232 28.2171 19.2488 29.8313 20.0643 31.2548C20.8805 32.6789 22.0582 33.8617 23.4784 34.6837L23.4785 34.6835ZM81.1258 8.69348C81.1258 7.65807 81.6781 6.7016 82.5745 6.18421C83.4709 5.66683 84.5755 5.66683 85.4718 6.18421C86.3682 6.7016 86.9205 7.6581 86.9205 8.69348V15.8029L81.1258 12.5576V8.69348ZM26.1093 24.0494L56.5314 7.01302C57.4116 6.5241 58.4813 6.5241 59.3609 7.01302L89.7831 24.0494C90.2326 24.301 90.607 24.6677 90.8677 25.112C91.1283 25.5563 91.2661 26.0621 91.2661 26.5769C91.2661 27.8555 90.5883 29.0383 89.4849 29.685C88.3816 30.3317 87.0184 30.3447 85.9026 29.7199L62.1924 16.4426C59.5511 14.9758 56.3401 14.9758 53.6988 16.4426L29.9902 29.7199C28.8746 30.3446 27.5112 30.3317 26.4079 29.685C25.3046 29.0383 24.6268 27.8554 24.6268 26.5769C24.6268 26.0621 24.7646 25.5563 25.0252 25.112C25.2858 24.6677 25.6596 24.301 26.1091 24.0494H26.1093Z" fill="#EA9D3A"/>
</svg>
