<svg width="120" height="100" viewBox="0 0 120 100" fill="none" xmlns="http://www.w3.org/2000/svg">
<path d="M24.155 37.1772C25.8613 38.18 27.8356 38.6319 29.8088 38.4688V43.2276C29.8088 44.293 30.3771 45.2772 31.2995 45.8096C32.2218 46.3419 33.3584 46.3419 34.2807 45.8096C35.2031 45.2772 35.7714 44.293 35.7714 43.2276V36.1504L58.1666 23.6099C59.0716 23.1061 60.1729 23.1061 61.078 23.6099L83.4749 36.1504V52.1714C83.4749 53.2368 84.0432 54.221 84.9656 54.7533C85.8879 55.2857 87.0245 55.2857 87.9468 54.7533C88.8691 54.221 89.4375 53.2368 89.4375 52.1714V38.4688C89.693 38.4895 89.9485 38.5181 90.2047 38.5181C92.7681 38.5088 95.2243 37.4846 97.0357 35.6705C98.8465 33.8559 99.8666 31.399 99.8719 28.8349C99.8679 25.6428 98.1637 22.6947 95.4 21.0976V10.4336C95.4 7.23801 93.695 4.28537 90.9281 2.68758C88.1604 1.08982 84.7506 1.08982 81.9836 2.68758C79.216 4.28535 77.511 7.23801 77.511 10.4336V11.0711L63.9928 3.50074C61.2751 1.99147 57.9703 1.99147 55.2526 3.50074L23.9477 21.0305C22.5609 21.8085 21.4063 22.9411 20.6023 24.3127C19.7985 25.6842 19.3746 27.2447 19.3733 28.8345C19.3646 30.5227 19.8018 32.1837 20.6416 33.6491C21.4808 35.1138 22.6926 36.3309 24.1546 37.1767L24.155 37.1772ZM83.4753 10.4344C83.4753 9.36902 84.0436 8.38485 84.9659 7.85248C85.8882 7.32011 87.0248 7.32011 87.9472 7.85248C88.8695 8.38485 89.4378 9.36906 89.4378 10.4344V17.7498L83.4753 14.4104V10.4344ZM26.862 26.2351L58.1669 8.70529H58.1676C59.0726 8.20221 60.1732 8.20221 61.079 8.70529L92.3839 26.2351C92.8464 26.494 93.2318 26.8713 93.4999 27.3285C93.7681 27.7856 93.9098 28.306 93.9098 28.8357C93.9098 30.1514 93.2124 31.3691 92.0771 32.0339C90.9419 32.6993 89.5391 32.7126 88.3911 32.0698L63.9942 18.408C61.2765 16.8987 57.9717 16.8987 55.254 18.408L30.857 32.0698C29.7091 32.7126 28.3063 32.6993 27.171 32.0339C26.0357 31.3684 25.3383 30.1512 25.3383 28.8357C25.3383 28.306 25.48 27.7856 25.7482 27.3285C26.0164 26.8713 26.401 26.494 26.8635 26.2351H26.862ZM106.608 71.1005L99.4485 62.7491C97.7509 60.7653 95.2695 59.6233 92.6576 59.6254H52.155C49.7739 56.4278 46.5772 53.9297 42.8998 52.3918C39.2218 50.8533 35.1984 50.3322 31.2502 50.8826C23.6927 51.9174 17.1838 56.7327 13.9828 63.6567C10.7826 70.5814 11.3329 78.6587 15.4421 85.086C19.552 91.5124 26.6537 95.4006 34.282 95.4006C41.3173 95.4113 47.9438 92.0947 52.1525 86.4568H59.9995C62.0232 86.4615 63.9104 85.434 65.0058 83.7318L67.0781 80.5282L69.1503 83.7311H69.1496C70.2443 85.4334 72.1309 86.4608 74.1553 86.4568H76.3972C78.4215 86.4615 80.3088 85.434 81.4035 83.7318L83.4757 80.5282L85.5479 83.7311C86.6426 85.4334 88.5292 86.4608 90.5529 86.4568H92.6576C95.2696 86.4582 97.7505 85.3176 99.4493 83.3338L106.609 74.9817H106.608C107.071 74.4414 107.326 73.7526 107.326 73.0412C107.326 72.3297 107.071 71.641 106.608 71.1006L106.608 71.1005ZM94.9213 79.4533H94.9219C94.3556 80.1141 93.5278 80.4948 92.6574 80.4941H90.5538L88.4816 77.2899C87.3822 75.5916 85.4969 74.5662 83.4739 74.5662C81.4509 74.5668 79.5657 75.5923 78.4662 77.2905L76.3967 80.4941H74.1562L72.084 77.2899C70.9846 75.5916 69.0993 74.5662 67.0763 74.5662C65.0526 74.5668 63.1681 75.5923 62.0686 77.2905L59.9991 80.4941H50.5949C49.5794 80.4941 48.633 81.0105 48.0848 81.8656C45.0729 86.5752 39.869 89.4253 34.2785 89.4266C28.688 89.4279 23.4828 86.5805 20.4683 81.8723C17.4538 77.1641 17.0465 71.2448 19.3876 66.168C21.7279 61.0912 26.4947 57.5576 32.0327 56.7931C32.7754 56.6939 33.5233 56.6447 34.2726 56.644C39.8717 56.628 45.0876 59.4874 48.0848 64.2162C48.6332 65.0713 49.5795 65.5877 50.5949 65.5877H92.6579C93.529 65.5871 94.3562 65.9677 94.9218 66.6292L100.419 73.0409L94.9213 79.4533ZM34.2824 64.0971C31.91 64.0971 29.6349 65.0394 27.9579 66.7164C26.2809 68.394 25.3387 70.6685 25.3387 73.0409C25.3387 75.4133 26.2809 77.6877 27.9579 79.3654C29.6349 81.0424 31.91 81.9847 34.2824 81.9847C36.6542 81.9847 38.9293 81.0424 40.6063 79.3654C42.2839 77.6878 43.2262 75.4133 43.2262 73.0409C43.2236 70.6699 42.2799 68.3966 40.6036 66.7198C38.9266 65.0428 36.6533 64.0998 34.2824 64.0971ZM34.2824 76.0222C33.4912 76.0222 32.7332 75.7081 32.1743 75.1491C31.6153 74.5901 31.3012 73.8315 31.3012 73.0409C31.3012 72.2503 31.6153 71.4917 32.1743 70.9327C32.7332 70.3737 33.4912 70.0596 34.2824 70.0596C35.073 70.0596 35.831 70.3737 36.3899 70.9327C36.9496 71.4917 37.2637 72.2503 37.2637 73.0409C37.2623 73.8315 36.9482 74.5888 36.3893 75.1477C35.8303 75.7067 35.0723 76.0215 34.2825 76.0221L34.2824 76.0222Z" fill="#EA9D3A"/>
</svg>
