<svg width="843" height="449" viewBox="0 0 843 449" fill="none" xmlns="http://www.w3.org/2000/svg">
<mask id="mask0_16_3121" style="mask-type:alpha" maskUnits="userSpaceOnUse" x="0" y="0" width="843" height="449">
<path d="M843 0H0V448.94H843V0Z" fill="#EBEBEB"/>
</mask>
<g mask="url(#mask0_16_3121)">
<path d="M805.513 23.4476L802.094 24.816L800.759 25.337L796.62 25.1085L792.743 26.9834L785.866 31.6761L785.572 31.8875L782.998 32.5551L780.619 31.5277L779.269 32.1476L778.813 34.9365L777.527 36.9401L775.948 38.0476L770.46 38.6018L765.833 40.9968L759.82 39.3846L757.017 40.4759L751.071 45.8353L748.039 47.2703L746.982 47.2046L742.955 46.9931L741.246 47.5635L738.704 50.008L733.898 50.3831L732.399 51.4268L730.053 56.151L727.512 58.7745L726.06 59.0848L724.497 58.4974L723.306 58.7088L722.767 61.7389L721.609 62.9985L718.4 64.106L715.826 66.258L713.576 67.4141L710.546 67.3322H709.862L706.847 68.9939L701.193 69.4996L698.83 71.7488L698.308 72.222L697.218 72.8896L695.425 73.9692L694.985 74.2292L692.802 73.8387L690.277 74.8481L689.25 73.2692L687.491 74.3272L685.177 74.4253L682.276 73.1379L680.062 72.1482L678.448 72.392L677.893 75.1954L677.829 75.5049L676.134 77.7541L672.973 79.6776L672.533 80.2309L668.934 84.8913L662.091 92.0887L656.29 95.0217L650.296 96.8471L646.091 100.301L635.06 105.759L617.675 114.428L614.122 115.568L609.007 116.383L599.914 119.739L591.882 122.152L591.426 122.297L589.829 122.77L578.505 126.208L573.243 125.637L570.113 126.778L561.982 125.878L556.33 125.992L552.76 126.726L546.031 129.952L534.695 135.411L530.948 138.83L525.1 141.878L518.274 144.043L518.289 141.176L518.24 141.047L515.861 141.796L514.152 142.351L508.613 143.198H505.533L503.61 142.644L503.317 142.742L491.981 146.473L479.336 147.695L473.015 149.715L468.289 149.648L465.34 150.529L459.54 151.23L457.471 150.675L456.999 150.546L439.955 151.295L432.166 150.415L428.452 151.262L422.212 149.16L413.136 148.101L411.002 147.467L406.21 146.049L404.06 147.308L402.43 147.47L398.57 146.069L397.185 146.035L393.991 147.192L392.151 146.72L390.441 145.37L386.449 144.769L384.006 142.714L370.367 144.522L366.669 143.449L354.27 139.83L352.297 139.928L349.837 141.77L346.138 143.119L342.928 143.951L338.562 144.096L333.495 142.76L328.264 140.218L326.325 139.763L322.006 140.203L320.686 140.317L312.769 136.065L302.553 129.694L295.626 126.352L293.017 125.929L292.674 127.167L293.96 131.225L294.401 135.25L294.271 138.965L294.19 141.262L294.841 143.331L297.349 146.101L298.393 148.89L299.143 156.564V164.337L297.92 176.737L297.489 178.6L296.038 185.036L294.718 190.935L289.571 206.643L288.152 208.581L284.697 210.961L276.828 216.304L271.044 219.626L269.219 220.392L264.527 220.752L261.594 220.605L257.944 218.633L254.375 217.706L249.683 214.332L244.465 213.252L238.746 209.945L237.263 208.169L234.151 207.876L229.833 206.571L228.252 206.099L227.161 205.773L221.638 205.626L216.505 203.264L213.816 202.613L210.117 202.416L206.257 204.225L204.285 205.138L201.808 204.148L200.033 204.262L197.997 207.321L197.751 207.794L196.351 208.543L194.606 208.51L193.239 208.479L191.773 209.114L189.785 209.977L188.041 210.743L187.178 211.119L187.161 211.102L186.639 211.2L185.712 211.363L184.554 211.591L182.501 210.4L181.41 209.749L179.586 209.375L178.609 210.094L178.412 213.434L177.512 215.423L174.677 217.948L171.776 220.489L169.772 223.458L164.45 235.625L161.11 240.53L160.066 241.67L156.558 245.532L153.463 247.928L146.325 253.467L139.565 255.991L133.747 257.183H130.929L125.552 256.481L120.745 254.997L115.45 251.69L109.65 247.012L101.242 238.717L100.052 237.997L99.8077 237.834L97.1681 236.139L95.1959 236.189L94.4303 237.459L94.0075 239.3L93.6476 240.913L92.6867 250.153L92.7677 250.692L93.2742 254.489L99.6449 263.401L101.616 268.143L101.943 268.683L103.262 270.899L104.257 272.578L104.355 272.758L106.538 279.26L105.009 282.941L105.774 285.403L103.851 286.902L103.491 289.036L109.208 296.222L110.469 299.382L109.068 303.782L106.852 306.193L106.217 306.862L106.543 308.72L109.165 311.082L113.647 315.073L116.043 321.005L117.852 322.603L119.969 322.145L121.138 323.045L122.914 323.012L124.674 324.772L125.799 325.312L127.591 326.211L129.009 328.052L129.334 333.739L131.975 340.779L132.006 344.608L132.023 345.148L133.669 347.965L134.19 350.198L133.311 356.096L135.413 357.985L137.677 357.528L139.16 357.757L141.506 359.729L144.357 364.079L147.161 363.672L148.936 364.519L157.491 372.256L159.43 373.234L159.528 373.299L160.93 373.983L162.674 375.743L165.361 373.951L165.654 373.919L168.587 373.674L169.873 374.538L172.335 376.2L175.573 376.168L182.596 378.318L185.676 379.1L191.851 382.946L194.476 384.576L196.023 385.83L198.092 387.508L202.216 389.284L205.751 390.131L207.674 390.587L209.123 391.141L209.157 391.06H209.19L209.14 391.141L216.815 394.074L220.953 395.051L224.799 396.469L227.588 397.48L229.641 397.512L232.542 395.069L235.362 394.906L237.692 395.492L239.972 395.119L243.57 392.887L244.271 391.843L246.828 390.638L255.449 389.558L257.957 390.373L264.426 387.571L268.759 388.776L272.589 387.409L280.98 389.266L283.196 390.845L285.689 393.68L285.998 393.697L288.768 393.747L287.611 395.686L291.26 399.515L294.569 404.518L294.796 405.184L297.192 412.224L298.984 414.734L300.239 418.22L300.305 420.484L298.349 421.968L298.039 422.814L297.926 423.124L298.316 424.087L299.049 423.678L300.451 422.913L302.146 422.652L305.143 422.962L307.114 423.174L310.244 421.626L312.313 420.583L315.637 422.016L319.286 421.984L320.833 422.668L325.183 424.64L327.4 424.834L328.216 424.295L328.737 423.054L328.477 421.605L326.798 419.697L323.133 415.429L321.632 413.246L320.475 410.069L320.132 406.027L319.871 403.291L320.328 399.692L321.323 398.42L322.043 395.568H322.059L322.239 394.818L324.292 392.113L329.69 388.643L335.49 383.445L340.069 380.415L344.794 378.378L344.924 377.792L345.463 378.003L357.473 373.914L357.685 373.897L363.029 372.97L399.168 375.511L400.503 375.104V375.087L401.71 371.715L402.361 371.095L402.802 370.689L406.76 368.928L408.618 368.668L413.783 369.938L415.884 370.46L419.275 368.57L421.67 368.603L426.624 365.899L429.687 365.98L430.843 365.508L436.808 361.223L442.56 359.576L444.043 358.794L444.583 358.501L450.458 355.387L454.205 352.519L457.43 350.79L460.967 349.878L470.207 349.228L472.079 346.131L476.056 345.61L478.45 342.889L481.204 341.781L483.177 338.93L484.837 336.551L487.136 335.215L494.532 334.758L503.299 335.85L504.456 335.13L506.443 328.074L508.512 326.738L514.1 318.607L514.117 315.638V313.162L515.03 309.626L514.411 303.255L515.144 296.819L518.615 288.623L521.674 285.315L526.612 281.974L529.12 280.884L532.656 280.295L533.196 280.197L534.096 280.053L546.331 279.89C546.495 279.76 550.763 279.823 550.763 279.823L554.854 279.774L565.168 281.599L565.901 281.73L569.387 282.854L573.396 285.981L577.665 290.137L578.463 290.92L581.217 292.077L582.048 292.45L584.328 292.077L587.572 290.398L590.016 288.329L593.357 286.503L593.439 286.391L595.312 283.556L595.377 283.506H595.41V283.489H595.377L596.127 282.365L602.579 279.856L610.156 279.416L611.002 278.96L611.474 278.717L613.48 276.354L615.369 276.337L619.915 277.983L623.093 277.347L625.635 278.358L627.606 278.13L631.321 277.691L635.329 280.509L637.643 280.803L645.855 285.594L646.28 285.659L646.507 285.708L646.963 285.79L647.94 285.496L649.391 285.073L649.587 285.023L649.767 285.268L650.694 286.587L651.983 286.767L653.498 284.747L652.896 283.835L652.668 283.508L649.735 282.906L647.095 278.408L649.605 275.703L645.677 270.896L645.025 270.081L644.797 269.757L643.447 267.687L636.57 257.193L627.592 250.042L624.464 247.532L624.432 247.516L623.339 246.653L618.549 241.781L615.13 237.235L614.691 236.256L613.989 234.727L611.938 230.262L608.37 227.508L605.451 224.332L605.304 224.137L599.31 215.974L598.32 214.624L596.902 213.795L593.921 213.778L593.628 213.484L593.448 213.304L593.562 213.206L594.996 211.773L596.592 211.366L597.294 209.802L594.235 200.955L594.218 200.645L593.99 197.811L596.483 184.971L596.793 183.407L601.045 174.77L603.669 172.62L606.536 166.966L609.013 163.368L611.358 161.07L611.782 160.826L616.036 158.252L619.604 157.746L623.008 157.274L628.956 159.099L634.611 159L635.718 158.868L638.277 158.593L642.496 157.257L644.499 156.018L645.526 154.437L647.678 147.203L648.378 144.906L649.697 142.413L657.405 133.55L663.221 128.173L676.289 118.576L682.692 114.763L685.968 112.807L715.151 99.8368L722.727 92.1472L726.686 88.1391L733.675 83.4608L741.855 80.1041L748.894 74.5324L750.424 72.5917L752.363 66.3687L753.977 65.9782L755.427 62.8176L755.85 61.918L761.584 57.8775L762.237 57.5509L784.542 46.3733L787.781 46.8132L789.525 44.2042L796.027 43.1245L797.215 42.9131L798.812 42.1142L800.162 39.8002V39.345L800.356 33.1372L801.741 31.4755L802.492 27.3855L803.212 26.4391L803.962 25.462L805.786 24.1746L805.476 23.3918L805.513 23.4476Z" fill="#F7F6F6"/>
</g>
</svg>
