<svg width="70" height="70" viewBox="0 0 70 70" fill="none" xmlns="http://www.w3.org/2000/svg">
<path d="M41.6585 10.2113L18.9872 33.4688C18.5891 33.8773 18.3662 34.4252 18.3662 34.9957C18.3662 35.5662 18.5891 36.1141 18.9872 36.5226L41.6585 59.7888C41.844 59.9793 42.0657 60.1307 42.3107 60.2341C42.5557 60.3375 42.8189 60.3908 43.0847 60.3908C43.3506 60.3908 43.6138 60.3375 43.8588 60.2341C44.1037 60.1307 44.3255 59.9793 44.511 59.7888C44.8926 59.3981 45.1062 58.8737 45.1062 58.3276C45.1062 57.7815 44.8926 57.257 44.511 56.8663L23.1916 34.9957L44.511 13.1295C44.8913 12.739 45.1041 12.2155 45.1041 11.6704C45.1041 11.1253 44.8913 10.6018 44.511 10.2113C44.3255 10.0208 44.1037 9.86942 43.8588 9.76603C43.6138 9.66264 43.3506 9.60938 43.0847 9.60938C42.8189 9.60938 42.5557 9.66264 42.3107 9.76603C42.0657 9.86942 41.844 10.0208 41.6585 10.2113V10.2113Z" fill="white"/>
</svg>
