<svg width="107" height="90" viewBox="0 0 107 90" fill="none" xmlns="http://www.w3.org/2000/svg">
<path d="M90.9608 43.0139L86.7575 41.5302V36.0387C86.7575 35.0847 86.2487 34.2034 85.4228 33.7267C84.5969 33.25 83.5792 33.25 82.7533 33.7267C81.9274 34.2034 81.4186 35.0847 81.4186 36.0387V39.646L73.3047 36.7817C71.6452 36.1983 69.8362 36.1983 68.1767 36.7817L50.5199 43.0128C48.2145 43.8255 46.4316 45.6841 45.7154 48.021C44.9986 50.358 45.4341 52.8964 46.8887 54.8616C48.3432 56.8262 50.6432 57.9846 53.0882 57.9822C53.1883 57.9822 53.2884 57.9607 53.3885 57.9566V68.0726C53.3909 70.1957 54.2352 72.2318 55.7369 73.7327C57.2379 75.2343 59.274 76.0786 61.3969 76.081H80.0834C82.2065 76.0787 84.2426 75.2343 85.7435 73.7327C87.2451 72.2317 88.0894 70.1955 88.0919 68.0726V57.9625C90.5682 58.0632 92.941 56.9656 94.4677 55.013C95.9937 53.0609 96.4864 50.4927 95.7911 48.1139C95.0958 45.7352 93.298 43.8368 90.9604 43.0138L90.9608 43.0139ZM80.0838 70.7415H61.3974C60.6895 70.7409 60.0108 70.4591 59.5103 69.9592C59.0103 69.4586 58.7285 68.7799 58.7279 68.0721V56.4563L69.9529 52.4949V52.4943C70.463 52.3149 71.0183 52.3149 71.5283 52.4943L82.7533 56.4557V68.0721C82.7527 68.78 82.4709 69.4587 81.971 69.9592C81.4704 70.4591 80.7917 70.741 80.0838 70.7416L80.0838 70.7415ZM89.7625 52.2092C89.138 52.6573 88.333 52.7693 87.6096 52.5089L73.3047 47.4594C71.6452 46.8761 69.8362 46.8761 68.1767 47.4594L53.8717 52.5093C53.1483 52.7644 52.3451 52.6529 51.7189 52.2096C51.092 51.7663 50.7196 51.0465 50.7196 50.2784C50.7202 49.7892 50.8721 49.3125 51.1546 48.9127C51.437 48.5135 51.8363 48.2114 52.2975 48.0481L69.9527 41.8164C70.4628 41.6371 71.0181 41.6371 71.5282 41.8164L89.1834 48.0486C89.6446 48.2118 90.0439 48.5139 90.3263 48.9132C90.6087 49.3124 90.7607 49.7891 90.7613 50.2783C90.7661 51.047 90.3924 51.7692 89.762 52.2089L89.7625 52.2092ZM22.6896 20.0212C22.6896 19.3133 22.9708 18.634 23.4714 18.1335C23.9719 17.633 24.6512 17.3517 25.3591 17.3517H40.0413C40.9953 17.3517 41.8765 17.8606 42.3532 18.6865C42.8299 19.5123 42.8299 20.5301 42.3532 21.3559C41.8765 22.1818 40.9952 22.6907 40.0413 22.6907H25.3591C24.6512 22.6907 23.9719 22.4094 23.4714 21.9089C22.9708 21.4084 22.6896 20.7291 22.6896 20.0212ZM25.3591 34.7034H40.0413C40.9953 34.7034 41.8765 34.1945 42.3532 33.3687C42.8299 32.5428 42.8299 31.525 42.3532 30.6992C41.8765 29.8733 40.9952 29.3644 40.0413 29.3644H25.3591C24.4051 29.3644 23.5238 29.8733 23.0472 30.6992C22.5705 31.525 22.5705 32.5428 23.0472 33.3687C23.5238 34.1945 24.4051 34.7034 25.3591 34.7034ZM61.3972 32.0339C61.3972 31.326 61.116 30.6467 60.6154 30.1462C60.1149 29.6457 59.4356 29.3644 58.7277 29.3644H48.0498C47.0958 29.3644 46.2145 29.8733 45.7378 30.6992C45.2611 31.525 45.2611 32.5428 45.7378 33.3687C46.2145 34.1945 47.0958 34.7034 48.0498 34.7034H58.7277C59.4356 34.7034 60.1149 34.4221 60.6154 33.9216C61.116 33.4211 61.3972 32.7418 61.3972 32.0339ZM40.0413 41.3771H37.3718C36.4178 41.3771 35.5366 41.886 35.0599 42.7119C34.5832 43.5378 34.5832 44.5555 35.0599 45.3814C35.5366 46.2072 36.4178 46.7161 37.3718 46.7161H40.0413C40.9953 46.7161 41.8765 46.2072 42.3532 45.3814C42.8299 44.5555 42.8299 43.5377 42.3532 42.7119C41.8765 41.886 40.9952 41.3771 40.0413 41.3771ZM25.3591 46.7161H29.3633C30.3173 46.7161 31.1986 46.2072 31.6753 45.3814C32.1519 44.5555 32.1519 43.5377 31.6753 42.7119C31.1986 41.886 30.3173 41.3771 29.3633 41.3771H25.3591C24.4051 41.3771 23.5238 41.886 23.0472 42.7119C22.5705 43.5378 22.5705 44.5555 23.0472 45.3814C23.5238 46.2072 24.4051 46.7161 25.3591 46.7161ZM42.7108 56.0593C42.7108 55.3514 42.4295 54.6721 41.929 54.1716C41.4285 53.6711 40.7492 53.3898 40.0413 53.3898H25.3591C24.4051 53.3898 23.5238 53.8987 23.0472 54.7246C22.5705 55.5505 22.5705 56.5682 23.0472 57.3941C23.5238 58.2199 24.4051 58.7288 25.3591 58.7288H40.0413C40.7492 58.7288 41.4285 58.4476 41.929 57.947C42.4295 57.4465 42.7108 56.7672 42.7108 56.0593ZM38.7065 70.7415H46.715C47.669 70.7415 48.5503 70.2327 49.027 69.4068C49.5036 68.5809 49.5036 67.5632 49.027 66.7373C48.5503 65.9114 47.669 65.4026 46.715 65.4026H38.7065C37.7526 65.4026 36.8713 65.9114 36.3946 66.7373C35.9179 67.5632 35.9179 68.5809 36.3946 69.4068C36.8713 70.2327 37.7526 70.7415 38.7065 70.7415ZM25.3591 65.4026C24.4051 65.4026 23.5238 65.9114 23.0472 66.7373C22.5705 67.5632 22.5705 68.5809 23.0472 69.4068C23.5238 70.2327 24.4051 70.7415 25.3591 70.7415H30.6981C31.6521 70.7415 32.5333 70.2327 33.01 69.4068C33.4867 68.5809 33.4867 67.5632 33.01 66.7373C32.5333 65.9114 31.652 65.4026 30.6981 65.4026H25.3591ZM74.7447 24.0254V30.6992C74.7447 31.6532 74.2358 32.5344 73.4099 33.0111C72.5841 33.4878 71.5663 33.4878 70.7404 33.0111C69.9146 32.5344 69.4057 31.6531 69.4057 30.6992V26.6949H56.0582C53.9352 26.6925 51.899 25.8482 50.3982 24.3465C48.8966 22.8456 48.0522 20.8094 48.0498 18.6865V5.339H18.6854C17.9775 5.33959 17.2988 5.62145 16.7983 6.12137C16.2983 6.62189 16.0165 7.3006 16.0159 8.00847V77.4153C16.0165 78.1231 16.2983 78.8018 16.7983 79.3024C17.2988 79.8023 17.9775 80.0841 18.6854 80.0847H66.7362C67.3923 80.0853 68.0251 79.844 68.5142 79.4072C69.0404 78.9246 69.7376 78.6731 70.4508 78.7089C71.1634 78.744 71.8326 79.064 72.3081 79.5961C72.7836 80.1282 73.0267 80.829 72.9821 81.5416C72.9374 82.2537 72.6096 82.9187 72.0716 83.3877C70.6039 84.7004 68.7043 85.4249 66.7361 85.4239H18.6852C16.5621 85.4215 14.526 84.5771 13.0251 83.0755C11.5236 81.5745 10.6792 79.5383 10.6768 77.4154V8.0086C10.6791 5.88551 11.5235 3.84938 13.0251 2.34851C14.5261 0.846915 16.5623 0.00256275 18.6852 0.00012207H50.7191C51.427 0.00012207 52.1063 0.28138 52.6068 0.781902L73.9628 22.1378C74.4633 22.6384 74.7446 23.3177 74.7446 24.0255L74.7447 24.0254ZM65.6303 21.3559L53.3887 9.11442V18.6865C53.3893 19.3943 53.6712 20.073 54.1711 20.5736C54.6716 21.0735 55.3503 21.3553 56.0582 21.3559L65.6303 21.3559Z" fill="#EA9D3A"/>
</svg>
