<svg width="261" height="146" viewBox="0 0 261 146" fill="none" xmlns="http://www.w3.org/2000/svg">
<path d="M260.906 0.0732369L259.653 0.572487L259.164 0.762232L257.649 0.679041L256.228 1.34467L253.712 3.05218L253.604 3.12877L252.662 3.37174L251.791 2.99895L251.295 3.22527L251.128 4.22387L250.659 4.95278L250.079 5.35554L248.068 5.55524L246.373 6.42727L244.171 5.84148L243.145 6.23753L240.967 8.188L239.858 8.71062L239.469 8.68736L237.998 8.61077L237.371 8.81717L236.44 9.70587L234.681 9.84228L234.131 10.2218L233.273 11.9392L232.341 12.8945L231.812 13.0076L231.239 12.7946L230.803 12.8712L230.606 13.9729L230.183 14.4289L229.007 14.8316L228.065 15.6139L227.241 16.0333L226.132 16.0033H225.881L224.775 16.609L222.707 16.7922L221.843 17.611L221.652 17.7841L221.253 18.027L220.582 18.4164L220.422 18.5096L219.621 18.3665L218.696 18.7326L218.321 18.1569L217.677 18.5429L216.829 18.5795L215.767 18.1102L214.956 17.7474L214.366 17.8373L214.162 18.8558L214.138 18.969L213.519 19.7878L212.362 20.4867L212.201 20.6864L210.881 22.3806L208.378 25.0002L206.253 26.0652L204.058 26.731L202.52 27.9857L198.499 29.9828L192.132 33.135L190.832 33.551L188.958 33.8472L185.631 35.0688L182.691 35.9442L182.524 35.9974L181.938 36.1705L177.792 37.422L175.865 37.2156L174.72 37.6317L171.744 37.2988L169.673 37.3388L168.366 37.6051L165.903 38.7766L161.751 40.7737L160.38 42.0186L158.239 43.127L155.739 43.9158V42.874L155.722 42.8274L154.851 43.1004L154.224 43.3001L152.197 43.6096H151.071L150.367 43.4066L150.26 43.4432L146.108 44.8012L141.48 45.2439L139.168 45.9795L137.439 45.9562L136.36 46.2891L134.235 46.5453L133.478 46.3423L133.303 46.2957L127.063 46.5686L124.212 46.2357L122.851 46.5453L120.566 45.7798L117.245 45.3937L116.464 45.164L114.712 44.6481L113.924 45.1041L113.327 45.164L111.913 44.6548H111.407L110.238 45.0741L109.568 44.901L108.941 44.4085L107.48 44.1888L106.585 43.4432L101.592 44.1089L100.251 43.7195L95.714 42.3881L94.9936 42.4247L94.092 43.0904L92.7515 43.583L91.5787 43.8859L89.9805 43.9391L88.1237 43.4531L86.2105 42.5279L85.4999 42.3614L83.9181 42.5212L83.4358 42.5612L80.5371 41.0134L76.797 38.6835L74.2604 37.4685L73.3052 37.3155L73.178 37.7648L73.6504 39.2393L73.8112 40.7039L73.7642 42.0552L73.7343 42.8907L73.972 43.6429L74.8903 44.6415L75.2724 45.64L75.5473 48.4293V51.2551L75.0981 55.7652L74.9505 56.4309L74.4211 58.7608L73.9384 60.9043L72.0555 66.616L71.536 67.3217L70.2723 68.187L67.3905 70.1309L65.2727 71.3391L64.6027 71.6187L62.8833 71.7485L61.8112 71.6952L60.4706 70.9796L59.1637 70.6468L57.448 69.4219L55.5377 69.0324L53.4432 67.8309L52.9004 67.1851L51.7612 67.0787L50.1793 66.606L49.5996 66.433L49.2008 66.3131L47.1902 66.2599L45.3101 65.4011L44.3284 65.1648L42.9878 65.0949L41.5737 65.7605L40.8501 66.0934L39.9419 65.7307L39.2915 65.7739L38.5445 66.8889L38.4537 67.062L37.9412 67.335H37.3046H36.8019L36.2656 67.5646L35.5383 67.8775L34.9018 68.157L34.5868 68.2935L34.3958 68.3301L34.0607 68.39L33.6382 68.4732L32.8875 68.0406L32.4891 67.8042L31.8186 67.6678L31.4603 67.9274L31.3899 69.1423L31.0545 69.8645L30.0159 70.7832L28.9535 71.7086L28.2196 72.787L26.2692 77.2138L25.0461 78.9979L24.664 79.414L23.3808 80.8186L22.248 81.6906L19.6341 83.7044L17.1576 84.623L15.0296 85.0557H13.9975L12.0303 84.7994L10.2713 84.2602L8.3311 83.0586L6.2064 81.3577L3.1302 78.3422L2.69454 78.0826L2.60372 78.0227L1.63873 77.4069L0.91836 77.4236L0.636921 77.8861L0.482702 78.5519L0.351799 79.1377L0 82.4961L0.0302711 82.6925L0.214352 84.0738L2.56036 87.3157L3.28073 89.0399L3.40141 89.2362L3.88411 90.0417L4.24941 90.6509L4.28295 90.7174L5.0835 93.0806L4.5239 94.412L4.80574 95.3074L4.10174 95.8533L3.97124 96.6288L6.06568 99.2417L6.52465 100.39L6.01209 101.991L5.2009 102.866L4.96978 103.109L5.08718 103.775L6.04563 104.634L7.68764 106.085L8.5655 108.242L9.23555 108.821L10.0099 108.655L10.4386 108.987H11.089L11.7321 109.626L12.1444 109.823L12.8145 110.156L13.334 110.821L13.4547 112.888L14.4197 115.448V116.839V117.036L15.0231 118.061L15.2141 118.873L14.8791 121.016L15.6498 121.702L16.4773 121.536L17.0201 121.619L17.8784 122.335L18.9203 123.916L19.9458 123.769L20.5958 124.079L23.726 126.891L24.4362 127.247L24.473 127.271L24.9859 127.52L25.6257 128.159L26.6112 127.494H26.7183L27.7905 127.404L28.2634 127.717L29.1646 128.322H30.3509L32.9211 129.105L34.0472 129.388L36.3094 130.786L37.2711 131.378L37.8373 131.834L38.5944 132.443L40.1027 133.089L41.3962 133.398L42.0998 133.565L42.6295 133.764V133.735L42.6127 133.764L45.421 134.83L46.9354 135.186L48.343 135.702L49.3485 136.068H50.0991L51.161 135.179L52.1935 135.119L53.0481 135.332L53.8822 135.196L55.1994 134.384L55.4538 134.004L56.3922 133.565L59.5457 133.175L60.4637 133.472L62.833 132.453L64.4182 132.892L65.8188 132.397L68.8917 133.062L69.7029 133.638L70.6143 134.67H70.7285L71.7335 134.686L71.3114 135.392L72.6519 136.783L73.8615 138.601L73.9454 138.844L74.8232 141.403L75.4937 142.315L75.9527 143.583L75.976 144.406L75.2589 144.945L75.1452 145.254L75.1047 145.368L75.2491 145.717L75.517 145.571L76.0296 145.291L76.6497 145.194L77.7489 145.308L78.4693 145.384L79.6155 144.822L80.3727 144.442L81.5892 144.965H82.9298L83.4959 145.214L85.0876 145.93L85.8988 146L86.197 145.804L86.388 145.354L86.2939 144.828L85.6808 144.136L84.3402 142.585L83.7909 141.789L83.3687 140.635L83.2447 139.167L83.1507 138.168L83.3184 136.86L83.6804 136.397L83.9418 135.362L84.0085 135.089L84.7591 134.091L86.7333 132.829L88.8576 130.939L90.5331 129.837L92.2623 129.098L92.3093 128.885L92.5069 128.962L96.9036 127.474H96.9809L98.9379 127.141L112.168 128.066L112.657 127.92L113.099 126.695L113.338 126.469L113.498 126.322L114.949 125.683L115.62 125.587L117.51 126.049L118.28 126.239L119.52 125.553H120.398L122.211 124.555L123.33 124.585L123.753 124.411L125.934 122.854L128.039 122.255L128.581 121.972L128.779 121.865L130.934 120.734L132.305 119.692L133.484 119.063L134.778 118.73L138.159 118.494L138.829 117.368L140.284 117.179L141.158 116.18L142.163 115.777L142.887 114.739L143.494 113.874L144.335 113.388L147.043 113.221L150.253 113.617L150.675 113.358L151.403 110.791L152.16 110.306L154.207 107.35V106.271V105.369L154.543 104.085L154.315 101.755L154.583 99.4247L155.853 96.4291L156.972 95.2275L158.778 94.0126L159.696 93.6165L160.99 93.4035L161.188 93.3669L161.523 93.3136L166.003 93.2537C166.063 93.2071 167.625 93.2304 167.625 93.2304L169.123 93.2138L172.9 93.8795L173.168 93.926L174.445 94.3355L175.912 95.4738L177.474 96.9849L177.765 97.2678L178.771 97.6872L179.076 97.8237L179.91 97.6872L181.097 97.0782L181.991 96.3259L183.214 95.6602L183.245 95.6169L183.915 94.5851L183.938 94.5685L184.213 94.1591L186.576 93.2471L189.35 93.0873L189.662 92.9208L189.836 92.831L190.57 91.9722H191.264L192.939 92.5714L194.102 92.3417L195.034 92.7078L195.754 92.6246L197.115 92.4649L198.583 93.4901L199.43 93.5965L202.446 95.3373L202.6 95.3606L202.684 95.3773L202.852 95.4072L203.21 95.3007L203.74 95.1476L203.81 95.1309L203.877 95.2208L204.212 95.7002L204.685 95.7667L205.241 95.0311L205.02 94.6982L204.936 94.5785L203.86 94.3588L202.895 92.7245L203.814 91.726L202.376 89.9785L202.138 89.6823L202.054 89.5624L201.558 88.8102L199.042 84.9958L195.754 82.3963L194.608 81.4843L194.209 81.1713L192.457 79.4007L191.203 77.7364L191.043 77.3803L190.788 76.8244L190.037 75.2002L188.73 74.2016L187.661 73.0466L187.608 72.9767L185.413 70.0076L185.051 69.5151L184.531 69.2122H183.439L183.332 69.1056L183.265 69.0391L183.305 69.0025L183.828 68.4799L184.414 68.3335L184.669 67.7643L183.55 64.549V64.4359L183.466 63.404L184.377 58.7442L184.491 58.175L186.05 55.0362L187.011 54.2541L188.06 52.1971L188.968 50.889L189.826 50.0535L189.98 49.9637L191.538 49.0284L192.845 48.8453L194.092 48.6723L196.27 49.3379L198.341 49.3013L198.747 49.2547L199.685 49.1548L201.23 48.6689L201.964 48.2195L202.339 47.6437L203.127 45.0143L203.381 44.1788L203.864 43.2734L206.685 40.0514L208.813 38.0977L213.595 34.6095L215.941 33.2215L217.141 32.5091L227.824 27.7927L230.596 24.9968L232.047 23.5389L234.607 21.8381L237.603 20.6165L240.18 18.5895L240.739 17.8839L241.447 15.6205L242.036 15.4774L242.566 14.329L242.72 13.9963L244.818 12.5284L245.056 12.4085L253.222 8.34443L254.408 8.50421L255.045 7.55559L257.424 7.16624L257.86 7.08965L258.443 6.80006L258.939 5.95799V5.7915L259.009 3.53487L259.515 2.92907L259.79 1.44127L260.055 1.10841L260.33 0.752278L261 0.282891L260.886 0L260.906 0.0732369Z" fill="#D57800"/>
<path d="M69 105V75.5374L93.6255 60.4055V105H69Z" fill="white"/>
<path d="M113.957 24V41.0011L113.869 72.511L113.782 105H110.89V70.6418L107.384 68.5945L107.297 105H104.317V66.8143L100.286 64.411L100.198 105H97.3062V62.6308L93.6255 60.4055V36.5505L113.957 24Z" fill="white"/>
<path d="M142 41.0012L141.737 105H138.845V39.043L142 41.0012Z" fill="white"/>
<path d="M134.814 36.5505L134.726 105H131.747V34.5923L134.814 36.5505Z" fill="#A67154"/>
<path d="M127.803 32.1L127.628 105H124.736V30.1417L127.803 32.1Z" fill="white"/>
<path d="M121.581 28.1835L121.406 105H118.514V26.2252L121.581 28.1835Z" fill="white"/>
</svg>
