<svg width="198" height="112" viewBox="0 0 198 112" fill="none" xmlns="http://www.w3.org/2000/svg">
<path d="M197.929 0.0561817L196.978 0.439168L196.607 0.584726L195.458 0.520908L194.38 1.03153L192.471 2.3414L192.389 2.40015L191.675 2.58654L191.014 2.30057L190.638 2.47418L190.511 3.24023L190.155 3.7994L189.715 4.10836L188.19 4.26155L186.903 4.93051L185.233 4.48113L184.455 4.78495L182.803 6.28121L181.961 6.68212L181.666 6.66427L180.55 6.60552L180.075 6.76386L179.368 7.4456L178.033 7.55025L177.617 7.84136L176.966 9.15887L176.259 9.89164L175.857 9.97845L175.423 9.81505L175.092 9.8738L174.942 10.7189L174.622 11.0687L173.73 11.3777L173.015 11.9778L172.39 12.2995L171.548 12.2765H171.358L170.519 12.7412L168.95 12.8817L168.294 13.5098L168.15 13.6426L167.847 13.829L167.338 14.1276L167.216 14.1992L166.609 14.0894L165.907 14.3702L165.623 13.9285L165.134 14.2247L164.491 14.2528L163.685 13.8928L163.07 13.6144L162.623 13.6834L162.468 14.4647L162.45 14.5515L161.98 15.1797L161.102 15.7158L160.98 15.869L159.979 17.1687L158.08 19.1782L156.468 19.9952L154.803 20.5059L153.636 21.4685L150.585 23.0005L145.755 25.4186L144.769 25.7378L143.347 25.965L140.823 26.9021L138.594 27.5736L138.467 27.6144L138.022 27.7472L134.877 28.7073L133.415 28.549L132.546 28.8681L130.288 28.6128L128.717 28.6435L127.726 28.8477L125.857 29.7465L122.708 31.2785L121.668 32.2334L120.043 33.0837L118.147 33.6888V32.8897L118.134 32.8539L117.473 33.0633L116.997 33.2165L115.46 33.4539H114.605L114.071 33.2982L113.99 33.3263L110.84 34.368L107.33 34.7077L105.576 35.2719L104.264 35.2541L103.445 35.5094L101.833 35.706L101.259 35.5502L101.127 35.5145L96.3929 35.7239L94.2296 35.4685L93.1975 35.706L91.4637 35.1187L88.9444 34.8225L88.352 34.6464L87.0226 34.2506L86.4249 34.6004L85.9724 34.6464L84.8996 34.2557H84.5157L83.6285 34.5774L83.1202 34.4446L82.6448 34.0668L81.5363 33.8982L80.8576 33.3263L77.0697 33.837L76.0528 33.5382L72.6106 32.5169L72.0641 32.545L71.3802 33.0557L70.3632 33.4335L69.4735 33.6659L68.2611 33.7067L66.8525 33.3339L65.4011 32.6241L64.862 32.4964L63.662 32.619L63.2961 32.6497L61.0971 31.4623L58.2598 29.675L56.3354 28.743L55.6108 28.6256L55.5143 28.9703L55.8727 30.1014L55.9947 31.2249L55.959 32.2616L55.9364 32.9025L56.1167 33.4795L56.8134 34.2455L57.1032 35.0115L57.3117 37.1512V39.319L56.971 42.7788L56.859 43.2895L56.4574 45.0767L56.0912 46.7211L54.6628 51.1027L54.2687 51.644L53.3101 52.3078L51.1238 53.799L49.5172 54.7259L49.0089 54.9403L47.7046 55.0399L46.8912 54.9991L45.8743 54.4501L44.8828 54.1948L43.5813 53.2551L42.132 52.9564L40.5432 52.0346L40.1313 51.5393L39.2671 51.4576L38.067 51.095L37.6273 50.9623L37.3247 50.8703L35.7995 50.8295L34.3732 50.1707L33.6284 49.9894L32.6115 49.9358L31.5387 50.4464L30.9897 50.7018L30.3008 50.4235L29.8073 50.4567L29.2407 51.3121L29.1718 51.4448L28.7829 51.6542H28.3001H27.9187L27.5118 51.8304L26.9601 52.0704L26.4772 52.2848L26.2383 52.3896L26.0933 52.4176L25.8392 52.4636L25.5186 52.5274L24.9492 52.1955L24.6469 52.0142L24.1383 51.9096L23.8664 52.1087L23.813 53.0407L23.5586 53.5947L22.7706 54.2994L21.9647 55.0093L21.408 55.8366L19.9284 59.2325L19.0005 60.6011L18.7106 60.9203L17.7371 61.9978L16.8778 62.6668L14.8948 64.2116L13.0161 64.9163L11.4018 65.2482H10.6188L9.12644 65.0516L7.79203 64.638L6.32015 63.7162L4.7083 62.4114L2.37463 60.0981L2.04413 59.899L1.97524 59.853L1.24318 59.3806L0.696687 59.3934L0.483181 59.7483L0.366187 60.259L0.266882 60.7084L0 63.2847L0.0229643 63.4353L0.162612 64.495L1.94234 66.9819L2.48883 68.3046L2.58038 68.4552L2.94657 69.0731L3.22369 69.5404L3.24914 69.5915L3.85645 71.4043L3.43192 72.4256L3.64574 73.1125L3.11166 73.5313L3.01267 74.1262L4.60155 76.1306L4.94974 77.0115L4.56089 78.2396L3.94551 78.9112L3.77018 79.0975L3.85924 79.6082L4.58634 80.267L5.832 81.3803L6.49796 83.0348L7.00628 83.4791L7.59373 83.3515L7.91896 83.6067H8.41238L8.90022 84.097L9.21303 84.2476L9.72134 84.503L10.1155 85.0137L10.207 86.5993L10.9391 88.5628V89.6301V89.7808L11.3968 90.5672L11.5417 91.1902L11.2876 92.8346L11.8722 93.3605L12.5 93.2329L12.9118 93.2967L13.5629 93.8457L14.3533 95.0585L15.1313 94.9462L15.6244 95.1837L17.999 97.3412L18.5378 97.6144L18.5657 97.6323L18.9549 97.8238L19.4402 98.314L20.1878 97.8034H20.2691L21.0825 97.7344L21.4412 97.9744L22.1249 98.4392H23.0248L24.9746 99.0392L25.8289 99.2563L27.545 100.329L28.2746 100.783L28.7041 101.133L29.2785 101.6L30.4227 102.096L31.404 102.333L31.9377 102.461L32.3396 102.614V102.591L32.3269 102.614L34.4573 103.431L35.6061 103.704L36.674 104.1L37.4368 104.381H38.0062L38.8118 103.699L39.5951 103.653L40.2434 103.816L40.8761 103.712L41.8754 103.089L42.0684 102.798L42.7803 102.461L45.1726 102.162L45.869 102.389L47.6664 101.608L48.8689 101.945L49.9315 101.564L52.2627 102.075L52.8781 102.517L53.5695 103.308H53.6561L54.4185 103.321L54.0983 103.862L55.1152 104.93L56.0329 106.324L56.0965 106.51L56.7625 108.474L57.2711 109.173L57.6193 110.146L57.637 110.777L57.093 111.191L57.0067 111.428L56.976 111.515L57.0855 111.783L57.2888 111.671L57.6776 111.456L58.1481 111.382L58.9819 111.469L59.5284 111.528L60.398 111.096L60.9724 110.805L61.8953 111.206H62.9122L63.3417 111.397L64.5492 111.946L65.1646 112L65.3908 111.849L65.5358 111.505L65.4644 111.101L64.9992 110.57L63.9822 109.38L63.5655 108.77L63.2452 107.884L63.1512 106.758L63.0798 105.992L63.207 104.989L63.4817 104.634L63.68 103.839L63.7306 103.63L64.3 102.864L65.7977 101.896L67.4092 100.446L68.6803 99.6009L69.9921 99.0341L70.0277 98.8707L70.1776 98.9294L73.513 97.7881H73.5717L75.0563 97.5327L85.0929 98.2426L85.4641 98.1302L85.7996 97.1905L85.9802 97.0169L86.1021 96.9046L87.2029 96.4144L87.7115 96.3403L89.1452 96.6952L89.7299 96.8408L90.6705 96.3148H91.3364L92.7118 95.5487L93.5609 95.5717L93.8814 95.4389L95.5364 94.244L97.1328 93.7844L97.5446 93.5673L97.6948 93.4857L99.3293 92.6175L100.369 91.8183L101.264 91.3357L102.245 91.0804L104.81 90.8991L105.319 90.0361L106.422 89.8906L107.086 89.1245L107.848 88.8156L108.397 88.019L108.858 87.3551L109.496 86.9823L111.55 86.8546L113.985 87.1585L114.305 86.9593L114.857 84.9907L115.432 84.6179L116.985 82.3505V81.5233V80.8313L117.239 79.8457L117.066 78.0584L117.27 76.271L118.233 73.973L119.082 73.0513L120.452 72.1192L121.149 71.8154L122.13 71.652L122.28 71.6239L122.535 71.5831L125.933 71.5371C125.979 71.5013 127.164 71.5192 127.164 71.5192L128.3 71.5065L131.165 72.0172L131.369 72.0529L132.337 72.367L133.451 73.2402L134.636 74.3994L134.857 74.6164L135.619 74.9381L135.851 75.0429L136.484 74.9381L137.384 74.4709L138.062 73.8938L138.99 73.3831L139.013 73.3499L139.522 72.5584L139.539 72.5457L139.748 72.2316L141.54 71.532L143.645 71.4095L143.882 71.2817L144.014 71.2129L144.57 70.554H145.097L146.368 71.0137L147.25 70.8375L147.957 71.1183L148.503 71.0545L149.535 70.9319L150.649 71.7184L151.292 71.8001L153.58 73.1355L153.697 73.1533L153.761 73.1661L153.888 73.1891L154.16 73.1074L154.561 72.9899L154.615 72.9772L154.665 73.0461L154.92 73.4138L155.278 73.4649L155.7 72.9006L155.533 72.6452L155.469 72.5533L154.653 72.3848L153.921 71.1311L154.617 70.3651L153.527 69.0246L153.346 68.7974L153.283 68.7054L152.906 68.1284L150.997 65.2023L148.503 63.2081L147.634 62.5085L147.331 62.2684L146.002 60.9101L145.051 59.6334L144.929 59.3602L144.736 58.9338L144.166 57.6878L143.175 56.9217L142.364 56.0358L142.323 55.9822L140.658 53.7045L140.384 53.3267L139.989 53.0943H139.161L139.079 53.0126L139.028 52.9615L139.059 52.9335L139.456 52.5326L139.9 52.4202L140.094 51.9836L139.245 49.5171V49.4302L139.181 48.6387L139.872 45.064L139.959 44.6274L141.141 42.2196L141.871 41.6196L142.666 40.0416L143.355 39.0381L144.006 38.3972L144.123 38.3283L145.305 37.6108L146.297 37.4704L147.242 37.3376L148.895 37.8482L150.466 37.8202L150.773 37.7844L151.485 37.7078L152.657 37.335L153.214 36.9903L153.499 36.5486L154.096 34.5315L154.289 33.8906L154.656 33.1961L156.796 30.7244L158.41 29.2256L162.038 26.5497L163.817 25.485L164.728 24.9385L172.832 21.3205L174.935 19.1757L176.035 18.0572L177.978 16.7525L180.25 15.8154L182.205 14.2604L182.63 13.7192L183.166 11.9828L183.614 11.873L184.015 10.9921L184.132 10.7369L185.724 9.61081L185.904 9.51887L192.099 6.40121L192.999 6.52378L193.483 5.79607L195.287 5.49739L195.618 5.43864L196.06 5.21648L196.437 4.57051V4.4428L196.49 2.71168L196.874 2.24696L197.082 1.10563L197.283 0.850284L197.492 0.57709L198 0.217013L197.914 0L197.929 0.0561817Z" fill="#D57800"/>
<circle cx="29.7094" cy="72.0472" r="4.70935" fill="#EBEBEB"/>
<path d="M51.2495 69.23C51.3295 69.23 51.4095 69.2467 51.4895 69.28C51.5695 69.3067 51.6462 69.3567 51.7195 69.43L53.0595 70.84C52.4729 71.6067 51.7362 72.1867 50.8495 72.58C49.9695 72.9667 48.9262 73.16 47.7195 73.16C46.6129 73.16 45.6195 72.9733 44.7395 72.6C43.8662 72.22 43.1229 71.7 42.5095 71.04C41.9029 70.3733 41.4362 69.5867 41.1095 68.68C40.7829 67.7667 40.6195 66.7767 40.6195 65.71C40.6195 64.6233 40.7962 63.6267 41.1495 62.72C41.5029 61.8067 41.9995 61.02 42.6395 60.36C43.2795 59.7 44.0462 59.1867 44.9395 58.82C45.8329 58.4533 46.8162 58.27 47.8895 58.27C48.4362 58.27 48.9495 58.32 49.4295 58.42C49.9162 58.5133 50.3695 58.6467 50.7895 58.82C51.2095 58.9867 51.5962 59.19 51.9495 59.43C52.3029 59.67 52.6162 59.93 52.8895 60.21L51.7495 61.74C51.6762 61.8333 51.5895 61.92 51.4895 62C51.3895 62.0733 51.2495 62.11 51.0695 62.11C50.9495 62.11 50.8362 62.0833 50.7295 62.03C50.6229 61.9767 50.5095 61.9133 50.3895 61.84C50.2695 61.76 50.1362 61.6767 49.9895 61.59C49.8495 61.4967 49.6795 61.4133 49.4795 61.34C49.2862 61.26 49.0562 61.1933 48.7895 61.14C48.5295 61.0867 48.2229 61.06 47.8695 61.06C47.3095 61.06 46.7962 61.1633 46.3295 61.37C45.8695 61.5767 45.4695 61.88 45.1295 62.28C44.7962 62.6733 44.5362 63.16 44.3495 63.74C44.1695 64.3133 44.0795 64.97 44.0795 65.71C44.0795 66.4567 44.1795 67.12 44.3795 67.7C44.5862 68.28 44.8629 68.77 45.2095 69.17C45.5629 69.5633 45.9729 69.8633 46.4395 70.07C46.9062 70.2767 47.4062 70.38 47.9395 70.38C48.2462 70.38 48.5262 70.3667 48.7795 70.34C49.0329 70.3067 49.2695 70.2567 49.4895 70.19C49.7095 70.1167 49.9162 70.0233 50.1095 69.91C50.3029 69.79 50.4995 69.64 50.6995 69.46C50.7795 69.3933 50.8662 69.34 50.9595 69.3C51.0529 69.2533 51.1495 69.23 51.2495 69.23ZM61.515 67.46V73H58.135V67.46L52.855 58.43H55.835C56.1283 58.43 56.3583 58.5 56.525 58.64C56.6983 58.7733 56.8417 58.9467 56.955 59.16L59.015 63.4C59.1883 63.7333 59.345 64.0467 59.485 64.34C59.625 64.6267 59.7483 64.91 59.855 65.19C59.955 64.9033 60.0683 64.6167 60.195 64.33C60.3283 64.0367 60.4817 63.7267 60.655 63.4L62.695 59.16C62.7417 59.0733 62.7983 58.9867 62.865 58.9C62.9317 58.8133 63.0083 58.7367 63.095 58.67C63.1883 58.5967 63.2917 58.54 63.405 58.5C63.525 58.4533 63.655 58.43 63.795 58.43H66.795L61.515 67.46ZM73.0734 65.58C73.9534 65.58 74.5868 65.37 74.9734 64.95C75.3601 64.53 75.5534 63.9433 75.5534 63.19C75.5534 62.8567 75.5034 62.5533 75.4034 62.28C75.3034 62.0067 75.1501 61.7733 74.9434 61.58C74.7434 61.38 74.4868 61.2267 74.1734 61.12C73.8668 61.0133 73.5001 60.96 73.0734 60.96H71.3134V65.58H73.0734ZM73.0734 58.43C74.1001 58.43 74.9801 58.5533 75.7134 58.8C76.4534 59.04 77.0601 59.3733 77.5334 59.8C78.0134 60.2267 78.3668 60.73 78.5934 61.31C78.8201 61.89 78.9334 62.5167 78.9334 63.19C78.9334 63.9167 78.8168 64.5833 78.5834 65.19C78.3501 65.7967 77.9934 66.3167 77.5134 66.75C77.0334 67.1833 76.4234 67.5233 75.6834 67.77C74.9501 68.01 74.0801 68.13 73.0734 68.13H71.3134V73H67.9334V58.43H73.0734ZM85.3883 65.28C85.8483 65.28 86.2383 65.2233 86.5583 65.11C86.8849 64.99 87.1516 64.8267 87.3583 64.62C87.5649 64.4133 87.7149 64.1733 87.8083 63.9C87.9016 63.62 87.9483 63.32 87.9483 63C87.9483 62.36 87.7383 61.86 87.3183 61.5C86.9049 61.14 86.2616 60.96 85.3883 60.96H84.0283V65.28H85.3883ZM92.5683 73H89.5083C88.9416 73 88.5349 72.7867 88.2883 72.36L85.8683 68.13C85.7549 67.95 85.6283 67.82 85.4883 67.74C85.3483 67.6533 85.1483 67.61 84.8883 67.61H84.0283V73H80.6483V58.43H85.3883C86.4416 58.43 87.3383 58.54 88.0783 58.76C88.8249 58.9733 89.4316 59.2733 89.8983 59.66C90.3716 60.0467 90.7149 60.5033 90.9283 61.03C91.1416 61.5567 91.2483 62.13 91.2483 62.75C91.2483 63.2233 91.1849 63.67 91.0583 64.09C90.9316 64.51 90.7449 64.9 90.4983 65.26C90.2516 65.6133 89.9449 65.93 89.5783 66.21C89.2183 66.49 88.8016 66.72 88.3283 66.9C88.5483 67.0133 88.7549 67.1567 88.9483 67.33C89.1416 67.4967 89.3149 67.6967 89.4683 67.93L92.5683 73ZM99.7166 70.33C100.17 70.33 100.573 70.2567 100.927 70.11C101.287 69.9567 101.59 69.74 101.837 69.46C102.083 69.18 102.27 68.84 102.397 68.44C102.53 68.0333 102.597 67.5733 102.597 67.06V58.43H105.977V67.06C105.977 67.9533 105.83 68.7733 105.537 69.52C105.25 70.2667 104.837 70.91 104.297 71.45C103.757 71.99 103.1 72.41 102.327 72.71C101.553 73.01 100.683 73.16 99.7166 73.16C98.7432 73.16 97.8699 73.01 97.0966 72.71C96.3232 72.41 95.6666 71.99 95.1266 71.45C94.5866 70.91 94.1732 70.2667 93.8866 69.52C93.5999 68.7733 93.4566 67.9533 93.4566 67.06V58.43H96.8366V67.05C96.8366 67.5633 96.8999 68.0233 97.0266 68.43C97.1599 68.83 97.3499 69.1733 97.5966 69.46C97.8432 69.74 98.1432 69.9567 98.4966 70.11C98.8566 70.2567 99.2632 70.33 99.7166 70.33ZM116.667 61.39C116.567 61.55 116.46 61.67 116.347 61.75C116.24 61.83 116.1 61.87 115.927 61.87C115.774 61.87 115.607 61.8233 115.427 61.73C115.254 61.63 115.054 61.52 114.827 61.4C114.607 61.28 114.354 61.1733 114.067 61.08C113.78 60.98 113.454 60.93 113.087 60.93C112.454 60.93 111.98 61.0667 111.667 61.34C111.36 61.6067 111.207 61.97 111.207 62.43C111.207 62.7233 111.3 62.9667 111.487 63.16C111.674 63.3533 111.917 63.52 112.217 63.66C112.524 63.8 112.87 63.93 113.257 64.05C113.65 64.1633 114.05 64.2933 114.457 64.44C114.864 64.58 115.26 64.7467 115.647 64.94C116.04 65.1333 116.387 65.38 116.687 65.68C116.994 65.98 117.24 66.3467 117.427 66.78C117.614 67.2067 117.707 67.7233 117.707 68.33C117.707 69.0033 117.59 69.6333 117.357 70.22C117.124 70.8067 116.784 71.32 116.337 71.76C115.897 72.1933 115.35 72.5367 114.697 72.79C114.05 73.0367 113.314 73.16 112.487 73.16C112.034 73.16 111.57 73.1133 111.097 73.02C110.63 72.9267 110.177 72.7967 109.737 72.63C109.297 72.4567 108.884 72.2533 108.497 72.02C108.11 71.7867 107.774 71.5267 107.487 71.24L108.487 69.66C108.567 69.5467 108.67 69.4533 108.797 69.38C108.93 69.3 109.074 69.26 109.227 69.26C109.427 69.26 109.627 69.3233 109.827 69.45C110.034 69.5767 110.264 69.7167 110.517 69.87C110.777 70.0233 111.074 70.1633 111.407 70.29C111.74 70.4167 112.134 70.48 112.587 70.48C113.2 70.48 113.677 70.3467 114.017 70.08C114.357 69.8067 114.527 69.3767 114.527 68.79C114.527 68.45 114.434 68.1733 114.247 67.96C114.06 67.7467 113.814 67.57 113.507 67.43C113.207 67.29 112.864 67.1667 112.477 67.06C112.09 66.9533 111.694 66.8367 111.287 66.71C110.88 66.5767 110.484 66.4167 110.097 66.23C109.71 66.0367 109.364 65.7867 109.057 65.48C108.757 65.1667 108.514 64.78 108.327 64.32C108.14 63.8533 108.047 63.28 108.047 62.6C108.047 62.0533 108.157 61.52 108.377 61C108.597 60.48 108.92 60.0167 109.347 59.61C109.774 59.2033 110.297 58.88 110.917 58.64C111.537 58.3933 112.247 58.27 113.047 58.27C113.494 58.27 113.927 58.3067 114.347 58.38C114.774 58.4467 115.177 58.55 115.557 58.69C115.937 58.8233 116.29 58.9867 116.617 59.18C116.95 59.3667 117.247 59.58 117.507 59.82L116.667 61.39Z" fill="#EBEBEB" fill-opacity="0.6"/>
</svg>
