<svg width="1920" height="1109" viewBox="0 0 1920 1109" fill="none" xmlns="http://www.w3.org/2000/svg">
<path d="M1961.19 -19.8432L1951.58 -15.9977L1947.83 -14.5338L1936.2 -15.176L1925.3 -9.90709L1905.97 3.28044L1905.15 3.87463L1897.92 5.75062L1891.23 2.86333L1887.44 4.6053L1886.15 12.4429L1882.54 18.0735L1878.1 21.1857L1862.68 22.7431L1849.68 29.4735L1832.78 24.9427L1824.9 28.0096L1808.19 43.0706L1799.67 47.1032L1796.7 46.9186L1785.39 46.3244L1780.58 47.9274L1773.44 54.7967L1759.93 55.851L1755.72 58.7838L1749.13 72.0598L1741.99 79.4323L1737.91 80.3045L1733.51 78.6536L1730.17 79.2477L1728.65 87.763L1725.4 91.3026L1716.38 94.4149L1709.15 100.463L1702.83 103.711L1694.31 103.481H1692.39L1683.91 108.151L1668.03 109.572L1661.38 115.893L1659.92 117.223L1656.86 119.099L1651.82 122.132L1650.58 122.863L1644.44 121.766L1637.35 124.603L1634.46 120.165L1629.52 123.139L1623.02 123.414L1614.86 119.796L1608.64 117.015L1604.11 117.7L1602.55 125.579L1602.37 126.448L1597.6 132.769L1588.72 138.174L1587.49 139.729L1577.37 152.826L1558.14 173.052L1541.84 181.294L1524.99 186.424L1513.18 196.13L1482.18 211.469L1433.32 235.829L1423.34 239.033L1408.96 241.323L1383.41 250.756L1360.84 257.535L1359.56 257.944L1355.07 259.271L1323.25 268.935L1308.46 267.329L1299.66 270.535L1276.81 268.007L1260.93 268.328L1250.9 270.391L1231.99 279.455L1200.13 294.796L1189.6 304.404L1173.17 312.97L1153.99 319.055L1154.03 310.998L1153.89 310.634L1147.21 312.74L1142.4 314.3L1126.84 316.679H1118.18L1112.78 315.121L1111.95 315.397L1080.1 325.882L1044.56 329.318L1026.8 334.994L1013.52 334.806L1005.23 337.282L988.932 339.251L983.117 337.691L981.79 337.33L933.894 339.433L912.007 336.961L901.567 339.342L884.031 333.434L858.528 330.458L852.529 328.675L839.063 324.691L833.021 328.23L828.442 328.685L817.593 324.746L813.702 324.653L804.727 327.904L799.554 326.577L794.75 322.785L783.532 321.093L776.665 315.318L738.336 320.4L727.945 317.384L693.101 307.215L687.558 307.491L680.644 312.666L670.25 316.459L661.229 318.795L648.959 319.202L634.72 315.447L620.02 308.305L614.569 307.026L602.434 308.262L598.725 308.583L576.476 296.634L547.767 278.729L528.299 269.339L520.968 268.151L520.004 271.63L523.62 283.032L524.859 294.344L524.492 304.783L524.264 311.238L526.095 317.053L533.144 324.837L536.077 332.675L538.182 354.241V376.083L534.747 410.931L533.536 416.167L529.457 434.254L525.748 450.829L511.284 494.973L507.297 500.419L497.588 507.106L475.474 522.122L459.219 531.456L454.092 533.61L440.904 534.622L432.665 534.21L422.407 528.668L412.378 526.061L399.19 516.58L384.526 513.546L368.456 504.252L364.29 499.261L355.545 498.437L343.409 494.771L338.967 493.444L335.9 492.528L320.379 492.116L305.955 485.477L298.398 483.646L288.001 483.095L277.155 488.177L271.613 490.743L264.653 487.962L259.664 488.281L253.943 496.877L253.253 498.207L249.316 500.313L244.414 500.219L240.573 500.133L236.452 501.916L230.865 504.343L225.965 506.495L223.54 507.551L223.492 507.503L222.026 507.779L219.419 508.237L216.165 508.879L210.396 505.531L207.332 503.701L202.204 502.649L199.459 504.672L198.905 514.057L196.377 519.647L188.41 526.741L180.256 533.883L174.626 542.227L159.668 576.419L150.283 590.201L147.351 593.407L137.49 604.258L128.793 610.991L108.734 626.558L89.7361 633.652L73.3883 636.999H65.4672L50.3582 635.027L36.8495 630.858L21.9681 621.564L5.67078 608.417L-17.9586 585.106L-21.3009 583.084L-21.9886 582.626L-29.4066 577.863L-34.9486 578.002L-37.1001 581.572L-38.2884 586.745L-39.2997 591.278L-42 617.243L-41.7724 618.76L-40.349 629.43L-22.4462 654.475L-16.9068 667.801L-15.989 669.318L-12.2825 675.546L-9.48626 680.263L-9.21065 680.769L-3.07451 699.041L-7.37262 709.387L-5.22102 716.304L-10.6265 720.516L-11.6379 726.513L4.4294 746.707L7.97152 755.588L4.03497 767.952L-2.19214 774.728L-3.97717 776.609L-3.06193 781.83L4.30803 788.466L16.9014 799.684L23.6368 816.353L28.7186 820.843L34.6676 819.557L37.9544 822.085L42.9453 821.994L47.8906 826.939L51.0509 828.456L56.0873 830.984L60.0718 836.157L60.987 852.138L68.4075 871.922L68.496 882.683L68.5441 884.2L73.1683 892.116L74.6322 898.391L72.1621 914.966L78.0682 920.276L84.4318 918.991L88.5985 919.633L95.1922 925.175L103.204 937.4L111.082 936.257L116.071 938.636L140.112 960.379L145.563 963.127L145.836 963.31L149.778 965.231L154.678 970.179L162.23 965.143L163.054 965.052L171.296 964.364L174.909 966.791L181.826 971.461L190.928 971.372L210.664 977.415L219.318 979.612L236.672 990.42L244.047 994.999L248.396 998.523L254.211 1003.24L265.798 1008.23L275.734 1010.61L281.137 1011.89L285.21 1013.45L285.306 1013.22H285.397L285.258 1013.45L306.825 1021.69L318.455 1024.44L329.263 1028.42L337.101 1031.26L342.868 1031.35L351.021 1024.49L358.945 1024.03L365.493 1025.68L371.9 1024.63L382.013 1018.36L383.983 1015.42L391.168 1012.03L415.394 1009L422.443 1011.29L440.621 1003.42L452.8 1006.8L463.563 1002.96L487.142 1008.18L493.369 1012.62L500.375 1020.59L501.244 1020.63L509.029 1020.77L505.778 1026.22L516.032 1036.98L525.329 1051.04L525.968 1052.91L532.701 1072.7L537.738 1079.75L541.265 1089.55L541.449 1095.91L535.953 1100.08L535.08 1102.46L534.764 1103.33L535.859 1106.03L537.919 1104.89L541.859 1102.73L546.622 1102L555.046 1102.87L560.583 1103.47L569.379 1099.12L575.194 1096.19L584.536 1100.21L594.791 1100.12L599.137 1102.05L611.361 1107.59L617.591 1108.13L619.884 1106.62L621.348 1103.13L620.617 1099.06L615.899 1093.7L605.599 1081.7L601.382 1075.57L598.131 1066.64L597.167 1055.28L596.434 1047.59L597.719 1037.48L600.515 1033.9L602.537 1025.89H602.583L603.089 1023.78L608.858 1016.18L624.028 1006.43L640.325 991.821L653.194 983.306L666.473 977.582L666.837 975.936L668.354 976.53L702.104 965.039L702.698 964.991L717.716 962.384L819.274 969.527L823.026 968.381V968.336L826.417 958.857L828.247 957.115L829.486 955.975L840.611 951.027L845.831 950.297L860.346 953.864L866.25 955.33L875.779 950.021L882.509 950.112L896.43 942.514L905.039 942.742L908.288 941.415L925.05 929.372L941.213 924.746L945.383 922.549L946.899 921.724L963.409 912.974L973.939 904.914L983.003 900.055L992.942 897.493L1018.91 895.665L1024.17 886.963L1035.34 885.499L1042.07 877.851L1049.81 874.739L1055.36 866.727L1060.02 860.039L1066.48 856.285L1087.27 855.003L1111.9 858.07L1115.15 856.047L1120.74 836.218L1126.55 832.463L1142.26 809.615L1142.31 801.272V794.312L1144.87 784.375L1143.13 766.473L1145.19 748.385L1154.94 725.353L1163.54 716.056L1177.42 706.669L1184.47 703.604L1194.4 701.951L1195.92 701.675L1198.45 701.268L1232.83 700.811C1233.29 700.447 1245.29 700.624 1245.29 700.624L1256.78 700.485L1285.77 705.614L1287.83 705.981L1297.63 709.141L1308.89 717.93L1320.89 729.608L1323.13 731.807L1330.87 735.059L1333.2 736.108L1339.61 735.059L1348.73 730.341L1355.6 724.526L1364.98 719.396L1365.21 719.08L1370.48 711.113L1370.66 710.972H1370.75V710.926H1370.66L1372.77 707.766L1390.9 700.715L1412.19 699.481L1414.57 698.199L1415.9 697.514L1421.53 690.875L1426.84 690.827L1439.62 695.453L1448.55 693.666L1455.69 696.505L1461.23 695.865L1471.67 694.632L1482.94 702.55L1489.44 703.377L1512.51 716.84L1513.71 717.025L1514.35 717.161L1515.63 717.391L1518.37 716.564L1522.45 715.376L1523 715.237L1523.51 715.925L1526.11 719.631L1529.73 720.137L1533.99 714.461L1532.3 711.897L1531.66 710.979L1523.42 709.288L1516 696.647L1523.05 689.044L1512.01 675.538L1510.18 673.247L1509.54 672.335L1505.75 666.52L1486.42 637.03L1461.19 616.932L1452.4 609.878L1452.31 609.833L1449.24 607.408L1435.78 593.718L1426.17 580.942L1424.94 578.192L1422.96 573.893L1417.2 561.346L1407.17 553.607L1398.97 544.682L1398.56 544.136L1381.71 521.194L1378.93 517.402L1374.95 515.07L1366.57 515.022L1365.74 514.198L1365.24 513.693L1365.56 513.417L1369.59 509.389L1374.08 508.247L1376.05 503.85L1367.45 478.989L1367.4 478.117L1366.76 470.153L1373.77 434.069L1374.64 429.675L1386.59 405.404L1393.96 399.361L1402.02 383.473L1408.98 373.36L1415.57 366.903L1416.76 366.218L1428.72 358.984L1438.74 357.564L1448.31 356.236L1465.03 361.363L1480.92 361.085L1484.03 360.716L1491.22 359.943L1503.08 356.188L1508.7 352.707L1511.59 348.265L1517.64 327.935L1519.6 321.48L1523.31 314.474L1544.97 289.565L1561.32 274.456L1598.04 247.487L1616.03 236.772L1625.24 231.273L1707.25 194.826L1728.54 173.216L1739.66 161.953L1759.31 148.806L1782.29 139.373L1802.08 123.715L1806.37 118.262L1811.82 100.774L1816.36 99.6763L1820.43 90.7944L1821.62 88.2661L1837.74 76.9116L1839.57 75.9939L1902.25 44.5825L1911.36 45.8188L1916.26 38.4868L1934.53 35.4528L1937.87 34.8587L1942.35 32.6136L1946.15 26.1108V24.8316L1946.69 7.38635L1950.59 2.71665L1952.7 -8.77689L1954.72 -11.4366L1956.83 -14.1824L1961.95 -17.8003L1961.08 -20L1961.19 -19.8432Z" fill="#F7F6F6" fill-opacity="0.8"/>
</svg>
