<svg width="19" height="19" viewBox="0 0 19 19" fill="none" xmlns="http://www.w3.org/2000/svg">
<path d="M9.5793 11.3668C10.8349 11.3668 11.8527 10.349 11.8527 9.09346C11.8527 7.8379 10.8349 6.82007 9.5793 6.82007C8.32374 6.82007 7.30591 7.8379 7.30591 9.09346C7.30591 10.349 8.32374 11.3668 9.5793 11.3668Z" fill="white"/>
<path d="M15.6418 3.03122H13.2396L12.2999 2.00819C12.1587 1.85314 11.9867 1.72925 11.7949 1.64444C11.6031 1.55963 11.3957 1.51575 11.186 1.51562H7.9729C7.54854 1.51562 7.13933 1.6975 6.85136 2.00819L5.91927 3.03122H3.51706C2.68348 3.03122 2.00146 3.71324 2.00146 4.54681V13.6404C2.00146 14.474 2.68348 15.156 3.51706 15.156H15.6418C16.4754 15.156 17.1574 14.474 17.1574 13.6404V4.54681C17.1574 3.71324 16.4754 3.03122 15.6418 3.03122ZM9.57943 12.8826C7.48791 12.8826 5.79045 11.1851 5.79045 9.09359C5.79045 7.00207 7.48791 5.30461 9.57943 5.30461C11.671 5.30461 13.3684 7.00207 13.3684 9.09359C13.3684 11.1851 11.671 12.8826 9.57943 12.8826Z" fill="white"/>
</svg>
