<svg width="109" height="90" viewBox="0 0 109 90" fill="none" xmlns="http://www.w3.org/2000/svg">
<g clip-path="url(#clip0_89_592)">
<path d="M43.4482 38.0172C44.1682 38.0172 44.8593 38.3034 45.3684 38.8125C45.8776 39.3217 46.1637 40.0127 46.1637 40.7328V41.208C47.75 41.7699 49.1234 42.8087 50.0957 44.1823C51.0686 45.5559 51.5917 47.1967 51.5947 48.8794C51.5947 49.8498 51.0771 50.7463 50.237 51.2312C49.3969 51.7161 48.3616 51.7161 47.5215 51.2312C46.6814 50.7463 46.1637 49.8498 46.1637 48.8794C46.1637 48.1593 45.8776 47.4683 45.3684 46.9591C44.8593 46.45 44.1683 46.1639 43.4482 46.1639C42.7281 46.1639 42.0371 46.45 41.5279 46.9591C41.0188 47.4683 40.7327 48.1593 40.7327 48.8794C40.7327 49.5995 41.0188 50.2905 41.5279 50.7997C42.0371 51.3088 42.7281 51.5949 43.4482 51.5949C46.031 51.5931 48.461 52.8169 49.9975 54.8929C51.5335 56.9684 51.9941 59.6499 51.2377 62.1193C50.4818 64.5887 48.5992 66.5532 46.1637 67.4127V67.8879C46.1637 68.8584 45.6461 69.7548 44.806 70.2397C43.9659 70.7246 42.9306 70.7246 42.0905 70.2397C41.2503 69.7548 40.7327 68.8583 40.7327 67.8879V67.4127C39.1464 66.8508 37.7729 65.812 36.8006 64.4384C35.8278 63.0649 35.3047 61.424 35.3016 59.7413C35.3016 58.7709 35.8193 57.8744 36.6594 57.3895C37.4995 56.9046 38.5348 56.9046 39.3749 57.3895C40.215 57.8744 40.7327 58.7709 40.7327 59.7413C40.7327 60.4614 41.0188 61.1524 41.5279 61.6616C42.0371 62.1707 42.7281 62.4568 43.4482 62.4568C44.1683 62.4568 44.8593 62.1707 45.3684 61.6616C45.8776 61.1524 46.1637 60.4614 46.1637 59.7413C46.1637 59.0212 45.8776 58.3302 45.3684 57.8211C44.8593 57.3119 44.1683 57.0258 43.4482 57.0258C40.8653 57.0276 38.4353 55.8038 36.8988 53.7278C35.3629 51.6523 34.9022 48.9708 35.6586 46.5014C36.4145 44.032 38.2972 42.0675 40.7326 41.208V40.7328C40.7326 40.0127 41.0187 39.3217 41.5279 38.8125C42.037 38.3034 42.7281 38.0172 43.4482 38.0172ZM72.8068 57.4914C72.0994 57.3556 71.3666 57.5059 70.7708 57.9102C70.1743 58.3145 69.7633 58.9389 69.6276 59.6463C68.4401 65.7852 65.1543 71.3199 60.3324 75.3016C55.5112 79.2827 49.4545 81.4618 43.2014 81.4662C38.6025 81.4734 34.0808 80.286 30.0785 78.0203C29.4711 77.6723 28.7528 77.5747 28.0746 77.7469L17.7132 80.3442L20.7464 71.2138C21.0052 70.4355 20.8979 69.5814 20.4554 68.8911C17.7224 64.6111 16.2779 59.6353 16.2931 54.5576C16.3101 48.0592 18.671 41.7855 22.9419 36.8881C27.2127 31.9906 33.1076 28.7985 39.5423 27.8973C40.2642 27.81 40.9212 27.4366 41.3662 26.8614C41.8111 26.2856 42.0057 25.5551 41.9075 24.8345C41.8093 24.1138 41.4262 23.4628 40.8437 23.0271C40.2612 22.5913 39.5283 22.4076 38.8089 22.5167C31.0739 23.5993 23.9893 27.4355 18.8553 33.3212C13.7212 39.2075 10.8833 46.7478 10.8614 54.5581C10.8481 60.2273 12.3434 65.7979 15.1941 70.6991L11.0003 83.3263C10.7251 84.1543 10.8645 85.0641 11.3749 85.7715C11.8853 86.4789 12.7048 86.8983 13.5769 86.8983C13.7994 86.8989 14.0213 86.8716 14.237 86.8171L28.365 83.2729C32.9457 85.66 38.036 86.9037 43.2009 86.8982C50.7165 86.8928 57.9957 84.273 63.7907 79.4875C69.5855 74.702 73.5351 68.0496 74.9613 60.6713C75.0971 59.9639 74.9461 59.2323 74.5418 58.6359C74.1381 58.0401 73.5132 57.6291 72.8064 57.4933L72.8068 57.4914ZM94.5697 37.1126C96.6687 33.397 97.7676 29.2 97.758 24.9328C97.7689 17.6312 94.5837 10.6909 89.0404 5.93815C83.4972 1.18537 76.1515 -0.902784 68.9379 0.222836C61.7242 1.34844 55.3638 5.57504 51.5322 11.7905C47.7002 18.0053 46.78 25.5862 49.0148 32.537C51.249 39.4883 56.414 45.1133 63.1501 47.9312C69.8855 50.7498 77.5175 50.4782 84.0363 47.1893L94.3826 49.7843H94.382C94.5983 49.8388 94.8202 49.8661 95.0433 49.8655C95.9155 49.8661 96.7349 49.4472 97.2453 48.7399C97.7557 48.0325 97.8951 47.1227 97.6199 46.2947L94.5697 37.1126ZM89.0217 37.6375L90.9067 43.314L84.3348 41.6659H84.3354C83.6566 41.4938 82.9371 41.5926 82.3297 41.9405C79.4304 43.5819 76.1549 44.4414 72.8241 44.436C67.6513 44.4354 62.6912 42.3812 59.0338 38.7238C55.3764 35.0664 53.3216 30.1057 53.3216 24.9335C53.3216 19.7606 55.3764 14.8006 59.0338 11.1431C62.6912 7.48573 67.6513 5.43093 72.8241 5.43093C77.9963 5.43093 82.957 7.48511 86.6145 11.1427C90.2719 14.8001 92.3267 19.7608 92.3267 24.933C92.3382 28.6117 91.292 32.2159 89.3123 35.3162C88.8698 36.0066 88.7631 36.8601 89.0219 37.6377L89.0217 37.6375ZM87.2051 22.2948L84.1804 19.9424V14.935C84.1804 13.9646 83.6628 13.0681 82.8227 12.5832C81.9826 12.0983 80.9473 12.0983 80.1072 12.5832C79.2671 13.0681 78.7494 13.9646 78.7494 14.935V15.7182L74.9859 12.7911C74.5088 12.4208 73.9221 12.2201 73.3184 12.2201C72.7147 12.2201 72.1279 12.4208 71.6509 12.7911L59.4311 22.2954C58.6988 22.8622 58.3067 23.7641 58.3915 24.686C58.477 25.608 59.0268 26.4232 59.8505 26.847C60.6737 27.2707 61.6569 27.244 62.4563 26.7773V31.2282C62.4575 32.6684 63.0303 34.0486 64.0487 35.0669C65.0671 36.0851 66.4472 36.658 67.8874 36.6593H78.7494C80.1896 36.658 81.5698 36.0852 82.5881 35.0669C83.6063 34.0485 84.1792 32.6684 84.1805 31.2282V26.7501C84.9757 27.2247 85.9589 27.2586 86.785 26.8392C87.6106 26.4198 88.1634 25.6057 88.2489 24.6831C88.3343 23.7611 87.9403 22.8592 87.2057 22.2954L87.2051 22.2948ZM76.0339 31.2281V29.8704C76.0339 28.8999 75.5163 28.0035 74.6761 27.5186C73.836 27.0336 72.8007 27.0336 71.9606 27.5186C71.1205 28.0035 70.6029 28.9 70.6029 29.8704V31.2281H67.8873V22.5998L73.3184 18.3755L78.7494 22.5998V31.2281H76.0339Z" fill="#EA9D3A"/>
</g>
<defs>
<clipPath id="clip0_89_592">
<rect width="108.621" height="90" fill="white"/>
</clipPath>
</defs>
</svg>
