<svg width="701" height="400" viewBox="0 0 701 400" fill="none" xmlns="http://www.w3.org/2000/svg">
<mask id="mask0_66_3633" style="mask-type:alpha" maskUnits="userSpaceOnUse" x="-201" y="-81" width="902" height="481">
<path d="M700.565 -81H-201V399.129H700.565V-81Z" fill="#EBEBEB"/>
</mask>
<g mask="url(#mask0_66_3633)">
<path d="M660.474 -55.9236L656.817 -54.4601L655.39 -53.903L650.964 -54.1474L646.817 -52.1422L639.462 -47.1235L639.148 -46.8974L636.395 -46.1834L633.85 -47.2822L632.407 -46.6193L631.919 -43.6365L630.543 -41.4937L628.854 -40.3093L622.985 -39.7166L618.037 -37.1553L611.606 -38.8795L608.609 -37.7124L602.249 -31.9807L599.007 -30.446L597.876 -30.5162L593.57 -30.7423L591.742 -30.1323L589.024 -27.5181L583.884 -27.1168L582.28 -26.0007L579.772 -20.9483L577.053 -18.1426L575.501 -17.8106L573.829 -18.4389L572.556 -18.2128L571.979 -14.9721L570.741 -13.6251L567.309 -12.4406L564.556 -10.1391L562.15 -8.90272L558.91 -8.99025H558.177L554.953 -7.21311L548.907 -6.67236L546.379 -4.2669L545.821 -3.76079L544.656 -3.04684L542.738 -1.89225L542.268 -1.61417L539.932 -2.03175L537.233 -0.952202L536.134 -2.64081L534.253 -1.50928L531.778 -1.4044L528.675 -2.78128L526.307 -3.83969L524.581 -3.57894L523.988 -0.580784L523.919 -0.249798L522.106 2.15566L518.726 4.21281L518.255 4.80454L514.407 9.78867L507.088 17.4861L500.884 20.6228L494.473 22.5751L489.976 26.2689L478.179 32.1065L459.586 41.3771L455.787 42.5962L450.316 43.4679L440.592 47.0578L432.002 49.6375L431.514 49.7933L429.806 50.2984L417.695 53.9759L412.067 53.3649L408.72 54.585L400.024 53.6228L393.979 53.745L390.161 54.5301L382.965 57.9796L370.841 63.8181L366.834 67.4744L360.58 70.7343L353.28 73.0503L353.296 69.9838L353.243 69.8452L350.699 70.6467L348.871 71.2404L342.948 72.1458H339.653L337.597 71.5531L337.283 71.658L325.16 75.6481L311.636 76.9557L304.876 79.1158L299.822 79.0446L296.669 79.9866L290.465 80.7362L288.252 80.1425L287.747 80.0049L269.52 80.8055L261.19 79.8644L257.217 80.7708L250.544 78.5222L240.838 77.3897L238.555 76.7114L233.43 75.1949L231.131 76.542L229.388 76.7152L225.259 75.2161L223.779 75.1805L220.363 76.4179L218.394 75.9127L216.566 74.4695L212.297 73.8258L209.684 71.6281L195.097 73.5621L191.142 72.4143L177.881 68.5443L175.772 68.6492L173.141 70.6188L169.185 72.0621L165.752 72.9511L161.083 73.1061L155.664 71.6772L150.07 68.9591L147.995 68.4721L143.377 68.9427L141.965 69.0649L133.498 64.5176L122.572 57.7034L115.163 54.1299L112.373 53.6777L112.007 55.0016L113.383 59.341L113.854 63.6459L113.714 67.6187L113.628 70.0752L114.325 72.2882L117.007 75.2508L118.123 78.2335L118.925 86.4409V94.7532L117.617 108.015L117.156 110.008L115.604 116.891L114.193 123.199L108.688 139.999L107.171 142.071L103.476 144.616L95.0596 150.331L88.8738 153.883L86.9225 154.703L81.9038 155.088L78.768 154.931L74.8644 152.822L71.0474 151.83L66.0287 148.222L60.448 147.067L54.3324 143.53L52.7467 141.631L49.4185 141.317L44.8001 139.922L43.1095 139.417L41.9424 139.068L36.0355 138.912L30.5463 136.385L27.6703 135.688L23.7138 135.479L19.5861 137.413L17.477 138.389L14.828 137.331L12.9297 137.452L10.7523 140.723L10.4896 141.23L8.99147 142.031L7.1258 141.995L5.66424 141.963L4.09587 142.641L1.96946 143.565L0.104729 144.384L-0.817986 144.786L-0.836281 144.767L-1.39433 144.872L-2.38635 145.047L-3.62466 145.291L-5.82038 144.017L-6.98655 143.32L-8.93784 142.92L-9.98277 143.69L-10.1935 147.261L-11.1557 149.389L-14.1875 152.089L-17.2906 154.807L-19.4333 157.982L-25.1256 170.995L-28.6972 176.24L-29.8134 177.46L-33.5659 181.589L-36.8758 184.152L-44.5097 190.076L-51.7396 192.776L-57.9611 194.049H-60.9756L-66.7256 193.299L-71.8665 191.712L-77.5299 188.175L-83.7322 183.172L-92.7247 174.301L-93.9967 173.531L-94.2584 173.357L-97.0815 171.544L-99.1906 171.597L-100.009 172.956L-100.462 174.924L-100.846 176.649L-101.874 186.531L-101.787 187.108L-101.246 191.169L-94.4326 200.7L-92.3244 205.772L-91.9752 206.349L-90.5646 208.719L-89.5004 210.514L-89.3955 210.707L-87.0603 217.66L-88.696 221.598L-87.8772 224.23L-89.9344 225.833L-90.3193 228.116L-84.2046 235.801L-82.8566 239.181L-84.3547 243.886L-86.7245 246.464L-87.4038 247.18L-87.0555 249.167L-84.2508 251.693L-79.4581 255.962L-76.8949 262.306L-74.9609 264.015L-72.6969 263.525L-71.446 264.487L-69.5467 264.452L-67.6647 266.334L-66.4619 266.912L-64.5453 267.874L-63.0289 269.843L-62.6806 275.925L-59.8566 283.454L-59.8229 287.549L-59.8046 288.126L-58.0448 291.139L-57.4877 293.527L-58.4277 299.835L-56.18 301.855L-53.7582 301.367L-52.1725 301.611L-49.6632 303.72L-46.614 308.372L-43.6159 307.937L-41.7175 308.843L-32.5681 317.117L-30.4936 318.163L-30.3897 318.233L-28.8897 318.964L-27.025 320.847L-24.1509 318.93L-23.8373 318.896L-20.7005 318.634L-19.3256 319.558L-16.693 321.335L-13.2292 321.301L-5.71837 323.601L-2.42484 324.437L4.17959 328.55L6.98627 330.293L8.64122 331.634L10.8543 333.429L15.2639 335.328L19.0453 336.234L21.1015 336.722L22.6516 337.315L22.6881 337.227H22.7228L22.6699 337.315L30.8773 340.451L35.3033 341.496L39.4166 343.013L42.3994 344.093L44.5942 344.128L47.6972 341.515L50.7126 341.34L53.2047 341.968L55.6429 341.568L59.4916 339.181L60.2411 338.065L62.9757 336.776L72.1953 335.621L74.8779 336.493L81.796 333.496L86.4308 334.785L90.5268 333.323L99.5001 335.309L101.87 336.998L104.536 340.03L104.867 340.048L107.83 340.101L106.592 342.175L110.495 346.27L114.033 351.62L114.276 352.333L116.839 359.862L118.755 362.546L120.098 366.274L120.168 368.695L118.076 370.283L117.744 371.187L117.624 371.519L118.04 372.549L118.825 372.112L120.324 371.293L122.136 371.014L125.342 371.346L127.45 371.572L130.797 369.917L133.01 368.801L136.565 370.334L140.468 370.3L142.122 371.031L146.774 373.141L149.145 373.348L150.018 372.771L150.575 371.444L150.297 369.894L148.501 367.854L144.581 363.29L142.976 360.955L141.739 357.557L141.372 353.235L141.093 350.308L141.582 346.459L142.646 345.099L143.416 342.049H143.433L143.626 341.247L145.822 338.354L151.595 334.643L157.797 329.083L162.694 325.843L167.748 323.664L167.886 323.038L168.464 323.264L181.308 318.891L181.534 318.872L187.249 317.881L225.899 320.599L227.327 320.163V320.145L228.617 316.538L229.314 315.875L229.785 315.441L234.019 313.558L236.006 313.28L241.53 314.638L243.777 315.196L247.403 313.175L249.964 313.21L255.262 310.319L258.538 310.405L259.775 309.9L266.154 305.317L272.305 303.556L273.892 302.72L274.469 302.407L280.752 299.077L284.76 296.009L288.209 294.16L291.991 293.185L301.873 292.489L303.875 289.178L308.128 288.621L310.689 285.71L313.635 284.525L315.744 281.476L317.52 278.931L319.979 277.503L327.889 277.015L337.264 278.182L338.501 277.412L340.627 269.866L342.84 268.437L348.816 259.742L348.834 256.566V253.917L349.81 250.136L349.148 243.323L349.932 236.439L353.644 227.674L356.916 224.136L362.197 220.563L364.88 219.397L368.661 218.768L369.238 218.663L370.201 218.508L383.286 218.334C383.461 218.195 388.026 218.263 388.026 218.263L392.401 218.21L403.431 220.162L404.216 220.302L407.944 221.504L412.232 224.849L416.797 229.293L417.651 230.13L420.596 231.368L421.484 231.767L423.923 231.368L427.392 229.572L430.006 227.359L433.579 225.407L433.666 225.287L435.669 222.255L435.74 222.201H435.774V222.184H435.74L436.541 220.981L443.442 218.298L451.544 217.828L452.45 217.34L452.955 217.079L455.1 214.553L457.12 214.534L461.982 216.295L465.381 215.615L468.099 216.695L470.207 216.452L474.181 215.982L478.467 218.996L480.941 219.311L489.724 224.434L490.178 224.505L490.421 224.557L490.909 224.644L491.954 224.329L493.505 223.877L493.715 223.824L493.907 224.086L494.899 225.497L496.277 225.689L497.898 223.529L497.254 222.553L497.01 222.204L493.874 221.56L491.05 216.749L493.734 213.856L489.533 208.716L488.837 207.844L488.592 207.497L487.149 205.284L479.794 194.061L470.193 186.413L466.847 183.728L466.812 183.711L465.644 182.788L460.521 177.578L456.864 172.716L456.395 171.669L455.644 170.033L453.451 165.258L449.634 162.313L446.513 158.916L446.356 158.709L439.945 149.978L438.887 148.534L437.371 147.647L434.182 147.629L433.868 147.315L433.676 147.123L433.798 147.018L435.332 145.485L437.039 145.05L437.789 143.377L434.518 133.916L434.499 133.584L434.256 130.553L436.922 116.821L437.253 115.149L441.801 105.912L444.607 103.612L447.674 97.5657L450.322 93.7169L452.831 91.2596L453.284 90.9988L457.833 88.246L461.649 87.7052L465.29 87.2001L471.651 89.1514L477.698 89.0455L478.883 88.9051L481.619 88.6107L486.132 87.1818L488.274 85.8569L489.373 84.1663L491.673 76.4294L492.422 73.973L493.833 71.3068L502.076 61.8274L508.297 56.0774L522.273 45.8138L529.12 41.736L532.624 39.6433L563.834 25.7724L571.937 17.5487L576.17 13.2621L583.645 8.2588L592.394 4.66888L599.922 -1.28991L601.557 -3.36535L603.631 -10.0208L605.357 -10.4383L606.908 -13.8185L607.36 -14.7807L613.493 -19.1018L614.191 -19.4511L638.046 -31.4053L641.51 -30.9348L643.375 -33.7251L650.328 -34.8797L651.6 -35.1058L653.307 -35.9602L654.751 -38.435V-38.9218L654.958 -45.5609L656.44 -47.338L657.243 -51.7121L658.013 -52.7243L658.815 -53.7693L660.765 -55.1462L660.434 -55.9833L660.474 -55.9236Z" fill="#F7F6F6" fill-opacity="0.8"/>
</g>
<path d="M123 93V73.722L139.192 63.8209V93H123Z" fill="#EA9D3A"/>
<path d="M152.561 40V51.1242L152.503 71.7418L152.445 93H150.544V70.5187L148.239 69.1791L148.181 93H146.222V68.0143L143.571 66.4418L143.514 93H141.612V65.2769L139.192 63.8209V48.2121L152.561 40Z" fill="#EA9D3A"/>
<path d="M171 51.1242L170.827 93H168.926V49.8429L171 51.1242Z" fill="#EA9D3A"/>
<path d="M166.275 48.2121L166.217 93H164.258V46.9308L166.275 48.2121Z" fill="#A67154"/>
<path d="M161.665 45.3L161.55 93H159.648V44.0187L161.665 45.3Z" fill="#EA9D3A"/>
<path d="M157.574 42.7374L157.459 93H155.557V41.4561L157.574 42.7374Z" fill="#EA9D3A"/>
</svg>
