<svg width="111" height="90" viewBox="0 0 111 90" fill="none" xmlns="http://www.w3.org/2000/svg">
<g clip-path="url(#clip0_88_565)">
<path d="M60.2057 52.6025C60.4262 52.6582 60.6522 52.686 60.8789 52.6854C61.7678 52.6854 62.6028 52.2577 63.1229 51.5354C63.643 50.8131 63.7857 49.8847 63.5053 49.0392L60.2611 39.2512V39.2506C62.4898 35.3159 63.656 30.867 63.646 26.343C63.6547 20.5955 61.7899 15.0027 58.3358 10.414C54.881 5.82636 50.026 2.49398 44.5089 0.924209C38.991 -0.645435 33.1126 -0.36691 27.7679 1.7177C22.4231 3.80231 17.9034 7.57911 14.897 12.4738C11.8901 17.3685 10.5608 23.113 11.1113 28.8338C11.6616 34.5547 14.0607 39.9396 17.9448 44.1682C21.8287 48.3974 26.9847 51.2397 32.6284 52.2635C38.2728 53.2872 44.0959 52.4362 49.2129 49.8397L60.2057 52.6025ZM47.4732 44.48H47.4738C44.3884 46.2291 40.9022 47.1457 37.3572 47.1396C31.853 47.1396 26.5737 44.9485 22.6815 41.0486C18.7895 37.1486 16.6029 31.8584 16.6029 26.3429C16.6029 20.8274 18.7895 15.5374 22.6815 11.6373C26.5735 7.73731 31.853 5.54626 37.3572 5.54626C42.8615 5.54626 48.1408 7.73731 52.033 11.6373C55.925 15.5372 58.1116 20.8274 58.1116 26.3429C58.1233 30.2658 57.0102 34.1102 54.9039 37.4172C54.453 38.1215 54.3437 38.9918 54.6068 39.7865L56.665 45.9946L49.5171 44.199H49.5165C48.8253 44.0239 48.0928 44.1241 47.4738 44.4794L47.4732 44.48ZM51.9947 26.659C52.445 26.0784 52.647 25.3419 52.5556 24.6122C52.4648 23.8824 52.088 23.2189 51.5086 22.7676L48.4263 20.3655V15.2518C48.4263 14.2609 47.8988 13.3455 47.0427 12.8504C46.1866 12.3552 45.1316 12.3552 44.2755 12.8504C43.4194 13.3455 42.8919 14.2609 42.8919 15.2518V16.0521L39.056 13.0627C38.5699 12.6845 37.9726 12.4796 37.3574 12.4796C36.7422 12.4796 36.1449 12.6845 35.6588 13.0627L23.2062 22.7678C22.46 23.3465 22.0604 24.2668 22.1469 25.2088C22.2333 26.1503 22.7936 26.9821 23.633 27.4148C24.4718 27.8474 25.4738 27.8208 26.2884 27.3436V31.8893C26.2897 33.3599 26.8734 34.7693 27.9112 35.809C28.9489 36.8488 30.3553 37.4338 31.8229 37.435H42.8919C44.3595 37.4338 45.766 36.8489 46.8037 35.809C47.8413 34.7691 48.4251 33.3598 48.4264 31.8893V27.3159C48.9947 27.6761 49.6778 27.808 50.3388 27.686C51.0003 27.5647 51.5915 27.1977 51.9949 26.6592L51.9947 26.659ZM40.1247 31.8892V30.5027C40.1247 29.5118 39.5972 28.5964 38.741 28.1012C37.8849 27.6061 36.8299 27.6061 35.9738 28.1012C35.1177 28.5964 34.5902 29.5118 34.5902 30.5027V31.8892H31.8229V23.0785L37.3574 18.7656L42.8919 23.0785V31.8892H40.1247ZM88.5514 36.0485H80.2497C78.0488 36.051 75.9381 36.928 74.3823 38.4878C72.8257 40.047 71.9505 42.162 71.9479 44.3672V49.9129C71.9504 51.8848 72.6509 53.7924 73.9245 55.2953C75.1988 56.7988 76.9636 57.8003 78.9049 58.1221C76.685 62.3185 73.2593 65.7512 69.0713 67.9758C68.7501 66.0305 67.7506 64.2621 66.2503 62.9853C64.7505 61.709 62.8469 61.0072 60.8788 61.0046H55.3443C53.1435 61.0071 51.0328 61.8842 49.477 63.444C47.9204 65.0031 47.0451 67.1181 47.0426 69.3233V77.642C47.0346 80.5622 48.1791 83.3673 50.2268 85.445C52.2744 87.5228 55.0591 88.705 57.9732 88.7335H58.1116C65.4133 88.7335 72.5858 86.8029 78.9054 83.1377C85.225 79.4722 90.4679 74.2014 94.1048 67.8565C97.7418 61.5123 99.6442 54.3183 99.6202 47.0012C99.5918 44.081 98.412 41.2908 96.3384 39.2391C94.2649 37.1873 91.4655 36.0403 88.5512 36.0483L88.5514 36.0485ZM83.5493 72.63C80.2169 75.9884 76.2525 78.6505 71.8861 80.4629C67.5197 82.2752 62.8375 83.2017 58.1117 83.188H57.9925C56.5422 83.167 55.1592 82.5722 54.1443 81.5337C53.1301 80.4945 52.5667 79.0956 52.5772 77.6423V69.3236C52.5785 68.5883 52.87 67.8839 53.3889 67.3641C53.9077 66.8442 54.6107 66.552 55.3444 66.5508H60.8789C61.6127 66.552 62.3157 66.8441 62.8345 67.3641C63.3533 67.884 63.6449 68.5883 63.6461 69.3236V72.1206C63.6461 73.0119 64.0736 73.8486 64.795 74.3698C65.5165 74.891 66.4437 75.0327 67.2874 74.7517C71.5631 73.3145 75.4483 70.9031 78.6368 67.7075C81.8259 64.5125 84.2318 60.6193 85.666 56.335C85.9471 55.4895 85.8056 54.5605 85.2855 53.8375C84.7654 53.1145 83.9303 52.6862 83.0409 52.6862H80.2496C79.5158 52.685 78.8129 52.3928 78.2941 51.8729C77.7752 51.353 77.4837 50.6486 77.4824 49.9134V44.3676C77.4837 43.6323 77.7752 42.9279 78.2941 42.408C78.8129 41.8881 79.5159 41.596 80.2496 41.5947H88.5514C90.0017 41.5842 91.3977 42.1487 92.4348 43.165C93.4713 44.182 94.065 45.5678 94.0858 47.0217C94.1149 51.7771 93.1976 56.491 91.3883 60.8881C89.5791 65.2851 86.9144 69.2766 83.5493 72.63L83.5493 72.63Z" fill="#EA9D3A"/>
</g>
<defs>
<clipPath id="clip0_88_565">
<rect width="110.69" height="90" fill="white"/>
</clipPath>
</defs>
</svg>
