<svg width="45" height="45" viewBox="0 0 45 45" fill="none" xmlns="http://www.w3.org/2000/svg">
<path d="M18.2193 6.56446L32.7936 21.5157C33.0496 21.7783 33.1929 22.1305 33.1929 22.4973C33.1929 22.864 33.0496 23.2162 32.7936 23.4788L18.2193 38.4357C18.1 38.5582 17.9575 38.6555 17.8 38.722C17.6425 38.7884 17.4733 38.8227 17.3024 38.8227C17.1315 38.8227 16.9623 38.7884 16.8048 38.722C16.6473 38.6555 16.5048 38.5582 16.3855 38.4357C16.1402 38.1846 16.0029 37.8474 16.0029 37.4963C16.0029 37.1453 16.1402 36.8081 16.3855 36.557L30.0908 22.4973L16.3855 8.4404C16.141 8.18938 16.0042 7.85283 16.0042 7.50243C16.0042 7.15203 16.141 6.81548 16.3855 6.56446C16.5048 6.442 16.6473 6.34466 16.8048 6.2782C16.9623 6.21173 17.1315 6.17749 17.3024 6.17749C17.4733 6.17749 17.6425 6.21173 17.8 6.2782C17.9575 6.34466 18.1 6.442 18.2193 6.56446V6.56446Z" fill="#EA9D3A"/>
</svg>
