<svg width="40" height="40" viewBox="0 0 40 40" fill="none" xmlns="http://www.w3.org/2000/svg">
<path d="M18.9843 14.4866V16.9652H17.1699V19.9946H18.9843V29H22.7139V19.9946H25.2159C25.2159 19.9946 25.4517 18.542 25.5651 16.9526H22.7283V14.8826C22.7283 14.5712 23.1351 14.1554 23.5383 14.1554H25.5687V11H22.8057C18.8925 11 18.9843 14.033 18.9843 14.4866Z" fill="#EA9D3A"/>
<path d="M10.533 5.6C9.57823 5.6 8.66255 5.97928 7.98742 6.65442C7.31229 7.32955 6.93301 8.24522 6.93301 9.2V30.8C6.93301 31.7548 7.31229 32.6705 7.98742 33.3456C8.66255 34.0207 9.57823 34.4 10.533 34.4H32.133C33.0878 34.4 34.0035 34.0207 34.6786 33.3456C35.3537 32.6705 35.733 31.7548 35.733 30.8V9.2C35.733 8.24522 35.3537 7.32955 34.6786 6.65442C34.0035 5.97928 33.0878 5.6 32.133 5.6H10.533ZM10.533 2H32.133C34.0426 2 35.8739 2.75857 37.2242 4.10883C38.5744 5.45909 39.333 7.29044 39.333 9.2V30.8C39.333 32.7096 38.5744 34.5409 37.2242 35.8912C35.8739 37.2414 34.0426 38 32.133 38H10.533C8.62345 38 6.7921 37.2414 5.44184 35.8912C4.09158 34.5409 3.33301 32.7096 3.33301 30.8V9.2C3.33301 7.29044 4.09158 5.45909 5.44184 4.10883C6.7921 2.75857 8.62345 2 10.533 2V2Z" fill="#EA9D3A"/>
</svg>
