<svg width="104" height="90" viewBox="0 0 104 90" fill="none" xmlns="http://www.w3.org/2000/svg">
<path d="M32.5536 38.7296C26.7332 38.7296 21.1508 41.0418 17.0352 45.1573C12.9195 49.2734 10.6074 54.8558 10.6074 60.6757C10.6074 66.4956 12.9197 72.0784 17.0352 76.1941C21.1513 80.3097 26.7337 82.6218 32.5536 82.6218C38.3735 82.6218 43.9563 80.3096 48.0719 76.1941C52.1876 72.078 54.4997 66.4956 54.4997 60.6757C54.4933 54.857 52.1789 49.2788 48.0644 45.1647C43.9499 41.0502 38.3717 38.7358 32.5534 38.7294L32.5536 38.7296ZM32.5536 77.4591C28.1025 77.4591 23.8336 75.6909 20.6862 72.5436C17.5389 69.3963 15.7708 65.1273 15.7708 60.6763C15.7708 56.2253 17.5389 51.9563 20.6862 48.809C23.8336 45.6616 28.1025 43.8935 32.5536 43.8935C37.0046 43.8935 41.2735 45.6616 44.4209 48.809C47.5682 51.9563 49.3363 56.2253 49.3363 60.6763C49.3312 65.1255 47.5619 69.3915 44.4156 72.5383C41.2688 75.6845 37.0028 77.4538 32.5536 77.4591ZM29.9716 55.5124C29.9722 56.197 30.2448 56.8535 30.7283 57.3376C31.2124 57.8211 31.8689 58.0937 32.5535 58.0943C35.0094 58.0926 37.3199 59.2562 38.7808 61.2301C40.2412 63.2035 40.6792 65.7532 39.96 68.1011C39.2413 70.4491 37.4512 72.317 35.1355 73.1342V73.586C35.1355 74.5087 34.6434 75.3611 33.8446 75.8222C33.0458 76.2832 32.0614 76.2832 31.2626 75.8222C30.4638 75.3611 29.9716 74.5087 29.9716 73.586V73.1342C28.4633 72.5999 27.1574 71.6122 26.2329 70.3061C25.3079 69.0002 24.8105 67.44 24.8076 65.8401C24.8076 64.9174 25.2998 64.065 26.0986 63.6039C26.8974 63.1429 27.8818 63.1429 28.6806 63.6039C29.4794 64.065 29.9716 64.9174 29.9716 65.8401C29.9716 66.5247 30.2436 67.1818 30.7277 67.6659C31.2118 68.15 31.8689 68.422 32.5535 68.422C33.2382 68.422 33.8952 68.15 34.3794 67.6659C34.8635 67.1818 35.1355 66.5247 35.1355 65.8401C35.1355 65.1554 34.8635 64.4984 34.3794 64.0142C33.8952 63.5301 33.2382 63.2581 32.5535 63.2581C30.0977 63.2598 27.7872 62.0962 26.3263 60.1223C24.8659 58.1489 24.4279 55.5992 25.1471 53.2513C25.8658 50.9033 27.6559 49.0354 29.9715 48.2182V47.7664C29.9715 46.8437 30.4637 45.9913 31.2625 45.5302C32.0613 45.0692 33.0457 45.0692 33.8445 45.5302C34.6433 45.9913 35.1355 46.8437 35.1355 47.7664V48.2182C36.6438 48.7525 37.9497 49.7402 38.8742 51.0463C39.7992 52.3523 40.2966 53.9124 40.2994 55.5123C40.2994 56.4351 39.8073 57.2874 39.0085 57.7485C38.2097 58.2095 37.2253 58.2095 36.4265 57.7485C35.6277 57.2874 35.1355 56.435 35.1355 55.5123C35.1355 54.5897 34.6433 53.7373 33.8445 53.2762C33.0457 52.8151 32.0613 52.8151 31.2626 53.2762C30.4638 53.7373 29.9716 54.5897 29.9716 55.5123L29.9716 55.5124ZM89.3568 16.982V7.74627C89.3568 4.97869 87.8802 2.42151 85.4839 1.03832C83.0875 -0.345455 80.1343 -0.345455 77.738 1.03832C75.3416 2.42151 73.865 4.97869 73.865 7.74627V8.2984L62.1579 1.74197C59.8036 0.43542 56.9427 0.43542 54.5884 1.74197L27.4777 16.9239C26.2772 17.5977 25.2773 18.5792 24.581 19.767C23.8848 20.9549 23.5177 22.3064 23.5166 23.6832C23.5154 26.0197 24.4911 28.2495 26.208 29.8344C27.9243 31.4192 30.2251 32.2146 32.5534 32.0279V33.5661C32.5534 34.4888 33.0456 35.3412 33.8444 35.8022C34.6432 36.2633 35.6276 36.2633 36.4264 35.8022C37.2252 35.3412 37.7174 34.4888 37.7174 33.5661V30.0188L57.1116 19.1584V19.1579C57.8966 18.7216 58.851 18.7216 59.6359 19.1579L79.0302 30.0188V55.5124C79.0296 56.1971 78.757 56.8535 78.2734 57.3376C77.7893 57.8212 77.1329 58.0938 76.4482 58.0944H68.7023V41.3116C68.7 39.2581 67.8834 37.2887 66.4309 35.8371C64.9792 34.3847 63.0097 33.568 60.9564 33.5657H55.7925C54.3131 33.5686 52.8647 33.9939 51.6187 34.7915C50.3721 35.5886 49.379 36.7256 48.7567 38.068C48.37 38.9054 48.4593 39.8857 48.9913 40.639C49.5232 41.3929 50.4171 41.8055 51.3358 41.7214C52.2545 41.6378 53.0585 41.0701 53.4452 40.2327C53.6527 39.7843 53.9841 39.4051 54.4002 39.1388C54.8158 38.8725 55.2987 38.7308 55.7926 38.7296H60.9566C61.6412 38.7302 62.2977 39.0028 62.7818 39.4863C63.2653 39.9704 63.5379 40.6269 63.5385 41.3116V58.0943H60.9566C60.0338 58.0943 59.1815 58.5865 58.7204 59.3853C58.2594 60.1841 58.2594 61.1685 58.7204 61.9673C59.1815 62.7661 60.0339 63.2583 60.9566 63.2583H76.4484C78.5018 63.256 80.4712 62.4393 81.9229 60.9869C83.3752 59.5351 84.1919 57.5657 84.1943 55.5124V32.0268C84.4156 32.0447 84.6363 32.0695 84.8582 32.0695V32.0689C87.0788 32.0608 89.2055 31.1744 90.7743 29.6027C92.3431 28.0317 93.2266 25.9033 93.2311 23.6826C93.2277 20.918 91.7518 18.3648 89.3582 16.9816L89.3568 16.982ZM79.029 7.74627C79.029 6.82356 79.5211 5.9712 80.3199 5.51014C81.1188 5.04907 82.1031 5.04907 82.9019 5.51014C83.7007 5.9712 84.1929 6.82359 84.1929 7.74627V14.0818L79.029 11.1897V7.74627ZM86.478 26.453C85.9968 26.7417 85.447 26.8968 84.8856 26.902C84.3243 26.9077 83.7721 26.7631 83.2851 26.4835L62.1572 14.6521C59.8029 13.3455 56.9419 13.3455 54.5876 14.6521L33.4598 26.4841C32.4656 27.0414 31.25 27.0299 30.2668 26.4536C29.2836 25.8773 28.6796 24.8231 28.6796 23.6832C28.6801 23.2244 28.8023 22.7743 29.0346 22.3784C29.2663 21.9824 29.5994 21.6557 29.9994 21.4309L57.11 6.24893C57.895 5.81323 58.8494 5.81323 59.6343 6.24893L86.745 21.4309C87.1449 21.6551 87.4781 21.9824 87.7103 22.3784C87.942 22.7738 88.0642 23.2244 88.0648 23.6832C88.07 24.2446 87.9259 24.7967 87.6469 25.2837C87.368 25.7702 86.9645 26.1742 86.4775 26.4531L86.478 26.453Z" fill="#EA9D3A"/>
</svg>
