<svg width="48" height="53" viewBox="0 0 48 53" fill="none" xmlns="http://www.w3.org/2000/svg">
<path d="M0 53V33.722L16.1921 23.8209V53H0Z" fill="#EA9D3A"/>
<path d="M29.5604 0V11.1242L29.5028 31.7418L29.4452 53H27.5436V30.5187L25.2387 29.1791L25.1811 53H23.2219V28.0143L20.5712 26.4418L20.5136 53H18.6121V25.2769L16.1919 23.8209V8.21209L29.5604 0Z" fill="#EA9D3A"/>
<path d="M48.0002 11.1242L47.8273 53H45.9258V9.8429L48.0002 11.1242Z" fill="#EA9D3A"/>
<path d="M43.2751 8.21211L43.2175 53H41.2583V6.93079L43.2751 8.21211Z" fill="#A67154"/>
<path d="M38.6652 5.3L38.55 53H36.6484V4.01868L38.6652 5.3Z" fill="#EA9D3A"/>
<path d="M34.5739 2.73737L34.4587 53H32.5571V1.45605L34.5739 2.73737Z" fill="#EA9D3A"/>
</svg>
