<svg width="80" height="80" viewBox="0 0 80 80" fill="none" xmlns="http://www.w3.org/2000/svg">
<path d="M44.4229 47.454C44.622 47.5042 44.826 47.5293 45.0306 47.5288C45.8329 47.5288 46.5867 47.1435 47.0561 46.4929C47.5255 45.8422 47.6543 45.0059 47.4012 44.2443L44.473 35.4275V35.427C46.4846 31.8828 47.5372 27.8752 47.5282 23.8002C47.536 18.623 45.8529 13.5851 42.7351 9.45169C39.6168 5.31927 35.2346 2.31755 30.2548 0.903538C25.2743 -0.510359 19.9684 -0.259471 15.1441 1.61829C10.3199 3.49606 6.24032 6.89811 3.52676 11.3071C0.812638 15.7162 -0.387138 20.8906 0.1097 26.0438C0.606466 31.1971 2.77187 36.0477 6.27771 39.8567C9.78341 43.6662 14.4372 46.2265 19.5313 47.1487C24.626 48.0708 29.882 47.3042 34.5007 44.9654L44.4229 47.454ZM32.9304 40.1375H32.931C30.1461 41.7131 26.9993 42.5388 23.7996 42.5332C18.8314 42.5332 14.0663 40.5595 10.5532 37.0466C7.04018 33.5336 5.06653 28.7683 5.06653 23.8001C5.06653 18.8318 7.04018 14.0667 10.5532 10.5536C14.0661 7.04062 18.8314 5.06697 23.7996 5.06697C28.7679 5.06697 33.533 7.04062 37.0461 10.5536C40.5591 14.0666 42.5328 18.8318 42.5328 23.8001C42.5434 27.3338 41.5387 30.7966 39.6375 33.7755C39.2305 34.41 39.1318 35.1939 39.3693 35.9097L41.2271 41.5018L34.7753 39.8844H34.7748C34.1509 39.7267 33.4897 39.817 32.931 40.137L32.9304 40.1375ZM37.0116 24.0848C37.4181 23.5619 37.6004 22.8984 37.5179 22.2411C37.4359 21.5837 37.0958 20.986 36.5728 20.5796L33.7908 18.4158V13.8095C33.7908 12.9169 33.3146 12.0923 32.5419 11.6463C31.7691 11.2003 30.8169 11.2003 30.0441 11.6463C29.2714 12.0923 28.7953 12.9169 28.7953 13.8095V14.5304L25.333 11.8375C24.8942 11.4969 24.355 11.3124 23.7998 11.3124C23.2445 11.3124 22.7053 11.4969 22.2666 11.8375L11.0267 20.5797C10.3532 21.101 9.99249 21.93 10.0705 22.7785C10.1486 23.6266 10.6543 24.3758 11.412 24.7656C12.1691 25.1553 13.0735 25.1313 13.8088 24.7015V28.7961C13.8099 30.1208 14.3368 31.3903 15.2735 32.3269C16.2102 33.2635 17.4796 33.7904 18.8043 33.7916H28.7953C30.12 33.7905 31.3895 33.2636 32.3261 32.3269C33.2627 31.3902 33.7897 30.1208 33.7908 28.7961V24.6765C34.3037 25.001 34.9204 25.1198 35.517 25.0099C36.1141 24.9006 36.6476 24.57 37.0118 24.085L37.0116 24.0848ZM26.2976 28.796V27.5471C26.2976 26.6545 25.8214 25.83 25.0487 25.3839C24.2759 24.9379 23.3237 24.9379 22.5509 25.3839C21.7782 25.83 21.3021 26.6545 21.3021 27.5471V28.796H18.8043V20.8596L23.7998 16.9747L28.7953 20.8596V28.796H26.2976ZM70.0081 32.5426H62.5149C60.5284 32.5449 58.6233 33.3349 57.219 34.7399C55.814 36.1444 55.0239 38.0495 55.0217 40.0359V45.0314C55.0239 46.8076 55.6561 48.5259 56.8058 49.8797C57.956 51.234 59.5489 52.1361 61.3011 52.426C59.2974 56.206 56.2053 59.2981 52.4251 61.302C52.1352 59.5497 51.2331 57.9567 49.8789 56.8066C48.5252 55.657 46.8069 55.0248 45.0305 55.0225H40.035C38.0485 55.0247 36.1434 55.8148 34.7391 57.2198C33.3341 58.6242 32.5441 60.5294 32.5418 62.5158V70.009C32.5345 72.6395 33.5676 75.1662 35.4159 77.0378C37.2641 78.9094 39.7775 79.9743 42.4079 80H42.5328C49.1234 80 55.5974 78.261 61.3016 74.9594C67.0057 71.6577 71.738 66.9098 75.0208 61.1945C78.3035 55.4798 80.0207 48.9997 79.999 42.4086C79.9734 39.7781 78.9085 37.2648 77.0368 35.4166C75.1652 33.5684 72.6385 32.5352 70.008 32.5425L70.0081 32.5426ZM65.4932 65.4944C62.4854 68.5195 58.907 70.9175 54.9659 72.55C51.0247 74.1825 46.7985 75.0171 42.5329 75.0048H42.4253C41.1162 74.9858 39.8679 74.45 38.9519 73.5146C38.0364 72.5785 37.5279 71.3184 37.5374 70.0093V62.516C37.5385 61.8537 37.8017 61.2192 38.27 60.7509C38.7383 60.2826 39.3728 60.0194 40.0351 60.0183H45.0306C45.693 60.0194 46.3274 60.2826 46.7957 60.7509C47.2641 61.2192 47.5272 61.8537 47.5283 62.516V65.0355C47.5283 65.8383 47.9142 66.5921 48.5653 67.0615C49.2165 67.531 50.0534 67.6586 50.815 67.4055C54.6743 66.1109 58.1811 63.9388 61.0591 61.0602C63.9376 58.1823 66.1093 54.6754 67.4038 50.8162C67.6575 50.0546 67.5298 49.2178 67.0604 48.5665C66.5909 47.9153 65.8371 47.5295 65.0343 47.5295H62.5149C61.8525 47.5284 61.2181 47.2652 60.7498 46.7969C60.2815 46.3286 60.0183 45.6941 60.0172 45.0318V40.0363C60.0183 39.3739 60.2814 38.7395 60.7498 38.2712C61.2181 37.8028 61.8526 37.5397 62.5149 37.5386H70.0081C71.3172 37.5291 72.5772 38.0375 73.5134 38.953C74.449 39.8691 74.9848 41.1174 75.0036 42.427C75.0298 46.7106 74.2019 50.9568 72.5688 54.9175C70.9358 58.8782 68.5306 62.4737 65.4932 65.4944L65.4932 65.4944Z" fill="#EA9D3A"/>
</svg>
