<svg width="80" height="80" viewBox="0 0 80 80" fill="none" xmlns="http://www.w3.org/2000/svg">
<path d="M21.2495 37.5011C15.6139 37.5011 10.2087 39.7399 6.22372 43.7248C2.23872 47.7102 0 53.1154 0 58.7505C0 64.3857 2.23886 69.7913 6.22372 73.7763C10.2092 77.7613 15.6143 80 21.2495 80C26.8846 80 32.2902 77.7611 36.2752 73.7763C40.2602 69.7908 42.4989 64.3857 42.4989 58.7505C42.4928 53.1165 40.2518 47.7154 36.2679 43.7319C32.284 39.7481 26.8829 37.5071 21.2493 37.5009L21.2495 37.5011ZM21.2495 75.0011C16.9397 75.0011 12.8063 73.2891 9.75887 70.2417C6.71144 67.1943 4.99944 63.0608 4.99944 58.7511C4.99944 54.4414 6.71144 50.308 9.75887 47.2605C12.8063 44.2131 16.9397 42.5011 21.2495 42.5011C25.5592 42.5011 29.6926 44.2131 32.74 47.2605C35.7875 50.308 37.4995 54.4414 37.4995 58.7511C37.4945 63.0591 35.7808 67.1897 32.7345 70.2361C29.6882 73.2826 25.5576 74.9961 21.2495 75.0011ZM29.2673 53.2325C29.7361 53.7018 29.9989 54.3374 29.9989 55.0004C29.9989 55.6633 29.7361 56.2989 29.2673 56.7682L21.7673 64.2683C21.2986 64.737 20.6624 65.0004 19.9995 65.0004C19.3365 65.0004 18.7003 64.737 18.2316 64.2683L14.4816 60.5183C13.8638 59.8838 13.6272 58.9702 13.8599 58.1154C14.0926 57.261 14.7601 56.5937 15.6144 56.361C16.4693 56.1283 17.3828 56.3649 18.0172 56.9826L19.9994 58.9648L25.7315 53.2326C26.2008 52.7639 26.8364 52.501 27.4994 52.501C28.1623 52.501 28.7979 52.7639 29.2672 53.2326L29.2673 53.2325ZM76.2503 16.4425V7.49989C76.2503 4.82017 74.8205 2.34417 72.5003 1.00488C70.18 -0.334961 67.3205 -0.334961 65.0002 1.00488C62.68 2.34417 61.2502 4.82017 61.2502 7.49989V8.03449L49.9148 1.6862C47.6358 0.420568 44.8645 0.420568 42.5855 1.6862L16.3355 16.3862C15.1731 17.0386 14.2049 17.9889 13.5307 19.1391C12.8566 20.2892 12.5012 21.5978 12.5 22.9309C12.4989 25.1932 13.4437 27.3522 15.1061 28.8868C16.7679 30.4214 18.9956 31.1915 21.2501 31.0107V32.5001C21.2501 33.3935 21.7266 34.2188 22.5001 34.6652C23.2735 35.1117 24.2266 35.1117 25.0001 34.6652C25.7735 34.2188 26.2501 33.3935 26.2501 32.5001V29.0654L45.0287 18.5492C45.7882 18.1268 46.7111 18.1268 47.4707 18.5492L66.2493 29.0654V53.7497C66.2487 54.4126 65.9848 55.0477 65.516 55.5164C65.0473 55.9851 64.4122 56.2491 63.7493 56.2497H56.2493V39.9996C56.2471 38.0114 55.4563 36.1045 54.05 34.6989C52.6443 33.2927 50.7374 32.5019 48.7493 32.4996H43.7493C42.3168 32.5024 40.9144 32.9143 39.708 33.6866C38.5009 34.4583 37.5394 35.5593 36.9368 36.859C36.65 37.4617 36.6165 38.1548 36.8436 38.7832C37.0713 39.411 37.5401 39.9221 38.1467 40.2017C38.7532 40.4818 39.4463 40.5075 40.0719 40.2731C40.6969 40.0393 41.2031 39.5644 41.476 38.955C41.6774 38.5209 41.9983 38.1537 42.4006 37.8959C42.8035 37.6381 43.2712 37.5008 43.7494 37.4997H48.7494C49.4124 37.5002 50.0474 37.7642 50.5161 38.2329C50.9849 38.7017 51.2488 39.3367 51.2494 39.9996V56.2497H48.7494C47.856 56.2497 47.0307 56.7262 46.5842 57.4997C46.1378 58.2731 46.1378 59.2262 46.5842 59.9997C47.0307 60.7731 47.856 61.2497 48.7494 61.2497H63.7494C65.7377 61.2474 67.6446 60.4567 69.0501 59.0504C70.4564 57.6447 71.2471 55.7378 71.2494 53.7497V31.0096C71.4637 31.0269 71.678 31.0509 71.8928 31.0509C74.0424 31.0431 76.1021 30.1843 77.6205 28.6631C79.1395 27.1414 79.995 25.0811 79.9994 22.9309C79.9961 20.2541 78.567 17.7819 76.2494 16.4426L76.2503 16.4425ZM66.2502 7.49989C66.2502 6.60648 66.7268 5.78118 67.5002 5.33475C68.2737 4.88832 69.2268 4.88832 70.0003 5.33475C70.7737 5.78118 71.2503 6.60651 71.2503 7.49989V13.6343L66.2502 10.834V7.49989ZM73.4628 25.6128C72.9969 25.8923 72.4645 26.0425 71.9215 26.048C71.378 26.0531 70.8434 25.913 70.3718 25.6424L49.9146 14.1865C47.6356 12.9209 44.8644 12.9209 42.5854 14.1865L22.1282 25.6429C21.1656 26.1825 19.9886 26.1714 19.0366 25.6134C18.0846 25.0553 17.4997 24.0346 17.4997 22.9309C17.5003 22.4867 17.6186 22.0509 17.8435 21.6675C18.0678 21.2841 18.3904 20.9677 18.7776 20.7501L45.0291 6.05009C45.7886 5.62821 46.7115 5.62821 47.4711 6.05009L73.7211 20.7501C74.109 20.9672 74.4315 21.2836 74.6564 21.667C74.8813 22.0503 75.0002 22.4867 75.0002 22.9309C75.0057 23.4745 74.8662 24.0091 74.5956 24.4806C74.3255 24.9516 73.9349 25.3428 73.4633 25.6129L73.4628 25.6128Z" fill="#EA9D3A"/>
</svg>
