<svg width="80" height="80" viewBox="0 0 80 80" fill="none" xmlns="http://www.w3.org/2000/svg">
<path d="M75.1867 40.2828L71.2503 38.8932V33.7504C71.2503 32.857 70.7737 32.0317 70.0003 31.5852C69.2268 31.1388 68.2737 31.1388 67.5003 31.5852C66.7268 32.0317 66.2503 32.857 66.2503 33.7504V37.1287L58.6515 34.4462C57.0974 33.8999 55.4033 33.8999 53.8491 34.4462L37.3134 40.2817C35.1544 41.0428 33.4847 42.7834 32.814 44.972C32.1427 47.1605 32.5506 49.5378 33.9127 51.3782C35.2749 53.2181 37.4289 54.303 39.7186 54.3007C39.8124 54.3007 39.9061 54.2806 39.9999 54.2767V63.7504C40.0021 65.7387 40.7928 67.6455 42.1991 69.0511C43.6048 70.4574 45.5117 71.2481 47.4999 71.2504H64.9999C66.9881 71.2482 68.895 70.4574 70.3006 69.0511C71.7068 67.6454 72.4976 65.7385 72.4999 63.7504V54.2822C74.819 54.3766 77.0411 53.3487 78.4708 51.52C79.9 49.6918 80.3614 47.2867 79.7103 45.059C79.0591 42.8312 77.3754 41.0534 75.1862 40.2827L75.1867 40.2828ZM65.0003 66.2499H47.5003C46.8373 66.2493 46.2017 65.9854 45.733 65.5172C45.2648 65.0485 45.0008 64.4128 45.0003 63.7499V52.8716L55.5126 49.1618V49.1612C55.9902 48.9932 56.5103 48.9932 56.988 49.1612L67.5003 52.8711V63.7499C67.4997 64.4129 67.2358 65.0485 66.7676 65.5172C66.2988 65.9854 65.6632 66.2494 65.0003 66.2499L65.0003 66.2499ZM74.0644 48.8942C73.4796 49.3138 72.7257 49.4187 72.0483 49.1749L58.6515 44.446C57.0974 43.8997 55.4033 43.8997 53.8491 44.446L40.4524 49.1753C39.7749 49.4141 39.0227 49.3098 38.4363 48.8946C37.8492 48.4794 37.5004 47.8053 37.5004 47.086C37.501 46.6279 37.6433 46.1815 37.9078 45.807C38.1723 45.4331 38.5462 45.1502 38.9781 44.9973L55.5124 39.1613C55.9901 38.9933 56.5102 38.9933 56.9878 39.1613L73.5221 44.9977C73.954 45.1506 74.3279 45.4336 74.5924 45.8075C74.8569 46.1813 74.9992 46.6278 74.9998 47.0859C75.0043 47.8058 74.6544 48.4821 74.064 48.8939L74.0644 48.8942ZM11.2501 18.7499C11.2501 18.087 11.5135 17.4508 11.9823 16.982C12.451 16.5133 13.0872 16.2499 13.7501 16.2499H27.5001C28.3935 16.2499 29.2188 16.7265 29.6653 17.4999C30.1117 18.2733 30.1117 19.2265 29.6653 19.9999C29.2188 20.7733 28.3935 21.2499 27.5001 21.2499H13.7501C13.0872 21.2499 12.451 20.9865 11.9823 20.5178C11.5135 20.049 11.2501 19.4128 11.2501 18.7499ZM13.7501 32.4999H27.5001C28.3935 32.4999 29.2188 32.0233 29.6653 31.2499C30.1117 30.4765 30.1117 29.5233 29.6653 28.7499C29.2188 27.9765 28.3935 27.4999 27.5001 27.4999H13.7501C12.8567 27.4999 12.0314 27.9765 11.585 28.7499C11.1385 29.5233 11.1385 30.4765 11.585 31.2499C12.0314 32.0233 12.8567 32.4999 13.7501 32.4999ZM47.5001 29.9999C47.5001 29.337 47.2367 28.7008 46.768 28.232C46.2992 27.7633 45.6631 27.4999 45.0001 27.4999H35.0001C34.1067 27.4999 33.2814 27.9765 32.835 28.7499C32.3885 29.5233 32.3885 30.4765 32.835 31.2499C33.2814 32.0233 34.1067 32.4999 35.0001 32.4999H45.0001C45.6631 32.4999 46.2992 32.2365 46.768 31.7678C47.2367 31.299 47.5001 30.6628 47.5001 29.9999ZM27.5001 38.7499H25.0001C24.1067 38.7499 23.2814 39.2265 22.835 39.9999C22.3885 40.7733 22.3885 41.7265 22.835 42.4999C23.2814 43.2733 24.1067 43.7499 25.0001 43.7499H27.5001C28.3935 43.7499 29.2188 43.2733 29.6653 42.4999C30.1117 41.7265 30.1117 40.7733 29.6653 39.9999C29.2188 39.2265 28.3935 38.7499 27.5001 38.7499ZM13.7501 43.7499H17.5001C18.3935 43.7499 19.2188 43.2733 19.6653 42.4999C20.1117 41.7265 20.1117 40.7733 19.6653 39.9999C19.2188 39.2265 18.3935 38.7499 17.5001 38.7499H13.7501C12.8567 38.7499 12.0314 39.2265 11.585 39.9999C11.1385 40.7733 11.1385 41.7265 11.585 42.4999C12.0314 43.2733 12.8567 43.7499 13.7501 43.7499ZM30.0001 52.4999C30.0001 51.837 29.7367 51.2008 29.268 50.732C28.7992 50.2633 28.1631 49.9999 27.5001 49.9999H13.7501C12.8567 49.9999 12.0314 50.4765 11.585 51.2499C11.1385 52.0233 11.1385 52.9765 11.585 53.7499C12.0314 54.5233 12.8567 54.9999 13.7501 54.9999H27.5001C28.1631 54.9999 28.7992 54.7365 29.268 54.2678C29.7367 53.799 30.0001 53.1628 30.0001 52.4999ZM26.2501 66.2499H33.7501C34.6435 66.2499 35.4688 65.7733 35.9153 64.9999C36.3617 64.2265 36.3617 63.2733 35.9153 62.4999C35.4688 61.7265 34.6435 61.2499 33.7501 61.2499H26.2501C25.3567 61.2499 24.5314 61.7265 24.085 62.4999C23.6385 63.2733 23.6385 64.2265 24.085 64.9999C24.5314 65.7733 25.3567 66.2499 26.2501 66.2499ZM13.7501 61.2499C12.8567 61.2499 12.0314 61.7265 11.585 62.4999C11.1385 63.2733 11.1385 64.2265 11.585 64.9999C12.0314 65.7733 12.8567 66.2499 13.7501 66.2499H18.7501C19.6435 66.2499 20.4688 65.7733 20.9153 64.9999C21.3617 64.2265 21.3617 63.2733 20.9153 62.4999C20.4688 61.7265 19.6435 61.2499 18.7501 61.2499H13.7501ZM60.0001 22.4999V28.7499C60.0001 29.6433 59.5236 30.4686 58.7501 30.915C57.9767 31.3615 57.0235 31.3615 56.2501 30.915C55.4767 30.4686 55.0001 29.6433 55.0001 28.7499V24.9999H42.5001C40.5118 24.9977 38.605 24.2069 37.1994 22.8006C35.7931 21.3949 35.0024 19.488 35.0001 17.4999V4.9999H7.50011C6.83717 5.00046 6.20157 5.26441 5.73283 5.7326C5.26464 6.20134 5.00069 6.83696 5.00013 7.49989V72.4999C5.00069 73.1628 5.26464 73.7984 5.73283 74.2672C6.20157 74.7354 6.83719 74.9993 7.50011 74.9999H52.5001C53.1145 75.0004 53.7071 74.7744 54.1653 74.3654C54.658 73.9134 55.3109 73.6779 55.9788 73.7114C56.6462 73.7443 57.2729 74.044 57.7183 74.5423C58.1636 75.0406 58.3912 75.6969 58.3494 76.3643C58.3075 77.0312 58.0006 77.6539 57.4967 78.0932C56.1223 79.3225 54.3433 80.001 52.5 80H7.5C5.51171 79.9978 3.60486 79.207 2.19929 77.8007C0.793028 76.395 0.00228571 74.4881 0 72.5V7.5C0.00223214 5.51171 0.792971 3.60486 2.19929 2.19929C3.60497 0.793029 5.51186 0.00228571 7.5 0H37.5C38.1629 0 38.7991 0.2634 39.2679 0.732143L59.2679 20.7321C59.7366 21.2009 60 21.8371 60 22.5L60.0001 22.4999ZM51.4644 19.9999L40.0001 8.53561V17.4999C40.0007 18.1628 40.2646 18.7984 40.7328 19.2672C41.2016 19.7354 41.8372 19.9993 42.5001 19.9999L51.4644 19.9999Z" fill="#EA9D3A"/>
</svg>
