<svg width="80" height="80" viewBox="0 0 80 80" fill="none" xmlns="http://www.w3.org/2000/svg">
<path d="M10 46.25C10 45.5871 10.2634 44.9509 10.7321 44.4822C11.2009 44.0134 11.8371 43.75 12.5 43.75C13.1629 43.75 13.7991 44.0134 14.2679 44.4822C14.7366 44.9509 15 45.5871 15 46.25C15 46.913 14.7366 47.5491 14.2679 48.0179C13.7991 48.4866 13.1629 48.75 12.5 48.75C11.8371 48.75 11.2009 48.4866 10.7321 48.0179C10.2634 47.5491 10 46.913 10 46.25ZM47.5 48.75C48.1629 48.75 48.7991 48.4866 49.2678 48.0179C49.7366 47.5491 50 46.913 50 46.25C50 45.5871 49.7366 44.9509 49.2678 44.4822C48.7991 44.0134 48.1629 43.75 47.5 43.75C46.837 43.75 46.2009 44.0134 45.7321 44.4822C45.2634 44.9509 45 45.5871 45 46.25C45 46.913 45.2634 47.5491 45.7321 48.0179C46.2009 48.4866 46.837 48.75 47.5 48.75ZM80 16.4286C80 18.6306 79.1255 20.7422 77.5685 22.2997C76.0121 23.8566 73.9011 24.7322 71.6991 24.7333C71.549 24.7333 71.3989 24.721 71.2499 24.7121V41.2507C71.2555 43.2407 70.4642 45.1502 69.0529 46.5537C68.4179 47.1692 67.5055 47.4035 66.6528 47.1703C65.8 46.937 65.1338 46.2713 64.9005 45.418C64.6672 44.5653 64.9016 43.653 65.5177 43.0184C65.9881 42.5503 66.2515 41.9141 66.2498 41.2506V23.192L53.4278 18.0642C52.8318 17.8248 52.1667 17.8248 51.5707 18.0642L38.7498 23.193V24.9999C38.7498 25.8933 38.2733 26.7186 37.4998 27.165C36.7264 27.6114 35.7732 27.6114 34.9998 27.165C34.2264 26.7186 33.7498 25.8933 33.7498 24.9999V24.7063C31.1092 24.8514 28.5572 23.7281 26.8804 21.6829C25.2035 19.6378 24.602 16.9156 25.2621 14.3542C25.9217 11.7928 27.7632 9.69963 30.2197 8.71921L49.714 0.921781C51.5008 0.20191 53.4968 0.20191 55.2842 0.920107L66.2497 5.30739V2.49996C66.2497 1.60655 66.7262 0.78125 67.4997 0.334821C68.2731 -0.111607 69.2262 -0.111607 69.9997 0.334821C70.7731 0.78125 71.2497 1.60658 71.2497 2.49996V7.30796L74.7809 8.72035C76.3251 9.33195 77.6487 10.3945 78.5795 11.7695C79.5103 13.1439 80.0053 14.7678 79.9997 16.4279L80 16.4286ZM75 16.4286C75.0022 15.7684 74.8052 15.1228 74.4347 14.5759C74.0642 14.029 73.5379 13.606 72.9235 13.3633L53.4278 5.56298C52.8313 5.32526 52.1667 5.32581 51.5707 5.5641L32.0764 13.3632C30.981 13.8013 30.2026 14.7907 30.034 15.9587C29.866 17.1266 30.3337 18.2957 31.2611 19.0251C32.1885 19.7545 33.4347 19.9341 34.5301 19.4955L49.7144 13.4212C51.5018 12.7036 53.4972 12.7036 55.2847 13.4212L70.4718 19.4955V19.4972C71.4891 19.9035 72.6425 19.779 73.5494 19.1641C74.4567 18.5491 75.0002 17.5245 74.9997 16.4286L75 16.4286ZM60 37.5V72.5C59.9977 74.4883 59.207 76.3951 57.8007 77.8007C56.395 79.207 54.4881 79.9977 52.5 80H7.5C5.51171 79.9978 3.60486 79.207 2.19928 77.8007C0.793028 76.395 0.00228571 74.4881 0 72.5V37.5C0.00223214 35.5117 0.792971 33.6049 2.19928 32.1993C3.60497 30.793 5.51186 30.0023 7.5 30H52.5C54.4883 30.0023 56.3951 30.793 57.8007 32.1993C59.207 33.605 59.9977 35.5119 60 37.5ZM55 62.0629C54.1975 62.3508 53.3521 62.4987 52.5 62.5004H7.5C6.64788 62.4987 5.80243 62.3508 5 62.0629V63.7503C5.00056 64.4132 5.26451 65.0483 5.73325 65.517C6.202 65.9857 6.83705 66.2497 7.49997 66.2503H52.5C53.1629 66.2491 53.7979 65.9857 54.2667 65.517C54.7354 65.0483 54.9988 64.4132 54.9999 63.7503L55 62.0629ZM5 55.0003C5.00056 55.6632 5.26451 56.2983 5.73325 56.767C6.202 57.2357 6.83705 57.4997 7.49997 57.5003H52.5C53.1629 57.4991 53.7979 57.2358 54.2667 56.767C54.7354 56.2983 54.9988 55.6632 54.9999 55.0003V37.5003C54.9988 36.8374 54.7354 36.2023 54.2667 35.7336C53.7979 35.2649 53.1629 35.0014 52.5 35.0003H7.49997C6.83703 35.0009 6.20198 35.2648 5.73325 35.7336C5.26453 36.2023 5.00056 36.8374 5 37.5003V55.0003ZM55 72.5003V70.8129C54.1975 71.1008 53.3521 71.2487 52.5 71.2504H7.5C6.64788 71.2487 5.80243 71.1008 5 70.8129V72.5003C5.00056 73.1632 5.26451 73.7983 5.73325 74.267C6.202 74.7357 6.83705 74.9997 7.49997 75.0003H52.5C53.1629 74.9991 53.7979 74.7357 54.2667 74.267C54.7354 73.7983 54.9988 73.1632 54.9999 72.5003H55ZM28.5171 48.7503H31.4843C32.0451 48.7514 32.4999 49.2062 32.5005 49.767C32.5016 50.0589 32.3766 50.3368 32.1567 50.5288C31.9368 50.7196 31.6472 50.8094 31.3576 50.7754L25.3102 50.0198H25.3107C24.6483 49.9283 23.977 50.1063 23.4463 50.5131C22.9162 50.9205 22.5707 51.5226 22.4882 52.1861C22.405 52.8496 22.5914 53.5187 23.0055 54.0438C23.419 54.569 24.0261 54.9066 24.6902 54.9808L30.7376 55.7364C30.9848 55.7676 31.2343 55.7832 31.4837 55.7827C33.6327 55.7827 35.6193 54.6365 36.6941 52.7748C37.7689 50.9138 37.7689 48.6203 36.6941 46.7587C35.6199 44.8971 33.6338 43.7503 31.4843 43.7503H28.5171C27.9557 43.7497 27.5009 43.2949 27.5004 42.7335C27.4993 42.4417 27.6243 42.1638 27.8441 41.9718C28.0646 41.7815 28.3542 41.6922 28.6432 41.7251L34.6907 42.4807H34.6901C35.5707 42.5795 36.4368 42.2051 36.9685 41.4969C37.4998 40.7882 37.617 39.8518 37.276 39.0343C36.9356 38.2168 36.1878 37.6409 35.3106 37.5198L29.2626 36.7642C27.6153 36.5583 25.9557 37.0426 24.6772 38.1024C23.3993 39.1621 22.6157 40.7034 22.5126 42.3608C22.4094 44.0176 22.9958 45.6436 24.1332 46.8541C25.2699 48.0639 26.8569 48.7502 28.5172 48.7502L28.5171 48.7503Z" fill="#EA9D3A"/>
</svg>
