<svg width="40" height="40" viewBox="0 0 40 40" fill="none" xmlns="http://www.w3.org/2000/svg">
<path fill-rule="evenodd" clip-rule="evenodd" d="M12.442 1.77675C14.397 1.68675 15.0203 1.66675 20.0003 1.66675C24.9803 1.66675 25.6037 1.68841 27.557 1.77675C29.5103 1.86508 30.8437 2.17675 32.0103 2.62841C33.232 3.09008 34.3403 3.81175 35.257 4.74508C36.1903 5.66008 36.9103 6.76675 37.3703 7.99008C37.8237 9.15675 38.1337 10.4901 38.2237 12.4401C38.3137 14.3984 38.3337 15.0217 38.3337 20.0001C38.3337 24.9801 38.312 25.6034 38.2237 27.5584C38.1353 29.5084 37.8237 30.8417 37.3703 32.0084C36.9103 33.2319 36.1891 34.3404 35.257 35.2567C34.3403 36.1901 33.232 36.9101 32.0103 37.3701C30.8437 37.8234 29.5103 38.1334 27.5603 38.2234C25.6037 38.3134 24.9803 38.3334 20.0003 38.3334C15.0203 38.3334 14.397 38.3117 12.442 38.2234C10.492 38.1351 9.15866 37.8234 7.99199 37.3701C6.76853 36.91 5.66003 36.1888 4.74366 35.2567C3.81096 34.3412 3.08918 33.2332 2.62866 32.0101C2.17699 30.8434 1.86699 29.5101 1.77699 27.5601C1.68699 25.6017 1.66699 24.9784 1.66699 20.0001C1.66699 15.0201 1.68866 14.3967 1.77699 12.4434C1.86533 10.4901 2.17699 9.15675 2.62866 7.99008C3.08986 6.76688 3.81219 5.65894 4.74533 4.74341C5.66039 3.81092 6.76778 3.08915 7.99032 2.62841C9.15699 2.17675 10.4903 1.86675 12.4403 1.77675H12.442ZM27.4087 5.07675C25.4753 4.98841 24.8953 4.97008 20.0003 4.97008C15.1053 4.97008 14.5253 4.98841 12.592 5.07675C10.8037 5.15841 9.83366 5.45675 9.18699 5.70841C8.33199 6.04175 7.72033 6.43675 7.07866 7.07841C6.4704 7.67017 6.00229 8.39055 5.70866 9.18675C5.45699 9.83341 5.15866 10.8034 5.07699 12.5917C4.98866 14.5251 4.97033 15.1051 4.97033 20.0001C4.97033 24.8951 4.98866 25.4751 5.07699 27.4084C5.15866 29.1967 5.45699 30.1667 5.70866 30.8134C6.00199 31.6084 6.47033 32.3301 7.07866 32.9217C7.67033 33.5301 8.39199 33.9984 9.18699 34.2917C9.83366 34.5434 10.8037 34.8417 12.592 34.9234C14.5253 35.0117 15.1037 35.0301 20.0003 35.0301C24.897 35.0301 25.4753 35.0117 27.4087 34.9234C29.197 34.8417 30.167 34.5434 30.8137 34.2917C31.6687 33.9584 32.2803 33.5634 32.922 32.9217C33.5303 32.3301 33.9987 31.6084 34.292 30.8134C34.5437 30.1667 34.842 29.1967 34.9237 27.4084C35.012 25.4751 35.0303 24.8951 35.0303 20.0001C35.0303 15.1051 35.012 14.5251 34.9237 12.5917C34.842 10.8034 34.5437 9.83341 34.292 9.18675C33.9587 8.33175 33.5637 7.72008 32.922 7.07841C32.3302 6.4702 31.6098 6.0021 30.8137 5.70841C30.167 5.45675 29.197 5.15841 27.4087 5.07675ZM17.6587 25.6517C18.9664 26.1961 20.4226 26.2696 21.7785 25.8596C23.1345 25.4496 24.306 24.5816 25.093 23.4038C25.88 22.226 26.2337 20.8115 26.0937 19.4019C25.9537 17.9923 25.3287 16.675 24.3253 15.6751C23.6857 15.0359 22.9123 14.5464 22.0609 14.242C21.2094 13.9375 20.301 13.8257 19.4011 13.9144C18.5013 14.0032 17.6322 14.2904 16.8567 14.7553C16.0811 15.2202 15.4182 15.8513 14.9158 16.6032C14.4134 17.355 14.084 18.2089 13.9512 19.1033C13.8184 19.9978 13.8856 20.9106 14.1479 21.7759C14.4102 22.6413 14.8611 23.4378 15.4682 24.1079C16.0753 24.7781 16.8234 25.3054 17.6587 25.6517ZM13.337 13.3367C14.212 12.4617 15.2509 11.7676 16.3942 11.294C17.5375 10.8204 18.7628 10.5767 20.0003 10.5767C21.2378 10.5767 22.4632 10.8204 23.6065 11.294C24.7498 11.7676 25.7886 12.4617 26.6637 13.3367C27.5387 14.2118 28.2328 15.2506 28.7064 16.3939C29.18 17.5372 29.4237 18.7626 29.4237 20.0001C29.4237 21.2376 29.18 22.463 28.7064 23.6062C28.2328 24.7495 27.5387 25.7884 26.6637 26.6634C24.8964 28.4306 22.4996 29.4235 20.0003 29.4235C17.5011 29.4235 15.1042 28.4306 13.337 26.6634C11.5698 24.8962 10.5769 22.4993 10.5769 20.0001C10.5769 17.5008 11.5698 15.104 13.337 13.3367ZM31.5137 11.9801C31.7305 11.7755 31.9041 11.5295 32.0242 11.2567C32.1442 10.9839 32.2083 10.6897 32.2127 10.3916C32.217 10.0936 32.1615 9.79766 32.0495 9.52143C31.9374 9.2452 31.771 8.99427 31.5603 8.78348C31.3495 8.57269 31.0985 8.40634 30.8223 8.29428C30.5461 8.18221 30.2502 8.12671 29.9521 8.13105C29.654 8.1354 29.3599 8.1995 29.087 8.31957C28.8142 8.43965 28.5682 8.61324 28.3637 8.83008C27.9658 9.2518 27.748 9.81195 27.7565 10.3916C27.7649 10.9713 27.999 11.5249 28.4089 11.9348C28.8189 12.3448 29.3724 12.5788 29.9521 12.5872C30.5318 12.5957 31.0919 12.3779 31.5137 11.9801Z" fill="#EA9D3A"/>
</svg>
