<svg width="134" height="76" viewBox="0 0 134 76" fill="none" xmlns="http://www.w3.org/2000/svg">
<mask id="path-1-inside-1_117_1132" fill="white">
<path d="M133.952 0.0381233L133.308 0.298007L133.057 0.396778L132.28 0.353473L131.55 0.699967L130.258 1.58881L130.203 1.62867L129.719 1.75515L129.272 1.5611L129.017 1.67891L128.931 2.19873L128.691 2.57816L128.393 2.78781L127.361 2.89177L126.49 3.3457L125.36 3.04077L124.833 3.24693L123.715 4.26225L123.146 4.53429L122.946 4.52219L122.191 4.48232L121.869 4.58976L121.391 5.05237L120.487 5.12338L120.205 5.32092L119.765 6.21494L119.286 6.71219L119.015 6.77109L118.72 6.66021L118.497 6.70008L118.395 7.27357L118.178 7.51093L117.575 7.72058L117.091 8.12777L116.668 8.3461L116.098 8.3305H115.969L115.402 8.64579L114.34 8.74113L113.896 9.16736L113.798 9.25746L113.593 9.38394L113.249 9.58661L113.167 9.63515L112.755 9.56065L112.281 9.75121L112.088 9.45151L111.758 9.65249L111.322 9.67153L110.777 9.42724L110.361 9.23837L110.058 9.28517L109.953 9.81535L109.941 9.87425L109.623 10.3005L109.029 10.6643L108.946 10.7683L108.269 11.6502L106.983 13.0138L105.892 13.5682L104.766 13.9147L103.976 14.5679L101.911 15.6075L98.6423 17.2483L97.9748 17.4649L97.0129 17.6191L95.3046 18.255L93.7956 18.7107L93.7097 18.7384L93.4086 18.8285L91.2804 19.48L90.291 19.3725L89.7028 19.5891L88.1749 19.4158L87.1117 19.4366L86.4407 19.5752L85.1762 20.1851L83.0445 21.2247L82.3407 21.8727L81.2413 22.4497L79.9578 22.8603V22.318L79.9492 22.2937L79.5019 22.4358L79.1801 22.5398L78.1393 22.7009H77.5613L77.1998 22.5952L77.1448 22.6143L75.0131 23.3212L72.6372 23.5516L71.4501 23.9345L70.5624 23.9224L70.0083 24.0957L68.9175 24.2291L68.5287 24.1234L68.4393 24.0991L65.2356 24.2412L63.7716 24.0679L63.073 24.2291L61.8997 23.8306L60.1947 23.6296L59.7938 23.51L58.8941 23.2415L58.4896 23.4788L58.1834 23.51L57.4573 23.245H57.1975L56.5971 23.4632L56.2531 23.3731L55.9313 23.1167L55.1811 23.0024L54.7218 22.6143L52.1583 22.9608L51.4701 22.7581L49.1405 22.065L48.7707 22.0841L48.3078 22.4306L47.6195 22.687L47.0174 22.8447L46.1969 22.8724L45.2436 22.6194L44.2613 22.1378L43.8965 22.0511L43.0844 22.1343L42.8368 22.1551L41.3486 21.3494L39.4283 20.1366L38.126 19.5042L37.6356 19.4245L37.5703 19.6584L37.8129 20.4259L37.8954 21.1883L37.8713 21.8918L37.8559 22.3267L37.9779 22.7182L38.4494 23.238L38.6456 23.7578L38.7867 25.2098V26.6808L38.5561 29.0284L38.4803 29.375L38.2085 30.5878L37.9607 31.7036L36.994 34.6768L36.7273 35.0441L36.0785 35.4946L34.5989 36.5065L33.5117 37.1354L33.1676 37.2809L32.2849 37.3485L31.7345 37.3208L31.0462 36.9483L30.3752 36.775L29.4944 36.1374L28.5136 35.9347L27.4383 35.3092L27.1596 34.9731L26.5747 34.9177L25.7625 34.6716L25.4649 34.5815L25.2602 34.5191L24.2279 34.4914L23.2627 34.0444L22.7586 33.9214L22.0704 33.885L21.3443 34.2315L20.9728 34.4048L20.5066 34.216L20.1726 34.2385L19.7891 34.8189L19.7425 34.909L19.4794 35.0511H19.1526H18.8945L18.6191 35.1706L18.2457 35.3335L17.9189 35.479L17.7572 35.5501L17.6591 35.5691L17.4871 35.6003L17.2702 35.6436L16.8848 35.4184L16.6802 35.2954L16.336 35.2243L16.152 35.3594L16.1159 35.9919L15.9437 36.3678L15.4104 36.846L14.865 37.3277L14.4882 37.8891L13.4869 40.1935L12.8589 41.1222L12.6627 41.3388L12.0039 42.0699L11.4224 42.5239L10.0803 43.5721L8.80888 44.0503L7.71635 44.2756H7.18647L6.17648 44.1421L5.2734 43.8615L4.27727 43.236L3.18643 42.3506L1.60707 40.7809L1.3834 40.6457L1.33678 40.6145L0.841341 40.294L0.471495 40.3027L0.327001 40.5435L0.247824 40.89L0.180617 41.195L0 42.9432L0.0155415 43.0454L0.110051 43.7644L1.31452 45.452L1.68436 46.3495L1.74632 46.4517L1.99414 46.871L2.18169 47.1881L2.19891 47.2228L2.60992 48.4529L2.32261 49.146L2.46732 49.6121L2.10587 49.8962L2.03888 50.2999L3.11418 51.66L3.34982 52.2578L3.08667 53.0912L2.6702 53.5469L2.55153 53.6733L2.61181 54.0199L3.10389 54.4669L3.94691 55.2223L4.39761 56.345L4.74162 56.6465L5.13919 56.5599L5.35929 56.7331H5.69323L6.02338 57.0658L6.23508 57.168L6.57909 57.3413L6.84582 57.6879L6.90777 58.7638L7.40321 60.0962V60.8204V60.9227L7.71299 61.4563L7.81107 61.879L7.63906 62.9949L8.03474 63.3518L8.45961 63.2652L8.73831 63.3085L9.17893 63.681L9.71385 64.504L10.2404 64.4278L10.5741 64.5889L12.1812 66.053L12.5458 66.2384L12.5647 66.2505L12.828 66.3804L13.1565 66.7131L13.6624 66.3666H13.7175L14.2679 66.3198L14.5107 66.4827L14.9734 66.798H15.5824L16.902 67.2052L17.4802 67.3525L18.6416 68.0801L19.1354 68.3886L19.426 68.6259L19.8148 68.943L20.5891 69.2791L21.2532 69.4403L21.6144 69.5269L21.8864 69.6308V69.6153L21.8778 69.6308L23.3196 70.1853L24.0971 70.3707L24.8198 70.6392L25.336 70.8298H25.7214L26.2666 70.3672L26.7967 70.336L27.2354 70.4469L27.6636 70.3759L28.3399 69.9531L28.4705 69.7556L28.9523 69.5269L30.5714 69.3242L31.0427 69.4784L32.2591 68.9482L33.0729 69.1769L33.792 68.9187L35.3697 69.2652L35.7862 69.565L36.2541 70.1021H36.3127L36.8287 70.1108L36.612 70.4781L37.3002 71.2023L37.9212 72.1483L37.9643 72.2748L38.415 73.6072L38.7592 74.0819L38.9949 74.7421L39.0068 75.1701L38.6387 75.4507L38.5803 75.6119L38.5595 75.6708L38.6336 75.8527L38.7712 75.7765L39.0343 75.6309L39.3527 75.5807L39.9171 75.6396L40.2869 75.6795L40.8754 75.3866L41.2641 75.1891L41.8887 75.4611H42.577L42.8676 75.5911L43.6848 75.9636L44.1013 76L44.2544 75.8977L44.3525 75.6639L44.3042 75.3901L43.9893 75.0297L43.3011 74.2223L43.0191 73.8082L42.8023 73.207L42.7387 72.4429L42.6904 71.9231L42.7765 71.2422L42.9624 71.0014L43.0966 70.4625L43.1308 70.3204L43.5162 69.8007L44.5297 69.144L45.6204 68.1598L46.4806 67.5863L47.3684 67.2017L47.3925 67.0908L47.494 67.1306L49.7513 66.3562H49.7909L50.7957 66.1829L57.5882 66.6646L57.8393 66.5884L58.0664 65.9507L58.1886 65.8329L58.2711 65.7567L59.0161 65.424L59.3603 65.3738L60.3306 65.6146L60.7263 65.7134L61.3628 65.3565H61.8136L62.7444 64.8366L63.319 64.8522L63.5359 64.7621L64.656 63.9513L65.7363 63.6394L66.015 63.4921L66.1167 63.4367L67.2228 62.8476L67.9266 62.3053L68.5321 61.9778L69.1962 61.8045L70.9322 61.6816L71.2762 61.0959L72.023 60.9972L72.4721 60.4774L72.9881 60.2677L73.3598 59.7272L73.6713 59.2767L74.1031 59.0237L75.4932 58.937L77.1414 59.1433L77.3582 59.0081L77.7316 57.6723L78.1204 57.4193L79.1715 55.8807V55.3194V54.8498L79.3437 54.181L79.2267 52.9682L79.3643 51.7553L80.0164 50.196L80.591 49.5705L81.5183 48.9381L81.9898 48.7319L82.6539 48.621L82.7553 48.6019L82.9275 48.5742L85.2276 48.543C85.2586 48.5188 86.0604 48.5309 86.0604 48.5309L86.8295 48.5222L88.7684 48.8688L88.9062 48.893L89.5616 49.1062L90.3152 49.6987L91.117 50.4853L91.2666 50.6326L91.7828 50.8509L91.9393 50.922L92.3677 50.8509L92.9768 50.5338L93.4361 50.1422L94.064 49.7957L94.0796 49.7732L94.4238 49.2361L94.4358 49.2274L94.5769 49.0143L95.7898 48.5396L97.2143 48.4564L97.3744 48.3698L97.4638 48.323L97.8406 47.8759H98.1968L99.0571 48.1879L99.6539 48.0683L100.132 48.2589L100.502 48.2156L101.201 48.1324L101.954 48.6661L102.389 48.7215L103.938 49.6277L104.017 49.6398L104.06 49.6484L104.146 49.664L104.33 49.6086L104.602 49.5289L104.638 49.5202L104.673 49.567L104.845 49.8165L105.087 49.8512L105.373 49.4682L105.259 49.295L105.216 49.2326L104.664 49.1183L104.169 48.2675L104.64 47.7478L103.902 46.8381L103.78 46.6839L103.737 46.6215L103.482 46.23L102.19 44.2444L100.502 42.8912L99.9137 42.4165L99.709 42.2536L98.8092 41.3319L98.1657 40.4655L98.0832 40.2802L97.9523 39.9908L97.567 39.1453L96.896 38.6255L96.3472 38.0243L96.3196 37.9879L95.1927 36.4423L95.007 36.1859L94.7403 36.0283H94.1793L94.1243 35.9728L94.0899 35.9382L94.1107 35.9191L94.3791 35.6471L94.68 35.5708L94.8109 35.2746L94.2363 33.6009V33.542L94.1932 33.0048L94.6611 30.5792L94.7197 30.2829L95.5197 28.649L96.0134 28.2419L96.5519 27.1711L97.0182 26.4901L97.4586 26.0552L97.5378 26.0085L98.3377 25.5216L99.0088 25.4263L99.6489 25.3362L100.767 25.6827L101.83 25.6637L102.038 25.6394L102.52 25.5875L103.314 25.3345L103.69 25.1006L103.883 24.8008L104.287 23.4321L104.418 22.9972L104.666 22.5259L106.114 20.8487L107.207 19.8317L109.662 18.0159L110.866 17.2934L111.482 16.9226L116.967 14.4675L118.39 13.0121L119.135 12.2531L120.45 11.3678L121.988 10.7319L123.311 9.67671L123.598 9.30944L123.961 8.13121L124.264 8.05671L124.536 7.45895L124.615 7.28573L125.692 6.52162L125.814 6.45923L130.007 4.34368L130.616 4.42685L130.943 3.93305L132.164 3.73037L132.388 3.69051L132.687 3.53976L132.942 3.10142V3.01476L132.978 1.84007L133.238 1.52472L133.379 0.750252L133.515 0.576979L133.656 0.391597L134 0.147259L133.942 0L133.952 0.0381233Z"/>
</mask>
<path d="M133.952 0.0381233L133.308 0.298007L133.057 0.396778L132.28 0.353473L131.55 0.699967L130.258 1.58881L130.203 1.62867L129.719 1.75515L129.272 1.5611L129.017 1.67891L128.931 2.19873L128.691 2.57816L128.393 2.78781L127.361 2.89177L126.49 3.3457L125.36 3.04077L124.833 3.24693L123.715 4.26225L123.146 4.53429L122.946 4.52219L122.191 4.48232L121.869 4.58976L121.391 5.05237L120.487 5.12338L120.205 5.32092L119.765 6.21494L119.286 6.71219L119.015 6.77109L118.72 6.66021L118.497 6.70008L118.395 7.27357L118.178 7.51093L117.575 7.72058L117.091 8.12777L116.668 8.3461L116.098 8.3305H115.969L115.402 8.64579L114.34 8.74113L113.896 9.16736L113.798 9.25746L113.593 9.38394L113.249 9.58661L113.167 9.63515L112.755 9.56065L112.281 9.75121L112.088 9.45151L111.758 9.65249L111.322 9.67153L110.777 9.42724L110.361 9.23837L110.058 9.28517L109.953 9.81535L109.941 9.87425L109.623 10.3005L109.029 10.6643L108.946 10.7683L108.269 11.6502L106.983 13.0138L105.892 13.5682L104.766 13.9147L103.976 14.5679L101.911 15.6075L98.6423 17.2483L97.9748 17.4649L97.0129 17.6191L95.3046 18.255L93.7956 18.7107L93.7097 18.7384L93.4086 18.8285L91.2804 19.48L90.291 19.3725L89.7028 19.5891L88.1749 19.4158L87.1117 19.4366L86.4407 19.5752L85.1762 20.1851L83.0445 21.2247L82.3407 21.8727L81.2413 22.4497L79.9578 22.8603V22.318L79.9492 22.2937L79.5019 22.4358L79.1801 22.5398L78.1393 22.7009H77.5613L77.1998 22.5952L77.1448 22.6143L75.0131 23.3212L72.6372 23.5516L71.4501 23.9345L70.5624 23.9224L70.0083 24.0957L68.9175 24.2291L68.5287 24.1234L68.4393 24.0991L65.2356 24.2412L63.7716 24.0679L63.073 24.2291L61.8997 23.8306L60.1947 23.6296L59.7938 23.51L58.8941 23.2415L58.4896 23.4788L58.1834 23.51L57.4573 23.245H57.1975L56.5971 23.4632L56.2531 23.3731L55.9313 23.1167L55.1811 23.0024L54.7218 22.6143L52.1583 22.9608L51.4701 22.7581L49.1405 22.065L48.7707 22.0841L48.3078 22.4306L47.6195 22.687L47.0174 22.8447L46.1969 22.8724L45.2436 22.6194L44.2613 22.1378L43.8965 22.0511L43.0844 22.1343L42.8368 22.1551L41.3486 21.3494L39.4283 20.1366L38.126 19.5042L37.6356 19.4245L37.5703 19.6584L37.8129 20.4259L37.8954 21.1883L37.8713 21.8918L37.8559 22.3267L37.9779 22.7182L38.4494 23.238L38.6456 23.7578L38.7867 25.2098V26.6808L38.5561 29.0284L38.4803 29.375L38.2085 30.5878L37.9607 31.7036L36.994 34.6768L36.7273 35.0441L36.0785 35.4946L34.5989 36.5065L33.5117 37.1354L33.1676 37.2809L32.2849 37.3485L31.7345 37.3208L31.0462 36.9483L30.3752 36.775L29.4944 36.1374L28.5136 35.9347L27.4383 35.3092L27.1596 34.9731L26.5747 34.9177L25.7625 34.6716L25.4649 34.5815L25.2602 34.5191L24.2279 34.4914L23.2627 34.0444L22.7586 33.9214L22.0704 33.885L21.3443 34.2315L20.9728 34.4048L20.5066 34.216L20.1726 34.2385L19.7891 34.8189L19.7425 34.909L19.4794 35.0511H19.1526H18.8945L18.6191 35.1706L18.2457 35.3335L17.9189 35.479L17.7572 35.5501L17.6591 35.5691L17.4871 35.6003L17.2702 35.6436L16.8848 35.4184L16.6802 35.2954L16.336 35.2243L16.152 35.3594L16.1159 35.9919L15.9437 36.3678L15.4104 36.846L14.865 37.3277L14.4882 37.8891L13.4869 40.1935L12.8589 41.1222L12.6627 41.3388L12.0039 42.0699L11.4224 42.5239L10.0803 43.5721L8.80888 44.0503L7.71635 44.2756H7.18647L6.17648 44.1421L5.2734 43.8615L4.27727 43.236L3.18643 42.3506L1.60707 40.7809L1.3834 40.6457L1.33678 40.6145L0.841341 40.294L0.471495 40.3027L0.327001 40.5435L0.247824 40.89L0.180617 41.195L0 42.9432L0.0155415 43.0454L0.110051 43.7644L1.31452 45.452L1.68436 46.3495L1.74632 46.4517L1.99414 46.871L2.18169 47.1881L2.19891 47.2228L2.60992 48.4529L2.32261 49.146L2.46732 49.6121L2.10587 49.8962L2.03888 50.2999L3.11418 51.66L3.34982 52.2578L3.08667 53.0912L2.6702 53.5469L2.55153 53.6733L2.61181 54.0199L3.10389 54.4669L3.94691 55.2223L4.39761 56.345L4.74162 56.6465L5.13919 56.5599L5.35929 56.7331H5.69323L6.02338 57.0658L6.23508 57.168L6.57909 57.3413L6.84582 57.6879L6.90777 58.7638L7.40321 60.0962V60.8204V60.9227L7.71299 61.4563L7.81107 61.879L7.63906 62.9949L8.03474 63.3518L8.45961 63.2652L8.73831 63.3085L9.17893 63.681L9.71385 64.504L10.2404 64.4278L10.5741 64.5889L12.1812 66.053L12.5458 66.2384L12.5647 66.2505L12.828 66.3804L13.1565 66.7131L13.6624 66.3666H13.7175L14.2679 66.3198L14.5107 66.4827L14.9734 66.798H15.5824L16.902 67.2052L17.4802 67.3525L18.6416 68.0801L19.1354 68.3886L19.426 68.6259L19.8148 68.943L20.5891 69.2791L21.2532 69.4403L21.6144 69.5269L21.8864 69.6308V69.6153L21.8778 69.6308L23.3196 70.1853L24.0971 70.3707L24.8198 70.6392L25.336 70.8298H25.7214L26.2666 70.3672L26.7967 70.336L27.2354 70.4469L27.6636 70.3759L28.3399 69.9531L28.4705 69.7556L28.9523 69.5269L30.5714 69.3242L31.0427 69.4784L32.2591 68.9482L33.0729 69.1769L33.792 68.9187L35.3697 69.2652L35.7862 69.565L36.2541 70.1021H36.3127L36.8287 70.1108L36.612 70.4781L37.3002 71.2023L37.9212 72.1483L37.9643 72.2748L38.415 73.6072L38.7592 74.0819L38.9949 74.7421L39.0068 75.1701L38.6387 75.4507L38.5803 75.6119L38.5595 75.6708L38.6336 75.8527L38.7712 75.7765L39.0343 75.6309L39.3527 75.5807L39.9171 75.6396L40.2869 75.6795L40.8754 75.3866L41.2641 75.1891L41.8887 75.4611H42.577L42.8676 75.5911L43.6848 75.9636L44.1013 76L44.2544 75.8977L44.3525 75.6639L44.3042 75.3901L43.9893 75.0297L43.3011 74.2223L43.0191 73.8082L42.8023 73.207L42.7387 72.4429L42.6904 71.9231L42.7765 71.2422L42.9624 71.0014L43.0966 70.4625L43.1308 70.3204L43.5162 69.8007L44.5297 69.144L45.6204 68.1598L46.4806 67.5863L47.3684 67.2017L47.3925 67.0908L47.494 67.1306L49.7513 66.3562H49.7909L50.7957 66.1829L57.5882 66.6646L57.8393 66.5884L58.0664 65.9507L58.1886 65.8329L58.2711 65.7567L59.0161 65.424L59.3603 65.3738L60.3306 65.6146L60.7263 65.7134L61.3628 65.3565H61.8136L62.7444 64.8366L63.319 64.8522L63.5359 64.7621L64.656 63.9513L65.7363 63.6394L66.015 63.4921L66.1167 63.4367L67.2228 62.8476L67.9266 62.3053L68.5321 61.9778L69.1962 61.8045L70.9322 61.6816L71.2762 61.0959L72.023 60.9972L72.4721 60.4774L72.9881 60.2677L73.3598 59.7272L73.6713 59.2767L74.1031 59.0237L75.4932 58.937L77.1414 59.1433L77.3582 59.0081L77.7316 57.6723L78.1204 57.4193L79.1715 55.8807V55.3194V54.8498L79.3437 54.181L79.2267 52.9682L79.3643 51.7553L80.0164 50.196L80.591 49.5705L81.5183 48.9381L81.9898 48.7319L82.6539 48.621L82.7553 48.6019L82.9275 48.5742L85.2276 48.543C85.2586 48.5188 86.0604 48.5309 86.0604 48.5309L86.8295 48.5222L88.7684 48.8688L88.9062 48.893L89.5616 49.1062L90.3152 49.6987L91.117 50.4853L91.2666 50.6326L91.7828 50.8509L91.9393 50.922L92.3677 50.8509L92.9768 50.5338L93.4361 50.1422L94.064 49.7957L94.0796 49.7732L94.4238 49.2361L94.4358 49.2274L94.5769 49.0143L95.7898 48.5396L97.2143 48.4564L97.3744 48.3698L97.4638 48.323L97.8406 47.8759H98.1968L99.0571 48.1879L99.6539 48.0683L100.132 48.2589L100.502 48.2156L101.201 48.1324L101.954 48.6661L102.389 48.7215L103.938 49.6277L104.017 49.6398L104.06 49.6484L104.146 49.664L104.33 49.6086L104.602 49.5289L104.638 49.5202L104.673 49.567L104.845 49.8165L105.087 49.8512L105.373 49.4682L105.259 49.295L105.216 49.2326L104.664 49.1183L104.169 48.2675L104.64 47.7478L103.902 46.8381L103.78 46.6839L103.737 46.6215L103.482 46.23L102.19 44.2444L100.502 42.8912L99.9137 42.4165L99.709 42.2536L98.8092 41.3319L98.1657 40.4655L98.0832 40.2802L97.9523 39.9908L97.567 39.1453L96.896 38.6255L96.3472 38.0243L96.3196 37.9879L95.1927 36.4423L95.007 36.1859L94.7403 36.0283H94.1793L94.1243 35.9728L94.0899 35.9382L94.1107 35.9191L94.3791 35.6471L94.68 35.5708L94.8109 35.2746L94.2363 33.6009V33.542L94.1932 33.0048L94.6611 30.5792L94.7197 30.2829L95.5197 28.649L96.0134 28.2419L96.5519 27.1711L97.0182 26.4901L97.4586 26.0552L97.5378 26.0085L98.3377 25.5216L99.0088 25.4263L99.6489 25.3362L100.767 25.6827L101.83 25.6637L102.038 25.6394L102.52 25.5875L103.314 25.3345L103.69 25.1006L103.883 24.8008L104.287 23.4321L104.418 22.9972L104.666 22.5259L106.114 20.8487L107.207 19.8317L109.662 18.0159L110.866 17.2934L111.482 16.9226L116.967 14.4675L118.39 13.0121L119.135 12.2531L120.45 11.3678L121.988 10.7319L123.311 9.67671L123.598 9.30944L123.961 8.13121L124.264 8.05671L124.536 7.45895L124.615 7.28573L125.692 6.52162L125.814 6.45923L130.007 4.34368L130.616 4.42685L130.943 3.93305L132.164 3.73037L132.388 3.69051L132.687 3.53976L132.942 3.10142V3.01476L132.978 1.84007L133.238 1.52472L133.379 0.750252L133.515 0.576979L133.656 0.391597L134 0.147259L133.942 0L133.952 0.0381233Z" stroke="#EA9D3A" stroke-width="4" mask="url(#path-1-inside-1_117_1132)"/>
</svg>
