<svg width="103" height="80" viewBox="0 0 103 80" fill="none" xmlns="http://www.w3.org/2000/svg">
<path d="M88.2054 55.704H64.8207V48.7294V48.7299C64.819 47.3157 64.2564 45.9604 63.2565 44.961C62.2566 43.9611 60.9013 43.3985 59.4875 43.3962H54.9586L60.1526 30.9735L78.0559 38.4483H78.0553C78.2058 38.5124 78.3678 38.5462 78.5315 38.5473C78.6918 38.5468 78.8503 38.5159 78.9991 38.4569C79.299 38.3281 79.5394 38.0906 79.6722 37.7924C81.9096 32.4421 81.9289 26.4227 79.7271 21.0583C77.5248 15.6938 73.2814 11.4241 67.9305 9.18904C62.5774 6.94889 56.5529 6.92706 51.1847 9.12952C45.8155 11.3313 41.5414 15.5764 39.3028 20.9307C39.17 21.2363 39.1655 21.582 39.2902 21.8911C39.4156 22.1996 39.6594 22.4451 39.9679 22.5716L57.8463 30.0219L52.2584 43.3964H34.8724C34.1924 43.3964 33.6418 43.9475 33.6418 44.6275V55.7047L31.6557 55.7041L23.7293 31.9092H23.7299C23.5576 31.4142 23.0888 31.0839 22.5646 31.0885H14.3595C13.964 31.0885 13.5919 31.2774 13.3584 31.5973C13.1266 31.9178 13.0654 32.3311 13.1942 32.7048L20.8579 55.6792H14.3594C13.6795 55.6792 13.1289 56.2303 13.1289 56.9097V63.0635C13.122 63.3944 13.2485 63.7137 13.4803 63.9501C13.7121 64.1865 14.0286 64.3193 14.3594 64.3193H20.456L18.462 73.0658C18.3802 73.4309 18.4677 73.8138 18.7007 74.1069C18.933 74.3999 19.2856 74.5722 19.6599 74.5756H24.3285C24.9048 74.5751 25.4051 74.1773 25.535 73.6158L27.6515 64.3192H43.5533L40.2137 72.3109H40.2142C40.0586 72.6921 40.1026 73.1253 40.331 73.467C40.5599 73.8093 40.9434 74.0153 41.3544 74.0176C41.8523 74.0176 42.2999 73.7154 42.487 73.2547L46.2284 64.3193H74.9464L77.0635 73.6159C77.1957 74.1756 77.6942 74.5722 78.2694 74.5757H82.938C83.3065 74.5625 83.65 74.3862 83.8755 74.0943C84.1004 73.8024 84.184 73.4258 84.1032 73.0658L82.1093 64.3193H88.2058C88.8858 64.3193 89.4363 63.7682 89.4363 63.0888V56.9349C89.4363 56.255 88.8858 55.7038 88.2058 55.7038L88.2054 55.704ZM77.4401 21.9809C79.2481 26.3486 79.3884 31.2277 77.8338 35.692L69.5714 32.2374C71.1138 28.4056 73.5675 21.0126 70.3922 13.3656C73.5384 15.481 75.9903 18.4778 77.4401 21.9811L77.4401 21.9809ZM67.3067 31.2941L52.7429 25.2141L52.6199 25.1568C54.4004 21.0543 58.1498 13.8009 66.8638 11.7004C71.4999 19.3801 68.9643 27.151 67.3068 31.2945L67.3067 31.2941ZM52.1023 11.4039C55.6114 9.95477 59.4701 9.57244 63.1955 10.3045C55.5158 13.4799 51.9873 20.4212 50.3464 24.253L42.0834 20.7578C44.1651 16.5178 47.7296 13.1897 52.1023 11.404V11.4039ZM52.2088 49.968H62.3587V55.7115H49.821L52.2088 49.968ZM36.0945 45.8655H59.4879C60.0311 45.8649 60.5634 46.0189 61.023 46.3096C61.482 46.6004 61.8489 47.0153 62.0807 47.5064H36.1027L36.0945 45.8655ZM49.5429 49.968L47.147 55.7115H36.1024V49.968H49.5429ZM16.0572 33.5578H21.6696L29.0539 55.7116H23.4495L16.0572 33.5578ZM23.3432 72.1219H21.2015L22.982 64.3272H25.1237L23.3432 72.1219ZM79.204 72.1219L77.4314 64.3272H79.5731L81.3536 72.1219H79.204ZM86.9662 61.8655H15.5903V58.1733H86.975L86.9662 61.8655Z" fill="#EA9D3A"/>
</svg>
