<svg width="103" height="80" viewBox="0 0 103 80" fill="none" xmlns="http://www.w3.org/2000/svg">
<path d="M80.7692 66.8527C75.372 66.8527 75 71.9809 71.0319 71.9809C67.0638 71.9809 66.7496 66.8527 61.2946 66.8527C55.8397 66.8527 55.5254 71.9809 51.5573 71.9809C47.5893 71.9809 47.275 66.8527 41.8263 66.8527C36.3777 66.8527 36.0571 71.9809 32.0953 71.9809C28.1336 71.9809 27.813 66.8527 22.3581 66.8527H22.3592C21.6506 66.8527 21.0771 67.4268 21.0771 68.1348C21.0771 68.8428 21.6506 69.4168 22.3592 69.4168C26.3782 69.4168 26.6415 74.545 32.0965 74.545C37.5514 74.545 37.8657 69.4168 41.8275 69.4168C45.7892 69.4168 46.1098 74.545 51.5585 74.545C57.0071 74.545 57.3277 69.4168 61.2958 69.4168C65.2638 69.4168 65.5781 74.545 71.0331 74.545C76.488 74.545 76.8023 69.4168 80.7703 69.4168H80.7692C81.4772 69.4168 82.0512 68.8428 82.0512 68.1348C82.0512 67.4268 81.4772 66.8527 80.7692 66.8527Z" fill="#EA9D3A"/>
<path d="M26.967 63.0066C32.3642 63.0066 32.7362 57.8784 36.698 57.8784C37.406 57.8784 37.98 57.3043 37.98 56.5963C37.98 55.8883 37.406 55.3143 36.698 55.3143C31.3008 55.3143 30.9288 60.4425 26.967 60.4425C23.0053 60.4425 22.6847 55.3143 17.2297 55.3143H17.2303C16.5217 55.3143 15.9482 55.8883 15.9482 56.5963C15.9482 57.3043 16.5217 57.8784 17.2303 57.8784C21.2493 57.8784 21.5121 63.0066 26.967 63.0066H26.967Z" fill="#EA9D3A"/>
<path d="M85.4167 55.3143C80.0195 55.3143 79.6475 60.4425 75.6858 60.4425C71.724 60.4425 71.4034 55.3143 65.9485 55.3143H65.949C65.2405 55.3143 64.667 55.8883 64.667 56.5963C64.667 57.3043 65.2405 57.8784 65.949 57.8784C69.9039 57.8784 70.2885 63.0066 75.6863 63.0066C81.0835 63.0066 81.4556 57.8784 85.4173 57.8784H85.4167C86.1247 57.8784 86.6988 57.3043 86.6988 56.5963C86.6988 55.8883 86.1247 55.3143 85.4167 55.3143Z" fill="#EA9D3A"/>
<path d="M51.2817 65.3846C53.6083 65.3829 55.829 64.4088 57.4052 62.6974C58.9815 60.9861 59.7708 58.6933 59.5818 56.3742C59.3929 54.0551 58.2425 51.9207 56.4099 50.487V40.3846H60.8971C61.6051 40.3846 62.1791 39.8105 62.1791 39.1026C62.1791 38.3946 61.6051 37.8205 60.8971 37.8205H56.4099V29.4872H60.8971C61.6051 29.4872 62.1791 28.9131 62.1791 28.2051C62.1791 27.4971 61.6051 26.9231 60.8971 26.9231H56.4099V18.5897H60.8971C61.6051 18.5897 62.1791 18.0157 62.1791 17.3077C62.1791 16.5997 61.6051 16.0256 60.8971 16.0256H56.4099V10.2564C56.4099 8.42431 55.4323 6.73127 53.8458 5.81508C52.2593 4.89933 50.3041 4.89933 48.7176 5.81508C47.1311 6.7314 46.1535 8.42446 46.1535 10.2564V50.4864C44.3208 51.9202 43.1705 54.0545 42.9816 56.3736C42.7928 58.6927 43.582 60.9856 45.1582 62.6968C46.7345 64.4082 48.9551 65.3823 51.2817 65.384V65.3846ZM48.1344 52.2179C48.4968 51.9821 48.716 51.5797 48.7177 51.1476V10.2567C48.7177 9.34041 49.2064 8.49395 49.9997 8.03607C50.793 7.5782 51.7706 7.5782 52.5638 8.03607C53.3571 8.49395 53.8459 9.34044 53.8459 10.2567V51.1476C53.8476 51.5797 54.0668 51.9821 54.4291 52.2179C55.8285 53.1285 56.7643 54.6012 56.9956 56.2541C57.2268 57.9075 56.73 59.5799 55.6345 60.8397C54.539 62.0989 52.9514 62.8223 51.2818 62.8223C49.6122 62.8223 48.0247 62.0988 46.9292 60.8397C45.8337 59.58 45.3369 57.9075 45.5681 56.2541C45.7993 54.6012 46.7351 53.1285 48.1346 52.2179H48.1344Z" fill="#EA9D3A"/>
</svg>
