<svg width="94" height="80" viewBox="0 0 94 80" fill="none" xmlns="http://www.w3.org/2000/svg">
<path d="M64.7073 16.5882C60.8228 16.5882 57.6484 19.7625 57.6484 23.6471C57.6484 27.5316 60.8228 30.7059 64.7073 30.7059C68.5918 30.7059 71.7661 27.5316 71.7661 23.6471C71.7661 19.7625 68.5918 16.5882 64.7073 16.5882ZM64.7073 18.9412C67.3202 18.9412 69.4131 21.0341 69.4131 23.6471C69.4131 26.26 67.3202 28.3529 64.7073 28.3529C62.0943 28.3529 60.0014 26.26 60.0014 23.6471C60.0014 21.0341 62.0943 18.9412 64.7073 18.9412Z" fill="#EA9D3A"/>
<path fill-rule="evenodd" clip-rule="evenodd" d="M64.6885 8.35294C64.3765 8.35767 64.0793 8.48635 63.8623 8.71008C63.6449 8.93435 63.5257 9.23528 63.5304 9.54727V11.8687C63.5262 12.1833 63.6481 12.4869 63.8692 12.7112C64.0903 12.9355 64.3923 13.0615 64.7069 13.0615C65.022 13.0615 65.324 12.9355 65.5451 12.7112C65.7662 12.4869 65.8881 12.1833 65.8833 11.8687V9.54727C65.8886 9.22899 65.7641 8.92227 65.5393 8.69696C65.314 8.47216 65.0073 8.34769 64.6885 8.35294Z" fill="#EA9D3A"/>
<path fill-rule="evenodd" clip-rule="evenodd" d="M64.6885 34.2353C64.3765 34.24 64.0793 34.3687 63.8623 34.5924C63.6449 34.8167 63.5257 35.1176 63.5304 35.4296V37.7511C63.5262 38.0657 63.6481 38.3693 63.8692 38.5935C64.0903 38.8178 64.3923 38.9439 64.7069 38.9439C65.022 38.9439 65.324 38.8178 65.5451 38.5935C65.7662 38.3693 65.8881 38.0657 65.8833 37.7511V35.4296C65.8886 35.1113 65.7641 34.8046 65.5393 34.5793C65.314 34.3545 65.0073 34.23 64.6885 34.2353Z" fill="#EA9D3A"/>
<path fill-rule="evenodd" clip-rule="evenodd" d="M76.4862 22.4706C76.1717 22.4659 75.8681 22.5877 75.6438 22.8088C75.4195 23.0299 75.293 23.3319 75.293 23.6471C75.293 23.9617 75.4195 24.2637 75.6438 24.4848C75.8681 24.7059 76.1717 24.8277 76.4862 24.8235H78.8072C79.1223 24.8277 79.4259 24.7059 79.6501 24.4848C79.8744 24.2637 80.0005 23.9617 80.0005 23.6471C80.0005 23.3319 79.8744 23.0299 79.6501 22.8088C79.4259 22.5877 79.1223 22.4659 78.8072 22.4706H76.4862Z" fill="#EA9D3A"/>
<path fill-rule="evenodd" clip-rule="evenodd" d="M50.6034 22.4706C50.2883 22.4659 49.9847 22.5877 49.7605 22.8088C49.5362 23.0299 49.4102 23.3319 49.4102 23.6471C49.4102 23.9617 49.5362 24.2637 49.7605 24.4848C49.9847 24.7059 50.2883 24.8277 50.6034 24.8235H52.9244C53.239 24.8277 53.5426 24.7059 53.7668 24.4848C53.9911 24.2637 54.1177 23.9617 54.1177 23.6471C54.1177 23.3319 53.9911 23.0299 53.7668 22.8088C53.5425 22.5877 53.239 22.4659 52.9244 22.4706H50.6034Z" fill="#EA9D3A"/>
<path fill-rule="evenodd" clip-rule="evenodd" d="M74.083 13.063C73.7773 13.0719 73.4874 13.1985 73.2742 13.417L72.1208 14.5703H72.1203C71.8918 14.7894 71.7615 15.0914 71.7579 15.4075C71.7547 15.7237 71.8787 16.0283 72.1024 16.2521C72.3262 16.4758 72.6308 16.5998 72.9469 16.5966C73.2636 16.5935 73.5651 16.4627 73.7841 16.2342L74.9375 15.0809C75.2841 14.7421 75.3876 14.2263 75.1985 13.7804C75.0094 13.3345 74.5667 13.0499 74.083 13.063Z" fill="#EA9D3A"/>
<path fill-rule="evenodd" clip-rule="evenodd" d="M55.2953 13.0588C54.8153 13.0567 54.382 13.3472 54.2008 13.792C54.0201 14.2363 54.1278 14.7468 54.4729 15.0809L55.6262 16.2342C55.8452 16.4627 56.1467 16.5935 56.4634 16.5966C56.7796 16.5998 57.0842 16.4758 57.3079 16.2521C57.5317 16.0283 57.6556 15.7237 57.6525 15.4076C57.6488 15.0914 57.5185 14.7894 57.2901 14.5704L56.1367 13.417H56.1362C55.9156 13.1891 55.6126 13.0599 55.2953 13.0588L55.2953 13.0588Z" fill="#EA9D3A"/>
<path fill-rule="evenodd" clip-rule="evenodd" d="M72.9429 30.7059C72.4624 30.7038 72.0296 30.9942 71.8484 31.4391C71.6677 31.8834 71.7749 32.3939 72.1199 32.7279L73.2733 33.8813H73.2738C73.4928 34.1098 73.7943 34.2405 74.1105 34.2437C74.4272 34.2468 74.7318 34.1229 74.9555 33.8991C75.1793 33.6754 75.3032 33.3708 75.3001 33.0546C75.2964 32.7384 75.1656 32.4364 74.9372 32.2174L73.7838 31.0641C73.5632 30.8361 73.2602 30.7069 72.9429 30.7059L72.9429 30.7059Z" fill="#EA9D3A"/>
<path fill-rule="evenodd" clip-rule="evenodd" d="M56.4345 30.7059C56.1283 30.7153 55.8384 30.844 55.6257 31.0641L54.4723 32.2174C54.2439 32.4364 54.1131 32.7384 54.1094 33.0546C54.1063 33.3708 54.2302 33.6754 54.454 33.8991C54.6777 34.1229 54.9823 34.2474 55.299 34.2437C55.6152 34.2405 55.9167 34.1098 56.1357 33.8813L57.2891 32.7279H57.2896C57.6389 32.3897 57.7449 31.8713 57.5553 31.4233C57.3663 30.9753 56.9209 30.6901 56.4346 30.7059L56.4345 30.7059Z" fill="#EA9D3A"/>
<path d="M35.2817 66.3846C37.6083 66.3829 39.829 65.4088 41.4052 63.6974C42.9815 61.9861 43.7708 59.6933 43.5818 57.3742C43.3929 55.0551 42.2425 52.9207 40.4099 51.487V41.3846H44.8971C45.6051 41.3846 46.1791 40.8105 46.1791 40.1026C46.1791 39.3946 45.6051 38.8205 44.8971 38.8205H40.4099V30.4872H44.8971C45.6051 30.4872 46.1791 29.9131 46.1791 29.2051C46.1791 28.4971 45.6051 27.9231 44.8971 27.9231H40.4099V19.5897H44.8971C45.6051 19.5897 46.1791 19.0157 46.1791 18.3077C46.1791 17.5997 45.6051 17.0256 44.8971 17.0256H40.4099V11.2564C40.4099 9.42431 39.4323 7.73127 37.8458 6.81508C36.2593 5.89933 34.3041 5.89933 32.7176 6.81508C31.1311 7.7314 30.1535 9.42446 30.1535 11.2564V51.4864C28.3208 52.9202 27.1705 55.0545 26.9816 57.3736C26.7928 59.6927 27.582 61.9856 29.1582 63.6968C30.7345 65.4082 32.9551 66.3823 35.2817 66.384V66.3846ZM32.1344 53.2179C32.4968 52.9821 32.716 52.5797 32.7177 52.1476V11.2567C32.7177 10.3404 33.2064 9.49395 33.9997 9.03607C34.793 8.5782 35.7706 8.5782 36.5638 9.03607C37.3571 9.49395 37.8459 10.3404 37.8459 11.2567V52.1476C37.8476 52.5797 38.0668 52.9821 38.4291 53.2179C39.8285 54.1285 40.7643 55.6012 40.9956 57.2541C41.2268 58.9075 40.73 60.5799 39.6345 61.8397C38.539 63.0989 36.9514 63.8223 35.2818 63.8223C33.6122 63.8223 32.0247 63.0988 30.9292 61.8397C29.8337 60.58 29.3369 58.9075 29.5681 57.2541C29.7993 55.6012 30.7351 54.1285 32.1346 53.2179H32.1344Z" fill="#EA9D3A"/>
</svg>
