<svg width="91" height="80" viewBox="0 0 91 80" fill="none" xmlns="http://www.w3.org/2000/svg">
<g clip-path="url(#clip0_120_1252)">
<path d="M81.8052 71.4182L80.297 61.6039V61.6034C80.194 60.8876 79.8623 60.2246 79.3509 59.7131C78.839 59.2018 78.176 58.87 77.4601 58.7675L70.4258 57.5251C70.4066 57.5216 70.3898 57.5124 70.371 57.5079C70.089 57.6798 69.7968 57.8366 69.5 57.9842L69.4995 57.9847C69.1353 58.1633 68.7609 58.3216 68.3789 58.4581L68.3748 58.4647C68.2556 58.5073 68.1379 58.5529 68.0161 58.591C68.0745 58.661 68.1445 58.7193 68.2079 58.7843L66.6551 62.1492L64.7725 64.2195L63.4697 62.7858L64.0831 66.8078C64.5498 67.17 65.2169 67.1111 65.6136 66.6733L68.4545 63.5484C68.5326 63.4627 68.597 63.3652 68.6452 63.2597L70.2417 59.8009L77.0919 61.0103H77.0924C77.5779 61.0631 77.9685 61.4344 78.0461 61.9169L79.5585 71.7626V71.7631C79.6437 72.3171 80.12 72.726 80.6806 72.727C80.7389 72.727 80.7968 72.7224 80.8546 72.7133C81.1524 72.6676 81.4198 72.5058 81.5983 72.2628C81.7764 72.0198 81.851 71.7159 81.8053 71.4181L81.8052 71.4182Z" fill="#EA9D3A"/>
<path d="M64.7727 39.7727C62.5122 39.7727 60.3444 40.6707 58.746 42.2687C57.1479 43.8673 56.25 46.0349 56.25 48.2955C56.25 50.5555 57.1479 52.7238 58.746 54.3217C60.3445 55.9203 62.5122 56.8182 64.7727 56.8182C67.0327 56.8182 69.2005 55.9203 70.799 54.3217C72.3975 52.7236 73.2955 50.5555 73.2955 48.2955C73.2929 46.036 72.394 43.8697 70.7965 42.2717C69.1984 40.6736 67.0323 39.7752 64.7727 39.7727ZM64.7727 54.5455C63.1148 54.5455 61.5255 53.887 60.3531 52.7146C59.1812 51.5427 58.5227 49.9527 58.5227 48.2955C58.5227 46.6375 59.1812 45.0482 60.3531 43.8759C61.5255 42.704 63.1149 42.0455 64.7727 42.0455C66.4301 42.0455 68.02 42.7039 69.1918 43.8759C70.3642 45.0482 71.0227 46.6377 71.0227 48.2955C71.0207 49.9523 70.3617 51.5412 69.1899 52.7126C68.0185 53.8845 66.4296 54.5435 64.7727 54.5455Z" fill="#EA9D3A"/>
<path d="M49.7161 38.3805C50.44 38.6961 51.1269 39.0897 51.7651 39.5555C51.8209 39.2998 51.8853 39.0613 51.9497 38.827C52.4382 37.4111 52.3693 35.8628 51.7574 34.4955C51.2395 33.1897 50.2132 32.1498 48.9139 31.6145C47.4819 31.0585 45.8808 31.1391 44.512 31.8367C43.3964 32.3815 42.4046 33.149 41.598 34.0921C40.7472 34.9951 40.3363 35.3812 39.3886 35.3553V35.3558C38.8894 35.3112 38.3953 35.2174 37.9143 35.0753C36.295 34.6644 34.0771 34.0998 31.8074 36.4623C31.1429 37.1543 30.5275 37.7316 29.9648 38.214V38.2145C30.7268 38.5011 31.4533 38.8735 32.1316 39.3245C32.5522 38.9364 32.9884 38.5148 33.4465 38.0375C34.8 36.6286 35.8715 36.9016 37.3543 37.2785C37.989 37.4627 38.6408 37.5794 39.2998 37.626C41.3051 37.7016 42.3432 36.6139 43.2517 35.6511L43.2512 35.6516C43.8615 34.9231 44.6138 34.3276 45.4625 33.901C46.2625 33.4743 47.2067 33.4089 48.0584 33.7198C48.7757 34.0192 49.3439 34.5924 49.6365 35.3123C50.0708 36.226 50.1149 37.2766 49.7583 38.2227C49.7446 38.2734 49.7299 38.3282 49.7157 38.3805L49.7161 38.3805Z" fill="#EA9D3A"/>
<path d="M24.5487 37.6299C22.6245 34.1462 21.6088 30.2344 21.5941 26.2546C21.6312 26.284 21.6641 26.3093 21.7073 26.3443C22.555 27.0302 23.5204 27.6288 25.9863 27.4731C27.4636 27.3727 27.9141 27.8551 28.6675 28.6455H28.668C29.4472 29.5931 30.5136 30.2622 31.7058 30.552C32.0853 30.6377 32.4723 30.6808 32.8614 30.6813C33.63 30.7194 34.393 30.5352 35.0601 30.1512C35.7267 29.7667 36.2691 29.1985 36.6212 28.5146C37.1493 27.3361 37.0341 26.1495 36.9225 25.003C36.8028 24.1507 36.7987 23.2868 36.9103 22.4335C37.0483 21.6153 37.6672 21.0486 38.3841 20.3926C39.3566 19.5028 40.5666 18.3954 40.3058 16.4885C39.8482 13.1408 36.7491 13.1012 34.4861 13.0717L34.4856 13.0722C33.6379 13.0839 32.7901 13.0301 31.9505 12.9114C30.2398 12.535 28.6256 11.8085 27.2092 10.7782C30.8344 6.45738 35.8759 3.56426 41.4352 2.61362C46.9943 1.66293 52.711 2.7166 57.5663 5.58738C56.2469 7.1266 54.4652 8.19842 52.4867 8.64336C50.9424 9.01369 49.8848 9.72493 49.3435 10.7578C48.5288 12.3141 49.1847 14.0005 49.4997 14.8111L49.5434 14.9238C50.0907 16.334 50.1897 16.5882 49.3186 18.4678C48.7454 19.7046 48.2112 22.0438 51.0769 23.8164L51.0774 23.8159C51.3666 24.034 51.5908 24.3262 51.7273 24.662C51.9282 25.1059 52.2914 25.4555 52.7424 25.6396C53.1934 25.8238 53.6977 25.8273 54.1512 25.6508C55.0913 25.287 56.4418 25.1003 57.1864 25.5518C57.3478 25.6503 57.8393 25.9486 57.9662 27.1093H57.9667C58.0093 27.8454 58.264 28.553 58.7002 29.147C59.136 29.7411 59.7346 30.1967 60.4236 30.4585C60.8269 30.6051 61.253 30.6802 61.6827 30.6802C62.5066 30.6959 63.3056 30.3956 63.9158 29.8416C64.2816 29.4885 64.5373 29.0375 64.652 28.5418C64.7666 28.0467 64.7357 27.5293 64.5622 27.0513L64.4916 26.8347C64.2172 26.0053 63.958 25.2215 65.1587 24.0886H65.1593C65.8152 23.5392 66.1931 22.726 66.1896 21.8702C66.1231 21.0361 65.7315 20.2615 65.0989 19.7137L68.0849 18.5819C69.1309 21.7038 69.5175 25.0084 69.2202 28.2871C68.9234 31.5658 67.9489 34.7471 66.3596 37.6297C67.1312 37.7438 67.8885 37.9417 68.6176 38.2202C71.4058 32.8859 72.2667 26.7525 71.0562 20.8565C69.8453 14.9607 66.6366 9.66329 61.9719 5.85914C57.3077 2.05537 51.4732 -0.0220337 45.4537 -0.0220337C39.4342 -0.0220337 33.6005 2.05537 28.9355 5.85914C24.2709 9.6629 21.0622 14.9602 19.8518 20.8565C18.6408 26.7524 19.5022 32.8858 22.2898 38.2202C23.0188 37.9417 23.7762 37.7438 24.5484 37.6297L24.5487 37.6299ZM59.4707 6.84026C62.8646 9.3113 65.5507 12.6296 67.2614 16.4639L63.83 17.7642C63.3942 17.9209 63.0284 18.2273 62.7976 18.6291C62.5673 19.0309 62.4871 19.5017 62.5713 19.9573C62.6561 20.4124 62.8996 20.8233 63.2593 21.1155C63.8766 21.6218 63.9167 21.8993 63.9182 21.9505C63.8721 22.1443 63.7594 22.3163 63.5991 22.4355C61.3456 24.5616 62.0133 26.5797 62.3339 27.5491L62.3943 27.7338C62.4958 28.0549 62.3933 28.1528 62.3446 28.1995C62.0098 28.4344 61.578 28.4811 61.2006 28.3233C60.6076 28.0813 60.2215 27.5025 60.2261 26.8622C60.1703 25.5402 59.4773 24.3277 58.3663 23.6094C56.6882 22.5907 54.5285 23.1285 53.6449 23.4192C53.3314 22.7952 52.8581 22.265 52.2732 21.883C51.2982 21.2799 50.8087 20.6579 51.3809 19.4227C52.6065 16.7781 52.3529 15.8797 51.6624 14.101L51.6183 13.9868C51.4098 13.4506 51.0217 12.4528 51.357 11.812C51.6345 11.2814 52.4127 10.9978 53.0159 10.8537H53.0164C55.5555 10.2744 57.8277 8.86151 59.4708 6.84047L59.4707 6.84026ZM25.8266 12.5844C27.5341 13.8364 29.4883 14.7105 31.5597 15.1499C32.5185 15.2919 33.487 15.3569 34.4559 15.3442C37.135 15.3792 37.8848 15.5638 38.0532 16.7976C38.144 17.4606 37.795 17.8507 36.8489 18.7161C35.9971 19.4964 34.9373 20.4664 34.6685 22.0542L34.669 22.0537C34.5204 23.1043 34.5173 24.1707 34.6604 25.2222C34.7547 26.1912 34.8288 26.9563 34.5472 27.5843C34.3372 28.0521 33.4474 28.6126 32.204 28.3346C31.4517 28.1363 30.7866 27.6944 30.3128 27.077C29.2449 25.723 27.5546 25.0148 25.8404 25.2045C24.0552 25.3222 23.6296 24.9757 23.137 24.577C22.7256 24.2107 22.2365 23.9429 21.7063 23.7937C22.101 19.7672 23.5195 15.9081 25.8267 12.5844L25.8266 12.5844Z" fill="#EA9D3A"/>
<path d="M26.136 56.8182C28.3965 56.8182 30.5643 55.9203 32.1628 54.3217C33.7608 52.7236 34.6587 50.556 34.6587 48.2955C34.6587 46.0349 33.7608 43.8672 32.1628 42.2692C30.5642 40.6707 28.3965 39.7727 26.136 39.7727C23.876 39.7727 21.7082 40.6707 20.1098 42.2692C18.5112 43.8673 17.6133 46.0349 17.6133 48.2955C17.6158 50.5549 18.5148 52.7212 20.1122 54.3192C21.7103 55.9168 23.8764 56.8157 26.136 56.8182ZM26.136 42.0455C27.7939 42.0455 29.3833 42.7039 30.5556 43.8759C31.7275 45.0482 32.386 46.6377 32.386 48.2955C32.386 49.9529 31.7275 51.5427 30.5556 52.7146C29.3832 53.8869 27.7938 54.5455 26.136 54.5455C24.4786 54.5455 22.8887 53.887 21.7169 52.7146C20.5445 51.5427 19.886 49.9527 19.886 48.2955C19.888 46.6386 20.547 45.0497 21.7189 43.8778C22.8902 42.7064 24.4791 42.0474 26.136 42.0455Z" fill="#EA9D3A"/>
<path d="M24.2541 62.1494L22.7012 58.7844C22.7647 58.7195 22.8347 58.6611 22.893 58.5911C22.7718 58.5526 22.6536 58.5074 22.5343 58.4648L22.5303 58.4582C22.1483 58.3218 21.7739 58.1635 21.4097 57.9849C21.1124 57.8373 20.8207 57.6805 20.5386 57.5085C20.5198 57.5126 20.5031 57.5222 20.4843 57.5253L13.4764 58.7631C12.7606 58.86 12.095 59.1857 11.5797 59.692C11.0637 60.1983 10.7259 60.8578 10.6163 61.5721L9.10394 71.4183C9.05828 71.7161 9.13286 72.02 9.31093 72.263C9.4895 72.506 9.75685 72.6678 10.0546 72.7135C10.1125 72.7226 10.1703 72.7267 10.2286 72.7272C10.7892 72.7262 11.2656 72.3173 11.3508 71.7633L12.8672 61.8855C12.96 61.4071 13.3587 61.048 13.8442 61.0059L20.6675 59.801L22.264 63.2598C22.3122 63.3654 22.3766 63.4628 22.4547 63.5485L25.2956 66.6734C25.6923 67.1112 26.3589 67.1701 26.8261 66.8079L27.4395 62.7859L26.1362 64.219L24.2541 62.1494Z" fill="#EA9D3A"/>
<path d="M60.9893 61.6039C60.8883 60.8901 60.5591 60.2275 60.0502 59.7162C59.5414 59.2054 58.8804 58.8726 58.1666 58.7681L51.1826 57.5257C51.1471 57.5166 51.1121 57.5054 51.0776 57.4927C50.3511 57.9417 49.5739 58.3024 48.7622 58.5672C48.8733 58.7006 48.9946 58.8254 49.1245 58.94C49.0621 59.0141 49.0093 59.0953 48.9677 59.1825L47.3363 62.717L45.4542 64.7872L43.5716 62.717L41.9402 59.1825H41.9407C41.8991 59.0953 41.8463 59.0141 41.7839 58.94C41.9138 58.8254 42.035 58.7006 42.1461 58.5672C41.3345 58.3024 40.5573 57.9417 39.8313 57.4927C39.7968 57.5054 39.7623 57.5166 39.7268 57.5257L32.7692 58.763C32.0549 58.8619 31.3919 59.1886 30.8789 59.6949C30.366 60.2017 30.0312 60.8602 29.9237 61.573L28.4221 71.4187V71.4192C28.3749 71.7175 28.449 72.0229 28.6276 72.2669C28.8061 72.5109 29.0745 72.6737 29.3733 72.7194C29.6721 72.7646 29.9765 72.6895 30.22 72.5099C30.463 72.3303 30.6243 72.0609 30.6684 71.7621L32.1741 61.8849H32.1747C32.2634 61.409 32.6571 61.0493 33.1396 61.0052L39.7898 59.8227C39.8035 59.9302 39.8329 60.0357 39.8771 60.1346L41.5816 63.8279C41.6303 63.9334 41.6947 64.0308 41.7724 64.1166L44.3296 66.9295V66.929C44.3236 66.9676 44.32 67.0061 44.318 67.0452V71.5907C44.318 72.2182 44.8268 72.727 45.4543 72.727C46.0819 72.727 46.5907 72.2182 46.5907 71.5907V67.0452C46.5887 67.0061 46.5851 66.9676 46.579 66.9295L49.1363 64.1166C49.2139 64.0308 49.2784 63.9334 49.3271 63.8279L51.0316 60.1346C51.0757 60.0357 51.1052 59.9302 51.1189 59.8227L57.7965 61.0103C58.279 61.0656 58.6645 61.4364 58.7386 61.9158L60.2401 71.7615V71.762C60.2843 72.0608 60.4456 72.3302 60.6886 72.5098C60.9321 72.6894 61.2365 72.7645 61.5353 72.7193C61.8341 72.6737 62.1025 72.5108 62.281 72.2668C62.4596 72.0228 62.5337 71.7174 62.4865 71.4191L60.9893 61.6039Z" fill="#EA9D3A"/>
<path d="M45.4544 56.8182C47.7149 56.8182 49.8827 55.9203 51.4806 54.3217C53.0792 52.7236 53.9771 50.556 53.9771 48.2955C53.9771 46.0349 53.0792 43.8672 51.4806 42.2692C49.8826 40.6707 47.7149 39.7727 45.4544 39.7727C43.1938 39.7727 41.0261 40.6707 39.4281 42.2692C37.8296 43.8673 36.9316 46.0349 36.9316 48.2955C36.9342 50.5549 37.8331 52.7212 39.4306 54.3192C41.0287 55.9168 43.1948 56.8157 45.4544 56.8182ZM45.4544 42.0455C47.1118 42.0455 48.7016 42.7039 49.874 43.8759C51.0458 45.0482 51.7044 46.6377 51.7044 48.2955C51.7044 49.9529 51.0459 51.5427 49.874 52.7146C48.7016 53.8869 47.1122 54.5455 45.4544 54.5455C43.797 54.5455 42.2071 53.887 41.0348 52.7146C39.8629 51.5427 39.2044 49.9527 39.2044 48.2955C39.2064 46.6386 39.8654 45.0497 41.0372 43.8778C42.2086 42.7064 43.7975 42.0474 45.4544 42.0455Z" fill="#EA9D3A"/>
</g>
<defs>
<clipPath id="clip0_120_1252">
<rect width="90.9091" height="80" fill="white"/>
</clipPath>
</defs>
</svg>
