<svg width="75" height="75" viewBox="0 0 75 75" fill="none" xmlns="http://www.w3.org/2000/svg">
<path d="M1.75563 33.493C2.25794 33.5639 2.7498 33.307 2.97812 32.8542C5.06826 28.6739 7.41094 26.1657 9.9346 25.3926C11.2033 25.0158 12.5601 25.0625 13.7995 25.5269C8.08925 32.957 12.4588 44.1015 12.6557 44.5987C12.8362 45.0466 13.2697 45.3398 13.7522 45.3404H13.7918C14.2831 45.3288 14.7161 45.0152 14.8801 44.5514C17.2464 37.3821 19.7464 32.4365 22.4759 29.4387C24.2661 33.8396 26.9004 42.2479 27.9969 55.5613H17.7432C15.4385 55.5712 13.1949 56.3023 11.326 57.6514C9.45755 59.001 8.05854 60.9013 7.32403 63.086C5.57671 62.4473 3.72586 62.1397 1.86629 62.1788C1.21268 62.1788 0.682864 62.7086 0.682864 63.3617C0.682864 64.0153 1.21268 64.5451 1.86629 64.5451C3.85248 64.4829 5.82375 64.9077 7.60798 65.7836L8.4833 66.2017L8.48385 66.2011C9.37734 66.6787 10.3082 67.0825 11.2678 67.4082C12.8226 67.8885 14.4446 68.1174 16.0713 68.0866C18.7364 68.1532 21.3706 67.5018 23.6984 66.2011C24.1165 65.9959 24.5346 65.7912 24.9682 65.6014L25.0551 65.5618L25.6152 65.3329L25.844 65.2543C25.9937 65.1992 26.1516 65.1437 26.3172 65.0964L26.6325 65.0094L27.0897 64.8911L27.4759 64.8125L27.9413 64.7338L28.3985 64.6788L28.919 64.6238H29.4158H30.2438H30.5673H31.419L31.8844 64.6711L32.4368 64.7261C32.6497 64.7261 32.839 64.7971 33.0283 64.8367L33.3358 64.884L33.7693 65.0023C33.8953 65.0023 34.0219 65.0573 34.1402 65.0969L34.3058 65.1442L34.8345 65.3258C34.9368 65.3258 35.0314 65.4045 35.1261 65.4441L35.5206 65.602H35.5838C36.002 65.7835 36.3728 65.9805 36.8063 66.178L37.7609 66.6434L37.9424 66.7221H37.9897L38.4156 66.9114L38.6522 67.006H38.6527C39.204 67.2255 39.7674 67.4126 40.3406 67.5661L40.5612 67.6211L41.1686 67.7471H41.4448L42.1232 67.8494H42.3047C42.5886 67.8494 42.8885 67.9204 43.2037 67.9364C43.519 67.9523 43.9927 67.9364 44.4262 67.9364C47.0939 68.004 49.731 67.3532 52.061 66.0514C54.0648 64.9269 56.3342 64.363 58.6311 64.4185C59.2132 64.4179 59.7948 64.4465 60.3741 64.5054C61.5218 64.6067 62.6452 64.8916 63.7027 65.3494C64.2231 65.57 64.6963 65.8066 65.209 66.0591C67.5358 67.3542 70.1666 68.0024 72.8285 67.9363C73.4815 67.9363 74.0113 67.407 74.0113 66.7534C74.0113 66.0998 73.4815 65.5706 72.8285 65.5706C70.5314 65.6267 68.2614 65.0627 66.2583 63.9376C65.7378 63.6774 65.2014 63.4171 64.6254 63.1486C63.5773 62.6975 62.4742 62.3872 61.3441 62.226C60.4836 60.2415 59.0592 58.5536 57.2475 57.3712C55.4358 56.1894 53.317 55.5656 51.1537 55.5771H42.4224C42.0912 53.5502 41.6967 51.6335 41.2395 49.8036V49.7563C38.2267 37.6018 32.9577 29.8408 29.5901 25.8577C33.1156 25.8027 37.0829 27.6639 41.7446 30.4637C42.1127 30.6767 42.5666 30.6767 42.9352 30.4637C43.3071 30.2569 43.5365 29.8641 43.5349 29.4382C43.5349 23.1282 41.9575 18.8137 34.1808 16.1246C40.6404 12.3702 48.954 13.7582 49.0399 13.7582H49.0394C49.534 13.8479 50.0308 13.6163 50.2789 13.1794C50.5276 12.7431 50.4731 12.1974 50.1436 11.8183C46.6334 7.74041 41.1443 6.17069 34.2661 7.29858C31.9532 7.68865 29.6837 8.30429 27.4908 9.13618C29.3443 5.39773 33.5246 4.4035 33.7298 4.35618V4.35673C34.2398 4.23899 34.6123 3.80051 34.6453 3.27783C34.6777 2.75517 34.3636 2.27321 33.8717 2.09274C28.0668 0.0262657 23.3975 0.184153 19.982 2.57415C15.6912 5.59514 14.7845 11.2505 14.5952 13.5453C9.7444 14.3342 6.07694 16.3374 3.67144 19.5713C-0.47743 25.148 0.705387 32.2387 0.761021 32.5378C0.853451 33.0363 1.25343 33.4197 1.75464 33.4924L1.75563 33.493ZM51.1542 57.9437C54.2263 57.9415 57.0703 59.5645 58.6317 62.2103H57.906H57.2909L56.5812 62.289C56.4233 62.289 56.25 62.289 56.1003 62.3363C55.8164 62.3363 55.5562 62.4232 55.3114 62.4782L55.3108 62.4788C55.2261 62.4898 55.1419 62.5057 55.0588 62.5261C53.6559 62.8512 52.3031 63.3634 51.036 64.0485C49.0295 65.1802 46.7535 65.7469 44.4504 65.689H43.3858L42.5968 65.6181H42.4076C42.2486 65.6032 42.0907 65.5796 41.9344 65.5471L41.5636 65.4838L41.1691 65.4052L40.7829 65.3028L40.4676 65.2159L39.8679 65.0107L39.5918 64.9083L39.2446 64.7664L38.953 64.6322L38.6532 64.4979L38.3533 64.356L38.1954 64.2773L37.8406 64.104L36.7287 63.5676L36.4052 63.4256L36.2869 63.3706V63.3701C34.786 62.7291 33.1845 62.3555 31.5542 62.2659H30.2057H29.6456H29.2594H28.6597L28.0523 62.3291L27.5236 62.4001C27.3266 62.4001 27.1451 62.4634 26.9635 62.4947L26.514 62.5894L25.9853 62.7236L25.6068 62.8259L25.0781 63.0075L24.7865 63.1021L24.2027 63.3464L24.0371 63.4097C23.564 63.6226 23.1145 63.8432 22.665 64.0644H22.6177L22.6182 64.0638C20.9546 64.9936 19.102 65.5334 17.1995 65.6417H16.048C14.6648 65.6692 13.2856 65.4772 11.9623 65.0734C11.1206 64.7895 10.303 64.439 9.51741 64.0248C10.0687 62.2648 11.1668 60.727 12.6518 59.6332C14.1367 58.54 15.9314 57.948 17.775 57.9436L51.1542 57.9437ZM32.4697 34.1789H28.9915C28.3385 34.1789 27.8087 34.7087 27.8087 35.3623C27.8087 36.0154 28.3385 36.5452 28.9915 36.5452H33.7715C34.5605 38.0543 35.3252 39.7055 36.0669 41.4984H32.9117C32.2586 41.4984 31.7288 42.0282 31.7288 42.6813C31.7288 43.3349 32.2586 43.8647 32.9117 43.8647H36.95C37.5101 45.442 38.0383 47.0667 38.5273 48.8179H36.4372C35.7841 48.8179 35.2543 49.3478 35.2543 50.0008C35.2543 50.6544 35.7841 51.1842 36.4372 51.1842H39.1424C39.4895 52.5828 39.7866 54.0473 40.0342 55.5773H30.4193C29.1968 40.9309 26.2551 32.0731 24.3382 27.7027C25.0573 27.147 25.8545 26.7003 26.7045 26.3779H26.8068C28.9559 28.7777 30.8533 31.3917 32.4698 34.1783L32.4697 34.1789ZM5.58239 20.9675C7.75112 18.0648 11.2063 16.3141 15.8361 15.7617V15.7622C16.4517 15.7045 16.9194 15.1818 16.9084 14.5634C16.9084 14.4924 16.9634 7.5751 21.3488 4.4913C23.4862 2.98496 26.3571 2.62186 29.9144 3.39479H29.915C26.9996 4.95282 24.9634 7.76591 24.3934 11.0218C24.3224 11.4603 24.5018 11.9021 24.8583 12.1678C25.2148 12.433 25.6896 12.4776 26.0896 12.2834C26.2238 12.2201 37.9993 6.50986 45.6657 11.1159C41.722 11.0449 35.5386 11.676 30.7276 15.6197L30.7271 15.6203C30.386 15.9036 30.2308 16.3536 30.3249 16.7872C30.4096 17.2422 30.7518 17.6058 31.2002 17.7181C38.6618 19.6977 40.7122 22.5134 41.099 27.3567C35.3728 24.1227 30.5142 22.4667 25.9074 24.202C21.3014 25.9367 17.3577 31.0556 13.8635 40.3077C13.0118 36.4191 12.4754 30.054 16.5687 25.9612C16.8278 25.6993 16.9494 25.3312 16.8982 24.9665C16.8476 24.6011 16.6292 24.2809 16.3084 24.0999C14.8852 23.2609 13.2676 22.807 11.6155 22.7828C10.8133 22.7823 10.0162 22.9017 9.24914 23.1377C6.97745 23.832 4.89562 25.504 3.01843 28.1697C3.19229 25.5788 4.07973 23.0865 5.58167 20.9684L5.58239 20.9675ZM60.0049 36.5449C61.8876 36.5449 63.6934 35.7972 65.0248 34.4658C66.3557 33.1344 67.1039 31.3292 67.1039 29.4465C67.1039 27.5638 66.3557 25.758 65.0248 24.4266C63.6934 23.0957 61.8877 22.3475 60.0049 22.3475C58.1223 22.3475 56.317 23.0957 54.9856 24.4266C53.6542 25.758 52.9065 27.5637 52.9065 29.4465C52.9065 31.3331 53.6575 33.142 54.9938 34.4739C56.3301 35.8059 58.142 36.5508 60.0285 36.5448L60.0049 36.5449ZM60.0049 24.7139C61.2604 24.7139 62.4637 25.2124 63.3517 26.0998C64.2391 26.9873 64.7376 28.1911 64.7376 29.4466C64.7376 30.7015 64.2391 31.9053 63.3517 32.7928C62.4637 33.6802 61.2604 34.1787 60.0049 34.1787C58.75 34.1787 57.5462 33.6802 56.6587 32.7928C55.7713 31.9053 55.2728 30.7015 55.2728 29.4466C55.2728 28.1872 55.7746 26.9795 56.667 26.0917C57.5599 25.2037 58.7698 24.708 60.0285 24.714L60.0049 24.7139ZM50.1458 30.6294H48.1739C47.5209 30.6294 46.9911 30.0996 46.9911 29.4466C46.9911 28.793 47.5209 28.2631 48.1739 28.2631H50.1458C50.7994 28.2631 51.3292 28.793 51.3292 29.4466C51.3292 30.0996 50.7994 30.6294 50.1458 30.6294ZM50.8082 21.9531H50.8087C50.5848 21.7325 50.4594 21.4315 50.4594 21.1174C50.4594 20.8032 50.5848 20.5023 50.8087 20.2811C51.272 19.8239 52.0169 19.8239 52.4807 20.2811L53.8611 21.6615C54.178 21.9955 54.2721 22.4829 54.1032 22.911C53.9337 23.339 53.5316 23.63 53.0722 23.657C52.7591 23.6542 52.4593 23.5299 52.2359 23.3098L50.8082 21.9531ZM58.8216 19.6263V17.6545H58.8221C58.8221 17.0014 59.3519 16.4716 60.005 16.4716C60.6586 16.4716 61.1884 17.0014 61.1884 17.6545V19.6263C61.1884 20.2799 60.6586 20.8098 60.005 20.8098C59.3519 20.8098 58.8221 20.2799 58.8221 19.6263H58.8216ZM66.1411 23.3494H66.1417C65.9183 23.1288 65.7923 22.8273 65.7923 22.5132C65.7923 22.199 65.9183 21.8981 66.1417 21.6774L67.5375 20.2816V20.2811C68.0013 19.8239 68.7462 19.8239 69.2095 20.2811C69.4334 20.5023 69.5588 20.8032 69.5588 21.1174C69.5588 21.4315 69.4334 21.7325 69.2095 21.9531L67.8137 23.3489V23.3494C67.5925 23.5723 67.2915 23.6972 66.9774 23.6966C66.6665 23.679 66.375 23.5398 66.1653 23.3098L66.1411 23.3494ZM69.8642 28.3027H71.8361C72.4897 28.3027 73.0195 28.8325 73.0195 29.4855C73.0195 30.1392 72.4897 30.669 71.8361 30.669H69.8642C69.2112 30.669 68.6814 30.1392 68.6814 29.4855C68.6814 28.8325 69.2112 28.3027 69.8642 28.3027ZM67.8137 35.6223L69.2095 37.0181C69.4334 37.2392 69.5588 37.5402 69.5588 37.8543C69.5588 38.1685 69.4334 38.4694 69.2095 38.69C68.7479 39.1516 67.9996 39.1516 67.5375 38.69L66.1654 37.2547C65.7307 36.7887 65.7439 36.0625 66.194 35.6119C66.6446 35.1613 67.3714 35.1486 67.8374 35.5827L67.8137 35.6223ZM60.0051 38.1618C60.6587 38.1618 61.1885 38.6917 61.1885 39.3447V41.3165C61.1885 41.9701 60.6587 42.5 60.0051 42.5C59.352 42.5 58.8222 41.9701 58.8222 41.3165V39.3447C58.8112 39.0201 58.9344 38.7054 59.1628 38.4743C59.3911 38.2427 59.7042 38.1156 60.0287 38.1222L60.0051 38.1618ZM50.8083 38.6905L50.8089 38.69C50.585 38.4694 50.4595 38.1684 50.4595 37.8543C50.4595 37.5401 50.5849 37.2392 50.8089 37.018L52.197 35.6222C52.6641 35.2861 53.305 35.335 53.716 35.7383C54.1264 36.141 54.188 36.7814 53.8612 37.2546L52.4731 38.6504L52.4726 38.651C52.2498 38.8705 51.9499 38.9949 51.6369 38.9981C51.3337 38.9904 51.0454 38.8661 50.8325 38.651L50.8083 38.6905ZM74.0294 73.0314C74.0294 73.685 73.4996 74.2148 72.846 74.2148C70.1848 74.2797 67.5539 73.6316 65.2272 72.3376C64.7221 72.0851 64.2412 71.8485 63.7208 71.6279C62.117 70.9545 60.3867 70.6365 58.6493 70.697C56.3518 70.6376 54.0811 71.2021 52.0791 72.3294C49.7491 73.6311 47.1121 74.2825 44.4438 74.2149C41.7787 74.2815 39.1445 73.6301 36.8173 72.3294C34.8135 71.2048 32.5441 70.6404 30.2472 70.697C27.9501 70.6403 25.6801 71.2048 23.677 72.3294C21.3493 73.63 18.715 74.2814 16.05 74.2149C14.4193 74.2495 12.7946 74.0174 11.2387 73.5288C10.2737 73.2009 9.33504 72.8004 8.43053 72.3294C6.42842 71.201 4.15786 70.6365 1.86039 70.697C1.20734 70.697 0.677519 70.1672 0.677519 69.5142C0.677519 68.8606 1.20734 68.3307 1.86039 68.3307C4.52208 68.2658 7.15307 68.9139 9.47983 70.2079C10.2792 70.6283 11.11 70.987 11.9645 71.2808C13.2876 71.6852 14.6664 71.8772 16.0501 71.8486C18.3472 71.9047 20.6166 71.3407 22.6203 70.2156C24.9474 68.9155 27.5818 68.2642 30.2473 68.3307C32.9124 68.2641 35.5466 68.9155 37.8743 70.2156C39.8776 71.3407 42.147 71.9046 44.4441 71.8486C46.7476 71.9063 49.0232 71.3396 51.0303 70.208C53.357 68.9129 55.9873 68.2647 58.6497 68.3308C60.7046 68.2747 62.748 68.6565 64.6439 69.451C65.2276 69.6952 65.7641 69.956 66.2769 70.2399L66.2763 70.2394C68.2784 71.3683 70.5496 71.9327 72.8465 71.8723C73.4907 71.8723 74.0167 72.3878 74.0299 73.0316L74.0294 73.0314Z" fill="#EA9D3A"/>
</svg>
