<svg width="67" height="71" viewBox="0 0 67 71" fill="none" xmlns="http://www.w3.org/2000/svg">
<path d="M26.6786 58.3813C26.2357 57.1083 25.7602 55.8268 25.2605 54.5701C25.0559 54.0519 24.4697 53.7973 23.9515 54.0019C23.4327 54.207 23.1787 54.7932 23.3833 55.3114C23.8745 56.544 24.3421 57.8014 24.7772 59.0424C24.9177 59.447 25.2993 59.7185 25.7281 59.7191C26.0553 59.7224 26.3633 59.5656 26.5532 59.2987C26.7427 59.0322 26.7899 58.6894 26.6786 58.3814L26.6786 58.3813Z" fill="#EA9D3A"/>
<path d="M27.9536 62.2403C27.7912 61.7063 27.2263 61.4051 26.6924 61.5675C26.1584 61.7299 25.8572 62.2942 26.0196 62.8282C26.4063 64.1012 26.7772 65.3906 27.0993 66.6636C27.2184 67.1059 27.6164 67.415 28.0744 67.4212C28.1599 67.4291 28.2464 67.4291 28.3319 67.4212C28.591 67.3532 28.8119 67.1846 28.9462 66.9536C29.0811 66.722 29.1182 66.4472 29.049 66.1886C28.7185 64.8588 28.3482 63.5374 27.9536 62.2403L27.9536 62.2403Z" fill="#EA9D3A"/>
<path d="M18.0505 39.9856C17.7633 39.5073 17.1427 39.3522 16.6644 39.6388C16.1861 39.926 16.031 40.5465 16.3177 41.0248C16.9944 42.1529 17.6632 43.3214 18.2916 44.4893L18.2922 44.4899C18.4715 44.8108 18.8104 45.0109 19.1785 45.0137C19.3466 45.0126 19.5129 44.971 19.6619 44.8928C20.1486 44.6236 20.3285 44.0127 20.0649 43.5226C19.4444 42.3383 18.7593 41.1456 18.0505 39.9856L18.0505 39.9856Z" fill="#EA9D3A"/>
<path d="M23.6907 50.8144C23.1427 49.5818 22.5626 48.3409 21.9664 47.1318V47.1323C21.8489 46.8912 21.6398 46.7069 21.3858 46.6198C21.1323 46.5332 20.8541 46.5517 20.6135 46.6709C20.3729 46.7901 20.1903 47.0003 20.1054 47.2549C20.0205 47.5089 20.0408 47.7871 20.1616 48.0266C20.7416 49.2108 21.3138 50.444 21.854 51.6366H21.8534C22.0136 52.0003 22.3744 52.2347 22.7718 52.233C22.9135 52.2302 23.0534 52.2004 23.1832 52.1442C23.6902 51.9165 23.9173 51.3219 23.6908 50.8144L23.6907 50.8144Z" fill="#EA9D3A"/>
<path d="M30.0648 24.0719C30.1783 24.1124 30.298 24.1343 30.4189 24.1366C30.8393 24.1388 31.2159 23.878 31.362 23.484C31.829 22.2593 32.345 21.0666 32.9008 19.842C33.0318 19.5981 33.0571 19.3114 32.97 19.0484C32.8828 18.7859 32.6918 18.5707 32.4416 18.4532C32.191 18.3357 31.9032 18.3262 31.6452 18.4273C31.3878 18.5285 31.1832 18.7314 31.0798 18.9877C30.4997 20.2203 29.9596 21.4933 29.4684 22.767C29.2728 23.2919 29.5398 23.8765 30.0647 24.0721L30.0648 24.0719Z" fill="#EA9D3A"/>
<path d="M33.3599 16.7554C33.5122 16.8414 33.6848 16.8858 33.8596 16.8847C34.2204 16.8864 34.5537 16.6919 34.7296 16.3766C35.3822 15.2323 36.0915 14.1042 36.8245 13.0245V13.0251C37.1173 12.5647 36.9903 11.9555 36.5389 11.6503C36.0876 11.3451 35.475 11.4541 35.1569 11.897C34.3913 13.0172 33.6584 14.1851 32.9812 15.3777C32.708 15.8628 32.8772 16.4777 33.36 16.7553L33.3599 16.7554Z" fill="#EA9D3A"/>
<path d="M60.3768 52.3209H63.5995C63.9457 52.322 64.2683 52.1444 64.4533 51.8515C64.6382 51.5587 64.6595 51.1911 64.51 50.8786L60.0867 41.7335H61.561C61.8943 41.7121 62.1955 41.5283 62.367 41.2417C62.5541 40.9517 62.5755 40.5846 62.4232 40.2749L56.3396 27.544C56.1732 27.1922 55.8185 26.9673 55.429 26.9673C55.0395 26.9673 54.6854 27.1922 54.5185 27.544L52.802 31.1378H52.8025C47.1466 30.1688 41.407 29.7799 35.6716 29.9777C37.5017 21.7139 41.4792 14.0785 47.2021 7.84392C52.813 9.37831 58.1728 11.7147 63.1158 14.7813C63.2698 14.8791 63.4491 14.9297 63.6312 14.9263C64.0786 14.9218 64.4697 14.6228 64.5912 14.1917C64.712 13.7612 64.5344 13.302 64.155 13.0648C58.9504 9.82411 53.2906 7.38023 47.3636 5.81332C47.2293 5.75093 47.0843 5.71552 46.9365 5.70878C27.9768 1.07525 15.794 9.98705 12.7969 12.5253L12.1197 11.1151H12.6918C13.0386 11.1157 13.3607 10.9386 13.5456 10.6458C13.7305 10.3524 13.7519 9.98543 13.6023 9.67292L9.26724 0.640261C9.10088 0.288419 8.74622 0.0635986 8.35672 0.0635986C7.96722 0.0635986 7.61312 0.288419 7.4462 0.640261L3.11167 9.67292C2.95935 9.98543 2.98071 10.3547 3.16788 10.6481C3.35448 10.9387 3.67654 11.1151 4.02219 11.1151H4.59436L1.66947 17.2308C1.51996 17.5422 1.54076 17.9075 1.72399 18.2004C1.90665 18.4926 2.22647 18.6714 2.57156 18.6731H4.30379L0.323359 24.66C0.123273 24.9652 0.102467 25.3547 0.268839 25.6801C0.435774 26.0049 0.764566 26.2157 1.12934 26.2309H5.90733V29.7522C5.90733 30.0192 6.01356 30.2754 6.20241 30.4643C6.39126 30.6531 6.64756 30.7594 6.91452 30.7594H9.79956C10.3526 30.7549 10.7983 30.3052 10.7983 29.7522V26.2309H15.5763C15.9416 26.2157 16.2699 26.0049 16.4368 25.6801C16.6037 25.3547 16.5829 24.9651 16.3823 24.66L12.3535 18.6731H14.0857C14.4308 18.6714 14.7512 18.4915 14.9322 18.1976C15.1194 17.9075 15.1407 17.5405 14.9884 17.2308L13.6428 14.4104C14.8754 13.2745 22.2079 7.02953 34.4241 6.44161H34.4236C27.5182 13.211 22.7548 21.8603 20.7259 31.315C19.1629 31.5488 17.688 31.7905 16.3267 32.04V32.0406C16.2812 32.0361 16.2351 32.0361 16.1896 32.0406C10.0981 33.1445 6.12557 34.2646 6.02888 34.2967C5.54776 34.4367 5.24314 34.9099 5.31394 35.4056C5.38476 35.9019 5.80967 36.2706 6.31102 36.2706C6.40488 36.2819 6.49931 36.2819 6.59317 36.2706C6.59317 36.2706 7.47166 36.0211 8.91389 35.6664C14.6834 45.4804 17.6808 59.0333 19.6546 69.7341L19.654 69.7335C19.7468 70.2028 20.1588 70.5406 20.6371 70.5395H20.8225C21.0856 70.4906 21.3183 70.3388 21.4695 70.1185C21.6207 69.8976 21.678 69.6262 21.6285 69.3631C19.6625 58.6543 16.673 45.2063 10.9524 35.1746L12.3384 34.8683C12.9831 35.7788 13.6115 36.7057 14.232 37.6404H14.2314C14.3742 37.872 14.6046 38.0361 14.8699 38.0957C15.1357 38.1547 15.4139 38.1041 15.6416 37.9546C15.8686 37.8056 16.0266 37.5707 16.0783 37.3037C16.13 37.0362 16.071 36.7597 15.9159 36.5365C15.4488 35.8272 14.9733 35.1264 14.4899 34.4255L16.1901 34.1034C23.2399 41.7338 32.0635 55.971 35.1325 69.7494C35.2309 70.2154 35.6395 70.5504 36.1156 70.5554H36.3409C36.8805 70.4312 37.2189 69.895 37.0986 69.3549C34.0528 55.6572 25.8183 41.9592 18.5662 33.7333C27.5022 32.2428 40.1518 31.0337 51.9489 33.0645L48.4845 40.316C48.3322 40.6257 48.3535 40.9927 48.5407 41.2827C48.7273 41.5738 49.0493 41.7498 49.395 41.7498H50.8372L46.4216 50.8791C46.2693 51.1888 46.2906 51.5558 46.4778 51.8459C46.6616 52.1415 46.9842 52.3214 47.3321 52.3214H50.5549L44.4634 61.354C44.2408 61.6603 44.2076 62.0656 44.3768 62.4045C44.5465 62.7434 44.8905 62.9598 45.2693 62.9654H52.3759V68.3156C52.3759 68.5832 52.4822 68.8389 52.671 69.0277C52.8599 69.2166 53.1162 69.3228 53.3831 69.3228H57.4119C57.6789 69.3228 57.9352 69.2166 58.124 69.0277C58.3129 68.8389 58.4191 68.5832 58.4191 68.3156V62.925H65.5903C65.9692 62.9194 66.3131 62.703 66.4823 62.3641C66.652 62.0251 66.6189 61.6205 66.3963 61.3136L60.3768 52.3209ZM8.80843 28.7439H7.92151V26.2298H8.79157L8.80843 28.7439ZM10.5407 16.6576H10.5401C10.1759 16.6699 9.84597 16.8784 9.67904 17.2027C9.51154 17.527 9.53291 17.9165 9.73468 18.2206L13.7635 24.2154H3.01482L7.0436 18.2206C7.24481 17.9165 7.26618 17.527 7.09924 17.2027C6.93175 16.8784 6.6024 16.6699 6.23762 16.6576H4.22323L7.14812 10.5419C7.29763 10.2294 7.27627 9.86234 7.09136 9.56896C6.90644 9.27613 6.58383 9.09909 6.2376 9.09965H5.66543L8.38068 3.3785L11.1201 9.09965H10.5479H10.5485C10.2017 9.09909 9.87966 9.27614 9.69474 9.56896C9.50982 9.86236 9.48847 10.2294 9.63797 10.5419L12.5629 16.6576H10.5407ZM37.5248 6.4164C38.1375 6.4164 38.7574 6.46474 39.3942 6.51307C38.9187 7.01274 38.3145 7.68945 37.6136 8.55163H37.613C37.4433 8.75791 37.3624 9.02319 37.3882 9.28904C37.4135 9.5549 37.5439 9.79995 37.7502 9.96969C37.9306 10.1147 38.1554 10.1945 38.387 10.1956C38.6984 10.2046 38.9963 10.0675 39.1924 9.82468C40.0035 8.81356 40.878 7.85576 41.811 6.95648C41.861 6.90534 41.9043 6.84857 41.9403 6.7873C42.9233 6.92444 43.9305 7.09362 44.9618 7.31113V7.31057C39.2834 13.786 35.3749 21.6186 33.6168 30.0501C32.1582 30.1226 30.7323 30.2114 29.33 30.3239C29.5638 29.2846 29.8213 28.2449 30.136 27.2297C30.2917 26.6935 29.9831 26.1326 29.4469 25.9769C28.9107 25.8213 28.3498 26.1293 28.1941 26.6655C27.8316 27.9306 27.509 29.22 27.2431 30.5173C25.7285 30.6623 24.2699 30.8286 22.8682 31.0169C25.1046 21.5037 30.2231 12.9133 37.5243 6.41693L37.5248 6.4164ZM56.4687 67.2668H54.4217V62.9232H56.4681L56.4687 67.2668ZM57.4759 60.9094L47.1864 60.9088L53.2375 51.8682C53.4449 51.5653 53.4691 51.173 53.301 50.8464C53.1329 50.5198 52.7991 50.3125 52.4315 50.3051H48.9266L53.3101 41.1358C53.4624 40.8261 53.441 40.4591 53.2539 40.1691C53.0678 39.8757 52.7463 39.6969 52.3995 39.6936H50.9574L55.4453 30.3146L59.9496 39.6936H58.4911C58.1443 39.6969 57.8228 39.8757 57.6367 40.1691C57.4496 40.4591 57.4282 40.8261 57.5805 41.1358L61.964 50.3051H58.491C58.124 50.3125 57.7902 50.5199 57.6215 50.8464C57.4535 51.1729 57.4777 51.5653 57.6851 51.8682L63.7041 60.9088L57.4759 60.9094Z" fill="#EA9D3A"/>
</svg>
