<svg width="96" height="80" viewBox="0 0 96 80" fill="none" xmlns="http://www.w3.org/2000/svg">
<path d="M24.633 35.2464C23.9771 35.1771 23.3889 35.6523 23.3185 36.3082C23.1105 38.2706 23.7601 42.3097 27.7143 43.5468H27.7137C28.343 43.7425 29.0123 43.3922 29.209 42.7634C29.4058 42.1347 29.0565 41.4649 28.4278 41.267C25.3737 40.3109 25.6781 36.7273 25.6947 36.5566C25.7624 35.9023 25.2872 35.3162 24.6329 35.2463L24.633 35.2464Z" fill="#EA9D3A"/>
<path d="M77.0003 12.0803C76.7192 11.9342 76.3918 11.9054 76.09 12.0008C75.7876 12.0963 75.5359 12.308 75.3898 12.589L61.6915 38.9453C59.209 43.0121 55.0367 45.7537 50.3193 46.4197C50.8697 47.1023 51.3614 47.8308 51.7891 48.596C56.826 47.5822 61.1955 44.4764 63.8081 40.0524L77.5091 13.6906V13.6911C77.6552 13.4096 77.684 13.0821 77.5886 12.7798C77.4931 12.4779 77.2814 12.2262 76.9998 12.0801L77.0003 12.0803Z" fill="#EA9D3A"/>
<path d="M26.6754 45.7747C23.7962 44.9962 21.2989 43.5141 20.7571 40.7535C20.7496 40.7151 19.739 37.2445 20.812 30.4276C20.8168 30.394 21.3197 27.0199 23.6917 25.6351C25.1332 24.793 27.0518 24.8282 29.3967 25.7385C30.1779 26.1129 42.1553 31.8734 54.9216 38.7708V38.7702C55.4352 39.0299 56.0239 39.0998 56.5839 38.9675C57.1438 38.8353 57.6392 38.5089 57.9821 38.0471C58.0317 37.9778 76.322 1.73311 76.322 1.73311V1.73258C76.6191 1.14384 76.3823 0.424987 75.793 0.127935C75.2037 -0.16857 74.4854 0.0682084 74.1884 0.656946L56.0327 36.6556C42.8581 29.5379 30.3358 23.5402 30.3085 23.5296C27.2229 22.3206 24.5859 22.3388 22.4704 23.5813C19.0963 25.564 18.4697 29.9182 18.449 30.0777C17.3558 37.0268 18.2634 40.7001 18.4239 41.2685C19.0478 44.3343 21.3681 46.5469 25.1405 47.7954H25.14C25.5959 47.0813 26.1095 46.4056 26.6753 45.7753L26.6754 45.7747Z" fill="#EA9D3A"/>
<path d="M38.2249 69.2833C41.7098 69.2833 45.0519 67.8988 47.5162 65.4351C49.9805 62.9708 51.3648 59.6283 51.3648 56.1434C51.3648 52.659 49.9804 49.3163 47.5162 46.852C45.0519 44.3877 41.7099 43.0034 38.2249 43.0034C34.7398 43.0034 31.3979 44.3879 28.9336 46.852C26.4693 49.3163 25.085 52.6588 25.085 56.1434C25.0887 59.6273 26.4747 62.9671 28.9379 65.4303C31.4011 67.8941 34.7411 69.2795 38.2249 69.2833ZM38.2249 45.3925C41.0764 45.3925 43.8104 46.5252 45.8268 48.5414C47.8432 50.5578 48.9757 53.2924 48.9757 56.1434C48.9757 58.9948 47.8431 61.7294 45.8268 63.7458C43.8104 65.7616 41.0764 66.8942 38.2249 66.8942C35.3734 66.8942 32.6388 65.7615 30.623 63.7458C28.6066 61.7294 27.474 58.9948 27.474 56.1434C27.4772 53.2935 28.611 50.5604 30.6263 48.5453C32.6421 46.53 35.3745 45.3963 38.2249 45.3925Z" fill="#EA9D3A"/>
<path d="M38.225 59.129C38.225 59.7892 37.6901 60.3236 37.0305 60.3236C36.3708 60.3236 35.8359 59.7892 35.8359 59.129C35.8359 58.4694 36.3708 57.9345 37.0305 57.9345C37.6901 57.9345 38.225 58.4694 38.225 59.129Z" fill="#EA9D3A"/>
<path d="M41.2104 62.116C41.2104 62.7762 40.6755 63.3106 40.0158 63.3106C39.3562 63.3106 38.8213 62.7762 38.8213 62.116C38.8213 61.4564 39.3562 60.9215 40.0158 60.9215C40.6755 60.9215 41.2104 61.4564 41.2104 62.116Z" fill="#EA9D3A"/>
<path d="M41.808 56.7399C41.808 57.4001 41.2731 57.9345 40.6135 57.9345C39.9538 57.9345 39.4189 57.4001 39.4189 56.7399C39.4189 56.0803 39.9538 55.5454 40.6135 55.5454C41.2731 55.5454 41.808 56.0803 41.808 56.7399Z" fill="#EA9D3A"/>
<path d="M44.7944 60.3249C44.7944 60.9851 44.2595 61.5194 43.5998 61.5194C42.9402 61.5194 42.4053 60.9851 42.4053 60.3249C42.4053 59.6653 42.9402 59.1304 43.5998 59.1304C44.2595 59.1304 44.7944 59.6653 44.7944 60.3249Z" fill="#EA9D3A"/>
<path d="M43.6 52.5597C43.6 53.2199 43.0651 53.7543 42.4055 53.7543C41.7458 53.7543 41.2109 53.2199 41.2109 52.5597C41.2109 51.9001 41.7458 51.3652 42.4055 51.3652C43.0651 51.3652 43.6 51.9001 43.6 52.5597Z" fill="#EA9D3A"/>
<path d="M45.9887 56.1434C45.9887 56.8036 45.4538 57.3379 44.7941 57.3379C44.1345 57.3379 43.5996 56.8036 43.5996 56.1434C43.5996 55.4837 44.1345 54.9488 44.7941 54.9488C45.4538 54.9488 45.9887 55.4837 45.9887 56.1434Z" fill="#EA9D3A"/>
<path d="M45.9892 74.0614H30.4602C29.8005 74.0614 29.2656 74.5963 29.2656 75.256C29.2656 75.9156 29.8005 76.4505 30.4602 76.4505H45.9892C46.6488 76.4505 47.1837 75.9156 47.1837 75.256C47.1837 74.5963 46.6488 74.0614 45.9892 74.0614Z" fill="#EA9D3A"/>
<path d="M31.6543 71.6724C31.6543 71.0127 31.1195 70.4783 30.4598 70.4778H26.8762C26.2165 70.4778 25.6816 71.0127 25.6816 71.6724C25.6816 72.3325 26.2165 72.8669 26.8762 72.8669H30.4598C31.1195 72.8669 31.6543 72.3325 31.6543 71.6724Z" fill="#EA9D3A"/>
<path d="M50.7664 70.4778H47.1828C46.5232 70.4778 45.9883 71.0127 45.9883 71.6724C45.9883 72.3325 46.5232 72.8669 47.1828 72.8669H50.7664C51.4261 72.8669 51.961 72.3325 51.961 71.6724C51.961 71.0127 51.4261 70.4778 50.7664 70.4778Z" fill="#EA9D3A"/>
</svg>
