<svg width="98" height="80" viewBox="0 0 98 80" fill="none" xmlns="http://www.w3.org/2000/svg">
<g clip-path="url(#clip0_119_1226)">
<path d="M88.8667 25.2734V20.2656C88.8667 19.9337 88.7346 19.6152 88.4999 19.3804C88.2651 19.1457 87.9466 19.0136 87.6147 19.0136H82.5566C81.8657 19.0136 81.3047 19.5746 81.3047 20.2656V25.2734C81.3047 25.606 81.4367 25.9245 81.6715 26.1593C81.9062 26.394 82.2248 26.5254 82.5566 26.5254H87.6147C87.9466 26.5254 88.2652 26.394 88.4999 26.1593C88.7346 25.9245 88.8667 25.6059 88.8667 25.2734ZM86.3628 24.0215H83.8086V21.468H86.3628V24.0215Z" fill="#EA9D3A"/>
<path d="M76.2359 18.9636H71.168C70.477 18.9636 69.916 19.5239 69.916 20.2155V25.2233C69.916 25.5552 70.0481 25.8738 70.2828 26.1085C70.5176 26.3432 70.8361 26.4753 71.168 26.4753H76.2359C76.9045 26.4704 77.4515 25.9415 77.4781 25.2729V20.2651C77.4913 19.9263 77.367 19.5965 77.1329 19.3513C76.8989 19.1061 76.5754 18.9656 76.2359 18.9635V18.9636ZM74.9839 23.9714H72.4702V21.4675H75.0342L74.9839 23.9714Z" fill="#EA9D3A"/>
<path d="M64.8486 18.9635H59.8408C59.1499 18.9635 58.5889 19.5239 58.5889 20.2155V25.2233C58.5889 25.5552 58.7209 25.8738 58.9557 26.1085C59.1904 26.3432 59.509 26.4753 59.8408 26.4753H64.8486C65.1812 26.4753 65.4991 26.3432 65.7338 26.1085C65.9693 25.8738 66.1006 25.5552 66.1006 25.2233V20.2155C66.1006 19.8836 65.9693 19.5651 65.7338 19.3303C65.4991 19.0956 65.1812 18.9635 64.8486 18.9635ZM63.5967 23.9714H61.0432V21.4675H63.5974L63.5967 23.9714Z" fill="#EA9D3A"/>
<path d="M96.1977 69.6123H93.9244V15.1361C94.5957 15.1096 95.1267 14.557 95.126 13.8842V9.167C95.1288 8.83583 94.9989 8.51727 94.7655 8.28252C94.5329 8.04708 94.215 7.91504 93.8839 7.91504H53.5208C52.8298 7.91504 52.2688 8.47534 52.2688 9.167V13.8842C52.2723 14.5437 52.783 15.0893 53.4412 15.1361V31.4822L30.686 27.6062V17.9405L33.8312 10.5889V10.4687V10.3387C33.8361 10.2759 33.8361 10.2123 33.8312 10.1487C33.8361 10.1054 33.8361 10.0621 33.8312 10.0188V9.70788C33.8061 9.63452 33.7725 9.56396 33.7306 9.49758V9.41724L30.7257 4.67L30.7264 1.355C30.7264 1.01057 30.5853 0.680821 30.3352 0.443969C30.0851 0.207135 29.7484 0.0834766 29.4039 0.103043H14.2504C13.5588 0.103043 12.9985 0.663347 12.9985 1.355V4.67L9.9936 9.41724V9.49758C9.95238 9.56395 9.91885 9.63451 9.8937 9.70788V10.0188C9.88881 10.0621 9.88881 10.1054 9.8937 10.1487C9.88811 10.2123 9.88811 10.2759 9.8937 10.3387V10.4694C9.88951 10.5092 9.88951 10.5497 9.8937 10.5896L13.039 17.9412L13.0383 69.6112H8.68164C7.98999 69.6112 7.42969 70.1715 7.42969 70.8632C7.42969 71.5549 7.98999 72.1152 8.68164 72.1152H96.1987C96.8904 72.1152 97.4507 71.5549 97.4507 70.8632C97.4507 70.1715 96.8904 69.6112 96.1987 69.6112L96.1977 69.6123ZM24.3963 46.7677H29.2142V48.4298H19.5492V46.7677H24.3963ZM30.406 50.9337C30.7379 50.9337 31.0564 50.8016 31.2912 50.5669C31.5259 50.3322 31.658 50.0143 31.658 49.6817V45.5158C31.658 45.1832 31.5259 44.8646 31.2912 44.6299C31.0564 44.3951 30.7379 44.2638 30.406 44.2638H25.6287V41.7096H30.406C30.7379 41.7096 31.0564 41.5776 31.2912 41.3428C31.5259 41.1081 31.658 40.7895 31.658 40.4577V36.2811C31.658 35.9486 31.5259 35.6307 31.2912 35.396C31.0564 35.1612 30.7379 35.0292 30.406 35.0292H25.6287V29.2899L82.7179 38.9848V69.563H71.1597V55.6314C71.1597 55.2995 71.0276 54.981 70.7929 54.7462C70.5582 54.5115 70.2396 54.3794 69.9077 54.3794H34.4917C33.8 54.3794 33.2397 54.9397 33.2397 55.6314V69.563H25.628V50.9339L30.406 50.9337ZM24.3963 37.5331H29.2142V39.2056H19.5492V37.5331H24.3963ZM50.9681 69.5832H35.7449V56.8833H50.9487L50.9681 69.5832ZM53.4427 56.8833H68.6561V69.563H53.4427V56.8833ZM54.7645 10.4197H92.6237V12.6329H54.7753L54.7645 10.4197ZM55.9767 15.1369H91.4213V69.5612H85.1811V37.9225C85.1838 37.3251 84.7647 36.8095 84.1799 36.6901L55.9858 31.9029L55.9767 15.1369ZM24.5883 26.5651C24.2229 26.5029 23.8492 26.6049 23.5669 26.8445C23.2854 27.0842 23.1233 27.437 23.1261 27.8065V35.0277L18.2986 35.0284C17.6069 35.0284 17.0466 35.5887 17.0466 36.2803V40.4568C17.0466 40.7887 17.1779 41.1073 17.4127 41.342C17.6481 41.5767 17.966 41.7088 18.2986 41.7088H23.1261V44.263H18.2986C17.6069 44.263 17.0466 44.8233 17.0466 45.5149V49.6816V49.6809C17.0466 50.0135 17.1779 50.3313 17.4127 50.5661C17.6481 50.8008 17.966 50.9329 18.2986 50.9329H23.1261V69.562H15.504V18.9329H28.1836V27.1761L24.5883 26.5651ZM14.9332 6.28338H28.7446L30.4074 8.84739H13.2908L14.9332 6.28338ZM15.504 2.60782H28.1837V3.77943H15.504V2.60782ZM30.7881 11.3513L28.6041 16.4298H15.0834L12.9001 11.352L30.7881 11.3513Z" fill="#EA9D3A"/>
</g>
<defs>
<clipPath id="clip0_119_1226">
<rect width="97.7778" height="80" fill="white"/>
</clipPath>
</defs>
</svg>
