<svg width="97" height="80" viewBox="0 0 97 80" fill="none" xmlns="http://www.w3.org/2000/svg">
<g clip-path="url(#clip0_120_1373)">
<path d="M41.9726 64.9159C41.2948 61.5188 39.1784 58.5818 36.1704 56.8636C34.741 56.0516 33.2119 55.4298 31.6214 55.0145C33.5239 53.5862 34.7356 51.4218 34.9598 49.0538C35.1834 46.6853 34.3983 44.3324 32.7976 42.5727C31.1963 40.8135 28.9279 39.8104 26.5486 39.8104C24.1698 39.8104 21.901 40.8136 20.3002 42.5727C18.6989 44.3324 17.9138 46.6853 18.138 49.0538C18.3616 51.4218 19.5738 53.5861 21.4763 55.0145C19.8869 55.4304 18.3588 56.0517 16.9311 56.8636C13.9229 58.5818 11.8072 61.5182 11.1283 64.9148L9.68004 72.1717C9.5642 72.7483 9.88047 73.3242 10.4295 73.5354C20.8066 77.5327 32.2985 77.5327 42.675 73.5354C43.2241 73.3242 43.5403 72.7483 43.4245 72.1717L41.9726 64.9159ZM20.5174 48.2759C20.5174 46.6756 21.1532 45.1407 22.2846 44.0086C23.4166 42.8771 24.9516 42.2414 26.5519 42.2414C28.1522 42.2414 29.6871 42.8772 30.8192 44.0086C31.9507 45.1406 32.5864 46.6756 32.5864 48.2759C32.5864 49.8762 31.9506 51.4111 30.8192 52.5432C29.6872 53.6747 28.1522 54.3104 26.5519 54.3104C24.9522 54.3082 23.4183 53.6719 22.2868 52.541C21.1559 51.4095 20.5196 49.8756 20.5174 48.2759ZM12.2464 71.64L13.498 65.3884C14.0395 62.6762 15.7297 60.3319 18.1317 58.9606C23.3639 56.0355 29.7399 56.0355 34.9717 58.9606C37.3741 60.3318 39.0638 62.6771 39.6053 65.3894L40.8569 71.6399C31.6074 74.953 21.4955 74.953 12.2459 71.6399L12.2464 71.64Z" fill="#EA9D3A"/>
<path d="M86.872 72.1724L85.4237 64.9116C84.7454 61.5145 82.629 58.5775 79.621 56.8593C78.1905 56.049 76.6603 55.4288 75.0687 55.0151C76.9712 53.5868 78.1829 51.4224 78.407 49.0544C78.6306 46.6858 77.8456 44.333 76.2448 42.5733C74.6436 40.8141 72.3752 39.8109 69.9959 39.8109C67.6171 39.8109 65.3483 40.8141 63.7474 42.5733C62.1462 44.333 61.3611 46.6858 61.5852 49.0544C61.8088 51.4224 63.0211 53.5866 64.9236 55.0151C63.3342 55.431 61.8061 56.0522 60.3783 56.8642C57.3702 58.5824 55.2545 61.5188 54.5756 64.9153L53.1273 72.1723C53.0115 72.7488 53.3277 73.3248 53.8768 73.536C64.2539 77.5332 75.7457 77.5332 86.1223 73.536C86.6713 73.3248 86.9876 72.7488 86.8718 72.1723L86.872 72.1724ZM63.9658 48.2759C63.9658 46.6756 64.6016 45.1407 65.733 44.0086C66.865 42.8771 68.4 42.2414 70.0003 42.2414C71.6006 42.2414 73.1355 42.8772 74.2676 44.0086C75.3991 45.1406 76.0348 46.6756 76.0348 48.2759C76.0348 49.8762 75.399 51.411 74.2676 52.5432C73.1356 53.6746 71.6006 54.3104 70.0003 54.3104C68.4006 54.3082 66.8666 53.6719 65.7352 52.541C64.6043 51.4095 63.968 49.8756 63.9658 48.2759ZM55.6948 71.64L56.9464 65.3884C57.4879 62.6762 59.1781 60.3319 61.58 58.9606C66.8123 56.0355 73.1883 56.0355 78.42 58.9606C80.8225 60.3318 82.5122 62.6771 83.0537 65.3894L84.3053 71.6399C75.0558 74.953 64.9439 74.953 55.6943 71.6399L55.6948 71.64Z" fill="#EA9D3A"/>
<path d="M56.6498 28.8979L61.7419 36.8635C62.0054 37.2767 62.4935 37.4895 62.9763 37.4017C63.4591 37.3134 63.8405 36.9416 63.9407 36.4615L65.6773 28.2174C74.7958 26.2428 80.8621 20.7906 80.8621 14.4825C80.8621 6.49655 70.8449 -0.000274658 58.5338 -0.000274658C46.2228 -0.000274658 36.2056 6.49655 36.2056 14.4825C36.2056 22.0234 45.1366 28.277 56.6483 28.8977L56.6498 28.8979ZM58.535 2.41381C69.5178 2.41381 78.4495 7.82815 78.4495 14.4828C78.4495 19.6939 72.6866 24.431 64.4357 26.0017C63.9578 26.0922 63.5807 26.4618 63.4799 26.9381L62.1863 33.069L58.3474 27.0658C58.1329 26.7318 57.7687 26.5243 57.3721 26.5109C46.8577 26.1402 38.6218 20.8551 38.6218 14.4829C38.6218 7.82825 47.5528 2.4139 58.5363 2.4139L58.535 2.41381Z" fill="#EA9D3A"/>
<path d="M55.4813 31.3476C55.4032 31.0367 55.2049 30.77 54.9302 30.6057C54.6554 30.4414 54.3267 30.3929 54.0158 30.471C50.1037 31.4371 46.0418 31.6418 42.052 31.0744C41.768 31.033 41.4787 31.096 41.2373 31.2523L35.6037 34.8314L36.4921 30.832C36.6209 30.2517 36.3079 29.6639 35.7545 29.4467C29.9927 27.187 26.5519 23.3978 26.5519 19.311C26.5519 15.298 29.8806 11.547 35.4549 9.27818C36.0729 9.02657 36.3698 8.32236 36.1182 7.70494C35.8671 7.08748 35.1629 6.79061 34.5455 7.04169C28.0294 9.69465 24.1382 14.282 24.1382 19.3111C24.1382 24.1807 27.7724 28.6042 33.914 31.2966L32.6118 37.1522V37.1527C32.5051 37.6295 32.6969 38.1236 33.0972 38.4043C33.497 38.6845 34.0272 38.6964 34.4388 38.4334L42.163 33.5191V33.5185C46.3187 34.0568 50.5375 33.817 54.6053 32.8116C55.2513 32.6489 55.6436 31.9937 55.4814 31.3478L55.4813 31.3476Z" fill="#EA9D3A"/>
<path d="M50.6899 8.4483H56.7244V10.8621H50.6899V8.4483Z" fill="#EA9D3A"/>
<path d="M59.1382 8.4483H61.552V10.8621H59.1382V8.4483Z" fill="#EA9D3A"/>
<path d="M63.9658 8.4483H70.0003V10.8621H63.9658V8.4483Z" fill="#EA9D3A"/>
<path d="M47.0693 13.2759H61.5521V15.6897H47.0693V13.2759Z" fill="#EA9D3A"/>
<path d="M63.9658 13.2759H70.0003V15.6897H63.9658V13.2759Z" fill="#EA9D3A"/>
<path d="M47.0693 18.1035H51.8969V20.5172H47.0693V18.1035Z" fill="#EA9D3A"/>
<path d="M54.3105 18.1035H67.5864V20.5172H54.3105V18.1035Z" fill="#EA9D3A"/>
</g>
<defs>
<clipPath id="clip0_120_1373">
<rect width="96.5517" height="80" fill="white"/>
</clipPath>
</defs>
</svg>
