<svg width="95" height="80" viewBox="0 0 95 80" fill="none" xmlns="http://www.w3.org/2000/svg">
<path d="M75.6368 0.00952715C75.2905 0.00846962 74.9616 0.155463 74.7326 0.411923L66.3173 9.88901C65.6326 10.6552 66.1878 11.8576 67.2241 11.8549H70.8271L70.8266 13.6035C70.8266 21.2299 66.8001 27.7788 59.189 32.5666C51.5779 37.3541 40.3653 40.2787 26.3172 40.2787C25.6631 40.2904 25.1402 40.8144 25.1381 41.4584C25.1354 42.1061 25.6594 42.6354 26.3172 42.6476C35.3178 42.6476 48.6536 42.9712 59.9077 39.5528C65.5348 37.8433 70.6771 35.1836 74.4228 30.9941C78.168 26.8042 80.4492 21.0973 80.4492 13.6039V11.8553H84.0522C85.0885 11.8574 85.6432 10.655 84.9585 9.88942L76.5432 0.412329C76.3142 0.155882 75.9832 0.00887741 75.6369 0.00993324L75.6368 0.00952715ZM35.8926 8.29745C35.8926 9.75897 36.4383 11.1026 37.3394 12.1395C36.2607 12.7148 35.3073 13.4894 34.5279 14.411C33.8056 13.326 32.8311 12.4208 31.6858 11.7714C32.0692 11.0925 32.2896 10.3126 32.2896 9.48608C32.2896 6.88398 30.1196 4.74888 27.4773 4.74888C24.835 4.74888 22.665 6.88398 22.665 9.48608C22.665 10.3136 22.885 11.0946 23.2689 11.774C20.7499 13.2091 19.0626 15.8979 19.0626 18.963V20.1427C19.0626 22.7463 21.2311 24.8826 23.8749 24.8826H31.0899C31.7567 24.8826 32.397 24.7467 32.9781 24.5035C33.9045 26.1373 35.6706 27.2509 37.6936 27.2509H46.1184C48.1436 27.2509 49.9113 26.1347 50.837 24.4982C51.4203 24.7435 52.0627 24.8821 52.7327 24.8821H59.9503C62.5941 24.8821 64.7604 22.7464 64.7604 20.1422L64.7594 18.963C64.7594 15.8962 63.0662 13.2064 60.5435 11.7713C60.9268 11.0924 61.1473 10.3125 61.1473 9.48594C61.1473 6.88384 58.9773 4.74875 56.335 4.74875C53.6927 4.74875 51.5248 6.88384 51.5248 9.48594C51.5248 10.3124 51.7432 11.0923 52.126 11.7713C50.9813 12.4211 50.0094 13.3291 49.2887 14.4156C48.5088 13.4919 47.5554 12.7156 46.4751 12.1393C47.3746 11.1024 47.9198 9.75883 47.9198 8.29731C47.9198 5.04059 45.2183 2.37785 41.9119 2.37785C38.6055 2.37785 35.8924 5.04073 35.8924 8.29731L35.8926 8.29745ZM75.6368 3.00025L81.4072 9.48608H79.2509C78.5868 9.48343 78.0458 10.0117 78.0437 10.6657L78.0442 13.6035C78.0442 20.6303 75.9694 25.672 72.6117 29.4276C69.254 33.1834 64.5464 35.6632 59.1985 37.2876C56.3786 38.1442 53.4841 38.7512 50.4453 39.1891C54.0588 38.0432 57.6476 36.3522 60.4855 34.5671C68.6221 29.4491 73.2319 22.065 73.2319 13.6033V10.6655C73.2293 10.0146 72.6947 9.48844 72.0337 9.4858H69.8685L75.6368 3.00025ZM45.5156 8.29745C45.5156 10.274 43.9193 11.8549 41.9127 11.8549C39.906 11.8549 38.2981 10.2734 38.2981 8.29745C38.2981 6.35213 39.8558 4.79707 41.8656 4.74888C43.9193 4.74888 45.5156 6.32086 45.5156 8.29745ZM27.4784 7.11778C28.821 7.11778 29.8833 8.16421 29.8833 9.48664C29.8833 10.8091 28.821 11.8555 27.4784 11.8555C26.1359 11.8555 25.0736 10.8091 25.0736 9.48664C25.0736 8.16421 26.1358 7.11778 27.4784 7.11778ZM56.3366 7.11778C57.6792 7.11778 58.7415 8.16421 58.7415 9.48664C58.7415 10.8091 57.6792 11.8555 56.3366 11.8555C54.9941 11.8555 53.9318 10.8091 53.9318 9.48664C53.9318 8.16421 54.9941 7.11778 56.3366 7.11778ZM27.4784 14.226C28.3757 14.226 29.2181 13.978 29.9399 13.5508C31.3639 14.1752 32.4901 15.3285 33.068 16.7593C32.5667 17.9136 32.2907 19.1864 32.2907 20.5204V21.9015C32.2907 22.0009 32.2944 22.0992 32.2997 22.1976C31.9481 22.3985 31.5378 22.5143 31.0899 22.5143L23.8749 22.5138C22.5212 22.5138 21.4674 21.4748 21.4674 20.1428V18.9631C21.4674 16.5313 22.9195 14.4697 25.0165 13.5502C25.7383 13.9774 26.5807 14.2254 27.478 14.2254L27.4784 14.226ZM62.3563 18.9632V20.1429C62.3563 21.4748 61.3051 22.5139 59.9514 22.5139H52.7338C52.2833 22.5139 51.8703 22.3976 51.5171 22.1945C51.5213 22.0967 51.5261 21.9994 51.5261 21.9005V20.5199C51.5261 19.1859 51.248 17.9131 50.7462 16.7589C51.3246 15.3296 52.4562 14.178 53.8796 13.5529C54.6003 13.9786 55.4404 14.226 56.3361 14.226C57.234 14.226 58.0779 13.978 58.8002 13.5508C60.8988 14.4703 62.3562 16.5319 62.3562 18.9637L62.3563 18.9632ZM39.5786 13.7564C40.2972 14.0573 41.0872 14.226 41.9131 14.226C42.739 14.226 43.5274 14.0573 44.2454 13.7564C47.087 14.7093 49.119 17.3547 49.119 20.5199V21.901C49.119 23.5734 47.8035 24.8827 46.1199 24.8827H37.6951C36.0115 24.8827 34.696 23.574 34.696 21.901V20.5199C34.696 17.3547 36.736 14.7087 39.5786 13.7564ZM10.6378 26.0623V66.329C9.97422 66.3317 9.47294 66.8699 9.4756 67.5245V74.6211C9.47295 75.2752 10.0091 75.8103 10.6733 75.8124L84.0716 75.8082C84.8927 75.8103 85.4754 75.0193 85.2179 74.2515L82.8131 67.1433C82.6507 66.66 82.1928 66.3316 81.6762 66.329C81.3024 66.3285 81.0851 66.3295 80.707 66.329L80.7065 41.4586C80.7065 39.5106 79.0816 37.908 77.1035 37.908H72.2912C70.3136 37.908 68.6786 39.5107 68.6786 41.4586V66.3263C67.4418 66.3263 66.5704 66.3258 65.3136 66.3263V48.5639C65.3136 46.6158 63.6887 45.0153 61.7106 45.0153H56.8983C54.9207 45.0153 53.2862 46.6158 53.2862 48.5639V66.3304C52.0796 66.3309 50.9781 66.3319 49.7737 66.3325V55.6709C49.7737 53.7229 48.1371 52.1224 46.159 52.1224H41.3584C39.3808 52.1224 37.7437 53.7229 37.7437 55.6709V66.3367C36.517 66.3372 35.5806 66.3382 34.3787 66.3388V62.7786C34.3787 60.8306 32.7417 59.2211 30.7641 59.2211L26.0772 59.2227C24.0996 59.2227 22.4625 60.8323 22.4625 62.7802V66.3404C20.7319 66.3398 19.4543 66.3372 17.856 66.3361V61.592H19.0631C19.7241 61.5899 20.2587 61.0633 20.2608 60.4124C20.2634 59.7578 19.7273 59.2253 19.0631 59.2232H17.856V54.4833H20.2608C20.925 54.4859 21.4659 53.9577 21.468 53.3036C21.4659 52.649 20.925 52.1213 20.2608 52.1239H17.856V47.384H19.0631C19.7273 47.3819 20.2634 46.8495 20.2608 46.1954C20.2587 45.5445 19.7241 45.0178 19.0631 45.0157H17.856V40.278H20.2608C20.9287 40.2806 21.4707 39.7445 21.468 39.0872C21.4659 38.4326 20.925 37.9049 20.2608 37.907H17.856V33.2397H19.0631C19.7273 33.237 20.2634 32.7045 20.2608 32.0505C20.2587 31.3995 19.7241 30.8729 19.0631 30.8708H17.856V26.0617C17.856 24.1137 16.2311 22.5132 14.253 22.5132C12.2755 22.5132 10.6384 24.1137 10.6384 26.0617L10.6378 26.0623ZM14.2524 24.8827C14.9393 24.8827 15.4501 25.3855 15.4501 26.0623V66.3344C14.6876 66.3334 13.7655 66.3334 13.0432 66.3318V26.0624C13.0432 25.3856 13.5656 24.8827 14.2525 24.8827L14.2524 24.8827ZM72.291 40.2789H77.1033C77.7902 40.2789 78.301 40.7818 78.301 41.4586V66.329C75.9871 66.3274 73.5263 66.3269 71.0834 66.3269L71.0839 41.4579C71.0839 40.781 71.6042 40.2782 72.2911 40.2782L72.291 40.2789ZM61.711 47.385C62.3978 47.385 62.9086 47.8879 62.9086 48.5647V66.3271C60.525 66.3282 58.1063 66.3303 55.691 66.3313V48.5648C55.691 47.888 56.2114 47.3852 56.8982 47.3852L61.711 47.385ZM46.159 54.4842C46.8459 54.4842 47.3662 54.9965 47.3662 55.6734V66.3349C44.8884 66.3365 42.575 66.3381 40.1486 66.3391V55.6734C40.1486 54.9966 40.671 54.4842 41.3584 54.4847L46.159 54.4842ZM30.7641 61.5924C31.451 61.5924 31.9739 62.1048 31.9739 62.7816V66.3418C29.5385 66.3423 27.15 66.3444 24.87 66.3439V62.7817C24.87 62.1049 25.3903 61.5925 26.0772 61.5925L30.7641 61.5924ZM82.4135 73.4378H11.8457V68.7017L80.8785 68.7715L82.4135 73.4378Z" fill="#EA9D3A"/>
</svg>
