<svg width="97" height="80" viewBox="0 0 97 80" fill="none" xmlns="http://www.w3.org/2000/svg">
<path d="M77.3642 45.3793H72.4132V28H75.3098C75.5657 28 75.8114 27.8982 75.9924 27.7171C76.1734 27.5361 76.2753 27.2904 76.2753 27.0345V26.069H79.1718C79.4278 26.069 79.6734 25.9671 79.8545 25.7861C80.0355 25.605 80.1374 25.3594 80.1374 25.1034V9.65516C80.1374 9.39923 80.0355 9.15354 79.8545 8.97251C79.6734 8.79147 79.4277 8.68964 79.1718 8.68964H76.2753V7.72412C76.2753 7.46819 76.1735 7.22251 75.9924 7.04147C75.8114 6.86044 75.5657 6.75861 75.3098 6.75861H21.2408C20.7074 6.75861 20.2753 7.19072 20.2753 7.72412V8.68964H17.3787C16.8453 8.68964 16.4132 9.12175 16.4132 9.65516V25.1034C16.4132 25.3594 16.515 25.605 16.6961 25.7861C16.8771 25.9671 17.1228 26.069 17.3787 26.069H20.2753V27.0345C20.2753 27.2904 20.3771 27.5361 20.5581 27.7171C20.7392 27.8982 20.9849 28 21.2408 28H24.1373V45.3793H19.1863C17.9719 45.3815 16.8081 45.8647 15.9498 46.723C15.0909 47.5819 14.6076 48.7457 14.6055 49.9596V67.1996C14.6076 68.0698 14.9541 68.9033 15.5694 69.5185C16.1847 70.1338 17.0182 70.4802 17.8883 70.4824H78.6621C79.5322 70.4802 80.3658 70.1338 80.981 69.5185C81.5963 68.9032 81.9427 68.0697 81.9449 67.1996V49.9596C81.9427 48.7457 81.4594 47.5819 80.6006 46.723C79.7423 45.8647 78.5785 45.3814 77.364 45.3793H77.3642ZM77.3642 47.3103C78.0663 47.3125 78.7393 47.5921 79.2354 48.0883C79.7322 48.5851 80.0118 49.2575 80.014 49.9595V53.1034H72.4133V47.3103L77.3642 47.3103ZM70.4822 64.3034C70.4795 65.3643 70.0829 66.3865 69.3696 67.1714C68.6557 67.9565 67.6762 68.4484 66.6201 68.5518V46.1987C66.6179 42.9094 65.3102 39.7553 62.9843 37.4294C60.6584 35.1034 57.5043 33.7957 54.215 33.7936H42.3356C39.0463 33.7958 35.8922 35.1034 33.5663 37.4294C31.2403 39.7553 29.9326 42.9094 29.9305 46.1987V68.5284C28.8745 68.4249 27.8949 67.933 27.181 67.148C26.4676 66.363 26.0711 65.3408 26.0684 64.28V26.3462C26.0727 23.7131 27.1201 21.1888 28.9822 19.3267C30.8443 17.4647 33.3685 16.4172 36.0016 16.413H60.5492C63.1823 16.4173 65.7066 17.4647 67.5687 19.3267C69.4308 21.1888 70.4782 23.7131 70.4825 26.3462L70.4822 64.3034ZM58.896 14.5062H53.1029V14.2901C53.1029 12.5654 52.1826 10.9717 50.6891 10.1092C49.1956 9.24657 47.355 9.24657 45.8615 10.1092C44.368 10.9718 43.4477 12.5656 43.4477 14.2901V14.483H37.6546V8.68992H58.896V14.5062ZM51.1718 14.5062H45.3787V14.2901C45.3787 13.2551 45.931 12.2987 46.827 11.7814C47.723 11.2642 48.8276 11.2642 49.7236 11.7814C50.6196 12.2987 51.1718 13.2551 51.1718 14.2901V14.5062ZM78.2063 10.6441V24.1614H76.2753V10.621L78.2063 10.6441ZM74.3442 9.67861V26.069H72.4132V25.5743V25.0102C72.4132 24.8249 72.3512 24.6007 72.313 24.3998C72.2742 24.1988 72.2591 24.0291 72.2203 23.8438C72.1815 23.6584 72.1201 23.4499 72.0657 23.2565C72.0118 23.0636 71.973 22.8933 71.9191 22.7236C71.8653 22.5539 71.7801 22.3454 71.7106 22.1595C71.6411 21.9741 71.5872 21.812 71.5177 21.6417C71.4482 21.472 71.3399 21.2866 71.2554 21.1008C71.1702 20.9154 71.1007 20.7764 71.008 20.6218C70.9154 20.4671 70.8071 20.2742 70.6993 20.104L70.4138 19.6482L70.0587 19.1692C69.9504 19.0302 69.8426 18.8836 69.7268 18.7522C69.611 18.6207 69.4644 18.451 69.3254 18.3044C69.1864 18.1579 69.0937 18.042 68.9623 17.9181C68.8308 17.7947 68.6686 17.6476 68.5221 17.5086C68.3755 17.3696 68.2597 17.2694 68.1282 17.1611C67.9967 17.0528 67.8038 16.9138 67.6336 16.7979C67.4639 16.6821 67.3631 16.5819 67.2166 16.4811L66.6837 16.1643C66.5371 16.0716 66.3981 15.979 66.2435 15.8938C66.0889 15.8087 65.8653 15.7085 65.6719 15.6234C65.479 15.5382 65.3707 15.4687 65.2085 15.3992L64.7683 15.2371L64.7661 8.68961H74.4213L74.3442 9.67861ZM62.758 8.71309V14.5062H60.827V8.71309H62.758ZM35.7236 8.71309V14.5062H33.7925V8.71309H35.7236ZM18.3442 24.1614V10.621H20.2753V24.1382L18.3442 24.1614ZM22.2063 25.1269V8.68964H31.8615V15.2397L31.4213 15.4019C31.2591 15.4714 31.1126 15.5484 30.9579 15.626C30.8033 15.7031 30.5716 15.7958 30.3863 15.8965C30.2009 15.9967 30.0926 16.0743 29.9461 16.167L29.4132 16.4838C29.2667 16.584 29.1352 16.6923 28.9962 16.8006C28.8572 16.9089 28.6643 17.0323 28.5016 17.1637L28.1077 17.5113C27.9612 17.6503 27.8065 17.7736 27.6675 17.9207C27.5285 18.0673 27.4202 18.1756 27.3044 18.3071C27.1885 18.4385 27.0264 18.6007 26.903 18.7548C26.7796 18.9094 26.6788 19.0328 26.5711 19.1718L26.216 19.6508L25.9305 20.1066C25.8222 20.2764 25.7144 20.4466 25.6217 20.6244C25.5291 20.8022 25.4596 20.9412 25.3744 21.1034C25.2893 21.2656 25.1966 21.4585 25.112 21.6444C25.0269 21.8297 24.9806 21.9843 24.9192 22.1621C24.8572 22.3399 24.7726 22.5328 24.7106 22.7262C24.6487 22.9191 24.6104 23.0813 24.5641 23.2591C24.5178 23.4369 24.4558 23.6454 24.4095 23.8464C24.3631 24.0474 24.3475 24.2171 24.3168 24.4024C24.2861 24.5878 24.2397 24.8038 24.2166 25.0129C24.1934 25.2214 24.2166 25.3911 24.1778 25.577C24.139 25.7623 24.1778 25.9014 24.139 26.0716H22.2079L22.2063 25.1269ZM19.1863 47.3103H24.1373V53.1034H16.5367V49.9596C16.5388 49.2575 16.8184 48.5851 17.3152 48.0884C17.8114 47.5922 18.4844 47.3125 19.1864 47.3104L19.1863 47.3103ZM16.5365 60.8276H20.2751V64.6896H16.5365V60.8276ZM16.5365 67.1998V66.6206H21.2407C21.4966 66.6206 21.7423 66.5188 21.9233 66.3378C22.1043 66.1567 22.2062 65.911 22.2062 65.6551V59.862C22.2062 59.6061 22.1043 59.3604 21.9233 59.1794C21.7423 58.9983 21.4966 58.8965 21.2407 58.8965H16.5365V55.0344H24.1372V64.3033C24.1496 65.89 24.7719 67.411 25.8754 68.5517H17.8884C17.1438 68.5474 16.5409 67.945 16.5365 67.1998H16.5365ZM31.862 68.5517V46.1986C31.8642 43.4211 32.9682 40.7584 34.9321 38.7944C36.896 36.8306 39.5587 35.7266 42.3362 35.7244H54.2156C56.9931 35.7265 59.6557 36.8305 61.6197 38.7944C63.5836 40.7583 64.6876 43.4211 64.6898 46.1986V68.5517H31.862ZM78.662 68.5517H70.675C71.7758 67.4019 72.39 65.8717 72.39 64.2801V55.0113H79.9907V58.8733H75.3096C74.7762 58.8733 74.3441 59.3054 74.3441 59.8389V65.6551C74.3441 65.9111 74.4459 66.1567 74.627 66.3378C74.808 66.5188 75.0537 66.6206 75.3096 66.6206H80.0138V67.1998C80.0095 67.945 79.4066 68.5474 78.6619 68.5517H78.662ZM80.0139 64.6896H76.2753V60.8275H80.0139V64.6896Z" fill="#EA9D3A"/>
<path d="M59.8626 22.2069H36.6902C35.931 22.209 35.2031 22.5113 34.6659 23.0485C34.1293 23.5857 33.8265 24.313 33.8243 25.0728V27.0346C33.8184 27.7991 34.1174 28.5351 34.6551 29.0787C35.1928 29.6223 35.9256 29.9289 36.6902 29.9311H59.8626C60.6325 29.9375 61.3728 29.6342 61.9175 29.0895C62.4622 28.5448 62.7655 27.8045 62.7591 27.0346V25.0728C62.7569 24.3077 62.4503 23.5755 61.9067 23.0377C61.3631 22.4995 60.6271 22.201 59.8626 22.2069L59.8626 22.2069ZM60.8281 27.0345C60.8367 27.2931 60.7381 27.5436 60.5549 27.7268C60.3717 27.91 60.1212 28.0086 59.8626 28H36.6902C36.4316 28.0086 36.181 27.91 35.9978 27.7268C35.8147 27.5436 35.716 27.2931 35.7247 27.0345V25.0727C35.7247 24.8189 35.827 24.5765 36.0091 24.4003C36.1913 24.2241 36.437 24.1293 36.6902 24.1379H59.8626C60.1104 24.1379 60.348 24.2365 60.5237 24.4116C60.6988 24.5867 60.7974 24.8249 60.7974 25.0727L60.8281 27.0345Z" fill="#EA9D3A"/>
<path d="M58.1545 43.4482H38.3959C37.1669 43.4482 35.988 43.9364 35.1189 44.8055C34.2499 45.6745 33.7617 46.8535 33.7617 48.083V62.0168C33.7617 63.2458 34.2499 64.4246 35.1189 65.2937C35.988 66.1628 37.1669 66.6509 38.3959 66.6509H58.1545C59.3835 66.6509 60.5624 66.1628 61.4315 65.2937C62.3006 64.4247 62.7887 63.2457 62.7887 62.0168V48.0513C62.7806 46.8277 62.2887 45.6569 61.4207 44.7943C60.5522 43.9317 59.3781 43.4478 58.1545 43.4478L58.1545 43.4482ZM38.3959 45.3793H58.1545C58.863 45.3793 59.5429 45.6611 60.044 46.1622C60.5451 46.6632 60.8269 47.3432 60.8269 48.0517V48.2758H35.7235V48.0517C35.7235 47.3432 36.0052 46.6633 36.5063 46.1622C37.0074 45.6611 37.6874 45.3793 38.3958 45.3793H38.3959ZM53.0718 50.2069H54.2151V54.0689H53.1025L53.0718 50.2069ZM58.1235 64.6896H38.3952C37.6867 64.6896 37.0068 64.4078 36.5057 63.9068C36.0046 63.4057 35.7228 62.7257 35.7228 62.0172V50.2069H51.1711V55.0345C51.1711 55.2904 51.2729 55.5361 51.454 55.7171C51.635 55.8982 51.8807 56 52.1366 56H55.226C55.4825 56 55.7276 55.8982 55.9092 55.7171C56.0902 55.5361 56.1915 55.2904 56.1915 55.0345V50.2069H60.8263V62.0172C60.8263 62.7257 60.5445 63.4057 60.0434 63.9068C59.5423 64.4078 58.8624 64.6896 58.1539 64.6896H58.1235Z" fill="#EA9D3A"/>
</svg>
