<svg width="48" height="74" viewBox="0 0 48 74" fill="none" xmlns="http://www.w3.org/2000/svg">
<path fill-rule="evenodd" clip-rule="evenodd" d="M41.6033 43.8705C45.5731 39.2111 48 32.9728 48 26.1176C48 11.6933 37.2548 0 24 0C10.7452 0 0 11.6933 0 26.1176C0 32.9549 2.41428 39.1786 6.36573 43.8341H6.35742L24.0009 73.4119L41.6033 43.8705Z" fill="black"/>
<g clip-path="url(#clip0_128_267)">
<path d="M7.17845 29.9686L5.28448 27.0825H4.5V32.5131H5.29569V30.2514C5.29569 29.7802 5.28448 29.3561 5.26207 28.9909C5.25086 28.8024 5.23966 28.6139 5.21724 28.4255L6.92069 30.9464H7.41379L9.13965 28.4255C9.11724 28.6257 9.10603 28.8142 9.09483 29.0145C9.07241 29.3914 9.06121 29.8037 9.06121 30.2514V32.5131H9.8569V27.0825H9.09483L7.17845 29.9686Z" fill="white"/>
<path d="M15.3597 27.0825L13.7908 29.4739L12.1209 27.0825H11.1123L13.3761 30.2631V32.5131H14.183V30.2278L16.3011 27.0825H15.3597Z" fill="white"/>
<path d="M20.7504 29.8625C20.5711 29.7447 20.3694 29.6505 20.134 29.568C19.8987 29.4855 19.6409 29.4266 19.3495 29.3677C19.1478 29.3324 18.9573 29.2853 18.8004 29.2382C18.6435 29.191 18.509 29.1321 18.397 29.0615C18.2961 28.9908 18.2176 28.9083 18.1616 28.8141C18.1056 28.7198 18.0832 28.6138 18.0832 28.496C18.0832 28.3429 18.128 28.2133 18.2289 28.0955C18.3297 27.9895 18.4642 27.8952 18.6323 27.8363C18.8004 27.7774 19.0021 27.7421 19.2151 27.7421C19.4168 27.7421 19.5961 27.7774 19.7754 27.8363C19.9547 27.8952 20.1116 27.9895 20.2573 28.1073C20.403 28.2251 20.5375 28.3782 20.6495 28.5549L21.1987 27.9541C21.0754 27.7421 20.9073 27.5772 20.7168 27.4358C20.5263 27.2944 20.3021 27.1884 20.0556 27.1177C19.809 27.0471 19.5401 27.0117 19.2375 27.0117C18.9573 27.0117 18.6995 27.0471 18.453 27.1295C18.2064 27.2002 18.0047 27.3062 17.8254 27.4476C17.6461 27.5889 17.5004 27.7539 17.3995 27.9423C17.2987 28.1308 17.2426 28.3429 17.2426 28.5667C17.2426 28.8023 17.2875 29.0026 17.3659 29.1793C17.4444 29.356 17.5564 29.5091 17.7133 29.6505C17.8702 29.78 18.0607 29.8978 18.2849 29.9803C18.509 30.0628 18.7668 30.1334 19.0582 30.1923C19.2039 30.2159 19.3383 30.2395 19.4728 30.2748C19.6073 30.3101 19.7306 30.3455 19.8539 30.3926C19.9771 30.4397 20.078 30.4868 20.1676 30.5575C20.2573 30.6164 20.3245 30.6871 20.3806 30.7696C20.4366 30.852 20.459 30.9463 20.459 31.0523C20.459 31.2172 20.403 31.3586 20.2909 31.4764C20.1789 31.5942 20.0332 31.6884 19.8426 31.7473C19.6521 31.8062 19.4616 31.8416 19.2487 31.8416C18.9013 31.8416 18.5875 31.7709 18.3297 31.6177C18.0607 31.4646 17.7918 31.2172 17.5228 30.8638L16.9961 31.5353C17.1754 31.7709 17.3659 31.9594 17.5901 32.1243C17.8142 32.2774 18.0495 32.3952 18.3185 32.4777C18.5875 32.5601 18.8789 32.5955 19.2039 32.5955C19.6297 32.5955 19.9995 32.5248 20.3133 32.3834C20.6271 32.2421 20.8737 32.0418 21.0418 31.7827C21.2099 31.5235 21.2995 31.2172 21.2995 30.8756C21.2995 30.6518 21.2547 30.4633 21.1539 30.2984C21.0642 30.1217 20.9297 29.9803 20.7504 29.8625Z" fill="white"/>
<path d="M26.7341 27.8952C26.5884 27.6478 26.3979 27.4357 26.1626 27.2944C25.9272 27.1412 25.6583 27.0706 25.3669 27.0706H22.9014V32.5012H23.6971V30.4632H25.3109C25.6134 30.4632 25.8824 30.3808 26.129 30.2276C26.3755 30.0745 26.5772 29.8624 26.7229 29.6033C26.8686 29.3441 26.9471 29.0614 26.9471 28.7433C26.9471 28.437 26.8798 28.1543 26.7341 27.8952ZM26.0057 29.2028C25.9272 29.3441 25.8152 29.4501 25.6807 29.5444C25.5462 29.6268 25.4005 29.6622 25.2436 29.6622H23.6859V27.8952H25.2548C25.4117 27.8952 25.5462 27.9305 25.6807 28.013C25.8152 28.0954 25.916 28.1897 25.9945 28.3192C26.0729 28.4488 26.1177 28.5902 26.1177 28.7551C26.1177 28.9083 26.0841 29.0614 26.0057 29.2028Z" fill="white"/>
<path d="M30.5228 27.0825H29.6599L27.4521 32.5131H28.2703L28.7185 31.4176L28.8082 31.1938L29.1332 30.3927L29.6599 29.0851C29.6935 28.9909 29.7384 28.8849 29.772 28.7671C29.8168 28.6493 29.8616 28.5315 29.9065 28.4019C29.9513 28.2723 29.9961 28.1427 30.0409 28.0249C30.0409 28.0131 30.0521 27.9896 30.0521 27.9778V27.9896C30.097 28.1192 30.1418 28.2487 30.1978 28.3901C30.2427 28.5315 30.2875 28.6611 30.3323 28.7789C30.3771 28.8967 30.4108 28.9909 30.4332 29.0498L30.9711 30.3809H29.772L29.4358 31.182H29.9289C30.7582 31.182 31.4978 31.7003 31.8228 32.5014H32.6858L30.5228 27.0825Z" fill="white"/>
<path d="M34.915 28.4017C35.0831 28.2368 35.2849 28.0954 35.509 28.0012C35.7332 27.9069 35.9685 27.8598 36.215 27.8598C36.4168 27.8598 36.6073 27.8952 36.7978 27.9541C36.9771 28.013 37.1564 28.0954 37.3245 28.2014C37.4926 28.3075 37.6495 28.437 37.8064 28.5902L38.3107 27.9541C38.1763 27.7891 38.0081 27.636 37.784 27.4946C37.5711 27.3533 37.3245 27.2473 37.0556 27.153C36.7866 27.0706 36.5176 27.0234 36.2263 27.0234C35.8564 27.0234 35.509 27.0941 35.184 27.2355C34.859 27.3768 34.5676 27.5653 34.3211 27.8245C34.0745 28.0719 33.8728 28.3664 33.7383 28.6962C33.5926 29.0261 33.5254 29.3912 33.5254 29.7918C33.5254 30.2041 33.5926 30.581 33.7271 30.9227C33.8616 31.2643 34.0521 31.5588 34.2875 31.8062C34.5228 32.0535 34.8142 32.242 35.1392 32.3834C35.4642 32.513 35.8116 32.5836 36.1926 32.5836C36.4728 32.5836 36.7418 32.5483 37.0107 32.4658C37.2797 32.3834 37.515 32.2891 37.728 32.1596C37.9409 32.03 38.109 31.9122 38.2323 31.7826L37.84 31.0876C37.7168 31.2054 37.5711 31.3114 37.4142 31.4174C37.2573 31.5117 37.0892 31.5941 36.8987 31.653C36.7081 31.7119 36.5064 31.7473 36.2935 31.7473C36.0133 31.7473 35.7668 31.7001 35.5202 31.6059C35.2849 31.5117 35.0719 31.3821 34.8926 31.2172C34.7133 31.0522 34.5676 30.8402 34.4668 30.6046C34.3659 30.3572 34.3099 30.0863 34.3099 29.78C34.3099 29.4973 34.3659 29.2381 34.4668 28.9907C34.6013 28.7669 34.7469 28.5666 34.915 28.4017Z" fill="white"/>
<path d="M43.4996 27.8836V27.0825H39.835V32.5131H43.4996V31.7003H40.6307V30.1218H43.0962V29.3207H40.6307V27.8836H43.4996Z" fill="white"/>
<path d="M10.2718 34.2209C10.171 34.2209 10.0925 34.2563 10.0253 34.3152C9.95805 34.3741 9.90201 34.4565 9.86839 34.5626L9.85719 34.2916C9.85719 34.2798 9.85719 34.2681 9.84598 34.2563C9.83477 34.2445 9.83477 34.2445 9.81236 34.2445H9.74512V35.5403H9.8796V34.7039C9.91322 34.5861 9.96926 34.5037 10.0253 34.4448C10.0813 34.3859 10.1598 34.3505 10.2606 34.3505C10.283 34.3505 10.3055 34.3505 10.3279 34.3505C10.3503 34.3505 10.3615 34.3623 10.3727 34.3623C10.3839 34.3623 10.3951 34.3741 10.4063 34.3741C10.4175 34.3741 10.4175 34.3741 10.4287 34.3741C10.4399 34.3741 10.4512 34.3623 10.4512 34.3505L10.4624 34.2681C10.4287 34.2563 10.4063 34.2445 10.3727 34.2327C10.3391 34.2209 10.3055 34.2209 10.2718 34.2209Z" fill="#E6E6E6"/>
<path d="M11.5494 34.3623C11.5045 34.3152 11.4597 34.2798 11.3925 34.2563C11.3364 34.2327 11.2692 34.2209 11.2019 34.2209C11.1123 34.2209 11.0338 34.2327 10.9666 34.2681C10.8994 34.3034 10.8433 34.3387 10.7873 34.3976C10.7425 34.4565 10.7088 34.5272 10.6752 34.5979C10.6528 34.6804 10.6416 34.7628 10.6416 34.8571C10.6416 34.9631 10.6528 35.0691 10.6864 35.1516C10.7088 35.234 10.7537 35.3047 10.7985 35.3636C10.8433 35.4225 10.9106 35.4696 10.9778 35.4932C11.045 35.5285 11.1235 35.5403 11.2132 35.5403C11.258 35.5403 11.3028 35.5403 11.3476 35.5285C11.3925 35.5168 11.4373 35.505 11.4709 35.4932C11.5157 35.4814 11.5494 35.4579 11.583 35.4343C11.6166 35.4107 11.639 35.3872 11.6614 35.3636L11.6278 35.3165C11.6166 35.3047 11.6166 35.3047 11.6054 35.3047C11.5942 35.3047 11.583 35.3165 11.5606 35.3283C11.5382 35.3401 11.5157 35.3636 11.4821 35.3754C11.4485 35.399 11.4149 35.4107 11.37 35.4225C11.3252 35.4343 11.2692 35.4461 11.2132 35.4461C11.1459 35.4461 11.0787 35.4343 11.0226 35.4107C10.9666 35.3872 10.9218 35.3518 10.8769 35.2929C10.8321 35.2458 10.8097 35.1869 10.7873 35.1045C10.7649 35.0338 10.7537 34.9395 10.7537 34.8453V34.8217H11.639C11.6502 34.8217 11.6614 34.8217 11.6614 34.81C11.6726 34.7982 11.6726 34.7864 11.6726 34.7746C11.6726 34.6804 11.6614 34.5979 11.639 34.5272C11.6278 34.4683 11.5942 34.4094 11.5494 34.3623ZM10.7761 34.7511C10.7873 34.6804 10.7985 34.6215 10.8209 34.5626C10.8433 34.5037 10.8769 34.4565 10.9106 34.4212C10.9442 34.3859 10.989 34.3505 11.0451 34.327C11.0899 34.3034 11.1571 34.2916 11.2132 34.2916C11.2692 34.2916 11.3252 34.3034 11.37 34.327C11.4149 34.3505 11.4597 34.3741 11.4933 34.4094C11.5269 34.4448 11.5494 34.4919 11.5718 34.5508C11.5942 34.6097 11.5942 34.6686 11.5942 34.7393H10.7761V34.7511Z" fill="#E6E6E6"/>
<path d="M12.737 34.3388C12.7034 34.2917 12.6586 34.2681 12.6138 34.2446C12.5689 34.221 12.5017 34.2092 12.4345 34.2092C12.3448 34.2092 12.2664 34.2328 12.1879 34.2563C12.1207 34.2917 12.0534 34.3388 11.9862 34.4095L12.0086 34.4448C12.0198 34.4566 12.031 34.4684 12.0422 34.4684C12.0534 34.4684 12.0646 34.4566 12.087 34.4448C12.1095 34.4213 12.1319 34.4095 12.1543 34.3859C12.1879 34.3624 12.2215 34.3506 12.2552 34.327C12.3 34.3152 12.3448 34.3035 12.412 34.3035C12.5129 34.3035 12.5802 34.3388 12.625 34.3977C12.6698 34.4566 12.7034 34.5509 12.7034 34.6687V34.7982C12.5689 34.7982 12.4457 34.81 12.3448 34.8336C12.2439 34.8571 12.1655 34.8807 12.0983 34.916C12.031 34.9514 11.9862 34.9867 11.9638 35.0338C11.9302 35.081 11.9189 35.1281 11.9189 35.187C11.9189 35.2459 11.9302 35.293 11.9526 35.3401C11.975 35.3872 11.9974 35.4108 12.031 35.4461C12.0646 35.4697 12.0983 35.4933 12.1319 35.505C12.1767 35.5168 12.2103 35.5286 12.2552 35.5286C12.3112 35.5286 12.356 35.5286 12.3896 35.5168C12.4345 35.505 12.4681 35.4933 12.5017 35.4697C12.5353 35.4461 12.5689 35.4226 12.6026 35.399C12.6362 35.3755 12.6698 35.3401 12.7034 35.3048L12.7258 35.4697C12.737 35.4933 12.7483 35.505 12.7707 35.505H12.8155V34.6569C12.8155 34.5862 12.8043 34.5155 12.7931 34.4566C12.7931 34.4331 12.7707 34.3859 12.737 34.3388ZM12.7258 35.2459C12.6922 35.2812 12.6698 35.3048 12.6362 35.3283C12.6026 35.3519 12.5689 35.3755 12.5353 35.399C12.5017 35.4226 12.4681 35.4344 12.4233 35.4461C12.3784 35.4579 12.3448 35.4579 12.2888 35.4579C12.2552 35.4579 12.2215 35.4579 12.1991 35.4461C12.1655 35.4344 12.1431 35.4226 12.1207 35.399C12.0983 35.3755 12.0758 35.3519 12.0646 35.3166C12.0534 35.2812 12.0422 35.2459 12.0422 35.1988C12.0422 35.1516 12.0534 35.1163 12.0758 35.081C12.0983 35.0456 12.1431 35.0103 12.1991 34.9867C12.2552 34.9632 12.3224 34.9396 12.412 34.9278C12.5017 34.916 12.6026 34.9043 12.7146 34.9043V35.2459H12.7258Z" fill="#E6E6E6"/>
<path d="M13.3645 33.6438H13.2412V35.5404H13.3645V33.6438Z" fill="#E6E6E6"/>
<path d="M15.1912 34.8335C15.2024 34.8335 15.2137 34.8335 15.2137 34.8217C15.2137 34.81 15.2249 34.7982 15.2249 34.7864C15.2249 34.6922 15.2137 34.6097 15.1912 34.539C15.1688 34.4683 15.1352 34.4094 15.0904 34.3623C15.0455 34.3152 15.0007 34.2798 14.9335 34.2563C14.8774 34.2327 14.8102 34.2209 14.743 34.2209C14.6533 34.2209 14.5749 34.2327 14.5076 34.2681C14.4404 34.3034 14.3843 34.3387 14.3283 34.3976C14.2835 34.4565 14.2499 34.5272 14.2162 34.5979C14.1938 34.6804 14.1826 34.7628 14.1826 34.8571C14.1826 34.9631 14.1938 35.0691 14.2274 35.1516C14.2499 35.234 14.2947 35.3047 14.3395 35.3636C14.3843 35.4225 14.4516 35.4696 14.5188 35.4932C14.5861 35.5285 14.6645 35.5403 14.7542 35.5403C14.799 35.5403 14.8438 35.5403 14.8887 35.5285C14.9335 35.5168 14.9783 35.505 15.0119 35.4932C15.0568 35.4814 15.0904 35.4579 15.124 35.4343C15.1576 35.4107 15.18 35.3872 15.2024 35.3636L15.1688 35.3165C15.1576 35.3047 15.1576 35.3047 15.1464 35.3047C15.1352 35.3047 15.124 35.3165 15.1016 35.3283C15.0792 35.3401 15.0568 35.3636 15.0231 35.3754C14.9895 35.399 14.9559 35.4107 14.9111 35.4225C14.8662 35.4343 14.8102 35.4461 14.7542 35.4461C14.6869 35.4461 14.6197 35.4343 14.5637 35.4107C14.5076 35.3872 14.4628 35.3518 14.418 35.2929C14.3731 35.2458 14.3507 35.1869 14.3283 35.1045C14.3059 35.0338 14.2947 34.9395 14.2947 34.8453V34.8217H15.1912V34.8335ZM14.3507 34.5744C14.3731 34.5155 14.4068 34.4683 14.4404 34.433C14.474 34.3976 14.5188 34.3623 14.5749 34.3387C14.6197 34.3152 14.6869 34.3034 14.743 34.3034C14.799 34.3034 14.855 34.3152 14.8999 34.3387C14.9447 34.3623 14.9895 34.3859 15.0231 34.4212C15.0568 34.4565 15.0792 34.5037 15.1016 34.5626C15.124 34.6215 15.124 34.6804 15.124 34.7511H14.3171C14.3171 34.6922 14.3283 34.6215 14.3507 34.5744Z" fill="#E6E6E6"/>
<path d="M16.1665 34.9279C16.1329 34.9044 16.0993 34.8808 16.0544 34.869C16.0096 34.8573 15.976 34.8337 15.9312 34.8219C15.8863 34.8101 15.8415 34.7984 15.8079 34.7748C15.7631 34.763 15.7294 34.7395 15.6958 34.7277C15.6622 34.7041 15.6398 34.6806 15.6174 34.657C15.595 34.6334 15.595 34.5981 15.595 34.5628C15.595 34.5274 15.6062 34.5039 15.6174 34.4685C15.6286 34.4332 15.651 34.4096 15.6734 34.3861C15.6958 34.3625 15.7294 34.3507 15.7631 34.3272C15.7967 34.3154 15.8415 34.3036 15.8863 34.3036C15.9312 34.3036 15.976 34.3036 16.0096 34.3154C16.0432 34.3272 16.0769 34.3389 16.0993 34.3507C16.1217 34.3625 16.1441 34.3743 16.1553 34.3861C16.1665 34.3978 16.1777 34.3978 16.1889 34.3978C16.2001 34.3978 16.2113 34.3861 16.2113 34.3743L16.2337 34.3272C16.1889 34.28 16.1329 34.2447 16.0769 34.2211C16.0208 34.1976 15.9536 34.1858 15.8751 34.1858C15.8079 34.1858 15.7519 34.1976 15.707 34.2094C15.6622 34.2211 15.6174 34.2565 15.5837 34.2918C15.5501 34.3272 15.5165 34.3625 15.5053 34.4096C15.4829 34.4803 15.4829 34.5156 15.4829 34.5628C15.4829 34.6217 15.4941 34.657 15.5165 34.6923C15.5389 34.7277 15.5613 34.763 15.595 34.7866C15.6286 34.8101 15.6622 34.8337 15.707 34.8455C15.7519 34.8573 15.7855 34.8808 15.8303 34.8926C15.8751 34.9044 15.92 34.9162 15.9536 34.9397C15.9984 34.9515 16.032 34.9751 16.0656 34.9868C16.0993 35.0104 16.1217 35.034 16.1441 35.0575C16.1665 35.0811 16.1777 35.1164 16.1777 35.1635C16.1777 35.1989 16.1665 35.2342 16.1553 35.2696C16.1441 35.3049 16.1217 35.3402 16.0993 35.3638C16.0769 35.3874 16.0432 35.4109 15.9984 35.4227C15.9536 35.4345 15.9087 35.4463 15.8639 35.4463C15.8079 35.4463 15.7631 35.4345 15.7294 35.4227C15.6958 35.4109 15.6622 35.3991 15.6398 35.3756C15.6174 35.3638 15.595 35.3402 15.5837 35.3285C15.5725 35.3167 15.5501 35.3049 15.5389 35.3049C15.5277 35.3049 15.5277 35.3049 15.5165 35.3049L15.5053 35.3167L15.4717 35.3638C15.5165 35.4109 15.5725 35.4463 15.6398 35.4816C15.707 35.5052 15.7743 35.5287 15.8639 35.5287C15.9312 35.5287 15.9984 35.5169 16.0432 35.4934C16.0993 35.4698 16.1441 35.4463 16.1777 35.4109C16.2113 35.3756 16.245 35.3285 16.2674 35.2813C16.2898 35.2342 16.301 35.1753 16.301 35.1282C16.301 35.0811 16.2898 35.034 16.2674 34.9986C16.2225 34.9868 16.2001 34.9515 16.1665 34.9279Z" fill="#E6E6E6"/>
<path d="M17.1646 35.3637C17.1533 35.3637 17.1533 35.3637 17.1421 35.3755C17.1309 35.3873 17.1197 35.399 17.1085 35.4108C17.0973 35.4226 17.0749 35.4344 17.0525 35.4462C17.0301 35.4579 17.0077 35.4579 16.974 35.4579C16.9516 35.4579 16.9292 35.4579 16.9068 35.4462C16.8844 35.4344 16.8732 35.4226 16.8508 35.4108C16.8396 35.399 16.8283 35.3755 16.8171 35.3519C16.8059 35.3284 16.8059 35.293 16.8059 35.2577V34.3742H17.1982V34.2799H16.8059V33.7852H16.7499C16.7387 33.7852 16.7387 33.7852 16.7275 33.7969C16.7275 33.8087 16.7163 33.8087 16.7163 33.8205L16.6827 34.2799L16.4697 34.2917V34.3388C16.4697 34.3506 16.4697 34.3506 16.4809 34.3624C16.4921 34.3624 16.4921 34.3742 16.5033 34.3742H16.6827V35.2577C16.6827 35.3637 16.7051 35.4344 16.7499 35.4815C16.7947 35.5286 16.862 35.5522 16.9404 35.5522C16.9965 35.5522 17.0413 35.5404 17.0861 35.5168C17.1309 35.4933 17.1758 35.4697 17.2094 35.4344L17.1758 35.3755L17.1646 35.3637Z" fill="#E6E6E6"/>
<path d="M18.2288 34.3388C18.1952 34.2917 18.1503 34.2681 18.1055 34.2446C18.0607 34.221 17.9934 34.2092 17.9262 34.2092C17.8365 34.2092 17.7581 34.2328 17.6908 34.2563C17.6236 34.2917 17.5564 34.3388 17.4891 34.4095L17.5115 34.4448C17.5227 34.4566 17.5339 34.4684 17.5452 34.4684C17.5564 34.4684 17.5676 34.4566 17.59 34.4448C17.6124 34.4213 17.6348 34.4095 17.6572 34.3859C17.6908 34.3624 17.7245 34.3506 17.7581 34.327C17.8029 34.3152 17.8477 34.3035 17.915 34.3035C18.0158 34.3035 18.0831 34.3388 18.1279 34.3977C18.1727 34.4566 18.2064 34.5509 18.2064 34.6687V34.7982C18.0719 34.7982 17.9486 34.81 17.8477 34.8336C17.7469 34.8571 17.6684 34.8807 17.6012 34.916C17.5339 34.9514 17.4891 34.9867 17.4667 35.0338C17.4331 35.081 17.4219 35.1281 17.4219 35.187C17.4219 35.2459 17.4331 35.293 17.4555 35.3401C17.4779 35.3872 17.5003 35.4108 17.5339 35.4461C17.5676 35.4697 17.6012 35.4933 17.6348 35.505C17.6796 35.5168 17.7133 35.5286 17.7581 35.5286C17.8141 35.5286 17.8589 35.5286 17.8926 35.5168C17.9374 35.505 17.971 35.4933 18.0046 35.4697C18.0383 35.4461 18.0719 35.4226 18.1055 35.399C18.1391 35.3755 18.1727 35.3401 18.2064 35.3048L18.2288 35.4697C18.24 35.4933 18.2512 35.505 18.2736 35.505H18.3184V34.6569C18.3184 34.5862 18.3072 34.5155 18.296 34.4566C18.2848 34.4331 18.2624 34.3859 18.2288 34.3388ZM18.2064 35.2459C18.1727 35.2812 18.1503 35.3048 18.1167 35.3283C18.0831 35.3519 18.0495 35.3755 18.0158 35.399C17.9822 35.4226 17.9486 35.4344 17.9038 35.4461C17.8589 35.4579 17.8253 35.4579 17.7693 35.4579C17.7357 35.4579 17.702 35.4579 17.6796 35.4461C17.646 35.4344 17.6236 35.4226 17.6012 35.399C17.5788 35.3755 17.5564 35.3519 17.5452 35.3166C17.5339 35.2812 17.5227 35.2459 17.5227 35.1988C17.5227 35.1516 17.5339 35.1163 17.5564 35.081C17.5788 35.0456 17.6236 35.0103 17.6796 34.9867C17.7357 34.9632 17.8029 34.9396 17.8926 34.9278C17.9822 34.916 18.0831 34.9043 18.1952 34.9043V35.2459H18.2064Z" fill="#E6E6E6"/>
<path d="M19.2485 35.3637C19.2373 35.3637 19.2373 35.3637 19.2261 35.3755C19.2149 35.3873 19.2037 35.399 19.1925 35.4108C19.1813 35.4226 19.1589 35.4344 19.1365 35.4462C19.1141 35.4579 19.0916 35.4579 19.058 35.4579C19.0356 35.4579 19.0132 35.4579 18.9908 35.4462C18.9684 35.4344 18.9572 35.4226 18.9347 35.4108C18.9235 35.399 18.9123 35.3755 18.9011 35.3519C18.8899 35.3284 18.8899 35.293 18.8899 35.2577V34.3742H19.2822V34.2799H18.8899V33.7852H18.8339C18.8227 33.7852 18.8227 33.7852 18.8115 33.7969C18.8115 33.8087 18.8003 33.8087 18.8003 33.8205L18.7666 34.2799L18.5537 34.2917V34.3388C18.5537 34.3506 18.5537 34.3506 18.5649 34.3624C18.5761 34.3624 18.5761 34.3742 18.5873 34.3742H18.7666V35.2577C18.7666 35.3637 18.7891 35.4344 18.8339 35.4815C18.8787 35.5286 18.946 35.5522 19.0244 35.5522C19.0804 35.5522 19.1253 35.5404 19.1701 35.5168C19.2149 35.4933 19.2597 35.4697 19.2934 35.4344L19.2597 35.3755C19.2597 35.3755 19.2597 35.3637 19.2485 35.3637Z" fill="#E6E6E6"/>
<path d="M20.493 34.8335C20.5042 34.8335 20.5154 34.8335 20.5154 34.8217C20.5266 34.81 20.5266 34.7982 20.5266 34.7864C20.5266 34.6922 20.5154 34.6097 20.493 34.539C20.4706 34.4683 20.437 34.4094 20.3921 34.3623C20.3473 34.3152 20.3025 34.2798 20.2352 34.2563C20.1792 34.2327 20.112 34.2209 20.0447 34.2209C19.9551 34.2209 19.8766 34.2327 19.8094 34.2681C19.7421 34.3034 19.6861 34.3387 19.6301 34.3976C19.5852 34.4565 19.5516 34.5272 19.518 34.5979C19.4956 34.6804 19.4844 34.7628 19.4844 34.8571C19.4844 34.9631 19.4956 35.0691 19.5292 35.1516C19.5516 35.234 19.5964 35.3047 19.6413 35.3636C19.6861 35.4225 19.7533 35.4696 19.8206 35.4932C19.8878 35.5285 19.9663 35.5403 20.0559 35.5403C20.1008 35.5403 20.1456 35.5403 20.1904 35.5285C20.2352 35.5168 20.2801 35.505 20.3137 35.4932C20.3585 35.4814 20.3921 35.4579 20.4258 35.4343C20.4594 35.4107 20.4818 35.3872 20.5042 35.3636L20.4706 35.3165C20.4594 35.3047 20.4594 35.3047 20.4482 35.3047C20.437 35.3047 20.4258 35.3165 20.4033 35.3283C20.3809 35.3401 20.3585 35.3636 20.3249 35.3754C20.2913 35.399 20.2577 35.4107 20.2128 35.4225C20.168 35.4343 20.112 35.4461 20.0559 35.4461C19.9887 35.4461 19.9214 35.4343 19.8654 35.4107C19.8094 35.3872 19.7645 35.3518 19.7197 35.2929C19.6749 35.2458 19.6525 35.1869 19.6301 35.1045C19.6077 35.0338 19.5964 34.9395 19.5964 34.8453V34.8217H20.493V34.8335ZM19.6525 34.5744C19.6749 34.5155 19.7085 34.4683 19.7421 34.433C19.7758 34.3976 19.8206 34.3623 19.8766 34.3387C19.9214 34.3152 19.9887 34.3034 20.0447 34.3034C20.1008 34.3034 20.1568 34.3152 20.2016 34.3387C20.2464 34.3623 20.2913 34.3859 20.3249 34.4212C20.3585 34.4565 20.3809 34.5037 20.4033 34.5626C20.4258 34.6215 20.4258 34.6804 20.4258 34.7511H19.6189C19.6189 34.6922 19.6301 34.6215 19.6525 34.5744Z" fill="#E6E6E6"/>
<path d="M8.46682 33.6558L8.44441 33.6675H8.4332H8.41079L8.38838 33.6793L8.35476 33.7029H8.34355L8.33234 33.6911H8.32113V33.7029L8.30993 33.7382H8.27631L8.25389 33.75L8.22027 33.7382L8.19786 33.75L8.16424 33.7853L8.14182 33.7971H8.13062H8.1082H8.097L8.08579 33.8089H8.06338L8.05217 33.8207L8.04096 33.8442L8.02976 33.856H8.01855H8.00734H7.99613V33.8678L7.98493 33.8796L7.96251 33.8914L7.97372 33.9031L7.96251 33.9149H7.95131L7.9401 33.9267H7.90648L7.89527 33.9385H7.88407L7.86165 33.9503H7.85044H7.83924H7.82803H7.81682H7.80562H7.7832H7.772H7.76079V33.962L7.74958 33.9738L7.72717 33.9856L7.70476 34.0092L7.67113 34.0563L7.63751 34.0681L7.60389 34.0798L7.58148 34.1034L7.52544 34.1387L7.42458 34.1859L7.40217 34.1976H7.36855L7.31251 34.2212L7.26769 34.233H7.25648L7.18924 34.2565H7.15562L7.1332 34.2683H7.08838H7.05475H7.03234L6.99872 34.2919L6.9651 34.3037L6.94269 34.3272L6.90907 34.3508L6.87544 34.3626V34.3508H6.86424H6.85303H6.81941H6.797H6.78579L6.71855 34.3743L6.65131 34.3861H6.62889H6.60648H6.59527H6.56165H6.55044H6.46079H6.41596H6.39355L6.35993 34.3743L6.29269 34.3861H6.28148L6.25907 34.3743L6.24786 34.3861H6.23665L6.21424 34.3743H6.20303L6.18062 34.3861H6.16941L6.1582 34.3743H6.13579L6.12458 34.3626L6.04613 34.3743L6.02372 34.3626L5.95648 34.339H5.94527L5.93407 34.3508L5.91165 34.3626H5.88924H5.86682L5.8332 34.3508L5.79958 34.339H5.78838H5.76596H5.75475L5.73234 34.3154L5.67631 34.2801L5.64269 34.2565H5.63148V34.2683L5.64269 34.2919V34.3154V34.339V34.3508V34.3626L5.65389 34.3743L5.6651 34.3861V34.4332V34.4804L5.65389 34.551V34.5628L5.64269 34.5982L5.63148 34.6335L5.59786 34.7278L5.58665 34.7395L5.56424 34.7513L5.54182 34.7749L5.5082 34.7984H5.497H5.47458H5.46338L5.44096 34.7867H5.41855L5.39613 34.7631L5.36251 34.7513L5.32889 34.7278L5.31769 34.716H5.29527L5.27286 34.7042H5.26165H5.25044H5.21682L5.1832 34.6924H5.172H5.14958L5.12717 34.7042H5.11596H5.10475H5.09355L5.08234 34.7278H5.07113H5.05993H5.04872H5.03751H5.02631H5.0151H5.00389L4.99269 34.716H4.98148H4.97027V34.7395V34.7513L4.95907 34.7631L4.94786 34.7749V34.822L4.91424 34.8927L4.89182 34.9162L4.88062 34.928L4.8582 34.9516L4.83579 34.9634L4.79096 34.9987L4.77975 35.0105L4.74613 35.0223H4.73493H4.70131L4.66769 35.0105L4.63407 34.9869L4.61165 34.9634L4.56682 34.9162H4.55562L4.54441 34.8927H4.5332V34.9045V34.9162V34.928V34.9869V35.0105L4.56682 35.0576L4.57803 35.0812L4.58924 35.0929V35.1047L4.60044 35.1401L4.58924 35.1636V35.1754L4.57803 35.1872V35.199L4.61165 35.2461V35.2696V35.2932L4.60044 35.305V35.3168L4.61165 35.3285L4.63407 35.3521L4.64527 35.3874L4.65648 35.3992H4.66769H4.67889H4.6901L4.70131 35.411H4.71251H4.72372L4.73493 35.4228V35.4581L4.74613 35.4935V35.517L4.75734 35.5288V35.5406V35.5759L4.76855 35.5877H4.77975H4.79096L4.80217 35.5995L4.81338 35.623H4.82458H4.83579L4.88062 35.6702H4.89182H4.90303L4.91424 35.6819L4.92544 35.6702H4.93665H4.94786L4.95907 35.7173H4.98148L5.0151 35.7291H5.03751L5.07113 35.7526L5.08234 35.7644L5.09355 35.7762L5.10475 35.788L5.12717 35.7997H5.14958H5.16079H5.172L5.21682 35.8115H5.23924L5.25044 35.8351H5.26165H5.27286L5.28407 35.8233H5.29527H5.30648H5.31769L5.3401 35.8115V35.7997L5.35131 35.788L5.39613 35.7762H5.40734L5.44096 35.7644L5.46338 35.7762H5.5082L5.55303 35.788L5.56424 35.7997L5.57544 35.8115H5.58665L5.57544 35.8233L5.59786 35.8469L5.62027 35.8704L5.63148 35.9058L5.64269 35.9175L5.65389 35.9411V35.9529L5.64269 35.9647H5.65389H5.6651H5.67631H5.68751L5.70993 35.9529L5.72113 35.9411L5.74355 35.9529H5.76596H5.77717L5.79958 35.9647H5.81079V35.9529V35.9411L5.79958 35.9293L5.77717 35.9058L5.76596 35.894L5.75475 35.8704V35.8469V35.8351V35.8115V35.7997V35.788L5.76596 35.7762L5.79958 35.7526L5.8332 35.7173L5.85562 35.7055L5.87803 35.6937L5.94527 35.6702H5.97889L6.18062 35.6819H6.19182L6.20303 35.6584L6.22544 35.6466H6.23665L6.27027 35.6584H6.28148L6.30389 35.6466H6.3151L6.33751 35.6348H6.35993H6.37113L6.40476 35.6113L6.43838 35.5995H6.44958L6.4832 35.5759L6.50562 35.5641L6.52803 35.5524H6.55044H6.60648L6.61769 35.5288H6.6401L6.65131 35.517L6.66251 35.5052L6.67372 35.4935L6.68493 35.4817L6.69613 35.4699H6.74096L6.78579 35.4817H6.797L6.8082 35.4463L6.81941 35.4346L6.85303 35.3874V35.3757V35.3639V35.3403V35.305V35.2696L6.87544 35.2225L6.89786 35.199L6.92027 35.1754L6.93148 35.1636H6.95389H7.02113H7.04355H7.06596L7.122 35.1754L7.14441 35.1872L7.16682 35.2107L7.18924 35.2343L7.20044 35.2461H7.21165L7.23407 35.2343L7.24527 35.2225L7.26769 35.2107L7.27889 35.199V35.1872L7.31251 35.1754H7.35734L7.36855 35.1636H7.37976L7.40217 35.1754H7.42458L7.43579 35.1872H7.447H7.46941L7.49182 35.199H7.50303L7.54786 35.2225H7.55907V35.2343H7.57027L7.58148 35.2225H7.57027L7.55907 35.199L7.57027 35.1872L7.54786 35.1636L7.53665 35.1518L7.50303 35.0929L7.4582 35.0458L7.43579 35.034H7.42458L7.40217 35.0105L7.41338 34.9045V34.8927L7.40217 34.8691L7.37976 34.8573L7.36855 34.8338L7.32372 34.7749V34.7631H7.31251H7.30131L7.31251 34.7513H7.32372V34.7395L7.30131 34.6924V34.6806L7.31251 34.61V34.5982L7.33493 34.551L7.34613 34.5393L7.35734 34.5039L7.36855 34.4804L7.37976 34.4686L7.40217 34.4568H7.42458H7.447L7.48062 34.4686H7.51424H7.52544H7.53665L7.55907 34.4568L7.57027 34.445L7.58148 34.4332L7.59269 34.3861V34.3743L7.60389 34.3626L7.64872 34.3154L7.68234 34.2801L7.74958 34.2212L7.7832 34.1976L7.80562 34.1859L7.96251 34.1152L8.00734 34.0681L8.02976 34.0445L8.06338 34.0209L8.1082 33.9974L8.14182 33.962L8.15303 33.9503L8.16424 33.9149H8.17544L8.18665 33.8914L8.22027 33.8678L8.34355 33.7971H8.36596L8.37717 33.7853L8.41079 33.7736H8.422H8.4332L8.44441 33.7618V33.7264L8.45562 33.7147V33.6911L8.46682 33.6558Z" fill="#D57800"/>
<path d="M36.3048 30.2278C36.5276 30.2278 36.7083 30.0379 36.7083 29.8037C36.7083 29.5695 36.5276 29.3796 36.3048 29.3796C36.082 29.3796 35.9014 29.5695 35.9014 29.8037C35.9014 30.0379 36.082 30.2278 36.3048 30.2278Z" fill="#A67154"/>
</g>
<g clip-path="url(#clip1_128_267)">
<path d="M16.5 25.5V18.9527L22.066 15.5901V25.5H16.5Z" fill="white"/>
<path d="M26.6618 7.5V11.278L26.642 18.2802L26.6222 25.5H25.9686V17.8648L25.1762 17.4099L25.1564 25.5H24.483V17.0143L23.5718 16.4802L23.552 25.5H22.8983V16.0846L22.0664 15.5901V10.289L26.6618 7.5Z" fill="white"/>
<path d="M33.0002 11.2779L32.9408 25.4999H32.2871V10.8428L33.0002 11.2779Z" fill="white"/>
<path d="M31.3759 10.2889L31.3561 25.4999H30.6826V9.85376L31.3759 10.2889Z" fill="#D47800"/>
<path d="M29.7909 9.29991L29.7513 25.4999H29.0977V8.86475L29.7909 9.29991Z" fill="white"/>
<path d="M28.3847 8.42955L28.3451 25.4999H27.6914V7.99438L28.3847 8.42955Z" fill="white"/>
</g>
<defs>
<clipPath id="clip0_128_267">
<rect width="39" height="9" fill="white" transform="translate(4.5 27)"/>
</clipPath>
<clipPath id="clip1_128_267">
<rect width="16.5" height="18" fill="white" transform="translate(16.5 7.5)"/>
</clipPath>
</defs>
</svg>
