<svg width="332" height="115" viewBox="0 0 332 115" fill="none" xmlns="http://www.w3.org/2000/svg">
<g clip-path="url(#clip0_333_165)">
<path d="M29.0067 67.4706L13.2258 44.6056H6.68799V87.4869H13.3009V69.7197C13.3009 65.9713 13.2258 62.6727 13.0003 59.749C12.9252 58.2497 12.7749 56.7503 12.6246 55.251L26.8274 75.1923H30.8854L45.2385 55.251C45.0882 56.8253 44.9379 58.3246 44.8627 59.8989C44.7124 62.8976 44.5621 66.1212 44.5621 69.6447V87.4869H51.1751V44.6056H44.9379L29.0067 67.4706Z" fill="white"/>
<path d="M97.0149 44.6056L84.0145 63.5723L70.1122 44.6056H61.6206L80.5577 69.7197V87.4869H87.1706V69.4948L104.905 44.6056H97.0149Z" fill="white"/>
<path d="M141.878 66.646C140.45 65.7464 138.722 64.9218 136.693 64.322C134.739 63.7223 132.56 63.1975 130.23 62.7477C128.502 62.4478 126.999 62.148 125.646 61.7731C124.293 61.3983 123.166 60.9485 122.34 60.3487C121.513 59.749 120.837 59.1493 120.386 58.3996C119.935 57.6499 119.71 56.8253 119.71 55.9257C119.71 54.7262 120.085 53.6766 120.912 52.777C121.738 51.8774 122.866 51.2027 124.293 50.7529C125.721 50.2281 127.299 50.0032 129.178 50.0032C130.831 50.0032 132.334 50.2281 133.837 50.6779C135.265 51.1277 136.618 51.8774 137.895 52.777C139.097 53.7516 140.225 54.8761 141.126 56.3005L145.635 51.5776C144.583 49.9283 143.231 48.5789 141.652 47.4543C140.074 46.3298 138.271 45.5052 136.167 44.9055C134.138 44.3057 131.883 44.0808 129.328 44.0808C126.999 44.0808 124.82 44.3807 122.791 44.9804C120.762 45.5802 119.033 46.4048 117.53 47.5293C116.027 48.5789 114.9 49.9283 113.998 51.4276C113.172 52.927 112.721 54.5762 112.721 56.3755C112.721 58.2496 113.021 59.824 113.698 61.2483C114.374 62.6727 115.351 63.8722 116.628 64.9217C117.906 65.9713 119.484 66.8709 121.363 67.5456C123.241 68.2203 125.421 68.8201 127.825 69.1949C129.028 69.3448 130.155 69.5697 131.282 69.8696C132.409 70.1695 133.461 70.4693 134.438 70.8442C135.415 71.219 136.317 71.5938 137.068 72.1186C137.82 72.5684 138.421 73.1682 138.872 73.7679C139.323 74.4426 139.548 75.1923 139.548 76.0169C139.548 77.2914 139.097 78.4159 138.121 79.3905C137.144 80.365 135.941 81.0397 134.363 81.5645C132.785 82.0893 131.132 82.3142 129.403 82.3142C126.473 82.3142 123.918 81.7144 121.738 80.5899C119.559 79.3905 117.305 77.4413 115.05 74.5925L110.617 79.9152C112.12 81.7894 113.773 83.2888 115.576 84.5632C117.38 85.8377 119.409 86.7373 121.663 87.337C123.918 87.9367 126.322 88.2366 129.028 88.2366C132.56 88.2366 135.641 87.7118 138.271 86.5873C140.901 85.4628 142.855 83.8885 144.283 81.8644C145.71 79.8403 146.462 77.4413 146.462 74.6675C146.462 72.9433 146.086 71.3689 145.26 70.0945C144.433 68.6701 143.306 67.5456 141.878 66.646Z" fill="white"/>
<path d="M191.625 51.1277C190.423 49.1036 188.845 47.5293 186.816 46.4048C184.862 45.2053 182.607 44.6805 180.203 44.6805H159.688V87.5619H166.3V71.3689H179.677C182.156 71.3689 184.486 70.7692 186.515 69.4948C188.619 68.2953 190.272 66.646 191.475 64.6219C192.752 62.5977 193.353 60.3487 193.353 57.7998C193.429 55.3259 192.827 53.1519 191.625 51.1277ZM185.538 61.3983C184.862 62.5228 183.96 63.4224 182.833 64.0221C181.781 64.6219 180.503 64.9217 179.226 64.9217H166.3V50.9778H179.376C180.654 50.9778 181.856 51.2777 182.908 51.8774C183.96 52.4772 184.862 53.3018 185.538 54.3513C186.214 55.4009 186.515 56.5254 186.515 57.7998C186.515 59.0743 186.214 60.2738 185.538 61.3983Z" fill="white"/>
<path d="M223.112 44.6056H215.897L197.637 87.4869H204.475L208.157 78.7907L208.909 77.0665L211.614 70.6943L216.048 60.4237C216.348 59.674 216.649 58.8494 217.025 57.9498C217.4 57.0502 217.776 56.0756 218.152 55.0261C218.528 53.9765 218.903 53.0019 219.279 52.0274C219.354 51.8774 219.354 51.8025 219.429 51.6525V51.7275C219.805 52.7021 220.181 53.7516 220.632 54.8761C221.007 56.0006 221.383 56.9752 221.759 57.9498C222.135 58.9244 222.36 59.5991 222.586 60.1238L227.094 70.6943H217.1L214.319 77.0665H218.452C225.366 77.0665 231.528 81.1897 234.233 87.4869H241.447L223.112 44.6056Z" fill="white"/>
<path d="M259.708 55.026C261.136 53.6766 262.789 52.6271 264.668 51.8774C266.547 51.1277 268.501 50.7529 270.53 50.7529C272.183 50.7529 273.836 50.9778 275.339 51.4276C276.842 51.8774 278.345 52.5521 279.697 53.3767C281.125 54.2014 282.403 55.2509 283.755 56.4504L287.964 51.4276C286.836 50.1532 285.409 48.8787 283.605 47.8292C281.802 46.7047 279.773 45.805 277.593 45.1303C275.414 44.4556 273.085 44.1558 270.68 44.1558C267.599 44.1558 264.743 44.6805 261.963 45.805C259.257 46.9296 256.853 48.4289 254.749 50.453C252.645 52.4022 251.066 54.7262 249.864 57.35C248.662 59.9739 248.061 62.8226 248.061 65.9713C248.061 69.2698 248.587 72.1936 249.714 74.8924C250.841 77.5912 252.419 79.9152 254.448 81.8644C256.477 83.8135 258.807 85.3129 261.512 86.3624C264.217 87.412 267.148 87.9367 270.304 87.9367C272.634 87.9367 274.888 87.6369 277.142 87.0371C279.322 86.4374 281.351 85.6127 283.079 84.6382C284.807 83.6636 286.235 82.689 287.287 81.6395L284.056 76.1668C283.004 77.1414 281.802 77.9661 280.524 78.7157C279.247 79.4654 277.819 80.1401 276.241 80.5899C274.663 81.1147 273.009 81.3396 271.206 81.3396C268.876 81.3396 266.772 80.9648 264.818 80.2901C262.865 79.5404 261.136 78.5658 259.633 77.2164C258.13 75.867 257.003 74.2927 256.101 72.3435C255.275 70.3944 254.824 68.2953 254.824 65.8213C254.824 63.5723 255.275 61.5482 256.101 59.599C257.078 58.0247 258.281 56.3754 259.708 55.026Z" fill="white"/>
<path d="M331.098 50.9778V44.6056H300.588V87.4869H331.098V81.1147H307.201V68.6701H327.716V62.2979H307.201V50.9778H331.098Z" fill="white"/>
<path d="M246.708 100.981C245.881 100.981 245.205 101.206 244.679 101.656C244.153 102.106 243.702 102.78 243.326 103.605L243.251 101.431C243.251 101.281 243.251 101.206 243.176 101.206C243.101 101.131 243.025 101.131 242.95 101.131H242.424V111.327H243.401V104.654C243.702 103.755 244.078 103.08 244.604 102.555C245.13 102.106 245.731 101.806 246.482 101.806C246.708 101.806 246.858 101.806 247.083 101.881C247.234 101.881 247.384 101.956 247.534 101.956C247.685 101.956 247.76 102.031 247.835 102.031C247.91 102.031 247.985 102.106 247.985 102.106C248.135 102.106 248.135 102.031 248.211 101.956L248.361 101.281C248.135 101.131 247.91 101.056 247.609 100.981C247.309 100.981 247.008 100.981 246.708 100.981Z" fill="#666666"/>
<path d="M257.379 102.181C257.003 101.806 256.627 101.506 256.101 101.281C255.575 101.056 255.049 100.981 254.523 100.981C253.771 100.981 253.17 101.131 252.569 101.356C251.968 101.581 251.517 101.956 251.141 102.405C250.766 102.855 250.465 103.38 250.24 103.98C250.014 104.58 249.939 105.254 249.939 106.004C249.939 106.904 250.089 107.653 250.24 108.328C250.465 109.003 250.766 109.602 251.216 110.052C251.667 110.502 252.118 110.877 252.719 111.102C253.321 111.327 253.922 111.477 254.598 111.477C254.974 111.477 255.35 111.477 255.725 111.327C256.101 111.252 256.477 111.177 256.777 111.027C257.078 110.877 257.379 110.727 257.679 110.577C257.98 110.427 258.205 110.202 258.355 109.977L258.055 109.677C257.98 109.602 257.905 109.602 257.829 109.602C257.754 109.602 257.679 109.677 257.529 109.752C257.379 109.902 257.153 109.977 256.928 110.127C256.702 110.277 256.326 110.427 255.951 110.502C255.575 110.652 255.124 110.652 254.598 110.652C253.997 110.652 253.471 110.577 253.02 110.352C252.569 110.127 252.193 109.827 251.818 109.452C251.517 109.078 251.216 108.553 251.066 107.953C250.916 107.353 250.766 106.679 250.766 105.929V105.704H258.13C258.205 105.704 258.28 105.704 258.355 105.629C258.431 105.554 258.431 105.479 258.431 105.329C258.431 104.58 258.355 103.98 258.13 103.455C257.98 103.005 257.754 102.555 257.379 102.181ZM250.841 105.254C250.916 104.729 250.991 104.205 251.216 103.83C251.367 103.38 251.667 103.005 251.968 102.705C252.269 102.405 252.644 102.181 253.02 102.031C253.471 101.881 253.922 101.806 254.448 101.806C254.899 101.806 255.35 101.881 255.725 102.031C256.101 102.181 256.402 102.405 256.702 102.705C257.003 103.005 257.228 103.38 257.303 103.83C257.454 104.28 257.529 104.729 257.529 105.329H250.841V105.254Z" fill="#666666"/>
<path d="M267.298 102.031C266.997 101.731 266.697 101.431 266.246 101.281C265.795 101.131 265.344 101.056 264.818 101.056C264.067 101.056 263.39 101.206 262.789 101.506C262.188 101.806 261.662 102.181 261.136 102.705L261.286 103.005C261.361 103.155 261.436 103.155 261.587 103.155C261.662 103.155 261.812 103.08 261.963 102.93C262.113 102.78 262.338 102.63 262.564 102.48C262.789 102.33 263.09 102.181 263.465 102.031C263.841 101.881 264.217 101.806 264.743 101.806C265.57 101.806 266.171 102.031 266.547 102.555C266.922 103.08 267.148 103.755 267.148 104.729V105.779C266.02 105.779 264.968 105.929 264.142 106.079C263.315 106.229 262.639 106.454 262.113 106.754C261.587 107.053 261.211 107.353 260.986 107.728C260.76 108.103 260.61 108.478 260.61 108.928C260.61 109.377 260.685 109.752 260.835 110.127C260.986 110.427 261.211 110.727 261.436 110.952C261.662 111.177 261.963 111.327 262.338 111.402C262.639 111.477 263.015 111.551 263.39 111.551C263.841 111.551 264.217 111.477 264.518 111.402C264.893 111.327 265.194 111.177 265.494 111.027C265.795 110.877 266.096 110.652 266.396 110.502C266.697 110.277 266.922 110.052 267.223 109.752L267.373 111.027C267.448 111.252 267.523 111.327 267.749 111.327H268.125V104.654C268.125 104.055 268.049 103.605 267.899 103.08C267.749 102.705 267.523 102.33 267.298 102.031ZM267.148 109.078C266.922 109.302 266.697 109.527 266.396 109.752C266.171 109.977 265.87 110.127 265.57 110.277C265.269 110.427 264.968 110.577 264.668 110.652C264.367 110.727 263.992 110.802 263.541 110.802C263.24 110.802 263.015 110.727 262.789 110.652C262.564 110.577 262.338 110.427 262.113 110.277C261.963 110.127 261.812 109.902 261.662 109.677C261.512 109.452 261.512 109.153 261.512 108.778C261.512 108.403 261.587 108.103 261.812 107.803C262.038 107.503 262.338 107.278 262.789 107.053C263.24 106.829 263.841 106.679 264.518 106.529C265.194 106.379 266.096 106.304 267.073 106.304V109.078H267.148Z" fill="#666666"/>
<path d="M272.408 96.4081H271.431V111.327H272.408V96.4081Z" fill="#666666"/>
<path d="M287.663 105.854C287.738 105.854 287.813 105.854 287.888 105.779C287.963 105.704 287.963 105.629 287.963 105.479C287.963 104.729 287.888 104.13 287.663 103.605C287.437 103.08 287.212 102.555 286.836 102.181C286.46 101.806 286.085 101.506 285.559 101.281C285.033 101.056 284.506 100.981 283.98 100.981C283.229 100.981 282.628 101.131 282.027 101.356C281.425 101.581 280.975 101.956 280.599 102.405C280.223 102.855 279.923 103.38 279.697 103.98C279.472 104.58 279.396 105.254 279.396 106.004C279.396 106.904 279.547 107.653 279.772 108.328C279.998 109.003 280.298 109.602 280.749 110.052C281.125 110.502 281.651 110.877 282.252 111.102C282.853 111.327 283.454 111.477 284.131 111.477C284.507 111.477 284.882 111.477 285.258 111.327C285.634 111.252 286.009 111.177 286.31 111.027C286.611 110.877 286.911 110.727 287.212 110.577C287.512 110.427 287.738 110.202 287.888 109.977L287.588 109.677C287.512 109.602 287.437 109.602 287.362 109.602C287.287 109.602 287.212 109.677 287.062 109.752C286.911 109.902 286.686 109.977 286.46 110.127C286.235 110.277 285.859 110.427 285.483 110.502C285.108 110.652 284.657 110.652 284.131 110.652C283.53 110.652 283.004 110.577 282.553 110.352C282.102 110.127 281.726 109.827 281.35 109.452C281.05 109.078 280.749 108.553 280.599 107.953C280.449 107.353 280.298 106.679 280.298 105.929V105.704H287.663V105.854ZM280.674 103.755C280.899 103.305 281.125 102.93 281.425 102.63C281.726 102.33 282.102 102.106 282.478 101.956C282.928 101.806 283.379 101.731 283.905 101.731C284.356 101.731 284.807 101.806 285.183 101.956C285.559 102.106 285.934 102.33 286.16 102.63C286.46 102.93 286.611 103.305 286.761 103.755C286.911 104.205 286.986 104.654 286.986 105.254H280.223C280.373 104.729 280.449 104.205 280.674 103.755Z" fill="#666666"/>
<path d="M295.779 106.604C295.478 106.379 295.178 106.229 294.877 106.079C294.501 105.929 294.201 105.854 293.825 105.704C293.449 105.629 293.149 105.479 292.773 105.404C292.397 105.329 292.097 105.179 291.871 105.029C291.571 104.879 291.42 104.729 291.195 104.505C291.045 104.28 290.97 104.055 290.97 103.68C290.97 103.455 291.045 103.155 291.12 102.93C291.27 102.705 291.42 102.48 291.646 102.33C291.871 102.181 292.097 102.031 292.397 101.881C292.698 101.806 293.074 101.731 293.449 101.731C293.825 101.731 294.201 101.806 294.501 101.881C294.802 101.956 295.027 102.031 295.253 102.181C295.478 102.256 295.629 102.405 295.704 102.48C295.854 102.555 295.929 102.63 296.004 102.63C296.08 102.63 296.155 102.555 296.23 102.48L296.455 102.106C296.08 101.731 295.629 101.431 295.103 101.281C294.652 101.131 294.051 100.981 293.449 100.981C292.923 100.981 292.472 101.056 292.022 101.206C291.571 101.356 291.27 101.581 290.97 101.806C290.669 102.031 290.444 102.33 290.293 102.705C290.143 103.005 290.068 103.38 290.068 103.755C290.068 104.205 290.143 104.505 290.293 104.804C290.444 105.104 290.669 105.329 290.97 105.554C291.27 105.779 291.571 105.929 291.871 106.079C292.247 106.229 292.548 106.304 292.923 106.454C293.299 106.529 293.6 106.679 293.975 106.754C294.351 106.829 294.652 106.978 294.877 107.128C295.178 107.278 295.328 107.503 295.554 107.728C295.704 107.953 295.779 108.253 295.779 108.553C295.779 108.853 295.704 109.153 295.629 109.452C295.478 109.752 295.328 109.977 295.103 110.202C294.877 110.427 294.577 110.577 294.276 110.727C293.975 110.877 293.6 110.877 293.149 110.877C292.698 110.877 292.322 110.802 292.022 110.727C291.721 110.652 291.42 110.502 291.27 110.352C291.045 110.202 290.894 110.127 290.744 109.977C290.594 109.902 290.519 109.827 290.444 109.827C290.368 109.827 290.293 109.827 290.293 109.902C290.218 109.902 290.218 109.977 290.143 110.052L289.917 110.427C290.293 110.802 290.819 111.102 291.345 111.327C291.871 111.551 292.473 111.701 293.224 111.701C293.825 111.701 294.276 111.626 294.727 111.477C295.178 111.327 295.554 111.102 295.854 110.802C296.155 110.502 296.38 110.202 296.53 109.827C296.681 109.452 296.756 109.003 296.756 108.553C296.756 108.178 296.681 107.803 296.53 107.503C296.23 107.053 296.08 106.829 295.779 106.604Z" fill="#666666"/>
<path d="M304.045 110.052C303.97 110.052 303.894 110.052 303.819 110.127C303.744 110.202 303.594 110.277 303.519 110.352C303.368 110.427 303.218 110.502 303.068 110.577C302.918 110.652 302.692 110.652 302.467 110.652C302.241 110.652 302.091 110.652 301.941 110.577C301.79 110.502 301.64 110.427 301.49 110.277C301.339 110.127 301.264 109.977 301.189 109.752C301.114 109.527 301.114 109.303 301.114 109.003V102.031H304.345V101.281H301.114V97.3827H300.663C300.588 97.3827 300.513 97.3827 300.513 97.4577C300.438 97.5326 300.438 97.5326 300.438 97.6076L300.212 101.281L298.484 101.431V101.806C298.484 101.881 298.484 101.956 298.559 101.956C298.634 102.031 298.634 102.031 298.709 102.031H300.212V109.003C300.212 109.827 300.438 110.427 300.813 110.802C301.189 111.177 301.715 111.402 302.467 111.402C302.918 111.402 303.293 111.327 303.744 111.177C304.12 111.027 304.496 110.802 304.721 110.502L304.421 110.052C304.12 110.127 304.045 110.052 304.045 110.052Z" fill="#666666"/>
<path d="M312.912 102.031C312.612 101.731 312.311 101.431 311.86 101.281C311.409 101.131 310.958 101.056 310.432 101.056C309.681 101.056 309.005 101.206 308.403 101.506C307.802 101.806 307.276 102.181 306.675 102.705L306.825 103.005C306.9 103.155 306.976 103.155 307.126 103.155C307.201 103.155 307.351 103.08 307.502 102.93C307.652 102.78 307.877 102.63 308.103 102.48C308.328 102.33 308.629 102.181 309.005 102.031C309.38 101.881 309.756 101.806 310.282 101.806C311.109 101.806 311.71 102.031 312.086 102.555C312.461 103.08 312.687 103.755 312.687 104.729V105.779C311.56 105.779 310.507 105.929 309.681 106.079C308.854 106.229 308.178 106.454 307.652 106.754C307.126 107.053 306.75 107.353 306.525 107.728C306.299 108.103 306.149 108.478 306.149 108.928C306.149 109.377 306.224 109.752 306.374 110.127C306.525 110.427 306.75 110.727 306.976 110.952C307.201 111.177 307.502 111.327 307.877 111.402C308.178 111.477 308.554 111.551 308.929 111.551C309.38 111.551 309.756 111.477 310.057 111.402C310.432 111.327 310.733 111.177 311.033 111.027C311.334 110.877 311.635 110.652 311.935 110.502C312.236 110.277 312.461 110.052 312.762 109.752L312.912 111.027C312.987 111.252 313.062 111.327 313.288 111.327H313.664V104.654C313.664 104.055 313.589 103.605 313.438 103.08C313.363 102.705 313.138 102.33 312.912 102.031ZM312.762 109.078C312.536 109.302 312.311 109.527 312.01 109.752C311.785 109.977 311.484 110.127 311.184 110.277C310.883 110.427 310.583 110.577 310.282 110.652C309.981 110.727 309.606 110.802 309.155 110.802C308.854 110.802 308.629 110.727 308.403 110.652C308.178 110.577 307.952 110.427 307.727 110.277C307.577 110.127 307.426 109.902 307.276 109.677C307.126 109.452 307.126 109.153 307.126 108.778C307.126 108.403 307.201 108.103 307.426 107.803C307.652 107.503 307.952 107.278 308.403 107.053C308.854 106.829 309.455 106.679 310.132 106.529C310.808 106.379 311.71 106.304 312.687 106.304V109.078H312.762Z" fill="#666666"/>
<path d="M321.404 110.052C321.329 110.052 321.254 110.052 321.179 110.127C321.103 110.202 320.953 110.277 320.878 110.352C320.728 110.427 320.577 110.502 320.427 110.577C320.277 110.652 320.051 110.652 319.751 110.652C319.525 110.652 319.375 110.652 319.225 110.577C319.074 110.502 318.924 110.427 318.774 110.277C318.624 110.127 318.548 109.977 318.473 109.752C318.398 109.527 318.398 109.303 318.398 109.003V102.031H321.629V101.281H318.398V97.3827H317.872C317.797 97.3827 317.722 97.3827 317.722 97.4577C317.647 97.5326 317.647 97.5326 317.647 97.6076L317.421 101.281L315.693 101.431V101.806C315.693 101.881 315.693 101.956 315.768 101.956C315.843 102.031 315.843 102.031 315.918 102.031H317.421V109.003C317.421 109.827 317.647 110.427 318.022 110.802C318.398 111.177 318.924 111.402 319.676 111.402C320.127 111.402 320.502 111.327 320.953 111.177C321.329 111.027 321.705 110.802 321.93 110.502L321.629 110.052C321.479 110.127 321.479 110.052 321.404 110.052Z" fill="#666666"/>
<path d="M331.774 105.854C331.85 105.854 331.925 105.854 332 105.779C332.075 105.704 332.075 105.629 332.075 105.479C332.075 104.729 332 104.13 331.774 103.605C331.549 103.08 331.324 102.555 330.948 102.181C330.572 101.806 330.196 101.506 329.67 101.281C329.144 101.056 328.618 100.981 328.092 100.981C327.341 100.981 326.74 101.131 326.138 101.356C325.537 101.581 325.086 101.956 324.711 102.405C324.335 102.855 324.034 103.38 323.809 103.98C323.583 104.58 323.508 105.254 323.508 106.004C323.508 106.904 323.659 107.653 323.809 108.328C324.034 109.003 324.335 109.602 324.786 110.052C325.237 110.502 325.688 110.877 326.289 111.102C326.89 111.327 327.491 111.477 328.167 111.477C328.543 111.477 328.919 111.477 329.295 111.327C329.67 111.252 330.046 111.177 330.347 111.027C330.647 110.877 330.948 110.727 331.248 110.577C331.549 110.427 331.774 110.202 331.925 109.977L331.624 109.677C331.549 109.602 331.474 109.602 331.399 109.602C331.324 109.602 331.248 109.677 331.098 109.752C330.948 109.902 330.722 109.977 330.497 110.127C330.272 110.277 329.896 110.427 329.52 110.502C329.144 110.652 328.693 110.652 328.167 110.652C327.566 110.652 327.04 110.577 326.589 110.352C326.138 110.127 325.763 109.827 325.387 109.452C325.086 109.078 324.786 108.553 324.636 107.953C324.485 107.353 324.335 106.679 324.335 105.929V105.704H331.774V105.854ZM324.786 103.755C324.936 103.305 325.237 102.93 325.537 102.63C325.838 102.33 326.214 102.106 326.589 101.956C327.04 101.806 327.491 101.731 328.017 101.731C328.468 101.731 328.919 101.806 329.295 101.956C329.67 102.106 329.971 102.33 330.272 102.63C330.572 102.93 330.798 103.305 330.873 103.755C331.023 104.205 331.098 104.654 331.098 105.254H324.335C324.485 104.729 324.56 104.205 324.786 103.755Z" fill="#666666"/>
<path d="M237.314 96.558L237.164 96.6329H237.089H236.863L236.713 96.7079L236.413 96.9328H236.262L236.187 96.8578H236.112V97.0078L236.037 97.0828L235.962 97.1577H235.736L235.511 97.2327L235.21 97.1577L235.06 97.2327L234.759 97.4576L234.609 97.5326H234.534H234.384H234.308L234.158 97.6825H233.933L233.858 97.7575L233.782 97.9824L233.707 98.2073H233.632H233.557H233.482V98.3572L233.407 98.4322L233.256 98.5071L233.106 98.5821L233.031 98.6571H232.881L232.73 98.732H232.505L232.43 98.807H232.355L232.279 98.882H232.204L232.054 98.9569L231.979 98.882L231.904 98.9569H231.829L231.678 98.882L231.603 98.807H231.528V98.9569L231.453 99.0319L231.303 99.1069L231.152 99.3318L230.701 99.7066L230.401 99.8565L230.1 99.9315L229.875 100.081L229.349 100.306L228.522 100.681L228.372 100.756L228.146 100.831L227.696 100.981L227.32 101.056H227.245L226.719 101.206H226.493L226.343 101.281L225.967 101.206H225.742H225.591L225.291 101.356L224.765 101.581L224.614 101.731L224.314 101.881L224.013 101.956V101.806H223.938H223.863L223.638 101.881H223.487H223.412L222.886 102.031L222.285 102.106L221.984 102.181H221.759L221.609 102.255H221.308H221.233H220.481L220.106 102.181L219.955 102.255L219.655 102.181L219.204 102.106H219.129L218.903 102.031L218.828 102.106H218.753L218.603 102.031H218.528L218.377 102.106H218.302L218.227 102.031H218.077L218.002 101.956L217.4 102.031L217.25 101.956L216.649 101.806H216.574L216.423 101.881L216.273 101.956L216.123 102.031H215.897L215.672 101.956L215.447 101.806H215.371H215.146H215.071L214.695 101.581L214.244 101.281L213.944 101.131H213.793V101.206L213.868 101.356V101.506V101.656V101.731V101.806L214.019 101.956L214.094 102.106V102.48V102.855L214.019 103.455V103.53L213.944 103.83L213.868 104.13L213.643 104.879L213.568 104.954L213.418 105.029L213.042 105.254L212.741 105.404H212.666H212.441H212.29L212.14 105.329L211.99 105.254L211.764 105.104L211.539 105.029L211.238 104.879L211.163 104.804H211.013L210.787 104.729H210.712H210.637H210.412L210.186 104.654H210.036H209.886L209.735 104.729L209.66 104.804L209.51 104.729H209.435L209.36 104.879H209.284H209.209H209.134H209.059L208.984 104.954H208.909H208.834H208.758H208.683L208.608 104.879H208.533H208.458H208.383V105.029L208.308 105.104L208.157 105.254L208.007 105.404L207.932 105.554L207.706 106.079L207.556 106.304L207.481 106.379L207.331 106.529L207.18 106.604L206.88 106.829L206.579 106.978L206.279 107.053H206.128H205.903L205.677 106.978L205.452 106.829L205.151 106.604L204.776 106.229H204.7L204.55 106.154H204.475V106.229V106.304V106.379L204.4 106.829V106.978L204.7 107.353L204.776 107.578L204.851 107.653L204.926 107.728L205.001 108.028L204.926 108.178V108.328L204.851 108.403V108.478L205.151 108.778L205.227 108.928L205.151 109.153L205.076 109.227V109.302L205.227 109.377L205.452 109.527L205.527 109.827L205.602 109.902H205.677L205.753 109.977H205.828L205.903 110.052H205.978L206.053 110.127L206.128 110.202V110.427L206.279 110.727V110.877L206.354 111.027V111.102L206.279 111.402L206.354 111.476H206.429H206.504L206.579 111.551L206.729 111.776H206.88L206.955 111.851L207.331 112.226L207.406 112.301H207.481L207.556 112.376L207.706 112.301H207.857L207.932 112.376L208.082 112.451H208.232L208.533 112.526H208.683L208.984 112.676L209.134 112.751L209.209 112.826L209.284 112.901L209.51 112.976L209.66 113.051H209.735H209.811L210.186 113.201L210.412 113.276L210.562 113.351L210.712 113.426H210.787L210.938 113.351H211.088H211.163H211.238L211.389 113.276V113.201L211.539 113.126L211.915 113.051L212.065 113.126L212.366 112.976L212.591 113.051L212.741 112.976L213.117 113.051L213.192 113.126L213.342 113.276H213.493L213.418 113.351L213.568 113.501L213.718 113.726L213.793 114.025L213.868 114.175L213.944 114.325V114.4L213.868 114.475V114.55V114.625H213.944H214.019H214.169H214.244L214.394 114.55L214.47 114.475L214.62 114.55H214.77H214.845L215.071 114.625H215.146H215.221V114.55V114.475L215.146 114.4L214.996 114.175L214.92 114.1L214.845 113.95V113.8V113.651V113.501L214.92 113.426V113.276L214.996 113.126L215.221 112.976L215.522 112.751L215.747 112.601L215.973 112.526L216.499 112.301L216.724 112.226L218.377 112.376H218.452L218.528 112.226L218.678 112.151H218.753L218.978 112.226H219.054L219.204 112.151H219.279L219.504 112.001H219.655H219.73L220.03 111.776L220.331 111.701H220.406L220.707 111.551L220.857 111.402L221.007 111.327L221.158 111.252H221.609L221.684 111.102H221.834L221.909 110.952L222.059 110.877L222.135 110.727L222.21 110.652L222.285 110.577H222.661L223.036 110.652H223.112L223.187 110.352L223.262 110.277L223.487 109.902V109.752V109.602L223.562 109.452V109.153V108.853L223.713 108.478L223.863 108.328L224.088 108.178L224.239 108.103H224.389H224.464H225.065H225.291H225.516L225.967 108.178L226.117 108.253L226.268 108.403L226.493 108.628L226.643 108.703H226.719H226.794L226.944 108.628L227.094 108.553L227.245 108.478L227.32 108.328V108.253L227.62 108.103H227.996H228.071L228.146 108.028H228.222L228.447 108.103H228.597L228.748 108.178H228.823H228.973L229.123 108.328H229.198L229.574 108.553H229.649H229.724L229.8 108.628H229.875L229.95 108.553V108.478H229.8L229.649 108.253L229.8 108.103L229.95 107.953L229.875 107.878L229.574 107.428L229.123 107.128L228.973 106.978L228.898 106.903L228.672 106.679L228.522 106.454V106.379V106.304L228.447 106.079L228.297 105.929L228.146 105.779L227.846 105.404L227.771 105.329L227.696 105.254H227.545L227.62 105.179H227.696V105.104L227.545 104.729V104.579L227.696 103.98V103.905L227.921 103.53L228.071 103.455L228.222 103.23L228.372 103.08L228.447 103.005L228.672 102.855H228.823H228.973L229.274 102.93H229.499H229.574H229.724L229.95 102.855L230.025 102.78L230.1 102.705L230.175 102.405V102.33L230.251 102.181L230.626 101.806L230.927 101.581L231.528 101.131L231.829 100.981L231.979 100.906L233.332 100.306L233.707 99.9315L233.858 99.7816L234.158 99.5567L234.534 99.4067L234.834 99.1818L234.91 99.1069L234.985 98.807H235.06L235.135 98.6571V98.5821L235.436 98.4322L236.488 97.9074H236.638L236.713 97.7575L237.014 97.6825H237.089H237.164L237.239 97.6075V97.3077L237.314 97.2327V97.0078V96.9328V96.8578V96.558Z" fill="#D57800"/>
<path d="M271.281 69.4947C273.149 69.4947 274.663 67.9844 274.663 66.1212C274.663 64.2581 273.149 62.7477 271.281 62.7477C269.413 62.7477 267.899 64.2581 267.899 66.1212C267.899 67.9844 269.413 69.4947 271.281 69.4947Z" fill="#D57800"/>
<path d="M0 35.5346L107.085 0L321.029 35.5346L107.085 7.34681L0 35.5346Z" fill="#666666"/>
</g>
<defs>
<clipPath id="clip0_333_165">
<rect width="332" height="115" fill="white"/>
</clipPath>
</defs>
</svg>
