<svg width="206" height="72" viewBox="0 0 206 72" fill="none" xmlns="http://www.w3.org/2000/svg">
<path d="M17.937 41.8858L8.17598 27.6958H4.14697V54.3038H8.24698V43.2428C8.24698 40.9375 8.18997 38.8785 8.07597 37.0658C8.01731 36.1391 7.93698 35.2135 7.83498 34.2888L16.61 46.6638H19.118L28.018 34.2938C27.9133 35.2571 27.831 36.2191 27.771 37.1798C27.657 39.0171 27.6 41.0381 27.6 43.2428V54.3048H31.705V27.6958H27.828L17.937 41.8858Z" fill="black"/>
<path d="M60.062 27.6958L52 39.4448L43.413 27.6958H38.167L49.875 43.2818V54.3038H53.98V43.1098L64.928 27.6958H60.062Z" fill="black"/>
<path d="M87.83 41.3609C86.8314 40.7459 85.7584 40.2606 84.637 39.9169C83.3237 39.504 81.984 39.1802 80.627 38.9479C79.6654 38.7938 78.7135 38.5844 77.776 38.3209C77.0533 38.1295 76.3619 37.8351 75.723 37.4469C75.2317 37.1446 74.8158 36.7342 74.507 36.2469C74.2242 35.7771 74.0793 35.2372 74.089 34.6889C74.0758 33.9618 74.3487 33.2587 74.849 32.7309C75.4248 32.1428 76.1364 31.7053 76.921 31.4569C77.8955 31.1373 78.9166 30.9832 79.942 31.0009C80.9157 30.9951 81.8842 31.1426 82.812 31.4379C83.7106 31.7292 84.5526 32.1726 85.301 32.7489C86.0848 33.3579 86.7649 34.0897 87.315 34.9159L90.129 31.9889C89.4772 30.9833 88.6384 30.1122 87.658 29.4229C86.6294 28.7073 85.4854 28.1739 84.276 27.8459C82.9001 27.4774 81.4803 27.2984 80.056 27.3139C78.6932 27.3027 77.3358 27.4883 76.026 27.8649C74.862 28.195 73.7632 28.7219 72.777 29.4229C71.8851 30.0571 71.145 30.8812 70.61 31.8359C70.0897 32.7781 69.8214 33.8386 69.831 34.9149C69.8102 35.9546 70.0178 36.9862 70.439 37.9369C70.8593 38.8303 71.4768 39.6167 72.245 40.2369C73.1279 40.944 74.1239 41.4967 75.191 41.8719C76.4867 42.3367 77.8228 42.6802 79.182 42.8979C79.9154 42.9992 80.625 43.1326 81.311 43.2979C81.9745 43.4564 82.6282 43.6531 83.269 43.8869C83.8389 44.0908 84.3867 44.3518 84.904 44.6659C85.3427 44.9296 85.7182 45.2863 86.004 45.7109C86.2745 46.1292 86.4137 46.6188 86.404 47.1169C86.409 47.5067 86.334 47.8933 86.1837 48.253C86.0334 48.6126 85.8109 48.9376 85.53 49.2079C84.8757 49.8319 84.08 50.2883 83.211 50.5379C82.2141 50.8468 81.1757 51.0006 80.132 50.9939C78.4831 51.029 76.8509 50.657 75.38 49.9109C73.7616 48.9695 72.3516 47.7086 71.236 46.2049L68.499 49.5119C69.3713 50.6148 70.4025 51.582 71.559 52.3819C72.708 53.1646 73.9799 53.7493 75.322 54.1119C76.8039 54.5048 78.332 54.6966 79.865 54.6819C81.8216 54.728 83.7674 54.3791 85.586 53.6559C87.0873 53.0566 88.3862 52.0412 89.33 50.7289C90.2285 49.4226 90.6938 47.867 90.66 46.2819C90.6831 45.281 90.4262 44.2935 89.918 43.4309C89.3919 42.5883 88.6771 41.8797 87.83 41.3609Z" fill="black"/>
<path d="M118.62 31.7238C117.897 30.5075 116.876 29.4946 115.655 28.7798C114.417 28.0553 113.005 27.681 111.57 27.6968H98.87V54.3038H102.975V44.2688H111.262C112.753 44.2856 114.219 43.8911 115.5 43.1288C116.764 42.387 117.822 41.3422 118.581 40.0888C119.332 38.8244 119.731 37.3824 119.738 35.9119C119.745 34.4415 119.358 32.9959 118.619 31.7248L118.62 31.7238ZM114.875 38.0938C114.467 38.7747 113.893 39.341 113.207 39.7398C112.528 40.1262 111.759 40.3253 110.978 40.3168H102.978V31.6488H111.078C111.846 31.6434 112.601 31.8407 113.268 32.2208C113.922 32.5864 114.476 33.1074 114.881 33.7378C115.287 34.3721 115.499 35.1115 115.49 35.8648C115.496 36.6502 115.283 37.4218 114.875 38.0928V38.0938Z" fill="black"/>
<path d="M138.139 27.6968H133.69L122.327 54.3038H126.545L128.845 48.9248L129.309 47.8418L130.997 43.8898L133.73 37.5038C133.904 37.0478 134.107 36.5338 134.335 35.9608C134.563 35.3878 134.8 34.7908 135.04 34.1608C135.28 33.5308 135.508 32.9088 135.724 32.2988C135.749 32.2198 135.774 32.1538 135.803 32.0788C135.807 32.0959 135.812 32.1127 135.819 32.1288C136.047 32.7468 136.288 33.4018 136.54 34.0858C136.792 34.7698 137.025 35.4088 137.24 36.0058C137.455 36.6028 137.63 37.0508 137.754 37.3538L140.541 43.8928H134.366L132.658 47.8448H135.202C137.286 47.8448 139.323 48.4572 141.061 49.606C142.8 50.7547 144.162 52.389 144.979 54.3058H149.424L138.139 27.6968Z" fill="black"/>
<path d="M160.755 34.1578C161.646 33.3187 162.692 32.6602 163.834 32.2188C164.997 31.7634 166.234 31.5314 167.483 31.5348C168.494 31.531 169.5 31.6783 170.467 31.9718C171.419 32.2644 172.332 32.6728 173.184 33.1878C174.085 33.7377 174.926 34.3809 175.693 35.1068L178.315 31.9898C177.54 31.1033 176.629 30.3462 175.615 29.7468C174.449 29.04 173.197 28.4845 171.89 28.0938C170.51 27.674 169.075 27.4627 167.633 27.4668C165.79 27.4555 163.963 27.804 162.254 28.4928C160.602 29.156 159.092 30.1304 157.807 31.3628C156.531 32.5872 155.505 34.0475 154.785 35.6628C154.041 37.3441 153.666 39.1654 153.685 41.0038C153.661 42.9029 154.01 44.7881 154.712 46.5528C155.369 48.1842 156.359 49.6601 157.62 50.8858C158.882 52.1068 160.374 53.0632 162.011 53.6988C163.744 54.3687 165.588 54.7039 167.446 54.6868C168.872 54.6894 170.291 54.4976 171.665 54.1168C172.947 53.7696 174.184 53.2711 175.348 52.6318C176.29 52.1311 177.16 51.5043 177.933 50.7688L175.919 47.3858C175.241 47.9846 174.509 48.5202 173.733 48.9858C172.902 49.4816 172.016 49.877 171.092 50.1638C170.082 50.4746 169.031 50.6284 167.975 50.6198C166.628 50.6325 165.29 50.4073 164.022 49.9548C162.84 49.5323 161.75 48.8874 160.81 48.0548C159.877 47.2177 159.139 46.1857 158.648 45.0318C158.111 43.7574 157.846 42.3854 157.868 41.0028C157.852 39.7249 158.101 38.4574 158.598 37.28C159.095 36.1026 159.83 35.0406 160.757 34.1608L160.755 34.1578Z" fill="black"/>
<path d="M204.962 31.6488V27.6958H186.07V54.3038H204.962V50.3508H190.175V42.6348H202.875V38.6818H190.175V31.6498L204.962 31.6488Z" fill="black"/>
<path d="M152.737 62.6639C152.279 62.6502 151.832 62.8058 151.481 63.1009C151.114 63.4311 150.834 63.8462 150.665 64.3099L150.614 62.9709C150.616 62.9149 150.597 62.8602 150.56 62.8179C150.515 62.7839 150.46 62.7679 150.404 62.7729H150.087V69.1169H150.693V64.9909C150.837 64.5084 151.094 64.0671 151.442 63.7029C151.6 63.5536 151.785 63.4373 151.988 63.3607C152.192 63.2841 152.408 63.2488 152.625 63.2569C152.831 63.2542 153.036 63.2822 153.233 63.3399C153.303 63.3609 153.362 63.3799 153.408 63.3979C153.442 63.4119 153.479 63.4203 153.516 63.4229C153.546 63.4263 153.576 63.4178 153.6 63.3991C153.624 63.3804 153.64 63.353 153.644 63.3229L153.727 62.9019C153.582 62.8254 153.427 62.7666 153.268 62.7269C153.094 62.6844 152.916 62.6633 152.737 62.6639Z" fill="#808080"/>
<path d="M159.321 63.3938C159.099 63.1588 158.829 62.9748 158.529 62.8548C158.213 62.7318 157.877 62.67 157.538 62.6728C157.123 62.6657 156.712 62.7461 156.331 62.9088C155.986 63.0556 155.678 63.278 155.431 63.5598C155.178 63.8517 154.988 64.1919 154.871 64.5598C154.736 64.9664 154.67 65.3925 154.676 65.8208C154.669 66.307 154.739 66.7914 154.883 67.2558C155.008 67.6459 155.209 68.007 155.476 68.3178C155.73 68.6049 156.044 68.8318 156.397 68.9818C156.773 69.135 157.177 69.2112 157.583 69.2058C157.821 69.2073 158.059 69.1839 158.292 69.1358C158.518 69.0933 158.74 69.0307 158.955 68.9488C159.152 68.8742 159.341 68.7797 159.519 68.6668C159.67 68.5683 159.805 68.4465 159.919 68.3058L159.753 68.1058C159.739 68.0857 159.72 68.0695 159.698 68.0586C159.677 68.0478 159.652 68.0427 159.628 68.0438C159.551 68.0574 159.479 68.092 159.421 68.1438C159.301 68.2316 159.175 68.3105 159.043 68.3798C158.855 68.4778 158.658 68.5568 158.455 68.6158C158.185 68.6889 157.906 68.7226 157.626 68.7158C157.294 68.7197 156.964 68.6578 156.656 68.5338C156.369 68.4118 156.116 68.2225 155.918 67.9818C155.699 67.7153 155.538 67.406 155.445 67.0738C155.328 66.6653 155.272 66.2417 155.279 65.8168V65.6928H159.857C159.881 65.6949 159.905 65.6914 159.927 65.6827C159.949 65.6741 159.969 65.6604 159.985 65.6428C160.02 65.5855 160.034 65.5182 160.026 65.4518C160.033 65.0486 159.969 64.6473 159.839 64.2658C159.729 63.9423 159.552 63.6454 159.321 63.3938ZM155.307 65.3058C155.339 64.9959 155.417 64.6926 155.539 64.4058C155.647 64.1492 155.804 63.9156 156 63.7178C156.189 63.5237 156.418 63.3735 156.672 63.2778C156.951 63.1708 157.248 63.1185 157.547 63.1238C157.818 63.1203 158.087 63.1709 158.339 63.2728C158.571 63.3702 158.78 63.5173 158.949 63.7038C159.126 63.9019 159.261 64.1349 159.343 64.3878C159.442 64.6829 159.489 64.9927 159.484 65.3038L155.307 65.3058Z" fill="#808080"/>
<path d="M165.449 63.2929C165.278 63.0886 165.06 62.9281 164.814 62.8249C164.528 62.7112 164.222 62.6561 163.914 62.6629C163.486 62.6571 163.061 62.7448 162.67 62.9199C162.28 63.107 161.927 63.3612 161.625 63.6709L161.733 63.8579C161.752 63.8928 161.78 63.9218 161.815 63.9416C161.849 63.9614 161.888 63.9712 161.928 63.9699C162.017 63.9569 162.099 63.913 162.16 63.8459C162.274 63.7429 162.396 63.6486 162.525 63.5639C162.697 63.4499 162.88 63.3553 163.073 63.2819C163.323 63.1908 163.587 63.147 163.853 63.1529C164.065 63.1391 164.276 63.175 164.472 63.2579C164.667 63.3407 164.84 63.4681 164.977 63.6299C165.254 64.0254 165.389 64.5037 165.358 64.9859V65.6499C164.739 65.6556 164.122 65.7151 163.513 65.8279C163.077 65.9023 162.653 66.039 162.256 66.2339C161.97 66.3694 161.723 66.576 161.539 66.8339C161.387 67.0535 161.306 67.3141 161.307 67.5809C161.301 67.8358 161.351 68.0889 161.452 68.3229C161.541 68.5162 161.669 68.6886 161.829 68.8289C161.989 68.961 162.174 69.0609 162.372 69.1229C162.576 69.1873 162.788 69.221 163.002 69.2229C163.243 69.2247 163.484 69.1996 163.719 69.1479C163.928 69.1007 164.131 69.0299 164.324 68.9369C164.514 68.8385 164.694 68.7234 164.863 68.5929C165.033 68.4559 165.207 68.3029 165.381 68.1319L165.468 68.9409C165.478 68.9948 165.508 69.0428 165.552 69.0759C165.596 69.1089 165.65 69.1246 165.705 69.1199H165.949V64.9889C165.953 64.6637 165.91 64.3396 165.821 64.0269C165.748 63.7597 165.621 63.5101 165.449 63.2929ZM165.362 67.7049C165.219 67.8548 165.068 67.9973 164.91 68.1319C164.757 68.2648 164.589 68.3802 164.41 68.4759C164.229 68.5739 164.037 68.6491 163.838 68.6999C163.615 68.7531 163.387 68.7797 163.158 68.7789C162.996 68.7786 162.836 68.7547 162.681 68.7079C162.534 68.6622 162.398 68.5874 162.281 68.4879C162.161 68.3816 162.066 68.2497 162.003 68.1019C161.93 67.9273 161.896 67.739 161.903 67.5499C161.901 67.3333 161.972 67.1223 162.103 66.9499C162.272 66.7503 162.487 66.594 162.729 66.4939C163.074 66.3493 163.437 66.2485 163.807 66.1939C164.323 66.1121 164.844 66.0663 165.366 66.0569L165.362 67.7049Z" fill="#808080"/>
<path d="M168.652 59.8389H168.046V69.1169H168.652V59.8389Z" fill="#808080"/>
<path d="M178.069 65.6908C178.093 65.693 178.118 65.6896 178.141 65.681C178.164 65.6723 178.185 65.6586 178.202 65.6408C178.234 65.5827 178.249 65.5161 178.243 65.4498C178.251 65.0462 178.186 64.6446 178.052 64.2638C177.94 63.9404 177.763 63.6438 177.53 63.3928C177.31 63.158 177.041 62.974 176.742 62.8538C176.426 62.7312 176.09 62.6695 175.751 62.6718C175.335 62.6647 174.923 62.7451 174.54 62.9078C174.196 63.0558 173.888 63.2781 173.64 63.5588C173.387 63.8507 173.197 64.1909 173.08 64.5588C172.947 64.9659 172.881 65.3917 172.885 65.8198C172.877 66.3065 172.949 66.7912 173.097 67.2548C173.218 67.6464 173.42 68.0081 173.69 68.3168C173.941 68.6046 174.254 68.8317 174.606 68.9808C174.982 69.1337 175.386 69.2098 175.792 69.2048C176.031 69.2064 176.27 69.1829 176.505 69.1348C176.731 69.0917 176.953 69.0292 177.168 68.9478C177.363 68.8724 177.551 68.7779 177.728 68.6658C177.881 68.5674 178.018 68.4456 178.134 68.3048L177.968 68.1048C177.953 68.0846 177.934 68.0684 177.911 68.0576C177.889 68.0467 177.864 68.0417 177.839 68.0428C177.764 68.0572 177.695 68.0918 177.639 68.1428C177.518 68.2304 177.39 68.3093 177.258 68.3788C177.07 68.4774 176.873 68.5565 176.669 68.6148C176.399 68.6883 176.12 68.7219 175.84 68.7148C175.508 68.7188 175.178 68.6569 174.87 68.5328C174.584 68.4097 174.331 68.2205 174.132 67.9808C173.916 67.7121 173.755 67.4036 173.659 67.0728C173.544 66.6639 173.488 66.2406 173.493 65.8158V65.6918L178.069 65.6908ZM173.748 64.4048C173.858 64.149 174.014 63.9157 174.209 63.7168C174.4 63.5246 174.629 63.3747 174.881 63.2768C175.161 63.1695 175.46 63.1172 175.76 63.1228C176.03 63.1193 176.298 63.17 176.548 63.2718C176.782 63.368 176.992 63.5152 177.162 63.7028C177.338 63.9019 177.472 64.1346 177.556 64.3868C177.653 64.6824 177.7 64.9918 177.697 65.3028H173.517C173.551 64.994 173.628 64.6917 173.747 64.4048H173.748Z" fill="#808080"/>
<path d="M183.101 66.1628C182.928 66.0352 182.738 65.9313 182.537 65.8538C182.326 65.7711 182.11 65.6955 181.889 65.6268C181.668 65.5581 181.452 65.4914 181.242 65.4268C181.046 65.3653 180.858 65.2846 180.678 65.1858C180.523 65.1013 180.387 64.9867 180.278 64.8488C180.171 64.7045 180.117 64.528 180.125 64.3488C180.125 64.1884 180.163 64.0302 180.237 63.8878C180.313 63.739 180.42 63.6079 180.55 63.5028C180.695 63.3864 180.859 63.297 181.035 63.2388C181.237 63.1703 181.45 63.1365 181.663 63.1388C181.881 63.134 182.099 63.1609 182.31 63.2188C182.465 63.263 182.614 63.3226 182.757 63.3968C182.858 63.4511 182.956 63.5109 183.05 63.5758C183.101 63.6196 183.164 63.6474 183.231 63.6558C183.261 63.657 183.29 63.6491 183.315 63.6332C183.34 63.6173 183.36 63.5941 183.372 63.5668L183.506 63.3558C183.267 63.1323 182.986 62.9578 182.68 62.8418C182.349 62.7245 182.001 62.6676 181.65 62.6738C181.353 62.6692 181.058 62.7166 180.777 62.8138C180.535 62.8969 180.312 63.0244 180.117 63.1898C179.941 63.341 179.798 63.5278 179.699 63.7378C179.602 63.9408 179.552 64.1629 179.552 64.3878C179.544 64.6174 179.597 64.8452 179.705 65.0478C179.806 65.2233 179.942 65.3761 180.105 65.4968C180.278 65.6239 180.468 65.7269 180.669 65.8028C180.88 65.8828 181.096 65.9578 181.319 66.0258C181.542 66.0938 181.759 66.1618 181.97 66.2258C182.167 66.2874 182.356 66.3706 182.534 66.4738C182.691 66.5639 182.827 66.6854 182.934 66.8308C183.041 66.986 183.094 67.1715 183.087 67.3598C183.088 67.5465 183.052 67.7317 182.982 67.9048C182.913 68.0752 182.807 68.2285 182.673 68.3538C182.525 68.4874 182.352 68.5895 182.163 68.6538C181.935 68.7324 181.696 68.7703 181.455 68.7658C181.212 68.7725 180.97 68.7388 180.738 68.6658C180.569 68.6092 180.407 68.5355 180.253 68.4458C180.143 68.3805 180.037 68.3069 179.938 68.2258C179.884 68.1715 179.814 68.1364 179.738 68.1258C179.7 68.1235 179.662 68.1326 179.629 68.1518C179.6 68.1717 179.577 68.1976 179.559 68.2278L179.412 68.4448C179.669 68.676 179.962 68.8644 180.279 69.0028C180.645 69.1538 181.038 69.2267 181.434 69.2168C181.755 69.2219 182.074 69.1698 182.377 69.0628C182.635 68.9725 182.873 68.8318 183.077 68.6488C183.265 68.4768 183.413 68.2659 183.511 68.0308C183.612 67.7865 183.663 67.5243 183.661 67.2598C183.668 67.0334 183.615 66.8092 183.508 66.6098C183.405 66.434 183.266 66.2818 183.101 66.1628Z" fill="#808080"/>
<path d="M188.207 68.2939C188.16 68.3024 188.118 68.326 188.086 68.361C188.023 68.4144 187.956 68.4634 187.886 68.5079C187.795 68.566 187.699 68.6152 187.599 68.6549C187.471 68.7029 187.335 68.7257 187.199 68.722C187.082 68.7228 186.965 68.7035 186.855 68.6649C186.75 68.6272 186.655 68.566 186.578 68.486C186.495 68.3976 186.431 68.2921 186.393 68.1769C186.345 68.0321 186.323 67.8803 186.326 67.7279V63.4279H188.326V62.9749H186.326V60.5519H186.042C186.021 60.5509 186.001 60.5543 185.982 60.5619C185.963 60.5695 185.945 60.5811 185.931 60.5959C185.905 60.6234 185.889 60.6585 185.884 60.696L185.733 62.9659L184.649 63.042V63.278C184.648 63.2981 184.651 63.3183 184.659 63.3369C184.666 63.3556 184.678 63.3724 184.693 63.386C184.725 63.4122 184.766 63.4257 184.808 63.4239H185.72V67.7599C185.704 67.9578 185.727 68.1569 185.788 68.3457C185.849 68.5346 185.948 68.7093 186.077 68.86C186.211 68.9838 186.369 69.0793 186.54 69.1407C186.712 69.202 186.895 69.228 187.077 69.2169C187.344 69.217 187.608 69.1615 187.852 69.054C188.085 68.9563 188.295 68.8097 188.467 68.624L188.301 68.356C188.291 68.3396 188.277 68.3256 188.261 68.3149C188.244 68.3042 188.226 68.2971 188.207 68.2939Z" fill="#808080"/>
<path d="M193.689 63.2929C193.518 63.0885 193.3 62.928 193.054 62.8249C192.768 62.7112 192.462 62.6561 192.154 62.6629C191.727 62.6565 191.303 62.7442 190.914 62.9199C190.522 63.1059 190.167 63.3602 189.865 63.6709L189.977 63.8579C189.994 63.8933 190.022 63.9228 190.056 63.9428C190.09 63.9627 190.129 63.9721 190.168 63.9699C190.258 63.9563 190.341 63.9126 190.404 63.8459C190.516 63.7418 190.637 63.6474 190.765 63.5639C190.936 63.45 191.12 63.3555 191.312 63.2819C191.562 63.1908 191.826 63.147 192.092 63.1529C192.304 63.1391 192.515 63.175 192.711 63.2579C192.906 63.3407 193.079 63.4681 193.216 63.6299C193.494 64.0254 193.628 64.5037 193.597 64.9859V65.6499C192.978 65.6556 192.361 65.7152 191.752 65.8279C191.316 65.9024 190.892 66.0391 190.495 66.2339C190.209 66.3694 189.962 66.576 189.778 66.8339C189.626 67.0535 189.546 67.3141 189.546 67.5809C189.54 67.8358 189.59 68.0889 189.691 68.3229C189.78 68.5172 189.91 68.6899 190.072 68.8289C190.231 68.961 190.414 69.0608 190.611 69.1229C190.815 69.1872 191.027 69.2209 191.241 69.2229C191.482 69.2248 191.723 69.1996 191.958 69.1479C192.167 69.1008 192.37 69.0299 192.563 68.9369C192.753 68.8386 192.933 68.7235 193.102 68.5929C193.272 68.4559 193.446 68.3029 193.621 68.1319L193.712 68.9409C193.721 68.9952 193.751 69.044 193.794 69.0772C193.838 69.1105 193.893 69.1258 193.948 69.1199H194.189V64.9889C194.193 64.6636 194.15 64.3395 194.06 64.0269C193.989 63.7591 193.862 63.5091 193.689 63.2929ZM193.602 67.7049C193.459 67.8548 193.308 67.9973 193.15 68.1319C192.998 68.2637 192.833 68.379 192.657 68.4759C192.474 68.573 192.281 68.6482 192.081 68.6999C191.858 68.7531 191.63 68.7796 191.401 68.7789C191.239 68.7786 191.079 68.7547 190.924 68.7079C190.777 68.6622 190.641 68.5874 190.524 68.4879C190.405 68.3806 190.31 68.2489 190.246 68.1019C190.173 67.9273 190.139 67.739 190.146 67.5499C190.144 67.3333 190.215 67.1222 190.346 66.9499C190.515 66.7501 190.73 66.5937 190.972 66.4939C191.317 66.3492 191.68 66.2484 192.05 66.1939C192.566 66.1121 193.087 66.0663 193.609 66.0569L193.602 67.7049Z" fill="#808080"/>
<path d="M198.959 68.2939C198.912 68.3024 198.87 68.326 198.838 68.361C198.775 68.4143 198.708 68.4634 198.638 68.5079C198.547 68.566 198.451 68.6153 198.351 68.6549C198.223 68.7029 198.087 68.7257 197.951 68.722C197.834 68.7228 197.717 68.7035 197.607 68.6649C197.502 68.6273 197.407 68.5661 197.329 68.486C197.246 68.3977 197.182 68.2922 197.144 68.1769C197.096 68.0322 197.074 67.8803 197.077 67.7279V63.4279H199.077V62.9749H197.077V60.5519H196.793C196.772 60.5509 196.752 60.5543 196.733 60.5619C196.714 60.5695 196.696 60.5811 196.682 60.5959C196.656 60.6234 196.64 60.6585 196.635 60.696L196.484 62.9659L195.4 63.042V63.278C195.399 63.2982 195.402 63.3184 195.41 63.3371C195.418 63.3558 195.43 63.3725 195.445 63.386C195.477 63.4123 195.518 63.4258 195.56 63.4239H196.472V67.7599C196.456 67.9578 196.479 68.1569 196.54 68.3457C196.601 68.5346 196.7 68.7093 196.829 68.86C196.963 68.9839 197.121 69.0794 197.292 69.1407C197.464 69.2021 197.647 69.228 197.829 69.2169C198.096 69.2171 198.36 69.1616 198.604 69.054C198.837 68.9563 199.047 68.8096 199.219 68.624L199.053 68.356C199.042 68.3397 199.029 68.3258 199.012 68.3151C198.996 68.3044 198.978 68.2972 198.959 68.2939Z" fill="#808080"/>
<path d="M205.367 65.6908C205.391 65.693 205.415 65.6896 205.437 65.6809C205.46 65.6722 205.48 65.6585 205.496 65.6408C205.531 65.5835 205.545 65.5163 205.537 65.4498C205.544 65.0466 205.481 64.6453 205.35 64.2638C205.238 63.9405 205.06 63.6439 204.828 63.3928C204.606 63.1579 204.336 62.974 204.036 62.8538C203.72 62.7309 203.384 62.6691 203.045 62.6718C202.631 62.6647 202.219 62.7451 201.838 62.9078C201.493 63.0546 201.185 63.2771 200.938 63.5588C200.685 63.8507 200.495 64.1909 200.378 64.5588C200.243 64.9654 200.177 65.3916 200.183 65.8198C200.176 66.3061 200.246 66.7904 200.39 67.2548C200.515 67.6449 200.716 68.006 200.983 68.3168C201.237 68.604 201.551 68.8309 201.904 68.9808C202.28 69.134 202.684 69.2102 203.09 69.2048C203.328 69.2064 203.566 69.1829 203.799 69.1348C204.025 69.0922 204.247 69.0297 204.462 68.9478C204.659 68.8732 204.848 68.7787 205.026 68.6658C205.177 68.5672 205.312 68.4454 205.426 68.3048L205.26 68.1048C205.246 68.0847 205.227 68.0685 205.205 68.0577C205.184 68.0468 205.159 68.0417 205.135 68.0428C205.058 68.0566 204.987 68.0912 204.928 68.1428C204.808 68.2306 204.682 68.3095 204.551 68.3788C204.363 68.4768 204.166 68.5559 203.962 68.6148C203.692 68.688 203.413 68.7217 203.133 68.7148C202.801 68.7188 202.471 68.6569 202.163 68.5328C201.876 68.4108 201.623 68.2214 201.425 67.9808C201.206 67.7143 201.045 67.4051 200.952 67.0728C200.835 66.6644 200.779 66.2407 200.786 65.8158V65.6918L205.367 65.6908ZM201.046 64.4048C201.154 64.1483 201.31 63.9147 201.506 63.7168C201.695 63.523 201.925 63.3728 202.178 63.2768C202.457 63.17 202.754 63.1177 203.053 63.1228C203.324 63.1194 203.594 63.17 203.845 63.2718C204.077 63.3691 204.285 63.5163 204.454 63.7028C204.632 63.9009 204.766 64.1338 204.848 64.3868C204.947 64.6819 204.994 64.9917 204.989 65.3028H200.813C200.845 64.9935 200.924 64.6908 201.046 64.4048Z" fill="#808080"/>
<path d="M146.917 59.9199L146.817 59.9589L146.779 59.9739L146.661 59.9669L146.55 60.0209L146.35 60.1549L146.342 60.1609L146.269 60.1799L146.201 60.1509L146.162 60.1689L146.149 60.2489L146.112 60.3059L146.067 60.3379L145.91 60.3539L145.778 60.4219L145.606 60.3759L145.526 60.4069L145.356 60.5599L145.269 60.6009H145.239L145.124 60.5949L145.075 60.6109L145.002 60.6809L144.865 60.6919L144.822 60.7219L144.755 60.8569L144.682 60.9319L144.641 60.9409L144.596 60.9239L144.562 60.9299L144.547 61.0169L144.514 61.0529L144.422 61.0849L144.349 61.1459L144.285 61.1789H144.198H144.178L144.092 61.2259L143.931 61.2399L143.864 61.3039L143.849 61.3169L143.818 61.3359L143.767 61.3669L143.754 61.3739L143.692 61.3629L143.62 61.3919L143.591 61.3469L143.541 61.3769H143.475L143.392 61.3399L143.329 61.3119L143.283 61.3189L143.267 61.3989V61.4079L143.219 61.4719L143.129 61.5269L143.116 61.5429L143.016 61.6759L142.816 61.8819L142.65 61.9659L142.479 62.0179L142.359 62.1179L142.044 62.2739L141.544 62.5209L141.444 62.5539L141.298 62.5769L141.038 62.6769L140.809 62.7459H140.796L140.75 62.7589L140.427 62.8589L140.277 62.8429L140.188 62.8759L139.956 62.8499H139.795L139.695 62.8709L139.503 62.9629L139.179 63.1189L139.072 63.2189L138.905 63.3059L138.71 63.3679V63.2819L138.642 63.3029L138.593 63.3189L138.435 63.3429H138.347L138.292 63.3269H138.284L137.96 63.4339L137.599 63.4689L137.419 63.5269H137.284L137.2 63.5519L137.034 63.5719L136.975 63.5559H136.962L136.475 63.5769L136.253 63.5519L136.147 63.5759L135.969 63.5159L135.71 63.4859L135.649 63.4679L135.512 63.4279L135.451 63.4639H135.404L135.294 63.4239H135.254L135.163 63.4569L135.11 63.4439L135.061 63.4049L134.947 63.3879L134.877 63.3289L134.488 63.3809L134.382 63.3499L134.028 63.2499H133.972L133.902 63.3029L133.796 63.3419L133.704 63.3659H133.579L133.434 63.3279L133.285 63.2549L133.23 63.2419L133.107 63.2549H133.069L132.843 63.1339L132.551 62.9519L132.351 62.8519L132.277 62.8399L132.267 62.8749L132.304 62.9909L132.317 63.1059V63.2119V63.2779L132.336 63.3369L132.408 63.4159L132.438 63.4959L132.459 63.7149V63.9369L132.424 64.2909L132.412 64.3439L132.371 64.5279L132.333 64.6959L132.186 65.1439L132.146 65.1989L132.046 65.2669L131.824 65.4269L131.659 65.5219L131.607 65.5439L131.473 65.5539H131.389L131.289 65.4979L131.189 65.4719L131.055 65.3719L130.906 65.3409L130.743 65.2469L130.701 65.1959L130.612 65.1879L130.489 65.1509L130.444 65.1379L130.413 65.1289H130.255L130.108 65.0619L130.031 65.0429L129.925 65.0369L129.815 65.0889L129.759 65.1149L129.688 65.0869H129.637L129.579 65.1739L129.572 65.1869L129.532 65.2079H129.443L129.401 65.2259L129.344 65.2509L129.294 65.2729L129.269 65.2839H129.254H129.228L129.195 65.2909L129.136 65.2569L129.105 65.2379L129.053 65.2269L129.025 65.2469L129.019 65.3469L128.993 65.4039L128.912 65.4759L128.829 65.5489L128.772 65.6339L128.62 65.9819L128.52 66.1219L128.49 66.1549L128.39 66.2649L128.302 66.3329L128.102 66.4909L127.909 66.5629L127.743 66.5969H127.663L127.509 66.5769L127.372 66.5349L127.221 66.4409L127.055 66.3079L126.815 66.0709L126.781 66.0509H126.774L126.699 66.0029H126.643L126.621 66.0389L126.609 66.0919L126.599 66.1379L126.572 66.4019V66.4169L126.586 66.5249L126.768 66.7789L126.824 66.9139L126.833 66.9289L126.871 66.9919L126.899 67.0399V67.0449L126.961 67.2309L126.917 67.3359L126.939 67.4059L126.884 67.4489L126.874 67.5099L127.037 67.7149L127.073 67.8049L127.033 67.9309L126.97 67.9999L126.952 68.0189L126.961 68.0719L127.036 68.1389L127.164 68.2529L127.232 68.4219L127.284 68.4679L127.344 68.4549L127.377 68.4809H127.428L127.478 68.5309L127.51 68.5459L127.561 68.5719L127.601 68.6249L127.61 68.7869L127.685 68.9869V69.1119L127.732 69.1919L127.747 69.2559L127.722 69.4239L127.782 69.4779L127.847 69.4649L127.889 69.4719L127.956 69.5279L128.037 69.6519L128.117 69.6399L128.168 69.6639L128.412 69.8849L128.467 69.9129L128.507 69.9329L128.557 69.9829L128.634 69.9319H128.642L128.726 69.9249L128.763 69.9499L128.833 69.9969H128.926L129.126 70.0579L129.214 70.0799L129.39 70.1899L129.465 70.2369L129.509 70.2729L129.568 70.3209L129.686 70.3719L129.786 70.3959L129.841 70.4089L129.882 70.4249L130.101 70.5089L130.219 70.5369L130.329 70.5769L130.409 70.6059H130.468L130.551 70.5359H130.632L130.699 70.5529L130.764 70.5419L130.864 70.4779L130.884 70.4479L130.957 70.4139L131.203 70.3829L131.275 70.4059L131.46 70.3259L131.584 70.3599L131.693 70.3209L131.933 70.3739L131.996 70.4189L132.067 70.4999H132.155L132.122 70.5549L132.222 70.6639L132.316 70.8069L132.323 70.8259L132.391 71.0259L132.442 71.0979L132.478 71.1979V71.2629L132.422 71.3049L132.413 71.3289V71.3379L132.424 71.3649L132.445 71.3529L132.485 71.3309L132.533 71.3239L132.619 71.3329L132.675 71.3389L132.764 71.2949L132.823 71.2649L132.918 71.3059H133.018L133.062 71.3259L133.186 71.3819L133.249 71.3879L133.272 71.3729L133.287 71.3379L133.28 71.2969L133.232 71.2429L133.132 71.1209L133.089 71.0589L133.056 70.9679L133.046 70.8529L133.039 70.7749L133.052 70.6749L133.08 70.6389L133.1 70.5579L133.105 70.5369L133.164 70.4599L133.318 70.3599L133.484 70.2119L133.615 70.1249L133.75 70.0669V70.0499L133.765 70.0559L134.108 69.9389H134.114L134.267 69.9129L135.299 69.9859L135.337 69.9739L135.371 69.8739L135.39 69.8559L135.403 69.8439L135.516 69.7939L135.569 69.7869L135.716 69.8229L135.776 69.8379L135.876 69.7839H135.944L136.085 69.7069H136.172L136.205 69.6939L136.375 69.5719L136.539 69.5249L136.581 69.5029L136.596 69.4949L136.764 69.4059L136.871 69.3239L136.963 69.2749L137.063 69.2489L137.327 69.2299L137.38 69.1419L137.494 69.1269L137.562 69.0489L137.641 69.0169L137.697 68.9359L137.744 68.8679L137.81 68.8299L138.021 68.8169L138.271 68.8479L138.304 68.8279L138.361 68.6279L138.42 68.5899L138.58 68.3579V68.2029L138.606 68.1029L138.588 67.9209L138.609 67.7369L138.709 67.5029L138.796 67.4089L138.937 67.3089L139.009 67.2779L139.109 67.2609H139.124H139.15H139.499H139.626H139.743L140.037 67.3129H140.058L140.158 67.3449L140.272 67.4339L140.394 67.5529L140.417 67.5749L140.496 67.6079L140.52 67.6189L140.585 67.6079L140.678 67.5599L140.748 67.5009L140.848 67.4489L140.901 67.3679L140.922 67.3359L141.106 67.2639L141.322 67.2509L141.346 67.2379L141.359 67.2309L141.416 67.1639H141.47L141.6 67.2109L141.691 67.1929L141.764 67.2219L141.82 67.2149L141.926 67.2019L142.04 67.2819L142.106 67.2899L142.34 67.4269H142.352H142.359H142.372L142.4 67.4189L142.441 67.4069H142.447L142.452 67.4139L142.478 67.4519L142.515 67.4569L142.558 67.3989L142.541 67.3729L142.534 67.3639L142.45 67.3469L142.375 67.2189L142.447 67.1419L142.335 67.0049L142.316 66.9819L142.309 66.9729L142.27 66.9139L142.07 66.6139L141.814 66.4139L141.725 66.3419L141.694 66.3169L141.557 66.1779L141.457 66.0479L141.444 66.0199L141.424 65.9759L141.365 65.8479L141.265 65.7689L141.182 65.6779V65.6719L141.011 65.4389L140.983 65.3999L140.943 65.3759H140.858L140.85 65.3679L140.845 65.3629L140.886 65.3219L140.932 65.3099L140.952 65.2649L140.865 65.0119V65.0029L140.858 64.9219L140.929 64.5549L140.938 64.5099L141.059 64.2629L141.134 64.2019L141.216 64.0409L141.287 63.9409L141.354 63.8749L141.366 63.8679L141.487 63.7949L141.587 63.7809L141.687 63.7679L141.857 63.8199H142.018H142.05L142.123 63.8119L142.243 63.7739L142.3 63.7389L142.329 63.6939L142.39 63.4869L142.41 63.4209L142.448 63.3499L142.668 63.0969L142.834 62.9429L143.207 62.6689L143.39 62.5599L143.484 62.5039L144.317 62.1339L144.533 61.9139L144.646 61.7999L144.846 61.6659L145.08 61.5659L145.28 61.4069L145.324 61.3519L145.379 61.1739L145.425 61.1629L145.466 61.0729L145.478 61.0469L145.642 60.9319L145.661 60.9229L146.298 60.6039L146.391 60.6169L146.441 60.5429L146.627 60.5119L146.661 60.5059L146.707 60.4829L146.746 60.4169V60.4039L146.752 60.2269L146.792 60.1799L146.813 60.0629L146.833 60.0359L146.854 60.0079L146.906 59.9709L146.897 59.9489L146.917 59.9199Z" fill="#D57800"/>
<path d="M167.926 43.127C169.071 43.127 169.999 42.1988 169.999 41.054C169.999 39.9091 169.071 38.981 167.926 38.981C166.781 38.981 165.853 39.9091 165.853 41.054C165.853 42.1988 166.781 43.127 167.926 43.127Z" fill="#D57800"/>
<path d="M0 22.044L66.277 0L198.714 22.044L66.277 4.561L0 22.044Z" fill="#CCCCCC"/>
</svg>
