<svg width="375" height="274" viewBox="0 0 375 274" fill="none" xmlns="http://www.w3.org/2000/svg">
<mask id="mask0_192_5367" style="mask-type:alpha" maskUnits="userSpaceOnUse" x="-14" y="0" width="403" height="274">
<path d="M389 0H-14V273.784H389V0Z" fill="#EBEBEB"/>
</mask>
<g mask="url(#mask0_192_5367)">
<path d="M366.3 16.757L364.23 17.5857L363.422 17.9011L360.916 17.7627L358.568 18.8981L354.403 21.7397L354.225 21.8677L352.667 22.272L351.226 21.6498L350.409 22.0252L350.133 23.714L349.353 24.9272L348.397 25.5979L345.074 25.9335L342.272 27.3837L338.632 26.4074L336.934 27.0683L333.333 30.3136L331.497 31.1825L330.857 31.1427L328.419 31.0147L327.384 31.3601L325.845 32.8403L322.935 33.0675L322.027 33.6994L320.607 36.5601L319.068 38.1487L318.189 38.3367L317.242 37.9809L316.521 38.1089L316.194 39.9438L315.493 40.7065L313.55 41.3771L311.991 42.6803L310.629 43.3803L308.795 43.3307H308.38L306.554 44.337L303.131 44.6431L301.7 46.0051L301.384 46.2917L300.724 46.6959L299.638 47.3496L299.372 47.5071L298.05 47.2706L296.521 47.8819L295.899 46.9258L294.834 47.5665L293.433 47.6259L291.676 46.8463L290.335 46.247L289.358 46.3946L289.022 48.0922L288.983 48.2796L287.956 49.6416L286.043 50.8063L285.776 51.1414L283.597 53.9634L279.453 58.3217L275.941 60.0977L272.311 61.2031L269.764 63.2945L263.085 66.5997L252.558 71.8488L250.406 72.539L247.309 73.0326L241.803 75.0652L236.939 76.5258L236.663 76.614L235.696 76.9L228.839 78.9822L225.652 78.6363L223.757 79.3271L218.834 78.7823L215.411 78.8515L213.249 79.296L209.175 81.2491L202.31 84.5549L200.041 86.6251L196.5 88.4708L192.367 89.7821L192.376 88.0459L192.346 87.9674L190.906 88.4212L189.871 88.7574L186.517 89.27H184.651L183.487 88.9344L183.31 88.9938L176.445 91.253L168.788 91.9934L164.961 93.2164L162.099 93.1761L160.314 93.7095L156.801 94.1339L155.548 93.7977L155.262 93.7198L144.942 94.1731L140.226 93.6403L137.976 94.1535L134.198 92.8803L128.702 92.2391L127.409 91.855L124.508 90.9964L123.206 91.7591L122.219 91.8572L119.882 91.0084L119.043 90.9883L117.109 91.6889L115.995 91.4029L114.959 90.5857L112.542 90.2212L111.063 88.9769L102.804 90.0719L100.564 89.422L93.0562 87.2309L91.862 87.2902L90.372 88.4054L88.1324 89.2226L86.1886 89.726L83.5447 89.8137L80.4765 89.0047L77.3091 87.4657L76.1345 87.19L73.5195 87.4564L72.7204 87.5256L67.9262 84.9509L61.7401 81.0927L57.5452 79.0694L55.9654 78.8133L55.7578 79.563L56.5369 82.02L56.8038 84.4573L56.7248 86.7068L56.6758 88.0976L57.0702 89.3506L58.5891 91.028L59.221 92.7169L59.6748 97.3639V102.07L58.9345 109.579L58.6735 110.707L57.7948 114.605L56.9956 118.176L53.8788 127.688L53.0197 128.862L50.9277 130.303L46.1625 133.538L42.66 135.55L41.5552 136.014L38.7136 136.232L36.9381 136.143L34.7279 134.949L32.5667 134.387L29.7251 132.344L26.5653 131.69L23.1027 129.688L22.2048 128.612L20.3204 128.435L17.7054 127.645L16.7482 127.359L16.0874 127.162L12.743 127.073L9.63493 125.642L8.00658 125.248L5.7664 125.129L3.42926 126.224L2.23509 126.777L0.735275 126.178L-0.339584 126.246L-1.57244 128.099L-1.72116 128.385L-2.5694 128.839L-3.62574 128.819L-4.45328 128.8L-5.34129 129.184L-6.54527 129.707L-7.60107 130.171L-8.12352 130.399L-8.13388 130.388L-8.44985 130.448L-9.01153 130.546L-9.71266 130.685L-10.9559 129.964L-11.6162 129.569L-12.721 129.342L-13.3126 129.778L-13.4319 131.801L-13.9767 133.005L-15.6933 134.534L-17.4503 136.073L-18.6635 137.871L-21.8865 145.238L-23.9088 148.208L-24.5407 148.899L-26.6654 151.237L-28.5395 152.688L-32.8618 156.042L-36.9554 157.571L-40.478 158.292H-42.1848L-45.4404 157.867L-48.3512 156.969L-51.5578 154.966L-55.0696 152.133L-60.1612 147.11L-60.8814 146.674L-61.0295 146.576L-62.628 145.549L-63.8221 145.579L-64.2857 146.349L-64.5418 147.463L-64.7597 148.44L-65.3416 154.035L-65.2925 154.362L-64.9858 156.661L-61.1282 162.058L-59.9345 164.929L-59.7368 165.256L-58.9381 166.598L-58.3356 167.614L-58.2762 167.723L-56.954 171.661L-57.8801 173.89L-57.4165 175.38L-58.5813 176.288L-58.7992 177.58L-55.3371 181.931L-54.5738 183.845L-55.422 186.509L-56.7638 187.969L-57.1485 188.375L-56.9513 189.5L-55.3632 190.93L-52.6496 193.347L-51.1983 196.939L-50.1033 197.906L-48.8214 197.629L-48.1132 198.174L-47.0377 198.154L-45.9721 199.22L-45.2912 199.547L-44.2059 200.091L-43.3474 201.206L-43.1501 204.65L-41.5512 208.913L-41.5321 211.231L-41.5218 211.558L-40.5254 213.264L-40.2099 214.616L-40.7422 218.188L-39.4695 219.332L-38.0983 219.055L-37.2005 219.193L-35.7797 220.387L-34.0533 223.022L-32.3557 222.775L-31.2808 223.288L-26.1004 227.973L-24.9259 228.565L-24.867 228.605L-24.0177 229.019L-22.9619 230.085L-21.3346 228.999L-21.157 228.98L-19.381 228.832L-18.6025 229.355L-17.112 230.361L-15.1507 230.342L-10.8981 231.644L-9.03332 232.117L-5.29389 234.446L-3.70475 235.433L-2.76771 236.192L-1.51469 237.209L0.982063 238.284L3.1231 238.797L4.28731 239.073L5.16496 239.409L5.18565 239.359H5.20528L5.17532 239.409L9.82236 241.185L12.3284 241.776L14.6573 242.635L16.3462 243.247L17.5889 243.266L19.3458 241.787L21.0531 241.688L22.4642 242.043L23.8447 241.817L26.0238 240.466L26.4482 239.834L27.9965 239.104L33.2167 238.45L34.7355 238.944L38.6526 237.246L41.2768 237.977L43.596 237.148L48.6766 238.273L50.0185 239.23L51.5281 240.946L51.7155 240.956L53.3929 240.986L52.6923 242.16L54.9019 244.479L56.9051 247.509L57.043 247.912L58.4937 252.175L59.579 253.695L60.339 255.806L60.3787 257.176L59.1943 258.075L59.0064 258.587L58.9383 258.775L59.1742 259.358L59.6182 259.111L60.467 258.647L61.4933 258.489L63.3086 258.677L64.5017 258.805L66.397 257.868L67.65 257.236L69.663 258.104L71.8727 258.085L72.8091 258.499L75.4432 259.693L76.7856 259.811L77.2797 259.484L77.5951 258.733L77.4377 257.855L76.4211 256.7L74.2016 254.116L73.2929 252.794L72.5923 250.87L72.3848 248.423L72.2268 246.766L72.5035 244.586L73.1061 243.816L73.5419 242.089H73.5517L73.6606 241.635L74.9039 239.997L78.1726 237.896L81.6843 234.748L84.4573 232.913L87.3185 231.68L87.397 231.325L87.7238 231.453L94.9962 228.977L95.1242 228.967L98.3602 228.405L120.244 229.944L121.052 229.697V229.688L121.783 227.645L122.177 227.27L122.444 227.024L124.841 225.958L125.966 225.801L129.094 226.569L130.366 226.885L132.419 225.741L133.87 225.761L136.869 224.124L138.724 224.173L139.424 223.887L143.036 221.292L146.519 220.295L147.417 219.821L147.744 219.644L151.302 217.758L153.571 216.022L155.524 214.974L157.665 214.423L163.26 214.029L164.394 212.154L166.802 211.838L168.252 210.19L169.92 209.52L171.114 207.793L172.12 206.352L173.512 205.543L177.99 205.267L183.299 205.928L183.999 205.492L185.203 201.219L186.456 200.41L189.839 195.487L189.85 193.689V192.189L190.402 190.048L190.027 186.191L190.471 182.293L192.573 177.33L194.426 175.327L197.416 173.304L198.935 172.644L201.076 172.288L201.403 172.228L201.947 172.14L209.357 172.042C209.456 171.963 212.04 172.002 212.04 172.002L214.517 171.972L220.763 173.077L221.207 173.156L223.318 173.837L225.745 175.731L228.33 178.247L228.814 178.721L230.481 179.422L230.984 179.648L232.365 179.422L234.329 178.405L235.809 177.152L237.832 176.047L237.882 175.979L239.016 174.262L239.056 174.231H239.075V174.222H239.056L239.509 173.541L243.417 172.021L248.004 171.755L248.517 171.479L248.803 171.331L250.017 169.901L251.161 169.891L253.914 170.887L255.838 170.502L257.377 171.114L258.571 170.976L260.821 170.71L263.248 172.417L264.649 172.595L269.622 175.496L269.879 175.536L270.017 175.565L270.293 175.615L270.884 175.436L271.763 175.18L271.881 175.15L271.99 175.299L272.552 176.097L273.332 176.206L274.25 174.983L273.885 174.431L273.747 174.233L271.971 173.869L270.372 171.145L271.892 169.506L269.514 166.596L269.119 166.103L268.981 165.906L268.164 164.653L263.999 158.298L258.563 153.968L256.669 152.448L256.649 152.438L255.988 151.916L253.087 148.966L251.016 146.213L250.751 145.62L250.326 144.694L249.084 141.99L246.923 140.323L245.156 138.4L245.067 138.282L241.437 133.338L240.838 132.521L239.979 132.019L238.174 132.009L237.996 131.831L237.887 131.722L237.956 131.663L238.825 130.795L239.791 130.549L240.216 129.601L238.364 124.244L238.353 124.056L238.216 122.34L239.725 114.565L239.913 113.618L242.488 108.388L244.076 107.086L245.813 103.663L247.312 101.484L248.733 100.092L248.989 99.9446L251.565 98.3859L253.726 98.0798L255.787 97.7938L259.389 98.8986L262.813 98.8387L263.483 98.7591L265.033 98.5924L267.588 97.7834L268.801 97.0333L269.423 96.076L270.725 91.6954L271.149 90.3046L271.948 88.795L276.616 83.4277L280.138 80.1721L288.051 74.3608L291.928 72.052L293.911 70.8671L311.583 63.0134L316.17 58.3571L318.567 55.9301L322.8 53.0972L327.753 51.0645L332.016 47.6907L332.942 46.5156L334.116 42.7473L335.093 42.5108L335.971 40.597L336.227 40.0522L339.7 37.6056L340.095 37.4078L353.602 30.6393L355.563 30.9058L356.619 29.3259L360.556 28.6721L361.276 28.5441L362.243 28.0603L363.06 26.6591V26.3835L363.177 22.6244L364.016 21.6182L364.471 19.1416L364.907 18.5685L365.361 17.9768L366.465 17.1972L366.278 16.7233L366.3 16.757Z" fill="#F7F6F6" fill-opacity="0.8"/>
</g>
<path d="M243 90V79.4516L251.771 74.0341V90H243Z" fill="#EA9D3A"/>
<path d="M259.012 61V67.0868L258.981 78.3681L258.95 90H257.92V77.6989L256.671 76.9659L256.64 90H255.579V76.3286L254.143 75.4681L254.112 90H253.082V74.8308L251.771 74.0341V65.4934L259.012 61Z" fill="#EA9D3A"/>
<path d="M269 67.0868L268.906 90H267.876V66.3857L269 67.0868Z" fill="#EA9D3A"/>
<path d="M266.441 65.4935L266.409 90H265.348V64.7924L266.441 65.4935Z" fill="#A67154"/>
<path d="M263.944 63.9L263.881 89.9999H262.851V63.1989L263.944 63.9Z" fill="#EA9D3A"/>
<path d="M261.727 62.4979L261.665 90.0001H260.635V61.7968L261.727 62.4979Z" fill="#EA9D3A"/>
</svg>
