<svg width="109" height="90" viewBox="0 0 109 90" fill="none" xmlns="http://www.w3.org/2000/svg">
<g clip-path="url(#clip0_89_583)">
<path d="M67.9639 26.2778L64.949 23.9329V18.9427C64.949 17.9756 64.4332 17.0822 63.5959 16.599C62.7587 16.1157 61.727 16.1157 60.8897 16.599C60.0525 17.0822 59.5366 17.9756 59.5366 18.9427V19.7231L55.786 16.8062C55.3106 16.4371 54.7259 16.2372 54.1243 16.2372C53.5226 16.2372 52.9379 16.4371 52.4625 16.8062L40.2847 26.2778C39.5556 26.8426 39.1648 27.7415 39.2499 28.6602C39.3345 29.579 39.8824 30.3908 40.7027 30.8131C41.5236 31.2353 42.5028 31.2093 43.2995 30.7436V35.1799C43.3008 36.6151 43.8716 37.9906 44.8865 39.0054C45.9013 40.0201 47.2767 40.591 48.7119 40.5923H59.5367C60.9719 40.5911 62.3474 40.0202 63.3621 39.0054C64.3769 37.9905 64.9478 36.6151 64.949 35.1799V30.7172C65.7416 31.1902 66.7213 31.224 67.5446 30.806C68.3674 30.388 68.9183 29.5767 69.0034 28.6573C69.0886 27.7385 68.696 26.8396 67.9639 26.2778V26.2778ZM56.8305 35.1798V33.8267C56.8305 32.8596 56.3146 31.9662 55.4774 31.483C54.6401 30.9997 53.6084 30.9997 52.7712 31.483C51.934 31.9662 51.4181 32.8596 51.4181 33.8267V35.1798H48.7119V26.5811L54.1243 22.3713L59.5366 26.5811V35.1798H56.8305ZM54.1243 -0.000610352C46.9493 0.00724238 40.0708 2.86145 34.997 7.93423C29.924 13.0078 27.0698 19.8861 27.0621 27.0616C27.0621 55.5538 51.9652 66.9507 53.0245 67.4208C53.724 67.7325 54.5238 67.7325 55.2233 67.4208C56.2828 66.9509 81.1857 55.5547 81.1857 27.0616C81.1778 19.8866 78.3236 13.0081 73.2508 7.93423C68.1773 2.8613 61.2989 0.00712161 54.1235 -0.000610352H54.1243ZM54.1243 61.9308C49.5213 59.5152 32.4748 49.08 32.4748 27.0612C32.4748 19.3268 36.6012 12.1797 43.2995 8.31279C49.9979 4.44496 58.2507 4.44496 64.949 8.31279C71.6474 12.18 75.7738 19.3273 75.7738 27.0612C75.7738 49.085 58.7201 59.52 54.1243 61.9308ZM89.3047 46.0045H82.5392C81.5721 46.0045 80.6788 46.5204 80.1955 47.3576C79.7123 48.1949 79.7123 49.2266 80.1955 50.0638C80.6788 50.901 81.5722 51.4169 82.5392 51.4169H89.3047C90.0223 51.4175 90.7097 51.7032 91.2171 52.2106C91.7245 52.718 92.0102 53.4055 92.0108 54.1231V58.1823H74.4206C73.4535 58.1823 72.5602 58.6982 72.0769 59.5354C71.5937 60.3727 71.5937 61.4044 72.0769 62.2416C72.5602 63.0788 73.4536 63.5947 74.4206 63.5947H92.0108V69.0071H64.949C64.2519 69.0071 63.5814 69.2759 63.0775 69.7573C62.5738 70.2394 62.2753 70.8972 62.2445 71.5937C62.2137 72.2896 62.453 72.9715 62.912 73.4959L69.6401 81.185H58.0457L48.028 69.9151C47.5146 69.3376 46.7782 69.0072 46.0056 69.0072H16.2376V63.5948H33.8278C34.7949 63.5948 35.6883 63.0789 36.1715 62.2417C36.6548 61.4045 36.6548 60.3727 36.1715 59.5355C35.6883 58.6983 34.7949 58.1824 33.8278 58.1824H16.2376V54.1231C16.2382 53.4055 16.5239 52.7181 17.0313 52.2107C17.5387 51.7033 18.2262 51.4176 18.9438 51.417H25.7092C26.6763 51.417 27.5697 50.9011 28.0529 50.0639C28.5362 49.2267 28.5362 48.1949 28.0529 47.3577C27.5697 46.5205 26.6763 46.0046 25.7092 46.0046H18.9438C16.7915 46.007 14.7274 46.863 13.2059 48.3853C11.6836 49.9069 10.8277 51.9711 10.8252 54.1232V78.4788C10.8276 80.6311 11.6836 82.6952 13.2059 84.2167C14.7275 85.739 16.7916 86.5949 18.9438 86.5974H89.3046C91.4568 86.595 93.521 85.739 95.0425 84.2167C96.5647 82.6951 97.4207 80.631 97.4231 78.4788V54.1232C97.4207 51.9709 96.5648 49.9068 95.0425 48.3853C93.5208 46.8631 91.4567 46.0071 89.3046 46.0046L89.3047 46.0045ZM16.2377 78.4788V74.4195H44.7903L50.8037 81.185H18.9434C18.2258 81.1843 17.5384 80.8986 17.031 80.3912C16.5236 79.8838 16.2378 79.1964 16.2372 78.4788L16.2377 78.4788ZM89.3047 81.185H76.7627C76.6751 81.0321 76.573 80.8884 76.4576 80.7555L70.913 74.4194H92.0104V78.4787C92.0098 79.1963 91.7241 79.8838 91.2167 80.3911C90.7093 80.8985 90.0219 81.1843 89.3043 81.1849L89.3047 81.185Z" fill="#EA9D3A"/>
</g>
<defs>
<clipPath id="clip0_89_583">
<rect width="108.247" height="90" fill="white"/>
</clipPath>
</defs>
</svg>
