<svg width="979" height="522" viewBox="0 0 979 522" fill="none" xmlns="http://www.w3.org/2000/svg">
<mask id="mask0_1029_125" style="mask-type:alpha" maskUnits="userSpaceOnUse" x="0" y="0" width="979" height="522">
<path d="M979 0H0V521.367H979V0Z" fill="#EBEBEB"/>
</mask>
<g mask="url(#mask0_1029_125)">
<path d="M935.465 27.2302L931.495 28.8194L929.944 29.4243L925.138 29.159L920.635 31.3363L912.648 36.7862L912.308 37.0317L909.318 37.807L906.555 36.6138L904.988 37.3337L904.458 40.5726L902.964 42.8994L901.13 44.1856L894.757 44.8292L889.383 47.6105L882.401 45.7382L879.146 47.0056L872.24 53.2296L868.719 54.8961L867.491 54.8198L862.815 54.5743L860.83 55.2367L857.879 58.0755L852.297 58.5112L850.555 59.7232L847.832 65.2096L844.88 68.2562L843.195 68.6167L841.379 67.9345L839.996 68.18L839.37 71.699L838.025 73.1617L834.298 74.4479L831.309 76.9471L828.697 78.2897L825.178 78.1946H824.383L820.881 80.1244L814.316 80.7116L811.571 83.3237L810.965 83.8733L809.7 84.6485L807.617 85.9023L807.106 86.2042L804.571 85.7508L801.639 86.9231L800.446 85.0894L798.403 86.3181L795.716 86.432L792.346 84.9369L789.775 83.7876L787.9 84.0707L787.257 87.3264L787.182 87.6858L785.213 90.2979L781.543 92.5317L781.032 93.1743L776.852 98.5865L768.906 106.945L762.169 110.351L755.207 112.471L750.323 116.482L737.513 122.821L717.324 132.888L713.198 134.212L707.257 135.158L696.698 139.057L687.37 141.858L686.84 142.027L684.985 142.576L671.834 146.569L665.723 145.905L662.088 147.23L652.646 146.185L646.081 146.318L641.935 147.171L634.121 150.916L620.956 157.256L616.605 161.227L609.813 164.767L601.886 167.282L601.904 163.952L601.847 163.801L599.084 164.672L597.099 165.316L590.667 166.299H587.09L584.857 165.656L584.516 165.77L571.351 170.103L556.666 171.522L549.325 173.868L543.837 173.791L540.413 174.814L533.677 175.628L531.274 174.983L530.725 174.834L510.932 175.703L501.887 174.681L497.573 175.665L490.326 173.223L479.787 171.994L477.308 171.257L471.743 169.61L469.246 171.073L467.354 171.261L462.87 169.633L461.262 169.595L457.553 170.938L455.416 170.39L453.43 168.823L448.795 168.124L445.957 165.737L430.117 167.837L425.823 166.591L411.423 162.389L409.133 162.503L406.275 164.641L401.98 166.208L398.252 167.174L393.182 167.342L387.297 165.791L381.223 162.839L378.97 162.31L373.955 162.821L372.422 162.954L363.228 158.016L351.364 150.617L343.318 146.736L340.289 146.245L339.89 147.683L341.385 152.395L341.897 157.069L341.745 161.384L341.651 164.051L342.407 166.454L345.32 169.671L346.532 172.91L347.403 181.822V190.849L345.983 205.249L345.482 207.413L343.797 214.888L342.264 221.738L336.287 239.98L334.639 242.231L330.627 244.995L321.488 251.2L314.771 255.057L312.652 255.947L307.202 256.365L303.797 256.195L299.558 253.905L295.413 252.828L289.964 248.909L283.904 247.656L277.263 243.815L275.541 241.752L271.927 241.412L266.912 239.897L265.076 239.348L263.808 238.97L257.394 238.8L251.434 236.056L248.311 235.3L244.014 235.072L239.532 237.172L237.242 238.232L234.365 237.083L232.304 237.215L229.939 240.767L229.654 241.317L228.027 242.187L226.002 242.148L224.414 242.113L222.711 242.85L220.402 243.852L218.377 244.742L217.375 245.178L217.356 245.159L216.75 245.272L215.672 245.462L214.328 245.727L211.943 244.344L210.677 243.587L208.558 243.152L207.423 243.988L207.195 247.867L206.15 250.177L202.858 253.109L199.488 256.06L197.161 259.508L190.98 273.638L187.102 279.334L185.89 280.659L181.815 285.143L178.221 287.925L169.931 294.358L162.08 297.29L155.324 298.673H152.051L145.807 297.858L140.225 296.136L134.075 292.295L127.34 286.862L117.575 277.228L116.194 276.393L115.909 276.203L112.844 274.235L110.554 274.292L109.665 275.768L109.173 277.905L108.756 279.779L107.64 290.509L107.734 291.136L108.322 295.545L115.72 305.895L118.01 311.402L118.389 312.029L119.921 314.603L121.076 316.552L121.19 316.761L123.726 324.312L121.95 328.588L122.839 331.446L120.605 333.187L120.187 335.665L126.827 344.01L128.291 347.681L126.664 352.79L124.09 355.59L123.353 356.368L123.731 358.525L126.777 361.268L131.981 365.904L134.764 372.792L136.864 374.648L139.323 374.116L140.681 375.161L142.744 375.123L144.787 377.167L146.093 377.794L148.175 378.839L149.821 380.976L150.2 387.581L153.266 395.756L153.303 400.203L153.323 400.83L155.233 404.101L155.838 406.695L154.818 413.544L157.258 415.739L159.888 415.208L161.61 415.473L164.335 417.763L167.646 422.815L170.902 422.343L172.963 423.326L182.898 432.312L185.151 433.447L185.264 433.523L186.893 434.317L188.918 436.361L192.038 434.28L192.379 434.242L195.785 433.958L197.278 434.961L200.137 436.891L203.898 436.855L212.054 439.352L215.631 440.26L222.802 444.726L225.85 446.618L227.647 448.075L230.05 450.025L234.839 452.086L238.945 453.07L241.178 453.6L242.861 454.244L242.9 454.148H242.938L242.881 454.244L251.793 457.65L256.599 458.784L261.066 460.431L264.305 461.604L266.688 461.642L270.058 458.804L273.332 458.615L276.038 459.296L278.686 458.863L282.865 456.27L283.679 455.058L286.648 453.658L296.66 452.405L299.573 453.351L307.085 450.097L312.118 451.497L316.566 449.909L326.31 452.065L328.883 453.9L331.778 457.192L332.138 457.212L335.355 457.269L334.011 459.521L338.249 463.968L342.091 469.778L342.355 470.552L345.138 478.728L347.219 481.642L348.676 485.691L348.753 488.319L346.481 490.043L346.121 491.025L345.99 491.386L346.443 492.504L347.294 492.03L348.922 491.14L350.89 490.837L354.372 491.198L356.66 491.443L360.295 489.646L362.698 488.434L366.559 490.099L370.796 490.062L372.592 490.856L377.644 493.146L380.219 493.372L381.166 492.745L381.771 491.304L381.469 489.621L379.52 487.406L375.263 482.45L373.52 479.914L372.177 476.224L371.778 471.531L371.475 468.353L372.006 464.174L373.162 462.696L373.998 459.384H374.016L374.225 458.514L376.61 455.372L382.879 451.342L389.614 445.305L394.932 441.786L400.419 439.421L400.57 438.74L401.197 438.986L415.144 434.237L415.389 434.217L421.596 433.14L463.565 436.092L465.116 435.618V435.6L466.517 431.683L467.273 430.963L467.785 430.492L472.382 428.447L474.54 428.145L480.538 429.619L482.978 430.225L486.916 428.031L489.697 428.069L495.45 424.929L499.008 425.023L500.35 424.474L507.278 419.498L513.957 417.586L515.68 416.678L516.307 416.337L523.13 412.721L527.481 409.39L531.227 407.382L535.334 406.324L546.064 405.568L548.239 401.972L552.857 401.367L555.637 398.206L558.836 396.92L561.127 393.609L563.055 390.846L565.725 389.294L574.314 388.764L584.495 390.032L585.839 389.196L588.147 381.001L590.55 379.45L597.039 370.008L597.059 366.56V363.683L598.119 359.577L597.4 352.179L598.251 344.704L602.282 335.186L605.835 331.344L611.57 327.465L614.483 326.198L618.589 325.515L619.216 325.401L620.261 325.233L634.47 325.044C634.66 324.893 639.617 324.966 639.617 324.966L644.368 324.909L656.346 327.029L657.197 327.18L661.246 328.486L665.902 332.118L670.859 336.944L671.786 337.853L674.984 339.197L675.949 339.63L678.597 339.197L682.364 337.247L685.203 334.844L689.082 332.724L689.177 332.594L691.352 329.301L691.429 329.243H691.466V329.224H691.429L692.299 327.918L699.793 325.004L708.591 324.494L709.574 323.964L710.123 323.681L712.452 320.938L714.646 320.918L719.925 322.83L723.616 322.091L726.567 323.264L728.856 323L733.172 322.49L737.826 325.763L740.512 326.104L750.05 331.668L750.543 331.744L750.807 331.801L751.337 331.896L752.472 331.554L754.156 331.063L754.384 331.005L754.593 331.29L755.67 332.821L757.166 333.03L758.925 330.685L758.226 329.625L757.962 329.246L754.556 328.547L751.489 323.323L754.404 320.181L749.843 314.6L749.086 313.653L748.821 313.276L747.254 310.873L739.267 298.686L728.841 290.381L725.208 287.466L725.17 287.447L723.902 286.445L718.338 280.787L714.368 275.508L713.858 274.371L713.043 272.595L710.661 267.409L706.517 264.211L703.128 260.523L702.957 260.297L695.996 250.816L694.846 249.249L693.2 248.286L689.737 248.266L689.397 247.925L689.188 247.716L689.32 247.602L690.986 245.938L692.839 245.466L693.654 243.649L690.102 233.375L690.082 233.015L689.818 229.723L692.713 214.812L693.072 212.996L698.011 202.965L701.058 200.468L704.388 193.903L707.264 189.723L709.988 187.055L710.48 186.772L715.42 183.782L719.564 183.195L723.517 182.647L730.425 184.766L736.991 184.651L738.278 184.498L741.249 184.178L746.149 182.627L748.475 181.188L749.668 179.352L752.166 170.951L752.979 168.284L754.512 165.388L763.463 155.095L770.218 148.851L785.394 137.706L792.83 133.278L796.634 131.005L830.525 115.943L839.324 107.013L843.921 102.358L852.038 96.9252L861.538 93.0269L869.712 86.5564L871.488 84.3027L873.74 77.0756L875.614 76.6222L877.299 72.9517L877.79 71.9069L884.449 67.2146L885.207 66.8353L911.111 53.8544L914.873 54.3653L916.898 51.3353L924.448 50.0815L925.829 49.836L927.683 48.9082L929.251 46.2209V45.6923L929.476 38.4829L931.085 36.5532L931.957 31.8034L932.793 30.7042L933.664 29.5696L935.782 28.0744L935.422 27.1654L935.465 27.2302Z" fill="#F7F6F6" fill-opacity="0.8"/>
</g>
<circle cx="539" cy="239.155" r="7" fill="#EA9D3A"/>
<path d="M420.149 262.162C420.269 262.162 420.389 262.187 420.509 262.237C420.629 262.277 420.744 262.352 420.854 262.462L422.864 264.577C421.984 265.727 420.879 266.597 419.549 267.187C418.229 267.767 416.664 268.057 414.854 268.057C413.194 268.057 411.704 267.777 410.384 267.217C409.074 266.647 407.959 265.867 407.039 264.877C406.129 263.877 405.429 262.697 404.939 261.337C404.449 259.967 404.204 258.482 404.204 256.882C404.204 255.252 404.469 253.757 404.999 252.397C405.529 251.027 406.274 249.847 407.234 248.857C408.194 247.867 409.344 247.097 410.684 246.547C412.024 245.997 413.499 245.722 415.109 245.722C415.929 245.722 416.699 245.797 417.419 245.947C418.149 246.087 418.829 246.287 419.459 246.547C420.089 246.797 420.669 247.102 421.199 247.462C421.729 247.822 422.199 248.212 422.609 248.632L420.899 250.927C420.789 251.067 420.659 251.197 420.509 251.317C420.359 251.427 420.149 251.482 419.879 251.482C419.699 251.482 419.529 251.442 419.369 251.362C419.209 251.282 419.039 251.187 418.859 251.077C418.679 250.957 418.479 250.832 418.259 250.702C418.049 250.562 417.794 250.437 417.494 250.327C417.204 250.207 416.859 250.107 416.459 250.027C416.069 249.947 415.609 249.907 415.079 249.907C414.239 249.907 413.469 250.062 412.769 250.372C412.079 250.682 411.479 251.137 410.969 251.737C410.469 252.327 410.079 253.057 409.799 253.927C409.529 254.787 409.394 255.772 409.394 256.882C409.394 258.002 409.544 258.997 409.844 259.867C410.154 260.737 410.569 261.472 411.089 262.072C411.619 262.662 412.234 263.112 412.934 263.422C413.634 263.732 414.384 263.887 415.184 263.887C415.644 263.887 416.064 263.867 416.444 263.827C416.824 263.777 417.179 263.702 417.509 263.602C417.839 263.492 418.149 263.352 418.439 263.182C418.729 263.002 419.024 262.777 419.324 262.507C419.444 262.407 419.574 262.327 419.714 262.267C419.854 262.197 419.999 262.162 420.149 262.162ZM435.547 259.507V267.817H430.477V259.507L422.557 245.962H427.027C427.467 245.962 427.812 246.067 428.062 246.277C428.322 246.477 428.537 246.737 428.707 247.057L431.797 253.417C432.057 253.917 432.292 254.387 432.502 254.827C432.712 255.257 432.897 255.682 433.057 256.102C433.207 255.672 433.377 255.242 433.567 254.812C433.767 254.372 433.997 253.907 434.257 253.417L437.317 247.057C437.387 246.927 437.472 246.797 437.572 246.667C437.672 246.537 437.787 246.422 437.917 246.322C438.057 246.212 438.212 246.127 438.382 246.067C438.562 245.997 438.757 245.962 438.967 245.962H443.467L435.547 259.507ZM452.885 256.687C454.205 256.687 455.155 256.372 455.735 255.742C456.315 255.112 456.605 254.232 456.605 253.102C456.605 252.602 456.53 252.147 456.38 251.737C456.23 251.327 456 250.977 455.69 250.687C455.39 250.387 455.005 250.157 454.535 249.997C454.075 249.837 453.525 249.757 452.885 249.757H450.245V256.687H452.885ZM452.885 245.962C454.425 245.962 455.745 246.147 456.845 246.517C457.955 246.877 458.865 247.377 459.575 248.017C460.295 248.657 460.825 249.412 461.165 250.282C461.505 251.152 461.675 252.092 461.675 253.102C461.675 254.192 461.5 255.192 461.15 256.102C460.8 257.012 460.265 257.792 459.545 258.442C458.825 259.092 457.91 259.602 456.8 259.972C455.7 260.332 454.395 260.512 452.885 260.512H450.245V267.817H445.175V245.962H452.885ZM471.357 256.237C472.047 256.237 472.632 256.152 473.112 255.982C473.602 255.802 474.002 255.557 474.312 255.247C474.622 254.937 474.847 254.577 474.987 254.167C475.127 253.747 475.197 253.297 475.197 252.817C475.197 251.857 474.882 251.107 474.252 250.567C473.632 250.027 472.667 249.757 471.357 249.757H469.317V256.237H471.357ZM482.127 267.817H477.537C476.687 267.817 476.077 267.497 475.707 266.857L472.077 260.512C471.907 260.242 471.717 260.047 471.507 259.927C471.297 259.797 470.997 259.732 470.607 259.732H469.317V267.817H464.247V245.962H471.357C472.937 245.962 474.282 246.127 475.392 246.457C476.512 246.777 477.422 247.227 478.122 247.807C478.832 248.387 479.347 249.072 479.667 249.862C479.987 250.652 480.147 251.512 480.147 252.442C480.147 253.152 480.052 253.822 479.862 254.452C479.672 255.082 479.392 255.667 479.022 256.207C478.652 256.737 478.192 257.212 477.642 257.632C477.102 258.052 476.477 258.397 475.767 258.667C476.097 258.837 476.407 259.052 476.697 259.312C476.987 259.562 477.247 259.862 477.477 260.212L482.127 267.817ZM492.849 263.812C493.529 263.812 494.134 263.702 494.664 263.482C495.204 263.252 495.659 262.927 496.029 262.507C496.399 262.087 496.679 261.577 496.869 260.977C497.069 260.367 497.169 259.677 497.169 258.907V245.962H502.239V258.907C502.239 260.247 502.019 261.477 501.579 262.597C501.149 263.717 500.529 264.682 499.719 265.492C498.909 266.302 497.924 266.932 496.764 267.382C495.604 267.832 494.299 268.057 492.849 268.057C491.389 268.057 490.079 267.832 488.919 267.382C487.759 266.932 486.774 266.302 485.964 265.492C485.154 264.682 484.534 263.717 484.104 262.597C483.674 261.477 483.459 260.247 483.459 258.907V245.962H488.529V258.892C488.529 259.662 488.624 260.352 488.814 260.962C489.014 261.562 489.299 262.077 489.669 262.507C490.039 262.927 490.489 263.252 491.019 263.482C491.559 263.702 492.169 263.812 492.849 263.812ZM518.275 250.402C518.125 250.642 517.965 250.822 517.795 250.942C517.635 251.062 517.425 251.122 517.165 251.122C516.935 251.122 516.685 251.052 516.415 250.912C516.155 250.762 515.855 250.597 515.515 250.417C515.185 250.237 514.805 250.077 514.375 249.937C513.945 249.787 513.455 249.712 512.905 249.712C511.955 249.712 511.245 249.917 510.775 250.327C510.315 250.727 510.085 251.272 510.085 251.962C510.085 252.402 510.225 252.767 510.505 253.057C510.785 253.347 511.15 253.597 511.6 253.807C512.06 254.017 512.58 254.212 513.16 254.392C513.75 254.562 514.35 254.757 514.96 254.977C515.57 255.187 516.165 255.437 516.745 255.727C517.335 256.017 517.855 256.387 518.305 256.837C518.765 257.287 519.135 257.837 519.415 258.487C519.695 259.127 519.835 259.902 519.835 260.812C519.835 261.822 519.66 262.767 519.31 263.647C518.96 264.527 518.45 265.297 517.78 265.957C517.12 266.607 516.3 267.122 515.32 267.502C514.35 267.872 513.245 268.057 512.005 268.057C511.325 268.057 510.63 267.987 509.92 267.847C509.22 267.707 508.54 267.512 507.88 267.262C507.22 267.002 506.6 266.697 506.02 266.347C505.44 265.997 504.935 265.607 504.505 265.177L506.005 262.807C506.125 262.637 506.28 262.497 506.47 262.387C506.67 262.267 506.885 262.207 507.115 262.207C507.415 262.207 507.715 262.302 508.015 262.492C508.325 262.682 508.67 262.892 509.05 263.122C509.44 263.352 509.885 263.562 510.385 263.752C510.885 263.942 511.475 264.037 512.155 264.037C513.075 264.037 513.79 263.837 514.3 263.437C514.81 263.027 515.065 262.382 515.065 261.502C515.065 260.992 514.925 260.577 514.645 260.257C514.365 259.937 513.995 259.672 513.535 259.462C513.085 259.252 512.57 259.067 511.99 258.907C511.41 258.747 510.815 258.572 510.205 258.382C509.595 258.182 509 257.942 508.42 257.662C507.84 257.372 507.32 256.997 506.86 256.537C506.41 256.067 506.045 255.487 505.765 254.797C505.485 254.097 505.345 253.237 505.345 252.217C505.345 251.397 505.51 250.597 505.84 249.817C506.17 249.037 506.655 248.342 507.295 247.732C507.935 247.122 508.72 246.637 509.65 246.277C510.58 245.907 511.645 245.722 512.845 245.722C513.515 245.722 514.165 245.777 514.795 245.887C515.435 245.987 516.04 246.142 516.61 246.352C517.18 246.552 517.71 246.797 518.2 247.087C518.7 247.367 519.145 247.687 519.535 248.047L518.275 250.402Z" fill="#C1C1C1" fill-opacity="0.68"/>
</svg>
