<svg width="24" height="24" viewBox="0 0 24 24" fill="none" xmlns="http://www.w3.org/2000/svg">
<path d="M13.6041 7.59561C13.7355 7.72705 13.9138 7.80089 14.0997 7.80089C14.2856 7.80089 14.4638 7.72705 14.5953 7.59561C14.7267 7.46417 14.8006 7.28589 14.8006 7.10001C14.8006 6.91412 14.7267 6.73585 14.5953 6.60441L12.9895 5.00001H15.4997C16.4279 5.00001 17.3182 5.36876 17.9746 6.02513C18.6309 6.68151 18.9997 7.57175 18.9997 8.50001V14.8C17.9474 14.8016 16.9341 15.198 16.1602 15.911C15.3863 16.6239 14.9082 17.6013 14.8205 18.6499C14.7328 19.6985 15.0419 20.7418 15.6866 21.5734C16.3313 22.4049 17.2647 22.9642 18.302 23.1406C19.3394 23.3169 20.4051 23.0975 21.2884 22.5257C22.1717 21.9538 22.8081 21.0713 23.0719 20.0526C23.3356 19.034 23.2073 17.9535 22.7125 17.0248C22.2177 16.0962 21.3923 15.3872 20.3997 15.038V8.50001C20.3997 7.20045 19.8834 5.95411 18.9645 5.03518C18.0456 4.11626 16.7992 3.60001 15.4997 3.60001H12.9895L14.5953 1.99561C14.6604 1.93052 14.712 1.85326 14.7472 1.76822C14.7824 1.68319 14.8006 1.59205 14.8006 1.50001C14.8006 1.40797 14.7824 1.31683 14.7472 1.23179C14.712 1.14676 14.6604 1.06949 14.5953 1.00441C14.5302 0.939324 14.4529 0.887697 14.3679 0.852474C14.2829 0.817252 14.1917 0.799123 14.0997 0.799123C14.0076 0.799123 13.9165 0.817252 13.8315 0.852474C13.7464 0.887697 13.6692 0.939324 13.6041 1.00441L10.8041 3.80441C10.7389 3.86943 10.6872 3.94668 10.6519 4.03172C10.6166 4.11676 10.5984 4.20793 10.5984 4.30001C10.5984 4.39208 10.6166 4.48325 10.6519 4.56829C10.6872 4.65334 10.7389 4.73058 10.8041 4.79561L13.6041 7.59561ZM21.7997 19C21.7997 19.7426 21.5047 20.4548 20.9796 20.9799C20.4545 21.505 19.7423 21.8 18.9997 21.8C18.2571 21.8 17.5449 21.505 17.0198 20.9799C16.4947 20.4548 16.1997 19.7426 16.1997 19C16.1997 18.2574 16.4947 17.5452 17.0198 17.0201C17.5449 16.495 18.2571 16.2 18.9997 16.2C19.7423 16.2 20.4545 16.495 20.9796 17.0201C21.5047 17.5452 21.7997 18.2574 21.7997 19ZM9.19968 5.00001C9.19968 6.11392 8.75718 7.1822 7.96952 7.96986C7.18187 8.75751 6.11359 9.20001 4.99968 9.20001V15.5C4.99968 16.4283 5.36843 17.3185 6.0248 17.9749C6.68118 18.6313 7.57142 19 8.49968 19H11.0099L9.40408 17.3956C9.33899 17.3305 9.28737 17.2533 9.25214 17.1682C9.21692 17.0832 9.19879 16.992 9.19879 16.9C9.19879 16.808 9.21692 16.7168 9.25214 16.6318C9.28737 16.5468 9.33899 16.4695 9.40408 16.4044C9.46916 16.3393 9.54642 16.2877 9.63146 16.2525C9.71649 16.2173 9.80764 16.1991 9.89968 16.1991C9.99172 16.1991 10.0829 16.2173 10.1679 16.2525C10.2529 16.2877 10.3302 16.3393 10.3953 16.4044L13.1953 19.2044C13.2605 19.2694 13.3122 19.3467 13.3475 19.4317C13.3828 19.5168 13.4009 19.6079 13.4009 19.7C13.4009 19.7921 13.3828 19.8832 13.3475 19.9683C13.3122 20.0533 13.2605 20.1306 13.1953 20.1956L10.3953 22.9956C10.2638 23.127 10.0856 23.2009 9.89968 23.2009C9.71379 23.2009 9.53552 23.127 9.40408 22.9956C9.27264 22.8642 9.19879 22.6859 9.19879 22.5C9.19879 22.3141 9.27264 22.1358 9.40408 22.0044L11.0099 20.4H8.49968C7.20012 20.4 5.95378 19.8838 5.03485 18.9648C4.11593 18.0459 3.59968 16.7996 3.59968 15.5V8.96201C2.87329 8.70557 2.23138 8.25437 1.74413 7.65772C1.25688 7.06107 0.943039 6.34195 0.836928 5.57897C0.730817 4.81598 0.836514 4.03851 1.14247 3.33155C1.44842 2.62459 1.94285 2.01535 2.5717 1.57044C3.20055 1.12552 3.93962 0.862065 4.7081 0.808862C5.47659 0.755659 6.24491 0.91476 6.92908 1.26877C7.61324 1.62278 8.1869 2.15808 8.58736 2.81614C8.98781 3.47419 9.19964 4.22968 9.19968 5.00001ZM7.79968 5.00001C7.79968 4.2574 7.50468 3.54521 6.97958 3.02011C6.45447 2.49501 5.74228 2.20001 4.99968 2.20001C4.25707 2.20001 3.54488 2.49501 3.01978 3.02011C2.49468 3.54521 2.19968 4.2574 2.19968 5.00001C2.19968 5.74261 2.49468 6.4548 3.01978 6.97991C3.54488 7.50501 4.25707 7.80001 4.99968 7.80001C5.74228 7.80001 6.45447 7.50501 6.97958 6.97991C7.50468 6.4548 7.79968 5.74261 7.79968 5.00001Z" fill="#D57800"/>
</svg>
