<svg width="22" height="22" viewBox="0 0 22 22" fill="none" xmlns="http://www.w3.org/2000/svg">
<path d="M11.2186 2.13135C8.28839 2.13135 5.91406 4.49613 5.91406 7.42532C5.91406 12.4901 11.2186 19.0954 11.2186 19.0954C11.2186 19.0954 16.5232 12.4891 16.5232 7.42532C16.5232 4.49719 14.1489 2.13135 11.2186 2.13135V2.13135ZM11.2186 10.3545C10.4589 10.3545 9.73035 10.0527 9.19315 9.51552C8.65596 8.97833 8.35417 8.24974 8.35417 7.49003C8.35417 6.73033 8.65596 6.00174 9.19315 5.46455C9.73035 4.92735 10.4589 4.62556 11.2186 4.62556C11.9783 4.62556 12.7069 4.92735 13.2441 5.46455C13.7813 6.00174 14.0831 6.73033 14.0831 7.49003C14.0831 8.24974 13.7813 8.97833 13.2441 9.51552C12.7069 10.0527 11.9783 10.3545 11.2186 10.3545Z" fill="white"/>
</svg>
