<svg width="20" height="20" viewBox="0 0 20 20" fill="none" xmlns="http://www.w3.org/2000/svg">
<path d="M9.99998 9.99996C9.08331 9.99996 8.33331 9.24996 8.33331 8.33329C8.33331 7.41663 9.08331 6.66663 9.99998 6.66663C10.9166 6.66663 11.6666 7.41663 11.6666 8.33329C11.6666 9.24996 10.9166 9.99996 9.99998 9.99996ZM15 8.49996C15 5.47496 12.7916 3.33329 9.99998 3.33329C7.20831 3.33329 4.99998 5.47496 4.99998 8.49996C4.99998 10.45 6.62498 13.0333 9.99998 16.1166C13.375 13.0333 15 10.45 15 8.49996ZM9.99998 1.66663C13.5 1.66663 16.6666 4.34996 16.6666 8.49996C16.6666 11.2666 14.4416 14.5416 9.99998 18.3333C5.55831 14.5416 3.33331 11.2666 3.33331 8.49996C3.33331 4.34996 6.49998 1.66663 9.99998 1.66663Z" fill="white"/>
</svg>
