<svg width="104" height="90" viewBox="0 0 104 90" fill="none" xmlns="http://www.w3.org/2000/svg">
<path d="M87.9802 50.639L83.9141 49.2045V43.8931C83.9141 42.9704 83.4219 42.118 82.6231 41.6569C81.8243 41.1959 80.84 41.1959 80.0412 41.6569C79.2424 42.118 78.7502 42.9704 78.7502 43.8931V47.3821L70.9034 44.6128C69.2977 44.048 67.5468 44.048 65.9411 44.6128L48.8632 50.6389C46.4328 51.466 44.6012 53.4882 44.0174 55.9879C43.4336 58.488 44.1805 61.112 45.9937 62.9298C47.8063 64.7475 50.4287 65.5015 52.9299 64.9246V74.8767C52.9322 76.9301 53.7489 78.8995 55.2013 80.3512C56.6531 81.8035 58.6225 82.6202 60.6758 82.6226H76.1676C78.2211 82.6203 80.1905 81.8036 81.6421 80.3512C83.0945 78.8994 83.9112 76.93 83.9135 74.8767V64.9448C86.4067 65.4883 89.0043 64.7177 90.7978 62.9034C92.5919 61.0891 93.3325 58.4829 92.7608 55.9967C92.1897 53.5099 90.3851 51.4886 87.9796 50.6392L87.9802 50.639ZM76.1682 77.459H60.6764C59.9917 77.4579 59.3359 77.1858 58.8518 76.7017C58.3677 76.2176 58.0956 75.5617 58.0945 74.8771V63.1862L67.6604 59.8101C68.1538 59.636 68.6909 59.636 69.1842 59.8101L78.7502 63.1862V74.8771C78.7491 75.5618 78.477 76.2176 77.9929 76.7017C77.5088 77.1858 76.8529 77.4579 76.1683 77.459H76.1682ZM86.8211 59.5343C86.2171 59.9671 85.4385 60.0755 84.7389 59.8242L70.9035 54.9414C69.2978 54.3766 67.547 54.3766 65.9413 54.9414L52.1059 59.8248C51.4062 60.0714 50.6293 59.9637 50.0237 59.5349C49.4174 59.1061 49.0577 58.4093 49.0577 57.667C49.0583 57.1938 49.2053 56.7322 49.479 56.3461C49.7522 55.9593 50.1384 55.6671 50.5844 55.5092L67.6608 49.4825C68.1542 49.3084 68.6913 49.3084 69.1846 49.4825L86.2596 55.5086L86.259 55.5092C86.7056 55.6671 87.0918 55.9593 87.3655 56.3455C87.6387 56.7322 87.7863 57.1938 87.7868 57.667C87.7914 58.4105 87.4307 59.1084 86.8209 59.5343L86.8211 59.5343ZM50.349 33.5656V23.6343C52.8417 24.1772 55.4392 23.4067 57.2327 21.5923C59.0262 19.778 59.7668 17.1719 59.1957 14.6857C58.6245 12.1989 56.8206 10.1775 54.4151 9.32815L50.349 7.89365V2.58217C50.349 1.65947 49.8568 0.807109 49.058 0.346043C48.2592 -0.115022 47.2748 -0.115022 46.476 0.346043C45.6772 0.807109 45.1851 1.6595 45.1851 2.58217V6.07122L37.3382 3.30188C35.7325 2.73708 33.9817 2.73708 32.376 3.30188L15.2981 9.32804C13.0683 10.1142 11.3445 11.9118 10.6518 14.1721C9.95901 16.4324 10.3803 18.8877 11.7871 20.7878C13.1934 22.688 15.4186 23.8079 17.7828 23.8061C18.3153 23.7986 18.8455 23.7341 19.3648 23.6136V33.5657C19.3671 35.6192 20.1838 37.5885 21.6362 39.0402C23.088 40.4925 25.0574 41.3092 27.1107 41.3116H42.6025C44.656 41.3093 46.6254 40.4926 48.077 39.0402C49.5294 37.5884 50.3461 35.619 50.3484 33.5657L50.349 33.5656ZM16.4588 18.2228C15.8491 17.7969 15.4883 17.099 15.4929 16.3555C15.4935 15.8824 15.6404 15.4207 15.9142 15.0346C16.1874 14.6479 16.5735 14.3556 17.0196 14.1977L34.096 8.17098C34.5893 7.99693 35.1265 7.99693 35.6198 8.17098L52.6947 14.1971L52.6941 14.1977C53.1408 14.3556 53.5269 14.6478 53.8007 15.034C54.0739 15.4207 54.2214 15.8823 54.222 16.3555C54.222 17.0978 53.8624 17.7946 53.2561 18.2234C52.6503 18.6522 51.8734 18.7599 51.1738 18.5133L37.3385 13.63C35.7328 13.0652 33.9819 13.0652 32.3762 13.63L18.5408 18.5133C17.8412 18.7657 17.062 18.6574 16.4586 18.2228L16.4588 18.2228ZM42.6031 36.1476H27.1113C26.4266 36.1464 25.7707 35.8744 25.2866 35.3903C24.8025 34.9061 24.5305 34.2503 24.5293 33.5656V21.8748L34.0953 18.4986C34.5887 18.3245 35.1258 18.3245 35.6191 18.4986L45.1851 21.8748V33.5656C45.1839 34.2503 44.9119 34.9062 44.4278 35.3903C43.9437 35.8744 43.2878 36.1464 42.6031 36.1476H42.6031ZM90.2691 26.5297L87.6872 35.5665C87.4607 36.359 86.8694 36.9958 86.0954 37.2799C85.3219 37.5646 84.4585 37.4621 83.7728 37.005L76.0269 31.8411C75.2604 31.3293 74.8247 30.4469 74.8846 29.5271C74.9439 28.6072 75.4897 27.7889 76.3156 27.3796C77.1421 26.971 78.1236 27.0338 78.8912 27.5444L79.8128 28.1588C76.6494 22.5241 71.8819 17.9577 66.1163 15.0398C65.5042 14.732 65.0397 14.1943 64.8247 13.5441C64.6097 12.8934 64.6616 12.1846 64.9688 11.5725C65.2765 10.9611 65.8148 10.4965 66.465 10.281C67.1151 10.066 67.824 10.1179 68.436 10.4256C75.4708 13.988 81.215 19.6624 84.8632 26.6537L85.3041 25.1102V25.1097C85.492 24.4515 85.9346 23.8948 86.5329 23.5623C87.1317 23.2303 87.8382 23.149 88.4965 23.3375C89.1546 23.526 89.7114 23.968 90.0439 24.5668C90.3764 25.165 90.4571 25.8716 90.2686 26.5298L90.2691 26.5297ZM37.3078 72.5698C31.5434 69.6519 26.7765 65.0861 23.6131 59.4525L24.5335 60.0658H24.5329C25.1029 60.4507 25.8026 60.5931 26.4775 60.4605C27.1524 60.328 27.746 59.9315 28.1276 59.3592C28.5091 58.7869 28.6469 58.0861 28.5097 57.4124C28.3725 56.7386 27.9726 56.1473 27.398 55.7692L19.6521 50.6053C18.9662 50.1482 18.1029 50.0462 17.3295 50.3309C16.556 50.6151 15.9647 51.2513 15.7382 52.0437L13.1563 61.0806C12.9632 61.7405 13.041 62.45 13.373 63.0522C13.7049 63.6544 14.2628 64.0994 14.9239 64.2884C15.585 64.4775 16.2944 64.3951 16.8943 64.0596C17.4943 63.7236 17.9358 63.1629 18.1208 62.5007L18.5617 60.9567C22.2099 67.9476 27.9541 73.6216 34.9889 77.1847C35.813 77.5991 36.7957 77.5421 37.5669 77.0355C38.3374 76.5289 38.78 75.6494 38.7264 74.7284C38.6734 73.8074 38.1328 72.985 37.3087 72.5706L37.3078 72.5698Z" fill="#EA9D3A"/>
</svg>
