<svg width="375" height="174" viewBox="0 0 375 174" fill="none" xmlns="http://www.w3.org/2000/svg">
<path d="M376 0H-1V174H376V0Z" fill="#EBEBEB"/>
<mask id="mask0_183_707" style="mask-type:alpha" maskUnits="userSpaceOnUse" x="-1" y="0" width="379" height="174">
<path d="M378 0H-1V174H378V0Z" fill="#EBEBEB"/>
</mask>
<g mask="url(#mask0_183_707)">
<path d="M252.873 -13.9739L251.281 -13.333L250.66 -13.0891L248.733 -13.1961L246.928 -12.318L243.726 -10.1204L243.589 -10.0214L242.391 -9.70874L241.283 -10.1899L240.655 -9.89961L240.442 -8.59349L239.843 -7.65518L239.108 -7.13653L236.553 -6.87699L234.399 -5.7554L231.6 -6.51044L230.295 -5.99936L227.526 -3.48949L226.115 -2.81747L225.622 -2.84823L223.748 -2.94725L222.952 -2.68012L221.769 -1.53537L219.531 -1.35967L218.833 -0.870929L217.741 1.34148L216.558 2.57007L215.882 2.71543L215.154 2.44031L214.6 2.53931L214.349 3.95836L213.81 4.54822L212.315 5.06688L211.117 6.0747L210.07 6.6161L208.659 6.57777H208.34L206.937 7.35596L204.305 7.59275L203.204 8.64608L202.961 8.8677L202.454 9.18033L201.619 9.68592L201.414 9.80768L200.398 9.62483L199.222 10.0976L198.744 9.35813L197.925 9.85361L196.848 9.89954L195.497 9.29662L194.466 8.83315L193.715 8.94733L193.457 10.2602L193.427 10.4051L192.637 11.4585L191.166 12.3593L190.961 12.6184L189.286 14.8009L186.1 18.1715L183.399 19.545L180.608 20.3999L178.65 22.0174L173.514 24.5736L165.421 28.6331L163.767 29.167L161.385 29.5487L157.152 31.1207L153.412 32.2503L153.2 32.3185L152.456 32.5397L147.184 34.15L144.734 33.8825L143.277 34.4167L139.492 33.9954L136.86 34.0489L135.198 34.3927L132.065 35.9032L126.787 38.4598L125.043 40.0609L122.32 41.4883L119.142 42.5025L119.149 41.1597L119.126 41.099L118.019 41.45L117.223 41.7099L114.644 42.1064H113.21L112.315 41.8469L112.179 41.8928L106.901 43.6401L101.014 44.2126L98.0707 45.1585L95.8703 45.1274L94.4977 45.5398L91.7973 45.8681L90.8339 45.6081L90.614 45.5478L82.679 45.8984L79.0528 45.4863L77.3233 45.8832L74.4181 44.8986L70.1929 44.4027L69.199 44.1056L66.9681 43.4416L65.967 44.0315L65.2084 44.1073L63.4111 43.4509L62.7664 43.4353L61.2795 43.9771L60.4225 43.7559L59.6266 43.1239L57.7681 42.8421L56.6305 41.8797L50.2804 42.7266L48.5589 42.224L42.7861 40.5294L41.8679 40.5753L40.7223 41.4378L39.0003 42.0698L37.5058 42.4591L35.473 42.5269L33.114 41.9012L30.6787 40.711L29.7756 40.4978L27.7651 40.7038L27.1506 40.7573L23.4645 38.7661L18.7083 35.7823L15.483 34.2175L14.2683 34.0194L14.1087 34.5992L14.7077 36.4994L14.913 38.3844L14.8522 40.1241L14.8145 41.1997L15.1178 42.1688L16.2856 43.4661L16.7715 44.7722L17.1204 48.3661V52.006L16.5512 57.8132L16.3505 58.6858L15.6749 61.7L15.0604 64.4622L12.6641 71.8186L12.0035 72.7262L10.3951 73.8406L6.73122 76.3429L4.03832 77.8984L3.18888 78.2574L1.00406 78.4259L-0.361038 78.3573L-2.06038 77.4337L-3.72202 76.9993L-5.90684 75.4193L-8.33626 74.9137L-10.9986 73.3649L-11.6889 72.5332L-13.1377 72.3958L-15.1483 71.7849L-15.8843 71.5637L-16.3923 71.4112L-18.9638 71.3425L-21.3534 70.2361L-22.6054 69.9311L-24.3278 69.8392L-26.1247 70.6861L-27.0429 71.1137L-28.196 70.6503L-29.0224 70.7034L-29.9703 72.1359L-30.0847 72.3575L-30.7369 72.7085L-31.549 72.6929L-32.1853 72.6786L-32.8681 72.9756L-33.7938 73.3801L-34.6055 73.7386L-35.0072 73.9147L-35.0152 73.9067L-35.2581 73.9527L-35.69 74.0289L-36.229 74.1359L-37.1849 73.5781L-37.6926 73.2731L-38.542 73.0978L-38.9969 73.4348L-39.0886 74.9988L-39.5075 75.9304L-40.8274 77.1126L-42.1782 78.3029L-43.111 79.6933L-45.5891 85.3913L-47.1439 87.688L-47.6298 88.2223L-49.2634 90.0306L-50.7043 91.1526L-54.0276 93.7468L-57.1749 94.929L-59.8833 95.4868H-61.1956L-63.6988 95.1582L-65.9368 94.4634L-68.4022 92.9146L-71.1023 90.7237L-75.017 86.839L-75.5707 86.502L-75.6847 86.4257L-76.9136 85.6319L-77.8318 85.6551L-78.1882 86.25L-78.3851 87.1121L-78.5526 87.8675L-79 92.1946L-78.9623 92.4474L-78.7265 94.2254L-75.7605 98.3991L-74.8427 100.62L-74.6907 100.873L-74.0766 101.91L-73.6134 102.697L-73.5677 102.781L-72.5511 105.826L-73.2632 107.55L-72.9067 108.703L-73.8023 109.405L-73.9698 110.404L-71.3079 113.769L-70.7211 115.249L-71.3733 117.31L-72.4049 118.439L-72.7007 118.752L-72.549 119.622L-71.328 120.728L-69.2416 122.598L-68.1258 125.376L-67.2839 126.124L-66.2983 125.909L-65.7537 126.331L-64.9269 126.316L-64.1076 127.14L-63.584 127.392L-62.7496 127.814L-62.0895 128.676L-61.9379 131.339L-60.7085 134.636L-60.6938 136.429L-60.6859 136.682L-59.9198 138.001L-59.6772 139.047L-60.0865 141.809L-59.108 142.694L-58.0537 142.48L-57.3634 142.587L-56.271 143.51L-54.9436 145.548L-53.6384 145.357L-52.812 145.754L-48.829 149.377L-47.9259 149.835L-47.8807 149.865L-47.2277 150.186L-46.4159 151.01L-45.1647 150.171L-45.0282 150.156L-43.6627 150.041L-43.0641 150.446L-41.9181 151.224L-40.4102 151.209L-37.1405 152.216L-35.7067 152.582L-32.8316 154.383L-31.6098 155.146L-30.8893 155.734L-29.9259 156.52L-28.0063 157.351L-26.3601 157.748L-25.465 157.962L-24.7902 158.221L-24.7743 158.183H-24.7592L-24.7822 158.221L-21.2093 159.595L-19.2825 160.052L-17.4919 160.716L-16.1934 161.189L-15.2379 161.205L-13.8871 160.06L-12.5744 159.984L-11.4895 160.259L-10.4281 160.084L-8.75262 159.039L-8.42633 158.55L-7.23589 157.985L-3.22232 157.48L-2.0545 157.861L0.957151 156.549L2.97482 157.114L4.75794 156.473L8.66429 157.343L9.69597 158.083L10.8566 159.41L11.0007 159.418L12.2904 159.441L11.7518 160.349L13.4507 162.143L14.9909 164.486L15.0968 164.798L16.2123 168.095L17.0467 169.27L17.631 170.902L17.6616 171.962L16.751 172.658L16.6064 173.054L16.5541 173.199L16.7355 173.65L17.0768 173.459L17.7294 173.1L18.5186 172.978L19.9142 173.123L20.8316 173.222L22.2888 172.498L23.2522 172.009L24.7999 172.68L26.4988 172.665L27.2188 172.985L29.2441 173.909L30.2762 174L30.6561 173.747L30.8986 173.166L30.7776 172.487L29.9959 171.594L28.2895 169.595L27.5908 168.573L27.0521 167.085L26.8926 165.193L26.7711 163.911L26.9839 162.226L27.4472 161.63L27.7822 160.294H27.7898L27.8735 159.943L28.8294 158.676L31.3426 157.051L34.0426 154.617L36.1747 153.198L38.3745 152.244L38.4349 151.97L38.6862 152.069L44.2776 150.154L44.3761 150.146L46.8641 149.711L63.6896 150.901L64.3112 150.711V150.703L64.8729 149.123L65.1762 148.833L65.3814 148.643L67.2244 147.819L68.0894 147.697L70.4941 148.291L71.4722 148.536L73.0509 147.651L74.1659 147.666L76.4722 146.4L77.8984 146.438L78.4367 146.217L81.2138 144.21L83.8916 143.439L84.5823 143.073L84.8336 142.935L87.5688 141.477L89.3134 140.134L90.8151 139.324L92.4616 138.897L96.7634 138.593L97.635 137.142L99.4864 136.899L100.601 135.624L101.884 135.105L102.802 133.77L103.575 132.656L104.645 132.03L108.089 131.816L112.17 132.328L112.709 131.99L113.634 128.686L114.597 128.06L117.199 124.253L117.207 122.862V121.702L117.632 120.047L117.344 117.063L117.685 114.049L119.301 110.211L120.725 108.661L123.024 107.097L124.192 106.586L125.838 106.311L126.09 106.265L126.508 106.197L132.205 106.121C132.281 106.06 134.268 106.09 134.268 106.09L136.173 106.066L140.975 106.921L141.316 106.982L142.939 107.509L144.806 108.974L146.793 110.92L147.165 111.286L148.447 111.828L148.834 112.003L149.895 111.828L151.405 111.042L152.544 110.073L154.099 109.218L154.137 109.165L155.009 107.838L155.04 107.814H155.055V107.807H155.04L155.388 107.28L158.393 106.105L161.92 105.899L162.314 105.686L162.534 105.571L163.468 104.465L164.347 104.457L166.464 105.228L167.943 104.93L169.126 105.403L170.044 105.297L171.774 105.091L173.64 106.411L174.717 106.548L178.54 108.792L178.738 108.823L178.844 108.846L179.057 108.884L179.511 108.746L180.187 108.548L180.278 108.525L180.362 108.64L180.794 109.257L181.393 109.341L182.099 108.396L181.819 107.968L181.713 107.815L180.347 107.534L179.118 105.427L180.286 104.16L178.458 101.909L178.154 101.527L178.048 101.375L177.42 100.406L174.218 95.4919L170.038 92.1427L168.582 90.9672L168.566 90.9596L168.058 90.5556L165.827 88.2741L164.236 86.1451L164.031 85.6867L163.705 84.9704L162.75 82.8794L161.088 81.5897L159.73 80.1024L159.661 80.0114L156.87 76.1882L156.41 75.5562L155.75 75.1678L154.361 75.1598L154.225 75.0224L154.141 74.9381L154.194 74.8922L154.862 74.221L155.605 74.0306L155.932 73.2979L154.508 69.155L154.5 69.0096L154.394 67.6824L155.554 61.6692L155.698 60.9369L157.678 56.8922L158.9 55.8852L160.235 53.2375L161.388 51.5522L162.48 50.4762L162.677 50.362L164.658 49.1565L166.319 48.9197L167.904 48.6986L170.673 49.553L173.305 49.5067L173.821 49.4451L175.012 49.3162L176.977 48.6905L177.909 48.1104L178.388 47.3701L179.389 43.9822L179.715 42.9065L180.329 41.739L183.918 37.5881L186.626 35.0702L192.71 30.5759L195.691 28.7903L197.216 27.8739L210.803 21.8L214.33 18.1989L216.173 16.3219L219.427 14.131L223.236 12.559L226.513 9.94967L227.225 9.04086L228.128 6.12652L228.879 5.94367L229.554 4.46354L229.751 4.04221L232.421 2.15001L232.725 1.99707L243.11 -3.23754L244.618 -3.03151L245.429 -4.25336L248.457 -4.75896L249.01 -4.85797L249.753 -5.23211L250.382 -6.31578V-6.52896L250.472 -9.43615L251.117 -10.2143L251.467 -12.1297L251.802 -12.5729L252.151 -13.0305L253 -13.6334L252.856 -14L252.873 -13.9739Z" fill="#CCCCCC"/>
</g>
</svg>
