<svg width="1920" height="206" viewBox="0 0 1920 206" fill="none" xmlns="http://www.w3.org/2000/svg">
<path d="M1920 0H0V206H1920V0Z" fill="#EBEBEB"/>
<mask id="mask0_3_2124" style="mask-type:alpha" maskUnits="userSpaceOnUse" x="0" y="0" width="1920" height="206">
<path d="M1920 0H0V206H1920V0Z" fill="#EBEBEB"/>
</mask>
<g mask="url(#mask0_3_2124)">
<path d="M895.333 -150.583L891.533 -149.062L890.049 -148.483L885.449 -148.737L881.139 -146.653L873.495 -141.437L873.169 -141.202L870.308 -140.46L867.663 -141.602L866.163 -140.913L865.656 -137.813L864.226 -135.586L862.471 -134.355L856.371 -133.739L851.228 -131.077L844.545 -132.869L841.43 -131.656L834.82 -125.699L831.45 -124.104L830.275 -124.177L825.8 -124.412L823.9 -123.778L821.075 -121.061L815.733 -120.644L814.066 -119.484L811.459 -114.233L808.634 -111.317L807.021 -110.972L805.283 -111.625L803.96 -111.39L803.36 -108.022L802.073 -106.622L798.506 -105.391L795.645 -102.999L793.145 -101.714L789.777 -101.805H789.016L785.665 -99.958L779.381 -99.396L776.754 -96.896L776.174 -96.37L774.963 -95.628L772.97 -94.428L772.481 -94.139L770.054 -94.573L767.248 -93.451L766.106 -95.206L764.151 -94.03L761.579 -93.921L758.354 -95.352L755.893 -96.452L754.099 -96.181L753.483 -93.065L753.411 -92.721L751.527 -90.221L748.014 -88.083L747.525 -87.468L743.525 -82.288L735.919 -74.288L729.471 -71.028L722.808 -68.999L718.134 -65.16L705.873 -59.093L686.55 -49.458L682.601 -48.191L676.915 -47.285L666.809 -43.554L657.881 -40.873L657.374 -40.711L655.599 -40.186L643.012 -36.364L637.163 -36.999L633.684 -35.731L624.647 -36.731L618.364 -36.604L614.396 -35.788L606.917 -32.203L594.317 -26.135L590.152 -22.335L583.652 -18.947L576.065 -16.54L576.082 -19.727L576.027 -19.871L573.383 -19.038L571.483 -18.421L565.327 -17.48H561.903L559.766 -18.096L559.44 -17.987L546.84 -13.84L532.785 -12.481L525.759 -10.236L520.506 -10.31L517.229 -9.33099L510.782 -8.552L508.482 -9.16901L507.957 -9.31201L489.013 -8.47998L480.356 -9.45801L476.227 -8.51599L469.291 -10.853L459.204 -12.03L456.831 -12.735L451.505 -14.311L449.115 -12.911L447.304 -12.731L443.013 -14.289L441.474 -14.326L437.924 -13.04L435.878 -13.565L433.978 -15.065L429.541 -15.734L426.825 -18.018L411.665 -16.008L407.555 -17.201L393.773 -21.223L391.581 -21.114L388.846 -19.067L384.735 -17.567L381.167 -16.643L376.314 -16.482L370.682 -17.967L364.868 -20.792L362.712 -21.298L357.912 -20.809L356.445 -20.682L347.645 -25.408L336.29 -32.49L328.59 -36.204L325.69 -36.674L325.309 -35.298L326.739 -30.788L327.229 -26.314L327.084 -22.185L326.994 -19.632L327.718 -17.332L330.506 -14.253L331.666 -11.153L332.499 -2.62299V6.01599L331.14 19.799L330.661 21.87L329.048 29.024L327.581 35.58L321.86 53.04L320.283 55.194L316.443 57.839L307.696 63.778L301.267 67.47L299.239 68.322L294.023 68.722L290.764 68.559L286.707 66.367L282.74 65.336L277.524 61.586L271.724 60.386L265.368 56.71L263.72 54.736L260.261 54.41L255.461 52.96L253.704 52.435L252.491 52.073L246.352 51.91L240.647 49.284L237.658 48.56L233.546 48.342L229.256 50.352L227.064 51.367L224.311 50.267L222.338 50.393L220.075 53.793L219.802 54.319L218.245 55.152L216.306 55.115L214.787 55.081L213.157 55.786L210.947 56.746L209.009 57.597L208.05 58.015L208.031 57.996L207.451 58.105L206.42 58.286L205.133 58.54L202.851 57.216L201.639 56.492L199.611 56.076L198.525 56.876L198.306 60.588L197.306 62.799L194.155 65.605L190.93 68.43L188.703 71.73L182.787 85.254L179.075 90.705L177.915 91.973L174.015 96.265L170.575 98.928L162.641 105.085L155.127 107.891L148.661 109.215H145.528L139.552 108.435L134.209 106.786L128.323 103.11L121.877 97.91L112.531 88.69L111.209 87.89L110.937 87.709L108.003 85.825L105.811 85.88L104.96 87.292L104.49 89.338L104.09 91.131L103.022 101.401L103.112 102.001L103.675 106.221L110.756 116.127L112.947 121.398L113.31 121.998L114.776 124.461L115.882 126.327L115.991 126.527L118.418 133.754L116.718 137.846L117.569 140.582L115.431 142.248L115.031 144.62L121.386 152.607L122.787 156.12L121.23 161.01L118.767 163.69L118.061 164.434L118.423 166.499L121.338 169.124L126.319 173.561L128.983 180.154L130.993 181.93L133.346 181.421L134.646 182.421L136.62 182.385L138.576 184.341L139.826 184.941L141.818 185.941L143.394 187.987L143.756 194.308L146.691 202.133L146.726 206.389L146.745 206.989L148.574 210.12L149.153 212.602L148.176 219.158L150.512 221.258L153.029 220.75L154.677 221.004L157.285 223.196L160.454 228.031L163.57 227.579L165.543 228.52L175.052 237.12L177.208 238.207L177.316 238.279L178.875 239.039L180.813 240.996L183.8 239.004L184.126 238.968L187.386 238.696L188.815 239.656L191.551 241.503L195.151 241.468L202.957 243.858L206.38 244.727L213.244 249.002L216.161 250.813L217.881 252.207L220.181 254.073L224.764 256.046L228.694 256.988L230.831 257.495L232.442 258.111L232.48 258.02H232.516L232.461 258.111L240.991 261.371L245.591 262.457L249.866 264.033L252.966 265.156L255.247 265.192L258.472 262.476L261.606 262.295L264.196 262.947L266.73 262.532L270.73 260.051L271.509 258.891L274.351 257.551L283.933 256.351L286.721 257.257L293.911 254.142L298.728 255.482L302.985 253.962L312.311 256.026L314.774 257.782L317.545 260.933L317.889 260.952L320.968 261.007L319.682 263.162L323.738 267.418L327.415 272.979L327.668 273.72L330.331 281.545L332.323 284.334L333.718 288.209L333.791 290.725L331.617 292.375L331.272 293.315L331.147 293.66L331.58 294.73L332.395 294.276L333.953 293.425L335.837 293.135L339.169 293.48L341.359 293.715L344.838 291.995L347.138 290.835L350.833 292.428L354.889 292.393L356.608 293.153L361.443 295.345L363.907 295.561L364.814 294.961L365.393 293.582L365.104 291.971L363.238 289.851L359.164 285.107L357.496 282.68L356.21 279.149L355.829 274.657L355.539 271.615L356.047 267.615L357.153 266.201L357.953 263.031H357.971L358.171 262.198L360.453 259.191L366.453 255.334L372.899 249.556L377.989 246.188L383.241 243.924L383.385 243.273L383.985 243.508L397.334 238.963L397.569 238.944L403.509 237.913L443.678 240.738L445.162 240.285V240.267L446.503 236.518L447.227 235.829L447.717 235.378L452.117 233.421L454.182 233.132L459.923 234.543L462.258 235.123L466.027 233.023L468.689 233.059L474.195 230.054L477.6 230.144L478.885 229.619L485.515 224.856L491.908 223.026L493.557 222.157L494.157 221.831L500.687 218.37L504.852 215.182L508.437 213.26L512.368 212.247L522.638 211.524L524.719 208.082L529.139 207.503L531.8 204.478L534.862 203.247L537.054 200.078L538.9 197.433L541.455 195.948L549.676 195.441L559.42 196.654L560.706 195.854L562.915 188.011L565.215 186.526L571.426 177.489L571.445 174.189V171.436L572.459 167.506L571.771 160.425L572.586 153.271L576.444 144.161L579.844 140.484L585.333 136.771L588.121 135.559L592.051 134.905L592.651 134.796L593.651 134.635L607.251 134.454C607.433 134.31 612.177 134.38 612.177 134.38L616.724 134.325L628.188 136.354L629.003 136.499L632.878 137.749L637.334 141.225L642.079 145.844L642.966 146.714L646.027 148L646.95 148.415L649.485 148L653.09 146.134L655.807 143.834L659.52 141.805L659.611 141.68L661.693 138.529L661.766 138.473H661.802V138.455H661.766L662.599 137.205L669.771 134.416L678.192 133.928L679.133 133.421L679.658 133.15L681.887 130.524L683.987 130.505L689.04 132.335L692.572 131.628L695.397 132.751L697.588 132.498L701.718 132.01L706.173 135.142L708.744 135.469L717.872 140.794L718.344 140.867L718.597 140.921L719.104 141.012L720.19 140.685L721.802 140.215L722.02 140.16L722.22 140.432L723.251 141.898L724.683 142.098L726.367 139.853L725.698 138.839L725.445 138.476L722.185 137.807L719.25 132.807L722.04 129.8L717.674 124.458L716.95 123.552L716.696 123.191L715.196 120.891L707.552 109.227L697.573 101.278L694.096 98.488L694.06 98.47L692.846 97.511L687.521 92.096L683.721 87.043L683.233 85.955L682.453 84.255L680.173 79.292L676.207 76.231L672.963 72.701L672.8 72.485L666.137 63.411L665.037 61.911L663.461 60.989L660.147 60.97L659.821 60.644L659.621 60.444L659.748 60.335L661.342 58.742L663.116 58.29L663.896 56.551L660.496 46.718L660.477 46.373L660.224 43.223L662.995 28.951L663.339 27.213L668.066 17.613L670.982 15.223L674.169 8.93896L676.922 4.93896L679.529 2.38501L680 2.11401L684.728 -0.747009L688.694 -1.30902L692.478 -1.83398L699.089 0.19397L705.374 0.0839844L706.605 -0.0620117L709.449 -0.367981L714.139 -1.85303L716.365 -3.22998L717.507 -4.987L719.898 -13.028L720.676 -15.581L722.143 -18.352L730.71 -28.204L737.175 -34.18L751.7 -44.847L758.817 -49.085L762.458 -51.26L794.895 -65.676L803.316 -74.223L807.716 -78.678L815.485 -83.878L824.577 -87.609L832.401 -93.802L834.101 -95.959L836.256 -102.876L838.05 -103.31L839.662 -106.823L840.132 -107.823L846.506 -112.314L847.231 -112.677L872.024 -125.101L875.624 -124.612L877.562 -127.512L884.789 -128.712L886.11 -128.947L887.885 -129.835L889.385 -132.407V-132.913L889.601 -139.813L891.141 -141.66L891.975 -146.206L892.775 -147.258L893.609 -148.344L895.636 -149.775L895.292 -150.645L895.333 -150.583Z" fill="#CCCCCC"/>
</g>
</svg>
