<svg width="1920" height="1262" viewBox="0 0 1920 1262" fill="none" xmlns="http://www.w3.org/2000/svg">
<mask id="mask0_95_115" style="mask-type:alpha" maskUnits="userSpaceOnUse" x="-297" y="0" width="2369" height="1262">
<path d="M2072 0H-297V1261.61H2072V0Z" fill="#EBEBEB"/>
</mask>
<g mask="url(#mask0_95_115)">
<path d="M1966.65 65.8924L1957.05 69.7379L1953.29 71.2018L1941.66 70.5596L1930.77 75.8285L1911.44 89.016L1910.62 89.6102L1903.38 91.4862L1896.7 88.5989L1892.9 90.3409L1891.62 98.1785L1888.01 103.809L1883.57 106.921L1868.15 108.479L1855.14 115.209L1838.25 110.678L1830.37 113.745L1813.66 128.806L1805.14 132.839L1802.17 132.654L1790.86 132.06L1786.05 133.663L1778.91 140.532L1765.4 141.587L1761.19 144.519L1754.6 157.795L1747.45 165.168L1743.38 166.04L1738.98 164.389L1735.64 164.983L1734.12 173.499L1730.87 177.038L1721.85 180.151L1714.61 186.198L1708.29 189.447L1699.78 189.217H1697.85L1689.38 193.887L1673.49 195.308L1666.85 201.628L1665.39 202.958L1662.32 204.834L1657.29 207.868L1656.05 208.599L1649.91 207.501L1642.82 210.338L1639.93 205.901L1634.99 208.874L1628.49 209.15L1620.33 205.532L1614.11 202.751L1609.57 203.436L1608.02 211.314L1607.84 212.184L1603.07 218.505L1594.19 223.91L1592.95 225.465L1582.84 238.561L1563.61 258.788L1547.31 267.03L1530.46 272.16L1518.65 281.866L1487.65 297.205L1438.79 321.565L1428.81 324.768L1414.43 327.059L1388.88 336.492L1366.31 343.27L1365.03 343.68L1360.54 345.007L1328.72 354.67L1313.93 353.065L1305.13 356.271L1282.28 353.742L1266.4 354.063L1256.37 356.126L1237.46 365.19L1205.6 380.532L1195.07 390.139L1178.64 398.705L1159.45 404.791L1159.5 396.733L1159.36 396.369L1152.67 398.475L1147.87 400.035L1132.31 402.414H1123.65L1118.25 400.857L1117.42 401.132L1085.57 411.617L1050.03 415.053L1032.27 420.729L1018.99 420.542L1010.7 423.017L994.401 424.987L988.586 423.427L987.258 423.065L939.363 425.169L917.475 422.696L907.036 425.078L889.5 419.169L863.997 416.193L857.998 414.411L844.532 410.426L838.489 413.966L833.911 414.421L823.062 410.482L819.171 410.389L810.195 413.64L805.023 412.313L800.219 408.52L789.001 406.829L782.134 401.054L743.805 406.136L733.414 403.12L698.569 392.951L693.027 393.226L686.112 398.402L675.719 402.194L666.698 404.53L654.428 404.938L640.189 401.183L625.489 394.041L620.038 392.761L607.903 393.998L604.194 394.319L581.945 382.37L553.236 364.465L533.768 355.075L526.436 353.886L525.473 357.365L529.088 368.768L530.327 380.079L529.961 390.519L529.733 396.973L531.564 402.788L538.612 410.573L541.545 418.411L543.651 439.977V461.819L540.215 496.666L539.004 501.902L534.926 519.989L531.217 536.565L516.753 580.709L512.766 586.155L503.057 592.842L480.942 607.857L464.688 617.192L459.561 619.346L446.373 620.357L438.133 619.945L427.876 614.403L417.847 611.797L404.659 602.315L389.995 599.281L373.925 589.988L369.759 584.997L361.013 584.172L348.878 580.507L344.435 579.179L341.368 578.264L325.847 577.852L311.424 571.213L303.867 569.382L293.47 568.831L282.624 573.913L277.082 576.479L270.122 573.698L265.133 574.016L259.412 582.612L258.722 583.942L254.785 586.048L249.883 585.955L246.042 585.869L241.921 587.651L236.334 590.078L231.434 592.23L229.009 593.287L228.961 593.239L227.495 593.514L224.888 593.972L221.634 594.614L215.865 591.267L212.8 589.436L207.673 588.385L204.927 590.407L204.374 599.792L201.845 605.382L193.879 612.477L185.725 619.619L180.094 627.962L165.137 662.155L155.752 675.937L152.819 679.142L142.959 689.994L134.262 696.726L114.202 712.293L95.2049 719.388L78.857 722.735H70.9359L55.827 720.763L42.3183 716.594L27.4369 707.3L11.1395 694.153L-12.4898 670.842L-15.8322 668.819L-16.5199 668.362L-23.9378 663.599L-29.4799 663.738L-31.6314 667.307L-32.8197 672.48L-33.831 677.013L-36.5312 702.979L-36.3036 704.496L-34.8802 715.165L-16.9775 740.211L-11.438 753.537L-10.5202 755.054L-6.81376 761.281L-4.01751 765.999L-3.7419 766.505L2.39424 784.776L-1.90387 795.122L0.247733 802.04L-5.15773 806.252L-6.16911 812.249L9.89815 832.442L13.4403 841.324L9.50372 853.687L3.27661 860.463L1.49158 862.344L2.40682 867.565L9.77678 874.202L22.3702 885.42L29.1055 902.089L34.1873 906.579L40.1364 905.292L43.4232 907.82L48.414 907.729L53.3593 912.675L56.5197 914.192L61.556 916.72L65.5406 921.893L66.4558 937.874L73.8763 957.658L73.9648 968.418L74.0129 969.935L78.637 977.851L80.1009 984.126L77.6308 1000.7L83.5369 1006.01L89.9006 1004.73L94.0672 1005.37L100.661 1010.91L108.673 1023.14L116.551 1021.99L121.54 1024.37L145.581 1046.11L151.032 1048.86L151.305 1049.05L155.247 1050.97L160.146 1055.91L167.698 1050.88L168.523 1050.79L176.765 1050.1L180.378 1052.53L187.295 1057.2L196.397 1057.11L216.133 1063.15L224.787 1065.35L242.141 1076.16L249.516 1080.73L253.865 1084.26L259.68 1088.98L271.267 1093.97L281.203 1096.35L286.606 1097.63L290.679 1099.19L290.775 1098.96H290.866L290.727 1099.19L312.293 1107.43L323.923 1110.17L334.732 1114.16L342.569 1117L348.337 1117.09L356.49 1110.22L364.414 1109.76L370.962 1111.41L377.369 1110.36L387.482 1104.09L389.451 1101.16L396.637 1097.77L420.863 1094.74L427.912 1097.03L446.09 1089.15L458.269 1092.54L469.032 1088.7L492.61 1093.91L498.837 1098.35L505.843 1106.32L506.713 1106.37L514.498 1106.51L511.246 1111.96L521.501 1122.72L530.797 1136.78L531.437 1138.65L538.17 1158.43L543.206 1165.49L546.733 1175.28L546.918 1181.64L541.421 1185.82L540.549 1188.19L540.233 1189.06L541.328 1191.77L543.388 1190.62L547.327 1188.47L552.091 1187.74L560.515 1188.61L566.052 1189.2L574.848 1184.85L580.663 1181.92L590.005 1185.95L600.259 1185.86L604.606 1187.78L616.83 1193.32L623.06 1193.87L625.353 1192.35L626.817 1188.87L626.086 1184.79L621.368 1179.43L611.068 1167.44L606.851 1161.3L603.599 1152.38L602.636 1141.02L601.903 1133.33L603.187 1123.21L605.984 1119.64L608.006 1111.63H608.052L608.557 1109.52L614.327 1101.92L629.497 1092.16L645.794 1077.56L658.663 1069.04L671.941 1063.32L672.305 1061.67L673.822 1062.27L707.572 1050.77L708.167 1050.73L723.185 1048.12L824.743 1055.26L828.495 1054.12V1054.07L831.886 1044.59L833.716 1042.85L834.955 1041.71L846.079 1036.76L851.3 1036.03L865.815 1039.6L871.719 1041.07L881.248 1035.76L887.978 1035.85L901.899 1028.25L910.507 1028.48L913.756 1027.15L930.519 1015.11L946.682 1010.48L950.851 1008.28L952.368 1007.46L968.878 998.71L979.408 990.649L988.472 985.79L998.411 983.229L1024.38 981.401L1029.64 972.699L1040.81 971.235L1047.54 963.587L1055.28 960.474L1060.82 952.462L1065.49 945.775L1071.95 942.02L1092.74 940.739L1117.37 943.805L1120.62 941.783L1126.21 921.953L1132.02 918.199L1147.73 895.351L1147.77 887.007V880.047L1150.34 870.111L1148.6 852.208L1150.66 834.121L1160.41 811.088L1169.01 801.792L1182.89 792.404L1189.94 789.34L1199.87 787.686L1201.39 787.411L1203.92 787.004L1238.3 786.546C1238.76 786.182 1250.76 786.359 1250.76 786.359L1262.25 786.22L1291.24 791.35L1293.3 791.717L1303.09 794.877L1314.36 803.665L1326.36 815.343L1328.6 817.543L1336.34 820.794L1338.67 821.844L1345.08 820.794L1354.2 816.077L1361.07 810.262L1370.45 805.132L1370.68 804.816L1375.95 796.849L1376.13 796.708H1376.22V796.662H1376.13L1378.24 793.502L1396.37 786.45L1417.66 785.216L1420.04 783.935L1421.37 783.249L1427 776.61L1432.31 776.562L1445.09 781.189L1454.02 779.401L1461.16 782.241L1466.7 781.601L1477.14 780.367L1488.4 788.286L1494.9 789.112L1517.98 802.576L1519.18 802.76L1519.82 802.897L1521.1 803.127L1523.84 802.3L1527.92 801.112L1528.47 800.973L1528.98 801.66L1531.58 805.367L1535.2 805.873L1539.46 800.196L1537.77 797.633L1537.13 796.715L1528.89 795.024L1521.47 782.382L1528.52 774.78L1517.48 761.274L1515.65 758.983L1515.01 758.07L1511.22 752.255L1491.89 722.765L1466.66 702.668L1457.87 695.614L1457.78 695.569L1454.71 693.144L1441.25 679.453L1431.64 666.678L1430.41 663.927L1428.43 659.629L1422.67 647.081L1412.64 639.342L1404.44 630.417L1404.03 629.871L1387.18 606.93L1384.4 603.137L1380.42 600.806L1372.04 600.758L1371.21 599.934L1370.71 599.428L1371.03 599.153L1375.06 595.125L1379.54 593.982L1381.52 589.586L1372.92 564.725L1372.87 563.853L1372.23 555.889L1379.24 519.805L1380.11 515.411L1392.06 491.139L1399.43 485.097L1407.49 469.209L1414.45 459.096L1421.04 452.639L1422.23 451.953L1434.19 444.72L1444.21 443.299L1453.78 441.972L1470.49 447.099L1486.38 446.821L1489.5 446.452L1496.69 445.678L1508.54 441.924L1514.17 438.442L1517.06 434L1523.11 413.67L1525.07 407.216L1528.78 400.21L1550.44 375.301L1566.79 360.192L1603.51 333.223L1621.5 322.508L1630.71 317.009L1712.72 280.561L1734.01 258.952L1745.13 247.688L1764.78 234.541L1787.76 225.108L1807.54 209.451L1811.84 203.997L1817.29 186.509L1821.83 185.412L1825.9 176.53L1827.09 174.002L1843.21 162.647L1845.04 161.729L1907.72 130.318L1916.82 131.554L1921.72 124.222L1940 121.188L1943.34 120.594L1947.82 118.349L1951.62 111.846V110.567L1952.16 93.1219L1956.06 88.4522L1958.16 76.9587L1960.19 74.2989L1962.3 71.5532L1967.42 67.9353L1966.55 65.7356L1966.65 65.8924Z" fill="#F7F6F6" fill-opacity="0.8"/>
</g>
</svg>
