<svg width="765" height="481" viewBox="0 0 765 481" fill="none" xmlns="http://www.w3.org/2000/svg">
<mask id="mask0_4_2324" style="mask-type:alpha" maskUnits="userSpaceOnUse" x="-137" y="0" width="902" height="481">
<path d="M764.565 0H-137V480.129H764.565V0Z" fill="#EBEBEB"/>
</mask>
<g mask="url(#mask0_4_2324)">
<path d="M724.474 25.0764L720.818 26.5399L719.39 27.097L714.964 26.8526L710.817 28.8578L703.462 33.8765L703.148 34.1027L700.395 34.8166L697.85 33.7178L696.407 34.3807L695.919 37.3635L694.543 39.5063L692.855 40.6907L686.985 41.2834L682.037 43.8448L675.607 42.1205L672.609 43.2877L666.249 49.0194L663.007 50.5541L661.876 50.4838L657.57 50.2577L655.742 50.8677L653.024 53.482L647.884 53.8832L646.28 54.9993L643.772 60.0518L641.054 62.8575L639.502 63.1894L637.829 62.5611L636.556 62.7872L635.979 66.0279L634.741 67.3749L631.309 68.5594L628.556 70.8609L626.15 72.0973L622.91 72.0098H622.177L618.953 73.7869L612.907 74.3277L610.379 76.7331L609.821 77.2392L608.656 77.9532L606.738 79.1078L606.268 79.3859L603.933 78.9683L601.233 80.0478L600.134 78.3592L598.253 79.4907L595.778 79.5956L592.675 78.2187L590.307 77.1603L588.581 77.4211L587.988 80.4192L587.919 80.7502L586.106 83.1557L582.726 85.2128L582.256 85.8046L578.407 90.7887L571.089 98.4862L564.884 101.623L558.473 103.575L553.976 107.269L542.179 113.106L523.586 122.377L519.787 123.596L514.316 124.468L504.592 128.058L496.002 130.637L495.514 130.793L493.806 131.298L481.695 134.976L476.067 134.365L472.72 135.585L464.024 134.623L457.979 134.745L454.161 135.53L446.965 138.98L434.842 144.818L430.834 148.474L424.58 151.734L417.28 154.05L417.296 150.984L417.243 150.845L414.699 151.647L412.871 152.24L406.948 153.146H403.653L401.597 152.553L401.283 152.658L389.16 156.648L375.636 157.956L368.876 160.116L363.822 160.045L360.669 160.987L354.466 161.736L352.253 161.143L351.747 161.005L333.52 161.805L325.19 160.864L321.217 161.771L314.544 159.522L304.838 158.39L302.555 157.711L297.43 156.195L295.131 157.542L293.388 157.715L289.259 156.216L287.779 156.181L284.363 157.418L282.394 156.913L280.566 155.469L276.297 154.826L273.684 152.628L259.097 154.562L255.142 153.414L241.882 149.544L239.772 149.649L237.141 151.619L233.185 153.062L229.752 153.951L225.083 154.106L219.664 152.677L214.07 149.959L211.995 149.472L207.377 149.943L205.965 150.065L197.498 145.518L186.572 138.703L179.164 135.13L176.373 134.678L176.007 136.002L177.383 140.341L177.854 144.646L177.715 148.619L177.628 151.075L178.325 153.288L181.007 156.251L182.123 159.234L182.925 167.441V175.753L181.617 189.015L181.156 191.008L179.604 197.891L178.193 204.199L172.688 220.999L171.171 223.071L167.476 225.616L159.06 231.331L152.874 234.883L150.923 235.703L145.904 236.088L142.768 235.931L138.864 233.822L135.048 232.83L130.029 229.222L124.448 228.067L118.332 224.53L116.747 222.631L113.419 222.317L108.8 220.922L107.11 220.417L105.942 220.069L100.036 219.912L94.5464 217.385L91.6704 216.688L87.7139 216.479L83.5861 218.413L81.4771 219.389L78.8281 218.331L76.9298 218.452L74.7523 221.723L74.4897 222.23L72.9916 223.031L71.1259 222.995L69.6643 222.963L68.096 223.641L65.9696 224.565L64.1048 225.384L63.1821 225.786L63.1638 225.767L62.6058 225.872L61.6137 226.047L60.3754 226.291L58.1797 225.017L57.0135 224.32L55.0622 223.92L54.0173 224.69L53.8066 228.262L52.8444 230.389L49.8126 233.089L46.7095 235.807L44.5667 238.982L38.8745 251.995L35.3029 257.24L34.1867 258.46L30.4342 262.589L27.1243 265.152L19.4904 271.076L12.2605 273.776L6.03904 275.05H3.02452L-2.72546 274.299L-7.86642 272.712L-13.5298 269.175L-19.7321 264.172L-28.7246 255.301L-29.9966 254.531L-30.2583 254.357L-33.0814 252.544L-35.1905 252.597L-36.0093 253.956L-36.4615 255.924L-36.8464 257.649L-37.874 267.531L-37.7874 268.108L-37.2457 272.169L-30.4325 281.7L-28.3243 286.772L-27.9751 287.349L-26.5645 289.719L-25.5003 291.514L-25.3955 291.707L-23.0602 298.661L-24.696 302.598L-23.8771 305.23L-25.9343 306.833L-26.3192 309.116L-20.2045 316.801L-18.8565 320.181L-20.3546 324.886L-22.7244 327.464L-23.4038 328.18L-23.0554 330.167L-20.2507 332.693L-15.458 336.962L-12.8948 343.306L-10.9608 345.015L-8.69679 344.525L-7.44594 345.487L-5.54659 345.452L-3.66457 347.335L-2.46184 347.912L-0.54517 348.874L0.971222 350.843L1.31953 356.925L4.14354 364.454L4.17722 368.549L4.19551 369.126L5.95532 372.139L6.51243 374.527L5.57239 380.835L7.82005 382.855L10.2419 382.367L11.8275 382.611L14.3369 384.72L17.3861 389.372L20.3842 388.937L22.2826 389.843L31.432 398.118L33.5065 399.163L33.6104 399.233L35.1104 399.964L36.9751 401.847L39.8492 399.93L40.1628 399.896L43.2996 399.634L44.6745 400.558L47.3071 402.335L50.7709 402.301L58.2817 404.601L61.5752 405.437L68.1797 409.55L70.9864 411.293L72.6413 412.634L74.8544 414.429L79.264 416.328L83.0454 417.234L85.1016 417.722L86.6517 418.315L86.6882 418.227H86.7229L86.67 418.315L94.8774 421.451L99.3034 422.496L103.417 424.013L106.4 425.093L108.594 425.128L111.697 422.515L114.713 422.34L117.205 422.968L119.643 422.568L123.492 420.181L124.241 419.065L126.976 417.776L136.195 416.621L138.878 417.493L145.796 414.496L150.431 415.785L154.527 414.323L163.5 416.309L165.87 417.998L168.536 421.03L168.867 421.048L171.83 421.101L170.592 423.175L174.495 427.27L178.033 432.62L178.276 433.333L180.839 440.862L182.755 443.546L184.098 447.274L184.168 449.695L182.076 451.283L181.744 452.187L181.624 452.519L182.041 453.549L182.825 453.112L184.324 452.293L186.137 452.014L189.343 452.346L191.45 452.572L194.797 450.917L197.01 449.801L200.565 451.334L204.468 451.3L206.122 452.032L210.774 454.141L213.145 454.348L214.018 453.771L214.575 452.444L214.297 450.894L212.501 448.854L208.581 444.29L206.976 441.955L205.739 438.557L205.372 434.235L205.093 431.308L205.582 427.459L206.646 426.099L207.416 423.049H207.434L207.626 422.247L209.822 419.354L215.595 415.643L221.797 410.083L226.694 406.843L231.748 404.664L231.886 404.038L232.464 404.264L245.308 399.891L245.534 399.873L251.249 398.881L289.899 401.599L291.327 401.163V401.145L292.617 397.538L293.314 396.875L293.786 396.441L298.019 394.558L300.006 394.28L305.53 395.638L307.777 396.196L311.403 394.175L313.964 394.21L319.262 391.319L322.538 391.405L323.775 390.9L330.154 386.317L336.305 384.557L337.892 383.72L338.469 383.407L344.752 380.077L348.76 377.009L352.209 375.16L355.992 374.185L365.873 373.489L367.876 370.178L372.128 369.621L374.689 366.71L377.635 365.526L379.744 362.476L381.52 359.931L383.979 358.503L391.889 358.015L401.264 359.182L402.502 358.412L404.627 350.866L406.84 349.437L412.816 340.742L412.834 337.566V334.917L413.81 331.136L413.148 324.323L413.932 317.439L417.644 308.674L420.916 305.136L426.197 301.563L428.88 300.397L432.661 299.768L433.238 299.663L434.201 299.508L447.286 299.334C447.461 299.195 452.026 299.263 452.026 299.263L456.401 299.21L467.432 301.162L468.216 301.302L471.944 302.504L476.232 305.849L480.797 310.293L481.651 311.13L484.596 312.368L485.484 312.767L487.923 312.368L491.392 310.572L494.006 308.359L497.579 306.407L497.666 306.287L499.669 303.255L499.74 303.201H499.774V303.184H499.74L500.541 301.981L507.442 299.298L515.545 298.828L516.45 298.34L516.955 298.079L519.1 295.553L521.12 295.534L525.982 297.295L529.381 296.615L532.099 297.695L534.207 297.452L538.181 296.983L542.467 299.996L544.941 300.311L553.724 305.434L554.178 305.505L554.422 305.557L554.909 305.644L555.954 305.329L557.505 304.877L557.715 304.824L557.908 305.086L558.9 306.497L560.277 306.689L561.898 304.529L561.254 303.553L561.011 303.204L557.874 302.56L555.05 297.749L557.734 294.856L553.533 289.716L552.837 288.844L552.592 288.497L551.149 286.284L543.794 275.061L534.193 267.413L530.847 264.728L530.812 264.711L529.644 263.788L524.521 258.578L520.865 253.716L520.395 252.669L519.644 251.033L517.451 246.258L513.635 243.313L510.513 239.916L510.356 239.709L503.945 230.978L502.887 229.534L501.371 228.647L498.182 228.629L497.868 228.315L497.676 228.123L497.798 228.018L499.332 226.485L501.039 226.05L501.789 224.377L498.518 214.916L498.5 214.584L498.256 211.553L500.922 197.821L501.253 196.149L505.801 186.912L508.607 184.612L511.674 178.566L514.323 174.717L516.831 172.26L517.284 171.999L521.833 169.246L525.649 168.705L529.29 168.2L535.651 170.151L541.699 170.046L542.883 169.905L545.619 169.611L550.132 168.182L552.274 166.857L553.373 165.166L555.673 157.429L556.422 154.973L557.833 152.307L566.076 142.827L572.297 137.077L586.273 126.814L593.121 122.736L596.624 120.643L627.834 106.772L635.937 98.5487L640.17 94.2622L647.645 89.2588L656.394 85.6689L663.922 79.7101L665.557 77.6347L667.631 70.9793L669.357 70.5617L670.908 67.1815L671.36 66.2194L677.493 61.8982L678.191 61.5489L702.046 49.5948L705.51 50.0653L707.375 47.275L714.329 46.1203L715.6 45.8942L717.307 45.0398L718.751 42.565V42.0782L718.959 35.4391L720.44 33.662L721.243 29.2879L722.013 28.2757L722.815 27.2308L724.765 25.8539L724.434 25.0168L724.474 25.0764Z" fill="#F7F6F6" fill-opacity="0.8"/>
</g>
<path d="M191 239V219.722L207.192 209.821V239H191Z" fill="#EA9D3A"/>
<path d="M220.561 186V197.124L220.503 217.742L220.445 239H218.544V216.519L216.239 215.179L216.181 239H214.222V214.014L211.571 212.442L211.514 239H209.612V211.277L207.192 209.821V194.212L220.561 186Z" fill="#EA9D3A"/>
<path d="M239 197.124L238.827 239H236.926V195.843L239 197.124Z" fill="#EA9D3A"/>
<path d="M234.275 194.212L234.217 239H232.258V192.931L234.275 194.212Z" fill="#A67154"/>
<path d="M229.665 191.3L229.55 239H227.648V190.019L229.665 191.3Z" fill="#EA9D3A"/>
<path d="M225.574 188.737L225.459 239H223.557V187.456L225.574 188.737Z" fill="#EA9D3A"/>
</svg>
