<svg width="23" height="23" viewBox="0 0 23 23" fill="none" xmlns="http://www.w3.org/2000/svg">
<path d="M3.71688 13.5427V14.4594C3.71688 16.2102 4.69771 17.7319 6.14604 18.5019L5.55021 20.8761H7.38354L7.84188 19.0427H16.0919L16.5502 20.8761H18.3835L17.7877 18.5019C18.5218 18.1125 19.1358 17.5304 19.5639 16.8181C19.9919 16.1058 20.2176 15.2904 20.2169 14.4594V13.5427H21.1335V11.7094H4.63354V5.29272C4.63354 5.04961 4.73012 4.81645 4.90203 4.64454C5.07394 4.47264 5.3071 4.37606 5.55021 4.37606C6.00854 4.37606 6.35688 4.68772 6.46688 5.10022C5.88938 5.59522 5.55021 6.32856 5.55021 7.12606H11.0502C11.0502 6.39671 10.7605 5.69724 10.2448 5.18151C9.72903 4.66579 9.02956 4.37606 8.30021 4.37606H8.14438C7.76854 3.31272 6.75104 2.54272 5.55021 2.54272C4.82087 2.54272 4.12139 2.83246 3.60567 3.34818C3.08994 3.86391 2.80021 4.56338 2.80021 5.29272V13.5427H3.71688ZM5.55021 13.5427H18.3835V14.4594C18.3835 15.1887 18.0938 15.8882 17.5781 16.4039C17.0624 16.9197 16.3629 17.2094 15.6335 17.2094H8.30021C7.57087 17.2094 6.87139 16.9197 6.35567 16.4039C5.83994 15.8882 5.55021 15.1887 5.55021 14.4594V13.5427Z" fill="#C1C1C1"/>
</svg>
