<?xml version="1.0" encoding="utf-8"?><svg viewBox="0 0 30 30" xmlns="http://www.w3.org/2000/svg" xmlns:xlink="http://www.w3.org/1999/xlink"><style>:root>svg{display:none}:root>svg:target{display:block}</style><svg fill="none" viewBox="0 0 28 28" id="sprite--exit" xmlns="http://www.w3.org/2000/svg"><path d="M5.833 3.5h16.334A2.325 2.325 0 0124.5 5.833V10.5h-2.333V5.833H5.833v16.334h16.334V17.5H24.5v4.667a2.333 2.333 0 01-2.333 2.333H5.833A2.333 2.333 0 013.5 22.167V5.833A2.333 2.333 0 015.833 3.5zM16.24 18.177l-1.657 1.656L8.75 14l5.833-5.833 1.657 1.645-3.022 3.021H24.5v2.334H13.218l3.022 3.01z"/></svg><svg fill="none" viewBox="0 0 28 28" id="sprite--favorite" xmlns="http://www.w3.org/2000/svg"><path d="M19.644 5.25a4.786 4.786 0 013.42 1.435 4.988 4.988 0 010 7L14 22.864l-9.065-9.179a4.988 4.988 0 010-7 4.795 4.795 0 016.842 0L14 8.96l2.214-2.258a4.76 4.76 0 013.43-1.452zm0-1.75a6.536 6.536 0 00-4.673 1.96L14 6.44l-.971-.98a6.554 6.554 0 00-9.345 0 6.755 6.755 0 000 9.468L14 25.374l10.316-10.447a6.755 6.755 0 000-9.468 6.554 6.554 0 00-4.672-1.96z"/></svg><svg fill="none" viewBox="0 0 30 30" id="sprite--fb" xmlns="http://www.w3.org/2000/svg"><path d="M14.238 10.865v1.859h-1.36v2.272h1.36v6.754h2.797v-6.754h1.877s.177-1.09.262-2.282h-2.128v-1.552c0-.234.305-.546.608-.546h1.523V8.25h-2.073c-2.935 0-2.866 2.275-2.866 2.615z"/><path d="M7.9 4.2a2.7 2.7 0 00-2.7 2.7v16.2a2.7 2.7 0 002.7 2.7h16.2a2.7 2.7 0 002.7-2.7V6.9a2.7 2.7 0 00-2.7-2.7H7.9zm0-2.7h16.2a5.4 5.4 0 015.4 5.4v16.2a5.4 5.4 0 01-5.4 5.4H7.9a5.4 5.4 0 01-5.4-5.4V6.9a5.4 5.4 0 015.4-5.4z"/></svg><svg fill="none" viewBox="0 0 30 30" id="sprite--insta" xmlns="http://www.w3.org/2000/svg"><path clip-rule="evenodd" d="M9.331 1.333c1.466-.068 1.934-.083 5.669-.083 3.735 0 4.203.016 5.668.083 1.465.066 2.465.3 3.34.638a6.765 6.765 0 012.434 1.588c.7.686 1.24 1.516 1.585 2.433.34.875.573 1.875.64 3.338.068 1.469.083 1.936.083 5.67 0 3.735-.016 4.203-.082 5.669-.067 1.462-.3 2.462-.64 3.337a6.745 6.745 0 01-1.585 2.436 6.742 6.742 0 01-2.436 1.585c-.875.34-1.875.573-3.337.64-1.468.068-1.935.083-5.67.083s-4.203-.016-5.669-.082c-1.462-.067-2.462-.3-3.337-.64a6.745 6.745 0 01-2.436-1.585 6.74 6.74 0 01-1.587-2.436c-.339-.875-.571-1.875-.639-3.337-.067-1.469-.082-1.936-.082-5.67 0-3.735.016-4.203.083-5.668.066-1.465.3-2.465.638-3.34A6.745 6.745 0 013.56 3.558 6.74 6.74 0 015.992 1.97c.875-.339 1.875-.571 3.338-.639h.001zm11.225 2.474c-1.45-.066-1.885-.08-5.556-.08-3.671 0-4.106.014-5.556.08-1.342.062-2.069.286-2.554.474A4.27 4.27 0 005.309 5.31 4.265 4.265 0 004.28 6.89c-.188.485-.412 1.212-.473 2.554-.067 1.45-.08 1.885-.08 5.556 0 3.671.013 4.106.08 5.556.06 1.341.285 2.069.473 2.554.22.596.572 1.137 1.028 1.581.444.457.985.808 1.581 1.028.485.188 1.212.412 2.554.473 1.45.067 1.883.08 5.556.08 3.672 0 4.106-.013 5.556-.08 1.341-.06 2.069-.285 2.554-.473.641-.25 1.1-.547 1.581-1.028a4.267 4.267 0 001.028-1.581c.188-.485.412-1.212.473-2.554.067-1.45.08-1.885.08-5.556 0-3.671-.013-4.106-.08-5.556-.06-1.342-.285-2.069-.473-2.554a4.27 4.27 0 00-1.028-1.581 4.266 4.266 0 00-1.58-1.029c-.485-.188-1.212-.412-2.554-.473zM13.244 19.24a4.587 4.587 0 103.301-8.558 4.588 4.588 0 00-3.301 8.558zm-3.242-9.237a7.068 7.068 0 119.996 9.996 7.068 7.068 0 01-9.996-9.996zm13.633-1.017a1.672 1.672 0 10-2.296-2.433 1.672 1.672 0 002.296 2.433z"/></svg><svg fill="none" viewBox="0 0 25 23" id="sprite--share" xmlns="http://www.w3.org/2000/svg"><path d="M18.008 14.46a4.114 4.114 0 00-1.636.345 3.73 3.73 0 00-1.311.954l-5.54-3.142a2.795 2.795 0 000-1.815l5.54-3.142a3.874 3.874 0 002.231 1.216c.879.153 1.79.02 2.57-.378.78-.397 1.38-1.032 1.695-1.792.314-.76.32-1.597.02-2.361-.3-.765-.89-1.408-1.664-1.816a4.12 4.12 0 00-2.563-.414 3.886 3.886 0 00-2.252 1.184 3.249 3.249 0 00-.879 2.223c.004.307.055.613.152.907l-5.54 3.142A3.83 3.83 0 006.92 8.408a4.158 4.158 0 00-2.302.056 3.777 3.777 0 00-1.841 1.255 3.225 3.225 0 00-.7 1.99c0 .714.244 1.41.7 1.99a3.777 3.777 0 001.84 1.256 4.158 4.158 0 002.303.056 3.83 3.83 0 001.913-1.163l5.539 3.141c-.097.295-.148.6-.152.908 0 .68.223 1.344.639 1.91a3.734 3.734 0 001.7 1.266 4.15 4.15 0 002.19.195 3.922 3.922 0 001.94-.94 3.36 3.36 0 001.037-1.76 3.142 3.142 0 00-.216-1.987 3.534 3.534 0 00-1.396-1.542 4.07 4.07 0 00-2.105-.58zm0-11c.45 0 .89.12 1.264.347.373.227.665.549.837.926.172.376.217.791.13 1.191-.089.4-.305.768-.623 1.056a2.354 2.354 0 01-1.164.565 2.49 2.49 0 01-1.314-.118 2.24 2.24 0 01-1.02-.76 1.93 1.93 0 01-.383-1.145c0-.547.24-1.072.666-1.459a2.397 2.397 0 011.607-.604zM5.884 13.771c-.45 0-.89-.121-1.263-.348a2.12 2.12 0 01-.838-.925 1.886 1.886 0 01-.129-1.192c.088-.4.304-.768.622-1.056a2.354 2.354 0 011.164-.564 2.49 2.49 0 011.314.117c.415.156.77.42 1.02.76.25.339.383.737.383 1.145a1.97 1.97 0 01-.666 1.459 2.397 2.397 0 01-1.607.604zm12.124 6.187c-.45 0-.889-.12-1.263-.347a2.12 2.12 0 01-.837-.926 1.885 1.885 0 01-.13-1.192c.088-.4.305-.767.623-1.055a2.353 2.353 0 011.164-.565 2.49 2.49 0 011.313.117c.416.157.77.42 1.02.76s.384.738.384 1.146a1.97 1.97 0 01-.666 1.458 2.397 2.397 0 01-1.608.604z" fill="#C1C1C1"/></svg><svg fill="none" viewBox="0 0 28 28" id="sprite--user" xmlns="http://www.w3.org/2000/svg"><path d="M23.475 20.88a10.228 10.228 0 00-2.204-3.268 10.271 10.271 0 00-3.268-2.204l-.033-.013A6.78 6.78 0 0014 3.118a6.78 6.78 0 00-6.781 6.78 6.776 6.776 0 002.81 5.5l-.032.013a10.184 10.184 0 00-3.268 2.204 10.273 10.273 0 00-2.204 3.267 10.164 10.164 0 00-.806 3.777.219.219 0 00.219.224h1.64a.22.22 0 00.219-.213 8.152 8.152 0 012.4-5.587A8.149 8.149 0 0114 16.68c2.193 0 4.252.853 5.802 2.403a8.152 8.152 0 012.401 5.587c.003.12.099.213.219.213h1.64a.22.22 0 00.22-.224 10.189 10.189 0 00-.807-3.78zM14 14.602a4.672 4.672 0 01-3.325-1.379 4.672 4.672 0 01-1.378-3.325c0-1.255.49-2.436 1.378-3.325A4.672 4.672 0 0114 5.195c1.255 0 2.436.49 3.325 1.378a4.673 4.673 0 011.378 3.325c0 1.255-.49 2.437-1.378 3.325A4.673 4.673 0 0114 14.602z"/></svg><svg fill="none" viewBox="0 0 30 30" id="sprite--youtube" xmlns="http://www.w3.org/2000/svg"><path d="M28.125 14.918c0-.064 0-.138-.003-.223-.003-.237-.009-.504-.015-.788a44.027 44.027 0 00-.128-2.4c-.088-1.057-.217-1.939-.393-2.6a4.088 4.088 0 00-2.88-2.886c-.829-.223-2.452-.36-4.737-.446a137.8 137.8 0 00-3.413-.082c-.408-.006-.786-.009-1.125-.012h-.862c-.34.003-.717.006-1.125.012-1.163.015-2.326.041-3.413.082-2.285.088-3.91.226-4.737.446a4.083 4.083 0 00-2.88 2.885c-.179.662-.305 1.544-.393 2.602a44.117 44.117 0 00-.128 2.4c-.01.283-.012.55-.015.787 0 .085-.003.159-.003.223v.164c0 .064 0 .138.003.223.003.237.009.504.015.788.023.817.064 1.632.128 2.4.088 1.057.217 1.939.393 2.6a4.082 4.082 0 002.88 2.887c.826.222 2.452.36 4.737.445 1.087.04 2.25.067 3.413.082.408.006.785.009 1.125.012h.862c.34-.003.717-.006 1.125-.012 1.163-.015 2.326-.041 3.413-.082 2.285-.088 3.91-.226 4.737-.445a4.077 4.077 0 002.88-2.886c.179-.662.305-1.544.393-2.602.064-.767.105-1.582.128-2.4.01-.283.012-.55.015-.787 0-.085.003-.159.003-.223v-.164zm-2.11.152c0 .062 0 .13-.002.208-.003.229-.01.48-.015.753-.02.78-.062 1.559-.123 2.283-.08.943-.19 1.716-.328 2.235a1.971 1.971 0 01-1.389 1.391c-.615.165-2.165.296-4.271.375a133.4 133.4 0 01-4.468.091h-.838l-1.107-.008a133.739 133.739 0 01-3.36-.083c-2.107-.082-3.66-.21-4.272-.375a1.976 1.976 0 01-1.389-1.391c-.138-.519-.249-1.292-.328-2.235-.062-.724-.1-1.503-.123-2.283-.009-.272-.012-.527-.015-.753 0-.079-.003-.15-.003-.208v-.14c0-.062 0-.13.003-.208.003-.229.01-.48.015-.753.02-.78.061-1.559.123-2.282.08-.944.19-1.717.328-2.236A1.971 1.971 0 015.842 8.06c.615-.164 2.165-.296 4.271-.375a133.078 133.078 0 014.468-.091h.838l1.107.009c1.146.014 2.291.04 3.36.082 2.107.082 3.66.21 4.272.375a1.976 1.976 0 011.389 1.391c.138.519.249 1.292.328 2.236.061.723.1 1.503.123 2.282.009.272.012.527.015.753 0 .079.003.15.003.208v.14zm-13.622 3.856l6.796-3.955-6.796-3.897v7.852z"/></svg></svg>