<svg width="78" height="45" viewBox="0 0 78 45" fill="none" xmlns="http://www.w3.org/2000/svg">
<path d="M77.8671 1.00687L77.493 1.15686L77.347 1.21387L76.895 1.18887L76.4711 1.38885L75.7201 1.90186L75.688 1.92487L75.407 1.99786L75.147 1.88586L74.999 1.95386L74.949 2.25388L74.8091 2.47287L74.636 2.59387L74.036 2.65387L73.53 2.91586L72.873 2.73987L72.567 2.85886L71.917 3.44485L71.5861 3.60187L71.4701 3.59488L71.031 3.57187L70.844 3.63388L70.566 3.90088L70.041 3.94186L69.8771 4.05588L69.6211 4.57187L69.343 4.85886L69.1851 4.89285L69.014 4.82886L68.884 4.85187L68.8251 5.18286L68.699 5.31985L68.348 5.44086L68.067 5.67587L67.821 5.80188L67.49 5.79288H67.415L67.0851 5.97485L66.468 6.02988L66.2101 6.27588L66.1531 6.32788L66.0341 6.40088L65.834 6.51785L65.786 6.54587L65.547 6.50287L65.271 6.61285L65.1591 6.43988L64.967 6.55588L64.714 6.56686L64.397 6.42587L64.155 6.31686L63.979 6.34387L63.9181 6.64987L63.911 6.68387L63.7261 6.92987L63.381 7.13986L63.333 7.19986L62.9391 7.70886L62.192 8.49588L61.558 8.81586L60.9031 9.01587L60.4441 9.39285L59.244 9.99286L57.344 10.9399L56.9561 11.0649L56.397 11.1539L55.4041 11.5209L54.527 11.7839L54.4771 11.7999L54.302 11.8519L53.0651 12.2279L52.49 12.1659L52.1481 12.2909L51.26 12.1909L50.6421 12.2029L50.2521 12.2829L49.5171 12.6349L48.2781 13.2349L47.869 13.6089L47.23 13.9419L46.484 14.1789V13.8659L46.479 13.8519L46.219 13.9339L46.032 13.9939L45.427 14.0869H45.0911L44.881 14.0259L44.849 14.0369L43.61 14.4449L42.229 14.5779L41.5391 14.7989L41.0231 14.7919L40.701 14.8919L40.067 14.9689L39.8411 14.9079L39.7891 14.8939L37.927 14.9759L37.076 14.8759L36.67 14.9689L35.988 14.7389L34.9971 14.6229L34.764 14.5539L34.2411 14.3989L34.006 14.5359L33.828 14.5539L33.406 14.4009H33.255L32.906 14.5269L32.7061 14.4749L32.519 14.3269L32.083 14.2609L31.816 14.0369L30.326 14.2369L29.926 14.1199L28.572 13.7199L28.3571 13.7309L28.088 13.9309L27.688 14.0789L27.338 14.1699L26.8611 14.1859L26.307 14.0399L25.7361 13.7619L25.524 13.7119L25.052 13.7599L24.9081 13.7719L24.0431 13.3069L22.927 12.6069L22.17 12.2419L21.885 12.1959L21.847 12.3309L21.988 12.7739L22.036 13.2139L22.022 13.6199L22.0131 13.8709L22.084 14.0969L22.358 14.3969L22.472 14.6969L22.5541 15.5349V16.3839L22.42 17.7389L22.376 17.9389L22.218 18.6389L22.074 19.2829L21.5121 20.9989L21.3571 21.2109L20.98 21.4709L20.12 22.0549L19.488 22.4179L19.2881 22.5019L18.775 22.5409L18.4551 22.5249L18.0551 22.3099L17.665 22.2099L17.1531 21.8419L16.583 21.7249L15.958 21.3639L15.796 21.1699L15.4561 21.1379L14.984 20.9959L14.811 20.9439L14.692 20.9079L14.092 20.8919L13.531 20.6339L13.238 20.5629L12.838 20.5419L12.416 20.7419L12.2001 20.8419L11.9291 20.7329L11.735 20.7459L11.5121 21.0809L11.485 21.1329L11.332 21.2149H11.1421H10.9921L10.832 21.2839L10.615 21.3779L10.425 21.4619L10.3311 21.5029L10.274 21.5139L10.1741 21.5319L10.048 21.5569L9.82397 21.4269L9.70508 21.3559L9.505 21.3149L9.39807 21.3929L9.37708 21.7579L9.27698 21.9749L8.96704 22.2509L8.65002 22.5289L8.43103 22.8529L7.849 24.1829L7.48401 24.7189L7.37 24.8439L6.98706 25.2659L6.64905 25.5279L5.86902 26.1329L5.13 26.4089L4.495 26.5389H4.18701L3.59998 26.4619L3.07507 26.2999L2.49609 25.9389L1.86206 25.4279L0.944092 24.5219L0.814087 24.4439L0.786987 24.4259L0.499023 24.2409L0.284058 24.2459L0.200073 24.3849L0.154053 24.5849L0.11499 24.7609L0.0100098 25.7699L0.019043 25.8289L0.0739746 26.2439L0.774048 27.2179L0.989014 27.7359L1.02502 27.7949L1.16907 28.0369L1.27808 28.2199L1.28809 28.2399L1.52698 28.9499L1.35999 29.3499L1.44409 29.6189L1.23401 29.7829L1.19507 30.0159L1.82007 30.8009L1.95703 31.1459L1.80408 31.6269L1.56201 31.8899L1.49304 31.9629L1.52808 32.1629L1.81409 32.4209L2.30408 32.8569L2.56604 33.5049L2.76599 33.6789L2.99707 33.6289L3.125 33.7289H3.31909L3.51099 33.9209L3.63403 33.9799L3.83398 34.0799L3.98901 34.2799L4.02502 34.9009L4.31299 35.6699V36.0879V36.1469L4.49304 36.4549L4.55005 36.6989L4.45007 37.3429L4.68005 37.5489L4.927 37.4989L5.08899 37.5239L5.34509 37.7389L5.65601 38.2139L5.96204 38.1699L6.15601 38.2629L7.09009 39.1079L7.302 39.2149L7.31299 39.2219L7.46606 39.2969L7.65698 39.4889L7.95105 39.2889H7.98303L8.30298 39.2619L8.44409 39.3559L8.71301 39.5379H9.06702L9.83398 39.7729L10.17 39.8579L10.8451 40.2779L11.1321 40.4559L11.301 40.5929L11.527 40.7759L11.9771 40.9699L12.363 41.0629L12.573 41.1129L12.7311 41.1729V41.1639L12.7261 41.1729L13.5641 41.4929L14.016 41.5999L14.436 41.7549L14.7361 41.8649H14.9601L15.277 41.5979L15.5851 41.5799L15.8401 41.6439L16.089 41.6029L16.4821 41.3589L16.558 41.2449L16.838 41.1129L17.7791 40.9959L18.053 41.0849L18.76 40.7789L19.233 40.9109L19.651 40.7619L20.568 40.9619L20.8101 41.1349L21.082 41.4449H21.1161L21.416 41.4499L21.29 41.6619L21.6901 42.0799L22.051 42.6259L22.076 42.6989L22.338 43.4679L22.5381 43.7419L22.675 44.1229L22.682 44.3699L22.468 44.5319L22.4341 44.6249L22.422 44.6589L22.4651 44.7639L22.545 44.7199L22.698 44.6359L22.8831 44.6069L23.2111 44.6409L23.426 44.6639L23.7681 44.4949L23.994 44.3809L24.3571 44.5379H24.7571L24.926 44.6129L25.401 44.8279L25.6431 44.8489L25.7321 44.7899L25.7891 44.6549L25.761 44.4969L25.578 44.2889L25.178 43.8229L25.014 43.5839L24.8881 43.2369L24.8511 42.7959L24.823 42.4959L24.873 42.1029L24.9811 41.9639L25.0591 41.6529L25.079 41.5709L25.303 41.2709L25.8921 40.8919L26.526 40.3239L27.026 39.9929L27.542 39.7709L27.556 39.7069L27.615 39.7299L28.927 39.2829H28.9501L29.5341 39.1829L33.4821 39.4609L33.6281 39.4169L33.76 39.0489L33.8311 38.9809L33.879 38.9369L34.312 38.7449L34.5121 38.7159L35.076 38.8549L35.306 38.9119L35.676 38.7059H35.938L36.479 38.4059L36.813 38.4149L36.9391 38.3629L37.5901 37.8949L38.218 37.7149L38.38 37.6299L38.4391 37.5979L39.082 37.2579L39.4911 36.9449L39.843 36.7559L40.229 36.6559L41.238 36.5849L41.438 36.2469L41.8721 36.1899L42.1331 35.8899L42.433 35.7689L42.649 35.4569L42.8301 35.1969L43.0811 35.0509L43.889 35.0009L44.847 35.1199L44.973 35.0419L45.1901 34.2709L45.416 34.1249L46.027 33.2369V32.9129V32.6419L46.1271 32.2559L46.0591 31.5559L46.139 30.8559L46.5181 29.9559L46.8521 29.5949L47.391 29.2299L47.665 29.1109L48.051 29.0469L48.11 29.0359L48.2101 29.0199L49.547 29.0019C49.565 28.9879 50.031 28.9949 50.031 28.9949L50.478 28.9899L51.605 29.1899L51.6851 29.2039L52.066 29.3269L52.504 29.6689L52.9701 30.1229L53.057 30.2079L53.3571 30.3339L53.448 30.3749L53.697 30.3339L54.051 30.1509L54.318 29.9249L54.683 29.7249L54.692 29.7119L54.8921 29.4019L54.899 29.3969L54.9811 29.2739L55.686 28.9999L56.514 28.9519L56.6071 28.9019L56.6591 28.8749L56.8781 28.6169H57.0851L57.5851 28.7969L57.932 28.7279L58.2101 28.8379L58.425 28.8129L58.8311 28.7649L59.269 29.0729L59.522 29.1049L60.422 29.6279L60.468 29.6349L60.493 29.6399L60.5431 29.6489L60.65 29.6169L60.808 29.5709L60.829 29.5659L60.849 29.5929L60.949 29.7369L61.0901 29.7569L61.256 29.5359L61.1901 29.4359L61.165 29.3999L60.844 29.3339L60.556 28.8429L60.8301 28.5429L60.401 28.0179L60.3301 27.9289L60.3051 27.8929L60.157 27.6669L59.406 26.5209L58.425 25.7399L58.083 25.4659L57.964 25.3719L57.441 24.8399L57.067 24.3399L57.019 24.2329L56.943 24.0659L56.719 23.5779L56.329 23.2779L56.01 22.9309L55.994 22.9099L55.339 22.0179L55.2311 21.8699L55.076 21.7789H54.75L54.718 21.7469L54.698 21.7269L54.7101 21.7159L54.8661 21.5589L55.041 21.5149L55.1171 21.3439L54.7831 20.3779V20.3439L54.7581 20.0339L55.03 18.6339L55.0641 18.4629L55.5291 17.5199L55.816 17.2849L56.129 16.6669L56.4 16.2739L56.656 16.0229L56.702 15.9959L57.167 15.7149L57.557 15.6599L57.9291 15.6079L58.579 15.8079L59.197 15.7969L59.318 15.7829L59.598 15.7529L60.0591 15.6069L60.2781 15.4719L60.39 15.2989L60.625 14.5089L60.701 14.2579L60.8451 13.9859L61.687 13.0179L62.322 12.4309L63.749 11.3829L64.449 10.9659L64.807 10.7519L67.995 9.33487L68.822 8.49487L69.255 8.05685L70.019 7.54587L70.9131 7.17886L71.682 6.56985L71.849 6.35788L72.0601 5.67786L72.2361 5.63486L72.394 5.28986L72.4401 5.18988L73.066 4.74887L73.1371 4.71286L75.574 3.49185L75.928 3.53986L76.118 3.25485L76.828 3.13788L76.958 3.11487L77.1321 3.02786L77.28 2.77487V2.72485L77.301 2.04688L77.452 1.86487L77.5341 1.41788L77.613 1.31787L77.6951 1.21088L77.895 1.06985L77.8611 0.984863L77.8671 1.00687Z" fill="#D57800"/>
</svg>
