<svg width="107" height="90" viewBox="0 0 107 90" fill="none" xmlns="http://www.w3.org/2000/svg">
<path d="M64.9816 50.9334C65.596 51.5483 65.8362 52.4444 65.6113 53.2843C65.3864 54.1235 64.7301 54.7799 63.8909 55.0047C63.051 55.2296 62.155 54.9893 61.54 54.375L51.3092 44.1447C50.8523 43.6884 50.5954 43.0693 50.5948 42.4236V29.2418C50.5948 28.3724 51.0589 27.5686 51.8117 27.1343C52.5645 26.6992 53.4926 26.6992 54.2453 27.1343C54.9982 27.5687 55.4622 28.3724 55.4622 29.2418V41.4152L64.9816 50.9334ZM86.2937 42.4237C86.2937 51.2459 82.7893 59.707 76.5511 65.9449C70.3124 72.1831 61.8518 75.6875 53.0299 75.6875C44.2081 75.6875 35.7466 72.1831 29.5087 65.9449C23.2705 59.7061 19.7661 51.2455 19.7661 42.4237C19.7661 33.6019 23.2705 25.1403 29.5087 18.9025C35.7475 12.6643 44.2081 9.15989 53.0299 9.15989C61.8492 9.16936 70.3042 12.6773 76.5405 18.9131C82.7763 25.1494 86.2843 33.6047 86.2937 42.4237ZM81.4269 42.4237C81.4269 36.8064 79.7615 31.3146 76.6399 26.6449C73.519 21.974 69.0831 18.3335 63.8931 16.1838C58.7031 14.0341 52.9924 13.4725 47.4825 14.5687C41.9727 15.6649 36.9119 18.3702 32.9401 22.3428C28.9683 26.3153 26.264 31.3763 25.1684 36.8864C24.0729 42.396 24.6358 48.1069 26.7866 53.2955C28.9368 58.4855 32.578 62.9208 37.2489 66.0411C41.9204 69.1614 47.4122 70.8262 53.0292 70.8256C60.5593 70.818 67.7795 67.8238 73.1049 62.4988C78.4299 57.1738 81.424 49.9538 81.4318 42.4231L81.4269 42.4237ZM94.556 42.4237C94.5548 53.437 90.1792 63.9994 82.3916 71.7873C74.604 79.5749 64.0416 83.9499 53.028 83.9511C42.0142 83.9517 31.4522 79.5779 23.6628 71.7914C15.8746 64.0032 11.499 53.4399 11.499 42.4247C11.499 31.4097 15.8746 20.846 23.6628 13.0581C31.4516 5.26989 42.0143 0.894287 53.0295 0.894287C64.0439 0.894287 74.6083 5.26989 82.3961 13.0581C86.2645 16.9058 89.3315 21.4826 91.419 26.5234C93.5071 31.5643 94.5748 36.969 94.5599 42.4249L94.556 42.4237ZM89.6892 42.4237H89.6898C89.6898 35.1717 87.539 28.0831 83.5102 22.054C79.4814 16.0241 73.7546 11.3249 67.0542 8.5502C60.3543 5.77504 52.9822 5.04944 45.8693 6.46444C38.757 7.87956 32.224 11.3716 27.0966 16.4999C21.9693 21.6278 18.4773 28.1613 17.0634 35.2741C15.6489 42.3864 16.3757 49.7587 19.1514 56.459C21.9272 63.1582 26.6272 68.8844 32.657 72.912C38.6875 76.9402 45.7761 79.0897 53.0283 79.0887C62.7489 79.0774 72.0677 75.2108 78.9404 68.337C85.8142 61.4638 89.6808 52.1446 89.692 42.4249L89.6892 42.4237ZM51.4361 20.1237C51.9238 20.5469 52.5595 20.7587 53.2034 20.7126C53.8474 20.667 54.4463 20.3669 54.8695 19.8792C55.2921 19.3915 55.504 18.7559 55.4578 18.112C55.4122 17.468 55.1121 16.8691 54.6245 16.4459C54.1368 16.0233 53.5011 15.8114 52.8572 15.8576C52.2132 15.9032 51.6143 16.2032 51.1911 16.6909C50.7685 17.1786 50.5566 17.8143 50.6022 18.4582C50.6484 19.1021 50.9479 19.7011 51.4361 20.1237V20.1237ZM73.4331 32.7361C74.2842 32.9154 75.1655 32.6266 75.7461 31.9797C76.3268 31.3328 76.5179 30.4249 76.2475 29.5986C75.9776 28.7724 75.2869 28.1527 74.4364 27.974C73.8013 27.8313 73.1355 27.9497 72.5881 28.3018C72.0406 28.654 71.6571 29.2109 71.5233 29.8484C71.3896 30.4852 71.5162 31.1493 71.8755 31.692C72.2347 32.2347 72.7964 32.6112 73.435 32.7366L73.4331 32.7361ZM76.251 53.7588C76.0563 53.1433 75.6254 52.6302 75.0519 52.3324C74.479 52.0348 73.8114 51.9767 73.1958 52.1715C72.5797 52.3662 72.0666 52.7976 71.7695 53.3706C71.4718 53.9435 71.4137 54.6117 71.6085 55.2272C71.8032 55.8428 72.2346 56.3559 72.8076 56.6536C73.3805 56.9513 74.0487 57.0087 74.6642 56.814C75.2798 56.6199 75.7935 56.1884 76.0912 55.6155C76.3889 55.0426 76.4463 54.3744 76.251 53.7588H76.251ZM51.2434 64.9058C50.6516 65.5444 50.4456 66.4494 50.7025 67.2809C50.9593 68.1125 51.6406 68.7434 52.4887 68.937C53.3374 69.13 54.2246 68.8559 54.8158 68.2179C55.4076 67.5799 55.6136 66.6743 55.3568 65.8428C55.0999 65.0118 54.4187 64.3803 53.5705 64.1873C52.7218 63.9938 51.8346 64.2678 51.2434 64.9058V64.9058ZM32.6252 52.1099C31.7759 51.9347 30.8977 52.2247 30.3193 52.871C29.7411 53.5173 29.5505 54.4222 29.8186 55.2468C30.0873 56.0718 30.7745 56.6909 31.622 56.8731C32.257 57.0152 32.9228 56.8968 33.4703 56.5446C34.0178 56.1925 34.4013 55.6356 34.535 54.9987C34.6688 54.3619 34.5421 53.6978 34.1829 53.1545C33.8236 52.6118 33.2619 52.2353 32.6233 52.1099L32.6252 52.1099ZM29.8418 31.1947C30.0655 31.7996 30.52 32.2915 31.106 32.5613C31.6919 32.8312 32.3613 32.8573 32.9661 32.6341C33.5716 32.411 34.0634 31.9564 34.3333 31.3705C34.6038 30.7846 34.6298 30.1152 34.4073 29.5104C34.1841 28.9049 33.7296 28.4131 33.1437 28.1426C32.5577 27.8721 31.8889 27.8455 31.2835 28.0686C30.6781 28.2918 30.1856 28.7469 29.9152 29.3328C29.6447 29.9194 29.6186 30.5888 29.8418 31.1948L29.8418 31.1947Z" fill="#EA9D3A"/>
</svg>
