<svg width="108" height="90" viewBox="0 0 108 90" fill="none" xmlns="http://www.w3.org/2000/svg">
<path d="M94.2062 60.3554C94.0451 58.2472 93.0235 56.2983 91.3823 54.9654C89.782 53.6649 87.7386 53.0369 85.684 53.2135C83.6299 53.3908 81.7243 54.359 80.3697 55.9143L71.044 66.764C70.9773 64.6798 70.1005 62.7038 68.5999 61.2561C67.0993 59.8084 65.0926 59.0031 63.0079 59.0115H55.3282C52.1009 56.5241 47.0806 55.0638 41.6239 55.0638C37.4472 54.9617 33.3137 55.928 29.6148 57.8709V56.538C29.6148 55.824 29.3311 55.1389 28.8263 54.6341C28.3215 54.1293 27.6364 53.8457 26.9225 53.8457H16.1532C15.4393 53.8457 14.7542 54.1293 14.2494 54.6341C13.7446 55.1389 13.4609 55.824 13.4609 56.538V83.4611C13.4609 84.175 13.7446 84.8601 14.2494 85.3649C14.7542 85.8697 15.4393 86.1534 16.1532 86.1534H26.9225C27.6364 86.1534 28.3215 85.8697 28.8263 85.3649C29.3311 84.8601 29.6148 84.175 29.6148 83.4611V80.1864H33.8623C36.8575 80.1822 39.8232 80.782 42.5817 81.9484C46.0036 83.3956 49.6809 84.1383 53.3954 84.1341H70.1846C74.026 84.1383 77.6859 82.502 80.2436 79.6354L92.2694 66.1041C93.6762 64.5351 94.3763 62.4563 94.2063 60.3554L94.2062 60.3554ZM24.2308 80.7692H18.8462V59.2308H24.2308V80.7692ZM88.2446 62.5277L76.2194 76.0589C74.6839 77.7765 72.488 78.7554 70.1851 78.75H53.3959C50.4 78.7536 47.4343 78.1544 44.6752 76.988C41.254 75.5409 37.5766 74.7975 33.8628 74.8023H29.6152V65.652C29.6152 63.53 34.2937 60.4489 41.6243 60.4489C46.1268 60.4489 50.4014 61.7169 52.5168 63.6785V63.6779C53.015 64.14 53.6688 64.3966 54.3479 64.3966H63.0083C63.7006 64.3864 64.3689 64.6514 64.8665 65.1334C65.3641 65.6154 65.6501 66.2752 65.6621 66.9675V68.223H50.98C50.0179 68.223 49.1291 68.7362 48.6483 69.5691C48.1675 70.402 48.1675 71.4285 48.6483 72.2614C49.1291 73.0944 50.0179 73.6076 50.98 73.6076H71.0277C71.8125 73.6076 72.5577 73.2656 73.0692 72.6701L84.4532 59.4248H84.4538C84.8865 58.9296 85.4947 58.6219 86.1503 58.5667C86.8059 58.5114 87.4574 58.7127 87.9671 59.1286C88.4719 59.536 88.7862 60.1328 88.8372 60.7793C88.8883 61.4187 88.6744 62.051 88.2447 62.5275L88.2446 62.5277ZM62.48 34.4431C62.9848 34.9485 63.2685 35.633 63.2685 36.3469C63.2685 37.0609 62.9848 37.7453 62.48 38.2508L54.4031 46.3277C53.8983 46.8325 53.2138 47.1161 52.4992 47.1161C51.7853 47.1161 51.1008 46.8325 50.596 46.3277L46.5575 42.2892C45.8935 41.6059 45.6393 40.6222 45.8905 39.7032C46.1411 38.7837 46.8592 38.0655 47.7786 37.8145C48.6981 37.5639 49.6813 37.8175 50.3646 38.4815L52.4999 40.6161L58.673 34.4431C59.1778 33.9383 59.8629 33.6546 60.5768 33.6546C61.2907 33.6546 61.9752 33.9383 62.48 34.4431L62.48 34.4431ZM21.8169 32.2291C23.3572 33.1353 25.1408 33.5434 26.9228 33.3961V47.1161C26.9228 48.0783 27.436 48.9671 28.2689 49.4478C29.1019 49.9286 30.1283 49.9286 30.9612 49.4478C31.7942 48.9671 32.3074 48.0782 32.3074 47.1161V31.3023L52.5305 19.9772C53.3478 19.5223 54.3423 19.5223 55.1597 19.9772L75.3843 31.3023V48.4623C75.3843 49.4244 75.8975 50.3132 76.7305 50.794C77.5634 51.2747 78.5899 51.2747 79.4228 50.794C80.2557 50.3132 80.7689 49.4244 80.7689 48.4623V33.3955C80.9997 33.4141 81.2305 33.44 81.4618 33.44C83.7768 33.4316 85.9949 32.5067 87.6308 30.8684C89.266 29.2297 90.1872 27.0109 90.192 24.6954C90.1884 21.8126 88.6494 19.1503 86.1535 17.708V8.07753C86.1535 5.19168 84.6138 2.52522 82.1151 1.08291C79.6163 -0.359994 76.5369 -0.359994 74.0381 1.08291C71.5394 2.52522 69.9997 5.19168 69.9997 8.07753V8.65325L57.7917 1.81664C55.3374 0.453652 52.3535 0.453652 49.8992 1.81664L21.63 17.6474C20.3776 18.3499 19.3349 19.3728 18.6089 20.612C17.8836 21.8506 17.5002 23.2599 17.4996 24.6956C17.4911 26.2202 17.8866 27.7202 18.6444 29.0429C19.4028 30.3663 20.4972 31.4654 21.8168 32.2292L21.8169 32.2291ZM75.3846 8.0783C75.3846 7.11617 75.8978 6.22738 76.7308 5.74661C77.5637 5.26584 78.5902 5.26584 79.4231 5.74661C80.256 6.22738 80.7692 7.1162 80.7692 8.0783V14.6846L75.3846 11.6689V8.0783ZM24.2616 22.3475L52.5308 6.51677C53.3487 6.06244 54.3426 6.06244 55.16 6.51677L83.4292 22.3475C83.8469 22.5813 84.1949 22.9221 84.4371 23.3349C84.6792 23.7478 84.8072 24.2177 84.8072 24.6961C84.8072 25.8842 84.1774 26.9833 83.1522 27.5843C82.1269 28.1852 80.8602 28.1972 79.8234 27.6167L57.7911 15.279C55.3368 13.916 52.3529 13.916 49.8986 15.279L27.8679 27.6167C26.8312 28.1972 25.5643 28.1852 24.5391 27.5843C23.5138 26.9833 22.884 25.8841 22.884 24.6961C22.884 24.2177 23.012 23.7478 23.2542 23.3349C23.4964 22.9221 23.8437 22.5813 24.2614 22.3475H24.2616Z" fill="#EA9D3A"/>
</svg>
