<svg width="28" height="28" viewBox="0 0 28 28" fill="none" xmlns="http://www.w3.org/2000/svg">
<mask id="mask0_114_644" style="mask-type:alpha" maskUnits="userSpaceOnUse" x="0" y="2" width="28" height="24">
<path d="M2.91699 20.8613C4.04224 21.4837 12.1867 26.1784 17.9787 22.56C23.77 18.9415 23.4503 12.7075 23.4503 9.85029C23.9753 8.75129 25.0837 8.19245 25.0837 5.21745C23.9952 6.22312 22.9131 6.56495 21.8374 6.24412C20.7839 4.63762 19.3343 3.92654 17.4881 4.11204C14.7196 4.39029 13.7069 7.10629 14.005 10.6209C9.73616 12.7792 6.38899 9.05579 4.66349 6.24412C4.08716 8.45846 3.53183 11.1173 4.66349 14.0579C5.41833 16.019 7.23308 17.6763 10.1066 19.0314C7.19399 20.6093 4.79766 21.22 2.91699 20.8613Z" fill="white" stroke="white" stroke-width="4" stroke-linejoin="round"/>
</mask>
<g mask="url(#mask0_114_644)">
<path d="M0 0H28V28H0V0Z" fill="#808080" fill-opacity="0.7"/>
</g>
</svg>
