<svg width="106" height="90" viewBox="0 0 106 90" fill="none" xmlns="http://www.w3.org/2000/svg">
<path d="M47.6472 18.5294C47.6472 13.6153 45.695 8.90198 42.2201 5.42708C38.7452 1.95217 34.0319 0 29.1178 0C24.2036 0 19.4904 1.95217 16.0155 5.42708C12.5405 8.90198 10.5884 13.6153 10.5884 18.5294C10.5884 23.4436 12.5405 28.1568 16.0155 31.6318C19.4904 35.1067 24.2036 37.0588 29.1178 37.0588C34.0303 37.0535 38.7399 35.0995 42.2142 31.6259C45.6879 28.1515 47.6419 23.4419 47.6472 18.5294ZM15.8825 18.5294C15.8825 15.0191 17.2769 11.653 19.7592 9.17077C22.2414 6.68859 25.6075 5.29412 29.1178 5.29412C32.6281 5.29412 35.9942 6.68856 38.4764 9.17077C40.9586 11.653 42.3531 15.0191 42.3531 18.5294C42.3531 22.0397 40.9586 25.4059 38.4764 27.8881C35.9942 30.3702 32.6281 31.7647 29.1178 31.7647C25.6087 31.7606 22.2448 30.365 19.7632 27.884C17.2823 25.4024 15.8866 22.0385 15.8825 18.5294ZM29.6661 24.3718C29.1698 24.8682 28.4962 25.1471 27.7943 25.1471C27.0923 25.1471 26.4187 24.8682 25.9224 24.3718L21.9518 20.4013C21.2977 19.7295 21.0472 18.7622 21.2936 17.8571C21.54 16.9524 22.2467 16.2458 23.1512 15.9994C24.0564 15.753 25.0237 16.0036 25.6954 16.6577L27.7942 18.757L33.8635 12.6871C34.358 12.1807 35.0346 11.8929 35.7425 11.8882C36.4503 11.8835 37.1304 12.163 37.6308 12.6634C38.1312 13.1639 38.4107 13.844 38.406 14.5518C38.4013 15.2596 38.1135 15.9362 37.6072 16.4307L29.6661 24.3718ZM42.9108 54.5665C42.4795 54.0122 42.2862 53.3097 42.3737 52.6131C42.4605 51.9165 42.8204 51.2825 43.3746 50.8517L55.2864 41.587C55.7514 41.2259 56.3233 41.0304 56.9118 41.0304C57.5003 41.0304 58.0723 41.2259 58.5373 41.587L62.2059 44.4402V43.6768C62.2059 42.7308 62.7105 41.857 63.5295 41.3843C64.3484 40.9116 65.3576 40.9116 66.1765 41.3843C66.9954 41.857 67.5001 42.7309 67.5001 43.6768V48.558L70.449 50.8517C71.1829 51.3947 71.5817 52.2798 71.5031 53.1897C71.424 54.099 70.8786 54.9026 70.062 55.3114C69.2455 55.7197 68.2753 55.6754 67.5 55.1939V59.5591C67.4988 60.963 66.9404 62.3084 65.9477 63.301C64.9551 64.2935 63.6097 64.852 62.2059 64.8532H51.6176C50.2137 64.852 48.8683 64.2937 47.8757 63.301C46.8832 62.3083 46.3247 60.9629 46.3235 59.5591V55.2197C45.7716 55.5423 45.1217 55.6534 44.4942 55.5335C43.8667 55.4129 43.3042 55.0691 42.9106 54.5662L42.9108 54.5665ZM51.6176 59.5593H54.2647V58.2357C54.2647 57.2898 54.7693 56.4159 55.5882 55.9432C56.4072 55.4706 57.4164 55.4706 58.2353 55.9432C59.0542 56.4159 59.5588 57.2898 59.5588 58.2357V59.5593H62.2059V51.1484L56.9118 47.0307L51.6176 51.1484V59.5593ZM95.2941 23.824V76.7652C95.2918 78.8704 94.4545 80.8894 92.9655 82.3777C91.4771 83.8667 89.458 84.7039 87.3529 84.7063H26.4706C24.3653 84.704 22.3463 83.8667 20.8581 82.3777C19.3691 80.8893 18.5318 78.8703 18.5294 76.7652V42.3534C18.5294 41.4074 19.034 40.5336 19.8529 40.0609C20.6719 39.5882 21.6811 39.5882 22.5 40.0609C23.3189 40.5336 23.8235 41.4075 23.8235 42.3534V76.7652C23.8241 77.4671 24.1036 78.1395 24.5999 78.6358C25.0962 79.1321 25.7686 79.4116 26.4706 79.4122H87.3529C88.0548 79.4116 88.7272 79.1321 89.2235 78.6358C89.7198 78.1395 89.9993 77.4671 89.9999 76.7652V37.0593H48.9705C48.0246 37.0593 47.1507 36.5547 46.678 35.7357C46.2053 34.9168 46.2053 33.9076 46.678 33.0887C47.1507 32.2698 48.0246 31.7652 48.9705 31.7652H89.9999V23.824C89.9993 23.122 89.7199 22.4496 89.2235 21.9533C88.7272 21.457 88.0548 21.1775 87.3529 21.177H54.2647C53.3187 21.177 52.4449 20.6724 51.9722 19.8534C51.4995 19.0345 51.4995 18.0253 51.9722 17.2064C52.4449 16.3874 53.3187 15.8828 54.2647 15.8828H87.3529C89.4581 15.8852 91.4772 16.7225 92.9654 18.2115C94.4544 19.6999 95.2917 21.7189 95.2941 23.824L95.2941 23.824ZM86.0294 26.471C86.0294 25.7691 85.7505 25.0955 85.2542 24.5992C84.7579 24.1029 84.0843 23.824 83.3824 23.824C82.6804 23.824 82.0068 24.1029 81.5105 24.5992C81.0142 25.0955 80.7353 25.7691 80.7353 26.471C80.7353 27.173 81.0142 27.8466 81.5105 28.3429C82.0068 28.8392 82.6804 29.1181 83.3824 29.1181C84.0843 29.1181 84.7579 28.8392 85.2542 28.3429C85.7505 27.8466 86.0294 27.173 86.0294 26.471ZM76.7647 26.471C76.7647 25.7691 76.4858 25.0955 75.9895 24.5992C75.4932 24.1029 74.8196 23.824 74.1176 23.824C73.4157 23.824 72.7421 24.1029 72.2458 24.5992C71.7495 25.0955 71.4706 25.7691 71.4706 26.471C71.4706 27.173 71.7495 27.8466 72.2458 28.3429C72.7421 28.8392 73.4157 29.1181 74.1176 29.1181C74.8196 29.1181 75.4932 28.8392 75.9895 28.3429C76.4858 27.8466 76.7647 27.173 76.7647 26.471ZM38.3823 68.824C37.4364 68.824 36.5625 69.3286 36.0898 70.1475C35.6172 70.9665 35.6172 71.9756 36.0898 72.7946C36.5625 73.6135 37.4364 74.1181 38.3823 74.1181H46.3235C47.2695 74.1181 48.1433 73.6135 48.616 72.7946C49.0887 71.9756 49.0887 70.9664 48.616 70.1475C48.1433 69.3286 47.2695 68.824 46.3235 68.824H38.3823ZM64.8529 71.471C64.8529 72.173 65.1318 72.8466 65.6281 73.3429C66.1245 73.8392 66.7981 74.1181 67.5 74.1181H75.4412C76.3871 74.1181 77.261 73.6135 77.7337 72.7946C78.2064 71.9756 78.2064 70.9664 77.7337 70.1475C77.261 69.3286 76.3871 68.824 75.4412 68.824H67.5C66.7981 68.824 66.1245 69.1029 65.6281 69.5992C65.1318 70.0955 64.8529 70.7691 64.8529 71.471ZM54.2647 68.824C53.3187 68.824 52.4449 69.3286 51.9722 70.1475C51.4995 70.9665 51.4995 71.9756 51.9722 72.7946C52.4449 73.6135 53.3188 74.1181 54.2647 74.1181H59.5588C60.5048 74.1181 61.3786 73.6135 61.8513 72.7946C62.324 71.9756 62.324 70.9664 61.8513 70.1475C61.3786 69.3286 60.5048 68.824 59.5588 68.824H54.2647ZM30.1765 56.3828L35.4706 60.3534C36.0325 60.7747 36.738 60.9555 37.4335 60.8562C38.1283 60.757 38.7552 60.3859 39.1765 59.824C39.5977 59.2621 39.7786 58.5566 39.6793 57.8611C39.58 57.1662 39.209 56.5393 38.6471 56.1181L36.1767 54.2652L38.6471 52.4122C39.4034 51.845 39.7998 50.9168 39.687 49.9778C39.5735 49.039 38.9685 48.2318 38.0987 47.8602C37.229 47.4885 36.2269 47.6097 35.4706 48.1769L30.1765 52.1475C29.51 52.6474 29.1176 53.4314 29.1176 54.2645C29.1176 55.0976 29.51 55.8817 30.1765 56.3816V56.3828ZM74.647 59.824C75.0683 60.3853 75.6958 60.7564 76.3906 60.8556C77.0854 60.9549 77.7916 60.7741 78.3529 60.3528L83.6471 56.3822C84.313 55.8824 84.7053 55.0977 84.7053 54.2652C84.7053 53.4321 84.313 52.6481 83.6471 52.1475L78.3529 48.1769C77.7916 47.7486 77.0826 47.5619 76.3831 47.6582C75.6835 47.7551 75.0519 48.1273 74.6281 48.6922C74.2044 49.257 74.0243 49.9678 74.1271 50.6663C74.2299 51.3653 74.6081 51.9933 75.1765 52.4123L77.6469 54.2652L75.1765 56.1181C74.6146 56.5394 74.2435 57.1663 74.1442 57.8611C74.045 58.5566 74.2258 59.2621 74.647 59.824V59.824Z" fill="#EA9D3A"/>
</svg>
