<svg width="120" height="100" fill="none" xmlns="http://www.w3.org/2000/svg"><path d="M24.155 37.177a9.598 9.598 0 005.654 1.292v4.759a2.981 2.981 0 105.962 0V36.15l22.396-12.54a2.993 2.993 0 012.911 0l22.397 12.54v16.021a2.98 2.98 0 105.963 0V38.47c.255.02.51.05.767.05a9.704 9.704 0 009.667-9.684 8.95 8.95 0 00-4.472-7.737V10.434a8.945 8.945 0 00-17.889 0v.637l-13.518-7.57a9.002 9.002 0 00-8.74 0L23.948 21.03a8.957 8.957 0 00-4.575 7.803 9.584 9.584 0 004.782 8.343zm59.32-26.743a2.981 2.981 0 115.963 0v7.316l-5.963-3.34v-3.976zM26.862 26.235l31.305-17.53a2.997 2.997 0 012.912 0l31.305 17.53a2.982 2.982 0 011.526 2.6 3.706 3.706 0 01-5.519 3.235L63.994 18.408a9.002 9.002 0 00-8.74 0L30.857 32.07a3.707 3.707 0 01-5.519-3.234 2.979 2.979 0 011.525-2.6h-.001zM106.608 71.1l-7.16-8.35a8.929 8.929 0 00-6.79-3.125H52.155a22.235 22.235 0 00-20.905-8.742A22.364 22.364 0 0034.282 95.4a22.259 22.259 0 0017.87-8.944H60a5.938 5.938 0 005.007-2.725l2.072-3.204 2.072 3.203a5.937 5.937 0 005.005 2.726h2.242a5.936 5.936 0 005.006-2.725l2.073-3.204 2.072 3.203a5.937 5.937 0 005.005 2.726h2.105a8.934 8.934 0 006.791-3.123l7.16-8.352h-.001a2.984 2.984 0 000-3.881zm-11.687 8.353a2.98 2.98 0 01-2.264 1.041h-2.103l-2.072-3.204a5.966 5.966 0 00-10.016 0l-2.07 3.204h-2.24l-2.072-3.204a5.966 5.966 0 00-10.015 0l-2.07 3.204h-9.404a2.981 2.981 0 00-2.51 1.372 16.392 16.392 0 01-28.697-15.698 16.392 16.392 0 0112.645-9.375c.742-.1 1.49-.148 2.24-.149a16.298 16.298 0 0113.812 7.572 2.982 2.982 0 002.51 1.372h42.063c.871 0 1.698.38 2.264 1.041l5.497 6.412-5.498 6.412zM34.282 64.097a8.944 8.944 0 108.944 8.944 8.956 8.956 0 00-8.944-8.944zm0 11.925a2.98 2.98 0 110-5.96 2.98 2.98 0 010 5.96z" fill="#EA9D3A"/></svg>