<svg width="107" height="90" fill="none" xmlns="http://www.w3.org/2000/svg"><path d="M90.96 43.014l-4.203-1.484v-5.49a2.67 2.67 0 10-5.338 0v3.607l-8.114-2.864a7.731 7.731 0 00-5.128 0l-17.657 6.23a7.704 7.704 0 002.568 14.97c.1 0 .2-.021.3-.025v10.116a8.015 8.015 0 008.009 8.008h18.686a8.015 8.015 0 008.009-8.008v-10.11a7.696 7.696 0 002.868-14.95zM80.085 70.74H61.397a2.674 2.674 0 01-2.67-2.669V56.456l11.226-3.961c.51-.18 1.065-.18 1.575 0l11.225 3.96v11.617a2.674 2.674 0 01-2.67 2.67zm9.678-18.532a2.335 2.335 0 01-2.152.3l-14.305-5.05a7.732 7.732 0 00-5.128 0l-14.305 5.05a2.366 2.366 0 01-1.575-4.46l17.656-6.233a2.377 2.377 0 011.575 0l17.655 6.233a2.367 2.367 0 011.578 2.23 2.336 2.336 0 01-.999 1.93zM22.69 20.021a2.67 2.67 0 012.67-2.67h14.68a2.67 2.67 0 110 5.34H25.36a2.67 2.67 0 01-2.67-2.67zm2.67 14.682h14.68a2.67 2.67 0 100-5.339H25.36a2.67 2.67 0 100 5.34zm36.037-2.67a2.67 2.67 0 00-2.67-2.669H48.05a2.67 2.67 0 100 5.34h10.678a2.67 2.67 0 002.67-2.67zm-21.356 9.344h-2.67a2.67 2.67 0 100 5.34h2.67a2.67 2.67 0 100-5.34zm-14.682 5.34h4.004a2.67 2.67 0 100-5.34H25.36a2.67 2.67 0 100 5.34zm17.352 9.342a2.67 2.67 0 00-2.67-2.67H25.36a2.67 2.67 0 100 5.34h14.682a2.67 2.67 0 002.67-2.67zm-4.005 14.683h8.009a2.67 2.67 0 100-5.34h-8.009a2.67 2.67 0 100 5.34zm-13.347-5.34a2.669 2.669 0 100 5.34h5.34a2.67 2.67 0 100-5.34h-5.34zm49.386-41.377V30.7a2.67 2.67 0 11-5.34 0v-4.004H56.059a8.015 8.015 0 01-8.008-8.009V5.34H18.685a2.674 2.674 0 00-2.67 2.67v69.406a2.674 2.674 0 002.67 2.67h48.051c.656 0 1.29-.241 1.778-.678a2.667 2.667 0 013.794.19 2.67 2.67 0 01-.236 3.79 7.997 7.997 0 01-5.336 2.037h-48.05a8.016 8.016 0 01-8.01-8.009V8.01A8.015 8.015 0 0118.687 0H50.72a2.67 2.67 0 011.888.782l21.356 21.356c.5.5.782 1.18.782 1.887zm-9.115-2.67L53.39 9.116v9.571a2.675 2.675 0 002.67 2.67h9.571z" fill="#EA9D3A"/></svg>