<svg width="261" height="146" fill="none" xmlns="http://www.w3.org/2000/svg"><path d="M260.906.073l-1.253.5-.489.19-1.515-.084-1.421.666-2.516 1.707-.108.077-.942.243-.871-.373-.496.226-.167.999-.469.729-.58.403-2.011.2-1.695.871-2.202-.586-1.026.397-2.178 1.95-1.109.523-.389-.024-1.471-.076-.627.206-.931.889-1.759.136-.55.38-.858 1.717-.932.956-.529.113-.573-.213-.436.076-.197 1.102-.423.456-1.176.403-.942.782-.824.42-1.109-.03h-.251l-1.106.605-2.068.183-.864.819-.191.173-.399.243-.671.39-.16.093-.801-.144-.925.367-.375-.576-.644.386-.848.037-1.062-.47-.811-.363-.59.09-.204 1.019-.024.113-.619.819-1.157.699-.161.2-1.32 1.694-2.503 2.62-2.125 1.064-2.195.666-1.538 1.255-4.021 1.997-6.367 3.152-1.3.416-1.874.296-3.327 1.222-2.94.875-.167.053-.586.173-4.146 1.252-1.927-.206-1.145.416-2.976-.333-2.071.04-1.307.266-2.463 1.172-4.152 1.997-1.371 1.245-2.141 1.108-2.5.789v-1.042l-.017-.047-.871.273-.627.2-2.027.31h-1.126l-.704-.203-.107.036-4.152 1.358-4.628.443-2.312.736-1.729-.024-1.079.333-2.125.256-.757-.203-.175-.046-6.24.273-2.851-.333-1.361.31-2.285-.766-3.321-.386-.781-.23-1.752-.516-.788.456-.597.06-1.414-.51h-.506l-1.169.42-.67-.173-.627-.493-1.461-.22-.895-.745-4.993.666-1.341-.39-4.537-1.33-.72.036-.902.665-1.34.493-1.173.303-1.598.053-1.857-.486-1.913-.925-.711-.167-1.582.16-.482.04-2.899-1.548-3.74-2.33-2.537-1.215-.955-.153-.127.45.472 1.474.161 1.465-.047 1.351-.03.836.238.752.918.998.382.999.275 2.79v2.825l-.449 4.51-.147.666-.53 2.33-.483 2.143-1.883 5.712-.519.706-1.264.865-2.882 1.944-2.117 1.208-.67.28-1.72.13-1.072-.054-1.34-.715-1.307-.333-1.716-1.225-1.91-.39-2.095-1.201-.543-.646-1.139-.106-1.582-.473-.58-.173-.398-.12-2.01-.053-1.88-.859-.983-.236-1.34-.07-1.414.665-.724.333-.908-.362-.65.043-.748 1.115-.09.173-.513.273h-1.139l-.536.23-.728.313-.636.279-.315.136-.191.037-.335.06-.423.083-.75-.432-.399-.237-.67-.136-.359.26-.07 1.214-.335.723-1.04.918-1.062.926-.733 1.078-1.95 4.427-1.224 1.784-.382.416-1.283 1.405-1.133.872-2.614 2.013-2.476.919-2.128.433h-1.032l-1.968-.257-1.759-.539-1.94-1.201-2.125-1.701-3.076-3.016-.435-.26-.091-.06-.965-.615-.72.017-.282.462-.154.666-.131.586L0 82.496l.03.197.184 1.38 2.346 3.243.72 1.724.121.196.483.806.365.609.034.066.8 2.364-.56 1.331.283.895-.704.546-.13.776 2.094 2.613.459 1.148-.513 1.601-.811.875-.231.243.117.666.959.859 1.642 1.451.878 2.157.67.579.774-.166.429.332h.65l.643.639.412.197.67.333.52.665.12 2.067.966 2.56v1.588l.603 1.025.191.812-.335 2.143.77.686.828-.166.543.083.858.716 1.042 1.581 1.026-.147.65.31 3.13 2.812.71.356.037.024.513.249.64.639.985-.665h.107l1.073-.09.472.313.902.605h1.186l2.57.783 1.126.283 2.262 1.398.962.592.566.456.757.609 1.509.646 1.293.309.704.167.53.199v-.029l-.017.029 2.808 1.066 1.514.356 1.408.516 1.005.366h.751l1.062-.889 1.032-.06.855.213.834-.136 1.317-.812.255-.38.938-.439 3.154-.39.918.297 2.369-1.019 1.585.439 1.4-.495 3.074.665.81.576.912 1.032h.114l1.006.016-.423.706 1.34 1.391 1.21 1.818.084.243.878 2.559.67.912.46 1.268.023.823-.717.539-.114.309-.04.114.144.349.268-.146.513-.28.62-.097 1.099.114.72.076 1.147-.562.757-.38 1.216.523h1.34l.567.249 1.592.716.81.07.299-.196.191-.45-.094-.526-.613-.692-1.34-1.551-.55-.796-.422-1.154-.124-1.468-.094-.999.167-1.308.362-.463.262-1.035.067-.273.75-.998 1.974-1.262 2.125-1.89 1.675-1.102 1.73-.739.046-.213.198.077 4.397-1.488h.077l1.957-.333 13.23.925.489-.146.442-1.225.239-.226.16-.147 1.451-.639.671-.096 1.89.462.77.19 1.24-.686h.878l1.813-.998 1.119.03.423-.174 2.181-1.557 2.105-.599.542-.283.198-.107 2.155-1.131 1.371-1.042 1.179-.629 1.294-.333 3.381-.236.67-1.126 1.455-.189.874-.999 1.005-.403.724-1.038.607-.865.841-.486 2.708-.167 3.21.396.422-.259.728-2.567.757-.485 2.047-2.956v-1.981l.336-1.284-.228-2.33.268-2.33 1.27-2.996 1.119-1.201 1.806-1.215.918-.397 1.294-.213.198-.036.335-.053 4.48-.06c.06-.047 1.622-.024 1.622-.024l1.498-.016 3.777.665.268.047 1.277.41 1.467 1.138 1.562 1.51.291.284 1.006.42.305.136.834-.137 1.187-.609.894-.752 1.223-.666.031-.043.67-1.032.023-.016.275-.41 2.363-.912 2.774-.16.312-.166.174-.09.734-.859h.694l1.675.6 1.163-.23.932.366.72-.083 1.361-.16 1.468 1.025.847.107 3.016 1.74.154.024.084.016.168.03.358-.106.53-.153.07-.017.067.09.335.48.473.066.556-.736-.221-.333-.084-.12-1.076-.22-.965-1.633.919-.999-1.438-1.748-.238-.296-.084-.12-.496-.752-2.516-3.814-3.288-2.6-1.146-.912-.399-.313-1.752-1.77-1.254-1.665-.16-.356-.255-.556-.751-1.624-1.307-.998-1.069-1.155-.053-.07-2.195-2.97-.362-.492-.52-.303h-1.092l-.107-.106-.067-.067.04-.037.523-.522.586-.147.255-.569-1.119-3.215v-.113l-.084-1.032.911-4.66.114-.569 1.559-3.139.961-.782 1.049-2.057.908-1.308.858-.836.154-.09 1.558-.935 1.307-.183 1.247-.173 2.178.666 2.071-.037.406-.046.938-.1 1.545-.486.734-.45.375-.575.788-2.63.254-.835.483-.906 2.821-3.222 2.128-1.953 4.782-3.489 2.346-1.388 1.2-.712 10.683-4.716 2.772-2.796 1.451-1.458 2.56-1.7 2.996-1.223 2.577-2.026.559-.706.708-2.264.589-.143.53-1.148.154-.333 2.098-1.468.238-.12 8.166-4.064 1.186.16.637-.948 2.379-.39.436-.076.583-.29.496-.842v-.167l.07-2.256.506-.606.275-1.488.265-.333.275-.356.67-.47-.114-.282.02.073z" fill="#D57800"/><path d="M69 105V75.537l24.626-15.132V105H69z" fill="#fff"/><path d="M113.957 24v17.001l-.088 31.51-.087 32.489h-2.892V70.642l-3.506-2.047-.087 36.405h-2.98V66.814l-4.031-2.403-.088 40.589h-2.892V62.63l-3.68-2.224V36.55L113.957 24zM142 41.001L141.737 105h-2.892V39.043L142 41.001z" fill="#fff"/><path d="M134.814 36.55l-.088 68.45h-2.979V34.592l3.067 1.959z" fill="#A67154"/><path d="M127.803 32.1l-.175 72.9h-2.892V30.142l3.067 1.958zm-6.222-3.917L121.406 105h-2.892V26.225l3.067 1.958z" fill="#fff"/></svg>