<svg width="198" height="112" fill="none" xmlns="http://www.w3.org/2000/svg"><path d="M197.929.056l-.951.383-.371.146-1.149-.064-1.078.51-1.909 1.31-.082.06-.714.186-.661-.286-.376.173-.127.766-.356.56-.44.308-1.525.154-1.287.669-1.67-.45-.778.304-1.652 1.496-.842.401-.295-.018-1.116-.058-.475.158-.707.682-1.335.104-.416.291-.651 1.318-.707.733-.402.086-.434-.163-.331.059-.15.845-.32.35-.892.309-.715.6-.625.322-.842-.024h-.19l-.839.465-1.569.14-.656.629-.144.133-.303.186-.509.299-.122.071-.607-.11-.702.281-.284-.441-.489.296-.643.028-.806-.36-.615-.279-.447.07-.155.78-.018.088-.47.628-.878.536-.122.153-1.001 1.3-1.899 2.01-1.612.816-1.665.51-1.167.963L150.585 23l-4.83 2.419-.986.319-1.422.227-2.524.937-2.229.672-.127.04-.445.133-3.145.96-1.462-.158-.869.32-2.258-.256-1.571.03-.991.205-1.869.899-3.149 1.532-1.04.954-1.625.85-1.896.606v-.8l-.013-.035-.661.21-.476.153-1.537.237h-.855l-.534-.156-.081.028-3.15 1.042-3.51.34-1.754.564-1.312-.018-.819.255-1.612.197-.574-.156-.132-.035-4.734.209-2.163-.255-1.032.237-1.734-.587-2.52-.297-.592-.176-1.33-.395-.597.35-.453.045-1.072-.39h-.384l-.888.321-.508-.132-.475-.378-1.109-.169-.678-.572-3.788.511-1.017-.299-3.442-1.021-.547.028-.684.51-1.017.379-.89.232-1.212.04-1.408-.372-1.452-.71-.539-.128-1.2.123-.366.03-2.199-1.187-2.837-1.787-1.925-.932-.724-.117-.097.344.359 1.131.122 1.124-.036 1.037-.023.64.18.578.697.766.29.765.209 2.14v2.168l-.341 3.46-.112.51-.402 1.788-.366 1.644-1.428 4.382-.394.541-.959.664-2.186 1.491-1.607.927-.508.214-1.304.1-.814-.04-1.017-.55-.991-.255-1.302-.94-1.449-.299-1.589-.921-.412-.496-.864-.081-1.2-.363-.44-.133-.302-.092-1.526-.04-1.426-.66-.745-.18-1.017-.054-1.072.51-.55.256-.688-.279-.494.034-.566.855-.07.133-.388.21h-.864l-.407.175-.552.24-.483.215-.239.105-.145.028-.254.046-.32.063-.57-.331-.302-.182-.509-.104-.272.199-.053.932-.254.554-.788.704-.806.71-.557.828-1.48 3.395-.928 1.37-.29.318-.973 1.078-.86.669-1.982 1.545-1.879.704-1.614.332h-.783l-1.493-.196-1.334-.414-1.472-.922-1.612-1.305-2.333-2.313-.33-.199-.07-.046-.732-.472-.546.012-.214.355-.117.511-.1.45L0 63.284l.023.15.14 1.06 1.78 2.487.546 1.323.091.15.367.618.277.467.025.051.607 1.813-.424 1.022.214.686-.534.42-.1.594 1.59 2.005.348.88-.39 1.229-.614.671-.176.186.09.511.726.659 1.246 1.113.666 1.655.508.444.588-.127.325.255h.493l.488.49.313.15.508.256.395.51.091 1.586.732 1.964v1.218l.458.787.145.623-.254 1.645.584.526.628-.128.412.064.65.549.791 1.212.778-.112.493.238L18 97.34l.539.273.028.018.389.192.485.49.748-.51h.081l.814-.07.358.24.684.465h.9l1.95.6.854.217 1.716 1.073.73.454.43.35.574.467 1.144.496.981.237.534.128.402.153v-.023l-.013.023 2.13.817 1.15.273 1.067.396.763.281h.57l.805-.682.783-.046.648.163.633-.104 1-.623.192-.291.712-.337 2.393-.299.696.227 1.797-.781 1.203.337 1.063-.381 2.33.511.616.442.691.791h.087l.763.013-.32.541 1.016 1.068.918 1.394.063.186.667 1.964.508.699.348.973.018.631-.544.414-.086.237-.031.087.11.268.203-.112.389-.215.47-.074.834.087.546.059.87-.432.574-.291.923.401h1.017l.43.191 1.207.549.616.054.226-.151.145-.344-.072-.404-.465-.531-1.017-1.19-.416-.61-.32-.886-.095-1.126-.071-.766.127-1.003.275-.355.198-.795.05-.209.57-.766 1.498-.968 1.611-1.45 1.271-.845 1.312-.567.036-.163.15.058 3.335-1.14h.059l1.484-.256 10.037.71.371-.113.336-.94.18-.173.122-.112 1.1-.49.51-.075 1.433.355.585.146.94-.526h.666l1.376-.766.849.023.32-.133 1.655-1.195 1.597-.46.412-.217.15-.081 1.634-.868 1.04-.8.895-.482.981-.256 2.565-.18.509-.864 1.103-.145.664-.767.762-.308.549-.797.461-.664.638-.373 2.054-.127 2.435.303.32-.199.552-1.968.575-.373 1.553-2.267v-1.52l.254-.985-.173-1.788.204-1.787.963-2.298.849-.922 1.37-.932.697-.304.981-.163.15-.028.255-.04 3.398-.047c.046-.036 1.231-.018 1.231-.018l1.136-.013 2.865.511.204.036.968.314 1.114.873 1.185 1.16.221.216.762.322.232.105.633-.105.9-.467.678-.577.928-.51.023-.034.509-.792.017-.012.209-.314 1.792-.7 2.105-.123.237-.127.132-.07.556-.658h.527l1.271.46.882-.176.707.28.546-.063 1.032-.123 1.114.786.643.082 2.288 1.335.117.018.064.013.127.023.272-.082.401-.117.054-.013.05.07.255.367.358.05.422-.563-.167-.256-.064-.092-.816-.168-.732-1.254.696-.766-1.09-1.34-.181-.228-.063-.092-.377-.577-1.909-2.926-2.494-1.994-.869-.7-.303-.24-1.329-1.358-.951-1.277-.122-.273-.193-.426-.57-1.246-.991-.766-.811-.886-.041-.054-1.665-2.277-.274-.378-.395-.233h-.828l-.082-.081-.051-.051.031-.029.397-.4.444-.113.194-.436-.849-2.467v-.087l-.064-.791.691-3.575.087-.437 1.182-2.407.73-.6.795-1.578.689-1.004.651-.64.117-.07 1.182-.717.992-.14.945-.133 1.653.51 1.571-.028.307-.036.712-.076 1.172-.373.557-.345.285-.441.597-2.017.193-.641.367-.695 2.14-2.472 1.614-1.498 3.628-2.676 1.779-1.065.911-.546 8.104-3.619 2.103-2.144 1.1-1.119 1.943-1.304 2.272-.938 1.955-1.555.425-.54.536-1.737.448-.11.401-.88.117-.256 1.592-1.126.18-.092L192.1 6.4l.9.123.484-.728 1.804-.299.331-.058.442-.223.377-.645v-.128l.053-1.731.384-.465.208-1.141.201-.256.209-.273.508-.36-.086-.217.015.056z" fill="#D57800"/><circle cx="29.709" cy="72.047" r="4.709" fill="#EBEBEB"/><path d="M51.25 69.23c.08 0 .16.017.24.05.08.027.156.077.23.15l1.34 1.41a5.595 5.595 0 01-2.21 1.74c-.88.387-1.924.58-3.13.58-1.107 0-2.1-.187-2.98-.56a6.594 6.594 0 01-2.23-1.56 6.977 6.977 0 01-1.4-2.36c-.327-.913-.49-1.903-.49-2.97 0-1.087.176-2.083.53-2.99.353-.913.85-1.7 1.49-2.36a6.71 6.71 0 012.3-1.54c.893-.367 1.876-.55 2.95-.55.546 0 1.06.05 1.54.15.486.093.94.227 1.36.4a6.082 6.082 0 012.1 1.39l-1.14 1.53c-.074.093-.16.18-.26.26-.1.073-.24.11-.42.11a.75.75 0 01-.34-.08 4.624 4.624 0 01-.34-.19 8.743 8.743 0 00-.4-.25 2.423 2.423 0 00-.51-.25 3.726 3.726 0 00-.69-.2 4.633 4.633 0 00-.92-.08 3.76 3.76 0 00-1.54.31c-.46.207-.86.51-1.2.91-.334.393-.594.88-.78 1.46-.18.573-.27 1.23-.27 1.97 0 .747.1 1.41.3 1.99.206.58.483 1.07.83 1.47a3.601 3.601 0 002.73 1.21c.306 0 .586-.013.84-.04.253-.033.49-.083.71-.15a3.26 3.26 0 00.62-.28 4.2 4.2 0 00.59-.45c.08-.067.166-.12.26-.16a.64.64 0 01.29-.07zm10.265-1.77V73h-3.38v-5.54l-5.28-9.03h2.98c.293 0 .523.07.69.21.173.133.317.307.43.52l2.06 4.24c.173.333.33.647.47.94.14.287.263.57.37.85.1-.287.213-.573.34-.86.133-.293.287-.603.46-.93l2.04-4.24c.047-.087.103-.173.17-.26.067-.087.143-.163.23-.23a1.08 1.08 0 01.31-.17c.12-.047.25-.07.39-.07h3l-5.28 9.03zm11.558-1.88c.88 0 1.514-.21 1.9-.63.387-.42.58-1.007.58-1.76 0-.333-.05-.637-.15-.91a1.782 1.782 0 00-.46-.7c-.2-.2-.456-.353-.77-.46-.306-.107-.673-.16-1.1-.16h-1.76v4.62h1.76zm0-7.15c1.027 0 1.907.123 2.64.37.74.24 1.347.573 1.82 1 .48.427.834.93 1.06 1.51.227.58.34 1.207.34 1.88 0 .727-.116 1.393-.35 2a4.013 4.013 0 01-1.07 1.56c-.48.433-1.09.773-1.83 1.02-.733.24-1.603.36-2.61.36h-1.76V73h-3.38V58.43h5.14zm12.315 6.85c.46 0 .85-.057 1.17-.17a2.17 2.17 0 00.8-.49 1.85 1.85 0 00.45-.72c.094-.28.14-.58.14-.9 0-.64-.21-1.14-.63-1.5-.413-.36-1.056-.54-1.93-.54h-1.36v4.32h1.36zm7.18 7.72h-3.06c-.566 0-.973-.213-1.22-.64l-2.42-4.23a1.12 1.12 0 00-.38-.39c-.14-.087-.34-.13-.6-.13h-.86V73h-3.38V58.43h4.74c1.054 0 1.95.11 2.69.33.747.213 1.354.513 1.82.9.474.387.817.843 1.03 1.37.214.527.32 1.1.32 1.72 0 .473-.063.92-.19 1.34-.126.42-.313.81-.56 1.17-.246.353-.553.67-.92.95-.36.28-.776.51-1.25.69.22.113.427.257.62.43.194.167.367.367.52.6l3.1 5.07zm7.149-2.67a3.13 3.13 0 001.21-.22c.36-.153.663-.37.91-.65.246-.28.433-.62.56-1.02.133-.407.2-.867.2-1.38v-8.63h3.38v8.63c0 .893-.147 1.713-.44 2.46-.287.747-.7 1.39-1.24 1.93s-1.197.96-1.97 1.26c-.774.3-1.644.45-2.61.45-.974 0-1.847-.15-2.62-.45-.774-.3-1.43-.72-1.97-1.26a5.459 5.459 0 01-1.24-1.93c-.287-.747-.43-1.567-.43-2.46v-8.63h3.38v8.62c0 .513.063.973.19 1.38.133.4.323.743.57 1.03.246.28.546.497.9.65a3.2 3.2 0 001.22.22zm16.95-8.94c-.1.16-.207.28-.32.36a.684.684 0 01-.42.12c-.153 0-.32-.047-.5-.14-.173-.1-.373-.21-.6-.33a4.479 4.479 0 00-.76-.32c-.287-.1-.613-.15-.98-.15-.633 0-1.107.137-1.42.41-.307.267-.46.63-.46 1.09 0 .293.093.537.28.73.187.193.43.36.73.5.307.14.653.27 1.04.39.393.113.793.243 1.2.39.407.14.803.307 1.19.5.393.193.74.44 1.04.74.307.3.553.667.74 1.1.187.427.28.943.28 1.55 0 .673-.117 1.303-.35 1.89a4.433 4.433 0 01-1.02 1.54c-.44.433-.987.777-1.64 1.03-.647.247-1.383.37-2.21.37-.453 0-.917-.047-1.39-.14a8.569 8.569 0 01-1.36-.39 8.256 8.256 0 01-1.24-.61 5.266 5.266 0 01-1.01-.78l1-1.58a.962.962 0 01.31-.28.821.821 0 01.43-.12c.2 0 .4.063.6.19l.69.42c.26.153.557.293.89.42.333.127.727.19 1.18.19.613 0 1.09-.133 1.43-.4.34-.273.51-.703.51-1.29 0-.34-.093-.617-.28-.83a2.153 2.153 0 00-.74-.53c-.3-.14-.643-.263-1.03-.37a37.86 37.86 0 01-1.19-.35 9.639 9.639 0 01-1.19-.48 3.975 3.975 0 01-1.04-.75c-.3-.313-.543-.7-.73-1.16-.187-.467-.28-1.04-.28-1.72a4.126 4.126 0 011.3-2.99c.427-.407.95-.73 1.57-.97.62-.247 1.33-.37 2.13-.37.447 0 .88.037 1.3.11.427.067.83.17 1.21.31.38.133.733.297 1.06.49.333.187.63.4.89.64l-.84 1.57z" fill="#EBEBEB" fill-opacity=".6"/></svg>