<svg width="1920" height="1109" fill="none" xmlns="http://www.w3.org/2000/svg"><path d="M1961.19-19.843l-9.61 3.845-3.75 1.464-11.63-.642-10.9 5.269-19.33 13.187-.82.595-7.23 1.876-6.69-2.888-3.79 1.742-1.29 7.838-3.61 5.63-4.44 3.113-15.42 1.557-13 6.73-16.9-4.53-7.88 3.067-16.71 15.06-8.52 4.033-2.97-.184-11.31-.595-4.81 1.603-7.14 6.87-13.51 1.054-4.21 2.933-6.59 13.276-7.14 7.372-4.08.873-4.4-1.651-3.34.594-1.52 8.515-3.25 3.54-9.02 3.112-7.23 6.048-6.32 3.248-8.52-.23h-1.92l-8.48 4.67-15.88 1.421-6.65 6.321-1.46 1.33-3.06 1.876-5.04 3.033-1.24.731-6.14-1.097-7.09 2.837-2.89-4.438-4.94 2.974-6.5.275-8.16-3.618-6.22-2.781-4.53.685-1.56 7.879-.18.869-4.77 6.321-8.88 5.405-1.23 1.555-10.12 13.097-19.23 20.226-16.3 8.242-16.85 5.13-11.81 9.706-31 15.339-48.86 24.36-9.98 3.204-14.38 2.29-25.55 9.433-22.57 6.779-1.28.409-4.49 1.327-31.82 9.664-14.79-1.606-8.8 3.206-22.85-2.528-15.88.321-10.03 2.063-18.91 9.064-31.86 15.341-10.53 9.608-16.43 8.566-19.18 6.085.04-8.057-.14-.364-6.68 2.106-4.81 1.56-15.56 2.379h-8.66l-5.4-1.558-.83.276-31.85 10.485-35.54 3.436-17.76 5.676-13.28-.188-8.29 2.476-16.298 1.969-5.815-1.56-1.327-.361-47.896 2.103-21.887-2.472-10.44 2.381-17.536-5.908-25.503-2.976-5.999-1.783-13.466-3.984-6.042 3.539-4.579.455-10.849-3.939-3.891-.093-8.975 3.251-5.173-1.327-4.804-3.792-11.218-1.692-6.867-5.775-38.329 5.082-10.391-3.016-34.844-10.169-5.543.276-6.914 5.175-10.394 3.793-9.021 2.336-12.27.407-14.239-3.755-14.7-7.142-5.451-1.279-12.135 1.236-3.709.321-22.249-11.949-28.709-17.905-19.468-9.39-7.331-1.188-.964 3.479 3.616 11.402 1.239 11.312-.367 10.439-.228 6.455 1.831 5.815 7.049 7.784 2.933 7.838 2.105 21.566v21.842l-3.435 34.848-1.211 5.236-4.079 18.087-3.709 16.575-14.464 44.144-3.987 5.446-9.709 6.687-22.114 15.016-16.255 9.334-5.127 2.154-13.188 1.012-8.239-.412-10.258-5.542-10.029-2.607-13.188-9.481-14.664-3.034-16.07-9.294-4.166-4.991-8.745-.824-12.136-3.666-4.442-1.327-3.067-.916-15.521-.412-14.424-6.639-7.557-1.831-10.397-.551-10.846 5.082-5.542 2.566-6.96-2.781-4.989.319-5.721 8.596-.69 1.33-3.937 2.106-4.902-.094-3.841-.086-4.121 1.783-5.587 2.427-4.9 2.152-2.425 1.056-.048-.048-1.466.276-2.607.458-3.254.642-5.769-3.348-3.064-1.83-5.128-1.052-2.745 2.023-.554 9.385-2.528 5.59-7.967 7.094-8.154 7.142-5.63 8.344-14.958 34.192-9.385 13.782-2.932 3.206-9.861 10.851-8.697 6.733-20.059 15.567-18.998 7.094-16.348 3.347h-7.92l-15.11-1.972-13.508-4.169-14.882-9.294-16.297-13.147-23.63-23.311-3.342-2.022-.688-.458-7.418-4.763-5.542.139-2.151 3.57-1.188 5.173-1.012 4.533-2.7 25.965.228 1.517 1.423 10.67 17.903 25.045 5.54 13.326.917 1.517 3.707 6.228 2.796 4.717.275.506 6.136 18.272-4.298 10.346 2.152 6.917-5.405 4.212-1.012 5.997L4.43 746.707l3.543 8.881-3.937 12.364-6.227 6.776-1.785 1.881.915 5.221 7.37 6.636 12.593 11.218 6.736 16.669 5.082 4.49 5.949-1.286 3.286 2.528 4.991-.091 4.946 4.945 3.16 1.517 5.036 2.528 3.985 5.173.915 15.981 7.42 19.784.089 10.761.048 1.517 4.624 7.916 1.464 6.275-2.47 16.575 5.906 5.31 6.364-1.285 4.166.642 6.594 5.542 8.012 12.225 7.878-1.143 4.989 2.379 24.041 21.743 5.451 2.748.273.183 3.942 1.921 4.9 4.948 7.552-5.036.824-.091 8.242-.688 3.613 2.427 6.917 4.67 9.102-.089 19.736 6.043 8.654 2.197 17.354 10.808 7.375 4.579 4.349 3.524 5.815 4.717 11.587 4.99 9.936 2.38 5.403 1.28 4.073 1.56.096-.23h.091l-.139.23 21.567 8.24 11.63 2.75 10.808 3.98 7.838 2.84 5.767.09 8.153-6.86 7.924-.46 6.548 1.65 6.407-1.05 10.113-6.27 1.97-2.94 7.185-3.39 24.226-3.03 7.049 2.29 18.178-7.87 12.179 3.38 10.763-3.84 23.579 5.22 6.227 4.44 7.006 7.97.869.04 7.785.14-3.251 5.45 10.254 10.76 9.297 14.06.639 1.87 6.733 19.79 5.037 7.05 3.527 9.8.184 6.36-5.496 4.17-.873 2.38-.316.87 1.095 2.7 2.06-1.14 3.94-2.16 4.763-.73 8.424.87 5.537.6 8.796-4.35 5.815-2.93 9.342 4.02 10.255-.09 4.346 1.93 12.224 5.54 6.23.54 2.293-1.51 1.464-3.49-.731-4.07-4.718-5.36-10.3-12-4.217-6.13-3.251-8.93-.964-11.36-.733-7.69 1.285-10.11 2.796-3.58 2.022-8.01h.046l.506-2.11 5.769-7.6 15.17-9.75 16.297-14.609 12.869-8.515 13.279-5.724.364-1.646 1.517.594 33.75-11.491.594-.048 15.018-2.607 101.558 7.143 3.752-1.146v-.045l3.391-9.479 1.83-1.742 1.239-1.14 11.125-4.948 5.22-.73 14.515 3.567 5.904 1.466 9.529-5.309 6.73.091 13.921-7.598 8.609.228 3.249-1.327 16.762-12.043 16.163-4.626 4.17-2.197 1.516-.825 16.51-8.75 10.53-8.06 9.064-4.859 9.939-2.562 25.968-1.828 5.26-8.702 11.17-1.464 6.73-7.648 7.74-3.112 5.55-8.012 4.66-6.688 6.46-3.754 20.79-1.282 24.63 3.067 3.25-2.023 5.59-19.829 5.81-3.755 15.71-22.848.05-8.343v-6.96l2.56-9.937-1.74-17.902 2.06-18.088 9.75-23.032 8.6-9.297 13.88-9.387 7.05-3.065 9.93-1.653 1.52-.276 2.53-.407 34.38-.457c.46-.364 12.46-.187 12.46-.187l11.49-.139 28.99 5.129 2.06.367 9.8 3.16 11.26 8.789 12 11.678 2.24 2.199 7.74 3.252 2.33 1.049 6.41-1.049 9.12-4.718 6.87-5.815 9.38-5.13.23-.316 5.27-7.967.18-.141h.09v-.046h-.09l2.11-3.16 18.13-7.051 21.29-1.234 2.38-1.282 1.33-.685 5.63-6.639 5.31-.048 12.78 4.626 8.93-1.787 7.14 2.839 5.54-.64 10.44-1.233 11.27 7.918 6.5.827 23.07 13.463 1.2.185.64.136 1.28.23 2.74-.827 4.08-1.188.55-.139.51.688 2.6 3.706 3.62.506 4.26-5.676-1.69-2.564-.64-.918-8.24-1.691-7.42-12.641 7.05-7.603-11.04-13.506-1.83-2.291-.64-.912-3.79-5.815-19.33-29.49-25.23-20.098-8.79-7.054-.09-.045-3.07-2.425-13.46-13.69-9.61-12.776-1.23-2.75-1.98-4.299-5.76-12.547-10.03-7.739-8.2-8.925-.41-.546-16.85-22.942-2.78-3.792-3.98-2.332-8.38-.048-.83-.824-.5-.505.32-.276 4.03-4.028 4.49-1.142 1.97-4.397-8.6-24.861-.05-.872-.64-7.964 7.01-36.084.87-4.394 11.95-24.271 7.37-6.043 8.06-15.888 6.96-10.113 6.59-6.457 1.19-.685 11.96-7.234 10.02-1.42 9.57-1.328 16.72 5.127 15.89-.278 3.11-.369 7.19-.773 11.86-3.755 5.62-3.481 2.89-4.442 6.05-20.33 1.96-6.455 3.71-7.006 21.66-24.909 16.35-15.109 36.72-26.969 17.99-10.715 9.21-5.499 82.01-36.447 21.29-21.61 11.12-11.263 19.65-13.147 22.98-9.433 19.79-15.658 4.29-5.453 5.45-17.488 4.54-1.098 4.07-8.882 1.19-2.528 16.12-11.354 1.83-.918 62.68-31.411 9.11 1.236 4.9-7.332 18.27-3.034 3.34-.594 4.48-2.245 3.8-6.503v-1.28l.54-17.445 3.9-4.67 2.11-11.493 2.02-2.66 2.11-2.745 5.12-3.618-.87-2.2.11.157z" fill="#F7F6F6" fill-opacity=".8"/></svg>