<svg width="109" height="90" fill="none" xmlns="http://www.w3.org/2000/svg"><g clip-path="url(#clip0_89_592)"><path d="M43.448 38.017a2.716 2.716 0 012.716 2.716v.475a8.152 8.152 0 015.43 7.671 2.715 2.715 0 11-5.43 0 2.716 2.716 0 10-2.716 2.716 8.14 8.14 0 012.716 15.818v.475a2.715 2.715 0 11-5.431 0v-.475a8.152 8.152 0 01-5.431-7.672 2.715 2.715 0 115.43 0 2.716 2.716 0 102.716-2.715 8.14 8.14 0 01-2.715-15.818v-.475a2.716 2.716 0 012.715-2.716zm29.359 19.474a2.715 2.715 0 00-3.18 2.155 26.937 26.937 0 01-26.426 21.82 26.553 26.553 0 01-13.123-3.446 2.696 2.696 0 00-2.003-.273l-10.362 2.597 3.033-9.13a2.717 2.717 0 00-.29-2.323 26.486 26.486 0 01-4.163-14.333 26.991 26.991 0 0123.25-26.66 2.716 2.716 0 10-.733-5.38 32.445 32.445 0 00-27.949 32.04A31.954 31.954 0 0015.194 70.7L11 83.326a2.715 2.715 0 003.237 3.491l14.128-3.544a32.03 32.03 0 0014.836 3.625 32.372 32.372 0 0031.76-26.227 2.714 2.714 0 00-2.155-3.178v-.002zM94.57 37.113a24.651 24.651 0 003.188-12.18 24.97 24.97 0 10-13.722 22.256l10.347 2.595h-.001a2.713 2.713 0 003.238-3.49l-3.05-9.181zm-5.548.525l1.885 5.676-6.572-1.648a2.701 2.701 0 00-2.005.275 19.23 19.23 0 01-9.506 2.495 19.504 19.504 0 01-13.79-33.293 19.502 19.502 0 0133.293 13.79 19.181 19.181 0 01-3.015 10.383 2.714 2.714 0 00-.29 2.322zm-1.817-15.343l-3.025-2.353v-5.007a2.715 2.715 0 10-5.43 0v.783l-3.764-2.927a2.72 2.72 0 00-3.335 0l-12.22 9.504a2.71 2.71 0 003.025 4.482v4.451a5.434 5.434 0 005.431 5.431H78.75a5.435 5.435 0 005.431-5.43V26.75a2.698 2.698 0 004.069-2.067 2.697 2.697 0 00-1.043-2.388zm-11.171 8.933V29.87a2.715 2.715 0 10-5.431 0v1.358h-2.716V22.6l5.431-4.225L78.75 22.6v8.628h-2.715z" fill="#EA9D3A"/></g><defs><clipPath id="clip0_89_592"><path fill="#fff" d="M0 0h108.621v90H0z"/></clipPath></defs></svg>