<svg width="40" height="40" fill="none" xmlns="http://www.w3.org/2000/svg"><path d="M18.984 14.487v2.478H17.17v3.03h1.814V29h3.73v-9.005h2.502s.236-1.453.35-3.042h-2.838v-2.07c0-.312.407-.728.81-.728h2.03V11h-2.762c-3.914 0-3.822 3.033-3.822 3.487z" fill="#EA9D3A"/><path d="M10.533 5.6a3.6 3.6 0 00-3.6 3.6v21.6a3.6 3.6 0 003.6 3.6h21.6a3.6 3.6 0 003.6-3.6V9.2a3.6 3.6 0 00-3.6-3.6h-21.6zm0-3.6h21.6a7.2 7.2 0 017.2 7.2v21.6a7.2 7.2 0 01-7.2 7.2h-21.6a7.2 7.2 0 01-7.2-7.2V9.2a7.2 7.2 0 017.2-7.2z" fill="#EA9D3A"/></svg>