<svg width="104" height="90" fill="none" xmlns="http://www.w3.org/2000/svg"><path d="M32.554 38.73A21.947 21.947 0 1054.5 60.676a21.969 21.969 0 00-21.947-21.947zm0 38.73a16.783 16.783 0 1116.782-16.784A16.804 16.804 0 0132.554 77.46zm-2.582-21.948a2.587 2.587 0 002.581 2.582 7.74 7.74 0 012.583 15.04v.452a2.582 2.582 0 11-5.164 0v-.452a7.751 7.751 0 01-5.164-7.294 2.582 2.582 0 115.164 0 2.583 2.583 0 102.581-2.582 7.74 7.74 0 01-2.581-15.04v-.452a2.582 2.582 0 115.163 0v.452a7.751 7.751 0 015.164 7.294 2.582 2.582 0 11-5.163 0 2.582 2.582 0 10-5.164 0zm59.385-38.53V7.746a7.745 7.745 0 10-15.492 0v.552L62.158 1.742a7.799 7.799 0 00-7.57 0l-27.11 15.182a7.762 7.762 0 00-3.961 6.76 8.368 8.368 0 009.037 8.345v1.537a2.582 2.582 0 105.163 0V30.02l19.395-10.86v-.001a2.598 2.598 0 012.524 0l19.394 10.86v25.494a2.586 2.586 0 01-2.582 2.582h-7.746V41.312a7.752 7.752 0 00-7.746-7.746h-5.164a7.77 7.77 0 00-7.035 4.502 2.581 2.581 0 104.688 2.165 2.59 2.59 0 012.348-1.503h5.164a2.587 2.587 0 012.581 2.582v16.782h-2.581a2.582 2.582 0 100 5.164h15.491a7.753 7.753 0 007.746-7.746V32.027c.222.018.442.042.664.042a8.401 8.401 0 008.373-8.386 7.75 7.75 0 00-3.873-6.701h-.001zM79.029 7.746a2.582 2.582 0 115.164 0v6.336l-5.164-2.892V7.746zm7.449 18.707a3.152 3.152 0 01-3.193.03l-21.128-11.83a7.799 7.799 0 00-7.57 0L33.46 26.483a3.21 3.21 0 01-4.78-2.8A2.583 2.583 0 0130 21.43L57.11 6.249a2.6 2.6 0 012.524 0L86.745 21.43a2.585 2.585 0 011.32 2.252 3.16 3.16 0 01-1.587 2.77z" fill="#EA9D3A"/></svg>