<svg width="80" height="80" fill="none" xmlns="http://www.w3.org/2000/svg"><path d="M10 46.25a2.5 2.5 0 115.001 0 2.5 2.5 0 01-5.001 0zm37.5 2.5a2.5 2.5 0 100-5.001 2.5 2.5 0 000 5.001zM80 16.429a8.304 8.304 0 01-8.3 8.304c-.151 0-.301-.012-.45-.02V41.25a7.45 7.45 0 01-2.197 5.303 2.5 2.5 0 01-3.535-3.536c.47-.468.733-1.104.732-1.767V23.192l-12.822-5.128a2.49 2.49 0 00-1.857 0L38.75 23.193V25a2.5 2.5 0 11-5 0v-.294A8.295 8.295 0 0130.22 8.72L49.714.922a7.461 7.461 0 015.57-.002L66.25 5.307V2.5a2.5 2.5 0 115 0v4.808l3.53 1.412A8.26 8.26 0 0180 16.428zm-5 0a3.284 3.284 0 00-2.076-3.066l-19.496-7.8a2.504 2.504 0 00-1.857.001l-19.495 7.8a3.303 3.303 0 102.454 6.131l15.184-6.074a7.476 7.476 0 015.57 0l15.188 6.075v.001A3.302 3.302 0 0075 16.43zM60 37.5v35a7.507 7.507 0 01-7.5 7.5h-45A7.507 7.507 0 010 72.5v-35A7.507 7.507 0 017.5 30h45a7.507 7.507 0 017.5 7.5zm-5 24.563a7.447 7.447 0 01-2.5.437h-45a7.446 7.446 0 01-2.5-.437v1.687a2.501 2.501 0 002.5 2.5h45a2.504 2.504 0 002.5-2.5v-1.687zM5 55a2.501 2.501 0 002.5 2.5h45A2.504 2.504 0 0055 55V37.5a2.504 2.504 0 00-2.5-2.5h-45A2.501 2.501 0 005 37.5V55zm50 17.5v-1.687a7.447 7.447 0 01-2.5.437h-45a7.446 7.446 0 01-2.5-.437V72.5A2.501 2.501 0 007.5 75h45a2.504 2.504 0 002.5-2.5zM28.517 48.75h2.967a1.018 1.018 0 01.673 1.779c-.22.19-.51.28-.8.246l-6.047-.755a2.502 2.502 0 00-2.822 2.166 2.498 2.498 0 002.202 2.795l6.048.755a6.016 6.016 0 10.747-11.986h-2.968a1.018 1.018 0 01-.673-1.778c.22-.19.51-.28.8-.247l6.047.756a2.5 2.5 0 00.62-4.961l-6.048-.756a6.016 6.016 0 10-.746 11.986z" fill="#EA9D3A"/></svg>