<svg width="134" height="76" fill="none" xmlns="http://www.w3.org/2000/svg"><mask id="a" fill="#fff"><path d="M133.952.038l-.644.26-.251.099-.777-.044-.73.347-1.292.889-.055.04-.484.126-.447-.194-.255.118-.086.52-.24.38-.298.209-1.032.104-.871.454-1.13-.305-.527.206-1.118 1.015-.569.272-.2-.012-.755-.04-.322.108-.478.462-.904.071-.282.198-.44.894-.479.497-.271.06-.295-.112-.223.04-.102.574-.217.237-.603.21-.484.407-.423.218-.57-.015h-.129l-.567.315-1.062.095-.444.426-.098.09-.205.127-.344.203-.082.048-.412-.074-.474.19-.193-.3-.33.201-.436.02-.545-.245-.416-.189-.303.047-.105.53-.012.06-.318.425-.594.364-.083.104-.677.882-1.286 1.364-1.091.554-1.126.347-.79.653-2.065 1.04-3.269 1.64-.667.217-.962.154-1.708.636-1.51.456-.085.027-.301.09-2.129.652-.989-.108-.588.217-1.528-.173-1.063.02-.671.14-1.265.61-2.132 1.039-.703.648-1.1.577-1.283.41v-.542l-.009-.024-.447.142-.322.104-1.04.16h-.579l-.361-.105-.055.02-2.132.706-2.376.23-1.187.384-.888-.013-.554.174-1.09.133-.39-.106-.089-.024-3.203.142-1.464-.173-.699.161-1.173-.398-1.705-.201-.401-.12-.9-.269-.404.238-.307.031-.726-.265h-.26l-.6.218-.344-.09-.322-.256-.75-.115-.46-.388-2.563.347-.688-.203-2.33-.693-.37.02-.462.346-.688.256-.603.158-.82.027-.953-.253-.983-.481-.364-.087-.813.083-.247.021-1.488-.806-1.92-1.212-1.303-.633-.49-.08-.066.234.243.768.082.762-.024.704-.015.435.122.391.471.52.197.52.14 1.452v1.47l-.23 2.348-.076.347-.271 1.213-.248 1.116-.967 2.973-.267.367-.648.45-1.48 1.013-1.087.628-.344.146-.883.068-.55-.028-.689-.373-.67-.173-.882-.638-.98-.202-1.076-.626-.278-.336-.585-.055-.813-.246-.297-.09-.205-.063-1.032-.028-.965-.447-.504-.123-.689-.036-.726.346-.371.174-.466-.189-.334.023-.384.58-.047.09-.263.142h-.584l-.276.12-.373.163-.327.145-.162.071-.098.02-.172.03-.217.044-.385-.226-.205-.123-.344-.07-.184.134-.036.633-.172.376-.534.478-.545.482-.377.561-1.001 2.304-.628.93-.196.216-.66.73-.58.455-1.343 1.048-1.271.478-1.093.226h-.53l-1.01-.134-.903-.28-.996-.626-1.09-.885-1.58-1.57-.224-.135-.046-.032-.496-.32-.37.009-.144.24-.08.347-.066.305L0 42.943l.016.102.094.72 1.205 1.687.37.898.061.102.248.419.188.317.017.035.41 1.23-.286.693.144.466-.361.284-.067.404 1.075 1.36.236.598-.263.833-.417.456-.118.126.06.347.492.447.843.755.45 1.123.345.302.397-.087.22.173h.334l.33.333.212.102.344.173.267.347.062 1.076.495 1.332v.827l.31.533.098.423-.172 1.116.396.357.425-.087.278.044.44.372.536.823.526-.076.334.16 1.607 1.465.365.185.019.013.263.13.329.332.505-.346h.055l.55-.047.244.163.462.315h.61l1.319.407.578.148 1.162.727.493.309.291.237.389.317.774.336.664.161.361.087.272.104v-.016l-.008.016 1.442.554.777.186.723.268.516.19h.385l.546-.462.53-.031.438.11.429-.07.676-.423.13-.197.482-.23 1.62-.202.47.154 1.217-.53.814.229.719-.258 1.578.346.416.3.468.537h.059l.516.009-.217.367.688.724.621.946.043.127.451 1.332.344.475.236.66.012.428-.368.28-.059.162-.02.059.074.182.137-.076.263-.146.319-.05.564.059.37.04.588-.293.39-.198.624.272h.688l.29.13.818.373.416.036.153-.102.099-.234-.049-.274-.315-.36-.688-.808-.282-.414-.217-.601-.063-.764-.049-.52.087-.68.185-.242.135-.538.034-.143.385-.52 1.014-.656 1.09-.984.86-.574.888-.384.024-.111.102.04 2.257-.775h.04l1.005-.173 6.792.482.251-.077.227-.637.123-.118.082-.076.745-.333.344-.05.97.24.396.1.637-.358h.45l.931-.52.575.016.217-.09 1.12-.81 1.08-.313.279-.147.102-.055 1.106-.59.704-.542.605-.327.664-.174 1.736-.122.344-.586.747-.099.45-.52.515-.21.372-.54.311-.45.432-.253 1.39-.087 1.648.206.217-.135.374-1.336.388-.253 1.051-1.538v-1.032l.173-.668-.117-1.213.137-1.213.652-1.559.575-.625.927-.633.472-.206.664-.111.101-.02.172-.027 2.3-.031c.032-.024.833-.012.833-.012l.77-.009 1.938.347.138.024.656.213.753.593.802.786.15.148.516.218.156.071.429-.071.609-.317.46-.392.627-.346.016-.023.344-.537.012-.009.14-.213 1.214-.474 1.424-.084.16-.086.09-.047.377-.447h.356l.86.312.597-.12.478.19.37-.042.699-.084.753.534.435.056 1.549.906.079.012.043.008.086.016.184-.055.272-.08.036-.009.035.047.172.25.242.034.286-.383-.114-.173-.043-.062-.552-.115-.495-.85.471-.52-.738-.91-.122-.154-.043-.063-.255-.391-1.292-1.986-1.688-1.353-.588-.474-.205-.163-.9-.922-.643-.867-.083-.185-.13-.29-.386-.845-.671-.52-.549-.6-.027-.037-1.127-1.546-.186-.256-.267-.158h-.56l-.056-.055-.034-.035.02-.019.27-.272.3-.076.13-.296-.574-1.674v-.059l-.043-.537.468-2.426.059-.296.8-1.634.493-.407.539-1.07.466-.682.44-.435.08-.046.8-.487.67-.096.64-.09 1.119.347 1.063-.02.208-.024.482-.052.794-.253.376-.233.193-.3.404-1.369.131-.435.248-.471 1.448-1.677 1.093-1.017 2.455-1.816 1.204-.723.616-.37 5.485-2.455 1.423-1.456.745-.759 1.315-.885 1.538-.636 1.323-1.055.287-.368.363-1.178.303-.074.272-.598.079-.173 1.077-.764.122-.063 4.193-2.115.609.083.327-.494 1.221-.203.224-.04.299-.15.255-.439v-.086l.036-1.175.26-.315.141-.775.136-.173.141-.185.344-.245-.058-.147.01.038z"/></mask><path d="M133.952.038l-.644.26-.251.099-.777-.044-.73.347-1.292.889-.055.04-.484.126-.447-.194-.255.118-.086.52-.24.38-.298.209-1.032.104-.871.454-1.13-.305-.527.206-1.118 1.015-.569.272-.2-.012-.755-.04-.322.108-.478.462-.904.071-.282.198-.44.894-.479.497-.271.06-.295-.112-.223.04-.102.574-.217.237-.603.21-.484.407-.423.218-.57-.015h-.129l-.567.315-1.062.095-.444.426-.098.09-.205.127-.344.203-.082.048-.412-.074-.474.19-.193-.3-.33.201-.436.02-.545-.245-.416-.189-.303.047-.105.53-.012.06-.318.425-.594.364-.083.104-.677.882-1.286 1.364-1.091.554-1.126.347-.79.653-2.065 1.04-3.269 1.64-.667.217-.962.154-1.708.636-1.51.456-.085.027-.301.09-2.129.652-.989-.108-.588.217-1.528-.173-1.063.02-.671.14-1.265.61-2.132 1.039-.703.648-1.1.577-1.283.41v-.542l-.009-.024-.447.142-.322.104-1.04.16h-.579l-.361-.105-.055.02-2.132.706-2.376.23-1.187.384-.888-.013-.554.174-1.09.133-.39-.106-.089-.024-3.203.142-1.464-.173-.699.161-1.173-.398-1.705-.201-.401-.12-.9-.269-.404.238-.307.031-.726-.265h-.26l-.6.218-.344-.09-.322-.256-.75-.115-.46-.388-2.563.347-.688-.203-2.33-.693-.37.02-.462.346-.688.256-.603.158-.82.027-.953-.253-.983-.481-.364-.087-.813.083-.247.021-1.488-.806-1.92-1.212-1.303-.633-.49-.08-.066.234.243.768.082.762-.024.704-.015.435.122.391.471.52.197.52.14 1.452v1.47l-.23 2.348-.076.347-.271 1.213-.248 1.116-.967 2.973-.267.367-.648.45-1.48 1.013-1.087.628-.344.146-.883.068-.55-.028-.689-.373-.67-.173-.882-.638-.98-.202-1.076-.626-.278-.336-.585-.055-.813-.246-.297-.09-.205-.063-1.032-.028-.965-.447-.504-.123-.689-.036-.726.346-.371.174-.466-.189-.334.023-.384.58-.047.09-.263.142h-.584l-.276.12-.373.163-.327.145-.162.071-.098.02-.172.03-.217.044-.385-.226-.205-.123-.344-.07-.184.134-.036.633-.172.376-.534.478-.545.482-.377.561-1.001 2.304-.628.93-.196.216-.66.73-.58.455-1.343 1.048-1.271.478-1.093.226h-.53l-1.01-.134-.903-.28-.996-.626-1.09-.885-1.58-1.57-.224-.135-.046-.032-.496-.32-.37.009-.144.24-.08.347-.066.305L0 42.943l.016.102.094.72 1.205 1.687.37.898.061.102.248.419.188.317.017.035.41 1.23-.286.693.144.466-.361.284-.067.404 1.075 1.36.236.598-.263.833-.417.456-.118.126.06.347.492.447.843.755.45 1.123.345.302.397-.087.22.173h.334l.33.333.212.102.344.173.267.347.062 1.076.495 1.332v.827l.31.533.098.423-.172 1.116.396.357.425-.087.278.044.44.372.536.823.526-.076.334.16 1.607 1.465.365.185.019.013.263.13.329.332.505-.346h.055l.55-.047.244.163.462.315h.61l1.319.407.578.148 1.162.727.493.309.291.237.389.317.774.336.664.161.361.087.272.104v-.016l-.008.016 1.442.554.777.186.723.268.516.19h.385l.546-.462.53-.031.438.11.429-.07.676-.423.13-.197.482-.23 1.62-.202.47.154 1.217-.53.814.229.719-.258 1.578.346.416.3.468.537h.059l.516.009-.217.367.688.724.621.946.043.127.451 1.332.344.475.236.66.012.428-.368.28-.059.162-.02.059.074.182.137-.076.263-.146.319-.05.564.059.37.04.588-.293.39-.198.624.272h.688l.29.13.818.373.416.036.153-.102.099-.234-.049-.274-.315-.36-.688-.808-.282-.414-.217-.601-.063-.764-.049-.52.087-.68.185-.242.135-.538.034-.143.385-.52 1.014-.656 1.09-.984.86-.574.888-.384.024-.111.102.04 2.257-.775h.04l1.005-.173 6.792.482.251-.077.227-.637.123-.118.082-.076.745-.333.344-.05.97.24.396.1.637-.358h.45l.931-.52.575.016.217-.09 1.12-.81 1.08-.313.279-.147.102-.055 1.106-.59.704-.542.605-.327.664-.174 1.736-.122.344-.586.747-.099.45-.52.515-.21.372-.54.311-.45.432-.253 1.39-.087 1.648.206.217-.135.374-1.336.388-.253 1.051-1.538v-1.032l.173-.668-.117-1.213.137-1.213.652-1.559.575-.625.927-.633.472-.206.664-.111.101-.02.172-.027 2.3-.031c.032-.024.833-.012.833-.012l.77-.009 1.938.347.138.024.656.213.753.593.802.786.15.148.516.218.156.071.429-.071.609-.317.46-.392.627-.346.016-.023.344-.537.012-.009.14-.213 1.214-.474 1.424-.084.16-.086.09-.047.377-.447h.356l.86.312.597-.12.478.19.37-.042.699-.084.753.534.435.056 1.549.906.079.012.043.008.086.016.184-.055.272-.08.036-.009.035.047.172.25.242.034.286-.383-.114-.173-.043-.062-.552-.115-.495-.85.471-.52-.738-.91-.122-.154-.043-.063-.255-.391-1.292-1.986-1.688-1.353-.588-.474-.205-.163-.9-.922-.643-.867-.083-.185-.13-.29-.386-.845-.671-.52-.549-.6-.027-.037-1.127-1.546-.186-.256-.267-.158h-.56l-.056-.055-.034-.035.02-.019.27-.272.3-.076.13-.296-.574-1.674v-.059l-.043-.537.468-2.426.059-.296.8-1.634.493-.407.539-1.07.466-.682.44-.435.08-.046.8-.487.67-.096.64-.09 1.119.347 1.063-.02.208-.024.482-.052.794-.253.376-.233.193-.3.404-1.369.131-.435.248-.471 1.448-1.677 1.093-1.017 2.455-1.816 1.204-.723.616-.37 5.485-2.455 1.423-1.456.745-.759 1.315-.885 1.538-.636 1.323-1.055.287-.368.363-1.178.303-.074.272-.598.079-.173 1.077-.764.122-.063 4.193-2.115.609.083.327-.494 1.221-.203.224-.04.299-.15.255-.439v-.086l.036-1.175.26-.315.141-.775.136-.173.141-.185.344-.245-.058-.147.01.038z" stroke="#EA9D3A" stroke-width="4" mask="url(#a)"/></svg>