<svg width="103" height="80" fill="none" xmlns="http://www.w3.org/2000/svg"><path d="M88.205 55.704H64.821v-6.975a5.337 5.337 0 00-5.334-5.333H54.96l5.194-12.422 17.903 7.474a1.237 1.237 0 00.943.009c.3-.129.54-.366.673-.665A21.86 21.86 0 0067.93 9.19a21.873 21.873 0 00-28.627 11.742 1.242 1.242 0 00.665 1.64l17.878 7.45-5.588 13.375H34.872c-.68 0-1.23.551-1.23 1.231v11.078h-1.986L23.729 31.91a1.223 1.223 0 00-1.164-.82h-8.206a1.24 1.24 0 00-1 .508c-.232.32-.294.734-.165 1.108l7.664 22.974h-6.499c-.68 0-1.23.551-1.23 1.23v6.154a1.23 1.23 0 001.23 1.256h6.097l-1.994 8.747a1.238 1.238 0 001.198 1.51h4.668a1.24 1.24 0 001.207-.96l2.116-9.297h15.902l-3.34 7.992h.001a1.238 1.238 0 001.14 1.707c.498 0 .946-.303 1.133-.763l3.741-8.936h28.718l2.118 9.297c.132.56.63.956 1.205.96h4.669a1.24 1.24 0 001.165-1.51l-1.994-8.747h6.097c.68 0 1.23-.55 1.23-1.23v-6.154c0-.68-.55-1.231-1.23-1.231zM77.44 21.981a19.274 19.274 0 01.394 13.711l-8.263-3.455c1.543-3.831 3.996-11.224.821-18.871a19.254 19.254 0 017.048 8.615zm-10.133 9.313l-14.564-6.08-.123-.057C54.4 21.054 58.15 13.8 66.864 11.7c4.636 7.68 2.1 15.451.443 19.594zm-15.205-19.89a19.31 19.31 0 0111.094-1.1c-7.68 3.176-11.209 10.117-12.85 13.949l-8.263-3.495a19.282 19.282 0 0110.02-9.354zm.107 38.564h10.15v5.743H49.82l2.388-5.743zm-16.115-4.103h23.394a2.866 2.866 0 012.593 1.641H36.103l-.009-1.64zm13.449 4.103l-2.396 5.743H36.102v-5.743h13.44zm-33.486-16.41h5.613l7.384 22.154H23.45l-7.393-22.154zm7.286 38.564h-2.142l1.781-7.795h2.142l-1.78 7.795zm55.861 0l-1.773-7.795h2.142l1.78 7.795h-2.149zm7.762-10.257H15.59v-3.692h71.385l-.009 3.692z" fill="#EA9D3A"/></svg>