<svg width="94" height="80" fill="none" xmlns="http://www.w3.org/2000/svg"><path d="M64.707 16.588c-3.884 0-7.059 3.174-7.059 7.06 0 3.884 3.175 7.058 7.06 7.058 3.884 0 7.058-3.174 7.058-7.059 0-3.884-3.174-7.059-7.059-7.059zm0 2.353a4.688 4.688 0 014.706 4.706 4.688 4.688 0 01-4.706 4.706 4.688 4.688 0 01-4.706-4.706 4.688 4.688 0 014.706-4.706z" fill="#EA9D3A"/><path fill-rule="evenodd" clip-rule="evenodd" d="M64.689 8.353a1.176 1.176 0 00-1.159 1.194v2.322a1.178 1.178 0 002.015.842c.221-.224.343-.528.338-.842V9.547a1.177 1.177 0 00-1.194-1.194zm0 25.882a1.176 1.176 0 00-1.159 1.195v2.321a1.178 1.178 0 102.353 0V35.43a1.177 1.177 0 00-1.194-1.195zM76.486 22.47a1.175 1.175 0 00-.842 2.015c.224.22.528.343.842.338h2.321a1.178 1.178 0 100-2.352h-2.32zm-25.883 0a1.175 1.175 0 00-.843 2.015c.225.22.528.343.843.338h2.321a1.177 1.177 0 100-2.352h-2.32zm23.48-9.407a1.177 1.177 0 00-.809.354l-1.153 1.153a1.179 1.179 0 00-.019 1.682 1.178 1.178 0 001.682-.018l1.153-1.153a1.176 1.176 0 00-.854-2.018zm-18.788-.004a1.177 1.177 0 00-.822 2.022l1.153 1.153a1.175 1.175 0 002.027-.826 1.179 1.179 0 00-.363-.838l-1.153-1.153a1.176 1.176 0 00-.842-.358zm17.648 17.647a1.176 1.176 0 00-.823 2.022l1.153 1.153a1.175 1.175 0 101.664-1.664l-1.153-1.153a1.175 1.175 0 00-.841-.358zm-16.509 0c-.306.01-.596.138-.808.358l-1.154 1.153a1.18 1.18 0 00-.018 1.682 1.176 1.176 0 001.682-.018l1.153-1.153a1.177 1.177 0 00-.854-2.022z" fill="#EA9D3A"/><path d="M35.282 66.385a8.334 8.334 0 005.128-14.898V41.385h4.487a1.282 1.282 0 000-2.564H40.41v-8.334h4.487a1.282 1.282 0 000-2.564H40.41V19.59h4.487a1.282 1.282 0 000-2.564H40.41v-5.77a5.129 5.129 0 00-10.256 0v40.23a8.334 8.334 0 005.128 14.898zm-3.148-13.167c.363-.236.582-.638.584-1.07V11.257a2.564 2.564 0 115.128 0v40.89c.002.433.22.835.583 1.07a5.77 5.77 0 11-6.294 0z" fill="#EA9D3A"/></svg>