<svg width="96" height="80" fill="none" xmlns="http://www.w3.org/2000/svg"><path d="M24.633 35.246a1.196 1.196 0 00-1.314 1.062c-.209 1.963.441 6.002 4.395 7.239a1.195 1.195 0 00.714-2.28c-3.054-.956-2.75-4.54-2.733-4.71a1.195 1.195 0 00-1.062-1.31zM77 12.08a1.194 1.194 0 00-1.61.509l-13.7 26.356a15.933 15.933 0 01-11.37 7.475 15.57 15.57 0 011.47 2.176 18.108 18.108 0 0012.02-8.544l13.7-26.361a1.196 1.196 0 00-.51-1.61z" fill="#EA9D3A"/><path d="M26.675 45.775c-2.879-.779-5.376-2.26-5.918-5.021-.007-.039-1.018-3.51.055-10.326.005-.034.508-3.408 2.88-4.793 1.441-.842 3.36-.807 5.705.103.78.375 12.758 6.135 25.525 13.033a2.44 2.44 0 003.06-.724c.05-.07 18.34-36.314 18.34-36.314A1.195 1.195 0 1074.188.657L56.033 36.656C42.858 29.538 30.336 23.54 30.308 23.53c-3.085-1.21-5.722-1.191-7.838.051-3.374 1.983-4 6.337-4.021 6.497-1.093 6.949-.186 10.622-.025 11.19.624 3.066 2.944 5.279 6.716 6.527.456-.714.97-1.39 1.535-2.02z" fill="#EA9D3A"/><path d="M38.225 69.283a13.142 13.142 0 0013.14-13.14 13.141 13.141 0 00-22.431-9.291 13.14 13.14 0 00-3.849 9.291 13.154 13.154 0 0013.14 13.14zm0-23.89a10.75 10.75 0 11-10.751 10.75 10.763 10.763 0 0110.75-10.75z" fill="#EA9D3A"/><path d="M38.225 59.129a1.194 1.194 0 11-2.389 0 1.194 1.194 0 012.389 0zm2.985 2.987a1.194 1.194 0 11-2.388 0 1.194 1.194 0 012.388 0zm.598-5.376a1.194 1.194 0 11-2.389 0 1.194 1.194 0 012.389 0zm2.986 3.585a1.194 1.194 0 11-2.388 0 1.194 1.194 0 012.388 0zM43.6 52.56a1.194 1.194 0 11-2.389 0 1.194 1.194 0 012.389 0zm2.389 3.583a1.194 1.194 0 11-2.389 0 1.194 1.194 0 012.389 0zm.001 17.918H30.46a1.195 1.195 0 000 2.39h15.53a1.195 1.195 0 000-2.39zm-14.336-2.389c0-.66-.535-1.194-1.194-1.194h-3.584a1.195 1.195 0 000 2.389h3.584c.66 0 1.194-.535 1.194-1.195zm19.112-1.194h-3.583a1.195 1.195 0 000 2.389h3.583a1.194 1.194 0 100-2.39z" fill="#EA9D3A"/></svg>