<svg width="98" height="80" fill="none" xmlns="http://www.w3.org/2000/svg"><g clip-path="url(#clip0_119_1226)" fill="#EA9D3A"><path d="M88.867 25.273v-5.007a1.253 1.253 0 00-1.252-1.252h-5.058c-.691 0-1.252.56-1.252 1.252v5.007a1.253 1.253 0 001.252 1.252h5.058a1.252 1.252 0 001.252-1.252zm-2.504-1.252h-2.554v-2.553h2.554v2.553zm-10.127-5.057h-5.068c-.691 0-1.252.56-1.252 1.252v5.007a1.252 1.252 0 001.252 1.252h5.068a1.252 1.252 0 001.242-1.202v-5.008a1.252 1.252 0 00-1.242-1.302zm-1.252 5.007H72.47v-2.503h2.564l-.05 2.503zm-10.135-5.008H59.84c-.691 0-1.252.56-1.252 1.252v5.008a1.252 1.252 0 001.252 1.252h5.008a1.251 1.251 0 001.252-1.252v-5.008a1.25 1.25 0 00-1.252-1.252zm-1.252 5.008h-2.554v-2.503h2.554v2.503z"/><path d="M96.198 69.612h-2.274V15.136a1.251 1.251 0 001.202-1.252V9.167a1.24 1.24 0 00-1.242-1.252H53.52c-.691 0-1.252.56-1.252 1.252v4.717c.003.66.514 1.205 1.172 1.252v16.346l-22.755-3.876V17.94l3.145-7.351v-.25a1.23 1.23 0 000-.19.576.576 0 000-.13v-.311a1 1 0 00-.1-.21v-.08L30.726 4.67V1.355A1.255 1.255 0 0029.404.103H14.25c-.691 0-1.252.56-1.252 1.252V4.67L9.995 9.417v.08a1.035 1.035 0 00-.1.21v.312a.577.577 0 000 .13 1.078 1.078 0 000 .19v.13a.576.576 0 000 .12l3.145 7.352v51.67H8.681a1.252 1.252 0 100 2.504h87.517a1.252 1.252 0 100-2.504l-.001.001zM24.396 46.768h4.818v1.662H19.55v-1.662h4.847zm6.01 4.166a1.253 1.253 0 001.252-1.252v-4.166a1.253 1.253 0 00-1.252-1.252h-4.777V41.71h4.777a1.252 1.252 0 001.252-1.252V36.28a1.251 1.251 0 00-1.252-1.252h-4.777v-5.74l57.089 9.696v30.578H71.16V55.631a1.253 1.253 0 00-1.252-1.252H34.492c-.692 0-1.252.56-1.252 1.252v13.932h-7.612v-18.63h4.778zm-6.01-13.4h4.818v1.672H19.55v-1.673h4.847zm26.572 32.05H35.745v-12.7h15.204l.02 12.7zm2.475-12.7h15.213v12.679H53.443v-12.68zm1.322-46.464h37.859v2.213H54.775l-.01-2.213zm1.212 4.717H91.42V69.56h-6.24V37.922a1.252 1.252 0 00-1.001-1.232l-28.194-4.787-.01-16.766zM24.588 26.565a1.253 1.253 0 00-1.462 1.241v7.222H18.3c-.692 0-1.252.56-1.252 1.252v4.177a1.251 1.251 0 001.252 1.252h4.827v2.554H18.3c-.692 0-1.252.56-1.252 1.252v4.167-.001a1.25 1.25 0 001.252 1.252h4.827v18.629h-7.622v-50.63h12.68v8.244l-3.596-.61zM14.933 6.283h13.812l1.662 2.564H13.291l1.642-2.564zm.571-3.675h12.68v1.171h-12.68V2.608zm15.284 8.743l-2.184 5.079h-13.52L12.9 11.352h17.888z"/></g><defs><clipPath id="clip0_119_1226"><path fill="#fff" d="M0 0h97.778v80H0z"/></clipPath></defs></svg>