<svg width="95" height="80" fill="none" xmlns="http://www.w3.org/2000/svg"><path d="M75.637.01a1.207 1.207 0 00-.904.402l-8.416 9.477c-.684.766-.13 1.969.907 1.966h3.603v1.748c0 7.627-4.027 14.176-11.638 18.964-7.611 4.787-18.824 7.712-32.872 7.712a1.191 1.191 0 00-1.179 1.18 1.192 1.192 0 001.18 1.189c9 0 22.336.323 33.59-3.095 5.627-1.71 10.77-4.37 14.515-8.559 3.745-4.19 6.026-9.897 6.026-17.39v-1.749h3.603c1.036.002 1.591-1.2.906-1.966L76.543.412a1.211 1.211 0 00-.906-.402zM35.893 8.297a5.84 5.84 0 001.446 3.842 9.605 9.605 0 00-2.811 2.272 8.375 8.375 0 00-2.842-2.64 4.636 4.636 0 00.604-2.285c0-2.602-2.17-4.737-4.813-4.737-2.642 0-4.812 2.135-4.812 4.737 0 .828.22 1.609.604 2.288-2.52 1.435-4.206 4.124-4.206 7.189v1.18c0 2.603 2.168 4.74 4.812 4.74h7.215a4.89 4.89 0 001.888-.38 5.423 5.423 0 004.716 2.748h8.424a5.423 5.423 0 004.719-2.753 4.888 4.888 0 001.896.384h7.217c2.644 0 4.81-2.136 4.81-4.74v-1.179c0-3.067-1.694-5.757-4.217-7.192a4.637 4.637 0 00.604-2.285c0-2.602-2.17-4.737-4.812-4.737-2.642 0-4.81 2.135-4.81 4.737 0 .826.218 1.606.601 2.285a8.354 8.354 0 00-2.837 2.645 9.597 9.597 0 00-2.814-2.277 5.85 5.85 0 001.445-3.842c0-3.256-2.702-5.92-6.008-5.92s-6.02 2.664-6.02 5.92zM75.637 3l5.77 6.486h-2.156a1.193 1.193 0 00-1.207 1.18v2.938c0 7.026-2.075 12.068-5.432 15.824-3.358 3.755-8.066 6.235-13.413 7.86-2.82.856-5.715 1.463-8.754 1.901 3.614-1.146 7.203-2.837 10.04-4.622 8.137-5.118 12.747-12.502 12.747-20.964v-2.938a1.193 1.193 0 00-1.198-1.18h-2.166L75.638 3zM45.516 8.297c0 1.977-1.597 3.558-3.603 3.558-2.007 0-3.615-1.582-3.615-3.558 0-1.945 1.558-3.5 3.568-3.548 2.053 0 3.65 1.572 3.65 3.548zm-18.038-1.18c1.343 0 2.405 1.047 2.405 2.37 0 1.322-1.062 2.368-2.405 2.368-1.342 0-2.404-1.046-2.404-2.368 0-1.323 1.062-2.37 2.404-2.37zm28.859 0c1.342 0 2.404 1.047 2.404 2.37 0 1.322-1.062 2.368-2.404 2.368-1.343 0-2.405-1.046-2.405-2.368 0-1.323 1.062-2.37 2.405-2.37zm-28.859 7.109c.898 0 1.74-.248 2.462-.675a5.946 5.946 0 013.128 3.208 9.421 9.421 0 00-.777 3.761v1.381c0 .1.003.198.009.297-.352.2-.762.316-1.21.316h-7.215c-1.354 0-2.408-1.04-2.408-2.371v-1.18c0-2.432 1.453-4.493 3.55-5.413a4.822 4.822 0 002.461.675v.001zm34.878 4.737v1.18c0 1.332-1.05 2.37-2.405 2.37h-7.217c-.45 0-.864-.115-1.217-.319.004-.097.01-.195.01-.293V20.52a9.414 9.414 0 00-.78-3.761 5.962 5.962 0 013.133-3.206 4.818 4.818 0 004.92-.002c2.099.92 3.556 2.98 3.556 5.413zM39.58 13.756a6.037 6.037 0 004.666 0c2.842.953 4.874 3.599 4.874 6.764v1.38c0 1.672-1.316 2.982-3 2.982h-8.424c-1.684 0-2.999-1.309-2.999-2.982v-1.38c0-3.165 2.04-5.811 4.883-6.764zM10.638 26.062V66.33c-.664.003-1.165.54-1.162 1.196v7.096a1.195 1.195 0 001.197 1.191l73.399-.004c.82.002 1.403-.789 1.146-1.557l-2.405-7.108a1.204 1.204 0 00-1.137-.814h-.969V41.46c0-1.948-1.625-3.551-3.603-3.551H72.29c-1.977 0-3.612 1.603-3.612 3.55v24.868h-3.365V48.564c0-1.948-1.625-3.549-3.603-3.549h-4.813c-1.977 0-3.612 1.6-3.612 3.549V66.33l-3.512.002V55.671c0-1.948-1.637-3.549-3.615-3.549h-4.8c-1.978 0-3.615 1.6-3.615 3.549v10.666l-3.365.002v-3.56c0-1.948-1.637-3.558-3.615-3.558l-4.687.002c-1.977 0-3.615 1.61-3.615 3.557v3.56c-1.73 0-3.008-.003-4.606-.004v-4.744h1.207a1.192 1.192 0 001.198-1.18 1.193 1.193 0 00-1.198-1.189h-1.207v-4.74h2.405a1.193 1.193 0 001.207-1.18 1.193 1.193 0 00-1.207-1.18h-2.405v-4.739h1.207a1.193 1.193 0 001.198-1.189 1.192 1.192 0 00-1.198-1.18h-1.207v-4.737h2.405a1.195 1.195 0 001.207-1.19 1.194 1.194 0 00-1.207-1.181h-2.405V33.24h1.207a1.194 1.194 0 001.198-1.19 1.192 1.192 0 00-1.198-1.18h-1.207v-4.808c0-1.948-1.625-3.549-3.603-3.549-1.978 0-3.615 1.6-3.615 3.549zm3.614-1.18c.687 0 1.198.503 1.198 1.18v40.272c-.762 0-1.684 0-2.407-.002v-40.27c0-.676.523-1.18 1.21-1.18zM72.291 40.28h4.812c.687 0 1.198.503 1.198 1.18v24.87c-2.314-.002-4.775-.002-7.218-.002v-24.87c0-.676.521-1.179 1.208-1.179zm-10.58 7.106c.687 0 1.198.503 1.198 1.18v17.762l-7.218.004V48.565c0-.677.52-1.18 1.207-1.18h4.813zm-15.552 7.1c.687 0 1.207.511 1.207 1.188v10.662l-7.217.004V55.673c0-.676.522-1.189 1.21-1.188h4.8zm-15.395 7.107c.687 0 1.21.513 1.21 1.19v3.56l-7.104.002v-3.562c0-.677.52-1.19 1.207-1.19h4.687zm51.65 11.846H11.846v-4.736l69.032.07 1.535 4.666z" fill="#EA9D3A"/></svg>