<svg width="97" height="80" fill="none" xmlns="http://www.w3.org/2000/svg"><path d="M77.364 45.38h-4.95V28h2.896a.965.965 0 00.965-.965v-.966h2.897a.966.966 0 00.965-.966V9.655a.966.966 0 00-.965-.965h-2.897v-.966a.966.966 0 00-.965-.965H21.24a.965.965 0 00-.965.965v.966H17.38a.965.965 0 00-.966.965v15.448a.966.966 0 00.966.966h2.896v.966a.966.966 0 00.966.965h2.896v17.38h-4.95a4.589 4.589 0 00-4.582 4.58V67.2a3.29 3.29 0 003.283 3.282h60.774a3.29 3.29 0 003.283-3.282V49.96a4.59 4.59 0 00-4.581-4.58zm0 1.93a2.658 2.658 0 012.65 2.65v3.143h-7.6V47.31h4.95zm-6.882 16.993a4.28 4.28 0 01-3.862 4.249V46.199a12.414 12.414 0 00-12.405-12.405h-11.88A12.413 12.413 0 0029.93 46.199v22.33a4.28 4.28 0 01-3.862-4.249V26.346a9.95 9.95 0 019.934-9.933h24.547a9.95 9.95 0 019.934 9.933v37.957zM58.896 14.506h-5.793v-.216a4.828 4.828 0 00-9.655 0v.193h-5.793V8.69h21.241v5.816zm-7.724 0h-5.793v-.216a2.897 2.897 0 015.793 0v.216zm27.034-3.862v13.517h-1.93v-13.54l1.93.023zm-3.862-.965v16.39h-1.93V25.01c0-.185-.063-.41-.101-.61-.039-.201-.054-.37-.093-.556-.038-.186-.1-.394-.154-.588-.054-.192-.093-.363-.147-.532-.054-.17-.139-.379-.208-.564-.07-.186-.124-.348-.193-.518-.07-.17-.178-.355-.263-.541a4.657 4.657 0 00-.247-.48c-.093-.154-.2-.347-.309-.517l-.285-.456-.355-.479c-.109-.139-.216-.285-.332-.417-.116-.131-.263-.301-.402-.448-.139-.146-.231-.262-.363-.386-.131-.123-.293-.27-.44-.41a7.045 7.045 0 00-.394-.347 7.469 7.469 0 00-.494-.363c-.17-.116-.27-.216-.417-.317l-.533-.317c-.147-.092-.286-.185-.44-.27a8.022 8.022 0 00-.572-.27c-.193-.086-.301-.155-.463-.225l-.44-.162-.003-6.547h9.655l-.077.989zm-11.586-.966v5.793h-1.931V8.713h1.931zm-27.034 0v5.793h-1.931V8.713h1.93zm-17.38 15.448v-13.54h1.931v13.517l-1.93.023zm3.862.966V8.69h9.655v6.55l-.44.162c-.162.07-.308.146-.463.224-.155.077-.386.17-.572.27-.185.1-.293.178-.44.271l-.533.317c-.146.1-.278.208-.417.317-.139.108-.332.231-.494.363l-.394.347c-.147.14-.302.263-.44.41-.14.146-.248.255-.364.386-.115.132-.278.294-.401.448-.123.154-.224.278-.332.417l-.355.479-.286.456a6.97 6.97 0 00-.308.517c-.093.178-.162.317-.248.48a11.16 11.16 0 00-.262.54c-.085.186-.131.34-.193.518s-.146.37-.208.564c-.062.193-.1.355-.147.533-.046.178-.108.386-.154.587-.047.201-.063.371-.093.556-.03.186-.077.402-.1.61-.024.21 0 .38-.04.565-.038.185 0 .324-.038.495h-1.931l-.002-.945zm-3.02 22.183h4.951v5.793h-7.6V49.96a2.657 2.657 0 012.65-2.65zm-2.65 13.518h3.74v3.862h-3.74v-3.862zm0 6.372v-.58h4.705a.966.966 0 00.965-.965v-5.793a.966.966 0 00-.965-.965h-4.704v-3.863h7.6v9.27a6.18 6.18 0 001.738 4.248h-7.987a1.36 1.36 0 01-1.352-1.352zm15.326 1.352V46.199a10.482 10.482 0 0110.474-10.475h11.88A10.482 10.482 0 0164.69 46.2v22.353H31.862zm46.8 0h-7.987a6.177 6.177 0 001.715-4.272v-9.269h7.6v3.862h-4.68a.965.965 0 00-.966.966v5.816a.966.966 0 00.966.966h4.704v.579a1.36 1.36 0 01-1.352 1.352zm1.352-3.862h-3.739v-3.862h3.739v3.862z" fill="#EA9D3A"/><path d="M59.863 22.207H36.69a2.874 2.874 0 00-2.866 2.866v1.962a2.876 2.876 0 002.866 2.896h23.173a2.872 2.872 0 002.896-2.896v-1.962a2.874 2.874 0 00-2.896-2.866zm.965 4.828a.935.935 0 01-.965.965H36.69a.935.935 0 01-.965-.965v-1.962a.935.935 0 01.965-.935h23.173a.937.937 0 01.934.935l.031 1.962zm-2.674 16.413H38.397a4.635 4.635 0 00-4.634 4.635v13.934a4.635 4.635 0 004.634 4.634h19.758a4.634 4.634 0 004.635-4.634V48.05a4.635 4.635 0 00-4.635-4.603zM38.397 45.38h19.758a2.673 2.673 0 012.673 2.673v.224H35.724v-.224a2.673 2.673 0 012.672-2.673zm14.676 4.828h1.143v3.862h-1.113l-.03-3.862zm5.051 14.483H38.395a2.673 2.673 0 01-2.672-2.673v-11.81H51.17v4.828a.965.965 0 00.966.965h3.089a.967.967 0 00.965-.965v-4.828h4.635v11.81a2.673 2.673 0 01-2.672 2.673h-.03z" fill="#EA9D3A"/></svg>