<svg width="104" height="90" fill="none" xmlns="http://www.w3.org/2000/svg"><path d="M87.98 50.639l-4.066-1.434v-5.312a2.582 2.582 0 10-5.164 0v3.49l-7.847-2.77a7.478 7.478 0 00-4.962 0l-17.078 6.026a7.437 7.437 0 004.067 14.286v9.952a7.753 7.753 0 007.746 7.746h15.492a7.753 7.753 0 007.745-7.746v-9.932a7.45 7.45 0 004.067-14.306zm-11.812 26.82H60.676a2.585 2.585 0 01-2.582-2.582v-11.69l9.566-3.377a2.288 2.288 0 011.524 0l9.566 3.376v11.691a2.585 2.585 0 01-2.582 2.582zm10.653-17.925a2.262 2.262 0 01-2.082.29l-13.836-4.883a7.478 7.478 0 00-4.962 0l-13.835 4.884a2.288 2.288 0 01-1.522-4.316l17.077-6.026a2.288 2.288 0 011.524 0l17.075 6.026h-.001a2.293 2.293 0 011.528 2.158 2.26 2.26 0 01-.966 1.867zM50.35 33.566v-9.932a7.45 7.45 0 004.066-14.306L50.35 7.894V2.582a2.582 2.582 0 10-5.164 0v3.49l-7.847-2.77a7.478 7.478 0 00-4.962 0L15.298 9.328a7.45 7.45 0 002.485 14.478 7.463 7.463 0 001.582-.192v9.952a7.753 7.753 0 007.746 7.746h15.491a7.753 7.753 0 007.746-7.746h.001zM16.46 18.223a2.289 2.289 0 01.56-4.025L34.097 8.17a2.289 2.289 0 011.524 0l17.075 6.026a2.293 2.293 0 011.527 2.159 2.288 2.288 0 01-3.048 2.157L37.339 13.63a7.478 7.478 0 00-4.963 0l-13.835 4.883c-.7.253-1.479.144-2.082-.29zm26.144 17.925H27.111a2.586 2.586 0 01-2.582-2.582V21.875l9.566-3.376a2.288 2.288 0 011.524 0l9.566 3.376v11.69a2.586 2.586 0 01-2.582 2.583zM90.27 26.53l-2.582 9.036a2.58 2.58 0 01-3.914 1.439l-7.746-5.164a2.581 2.581 0 012.864-4.297l.922.615a32.577 32.577 0 00-13.697-13.12 2.581 2.581 0 112.32-4.613 37.783 37.783 0 0116.427 16.228l.441-1.544a2.582 2.582 0 114.965 1.42zM37.308 72.57a32.582 32.582 0 01-13.695-13.117l.92.613a2.585 2.585 0 003.595-.707 2.582 2.582 0 00-.73-3.59l-7.746-5.164a2.581 2.581 0 00-3.914 1.439l-2.582 9.037a2.582 2.582 0 104.965 1.42l.44-1.544A37.788 37.788 0 0034.99 77.185a2.582 2.582 0 002.32-4.614l-.001-.001z" fill="#EA9D3A"/></svg>