<svg width="107" height="90" fill="none" xmlns="http://www.w3.org/2000/svg"><path d="M64.982 50.933a2.435 2.435 0 01-1.091 4.072 2.435 2.435 0 01-2.351-.63l-10.23-10.23a2.436 2.436 0 01-.715-1.721V29.242a2.433 2.433 0 014.867 0v12.173l9.52 9.518zm21.312-8.51A33.263 33.263 0 1153.03 9.16a33.301 33.301 0 0133.264 33.264zm-4.867 0a28.402 28.402 0 10-28.398 28.402 28.433 28.433 0 0028.403-28.402h-.005zm13.129 0a41.534 41.534 0 01-41.528 41.528 41.532 41.532 0 01-29.365-12.16 41.53 41.53 0 0158.733-58.733A41.256 41.256 0 0194.56 42.425l-.004-.001zm-4.867 0A36.663 36.663 0 0045.87 6.465 36.663 36.663 0 0019.151 56.46a36.663 36.663 0 0033.877 22.63A36.702 36.702 0 0078.94 68.337a36.704 36.704 0 0010.752-25.912l-.003-.001zm-38.253-22.3a2.431 2.431 0 003.434-.244 2.433 2.433 0 10-3.434.245zm21.997 12.613a2.434 2.434 0 001.003-4.762 2.432 2.432 0 00-2.913 1.874 2.434 2.434 0 001.912 2.889h-.002zm2.818 21.023a2.434 2.434 0 10-4.641 1.467 2.434 2.434 0 004.641-1.467zM51.243 64.906a2.436 2.436 0 103.573 3.312 2.436 2.436 0 00-3.573-3.312zM32.625 52.11a2.434 2.434 0 00-1.003 4.763 2.434 2.434 0 101.001-4.763h.002zm-2.783-20.915a2.433 2.433 0 104.565-1.688 2.433 2.433 0 00-4.565 1.688z" fill="#EA9D3A"/></svg>