<svg width="78" height="45" fill="none" xmlns="http://www.w3.org/2000/svg"><path d="M77.867 1.007l-.374.15-.146.057-.452-.025-.424.2-.75.513-.033.023-.281.073-.26-.112-.148.068-.05.3-.14.219-.173.12-.6.06-.506.263-.657-.176-.306.119-.65.586-.33.157-.117-.007-.439-.023-.187.062-.278.267-.525.04-.164.115-.256.516-.278.287-.158.034-.171-.064-.13.023-.059.33-.126.138-.351.12-.281.236-.246.126-.331-.01h-.075l-.33.183-.617.055-.258.246-.057.052-.119.073-.2.117-.048.028-.239-.043-.276.11-.112-.173-.192.116-.253.01-.317-.14-.242-.11-.176.028-.06.306-.008.034-.185.246-.345.21-.048.06-.394.509-.747.787-.634.32-.655.2-.459.377-1.2.6-1.9.947-.388.125-.559.089-.993.367-.877.263-.05.016-.175.052-1.237.376-.575-.062-.342.125-.888-.1-.618.012-.39.08-.735.352-1.239.6-.409.374-.639.333-.746.237v-.313l-.005-.014-.26.082-.187.06-.605.093h-.336l-.21-.061-.032.01-1.239.409-1.381.133-.69.22-.516-.006-.322.1-.634.077-.226-.061-.052-.014-1.862.082-.851-.1-.406.093-.682-.23-.99-.116-.234-.07-.523-.154-.235.137-.178.018-.422-.153h-.151l-.349.126-.2-.052-.187-.148-.436-.066-.267-.224-1.49.2-.4-.117-1.354-.4-.215.01-.269.2-.4.149-.35.09-.477.017-.554-.146-.57-.278-.213-.05-.472.048-.144.012-.865-.465-1.116-.7-.757-.365-.285-.046-.038.135.141.443.048.44-.014.406-.009.25.071.227.274.3.114.3.082.838v.849l-.134 1.355-.044.2-.158.7-.144.644-.562 1.716-.155.212-.377.26-.86.584-.632.363-.2.084-.513.039-.32-.016-.4-.215-.39-.1-.512-.368-.57-.117-.625-.361-.162-.194-.34-.032-.472-.142-.173-.052-.119-.036-.6-.016-.561-.258-.293-.071-.4-.021-.422.2-.216.1-.27-.11-.195.014-.223.335-.027.052-.153.082h-.34l-.16.069-.217.094-.19.084-.094.04-.057.012-.1.018-.126.025-.224-.13-.119-.071-.2-.041-.107.078-.02.365-.101.217-.31.276-.317.278-.219.324-.582 1.33-.365.536-.114.125-.383.422-.338.262-.78.605-.739.276-.635.13h-.308l-.587-.077-.525-.162-.579-.361-.634-.511-.918-.906-.13-.078-.027-.018-.288-.185-.215.005-.084.139-.046.2-.039.176L.01 25.77l.009.059.055.415.7.974.215.518.036.059.144.242.11.183.01.02.238.71-.167.4.084.269-.21.164-.039.233.625.785.137.345-.153.48-.242.264-.069.073.035.2.286.258.49.436.262.648.2.174.231-.05.128.1h.194l.192.192.123.059.2.1.155.2.036.62.288.77v.477l.18.308.057.244-.1.644.23.206.247-.05.162.025.256.215.311.475.306-.044.194.093.934.845.212.107.011.007.153.075.191.192.294-.2h.032l.32-.027.141.094.269.182h.354l.767.235.336.085.675.42.287.178.169.137.226.183.45.194.386.093.21.05.158.06v-.01l-.005.01.838.32.452.107.42.155.3.11h.224l.317-.267.308-.018.255.064.249-.041.393-.244.076-.114.28-.132.941-.117.274.089.707-.306.473.132.418-.15.917.2.242.174.272.31h.034l.3.005-.126.212.4.418.361.546.025.073.262.769.2.274.137.38.007.248-.214.162-.034.093-.012.034.043.105.08-.044.153-.084.185-.03.328.035.215.023.342-.17.226-.113.363.157h.4l.169.075.475.215.242.02.09-.058.056-.135-.028-.158-.183-.208-.4-.466-.164-.24-.126-.346-.037-.441-.028-.3.05-.393.108-.14.078-.31.02-.082.224-.3.59-.38.633-.567.5-.331.516-.222.014-.064.059.023 1.312-.447h.023l.584-.1 3.948.278.146-.044.132-.368.071-.068.048-.044.433-.192.2-.03.564.14.23.057.37-.206h.262l.541-.3.334.009.126-.052.651-.468.628-.18.162-.085.06-.032.642-.34.41-.313.351-.19.386-.1 1.009-.07.2-.338.434-.057.261-.3.3-.121.216-.312.181-.26.251-.146.808-.05.958.119.126-.078.217-.771.226-.146.611-.888v-.595l.1-.386-.068-.7.08-.7.38-.9.333-.361.539-.365.274-.12.386-.063.059-.011.1-.016 1.337-.018c.018-.014.484-.007.484-.007l.447-.005 1.127.2.08.014.381.123.438.342.466.454.087.085.3.126.091.04.249-.04.354-.183.267-.226.365-.2.009-.013.2-.31.007-.005.082-.123.705-.274.828-.048.093-.05.052-.027.22-.258h.206l.5.18.347-.07.278.11.215-.024.406-.048.438.308.253.032.9.523.046.007.025.005.05.009.107-.032.158-.046.021-.005.02.027.1.144.141.02.166-.221-.066-.1-.025-.036-.321-.066-.288-.491.274-.3-.429-.525-.07-.09-.026-.035-.148-.226-.751-1.146-.981-.781-.342-.274-.119-.094-.523-.532-.374-.5-.048-.107-.076-.167-.224-.488-.39-.3-.319-.347-.016-.021-.655-.892-.108-.148-.155-.091h-.326l-.032-.032-.02-.02.012-.011.156-.157.175-.044.076-.171-.334-.966v-.034l-.025-.31.272-1.4.034-.171.465-.943.287-.235.313-.618.271-.393.256-.251.046-.027.465-.281.39-.055.372-.052.65.2.618-.011.121-.014.28-.03.461-.146.22-.135.111-.173.235-.79.076-.251.144-.272.842-.968.635-.587 1.427-1.048.7-.417.358-.214 3.188-1.417.827-.84.433-.438.764-.511.894-.367.769-.61.167-.211.211-.68.176-.043.158-.345.046-.1.626-.441.071-.036 2.437-1.221.354.048.19-.285.71-.117.13-.023.174-.087.148-.253v-.05l.021-.678.151-.182.082-.447.079-.1.082-.107.2-.141-.034-.085.006.022z" fill="#D57800"/></svg>