<svg width="108" height="90" fill="none" xmlns="http://www.w3.org/2000/svg"><path d="M94.206 60.355a7.7 7.7 0 00-2.824-5.39 7.956 7.956 0 00-11.012.95l-9.326 10.849a8.01 8.01 0 00-8.036-7.752h-7.68c-3.227-2.488-8.247-3.948-13.704-3.948a24.535 24.535 0 00-12.01 2.807v-1.333a2.693 2.693 0 00-2.692-2.692H16.154a2.693 2.693 0 00-2.692 2.692v26.923a2.693 2.693 0 002.692 2.692h10.77a2.693 2.693 0 002.692-2.692v-3.275h4.247a22.31 22.31 0 018.72 1.762 27.68 27.68 0 0010.813 2.186h16.79a13.46 13.46 0 0010.059-4.499l12.025-13.53a7.683 7.683 0 001.937-5.75zM24.231 80.77h-5.385V59.231h5.385v21.538zm64.014-18.241l-12.026 13.53a8.069 8.069 0 01-6.034 2.692h-16.79a22.327 22.327 0 01-8.72-1.762 27.664 27.664 0 00-10.812-2.186h-4.248v-9.15c0-2.122 4.679-5.203 12.01-5.203 4.502 0 8.776 1.268 10.892 3.23v-.001a2.692 2.692 0 001.83.719h8.661a2.616 2.616 0 012.654 2.57v1.256H50.98a2.692 2.692 0 100 5.385h20.048a2.69 2.69 0 002.041-.938l11.384-13.245a2.535 2.535 0 013.514-.296c.505.407.82 1.004.87 1.65a2.332 2.332 0 01-.592 1.748zM62.48 34.443a2.694 2.694 0 010 3.808l-8.077 8.077a2.692 2.692 0 01-3.807 0l-4.038-4.039a2.693 2.693 0 013.807-3.808l2.135 2.135 6.173-6.173a2.693 2.693 0 013.807 0zM21.817 32.23a8.663 8.663 0 005.106 1.167v13.72a2.692 2.692 0 105.384 0V31.302l20.224-11.325a2.703 2.703 0 012.629 0l20.224 11.325v17.16a2.692 2.692 0 105.385 0V33.395c.23.02.462.045.693.045a8.764 8.764 0 008.73-8.745 8.082 8.082 0 00-4.038-6.987v-9.63a8.076 8.076 0 10-16.154 0v.575L57.792 1.817a8.128 8.128 0 00-7.893 0L21.63 17.647a8.085 8.085 0 00-4.13 7.049 8.65 8.65 0 004.317 7.533zM75.385 8.08a2.692 2.692 0 115.384 0v6.606l-5.384-3.016V8.08zM24.262 22.346L52.53 6.518a2.706 2.706 0 012.629 0l28.27 15.83a2.694 2.694 0 011.377 2.35 3.348 3.348 0 01-4.984 2.92L57.791 15.279a8.128 8.128 0 00-7.892 0L27.868 27.617a3.348 3.348 0 01-4.984-2.92 2.69 2.69 0 011.377-2.35z" fill="#EA9D3A"/></svg>